<svg width="1440" height="351" viewBox="0 0 1440 351" fill="none" xmlns="http://www.w3.org/2000/svg">
<path fill-rule="evenodd" clip-rule="evenodd" d="M1569.8 45.395C1566.85 49.7793 1560.91 50.9462 1556.53 48.0013C1529.96 30.1593 1494.68 19.1255 1455.71 19.1255C1416.75 19.1255 1381.46 30.1592 1354.9 48.0013C1350.51 50.9461 1344.57 49.7792 1341.63 45.395C1338.68 41.0108 1339.85 35.0694 1344.23 32.1246C1374.18 12.011 1413.23 -0.000158788 1455.71 -0.000155074C1498.19 -0.000151361 1537.25 12.011 1567.19 32.1247C1571.58 35.0695 1572.74 41.0108 1569.8 45.395Z" fill="#FFE300"/>
<path fill-rule="evenodd" clip-rule="evenodd" d="M1247.63 261.232C1250.57 256.848 1256.51 255.681 1260.9 258.625C1287.46 276.468 1322.75 287.501 1361.71 287.501C1400.68 287.501 1435.96 276.468 1462.53 258.625C1466.91 255.681 1472.85 256.848 1475.8 261.232C1478.74 265.616 1477.58 271.557 1473.19 274.502C1443.25 294.616 1404.19 306.627 1361.71 306.627C1319.23 306.627 1280.18 294.616 1250.23 274.502C1245.85 271.557 1244.68 265.616 1247.63 261.232Z" fill="#FFE300"/>
<path fill-rule="evenodd" clip-rule="evenodd" d="M-161.375 21.2317C-158.43 16.8474 -152.488 15.6806 -148.104 18.6254C-121.541 36.4674 -86.254 47.5012 -47.2886 47.5012C-8.32324 47.5012 26.9635 36.4674 53.5269 18.6254C57.9111 15.6806 63.8524 16.8474 66.7972 21.2317C69.7421 25.6159 68.5752 31.5572 64.1909 34.5021C34.2457 54.6157 -4.80994 66.6269 -47.2886 66.6269C-89.7673 66.6269 -128.823 54.6157 -158.768 34.5021C-163.152 31.5572 -164.319 25.6159 -161.375 21.2317Z" fill="#FFE300"/>
<path fill-rule="evenodd" clip-rule="evenodd" d="M182.797 346.395C179.853 350.779 173.911 351.946 169.527 349.001C142.964 331.159 107.677 320.126 68.7115 320.126C29.7461 320.126 -5.54069 331.159 -32.104 349.001C-36.4883 351.946 -42.4296 350.779 -45.3744 346.395C-48.3192 342.011 -47.1523 336.069 -42.7681 333.125C-12.8229 313.011 26.2328 301 68.7115 301C111.19 301 150.246 313.011 180.191 333.125C184.575 336.069 185.742 342.011 182.797 346.395Z" fill="#FFE300"/>
</svg>
