<svg width="214" height="161" viewBox="0 0 214 161" fill="none" xmlns="http://www.w3.org/2000/svg">
<path d="M105.539 141.015C138.62 141.015 165.439 143.079 165.439 145.623C165.439 148.169 138.62 150.232 105.539 150.232C72.456 150.232 45.6377 148.169 45.6377 145.623C45.6377 143.079 72.456 141.015 105.539 141.015Z" fill="#DBD9D9"/>
<path d="M213.176 103.766H0.913086V107.063H213.176V103.766Z" fill="#C7C7C7"/>
<path d="M15.7917 103.766C15.9706 104.297 16.0544 104.854 16.0438 105.414C16.0563 105.975 15.9716 106.533 15.7917 107.063C15.4549 105.99 15.4549 104.839 15.7917 103.766Z" fill="#263238"/>
<path d="M32.3848 103.766C32.7216 104.839 32.7216 105.99 32.3848 107.063C32.2049 106.533 32.1193 105.975 32.1327 105.414C32.1221 104.854 32.2058 104.297 32.3848 103.766Z" fill="#263238"/>
<path d="M48.9739 103.766C49.3097 104.839 49.3097 105.99 48.9739 107.063C48.7949 106.532 48.7102 105.975 48.7217 105.414C48.7131 104.854 48.7968 104.297 48.9739 103.766Z" fill="#263238"/>
<path d="M65.5637 103.766C65.7494 104.299 65.8418 104.86 65.8341 105.424C65.8485 105.984 65.7629 106.542 65.5829 107.072C65.2471 106 65.2471 104.849 65.5829 103.776L65.5637 103.766Z" fill="#263238"/>
<path d="M82.1573 103.766C82.4941 104.839 82.4941 105.99 82.1573 107.063C81.9773 106.533 81.8917 105.975 81.9052 105.414C81.8956 104.854 81.9783 104.297 82.1573 103.766Z" fill="#263238"/>
<path d="M98.7473 103.766C99.0841 104.839 99.0841 105.99 98.7473 107.063C98.5683 106.532 98.4836 105.975 98.4952 105.414C98.4865 104.854 98.5702 104.297 98.7473 103.766Z" fill="#263238"/>
<path d="M115.337 103.766C115.513 104.297 115.597 104.854 115.589 105.414C115.599 105.975 115.516 106.532 115.337 107.063C115 105.99 115 104.839 115.337 103.766Z" fill="#263238"/>
<path d="M131.925 103.766C132.262 104.839 132.262 105.99 131.925 107.063C131.589 105.99 131.589 104.839 131.925 103.766Z" fill="#263238"/>
<path d="M148.52 103.766C148.857 104.839 148.857 105.99 148.52 107.063C148.334 106.536 148.242 105.982 148.248 105.424C148.242 104.86 148.334 104.299 148.52 103.766Z" fill="#263238"/>
<path d="M165.11 103.766C165.286 104.297 165.371 104.854 165.362 105.414C165.373 105.975 165.289 106.532 165.11 107.063C164.772 105.99 164.772 104.839 165.11 103.766Z" fill="#263238"/>
<path d="M181.699 103.766C181.878 104.297 181.962 104.854 181.952 105.414C181.964 105.975 181.879 106.533 181.699 107.063C181.363 105.99 181.363 104.839 181.699 103.766Z" fill="#263238"/>
<path d="M198.293 103.766C198.63 104.839 198.63 105.99 198.293 107.063C198.113 106.533 198.027 105.975 198.041 105.414C198.028 104.854 198.114 104.297 198.293 103.766Z" fill="#263238"/>
<path d="M0.0834961 107.063L26.8248 106.946L53.5643 106.903L107.041 106.82L160.518 106.903L187.258 106.946L214 107.063L187.258 107.184L160.518 107.223L107.041 107.305L53.5643 107.223L26.8248 107.179L0.0834961 107.063Z" fill="#263238"/>
<path d="M43.3929 60.546C43.3929 60.546 37.3951 58.1712 32.6463 66.4524C27.7725 74.9521 33.8963 80.5486 38.7481 77.2115C38.7481 77.2115 42.5682 85.2397 50.2183 83.2901C57.8683 81.3406 59.0605 75.261 59.0605 75.261C59.0605 75.261 65.8166 75.7315 65.9994 70.6729C66.1841 65.6152 61.24 61.1532 61.24 61.1532C61.24 61.1532 60.9312 48.5947 52.7529 48.6977C44.5755 48.8006 43.3929 60.546 43.3929 60.546Z" fill="white"/>
<path d="M49.0601 105.071L50.7344 67.6804L52.4886 105.06L49.0601 105.071Z" fill="#263238"/>
<path d="M50.2406 81.7302L44.9761 71.2463L51.1018 80.0896L50.2406 81.7302Z" fill="#263238"/>
<path d="M183.887 57.277C183.887 57.277 196.768 85.8822 175.731 85.9515C154.696 86.0198 168.3 56.3715 168.3 56.3715C168.3 56.3715 163.437 54.2266 169.057 38.2607C174.677 22.2948 177.211 22.2833 179.563 22.2717C182.522 22.2717 185.298 29.1538 183.279 39.7975C183.279 39.7513 190.688 52.9872 183.887 57.277Z" fill="#DBD9D9"/>
<path d="M173.886 104.9L175.871 61.7737L177.946 104.887L173.886 104.9Z" fill="#263238"/>
<path d="M175.067 79.8489L182.695 70.9143L176.719 81.0306L175.067 79.8489Z" fill="#263238"/>
<path d="M24.1595 63.3557C24.1595 63.3557 12.9308 88.44 31.3514 88.4169C49.7711 88.3938 37.8082 62.4839 37.8082 62.4839C37.8082 62.4839 42.0749 60.6036 37.1087 46.6219C32.1424 32.6402 29.9398 32.6402 27.9325 32.6518C25.3296 32.6518 22.921 38.7073 24.7099 47.998C24.6637 47.998 18.1607 59.6058 24.1595 63.3557Z" fill="#DBD9D9"/>
<path d="M33.0011 105.048L31.1891 67.2788L29.457 105.048H33.0011Z" fill="#263238"/>
<path d="M31.9239 83.1071L25.2256 75.2954L30.4901 84.1502L31.9239 83.1071Z" fill="#263238"/>
<path d="M90.854 43.7488C90.854 43.7488 100.596 92.6713 101.281 96.2827C101.443 97.1044 100.881 128.618 100.881 128.618H118.981C118.981 128.618 120.725 102.644 119.851 95.4311C118.977 88.2189 107.947 43.7488 107.947 43.7488H90.854Z" fill="#D3766A"/>
<path d="M90.854 43.7488C90.854 43.7488 95.596 67.5619 98.7003 83.1862L107.952 43.7488H90.854Z" fill="#263238"/>
<path d="M114.087 68.2095L94.8416 70.5228L90.853 43.7488H107.946L114.087 68.2095Z" fill="#37474F"/>
<path d="M95.5582 66.8296C97.6146 66.4158 99.6979 66.1627 101.787 65.9097C103.875 65.6566 105.926 65.4497 107.977 65.238C109.16 65.1187 110.346 64.9994 111.534 64.9397C111.564 64.9397 111.589 64.9638 111.589 64.9946C111.589 65.0253 111.564 65.0494 111.534 65.0494C109.473 65.4314 107.394 65.6749 105.305 65.9472C103.217 66.2176 101.165 66.4755 99.1234 66.6958C97.9369 66.8248 96.7543 66.922 95.563 66.972C95.5245 66.997 95.4726 66.9855 95.4485 66.947C95.4235 66.9085 95.436 66.8565 95.4745 66.8325C95.4995 66.8161 95.5322 66.8152 95.5582 66.8296Z" fill="#263238"/>
<path d="M93.5166 45.3074C94.9484 50.4257 96.3148 55.5709 97.6149 60.7441C97.7938 61.4658 97.969 62.1932 98.1441 62.9198C98.3442 63.6597 98.5049 64.4084 98.6271 65.1647C98.6194 65.184 98.5983 65.1936 98.58 65.1849C98.5694 65.182 98.5617 65.1734 98.5579 65.1647C98.1143 63.8926 97.7399 62.5984 97.4349 61.2868C97.0856 60.0079 96.7594 58.7252 96.4274 57.4416C95.7654 54.8704 95.1033 52.304 94.4827 49.7281C94.1237 48.2558 93.7716 46.7845 93.4242 45.3122C93.4059 45.2709 93.5021 45.2478 93.5166 45.3074Z" fill="#263238"/>
<path d="M132.375 145.209C131.377 145.54 102.826 145.457 101.741 144.748C101.326 144.491 101.097 140.329 100.963 135.297C100.93 134.21 100.906 133.095 100.889 131.948C100.889 130.595 100.853 129.229 100.843 127.905C100.806 121.925 101.023 116.69 101.023 116.69H119.477V127.905V131.948L119.381 135.297C119.381 135.297 130.296 140.218 131.405 141.106C132.513 141.993 133.382 144.882 132.375 145.209Z" fill="#D3766A"/>
<path d="M132.375 145.209C131.377 145.54 102.826 145.457 101.741 144.748C101.326 144.491 101.097 140.329 100.964 135.296C100.93 134.21 100.906 133.095 100.889 131.948C100.889 130.595 100.853 129.229 100.843 127.905H119.469V131.948L119.372 135.296C119.372 135.296 130.287 140.217 131.395 141.106C132.505 141.993 133.382 144.882 132.375 145.209Z" fill="#DBDBDB"/>
<path d="M132.462 145.25C131.809 145.467 119.652 145.508 110.798 145.328C108.746 145.282 106.874 145.228 105.366 145.158C103.282 145.066 101.884 144.951 101.653 144.808C101.152 144.482 100.913 138.369 100.798 131.929H119.477L119.381 135.296C119.381 135.296 130.357 140.245 131.474 141.138C132.592 142.03 133.46 144.914 132.462 145.25Z" fill="#FFC727"/>
<path d="M132.054 144.105C127.242 143.971 107.822 143.893 103.052 144.128C103.015 144.128 103.015 144.156 103.052 144.156C107.822 144.396 127.242 144.312 132.054 144.183C132.155 144.198 132.155 144.105 132.054 144.105Z" fill="#263238"/>
<path d="M120.043 134.234C118.153 133.875 115.835 134.161 114.386 135.504C114.326 135.559 114.386 135.637 114.464 135.618C116.278 135.04 118.149 134.655 120.043 134.473C120.11 134.473 120.163 134.419 120.163 134.353C120.162 134.288 120.108 134.234 120.043 134.234Z" fill="#263238"/>
<path d="M121.423 135.062C119.528 134.703 117.214 134.989 115.76 136.331C115.707 136.387 115.76 136.465 115.843 136.445C117.657 135.866 119.528 135.482 121.423 135.3C121.489 135.3 121.543 135.246 121.542 135.18C121.542 135.116 121.488 135.062 121.423 135.062Z" fill="#263238"/>
<path d="M122.803 135.89C120.909 135.531 118.59 135.817 117.141 137.16C117.086 137.215 117.141 137.293 117.219 137.274C119.035 136.695 120.907 136.311 122.803 136.13C122.87 136.129 122.923 136.075 122.923 136.009C122.921 135.944 122.869 135.89 122.803 135.89Z" fill="#263238"/>
<path d="M124.155 136.718C122.265 136.359 119.947 136.645 118.497 137.987C118.438 138.043 118.497 138.121 118.575 138.102C120.386 137.524 122.253 137.139 124.146 136.958C124.212 136.959 124.267 136.908 124.27 136.842C124.272 136.777 124.221 136.721 124.155 136.718Z" fill="#263238"/>
<path d="M123.571 129.865C122.831 128.839 121.445 129.299 120.65 129.957C119.313 131.12 118.303 132.614 117.724 134.29C117.724 134.327 117.724 134.349 117.765 134.359C117.761 134.488 117.862 134.597 117.992 134.602C118.017 134.603 118.041 134.6 118.066 134.593C119.629 134.018 121.372 133.599 122.715 132.56C123.502 131.958 124.275 130.858 123.571 129.865ZM120.259 133.237C119.496 133.54 118.723 133.802 117.959 134.129C118.504 133.267 119.092 132.437 119.726 131.64C120.035 131.257 120.369 130.895 120.728 130.56C121.294 130.049 123.529 128.963 123.189 131.019C123.014 132.183 121.17 132.878 120.259 133.237Z" fill="#263238"/>
<path d="M112.913 133.778C114.473 134.451 116.267 134.423 117.923 134.589C118.053 134.591 118.16 134.489 118.163 134.36C118.163 134.334 118.161 134.309 118.153 134.285C118.181 134.274 118.194 134.241 118.183 134.212C118.182 134.21 118.181 134.209 118.18 134.207C117.2 132.728 115.849 131.534 114.261 130.743C113.342 130.282 111.869 130.204 111.409 131.382C110.949 132.56 112.004 133.388 112.913 133.778ZM112.064 132.426C111.212 130.499 113.647 130.992 114.322 131.346C114.753 131.585 115.17 131.851 115.569 132.142C116.402 132.739 117.133 133.443 117.9 134.115C117.091 133.981 116.277 133.922 115.462 133.82C114.491 133.7 112.527 133.489 112.064 132.426Z" fill="#263238"/>
<g opacity="0.1">
<g opacity="0.1">
<path opacity="0.1" d="M112.459 145.36L110.798 145.328C108.747 145.282 106.874 145.227 105.366 145.158C103.283 145.065 101.884 144.951 101.653 144.808C101.272 144.56 101.042 140.99 100.904 136.469L112.459 145.36Z" fill="black"/>
</g>
</g>
<path d="M95.4108 126.354L76.791 126.124C76.791 126.124 81.0741 74.93 82.6656 61.6959C82.6656 61.6959 79.648 54.5386 85.2965 43.7295H107.965C107.965 43.7295 106.446 54.0142 103.824 60.5374C102.171 61.0762 100.581 61.7941 99.0819 62.6755L95.4108 126.354Z" fill="#D3766A"/>
<path d="M98.7698 70.6662H80.9458L82.2978 61.6969C82.2978 61.6969 79.5929 52.5891 84.8776 43.7295H107.946C107.946 43.7295 106.99 53.3897 104.16 60.6336L101.263 61.9221L98.7698 70.6662Z" fill="#37474F"/>
<path d="M101.28 61.9218C101.28 61.8063 101.538 61.8063 101.515 61.9218C100.595 67.2114 99.0947 69.7691 98.9898 70.0125C98.9898 70.0299 98.9744 70.0443 98.9571 70.0443C98.9388 70.0443 98.9253 70.0299 98.9253 70.0125C98.8426 69.7643 100.858 64.1158 101.28 61.9218Z" fill="#263238"/>
<path d="M104.703 60.2758C102.661 61.0225 100.687 61.9453 98.8059 63.0356C98.7732 63.051 98.7578 63.0894 98.7742 63.1231C98.7886 63.1558 98.8281 63.1703 98.8617 63.1549C100.848 62.3042 102.872 61.4854 104.813 60.524C104.964 60.4403 104.863 60.2238 104.703 60.2758Z" fill="#263238"/>
<path d="M105.324 46.6413C105.324 46.572 105.195 46.5537 105.195 46.6413C105.196 48.8584 105.086 51.0735 104.863 53.279C104.773 54.3048 103.943 59.9619 102.174 59.5481C101.874 59.4789 101.713 59.1854 101.676 58.7389C101.684 58.1529 101.763 57.5707 101.911 57.0049C102.108 55.8184 102.27 54.631 102.371 53.4358C102.577 51.2082 102.552 48.9652 102.297 46.7423C102.288 46.7106 102.255 46.6923 102.223 46.7009C102.203 46.7067 102.188 46.7221 102.182 46.7423C102.235 49.8302 102.056 52.9181 101.644 55.9791C101.418 57.4504 100.678 59.6588 102.219 59.8926C103.76 60.1284 104.8 56.4112 104.979 55.395C105.47 52.5044 105.587 49.5618 105.324 46.6413Z" fill="#263238"/>
<path d="M102.234 59.6912C102.075 60.0732 101.941 60.4649 101.834 60.8642C101.722 61.1741 101.665 61.5003 101.667 61.8303C101.667 61.89 101.759 61.8948 101.792 61.8534C101.973 61.5676 102.113 61.2578 102.206 60.9335C102.339 60.5736 102.482 60.2109 102.606 59.8471C102.65 59.7442 102.6 59.6258 102.497 59.5835C102.395 59.5392 102.277 59.5883 102.234 59.6912Z" fill="#263238"/>
<path d="M85.7153 53.5599C87.3896 53.3944 89.114 53.4174 90.6691 52.663C92.2241 51.9086 93.2547 50.4046 94.0639 48.9006C94.5595 47.9672 94.9338 46.9751 95.1773 45.9474C95.1773 45.9243 95.1965 45.906 95.2186 45.906C95.2408 45.906 95.26 45.9243 95.26 45.9474C95.1965 46.9096 94.9636 47.8527 94.5749 48.7351C94.2275 49.605 93.781 50.4325 93.245 51.2004C92.7466 51.9336 92.0913 52.5476 91.3272 52.9989C90.5478 53.4194 89.6924 53.6782 88.8109 53.7581C87.7803 53.8726 86.7411 53.8726 85.7105 53.7581C85.6557 53.7562 85.6133 53.7109 85.6143 53.6571C85.6152 53.6012 85.6605 53.5589 85.7153 53.5599Z" fill="#263238"/>
<path d="M83.4014 63.5866C83.6381 62.7668 83.8065 61.9277 83.9027 61.0799C83.9489 60.2428 83.5072 59.5162 83.2503 58.7387C82.2649 55.7259 82.6652 52.4282 83.742 49.4981C84.38 47.8305 85.1479 46.2177 86.0418 44.6723C86.0418 44.6358 86.1246 44.6723 86.1015 44.7099C84.634 47.5755 83.3417 50.6384 83.0473 53.8812C82.8914 55.4439 83.0376 57.0211 83.4793 58.527C83.6958 59.2401 84.1048 59.9069 84.1654 60.6758C84.1616 61.4696 84.0374 62.2597 83.7969 63.017C83.5852 63.9359 82.9279 66.7833 82.6383 67.7359C82.6152 67.8187 82.467 67.8052 82.4815 67.7359C82.6287 66.866 83.2128 64.4517 83.4014 63.5866Z" fill="#263238"/>
<path d="M82.1228 68.3429C84.2157 68.186 86.3173 68.1909 88.415 68.2091C90.5128 68.2274 92.5556 68.2601 94.6438 68.3063C95.8302 68.3294 97.0215 68.3564 98.2041 68.4401C98.2349 68.4305 98.2686 68.4487 98.2773 68.4805C98.2869 68.5123 98.2676 68.545 98.2369 68.5546C98.2253 68.5575 98.2147 68.5575 98.2041 68.5546C96.1112 68.6787 94.0048 68.6643 91.9119 68.6835C89.818 68.7018 87.7713 68.6835 85.6831 68.6835C84.4919 68.6835 83.3054 68.6191 82.1179 68.518C82.0698 68.5161 82.0313 68.4766 82.0333 68.4276C82.0342 68.3795 82.0747 68.3419 82.1228 68.3429Z" fill="#263238"/>
<path d="M107.832 145.862C106.819 146.17 78.2823 145.365 77.2151 144.648C76.811 144.381 76.6821 140.214 76.6772 135.177V131.829C76.6772 130.477 76.7042 129.11 76.7331 127.785C76.8476 121.806 77.4317 116.074 77.4317 116.074L95.6646 117.059L95.3702 128.268L95.2643 132.312L95.0854 135.659C95.0854 135.659 105.871 140.854 106.958 141.769C108.043 142.684 108.834 145.578 107.832 145.862Z" fill="#D3766A"/>
<path d="M107.832 145.862C106.819 146.17 78.2823 145.365 77.2151 144.648C76.811 144.381 76.6821 140.214 76.6772 135.177V131.829C76.6772 130.477 76.7042 129.11 76.7331 127.785L95.3471 128.245L95.2413 132.289L95.0613 135.637C95.0613 135.637 105.848 140.831 106.934 141.746C108.019 142.661 108.834 145.577 107.832 145.862Z" fill="#DBDBDB"/>
<path d="M107.914 145.909C107.256 146.106 95.0995 145.844 86.2534 145.448C84.2066 145.352 82.3341 145.25 80.8262 145.145C78.7458 144.998 77.3524 144.846 77.1455 144.686C76.6538 144.35 76.5662 138.245 76.6172 131.806L95.2871 132.266L95.1072 135.633C95.1072 135.633 105.954 140.858 107.067 141.773C108.18 142.689 108.921 145.578 107.914 145.909Z" fill="#FFC727"/>
<path d="M107.536 144.749C102.724 144.496 83.3134 143.926 78.5579 144.042C78.5165 144.042 78.5165 144.069 78.5579 144.069C83.3134 144.428 102.734 144.837 107.536 144.828C107.623 144.828 107.623 144.754 107.536 144.749Z" fill="#263238"/>
<path d="M95.7981 134.584C93.9168 134.174 91.5891 134.4 90.1082 135.71C90.0476 135.761 90.1082 135.839 90.1861 135.821C92.0106 135.288 93.888 134.954 95.7836 134.822C95.85 134.826 95.9068 134.776 95.9106 134.71C95.9145 134.643 95.8635 134.588 95.7981 134.584Z" fill="#263238"/>
<path d="M97.1413 135.457C95.2601 135.052 92.9324 135.277 91.4515 136.584C91.3908 136.635 91.4514 136.718 91.5294 136.698C93.3538 136.164 95.2312 135.829 97.1269 135.696C97.1942 135.7 97.2501 135.65 97.2539 135.583C97.2578 135.517 97.2068 135.461 97.1413 135.457Z" fill="#263238"/>
<path d="M98.4837 136.304C96.6024 135.899 94.2747 136.124 92.7938 137.431C92.7341 137.482 92.7938 137.565 92.8727 137.545C94.6971 137.013 96.5745 136.678 98.4702 136.543C98.5366 136.547 98.5924 136.496 98.5962 136.43C98.6001 136.364 98.5501 136.308 98.4837 136.304Z" fill="#263238"/>
<path d="M99.8278 137.169C97.9466 136.759 95.6189 136.986 94.138 138.296C94.0774 138.347 94.138 138.425 94.2159 138.406C96.0384 137.877 97.912 137.543 99.8048 137.408C99.8702 137.415 99.9289 137.367 99.9356 137.3C99.9404 137.234 99.8933 137.176 99.8278 137.169Z" fill="#263238"/>
<path d="M99.4175 130.302C98.6997 129.257 97.3015 129.681 96.497 130.302C95.1277 131.428 94.0789 132.896 93.4563 134.556C93.4457 134.582 93.4592 134.612 93.4842 134.621C93.489 134.623 93.4928 134.624 93.4977 134.625C93.488 134.754 93.5852 134.867 93.7142 134.876C93.7411 134.878 93.7671 134.875 93.7931 134.868C95.3693 134.335 97.1215 133.949 98.4928 132.955C99.2943 132.39 100.094 131.29 99.4175 130.302ZM96.0197 133.591C95.2509 133.871 94.4695 134.115 93.719 134.423C94.2896 133.575 94.9045 132.759 95.5588 131.975C95.8793 131.603 96.2238 131.25 96.5904 130.923C97.1687 130.426 99.4281 129.4 99.0374 131.465C98.8017 132.606 96.9387 133.254 96.0197 133.591Z" fill="#263238"/>
<path d="M88.6592 133.945C90.1997 134.653 91.9982 134.671 93.6495 134.864C93.8246 134.888 93.9122 134.709 93.8833 134.565C93.9093 134.56 93.9247 134.537 93.9199 134.511C93.9189 134.505 93.917 134.498 93.9122 134.492C92.972 132.988 91.6518 131.76 90.0843 130.932C89.1643 130.471 87.7113 130.329 87.2196 131.497C86.7269 132.666 87.7614 133.531 88.6592 133.945ZM87.8451 132.565C87.0454 130.619 89.4646 131.185 90.1459 131.543C90.5712 131.791 90.9801 132.068 91.3689 132.371C92.1878 132.987 92.9008 133.71 93.6687 134.4C92.8642 134.249 92.0492 134.17 91.24 134.046C90.2421 133.908 88.306 133.645 87.8451 132.569V132.565Z" fill="#263238"/>
<path d="M131.455 50.2976C131.916 52.0085 132.55 53.678 133.116 55.3572C133.681 57.0363 134.265 58.7193 134.79 60.4168C135.338 62.1132 135.776 63.8434 136.1 65.5966C136.231 66.4819 136.286 67.3778 136.266 68.2737C136.266 69.1657 136.234 70.0577 136.183 70.9459C135.991 74.5014 135.503 78.0291 135.066 81.5529C134.845 83.3148 134.605 85.0767 134.459 86.8377C134.27 88.5948 134.193 90.3615 134.229 92.1273C134.343 95.6463 135.746 98.9997 137.527 102.031C139.307 105.062 141.51 95.5953 143.544 98.5167C144.591 99.9611 145.515 101.492 146.303 103.093C146.689 103.904 146.975 104.761 147.154 105.641C147.338 106.51 147.499 107.39 147.614 108.267C148.121 111.788 148.353 115.344 148.304 118.901C148.271 115.356 147.963 111.82 147.384 108.322C147.067 106.583 146.818 104.808 146.004 103.235C145.205 101.658 144.273 100.154 143.217 98.7361C141.147 95.8618 138.943 105.332 137.122 102.278C136.197 100.745 135.418 99.1287 134.799 97.4486C134.174 95.7588 133.814 93.9815 133.731 92.1821C133.697 90.3952 133.78 88.6082 133.981 86.8329C134.156 85.0613 134.381 83.2946 134.61 81.5337C135.071 78.0147 135.53 74.4957 135.792 70.9545C135.847 70.0712 135.889 69.1878 135.903 68.3045C135.934 67.424 135.891 66.5426 135.774 65.6688C135.468 63.9262 135.055 62.2047 134.537 60.513C134.044 58.806 133.511 57.1133 132.968 55.4207C132.426 53.729 131.896 52.0191 131.455 50.2976Z" fill="#263238"/>
<path d="M49.4343 139.852L52.5747 135.98L51.1995 134.864L48.0591 138.737L49.4343 139.852Z" fill="#FFC727"/>
<path d="M63.1114 133.986C70.5488 133.986 76.5793 140.016 76.5793 147.454C76.5793 154.892 70.5488 160.922 63.1114 160.922C55.6741 160.922 49.6436 154.892 49.6436 147.454C49.6436 140.016 55.6741 133.986 63.1114 133.986Z" fill="#263238"/>
<path d="M63.1118 137.596C68.5554 137.596 72.9693 142.009 72.9693 147.454C72.9693 152.897 68.5554 157.31 63.1118 157.31C57.6683 157.31 53.2544 152.897 53.2544 147.454C53.2544 142.009 57.6683 137.596 63.1118 137.596Z" fill="#455A64"/>
<path d="M49.2798 147.638H47.4399C47.4399 138.665 54.2201 131.898 63.2086 131.898C69.1005 131.898 73.6905 134.681 76.8554 140.177L75.259 141.097C72.4482 136.221 68.3961 133.738 63.2086 133.738C55.1352 133.738 49.2798 139.598 49.2798 147.638Z" fill="#455A64"/>
<path d="M154.638 133.986C162.076 133.986 168.107 140.016 168.107 147.454C168.107 154.892 162.076 160.922 154.638 160.922C147.2 160.922 141.17 154.892 141.17 147.454C141.17 140.016 147.2 133.986 154.638 133.986Z" fill="#263238"/>
<path d="M154.638 137.596C160.082 137.596 164.495 142.009 164.495 147.454C164.495 152.897 160.082 157.31 154.638 157.31C149.194 157.31 144.781 152.897 144.781 147.454C144.781 142.009 149.193 137.596 154.638 137.596Z" fill="#455A64"/>
<path d="M140.807 147.638H138.967C138.967 138.665 145.747 131.898 154.735 131.898C160.628 131.898 165.218 134.681 168.382 140.177L166.786 141.097C163.976 136.221 159.923 133.738 154.735 133.738C146.667 133.738 140.807 139.598 140.807 147.638Z" fill="#455A64"/>
<path d="M135.82 145.273H59.3491V149.63H135.82V145.273Z" fill="#37474F"/>
<path d="M128.627 60.8799L144.182 104.386L142.398 104.883L126.842 61.3774L128.627 60.8799Z" fill="#455A64"/>
<path d="M129.139 49.2077L125.17 56.0842L126.777 57.0117L130.746 50.1351L129.139 49.2077Z" fill="#37474F"/>
<path d="M140.672 103.326L149.09 133.514L153.286 132.344L144.869 102.156L140.672 103.326Z" fill="#37474F"/>
<path d="M145.728 117.149L149.682 131.336L151.653 130.787L147.698 116.6L145.728 117.149Z" fill="#FFC727"/>
<path d="M124.653 56.1296L126.783 63.7678L129.96 62.8818L127.83 55.2436L124.653 56.1296Z" fill="#37474F"/>
<path d="M148.056 127.744L135.489 143.296H129.298L146.06 122.445L148.056 127.744Z" fill="#37474F"/>
<path d="M135.82 143.296H124.132V145.278H135.82V143.296Z" fill="#37474F"/>
<path d="M134.146 48.7159C134.146 50.2016 132.941 51.4064 131.455 51.4064C129.969 51.4064 128.764 50.2016 128.764 48.7159C128.764 47.2301 129.969 46.0254 131.455 46.0254C132.94 46.0254 134.146 47.2301 134.146 48.7159Z" fill="#37474F"/>
<path d="M133.042 48.7157C133.042 49.5923 132.332 50.3024 131.455 50.3024C130.578 50.3024 129.868 49.5923 129.868 48.7157C129.868 47.839 130.578 47.1289 131.455 47.1289C132.329 47.127 133.04 47.8333 133.042 48.707V48.7157Z" fill="#FFC727"/>
<path d="M76.4204 146.548H61.3647V148.365H76.4204V146.548Z" fill="#FFC727"/>
<path d="M107.689 4.88081C109.855 11.8861 103.172 23.6248 93.2089 28.2157C82.4412 33.1733 73.0437 26.0988 70.335 19.5679C67.4636 12.6405 71.7697 5.79593 77.3768 5.01457C82.7905 4.2592 87.2112 7.11135 91.1757 5.35425C93.0752 4.51227 95.7022 1.98729 98.4523 0.620871C101.53 -0.906243 106.378 0.64396 107.689 4.88081Z" fill="#263238"/>
<path d="M108.084 7.97559C107.787 11.7842 106.72 15.4928 104.947 18.8771C104.057 20.5639 102.961 22.1324 101.681 23.546C101.032 24.2504 100.337 24.9134 99.603 25.5283C98.8678 26.1364 98.0999 26.7022 97.3022 27.2257C94.0825 29.2907 90.3383 30.6523 86.4892 30.5879C82.6315 30.5359 78.922 29.0973 76.0371 26.5358C78.9788 28.9491 82.6613 30.2761 86.4652 30.2934C90.2459 30.2126 93.9208 29.0347 97.0443 26.9033C97.8411 26.3953 98.609 25.842 99.3451 25.2473C100.07 24.6488 100.755 24.0031 101.397 23.316C102.665 21.9178 103.764 20.3734 104.666 18.7164C105.577 17.0594 106.316 15.3148 106.874 13.5086C107.455 11.7082 107.86 9.85585 108.084 7.97559Z" fill="#263238"/>
<path d="M95.2041 2.6543C94.391 3.32692 93.5182 3.92449 92.5964 4.4393C91.6572 4.94642 90.6459 5.30534 89.597 5.50164C88.5366 5.68062 87.4521 5.65849 86.4013 5.43717C85.3698 5.20718 84.3488 4.97721 83.3182 4.82036C81.2753 4.40659 79.1709 4.40659 77.127 4.82036C75.0803 5.29476 73.2529 6.4437 71.9385 8.08244C72.5466 7.21448 73.2991 6.45814 74.1652 5.8471C74.5982 5.5411 75.0601 5.27743 75.545 5.05996C76.03 4.8396 76.5342 4.6587 77.0491 4.52205C79.1285 4.04477 81.283 4.00532 83.3788 4.40658C84.4229 4.57305 85.4525 4.82035 86.4744 5.0513C87.4819 5.27358 88.5212 5.31207 89.5421 5.16581C91.6254 4.90792 93.498 3.83692 95.2041 2.6543Z" fill="#263238"/>
<path d="M123.419 8.36712L119.095 21.0122C118.95 21.2201 119.002 21.5068 119.211 21.6521C119.285 21.7031 119.372 21.732 119.464 21.7339L126.123 22.2863C126.542 22.2892 126.925 22.0505 127.108 21.6743L131.431 9.02916C131.577 8.82131 131.525 8.53456 131.316 8.38926C131.242 8.33826 131.154 8.30938 131.063 8.30746L124.399 7.75513C123.981 7.75417 123.6 7.99183 123.419 8.36712Z" fill="#37474F"/>
<path d="M124.211 8.40376L119.888 21.0479C119.742 21.2567 119.794 21.5435 120.003 21.6888C120.077 21.7398 120.165 21.7687 120.256 21.7706L126.916 22.3219C127.335 22.3248 127.718 22.0872 127.9 21.7109L132.224 9.0658C132.369 8.85699 132.317 8.57023 132.108 8.42589C132.034 8.37393 131.947 8.34507 131.855 8.3441L125.192 7.79176C124.774 7.78984 124.392 8.02752 124.211 8.40376Z" fill="#455A64"/>
<path d="M125.986 9.1447C125.951 9.45551 125.672 9.67877 125.361 9.64412C125.05 9.60852 124.827 9.32849 124.861 9.01864C124.896 8.70879 125.174 8.48555 125.485 8.51923C125.796 8.55291 126.02 8.83196 125.986 9.14277V9.1447Z" fill="#263238"/>
<path d="M101.092 24.1811C104.127 32.5528 112.72 44.6408 116.216 45.0093C117.876 45.1835 120.816 45.8551 123.175 44.1442C128.332 40.4039 133.051 32.7828 134.284 28.2842C134.744 26.6878 127.131 22.4375 125.844 23.6518C122.821 26.504 119.081 32.2949 118.603 32.217C116.823 31.9138 109.565 25.3175 104.905 21.2096C99.0541 16.0721 99.8865 20.8459 101.092 24.1811Z" fill="#D3766A"/>
<path d="M135.25 19.8989C134.716 16.5223 134.059 15.7593 135.121 12.6454C135.82 10.6169 134.826 9.30151 133.203 10.8334C130.543 13.3353 130.318 17.8378 130.692 19.4207L135.25 19.8989Z" fill="#D3766A"/>
<path d="M133.764 29.6679C133.764 29.6679 135.664 25.2021 135.447 21.5455C135.301 19.0147 134.366 13.55 127.628 10.0916C126.036 9.27275 123.18 9.23619 125.3 11.5225C126.805 13.1459 128.249 13.7203 128.953 14.8202C128.953 14.8202 125.314 15.207 124.555 16.8352C123.895 18.2613 123.334 19.7326 122.877 21.2366C123.133 21.3829 123.399 21.5118 123.672 21.6234C123.672 21.6234 123.106 23.214 124.081 25.5831L133.764 29.6679Z" fill="#D3766A"/>
<path d="M134.923 19.1528C134.003 18.205 131.988 16.2276 129.785 15.1835C127.342 14.024 122.319 12.4237 121.478 14.2636C120.867 15.5925 122.729 16.3661 122.729 16.3661C122.729 16.3661 120.517 16.1486 120.222 17.4737C119.955 18.6794 121.432 19.1894 121.432 19.1894C121.432 19.1894 120.052 19.2866 120.052 20.5C120.016 21.954 122.88 21.5075 124.114 23.0163C124.376 23.3522 134.923 19.1528 134.923 19.1528Z" fill="#D3766A"/>
<path d="M128.99 17.9714C127.133 16.8061 124.966 16.2317 122.776 16.325C122.72 16.325 122.693 16.375 122.744 16.3799C124.88 16.6656 126.974 17.2074 128.98 17.9945C128.98 17.9945 129.004 17.9801 128.99 17.9714Z" fill="#263238"/>
<path d="M127.747 20.4088C125.794 19.4186 123.607 18.9779 121.423 19.1347C121.367 19.1347 121.345 19.1858 121.399 19.1896C123.547 19.3628 125.667 19.7795 127.72 20.4319C127.72 20.4319 127.757 20.4126 127.747 20.4088Z" fill="#263238"/>
<path d="M107.582 39.6041L108.083 44.2451L84.8452 43.7842C84.8452 43.7842 86.3675 26.6039 93.2217 20.2568C96.6532 17.0785 100.338 17.6308 102.509 20.2155C103.061 20.8688 109.499 29.6495 109.965 33.3109C110.383 36.5547 107.582 39.6041 107.582 39.6041Z" fill="#FFC727"/>
<path d="M102.482 21.8572C102.621 21.8648 102.73 21.9842 102.725 22.1247C102.721 22.2661 102.6 22.3777 102.458 22.372C102.316 22.3662 102.206 22.2469 102.21 22.1054C102.215 21.963 102.335 21.8523 102.478 21.8572H102.482ZM99.0822 21.9457C99.0726 22.0871 99.1784 22.2113 99.3209 22.2209C99.4623 22.2315 99.5864 22.1247 99.5961 21.9822C99.6057 21.8408 99.4998 21.7176 99.3584 21.707C99.3536 21.707 99.3488 21.707 99.3449 21.7061C99.2063 21.7013 99.0889 21.8081 99.0822 21.9457ZM95.9491 21.7888C95.9241 21.9284 96.0174 22.0621 96.1569 22.0871C96.2974 22.1122 96.4312 22.0188 96.4562 21.8793C96.46 21.8581 96.461 21.8369 96.46 21.8158C96.4494 21.6753 96.3263 21.5665 96.1848 21.5771C96.0684 21.5858 95.9703 21.6724 95.9491 21.7888ZM92.8179 21.6377C92.8121 21.7782 92.9208 21.8966 93.0613 21.9043C93.2018 21.9235 93.3317 21.8244 93.35 21.6839C93.3702 21.5425 93.2701 21.4126 93.1296 21.3943C93.1065 21.3905 93.0834 21.3905 93.0613 21.3943C92.9295 21.401 92.8246 21.5059 92.8179 21.6377ZM100.76 19.7334C100.753 19.8758 100.861 19.9971 101.004 20.0038C101.146 20.0115 101.268 19.9028 101.275 19.7604C101.283 19.6189 101.173 19.4977 101.031 19.49H101.027C100.887 19.4832 100.768 19.5929 100.76 19.7334ZM97.6292 19.5775C97.6215 19.7171 97.7273 19.8364 97.8678 19.8431C97.8698 19.8431 97.8707 19.8431 97.8726 19.8441C98.0093 19.8537 98.1286 19.7517 98.1392 19.6151V19.6045C98.1469 19.4621 98.0382 19.3408 97.8967 19.3331H97.8957C97.7562 19.3293 97.6379 19.438 97.6292 19.5775ZM94.4961 19.4207C94.4912 19.5612 94.599 19.6805 94.7405 19.6872C94.88 19.6949 94.9993 19.5881 95.007 19.4486C95.0147 19.3081 94.9079 19.1888 94.7674 19.1811C94.6317 19.1734 94.5124 19.2715 94.4961 19.4072V19.4207ZM105.113 26.9398C105.105 27.0794 105.212 27.1987 105.351 27.2064C105.353 27.2073 105.354 27.2073 105.356 27.2073C105.496 27.2131 105.615 27.1053 105.621 26.9658C105.627 26.8253 105.519 26.707 105.379 26.7012C105.241 26.6973 105.122 26.8013 105.113 26.9398ZM101.98 26.7839C101.975 26.9254 102.084 27.0457 102.224 27.0553C102.364 27.063 102.483 26.9562 102.49 26.8167C102.491 26.8147 102.491 26.8138 102.491 26.8118C102.501 26.6752 102.398 26.5559 102.262 26.5453C102.258 26.5453 102.255 26.5443 102.251 26.5443C102.117 26.5357 101.999 26.6329 101.98 26.7657V26.7839ZM98.8522 26.6329C98.8474 26.7724 98.9571 26.8898 99.0966 26.8946C99.2362 26.8994 99.3536 26.7907 99.3584 26.6511C99.3622 26.5135 99.2564 26.3961 99.1197 26.3894C98.9783 26.3827 98.8599 26.4924 98.8522 26.6329ZM95.7191 26.477C95.7191 26.6165 95.8326 26.7301 95.9731 26.7301C96.1127 26.7301 96.2262 26.6165 96.2262 26.477C96.2262 26.3365 96.1127 26.2239 95.9731 26.2239C95.8326 26.2229 95.7191 26.3365 95.7191 26.477ZM92.5869 26.3192C92.5773 26.4558 92.6793 26.5751 92.8169 26.5857C92.8198 26.5857 92.8236 26.5857 92.8265 26.5857C92.967 26.5944 93.0883 26.4876 93.0979 26.3471C93.1066 26.2076 92.9988 26.0882 92.8592 26.0805C92.8583 26.0805 92.8564 26.0796 92.8544 26.0796C92.7188 26.0699 92.5994 26.17 92.5869 26.3057V26.3192ZM89.4557 26.1633C89.4297 26.3028 89.5231 26.4366 89.6626 26.4616C89.8031 26.4866 89.9378 26.3933 89.9619 26.2537C89.9657 26.2326 89.9676 26.2114 89.9657 26.1902C89.9734 26.0507 89.8666 25.9314 89.7271 25.9237H89.7223C89.5847 25.9141 89.4653 26.016 89.4557 26.1527V26.1633ZM103.664 24.5717C103.656 24.7122 103.764 24.8315 103.902 24.8382C104.043 24.8459 104.162 24.7382 104.17 24.5986C104.175 24.4601 104.07 24.3408 103.931 24.3331C103.793 24.3225 103.674 24.4254 103.664 24.5621V24.5717ZM100.53 24.4148C100.524 24.5544 100.631 24.6737 100.77 24.6814C100.911 24.6881 101.029 24.5813 101.037 24.4418C101.044 24.3013 100.937 24.1839 100.798 24.1752C100.661 24.1656 100.542 24.2686 100.531 24.4052C100.531 24.4091 100.531 24.412 100.53 24.4148ZM97.3982 24.2628C97.3934 24.4033 97.4993 24.5197 97.6378 24.5303C97.7783 24.5544 97.9121 24.462 97.9371 24.3215C97.9612 24.181 97.8688 24.0482 97.7283 24.0232C97.7081 24.0194 97.686 24.0184 97.6658 24.0194C97.5262 24.0117 97.4069 24.1185 97.3982 24.258V24.2628ZM94.267 24.1079C94.2613 24.2484 94.37 24.3677 94.5095 24.3744C94.651 24.3937 94.7809 24.2946 94.7992 24.1531C94.8194 24.0126 94.7193 23.8827 94.5788 23.8644C94.5557 23.8606 94.5326 23.8606 94.5095 23.8644C94.3854 23.8779 94.2882 23.9818 94.2844 24.1079H94.267ZM91.1339 23.951C91.1243 24.0934 91.2301 24.2166 91.3726 24.2262C91.514 24.2368 91.6372 24.13 91.6478 23.9876C91.6583 23.8461 91.5506 23.723 91.4091 23.7124C91.4062 23.7124 91.4033 23.7124 91.4004 23.7124C91.2619 23.7047 91.1416 23.8105 91.1339 23.951ZM108.015 31.7704C108.007 31.9118 108.113 32.0321 108.255 32.0427C108.392 32.0639 108.522 31.9696 108.542 31.831C108.543 31.8291 108.543 31.8281 108.543 31.8262C108.551 31.6867 108.444 31.5674 108.305 31.5597C108.165 31.552 108.046 31.6597 108.038 31.7983L108.015 31.7704ZM104.883 31.6193C104.877 31.7579 104.983 31.8763 105.122 31.8859C105.262 31.9109 105.396 31.8175 105.42 31.6771C105.446 31.5375 105.352 31.4038 105.213 31.3788C105.192 31.3749 105.17 31.3739 105.149 31.3749C105.011 31.3576 104.885 31.4557 104.866 31.5943C104.864 31.6058 104.863 31.6164 104.863 31.6289L104.883 31.6193ZM101.751 31.4625C101.742 31.602 101.849 31.7213 101.989 31.729H101.994C102.135 31.7348 102.253 31.6261 102.261 31.4856C102.265 31.3451 102.158 31.2267 102.017 31.219C101.875 31.2142 101.755 31.3249 101.751 31.4673V31.4721V31.4625ZM98.6174 31.3066C98.6078 31.448 98.7146 31.5712 98.8561 31.5818C98.9985 31.5914 99.1207 31.4846 99.1313 31.3431C99.1419 31.2007 99.0351 31.0776 98.8926 31.067C98.8898 31.067 98.8869 31.067 98.884 31.067C98.7454 31.0593 98.6261 31.1671 98.6174 31.3066C98.6174 31.3085 98.6174 31.3124 98.6174 31.3152V31.3066ZM95.4853 31.1536C95.4968 31.295 95.6209 31.4009 95.7624 31.3893C95.8798 31.3797 95.976 31.2922 95.9953 31.1767C96.0203 31.0362 95.926 30.9034 95.7865 30.8793C95.646 30.8543 95.5122 30.9486 95.4882 31.0891C95.4843 31.1103 95.4833 31.1315 95.4853 31.1536ZM92.3521 30.9977C92.3473 31.1382 92.4561 31.2566 92.5965 31.2643C92.738 31.2835 92.8669 31.1844 92.8862 31.0429C92.9054 30.9024 92.8063 30.7725 92.6649 30.7533C92.6427 30.7504 92.6196 30.7504 92.5965 30.7533C92.4618 30.761 92.355 30.8707 92.3521 31.0064V30.9977ZM89.22 30.8418C89.2161 30.9823 89.3239 31.1016 89.4634 31.1084C89.6039 31.1161 89.7232 31.0092 89.7309 30.8697V30.8649C89.7367 30.7263 89.6299 30.608 89.4923 30.5984C89.3489 30.5955 89.2296 30.7081 89.2248 30.8505L89.22 30.8418ZM106.562 29.4023C106.553 29.5437 106.662 29.665 106.804 29.6736H106.805C106.945 29.6765 107.062 29.5687 107.072 29.4292C107.062 29.2877 106.939 29.1809 106.798 29.1906C106.679 29.1983 106.582 29.2858 106.562 29.4023ZM103.429 29.2493C103.421 29.3917 103.531 29.5129 103.672 29.5206C103.815 29.5274 103.936 29.4186 103.944 29.2762C103.951 29.1348 103.843 29.0135 103.699 29.0058H103.695C103.554 29.001 103.435 29.1117 103.429 29.2541V29.2589V29.2493ZM100.297 29.0943C100.316 29.2348 100.445 29.3339 100.586 29.3147C100.701 29.2993 100.792 29.2089 100.807 29.0943C100.826 28.9529 100.727 28.823 100.586 28.8037C100.445 28.7855 100.316 28.8836 100.297 29.0251C100.294 29.0472 100.294 29.0703 100.297 29.0943ZM97.1635 28.9375C97.1558 29.077 97.2635 29.1963 97.4021 29.204C97.404 29.204 97.4059 29.204 97.4079 29.204C97.5484 29.2108 97.6667 29.103 97.6725 28.9625C97.6783 28.823 97.5705 28.7046 97.431 28.6989C97.2885 28.6931 97.1692 28.8037 97.1635 28.9461V28.9375ZM94.0313 28.7816C94.0265 28.9221 94.1343 29.0424 94.2757 29.053C94.4162 29.0578 94.5345 28.949 94.5422 28.8086C94.5519 28.6719 94.4499 28.5526 94.3132 28.542C94.3094 28.542 94.3065 28.542 94.3036 28.542C94.1612 28.5343 94.039 28.643 94.0313 28.7855V28.7903V28.7816ZM90.9039 28.6286C90.8991 28.7681 91.0088 28.8846 91.1474 28.8903C91.2879 28.8951 91.4053 28.7855 91.4101 28.6459C91.4149 28.5083 91.3081 28.3919 91.1705 28.3842C91.0281 28.3794 90.9087 28.491 90.9039 28.6325V28.6373V28.6286ZM88.1894 28.6758C88.2423 28.6305 88.274 28.5651 88.2769 28.4958V28.4448C88.249 28.5324 88.2163 28.6065 88.1894 28.6844V28.6758ZM107.781 36.4586C107.79 36.6 107.913 36.7068 108.055 36.6972C108.173 36.6895 108.27 36.6019 108.291 36.4855C108.316 36.346 108.222 36.2122 108.082 36.1872C107.942 36.1622 107.809 36.2555 107.783 36.395C107.78 36.4162 107.779 36.4374 107.781 36.4586ZM104.648 36.3017C104.64 36.4412 104.747 36.5606 104.887 36.5683C104.889 36.5683 104.89 36.5683 104.892 36.5683C105.031 36.575 105.15 36.4662 105.156 36.3267C105.163 36.1872 105.054 36.0688 104.915 36.0621C104.773 36.0573 104.654 36.1679 104.648 36.3104V36.3113V36.3017ZM101.516 36.1497C101.513 36.2892 101.62 36.4066 101.759 36.4172C101.899 36.4239 102.018 36.3181 102.026 36.1785V36.1728C102.036 36.0361 101.933 35.9168 101.797 35.9062C101.794 35.9062 101.79 35.9062 101.787 35.9062C101.646 35.8985 101.523 36.0063 101.516 36.1497V36.1593V36.1497ZM98.3875 35.9938C98.3826 36.1333 98.4923 36.2507 98.6319 36.2555C98.7714 36.2594 98.8878 36.1506 98.8936 36.0111C98.8984 35.8735 98.7926 35.7571 98.654 35.7503C98.5125 35.7455 98.3932 35.8571 98.3884 35.9986C98.3884 36.0005 98.3875 36.0015 98.3875 36.0034V35.9938ZM95.2553 35.8369C95.2476 35.9774 95.3544 36.0967 95.4949 36.1035C95.6335 36.1112 95.7528 36.0044 95.7614 35.8648C95.7691 35.7243 95.6633 35.6031 95.5218 35.5935C95.3833 35.5858 95.2639 35.6926 95.2553 35.8321V35.8466V35.8369ZM92.1231 35.6801C92.1125 35.8177 92.2155 35.937 92.3521 35.9466C92.355 35.9476 92.3589 35.9476 92.3618 35.9476C92.5032 35.9553 92.6245 35.8485 92.6331 35.708C92.6408 35.5685 92.535 35.4491 92.3945 35.4414C92.3925 35.4414 92.3906 35.4414 92.3897 35.4414C92.253 35.4318 92.1337 35.5338 92.1231 35.6705V35.6897V35.6801ZM88.99 35.528C88.9852 35.6685 89.0939 35.7869 89.2344 35.7946C89.3749 35.7994 89.4942 35.6916 89.5009 35.5511C89.525 35.4106 89.4307 35.2769 89.2912 35.2538C89.1507 35.2288 89.0169 35.3231 88.9929 35.4636C88.99 35.4847 88.988 35.5059 88.99 35.528ZM86.1802 35.63C86.287 35.6041 86.364 35.5098 86.3688 35.4001C86.3736 35.3202 86.3389 35.2432 86.2764 35.1932L86.1802 35.63ZM109.459 34.2502C109.454 34.3906 109.562 34.51 109.704 34.5167C109.844 34.5359 109.974 34.4368 109.992 34.2954C110.012 34.1549 109.912 34.025 109.772 34.0067C109.749 34.0038 109.726 34.0038 109.704 34.0067C109.572 34.0154 109.468 34.1231 109.464 34.255L109.459 34.2502ZM106.327 34.0943C106.321 34.2348 106.43 34.3531 106.571 34.3608C106.71 34.3685 106.829 34.2617 106.837 34.1222V34.1164C106.843 33.9778 106.737 33.8595 106.598 33.8499C106.455 33.845 106.335 33.9547 106.327 34.0981V34.0943ZM103.2 33.9365C103.192 34.076 103.299 34.1953 103.438 34.202C103.578 34.2097 103.696 34.1029 103.704 33.9634C103.712 33.8239 103.606 33.7055 103.465 33.6969C103.33 33.6872 103.21 33.7902 103.2 33.9268C103.2 33.9317 103.2 33.9365 103.199 33.9413L103.2 33.9365ZM100.067 33.7796C100.059 33.9211 100.165 34.0413 100.306 34.0519C100.445 34.0587 100.564 33.9528 100.572 33.8123C100.572 33.8114 100.572 33.8094 100.573 33.8075C100.58 33.668 100.474 33.5487 100.333 33.541C100.194 33.5342 100.074 33.6401 100.067 33.7796ZM96.9344 33.6295C96.9287 33.7681 97.0355 33.8864 97.1731 33.896C97.3136 33.9211 97.4473 33.8277 97.4723 33.6882C97.4974 33.5477 97.404 33.4139 97.2635 33.3889C97.2424 33.3851 97.2222 33.3841 97.201 33.3851C97.0615 33.3774 96.9421 33.4851 96.9344 33.6247V33.6333V33.6295ZM93.8013 33.4726C93.7936 33.6122 93.9014 33.7315 94.0399 33.7392H94.0457C94.1862 33.745 94.3055 33.6362 94.3123 33.4957C94.3315 33.3543 94.2324 33.2253 94.0919 33.2061C93.9504 33.1878 93.8215 33.286 93.8013 33.4274C93.7984 33.4505 93.7984 33.4727 93.8013 33.4957V33.4726ZM90.6691 33.3158C90.6595 33.4572 90.7663 33.5804 90.9078 33.591C91.0502 33.6006 91.1734 33.4938 91.183 33.3514C91.1936 33.2099 91.0868 33.0868 90.9443 33.0771C90.9415 33.0762 90.9395 33.0762 90.9366 33.0762C90.7962 33.0695 90.6759 33.1753 90.6691 33.3158V33.3196V33.3158ZM87.537 33.1589C87.5119 33.2994 87.6053 33.4332 87.7448 33.4582C87.8853 33.4832 88.0191 33.3899 88.0441 33.2494C88.0479 33.2292 88.0489 33.208 88.0479 33.1868C88.0383 33.0444 87.9151 32.9376 87.7737 32.9472C87.6544 32.9549 87.5581 33.0425 87.537 33.1589ZM107.55 41.1457C107.544 41.2814 107.644 41.3998 107.781 41.4161L107.73 40.9148C107.627 40.9494 107.556 41.0418 107.55 41.1496V41.1457ZM104.418 40.9927C104.413 41.1313 104.519 41.2497 104.657 41.2593C104.797 41.2843 104.932 41.191 104.956 41.0505C104.981 40.911 104.888 40.7772 104.747 40.7522C104.727 40.7483 104.706 40.7474 104.685 40.7493C104.546 40.7329 104.421 40.833 104.406 40.9725C104.405 40.9802 104.405 40.9889 104.405 40.9966L104.418 40.9927ZM101.286 40.8359C101.278 40.9754 101.385 41.0948 101.524 41.1024C101.526 41.1024 101.527 41.1024 101.529 41.1034C101.668 41.1082 101.786 41.0024 101.797 40.8638C101.821 40.7233 101.727 40.5896 101.588 40.5655C101.447 40.5395 101.314 40.6329 101.289 40.7733C101.286 40.7936 101.285 40.8147 101.286 40.8359ZM98.1527 40.681C98.1421 40.8215 98.2489 40.9456 98.3913 40.9562C98.5328 40.9658 98.6559 40.859 98.6665 40.7166C98.6761 40.5751 98.5693 40.452 98.4279 40.4423C98.425 40.4414 98.4221 40.4414 98.4192 40.4414C98.2797 40.4327 98.1604 40.5395 98.1527 40.681V40.6858V40.681ZM95.0205 40.5289C95.0397 40.6704 95.1696 40.7685 95.3111 40.7502C95.4256 40.7339 95.5151 40.6444 95.5315 40.5289C95.5507 40.3884 95.4516 40.2585 95.3111 40.2393C95.1696 40.2191 95.0397 40.3192 95.0205 40.4597C95.0176 40.4828 95.0176 40.5058 95.0205 40.5289ZM91.8883 40.3711C91.8835 40.5116 91.9913 40.6309 92.1327 40.6386C92.2732 40.6271 92.38 40.5029 92.3685 40.3605C92.3579 40.2441 92.2703 40.1479 92.1549 40.1277C92.0134 40.1229 91.8941 40.2335 91.8883 40.3759V40.3711ZM88.761 40.2152C88.7523 40.3548 88.8591 40.4741 88.9996 40.4818C89.1391 40.4895 89.2584 40.3827 89.2661 40.2431C89.2738 40.1036 89.167 39.9833 89.0265 39.9756C88.888 39.9689 88.7687 40.0757 88.761 40.2152ZM85.6278 40.0584C85.6201 40.1989 85.7279 40.3172 85.8674 40.3249C86.007 40.3317 86.1263 40.2249 86.133 40.0853C86.1407 39.9468 86.0339 39.8274 85.8944 39.8197C85.7587 39.8092 85.6394 39.9121 85.6288 40.0488C85.6278 40.0536 85.6278 40.0584 85.6278 40.0632V40.0584ZM106.097 38.7757C106.072 38.9162 106.165 39.049 106.305 39.074C106.445 39.099 106.578 39.0057 106.604 38.8652C106.608 38.845 106.609 38.8238 106.608 38.8036C106.597 38.6612 106.474 38.5544 106.333 38.564C106.215 38.5717 106.117 38.6602 106.097 38.7757ZM102.964 38.6246C102.956 38.7661 103.065 38.8873 103.207 38.895C103.349 38.9027 103.47 38.794 103.478 38.6515C103.486 38.5101 103.376 38.3879 103.234 38.3812H103.231C103.088 38.3754 102.969 38.4861 102.964 38.6285V38.6294V38.6246ZM99.8318 38.4668C99.8434 38.6092 99.9675 38.7151 100.11 38.7035C100.227 38.6939 100.324 38.6063 100.343 38.4899C100.367 38.3504 100.273 38.2166 100.132 38.1926C99.9925 38.1685 99.8588 38.2628 99.8357 38.4023C99.8318 38.4245 99.8309 38.4466 99.8318 38.4668ZM96.6996 38.3109C96.6919 38.4504 96.7988 38.5698 96.9383 38.5775H96.9441C97.0826 38.5842 97.201 38.4755 97.2077 38.3359C97.2145 38.1964 97.1067 38.078 96.9662 38.0713C96.8257 38.0665 96.7073 38.1752 96.6996 38.3157V38.3109ZM93.5723 38.155C93.5636 38.2955 93.6704 38.4158 93.8109 38.4264C93.9505 38.4341 94.0698 38.3273 94.0775 38.1877V38.1829C94.0852 38.0434 93.9784 37.9241 93.8388 37.9164C93.6993 37.9077 93.58 38.0145 93.5723 38.155ZM90.4392 38.004C90.4343 38.1435 90.5431 38.2609 90.6836 38.2647C90.8221 38.2705 90.9405 38.1608 90.9443 38.0213C90.9491 37.8837 90.8433 37.7672 90.7057 37.7595C90.5642 37.7547 90.4449 37.8654 90.4392 38.0078V38.004ZM87.307 37.8461C87.3002 37.9857 87.409 38.104 87.5485 38.1108C87.688 38.1175 87.8074 38.0088 87.8131 37.8692C87.8189 37.7297 87.7111 37.6113 87.5716 37.6046C87.4321 37.5998 87.3137 37.7066 87.307 37.8461ZM105.867 43.4629C105.858 43.6024 105.966 43.7217 106.106 43.7294C106.246 43.7371 106.366 43.6303 106.373 43.4898C106.38 43.3493 106.274 43.229 106.134 43.2185C105.994 43.2117 105.875 43.3176 105.867 43.4571C105.867 43.461 105.867 43.4638 105.866 43.4667L105.867 43.4629ZM102.734 43.306C102.727 43.4465 102.834 43.5649 102.974 43.5726C103.113 43.5793 103.232 43.4725 103.24 43.333C103.248 43.1944 103.14 43.0741 103.002 43.0674C102.864 43.0568 102.746 43.1588 102.735 43.2954C102.734 43.3051 102.734 43.3147 102.734 43.3243V43.306ZM99.6018 43.1559C99.5961 43.2954 99.7038 43.4138 99.8434 43.4196C99.9829 43.4263 100.101 43.3176 100.108 43.1781C100.115 43.0385 100.006 42.9202 99.8665 42.9144C99.7269 42.9067 99.6086 43.0154 99.6018 43.1559ZM96.4687 42.9981C96.4639 43.1386 96.5717 43.257 96.7131 43.2647C96.8546 43.2531 96.9595 43.129 96.9489 42.9875C96.9393 42.8701 96.8517 42.7739 96.7353 42.7537C96.5957 42.7469 96.4764 42.8538 96.4697 42.9933C96.4687 42.9962 96.4687 42.9991 96.4687 43.0029V42.9981ZM93.3375 42.8413C93.3471 42.9837 93.4693 43.0905 93.6117 43.0809C93.7301 43.0732 93.8273 42.9856 93.8475 42.8692C93.8725 42.7296 93.7801 42.5949 93.6396 42.5709C93.5001 42.5458 93.3654 42.6382 93.3413 42.7787C93.3375 42.7999 93.3356 42.8201 93.3375 42.8413ZM90.2053 42.6863C90.1947 42.8278 90.3015 42.951 90.444 42.9615C90.5854 42.9712 90.7086 42.8643 90.7182 42.7229C90.7288 42.5805 90.621 42.4573 90.4796 42.4477C90.4767 42.4477 90.4738 42.4467 90.4709 42.4467C90.3323 42.4381 90.213 42.5449 90.2053 42.6863V42.6911V42.6863ZM87.0722 42.5343C87.0837 42.6757 87.2088 42.7816 87.3503 42.77C87.4667 42.7604 87.5629 42.6738 87.5831 42.5574C87.5908 42.4179 87.484 42.2985 87.3445 42.2908C87.3426 42.2908 87.3407 42.2908 87.3387 42.2908C87.1973 42.2851 87.078 42.3967 87.0722 42.5381V42.5391V42.5343Z" fill="white"/>
<path d="M103.751 37.7046C102.502 37.7643 101.26 37.9172 100.035 38.1645C99.4276 38.2935 98.829 38.4494 98.2315 38.6245C97.9322 38.7121 97.6378 38.7852 97.3115 38.8593C96.9988 38.944 96.6774 38.9902 96.3541 38.9969C96.3271 38.9969 96.3223 39.0431 96.3541 39.0431C96.6601 39.072 96.967 39.0797 97.275 39.0662C97.5694 39.0402 97.8629 38.995 98.1535 38.9324C98.7694 38.8083 99.3814 38.6563 99.9934 38.5235C101.24 38.2569 102.482 37.9894 103.741 37.8153C103.772 37.8172 103.799 37.795 103.802 37.7642C103.804 37.7325 103.781 37.7056 103.751 37.7046Z" fill="#263238"/>
<path d="M106.782 38.9324C105.76 38.7804 104.732 38.689 103.7 38.6562C103.185 38.6562 102.673 38.6563 102.159 38.6842C101.911 38.6842 101.667 38.7159 101.423 38.739C101.18 38.7621 100.884 38.8218 100.614 38.84C100.586 38.84 100.581 38.8862 100.614 38.8862C100.867 38.8862 101.124 38.8862 101.382 38.9093H102.154H103.695C104.726 38.9093 105.752 38.9372 106.777 38.9786C106.788 38.9651 106.79 38.9469 106.782 38.9324Z" fill="#263238"/>
<path d="M97.0444 19.7284C97.1224 20.1884 99.1287 23.3071 101.23 23.335C101.915 23.335 102.127 19.613 102.127 19.613L102.21 19.3377L103.31 15.5339L98.9536 12.3411L98.3233 11.9177C98.3233 11.9177 98.0885 12.9801 97.8133 14.3051C97.8133 14.3648 97.7854 14.4244 97.7719 14.4937C97.7575 14.563 97.7392 14.6361 97.7257 14.7054C97.6795 14.9027 97.6381 15.1057 97.5968 15.3078C97.5544 15.5108 97.5371 15.6119 97.5092 15.7678C97.4813 15.9246 97.4543 16.0901 97.4226 16.2508C97.2167 17.3998 97.0906 18.5622 97.0444 19.7284Z" fill="#D3766A"/>
<path d="M97.79 14.3051C98.4425 16.5491 100.051 18.3909 102.188 19.3368L103.287 15.533L98.9313 12.3411L98.3 11.9177C98.2991 11.9177 98.0652 12.9666 97.79 14.3051Z" fill="#263238"/>
<path d="M104.897 10.6669C104.975 12.4288 106.277 13.7991 107.835 13.726C109.395 13.6528 110.568 12.171 110.486 10.4139C110.403 8.65676 109.105 7.2865 107.546 7.35579C105.987 7.42411 104.814 8.90984 104.897 10.6669Z" fill="#455A64"/>
<path d="M103.995 10.8226C104.087 12.7779 105.55 14.3002 107.269 14.2223C108.99 14.1434 110.306 12.4921 110.214 10.5416C110.122 8.59209 108.66 7.06016 106.943 7.1381C105.228 7.21604 103.907 8.86344 103.995 10.8226Z" fill="#C7C7C7"/>
<path d="M109.271 10.2069C109.147 17.1622 104.965 17.8752 103.466 17.8473C102.086 17.8194 97.4861 17.5625 96.8789 10.6303C96.2717 3.69818 99.5511 1.56003 102.671 1.43012C105.788 1.30214 109.395 3.26131 109.271 10.2069Z" fill="#D3766A"/>
<path d="M108.281 8.40364C108.116 8.40364 107.969 8.33436 107.822 8.29779C107.651 8.28143 107.49 8.21022 107.362 8.09571C107.294 8.00718 107.294 7.88402 107.362 7.79549C107.524 7.64152 107.757 7.59053 107.969 7.66174C108.188 7.69734 108.387 7.81377 108.526 7.98794C108.611 8.10533 108.584 8.26988 108.466 8.35456C108.413 8.39401 108.347 8.41134 108.281 8.40364Z" fill="#263238"/>
<path d="M103.673 8.62403C103.828 8.60286 103.981 8.57207 104.133 8.53261C104.303 8.52395 104.464 8.45948 104.593 8.34786C104.661 8.25933 104.661 8.13423 104.593 8.04474C104.434 7.88789 104.204 7.83015 103.99 7.8927C103.769 7.9206 103.564 8.0303 103.419 8.20158C103.329 8.31321 103.345 8.47873 103.457 8.57014C103.517 8.61922 103.596 8.63942 103.673 8.62403Z" fill="#263238"/>
<path d="M107.329 9.99609C107.329 9.99609 107.366 9.99609 107.366 10.0375C107.329 10.4974 107.366 11.0584 107.793 11.2326L107.329 9.99609ZM107.793 11.2605C107.269 11.1633 107.223 10.4378 107.329 9.99609L107.793 11.2605Z" fill="#263238"/>
<path d="M107.772 9.51698C108.535 9.48907 108.535 11.021 107.827 11.0441C107.117 11.0672 107.133 9.54007 107.772 9.51698Z" fill="#263238"/>
<path d="M108.084 9.61804C108.204 9.70079 108.323 9.84802 108.465 9.85765C108.609 9.86631 108.76 9.70079 108.866 9.54395H108.889C108.889 9.83455 108.801 10.1377 108.516 10.1935C108.231 10.2483 108.056 9.99525 108.006 9.70561C108.001 9.66904 108.042 9.58628 108.084 9.61804Z" fill="#263238"/>
<path d="M104.708 10.0964C104.708 10.0964 104.676 10.0964 104.676 10.1378C104.73 10.5978 104.713 11.1588 104.298 11.3522V11.3753C104.817 11.2598 104.837 10.5333 104.708 10.0964Z" fill="#263238"/>
<path d="M104.248 9.63624C103.485 9.63624 103.548 11.1682 104.248 11.1634C104.948 11.1595 104.887 9.63143 104.248 9.63624Z" fill="#263238"/>
<path d="M103.944 9.74688C103.824 9.82963 103.71 9.98167 103.566 9.99995C103.424 10.0182 103.273 9.85753 103.157 9.70068H103.134C103.134 9.99514 103.249 10.2944 103.53 10.3406C103.81 10.3868 103.967 10.1193 104.022 9.82578C104.027 9.79788 103.981 9.71512 103.944 9.74688Z" fill="#263238"/>
<path d="M104.44 13.7628C104.547 13.8821 104.647 14.0438 104.817 14.0707C104.992 14.0813 105.168 14.0554 105.333 13.9928L104.44 13.7628ZM105.333 14.0207C105.179 14.1978 104.941 14.2767 104.711 14.2276C104.515 14.1593 104.381 13.9755 104.376 13.7676C104.403 13.7542 104.426 13.7484 104.44 13.7628L105.333 14.0207Z" fill="#263238"/>
<path d="M106.455 12.093C106.455 12.093 106.538 12.806 106.533 13.137C106.533 13.1697 106.45 13.1832 106.336 13.188C105.75 13.2794 105.161 13.0389 104.809 12.5616C104.809 12.5298 104.832 12.4933 104.86 12.5163C105.276 12.8204 105.781 12.9821 106.299 12.9763C106.326 12.8839 106.119 11.7667 106.17 11.7619C106.429 11.7918 106.682 11.8543 106.924 11.9505C106.796 10.4696 106.428 9.01562 106.321 7.5395C106.321 7.4885 106.395 7.47022 106.409 7.5395C106.849 9.08009 107.134 10.6611 107.26 12.2585C107.269 12.4192 106.589 12.1526 106.455 12.093Z" fill="#263238"/>
<path d="M106.336 12.9664C106.158 13.2474 105.912 13.4764 105.618 13.6333C105.456 13.7122 105.273 13.7401 105.094 13.7112C104.703 13.6429 104.667 13.2974 104.708 12.9895C104.734 12.8317 104.779 12.6768 104.841 12.5295C105.28 12.8307 105.803 12.9837 106.336 12.9664Z" fill="#263238"/>
<path d="M105.618 13.6249C105.456 13.7038 105.273 13.7307 105.094 13.7028C104.703 13.6335 104.667 13.289 104.708 12.9811C105.121 12.9657 105.494 13.2284 105.618 13.6249Z" fill="#FF99BA"/>
<path d="M97.1171 11.734C98.0361 11.2904 98.6538 10.3955 98.7405 9.37931C99.9721 8.84333 101.036 7.98885 101.828 6.90438C101.782 7.04679 101.442 8.09084 101.248 8.62009C105.71 7.79639 107.094 4.38324 107.094 4.38324C107.949 5.16845 108.612 6.13745 109.036 7.21711C109.036 7.21711 109.072 4.45734 107.656 2.64539C105.94 0.395615 100.126 -0.220237 97.425 2.70505C94.5363 5.8555 97.1171 11.734 97.1171 11.734Z" fill="#263238"/>
<path d="M104.64 7.90704C103.918 8.29772 103.142 8.57967 102.339 8.74422C103.596 8.40743 104.733 7.72325 105.619 6.77061C105.995 6.36549 106.32 5.91419 106.584 5.42824C106.892 4.90669 107.094 4.3303 107.179 3.73081C107.171 3.71157 107.181 3.6904 107.2 3.68366C107.219 3.67692 107.24 3.68559 107.247 3.70483C107.25 3.71349 107.25 3.72215 107.247 3.73081C107.229 4.33223 107.108 4.92691 106.888 5.48791C106.652 6.03737 106.314 6.53774 105.895 6.96402C105.522 7.33353 105.1 7.65204 104.64 7.90704Z" fill="#263238"/>
<path d="M97.9642 11.1914C97.9642 11.1914 96.6805 8.89161 95.6413 9.31019C94.602 9.72878 95.4161 12.9899 96.5198 13.5461C97.078 13.8761 97.7968 13.6914 98.1268 13.1342C98.1365 13.1179 98.1441 13.1025 98.1528 13.0861L97.9642 11.1914Z" fill="#D3766A"/>
<path d="M95.9077 10.2667C96.6159 10.719 97.1 11.4493 97.2424 12.2769C97.0942 11.9507 96.7112 11.8044 96.384 11.9516C96.3532 11.9661 96.3234 11.9824 96.2936 12.0007V12.0469C96.5928 11.9853 96.8988 12.1171 97.0576 12.3779C97.1837 12.5944 97.2895 12.8225 97.3713 13.0592C97.4031 13.1371 97.5359 13.1092 97.5176 13.0265C97.6513 11.9776 97.0028 10.4553 95.9077 10.2397V10.2667Z" fill="#263238"/>
<path d="M96.2124 9.37449C96.2124 9.37449 95.6052 5.56584 96.5347 3.3536C97.5692 0.888273 101.548 -0.17407 103.53 0.792044C103.53 0.792044 100.448 -0.127879 98.0619 3.38054C97.0592 4.85762 97.5009 9.36101 97.5009 9.36101L96.2124 9.37449Z" fill="#C7C7C7"/>
<path d="M99.9744 10.9796C100.173 12.9301 98.9447 14.6593 97.2146 14.8248C95.4854 14.9903 93.9583 13.5604 93.7601 11.605C93.5628 9.65067 94.7907 7.92533 96.5198 7.75982C98.25 7.59431 99.7771 9.02905 99.9744 10.9796Z" fill="#C7C7C7"/>
<path d="M99.0587 10.9614C99.2387 12.7137 98.1388 14.2591 96.5973 14.416C95.0576 14.5719 93.6672 13.2796 93.493 11.5273C93.3179 9.77499 94.4129 8.22477 95.9535 8.07273C97.4951 7.92069 98.8836 9.20916 99.0587 10.9614Z" fill="#455A64"/>
<path d="M97.5464 11.1271C97.5185 12.0845 96.7198 12.838 95.7624 12.8101C94.8049 12.7822 94.0515 11.9835 94.0794 11.027C94.1044 10.1561 94.7712 9.44022 95.6373 9.35169C96.6525 9.3132 97.507 10.1051 97.5454 11.1203C97.5464 11.1223 97.5464 11.1251 97.5464 11.1271Z" fill="#37474F"/>
<path d="M95.5823 31.5915C97.8821 31.3018 99.1658 27.3373 98.4932 24.7238C97.8215 22.1113 96.355 19.8576 94.1793 20.3724C92.0027 20.8882 91.6678 24.3014 91.6351 26.3067C91.6024 28.3111 91.9844 32.0322 95.5823 31.5915Z" fill="#D3766A"/>
<path d="M91.6401 25.0924C90.9636 31.5318 91.6035 44.8207 94.2575 48.8228C95.5873 50.8233 110.48 51.315 113.908 51.2554C115.323 51.2323 118.475 40.2163 116.999 40.1008C114.964 39.9671 102.164 40.046 101.304 39.306C100.443 38.565 98.2682 30.2895 96.9566 24.9499C95.2967 18.2112 92.2107 19.6373 91.6401 25.0924Z" fill="#D3766A"/>
<path d="M97.8354 26.449C97.7565 26.5471 97.6969 26.6597 97.6603 26.78C97.6161 26.907 97.5949 27.0408 97.5968 27.1755C97.6045 27.4517 97.6343 27.7278 97.6882 27.9992C97.6882 28.0261 97.7257 27.9992 97.7257 27.9992C97.7257 27.7365 97.7258 27.4748 97.7623 27.2121C97.7623 27.0879 97.7844 26.9638 97.7941 26.8397C97.8095 26.7136 97.8335 26.5895 97.8672 26.4673C97.8672 26.4673 97.8451 26.4346 97.8354 26.449Z" fill="#263238"/>
<path d="M97.2925 26.1501C97.3502 27.1797 97.5869 28.192 97.993 29.1398C97.9853 29.1591 97.994 29.1802 98.0142 29.187C98.0334 29.1947 98.0536 29.185 98.0613 29.1658C98.0642 29.1571 98.0642 29.1485 98.0613 29.1398C97.9641 28.6298 97.4811 26.4493 97.3666 26.1828C97.3483 26.1318 97.2925 26.1135 97.2925 26.1501Z" fill="#263238"/>
<path d="M113.033 40.1054C113.033 40.1054 118.424 39.6175 121.528 39.3924C123.263 39.2634 126.248 39.3096 127.564 39.7975C129.532 40.5288 137.292 44.8571 136.304 46.747C135.384 48.4675 129.197 43.9189 129.197 43.9189C129.197 43.9189 135.857 47.9575 134.381 49.8339C132.903 51.7103 126.566 45.625 126.566 45.625C126.566 45.625 133.318 49.9263 131.488 51.6045C130.107 52.8833 124.072 47.7044 124.072 47.7044C124.072 47.7044 129.85 51.4438 128.484 52.8189C126.975 54.3412 121.124 49.9119 121.124 49.9119C117.066 52.8237 112.845 51.3745 110.761 50.5287C110.241 50.3535 113.033 40.1054 113.033 40.1054Z" fill="#D3766A"/>
<path d="M127.361 42.617C130.361 44.25 132.983 46.5912 133.875 47.7132C133.985 47.8517 134.077 47.9759 134.068 47.9672C132.646 46.8029 128.088 43.1597 127.343 42.6449C127.32 42.6305 127.342 42.6074 127.361 42.617Z" fill="#263238"/>
<path d="M125.057 45.0826C127.499 46.0025 129.854 48.3023 130.77 49.0057C130.839 49.0616 130.77 49.0847 130.714 49.0288C129.771 48.3485 126.013 45.7398 125.038 45.1047C125.024 45.0961 125.038 45.0778 125.057 45.0826Z" fill="#263238"/>
<path d="M123.263 47.2676C124.823 47.9691 126.216 48.9919 127.352 50.2708C127.412 50.3401 127.352 50.3497 127.274 50.2939C125.853 49.2133 124.974 48.5185 123.231 47.3176C123.22 47.3041 123.224 47.2839 123.238 47.2733C123.245 47.2676 123.254 47.2656 123.263 47.2676Z" fill="#263238"/>
<path d="M110.283 39.9668C111.725 40.0726 113.173 40.0313 114.607 39.8427L118.925 39.3827C120.37 39.2672 121.819 39.1479 123.277 39.1527C124.735 39.1575 126.22 39.2076 127.564 39.7965C126.877 39.5752 126.161 39.452 125.439 39.4289C124.72 39.3923 124 39.3923 123.281 39.4289C121.837 39.4837 120.398 39.5944 118.958 39.7368C117.518 39.8792 116.078 40.013 114.63 40.1236C113.908 40.1689 113.181 40.2151 112.449 40.1968C111.723 40.1737 110.998 40.0967 110.283 39.9668Z" fill="#263238"/>
<path d="M18.7476 140.227C20.8318 140.13 22.9151 140.089 24.9936 140.052C27.0731 140.016 29.1612 140.016 31.2406 139.997C33.3201 139.977 35.4072 139.997 37.4877 140.052L40.6102 140.112C41.6543 140.153 42.6945 140.176 43.7337 140.227C42.6945 140.278 41.6543 140.301 40.6102 140.342L37.4877 140.403C35.4072 140.439 33.347 140.439 31.2406 140.457C29.1342 140.476 27.101 140.457 24.9936 140.403C22.8882 140.347 20.8318 140.326 18.7476 140.227Z" fill="#263238"/>
<path d="M28.7241 137.298C30.1733 137.206 31.6177 137.159 33.0668 137.123C34.516 137.086 35.9642 137.078 37.4124 137.068C38.8616 137.058 40.3108 137.068 41.7551 137.123L43.9308 137.187C44.6534 137.224 45.38 137.247 46.1026 137.298C45.38 137.354 44.6534 137.376 43.9308 137.412L41.7551 137.478C40.3108 137.518 38.8616 137.523 37.4124 137.528C35.9642 137.532 34.516 137.528 33.0668 137.478C31.6177 137.426 30.1733 137.371 28.7241 137.298Z" fill="#263238"/>
<path d="M31.144 143.217C32.4046 143.126 33.6594 143.079 34.92 143.042C36.1805 143.005 37.4315 142.993 38.692 142.988C39.9516 142.983 41.2084 142.988 42.4641 143.042L44.3502 143.107C44.9795 143.144 45.6098 143.167 46.2362 143.217C45.6098 143.273 44.9795 143.291 44.3502 143.332L42.4641 143.397C41.2084 143.437 39.9468 143.442 38.692 143.447C37.4363 143.452 36.1757 143.447 34.92 143.392C33.6632 143.337 32.4036 143.314 31.144 143.217Z" fill="#263238"/>
<path d="M23.2739 143.217C24.9165 142.911 26.6024 142.911 28.2459 143.217C27.428 143.383 26.5957 143.46 25.7623 143.447C24.9271 143.458 24.0928 143.381 23.2739 143.217Z" fill="#263238"/>
</svg>
