<svg width="39" height="39" viewBox="0 0 39 39" fill="none" xmlns="http://www.w3.org/2000/svg">
<g clip-path="url(#clip0)">
<path d="M38.6806 27.4869V21.7302C38.6787 19.9647 37.248 18.534 35.4825 18.5321H32.924V12.1359C32.924 11.7827 32.6376 11.4963 32.2843 11.4963H28.4466C28.0934 11.4963 27.807 11.7827 27.807 12.1359V18.5321H22.0504V10.8567C22.0504 10.5034 21.764 10.217 21.4108 10.217H17.573C17.2198 10.217 16.9334 10.5034 16.9334 10.8567V18.5321H11.1768V12.1359C11.1768 11.7827 10.8904 11.4963 10.5372 11.4963H6.69943C6.3462 11.4963 6.05981 11.7827 6.05981 12.1359V18.5321H3.50132C1.73611 18.534 0.305393 19.9647 0.303207 21.7302V27.4869C0.281345 28.8595 1.01966 30.1322 2.22207 30.7949V37.7208H0.942829C0.5896 37.7208 0.303207 38.0072 0.303207 38.3604C0.303207 38.7137 0.5896 39.0001 0.942829 39.0001H38.0409C38.3942 39.0001 38.6806 38.7137 38.6806 38.3604C38.6806 38.0072 38.3942 37.7208 38.0409 37.7208H36.7617V30.8046C37.9457 30.1181 38.6762 28.8551 38.6806 27.4869ZM29.0862 12.7755H31.6447V18.5321H29.0862V12.7755ZM18.2126 11.4963H20.7711V18.5321H18.2126V11.4963ZM7.33906 12.7755H9.89755V18.5321H7.33906V12.7755ZM1.58245 21.7302C1.58245 20.6702 2.44163 19.8114 3.50132 19.8114H35.4825C36.5424 19.8114 37.4013 20.6702 37.4013 21.7302V27.4869C37.3991 28.5028 36.7995 29.4223 35.8707 29.8342C34.9037 30.2415 33.7869 30.0319 33.0336 29.3014C32.5532 28.8195 32.284 28.1668 32.2843 27.4869V24.9284C32.2812 23.9624 31.7331 23.0813 30.8683 22.6513L30.8293 22.63C30.7268 22.5816 30.6213 22.5404 30.5132 22.5067C30.4495 22.4854 30.3911 22.4645 30.3277 22.4492C30.2459 22.4305 30.1631 22.4158 30.0797 22.4055C30.0235 22.3974 29.9698 22.3805 29.9126 22.3761C29.882 22.3761 29.8526 22.3805 29.8227 22.3792C29.7924 22.378 29.7593 22.3699 29.7258 22.3699C29.655 22.3699 29.5866 22.3845 29.5163 22.3902C29.4457 22.3961 29.3711 22.3992 29.2992 22.4114C29.1887 22.432 29.0794 22.4601 28.9725 22.4951C28.9148 22.5129 28.856 22.5257 28.7998 22.5476C28.6805 22.596 28.5653 22.6538 28.455 22.7203C28.4147 22.7434 28.372 22.76 28.3323 22.7843C28.183 22.8811 28.044 22.9933 27.9179 23.1188C27.4359 23.5973 27.1658 24.2491 27.1674 24.9284V26.2076C27.1674 27.6205 26.0221 28.7661 24.6089 28.7661C23.196 28.7661 22.0504 27.6205 22.0504 26.2076V24.9284C22.0473 23.9624 21.4991 23.0813 20.6343 22.6513L20.5953 22.63C20.4929 22.5816 20.3873 22.5404 20.2792 22.5067C20.2155 22.4854 20.1571 22.4645 20.0937 22.4492C20.0119 22.4305 19.9291 22.4158 19.8457 22.4055C19.7895 22.3974 19.7358 22.3805 19.6786 22.3761C19.648 22.3761 19.6187 22.3805 19.5887 22.3792C19.5584 22.378 19.5253 22.3699 19.4919 22.3699C19.421 22.3699 19.3526 22.3845 19.2823 22.3902C19.2117 22.3961 19.1371 22.3992 19.0653 22.4114C18.955 22.432 18.846 22.4601 18.7392 22.4951C18.6808 22.5129 18.6221 22.5257 18.5659 22.5476C18.4472 22.596 18.3323 22.6535 18.2223 22.7197C18.1814 22.7428 18.138 22.76 18.0983 22.7837C17.949 22.8802 17.8101 22.992 17.6839 23.1176C17.2017 23.5963 16.9315 24.2488 16.9334 24.9284V28.7661C16.9334 30.179 15.7881 31.3246 14.3749 31.3246C12.962 31.3246 11.8164 30.179 11.8164 28.7661V24.9284C11.8133 23.9624 11.2652 23.0813 10.4004 22.6513L10.3613 22.63C10.2589 22.5816 10.1533 22.5404 10.0453 22.5067C9.98156 22.4854 9.92316 22.4645 9.85976 22.4492C9.77793 22.4305 9.69517 22.4158 9.61178 22.4055C9.55556 22.3974 9.50184 22.3805 9.44469 22.3761C9.38785 22.3717 9.32195 22.3699 9.25792 22.3699C7.84501 22.3699 6.69943 23.5151 6.69943 24.9284V27.4869C6.70037 28.1646 6.43303 28.8151 5.9555 29.2961C5.3215 29.9064 4.42546 30.1606 3.56534 29.9741C3.41231 29.9417 3.2624 29.8954 3.1178 29.8355C2.82547 29.7065 2.55906 29.5256 2.3317 29.3014C1.85136 28.8195 1.58214 28.1668 1.58245 27.4869V21.7302ZM3.50132 37.7208V31.2715C3.56534 31.2821 3.62937 31.2849 3.69339 31.2924L3.74243 31.2977C4.3021 31.3555 4.8677 31.2899 5.39926 31.1057C5.56167 31.0485 5.72032 30.9804 5.87367 30.9023C5.90646 30.8864 5.93769 30.8689 5.97174 30.8511C6.09573 30.7837 6.21628 30.7096 6.33246 30.6291C6.36963 30.6038 6.40711 30.58 6.44365 30.5532C7.42276 29.8408 7.99492 28.6974 7.97868 27.4869V24.9284C7.97805 24.5889 8.11329 24.2634 8.35408 24.0245C8.41811 23.9611 8.48838 23.9043 8.56396 23.8556C8.57739 23.8474 8.59207 23.8415 8.6055 23.834C8.66827 23.7956 8.73386 23.7628 8.80194 23.7359C8.82193 23.7284 8.84223 23.7238 8.86222 23.7175C8.92468 23.6963 8.98871 23.6803 9.05398 23.6694C9.08459 23.6644 9.11801 23.6632 9.14799 23.6597C9.20171 23.6547 9.25574 23.6529 9.30977 23.6541C9.35006 23.656 9.39035 23.66 9.43001 23.6663C9.47811 23.6719 9.52589 23.6807 9.57274 23.6925C9.58867 23.6963 9.60334 23.7022 9.61865 23.7066C10.1761 23.9099 10.5444 24.443 10.5372 25.0364V28.7661C10.5372 30.8855 12.2555 32.6038 14.3749 32.6038C16.4946 32.6038 18.2126 30.8855 18.2126 28.7661V24.9284C18.2126 24.4939 18.4338 24.0895 18.7992 23.8549C18.8101 23.8481 18.8229 23.8434 18.8338 23.8365C18.8988 23.7968 18.9669 23.7628 19.0378 23.7353C19.0559 23.7284 19.0743 23.7244 19.0921 23.7188C19.1549 23.6975 19.2189 23.6807 19.2842 23.6688C19.3148 23.6644 19.3482 23.6625 19.3763 23.6597C19.43 23.6544 19.4844 23.6526 19.5387 23.6541C19.579 23.656 19.619 23.66 19.659 23.6663C19.7071 23.6719 19.7545 23.6807 19.8017 23.6925C19.8176 23.6963 19.8323 23.7022 19.8476 23.7066C20.407 23.9083 20.7777 24.4418 20.7711 25.0364V26.2076C20.7711 28.327 22.4895 30.0453 24.6089 30.0453C26.7286 30.0453 28.4466 28.327 28.4466 26.2076V24.9284C28.446 24.5889 28.5812 24.2634 28.822 24.0245C28.886 23.9611 28.9563 23.9043 29.0319 23.8556C29.0453 23.8474 29.06 23.8415 29.074 23.8331C29.1365 23.7953 29.2021 23.7628 29.2699 23.7359C29.2899 23.7284 29.3108 23.7238 29.3339 23.7175C29.3954 23.6963 29.4585 23.6803 29.5225 23.6694C29.5531 23.6644 29.5866 23.6632 29.6165 23.6597C29.6703 23.6547 29.7243 23.6529 29.7783 23.6541C29.8186 23.656 29.8589 23.66 29.8986 23.6663C29.9467 23.6719 29.9944 23.6807 30.0413 23.6925C30.0572 23.6963 30.0719 23.7022 30.0872 23.7066C30.6444 23.9102 31.0126 24.4433 31.0051 25.0364V27.4869C31.0042 28.5062 31.4083 29.4844 32.1291 30.2059C32.2559 30.3295 32.3912 30.4445 32.5339 30.55C32.5754 30.58 32.6182 30.6069 32.6619 30.6356C32.7694 30.709 32.8781 30.7771 32.9911 30.8389C33.0361 30.8633 33.0807 30.887 33.126 30.9092C33.255 30.9732 33.3871 31.0301 33.522 31.0794C33.5489 31.0891 33.5751 31.1013 33.6026 31.1103C33.9537 31.23 34.3197 31.299 34.6901 31.3149H34.6945C34.8728 31.3221 35.0515 31.3168 35.2292 31.299L35.2932 31.2918C35.3572 31.2849 35.4212 31.2821 35.4853 31.2715V37.7208H3.50132Z" fill="#2E2D2D"/>
<path d="M19.4921 8.93785C21.2576 8.93567 22.6883 7.50495 22.6902 5.73974C22.6902 4.20439 20.4649 0.904779 20.0186 0.259222C19.8928 0.0958809 19.6985 0 19.4921 0C19.2859 0 19.0914 0.0958809 18.9658 0.259222C18.5192 0.904779 16.2939 4.20439 16.2939 5.73974C16.2961 7.50495 17.7269 8.93567 19.4921 8.93785ZM19.4921 1.77895C20.4125 3.21748 21.4109 5.04109 21.4109 5.73974C21.4109 6.79943 20.5521 7.65861 19.4921 7.65861C18.4324 7.65861 17.5732 6.79943 17.5732 5.73974C17.5732 5.04109 18.5717 3.21748 19.4921 1.77895Z" fill="#2E2D2D"/>
<path d="M30.3656 10.2171C32.1311 10.215 33.5618 8.78424 33.5637 7.01903C33.5637 5.48369 31.3385 2.18408 30.8922 1.53852C30.7663 1.37518 30.572 1.2793 30.3656 1.2793C30.1595 1.2793 29.9649 1.37518 29.8393 1.53852C29.3927 2.18408 27.1675 5.48369 27.1675 7.01903C27.1697 8.78424 28.6004 10.215 30.3656 10.2171ZM30.3656 3.05825C31.286 4.49677 32.2845 6.32038 32.2845 7.01903C32.2845 8.07872 31.4256 8.9379 30.3656 8.9379C29.3059 8.9379 28.4467 8.07872 28.4467 7.01903C28.4467 6.32038 29.4452 4.49677 30.3656 3.05825Z" fill="#2E2D2D"/>
<path d="M8.61853 10.2171C10.384 10.215 11.8148 8.78424 11.8166 7.01903C11.8166 5.48369 9.59139 2.18408 9.14509 1.53852C9.01923 1.37518 8.82497 1.2793 8.61853 1.2793C8.4124 1.2793 8.21782 1.37518 8.09227 1.53852C7.64566 2.18408 5.42041 5.48369 5.42041 7.01903C5.4226 8.78424 6.85332 10.215 8.61853 10.2171ZM8.61853 3.05825C9.53892 4.49677 10.5374 6.32038 10.5374 7.01903C10.5374 8.07872 9.67853 8.9379 8.61853 8.9379C7.55884 8.9379 6.69966 8.07872 6.69966 7.01903C6.69966 6.32038 7.69813 4.49677 8.61853 3.05825Z" fill="#2E2D2D"/>
</g>
<defs>
<clipPath id="clip0">
<rect width="39" height="39" fill="white"/>
</clipPath>
</defs>
</svg>
