<svg width="39" height="39" viewBox="0 0 39 39" fill="none" xmlns="http://www.w3.org/2000/svg">
<path d="M29.7846 19.1537H32.505C33.12 19.1537 33.6204 18.6534 33.6204 18.0383V15.3179C33.6204 14.7029 33.12 14.2025 32.505 14.2025H29.7846C29.1696 14.2025 28.6692 14.7029 28.6692 15.3179V18.0383C28.6692 18.6534 29.1696 19.1537 29.7846 19.1537ZM29.8118 15.3451H32.4778V18.0111H29.8118V15.3451ZM29.7846 26.3901H32.505C33.12 26.3901 33.6204 25.8897 33.6204 25.2747V22.5543C33.6204 21.9393 33.12 21.4389 32.505 21.4389H29.7846C29.1696 21.4389 28.6692 21.9393 28.6692 22.5543V25.2747C28.6692 25.8897 29.1696 26.3901 29.7846 26.3901ZM29.8118 22.5815H32.4778V25.2475H29.8118V22.5815ZM22.0215 19.1537H24.7419C25.3569 19.1537 25.8572 18.6534 25.8572 18.0383V15.3179C25.8572 14.7029 25.3569 14.2025 24.7419 14.2025H22.0215C21.4064 14.2025 20.9061 14.7029 20.9061 15.3179V18.0383C20.9061 18.6534 21.4064 19.1537 22.0215 19.1537ZM22.0487 15.3451H24.7147V18.0111H22.0487V15.3451ZM9.21559 28.3359H6.49519C5.88018 28.3359 5.37981 28.8363 5.37981 29.4513V32.1717C5.37981 32.7867 5.88018 33.2871 6.49519 33.2871H9.21559C9.83061 33.2871 10.331 32.7867 10.331 32.1717V29.4513C10.331 28.8363 9.83061 28.3359 9.21559 28.3359ZM9.1884 32.1445H6.52238V29.4785H9.1884V32.1445ZM9.21559 14.2025H6.49519C5.88018 14.2025 5.37981 14.7029 5.37981 15.3179V18.0383C5.37981 18.6534 5.88018 19.1537 6.49519 19.1537H9.21559C9.83061 19.1537 10.331 18.6534 10.331 18.0383V15.3179C10.331 14.7028 9.83061 14.2025 9.21559 14.2025ZM9.1884 18.0111H6.52238V15.3451H9.1884V18.0111ZM22.0215 26.2204H24.7419C25.3569 26.2204 25.8572 25.72 25.8572 25.105V22.3846C25.8572 21.7696 25.3569 21.2692 24.7419 21.2692H22.0215C21.4064 21.2692 20.9061 21.7696 20.9061 22.3846V25.105C20.9061 25.72 21.4064 26.2204 22.0215 26.2204ZM22.0487 22.4118H24.7147V25.0778H22.0487V22.4118ZM34.1878 2.61071H31.7453V1.73725C31.7453 0.779314 30.9659 0 30.008 0H29.7457C28.7878 0 28.0085 0.779314 28.0085 1.73725V2.61071H10.9917V1.73725C10.9917 0.779314 10.2124 0 9.25444 0H8.99211C8.03417 0 7.25485 0.779314 7.25485 1.73725V2.61071H4.8124C3.23526 2.61071 1.95215 3.89383 1.95215 5.47097V36.1436C1.95215 37.7186 3.23351 39 4.80859 39H34.1917C35.7668 39 37.0482 37.7186 37.0482 36.1436V5.47097C37.0481 3.89383 35.765 2.61071 34.1878 2.61071ZM29.1511 1.73725C29.1511 1.40933 29.4178 1.14258 29.7457 1.14258H30.0081C30.336 1.14258 30.6028 1.40933 30.6028 1.73725V2.61071H29.1511V1.73725ZM8.39751 1.73725C8.39751 1.40933 8.66426 1.14258 8.99218 1.14258H9.25452C9.58244 1.14258 9.84919 1.40933 9.84919 1.73725V2.61071H8.39758V1.73725H8.39751ZM35.9055 36.1436C35.9055 37.0886 35.1367 37.8574 34.1917 37.8574H4.80852C3.86345 37.8574 3.09465 37.0886 3.09465 36.1436V36.14C3.57331 36.5006 4.16829 36.7148 4.8124 36.7148H27.975C28.739 36.7148 29.4573 36.4173 29.9975 35.877L35.9055 29.969V36.1436ZM29.4145 34.8441C29.4593 34.6593 29.4837 34.4665 29.4837 34.2681V30.4546C29.4837 29.7355 30.0688 29.1504 30.7879 29.1504H34.6013C34.7997 29.1504 34.9925 29.1261 35.1774 29.0813L29.4145 34.8441ZM35.9055 10.7748H11.563C11.2475 10.7748 10.9917 11.0306 10.9917 11.3461C10.9917 11.6616 11.2475 11.9174 11.563 11.9174H35.9055V26.7037C35.9055 27.4229 35.3205 28.0079 34.6013 28.0079H30.7879C29.4388 28.0079 28.3411 29.1056 28.3411 30.4547V34.2681C28.3411 34.9873 27.7561 35.5723 27.037 35.5723H4.8124C3.86528 35.5723 3.09473 34.8018 3.09473 33.8546V11.9174H9.27783C9.59333 11.9174 9.84912 11.6616 9.84912 11.3461C9.84912 11.0306 9.59333 10.7748 9.27783 10.7748H3.09465V5.47097C3.09465 4.52385 3.8652 3.75329 4.81233 3.75329H7.25485V5.43303C7.25485 6.39097 8.03417 7.17029 8.99211 7.17029C9.30761 7.17029 9.5634 6.9145 9.5634 6.599C9.5634 6.28349 9.30761 6.02771 8.99211 6.02771C8.66419 6.02771 8.39743 5.76095 8.39743 5.43303V3.75329H28.0085V5.43303C28.0085 6.39097 28.7878 7.17029 29.7457 7.17029C30.0612 7.17029 30.317 6.9145 30.317 6.599C30.317 6.28349 30.0612 6.02771 29.7457 6.02771C29.4178 6.02771 29.1511 5.76095 29.1511 5.43303V3.75329H34.1879C35.135 3.75329 35.9055 4.52385 35.9055 5.47097V10.7748ZM9.21559 21.2692H6.49519C5.88018 21.2692 5.37981 21.7696 5.37981 22.3846V25.105C5.37981 25.72 5.88018 26.2204 6.49519 26.2204H9.21559C9.83061 26.2204 10.331 25.72 10.331 25.105V22.3846C10.331 21.7695 9.83061 21.2692 9.21559 21.2692ZM9.1884 25.0778H6.52238V22.4118H9.1884V25.0778ZM14.2583 19.1537H16.9787C17.5937 19.1537 18.0941 18.6534 18.0941 18.0383V15.3179C18.0941 14.7029 17.5937 14.2025 16.9787 14.2025H14.2583C13.6433 14.2025 13.1429 14.7029 13.1429 15.3179V18.0383C13.1429 18.6534 13.6433 19.1537 14.2583 19.1537ZM14.2855 15.3451H16.9515V18.0111H14.2855V15.3451ZM22.048 32.1445C22.0338 31.8416 21.7837 31.6004 21.4773 31.6004C21.1618 31.6004 20.906 31.8562 20.906 32.1717C20.906 32.7867 21.4064 33.2871 22.0214 33.2871H24.7418C25.3568 33.2871 25.8572 32.7867 25.8572 32.1717V29.4513C25.8572 28.8363 25.3568 28.3359 24.7418 28.3359H22.0214C21.4064 28.3359 20.906 28.8363 20.906 29.4513V30.2359C20.906 30.5514 21.1618 30.8072 21.4773 30.8072C21.7928 30.8072 22.0486 30.5514 22.0486 30.2359V29.4785H24.7146V32.1445H22.048ZM14.2583 26.2204H16.9787C17.5937 26.2204 18.0941 25.72 18.0941 25.105V22.3846C18.0941 21.7696 17.5937 21.2692 16.9787 21.2692H14.2583C13.6433 21.2692 13.1429 21.7696 13.1429 22.3846V25.105C13.1429 25.72 13.6433 26.2204 14.2583 26.2204ZM14.2855 22.4118H16.9515V25.0778H14.2855V22.4118ZM14.2583 33.2871H16.9787C17.5937 33.2871 18.0941 32.7867 18.0941 32.1717V29.4513C18.0941 28.8363 17.5937 28.3359 16.9787 28.3359H14.2583C13.6433 28.3359 13.1429 28.8363 13.1429 29.4513V32.1717C13.1429 32.7867 13.6433 33.2871 14.2583 33.2871ZM14.2855 29.4785H16.9515V32.1445H14.2855V29.4785Z" fill="#2E2D2D"/>
</svg>
