<svg width="53" height="39" viewBox="0 0 53 39" fill="none" xmlns="http://www.w3.org/2000/svg">
<g clip-path="url(#clip0)">
<path d="M37.7846 24.0024C39.1747 24.0024 40.3055 22.8715 40.3055 21.4815C40.3055 21.0571 39.9615 20.7133 39.5372 20.7133C39.1129 20.7133 38.7689 21.0571 38.7689 21.4815C38.7689 22.0244 38.3273 22.4659 37.7846 22.4659C37.2419 22.4659 36.8002 22.0243 36.8002 21.4815C36.8002 21.0571 36.4563 20.7133 36.032 20.7133C35.6077 20.7133 35.2637 21.0571 35.2637 21.4815C35.2636 22.8715 36.3945 24.0024 37.7846 24.0024Z" fill="#2E2D2D"/>
<path d="M41.8132 19.6929C42.2375 19.6929 42.5815 19.349 42.5815 18.9246V18.1218C42.9608 18.0748 43.2545 17.7514 43.2545 17.3594C43.2545 16.9349 42.9105 16.5911 42.4862 16.5911H41.8132C41.3889 16.5911 41.0449 16.9349 41.0449 17.3594V18.9246C41.0449 19.349 41.3889 19.6929 41.8132 19.6929Z" fill="#2E2D2D"/>
<path d="M32.9884 18.1219V18.9247C32.9884 19.3491 33.3324 19.693 33.7567 19.693C34.181 19.693 34.525 19.3491 34.525 18.9247V17.3595C34.525 16.9351 34.181 16.5912 33.7567 16.5912H33.0837C32.6594 16.5912 32.3154 16.9351 32.3154 17.3595C32.3154 17.7514 32.6091 18.0749 32.9884 18.1219Z" fill="#2E2D2D"/>
<path d="M49.2671 19.0627C49.4852 18.6012 49.6078 18.0862 49.6078 17.5428C49.6078 16.6386 49.2692 15.8124 48.7131 15.1826C48.8014 15.0575 48.8536 14.9053 48.8536 14.7405C48.8536 12.4712 48.9669 11.1255 48.2843 9.17366C48.1441 8.77313 47.7059 8.56159 47.3054 8.70204C46.9048 8.84207 46.6937 9.2804 46.8338 9.68093C47.3917 11.276 47.3169 12.3824 47.3169 13.9722C46.337 13.9722 43.6971 13.9722 42.5841 13.9722C40.3612 13.9722 38.5527 12.1637 38.5526 9.94082C38.5526 9.51642 38.2086 9.17253 37.7843 9.17253C37.36 9.17253 37.016 9.51642 37.016 9.94082C37.016 12.1637 35.2074 13.9722 32.9844 13.9722H29.6462H28.2516V12.5409C28.2516 7.76626 32.136 3.88181 36.9107 3.88181C36.9688 3.88181 37.016 3.92904 37.016 3.98712C37.016 4.41142 37.36 4.7553 37.7843 4.7553C38.2086 4.7553 38.5526 4.41142 38.5526 3.98712C38.5526 3.92904 38.5998 3.88181 38.6579 3.88181C41.1609 3.88192 43.5407 4.96489 45.1871 6.85303C45.4659 7.17294 45.9512 7.20593 46.2711 6.9273C46.5909 6.64836 46.6241 6.16311 46.3452 5.8433C44.407 3.62039 41.6051 2.34545 38.658 2.34535C38.3371 2.34535 38.0375 2.43785 37.7844 2.59755C37.5312 2.43785 37.2316 2.34535 36.9108 2.34535C31.2889 2.34535 26.7151 6.9191 26.7151 12.541V14.7406C26.7151 14.9053 26.7675 15.0576 26.8557 15.1827C26.5977 15.4747 26.3865 15.8088 26.2345 16.1737C26.1422 15.0407 25.5706 14.0457 24.7172 13.3948V10.4679C24.7172 4.70511 20.0289 0.0168263 14.2661 0.0168263C12.8353 0.0168263 13.4086 -0.00786154 11.4295 0.14682C8.69955 0.359891 6.25651 1.82076 4.77761 4.09345L2.46394 3.35395C1.98453 3.20029 1.48679 3.54387 1.46261 4.04909C1.45165 4.2806 1.21983 9.42566 2.15796 13.0092C0.87984 13.6503 0 14.9727 0 16.4975C0 18.476 1.48084 20.1152 3.39244 20.3649C3.87359 22.4292 5.01024 24.3031 6.63624 25.6929C7.06259 26.0573 7.51752 26.3816 7.99385 26.6666H6.37718C3.72086 26.6666 1.55982 28.8277 1.55982 31.4839V38.2165C1.55982 38.6409 1.90381 38.9848 2.32811 38.9848H3.60438C4.02868 38.9848 4.37267 38.6409 4.37267 38.2165C4.37267 37.7921 4.02868 37.4482 3.60438 37.4482H3.09639V31.4839C3.09639 29.6749 4.56812 28.2032 6.37718 28.2032H8.61217C8.99396 30.4685 11.0427 32.1717 13.4362 32.0172C15.6028 31.8776 17.3195 30.2474 17.6644 28.2032H19.8997C21.7088 28.2032 23.1806 29.6749 23.1806 31.4839V37.4482H7.18982C6.76552 37.4482 6.42153 37.7921 6.42153 38.2165C6.42153 38.6409 6.76552 38.9848 7.18982 38.9848H23.949C24.3733 38.9848 24.7173 38.6409 24.7173 38.2165V31.4839C24.7173 30.8442 24.5909 30.2337 24.3635 29.6747H25.5978C26.3707 29.6747 27.1079 29.5203 27.7816 29.2423C27.3076 29.9752 27.0312 30.8474 27.0312 31.7833V38.2165C27.0312 38.6409 27.3752 38.9848 27.7995 38.9848H47.821C48.2453 38.9848 48.5893 38.6409 48.5893 38.2165V31.7833C48.5893 30.859 48.3197 29.9969 47.8565 29.2695C48.5115 29.5299 49.2246 29.6747 49.9713 29.6747H51.68C52.1043 29.6747 52.4483 29.3308 52.4483 28.9064V24.201C52.4483 22.0123 51.1798 20.0224 49.2671 19.0627ZM32.9846 15.5088C35.0266 15.5088 36.8154 14.4041 37.7845 12.7607C38.7536 14.4041 40.5423 15.5088 42.5843 15.5088H46.0372C47.1588 15.5088 48.0712 16.4213 48.0712 17.5428C48.0712 18.0913 47.8521 18.5887 47.4981 18.9549C47.0935 19.3728 46.5326 19.5981 45.9557 19.5746C45.5671 19.5567 45.2294 19.833 45.1654 20.2155C44.5809 23.7099 41.558 26.4556 37.7845 26.4556C35.1184 26.4556 32.6281 25.0461 31.2881 22.7021C31.2756 22.6705 31.2612 22.6394 31.2445 22.6095C30.9317 22.0484 30.6944 21.4556 30.5361 20.8405C30.5329 20.8282 30.5303 20.8157 30.5273 20.8034C30.4836 20.6301 30.4421 20.4462 30.4035 20.2154C30.3397 19.8338 30.0005 19.5569 29.6133 19.5745C28.4635 19.6212 27.4978 18.6936 27.4978 17.5426C27.4978 16.421 28.4103 15.5086 29.5318 15.5086C29.5597 15.5086 29.5876 15.5099 29.6154 15.5109C29.6481 15.5122 29.6804 15.5114 29.7124 15.5086H32.9846V15.5088ZM37.7971 31.224C36.3353 31.224 35.146 30.0347 35.146 28.5728V27.8575V27.5993C36.0179 27.8669 36.9285 27.9923 37.7844 27.9923C38.6683 27.9923 39.5888 27.8582 40.4481 27.5916V28.5729C40.4481 29.9891 39.3319 31.1495 37.9332 31.2206C37.8881 31.2228 37.8428 31.224 37.7971 31.224ZM31.7242 27.0893C31.724 27.0893 31.7236 27.0893 31.7233 27.0893C31.1967 27.0895 30.6906 27.1782 30.2177 27.339C30.6925 26.6971 31.0364 25.9532 31.2109 25.1467C31.4363 25.3867 31.6746 25.6161 31.9268 25.8316C32.446 26.2754 33.0112 26.655 33.6094 26.9672V27.0893H31.7242ZM41.9847 26.9547C42.8544 26.4973 43.6502 25.9006 44.3579 25.1468C44.5304 25.9437 44.8686 26.6793 45.3348 27.316C44.4576 27.0326 43.9999 27.0893 41.9848 27.0893V26.9547H41.9847ZM2.97234 5.12951L4.88886 5.74199C5.23807 5.85334 5.6177 5.70285 5.79512 5.38181C6.97224 3.25233 9.12334 1.86788 11.5492 1.67868C13.4806 1.52789 12.895 1.55329 14.2661 1.55329C19.1815 1.55329 23.1806 5.55227 23.1806 10.4678V12.6871C22.5092 12.5425 22.7216 12.6001 12.1848 12.6001C11.4188 12.6001 10.685 12.4299 10.0239 12.1224C8.56935 11.4461 7.4663 10.1059 7.14321 8.45444C7.01977 7.82343 6.24309 7.63361 5.82821 8.07706C4.71993 9.26186 3.94509 10.6654 3.52438 12.1219C2.99611 9.73226 2.95339 6.68278 2.97234 5.12951ZM4.7856 19.4996C4.72342 19.1281 4.40187 18.858 4.02817 18.858C4.01783 18.858 4.00738 18.8583 3.99693 18.8587C3.96486 18.86 3.9328 18.8612 3.90043 18.8612C2.59701 18.8612 1.53657 17.8009 1.53657 16.4975C1.53657 15.216 2.55808 14.1801 3.81459 14.1358C3.81766 14.1357 3.82084 14.1357 3.82391 14.1356C3.88107 14.1338 3.93823 14.1338 3.99508 14.1362C3.99631 14.1362 3.99754 14.1362 3.99877 14.1363C4.00113 14.1364 4.00348 14.1361 4.00584 14.1362C4.38906 14.1481 4.72219 13.8742 4.7856 13.4953C4.95903 12.4583 5.32319 11.4719 5.8573 10.5776C5.93362 10.4498 6.01342 10.3239 6.0966 10.2001C7.15417 12.5489 9.51875 14.1368 12.1848 14.1368H22.4588H22.4593C22.8323 14.154 23.2208 14.2666 23.5556 14.466C23.5616 14.4696 23.5679 14.472 23.574 14.4753C24.2585 14.8893 24.712 15.6391 24.712 16.4974C24.712 17.8008 23.6516 18.8611 22.3482 18.8611C22.3158 18.8611 22.2837 18.8598 22.2516 18.8586C21.8651 18.8447 21.5268 19.1177 21.4629 19.4995C20.7666 23.663 17.184 26.5494 13.1243 26.5494C9.03329 26.5495 5.47695 23.6334 4.7856 19.4996ZM12.9843 30.4874C11.4809 30.4122 10.2552 29.2428 10.1013 27.7515C10.1002 27.7403 10.0996 27.729 10.0985 27.7177C10.0955 27.6845 10.0929 27.6511 10.091 27.6176C11.1027 27.9405 12.1578 28.086 13.1245 28.086C14.1094 28.086 15.1729 27.9354 16.1872 27.6081C16.0942 29.2813 14.6598 30.5711 12.9843 30.4874ZM19.8998 26.6666H18.255C18.7313 26.3816 19.1862 26.0573 19.6126 25.6929C21.2385 24.3032 22.3752 22.4293 22.8563 20.3649C24.2844 20.1784 25.4718 19.2162 25.9812 17.9164C26.0236 18.3225 26.1343 18.7085 26.3017 19.0627C24.389 20.0224 23.1205 22.0122 23.1205 24.201V27.9051C22.2665 27.1358 21.1371 26.6666 19.8998 26.6666ZM24.6571 28.1381V24.201C24.6571 22.4914 25.7133 20.9466 27.2717 20.3068C27.782 20.7235 28.3965 20.9854 29.011 21.0756C29.1884 21.8168 29.4677 22.5407 29.8051 23.1788V23.9305C29.8051 26.2505 27.9176 28.138 25.5976 28.138H24.6571V28.1381ZM47.0527 37.4482H28.5677V31.7833C28.5677 30.0422 29.9842 28.6258 31.7253 28.6258H33.6098C33.6381 30.8945 35.4928 32.7605 37.7971 32.7605C40.075 32.7605 41.9557 30.9232 41.9844 28.6258H43.8951C45.6361 28.6258 47.0526 30.0422 47.0526 31.7833V37.4482H47.0527ZM50.9117 28.1381H49.9711C47.6511 28.1381 45.7637 26.2506 45.7637 23.9306V23.1789C46.106 22.5313 46.3826 21.8074 46.5578 21.0757C47.135 20.991 47.7171 20.7564 48.2233 20.3632C48.2478 20.3442 48.2731 20.3266 48.2971 20.307C49.8556 20.9467 50.9117 22.4914 50.9117 24.201V28.1381Z" fill="#2E2D2D"/>
<path d="M13.1248 23.6403C14.6286 23.6403 15.852 22.4169 15.852 20.9131C15.852 20.4887 15.508 20.1448 15.0837 20.1448C14.6594 20.1448 14.3154 20.4887 14.3154 20.9131C14.3154 21.5696 13.7813 22.1037 13.1248 22.1037C12.4682 22.1037 11.934 21.5696 11.934 20.9131C11.934 20.4887 11.59 20.1448 11.1657 20.1448C10.7414 20.1448 10.3975 20.4887 10.3975 20.9131C10.3976 22.4168 11.621 23.6403 13.1248 23.6403Z" fill="#2E2D2D"/>
<path d="M8.6218 15.5627C8.1975 15.5627 7.85352 15.9066 7.85352 16.331V18.0297C7.85352 18.4541 8.1975 18.7979 8.6218 18.7979C9.0461 18.7979 9.39009 18.4541 9.39009 18.0297V16.331C9.39009 15.9067 9.0461 15.5627 8.6218 15.5627Z" fill="#2E2D2D"/>
<path d="M17.6267 18.7979C18.051 18.7979 18.395 18.4541 18.395 18.0297V16.331C18.395 15.9066 18.051 15.5627 17.6267 15.5627C17.2024 15.5627 16.8584 15.9066 16.8584 16.331V18.0297C16.8584 18.4541 17.2024 18.7979 17.6267 18.7979Z" fill="#2E2D2D"/>
</g>
<defs>
<clipPath id="clip0">
<rect width="52.4483" height="39" fill="white"/>
</clipPath>
</defs>
</svg>
