<svg width="16" height="17" viewBox="0 0 16 17" fill="none" xmlns="http://www.w3.org/2000/svg">
<g clip-path="url(#clip0_194_278)">
<path d="M11.7812 5.36603C11.6918 5.20923 11.5722 5.07167 11.4294 4.96127C11.2866 4.85086 11.1234 4.7698 10.9491 4.72275C10.7748 4.67569 10.593 4.66358 10.414 4.6871C10.235 4.71061 10.0624 4.7693 9.90625 4.85978C9.6277 5.01815 9.4149 5.27084 9.30625 5.57228L8.20625 3.67853C8.11681 3.52173 7.99724 3.38417 7.85443 3.27377C7.71161 3.16336 7.54836 3.0823 7.37409 3.03525C7.19982 2.98819 7.01796 2.97608 6.83898 2.9996C6.66001 3.02311 6.48745 3.0818 6.33125 3.17228C6.0527 3.33065 5.8399 3.58334 5.73125 3.88478C5.54046 3.58572 5.24193 3.37153 4.89752 3.28659C4.5531 3.20165 4.18921 3.25247 3.88125 3.42853C3.72498 3.51915 3.58819 3.63981 3.47878 3.78355C3.36936 3.92729 3.28949 4.09127 3.24375 4.26603C3.16399 4.54641 3.17937 4.84532 3.2875 5.11603C3.06299 5.12091 2.84349 5.18332 2.65 5.29728C2.33414 5.48031 2.10358 5.78093 2.00872 6.13345C1.91386 6.48597 1.9624 6.8617 2.14375 7.17853L2.49375 7.77228C2.17794 7.72181 1.85434 7.77905 1.575 7.93478C1.4185 8.02534 1.28141 8.14587 1.17155 8.28948C1.0617 8.43309 0.981249 8.59696 0.934806 8.7717C0.888363 8.94644 0.87684 9.12863 0.900896 9.30783C0.924952 9.48703 0.984115 9.65972 1.075 9.81603L3.3875 13.8223C3.83914 14.6066 4.50572 15.2454 5.30858 15.6632C6.11144 16.081 7.01706 16.2604 7.91857 16.1802C8.82007 16.1 9.67983 15.7636 10.3964 15.2107C11.1129 14.6578 11.6563 13.9115 11.9625 13.0598C12.748 12.3258 13.2624 11.3481 13.4224 10.285C13.5823 9.22201 13.3784 8.13612 12.8437 7.20353L11.7812 5.36603ZM6.58125 3.60353C6.78266 3.48837 7.02156 3.45792 7.24541 3.51886C7.46927 3.57981 7.65976 3.72716 7.775 3.92853L9.2875 6.54728C9.07169 6.55734 8.86153 6.61953 8.675 6.72853C8.39796 6.88752 8.18393 7.13685 8.06875 7.43478L6.975 5.54103C6.83672 5.29625 6.6245 5.10153 6.36875 4.98478L6.2625 4.80353C6.14652 4.60193 6.11495 4.36265 6.17466 4.13786C6.23437 3.91308 6.38052 3.72101 6.58125 3.60353ZM3.725 4.39728C3.77012 4.23083 3.86342 4.08143 3.99318 3.96785C4.12294 3.85426 4.28337 3.78154 4.45432 3.75884C4.62527 3.73613 4.79912 3.76445 4.95402 3.84023C5.10893 3.91602 5.23799 4.03588 5.325 4.18478L5.71875 4.85978C5.50064 4.86781 5.28797 4.93011 5.1 5.04103C4.82109 5.19896 4.60816 5.45181 4.5 5.75353C4.35731 5.53228 4.15612 5.35489 3.91875 5.24103L3.8125 5.05978C3.75391 4.96099 3.71595 4.85135 3.70091 4.73749C3.68587 4.62362 3.69407 4.50789 3.725 4.39728ZM9.625 15.1285C8.64832 15.6906 7.48861 15.8424 6.40017 15.5506C5.31174 15.2589 4.38341 14.5475 3.81875 13.5723L1.50625 9.56603C1.44112 9.46649 1.39698 9.35472 1.37651 9.23754C1.35604 9.12037 1.35968 9.00025 1.3872 8.88453C1.41472 8.76881 1.46555 8.65991 1.53657 8.5645C1.6076 8.46908 1.69734 8.38915 1.8003 8.32958C1.90326 8.27002 2.01728 8.23207 2.13541 8.21806C2.25353 8.20406 2.37327 8.21428 2.4873 8.24811C2.60134 8.28193 2.70728 8.33866 2.79866 8.41481C2.89003 8.49097 2.96492 8.58495 3.01875 8.69103L4.51875 11.291C4.54136 11.3289 4.57337 11.3604 4.6117 11.3823C4.65002 11.4042 4.69336 11.4158 4.7375 11.416C4.78195 11.4162 4.82545 11.4031 4.8625 11.3785C4.91923 11.3458 4.96083 11.2921 4.97836 11.2289C4.99589 11.1658 4.98795 11.0984 4.95625 11.041L2.58125 6.92853C2.51612 6.82899 2.47198 6.71722 2.45151 6.60004C2.43104 6.48287 2.43468 6.36275 2.4622 6.24703C2.48972 6.13131 2.54055 6.02241 2.61157 5.927C2.6826 5.83158 2.77234 5.75165 2.8753 5.69208C2.97826 5.63252 3.09228 5.59457 3.21041 5.58056C3.32853 5.56656 3.44827 5.57678 3.5623 5.61061C3.67634 5.64443 3.78228 5.70116 3.87366 5.77731C3.96503 5.85347 4.03992 5.94745 4.09375 6.05353L6.46875 10.166C6.4855 10.1944 6.5077 10.2192 6.53407 10.239C6.56044 10.2588 6.59047 10.2732 6.62242 10.2813C6.65437 10.2894 6.68761 10.2912 6.72023 10.2864C6.75285 10.2816 6.78421 10.2705 6.8125 10.2535C6.86923 10.2208 6.91083 10.1671 6.92836 10.1039C6.94589 10.0408 6.93795 9.97335 6.90625 9.91603L5.03125 6.66603C4.93 6.46649 4.90903 6.23575 4.97267 6.02124C5.0363 5.80672 5.1797 5.62474 5.37338 5.51269C5.56706 5.40065 5.7963 5.36706 6.01398 5.41883C6.23167 5.47059 6.42124 5.60379 6.54375 5.79103L9.16875 10.341C9.18487 10.3701 9.20676 10.3955 9.23306 10.4158C9.25937 10.4361 9.28955 10.4508 9.32174 10.459C9.35393 10.4671 9.38746 10.4687 9.42026 10.4634C9.45307 10.4582 9.48445 10.4463 9.5125 10.4285C9.54068 10.4124 9.56536 10.3908 9.58507 10.365C9.60478 10.3391 9.61913 10.3096 9.62729 10.2782C9.63544 10.2468 9.63722 10.214 9.63254 10.1819C9.62785 10.1497 9.61679 10.1188 9.6 10.091L8.6 8.35353C8.4875 8.1519 8.45621 7.91495 8.5125 7.69103C8.57398 7.46704 8.7214 7.27638 8.92271 7.16051C9.12402 7.04464 9.36293 7.01293 9.5875 7.07228L9.66875 7.09728C9.85712 7.16731 10.0159 7.29962 10.1187 7.47228L11.1812 9.31603C11.7453 10.2933 11.8982 11.4545 11.6064 12.5444C11.3145 13.6344 10.6019 14.5638 9.625 15.1285ZM12.2125 12.016C12.339 10.9956 12.1283 9.96179 11.6125 9.07228L10.55 7.22853C10.4072 6.98514 10.1935 6.79109 9.9375 6.67228L9.83125 6.49103C9.71875 6.2894 9.68746 6.05245 9.74375 5.82853C9.77342 5.71686 9.82522 5.6123 9.89608 5.52104C9.96694 5.42978 10.0554 5.35369 10.1562 5.29728C10.3569 5.1816 10.5952 5.1502 10.819 5.20995C11.0428 5.2697 11.2337 5.41573 11.35 5.61603L12.4125 7.45353C12.8132 8.15537 13.007 8.95628 12.9717 9.76367C12.9363 10.5711 12.6731 11.3519 12.2125 12.016ZM10.55 2.55353L10.8125 1.58478C10.83 1.52105 10.8721 1.46686 10.9295 1.43406C10.9869 1.40127 11.0549 1.39254 11.1187 1.40978C11.1825 1.42732 11.2367 1.46939 11.2695 1.52678C11.3023 1.58417 11.311 1.65222 11.2937 1.71603L11.0375 2.68478C11.0215 2.73703 10.9892 2.78281 10.9454 2.81541C10.9015 2.84802 10.8484 2.86576 10.7937 2.86603H10.7312C10.6659 2.84844 10.6101 2.8057 10.5762 2.74715C10.5422 2.6886 10.5328 2.619 10.55 2.55353ZM12.1625 3.20978L12.7375 2.39103C12.7548 2.36078 12.7783 2.33448 12.8063 2.31382C12.8344 2.29316 12.8665 2.27861 12.9005 2.27108C12.9345 2.26356 12.9698 2.26323 13.0039 2.27013C13.0381 2.27702 13.0705 2.29098 13.0989 2.31112C13.1274 2.33125 13.1513 2.35711 13.1691 2.38704C13.187 2.41697 13.1984 2.4503 13.2026 2.4849C13.2069 2.5195 13.2038 2.55459 13.1937 2.58794C13.1835 2.62129 13.1665 2.65214 13.1437 2.67853L12.575 3.49728C12.5511 3.52961 12.52 3.556 12.4842 3.57443C12.4485 3.59285 12.409 3.60281 12.3687 3.60353C12.3168 3.60221 12.2666 3.58473 12.225 3.55353C12.198 3.53536 12.1749 3.51195 12.157 3.4847C12.1392 3.45744 12.127 3.42689 12.1212 3.39485C12.1154 3.3628 12.116 3.32992 12.1231 3.29813C12.1302 3.26634 12.1436 3.2363 12.1625 3.20978ZM14.5562 4.20978L13.7375 4.78478C13.6834 4.82131 13.6171 4.83522 13.5529 4.82354C13.4887 4.81187 13.4315 4.77552 13.3937 4.72228C13.3744 4.69564 13.3605 4.66543 13.3528 4.63339C13.3451 4.60135 13.3439 4.56811 13.3491 4.53559C13.3543 4.50306 13.3659 4.47189 13.3833 4.44386C13.4006 4.41584 13.4233 4.39151 13.45 4.37228L14.2687 3.80353C14.2951 3.78076 14.326 3.76375 14.3593 3.75361C14.3927 3.74347 14.4278 3.74041 14.4624 3.74463C14.497 3.74885 14.5303 3.76026 14.5602 3.77813C14.5902 3.79599 14.616 3.81992 14.6362 3.84837C14.6563 3.87682 14.6703 3.90917 14.6772 3.94333C14.684 3.9775 14.6837 4.01273 14.6762 4.04676C14.6687 4.08079 14.6541 4.11288 14.6335 4.14095C14.6128 4.16903 14.5865 4.19247 14.5562 4.20978Z" fill="white"/>
</g>
<defs>
<clipPath id="clip0_194_278">
<rect width="16" height="16" fill="white" transform="translate(0 0.947266)"/>
</clipPath>
</defs>
</svg>
