<svg width="18" height="19" viewBox="0 0 18 19" fill="none" xmlns="http://www.w3.org/2000/svg">
<g clip-path="url(#clip0)">
<path d="M12.2067 10.7555L9.69703 8.87328V5.03907C9.69703 4.65354 9.38541 4.34192 8.99988 4.34192C8.61436 4.34192 8.30273 4.65354 8.30273 5.03907V9.22189C8.30273 9.44147 8.40592 9.64854 8.58159 9.77961L11.3701 11.871C11.4956 11.9651 11.642 12.0104 11.7877 12.0104C12.0003 12.0104 12.2095 11.9149 12.3461 11.7309C12.5776 11.4234 12.5149 10.9863 12.2067 10.7555Z" fill="#2E2D2D" fill-opacity="0.5"/>
<path d="M9 0.166138C4.0371 0.166138 0 4.20324 0 9.16614C0 14.129 4.0371 18.1661 9 18.1661C13.9629 18.1661 18 14.129 18 9.16614C18 4.20324 13.9629 0.166138 9 0.166138ZM9 16.7719C4.80674 16.7719 1.39426 13.3594 1.39426 9.16614C1.39426 4.97288 4.80674 1.5604 9 1.5604C13.194 1.5604 16.6057 4.97288 16.6057 9.16614C16.6057 13.3594 13.1933 16.7719 9 16.7719Z" fill="#2E2D2D" fill-opacity="0.5"/>
</g>
<defs>
<clipPath id="clip0">
<rect width="18" height="18" fill="white" transform="translate(0 0.166138)"/>
</clipPath>
</defs>
</svg>
