<svg width="39" height="39" viewBox="0 0 39 39" fill="none" xmlns="http://www.w3.org/2000/svg">
<path d="M33.2886 5.71137C29.6055 2.0283 24.7086 0 19.5 0C14.2914 0 9.39451 2.0283 5.71137 5.71137C2.02823 9.39443 0 14.2914 0 19.5C0 24.7086 2.0283 29.6055 5.71137 33.2886C9.39443 36.9718 14.2914 39 19.5 39C24.7086 39 29.6055 36.9717 33.2886 33.2886C36.9718 29.6056 39 24.7086 39 19.5C39 14.2914 36.9717 9.39451 33.2886 5.71137ZM32.4268 32.4268C28.974 35.8797 24.3831 37.7812 19.5 37.7812C14.6169 37.7812 10.026 35.8797 6.57318 32.4268C3.1203 28.974 1.21875 24.3831 1.21875 19.5C1.21875 14.6169 3.1203 10.026 6.57318 6.57318C10.026 3.1203 14.6169 1.21875 19.5 1.21875C24.3831 1.21875 28.974 3.1203 32.4268 6.57318C35.8797 10.026 37.7812 14.6169 37.7812 19.5C37.7812 24.3831 35.8797 28.974 32.4268 32.4268Z" fill="#2E2D2D"/>
<path d="M3.65625 19.5C3.65625 10.7638 10.7638 3.65625 19.5 3.65625C22.6511 3.65625 25.6948 4.57877 28.302 6.32409C28.5817 6.51132 28.9602 6.43637 29.1474 6.15667C29.3346 5.87704 29.2597 5.49854 28.98 5.31131C26.1714 3.43124 22.8933 2.4375 19.5 2.4375C14.9424 2.4375 10.6577 4.2123 7.43498 7.43498C4.2123 10.6577 2.4375 14.9424 2.4375 19.5C2.4375 23.7047 3.98028 27.7442 6.78173 30.8746C6.90209 31.0091 7.06875 31.0776 7.23602 31.0776C7.38067 31.0776 7.52593 31.0264 7.64217 30.9223C7.89293 30.6978 7.91433 30.3126 7.68986 30.0618C5.08881 27.1553 3.65625 23.4043 3.65625 19.5Z" fill="#2E2D2D"/>
<path d="M33.6891 10.0202C33.5018 9.74054 33.1233 9.66559 32.8437 9.85282C32.5641 10.04 32.4891 10.4185 32.6763 10.6982C34.4215 13.3054 35.344 16.3491 35.344 19.5001C35.344 28.2363 28.2365 35.3438 19.5003 35.3438C15.8758 35.3438 12.3328 34.0886 9.52414 31.8094C9.2628 31.5973 8.87905 31.6372 8.66698 31.8986C8.45492 32.1599 8.49483 32.5437 8.75618 32.7557C11.7813 35.2106 15.597 36.5626 19.5003 36.5626C24.0579 36.5626 28.3426 34.7878 31.5653 31.5651C34.788 28.3424 36.5628 24.0577 36.5628 19.5001C36.5628 16.1068 35.5691 12.8287 33.6891 10.0202Z" fill="#2E2D2D"/>
<path d="M30.0614 7.68995C30.4711 8.05656 30.8662 8.44892 31.2355 8.85598C31.3558 8.98852 31.5211 9.05586 31.687 9.05586C31.833 9.05586 31.9796 9.00361 32.0963 8.89773C32.3455 8.67157 32.3642 8.28614 32.1381 8.03691C31.7405 7.59877 31.3152 7.17647 30.8742 6.78175C30.6234 6.55734 30.2381 6.57867 30.0137 6.82943C29.7893 7.08019 29.8106 7.46547 30.0614 7.68995Z" fill="#2E2D2D"/>
<path d="M19.5 7.92188C19.8365 7.92188 20.1094 7.64903 20.1094 7.3125V5.48438C20.1094 5.14785 19.8365 4.875 19.5 4.875C19.1635 4.875 18.8906 5.14785 18.8906 5.48438V7.3125C18.8906 7.64903 19.1635 7.92188 19.5 7.92188Z" fill="#2E2D2D"/>
<path d="M18.8906 31.6875V33.5156C18.8906 33.8522 19.1635 34.125 19.5 34.125C19.8365 34.125 20.1094 33.8522 20.1094 33.5156V31.6875C20.1094 31.351 19.8365 31.0781 19.5 31.0781C19.1635 31.0781 18.8906 31.351 18.8906 31.6875Z" fill="#2E2D2D"/>
<path d="M7.92188 19.5C7.92188 19.1635 7.64903 18.8906 7.3125 18.8906H5.48438C5.14785 18.8906 4.875 19.1635 4.875 19.5C4.875 19.8365 5.14785 20.1094 5.48438 20.1094H7.3125C7.64903 20.1094 7.92188 19.8365 7.92188 19.5Z" fill="#2E2D2D"/>
<path d="M31.0781 19.5C31.0781 19.8365 31.351 20.1094 31.6875 20.1094H33.5156C33.8522 20.1094 34.125 19.8365 34.125 19.5C34.125 19.1635 33.8522 18.8906 33.5156 18.8906H31.6875C31.351 18.8906 31.0781 19.1635 31.0781 19.5Z" fill="#2E2D2D"/>
<path d="M13.9341 8.64067L13.02 7.05744C12.8517 6.76593 12.479 6.66622 12.1876 6.8344C11.8961 7.00267 11.7963 7.37538 11.9645 7.66681L12.8786 9.25004C12.9915 9.4455 13.1963 9.55481 13.4069 9.55481C13.5103 9.55481 13.6151 9.52845 13.7111 9.47307C14.0025 9.30481 14.1023 8.9321 13.9341 8.64067Z" fill="#2E2D2D"/>
<path d="M26.1216 29.75C25.9533 29.4586 25.5805 29.3589 25.2891 29.527C24.9977 29.6952 24.8978 30.068 25.0661 30.3594L25.9802 31.9426C26.0931 32.1381 26.2979 32.2474 26.5085 32.2474C26.6119 32.2474 26.7167 32.221 26.8127 32.1656C27.1041 31.9974 27.204 31.6247 27.0357 31.3332L26.1216 29.75Z" fill="#2E2D2D"/>
<path d="M7.36243 27.1173C7.46579 27.1173 7.57061 27.0909 7.66658 27.0356L9.24982 26.1215C9.54125 25.9532 9.64111 25.5805 9.47285 25.2891C9.30458 24.9976 8.9318 24.8979 8.64044 25.066L7.05721 25.9801C6.76578 26.1484 6.66591 26.5211 6.83418 26.8125C6.94699 27.008 7.15181 27.1173 7.36243 27.1173Z" fill="#2E2D2D"/>
<path d="M30.0553 14.0157C30.1587 14.0157 30.2635 13.9894 30.3595 13.934L31.9427 13.0199C32.2341 12.8517 32.334 12.4789 32.1657 12.1875C31.9975 11.8961 31.6247 11.7964 31.3333 11.9645L29.7501 12.8785C29.4586 13.0468 29.3588 13.4195 29.527 13.711C29.6399 13.9064 29.8448 14.0157 30.0553 14.0157Z" fill="#2E2D2D"/>
<path d="M26.8126 6.83435C26.5212 6.66601 26.1484 6.76587 25.9802 7.05738L25.0661 8.64062C24.8978 8.93205 24.9977 9.30476 25.2891 9.47302C25.3851 9.52848 25.4899 9.55476 25.5933 9.55476C25.8039 9.55476 26.0087 9.44545 26.1216 9.24999L27.0357 7.66676C27.2039 7.37532 27.104 7.00261 26.8126 6.83435Z" fill="#2E2D2D"/>
<path d="M13.711 29.5269C13.4196 29.3587 13.0469 29.4585 12.8786 29.75L11.9645 31.3332C11.7963 31.6246 11.8961 31.9973 12.1876 32.1656C12.2836 32.221 12.3883 32.2473 12.4917 32.2473C12.7023 32.2473 12.9072 32.138 13.0201 31.9426L13.9341 30.3593C14.1023 30.0679 14.0024 29.6952 13.711 29.5269Z" fill="#2E2D2D"/>
<path d="M29.7501 26.1215L31.3333 27.0355C31.4293 27.091 31.534 27.1173 31.6374 27.1173C31.8481 27.1173 32.0529 27.008 32.1658 26.8125C32.334 26.5211 32.2342 26.1483 31.9427 25.9801L30.3595 25.066C30.0681 24.8977 29.6954 24.9976 29.5271 25.2891C29.3588 25.5805 29.4586 25.9532 29.7501 26.1215Z" fill="#2E2D2D"/>
<path d="M9.24981 12.8785L7.66658 11.9645C7.37515 11.7961 7.00244 11.8961 6.83418 12.1875C6.66591 12.4789 6.76578 12.8516 7.05721 13.0199L8.64044 13.934C8.73642 13.9894 8.84115 14.0157 8.94459 14.0157C9.15521 14.0157 9.36003 13.9064 9.47292 13.7109C9.64111 13.4195 9.54125 13.0468 9.24981 12.8785Z" fill="#2E2D2D"/>
<path d="M23.7422 27.4562C23.8455 27.4562 23.9504 27.4299 24.0463 27.3745C24.3378 27.2062 24.4376 26.8335 24.2694 26.5421L20.8888 20.6868C21.1624 20.3671 21.3281 19.9527 21.3281 19.5C21.3281 18.7056 20.8186 18.0282 20.1094 17.7767V9.75C20.1094 9.41347 19.8365 9.14062 19.5 9.14062C19.1635 9.14062 18.8906 9.41347 18.8906 9.75V17.7767C18.1814 18.0282 17.6719 18.7056 17.6719 19.5C17.6719 20.5081 18.4919 21.3281 19.5 21.3281C19.614 21.3281 19.7255 21.3171 19.8339 21.297L23.2139 27.1515C23.3268 27.3469 23.5316 27.4562 23.7422 27.4562ZM18.8906 19.5C18.8906 19.164 19.164 18.8906 19.5 18.8906C19.836 18.8906 20.1094 19.164 20.1094 19.5C20.1094 19.836 19.836 20.1094 19.5 20.1094C19.164 20.1094 18.8906 19.836 18.8906 19.5Z" fill="#2E2D2D"/>
</svg>
