<svg width="193" height="158" viewBox="0 0 193 158" fill="none" xmlns="http://www.w3.org/2000/svg">
<path d="M41.1552 21.7535C33.932 31.2444 33.512 45.3548 33.512 45.3548C33.512 45.3548 27.4647 60.3051 30.7403 67.4442C32.5881 71.5598 36.2837 74.5834 40.7352 75.4233L39.3913 71.3918C39.3913 71.3918 42.8349 76.3472 52.1579 77.1871C61.4808 78.027 72.9875 73.5756 78.6988 69.544C82.1424 67.1923 84.8301 64.0007 86.6779 60.2211L85.2501 66.6043C85.2501 66.6043 93.9011 65.0925 97.7647 55.0976C101.628 45.1028 84.8302 33.8481 83.1504 31.1604C81.4705 28.4727 76.935 7.72706 55.3495 14.4463C55.3495 14.5303 46.1106 15.2022 41.1552 21.7535Z" fill="#263238"/>
<path d="M37.46 75.3395C34.7723 74.4996 32.3366 72.3158 30.7408 70.0481C28.977 67.6964 28.1371 64.9247 28.2211 61.985C28.3891 58.5414 29.7329 55.2658 31.0768 52.0742C32.4206 48.7986 34.0164 45.6069 35.3603 42.3313C35.4443 42.1633 35.1923 42.0793 35.0243 42.1633C33.4285 44.767 31.9166 47.3707 30.5728 50.1424C29.145 52.6621 28.0531 55.3498 27.2972 58.1215C26.5413 60.7252 26.6253 63.4129 27.3812 66.0166C28.1371 68.1163 29.3129 69.9641 30.9928 71.4759C32.9245 73.2397 35.1923 74.2476 37.3761 75.5075C37.46 75.5075 37.544 75.5075 37.544 75.4235C37.544 75.4235 37.544 75.4235 37.46 75.3395Z" fill="#263238"/>
<path d="M98.1848 45.3549C94.4053 38.0478 86.8461 34.1002 81.6387 27.9689C78.867 24.6093 76.5153 20.8297 73.0717 18.142C72.9877 18.058 72.8198 18.226 72.9037 18.31C75.7594 20.8297 77.6912 24.0214 79.8749 27.045C82.2267 29.9847 84.8304 32.7564 87.686 35.1921C92.8095 39.8115 98.9408 45.2709 98.9408 52.7461C98.9408 56.1897 97.5129 60.2212 94.1533 61.817C94.0693 61.901 94.1533 62.069 94.2373 61.985C96.841 60.4732 98.6888 57.9535 99.4447 55.0138C100.285 51.6542 99.7807 48.2946 98.1848 45.3549Z" fill="#263238"/>
<path d="M98.7723 47.3704C98.6043 44.4308 97.5124 41.5751 95.6646 39.3074C93.8168 37.0396 91.1291 35.6118 88.5254 34.3519C85.5018 32.9241 82.3942 31.5803 80.2104 28.8926C80.1264 28.8086 79.9584 28.8926 80.0424 29.0605C83.486 33.428 89.1134 34.9399 93.2289 38.4675C98.0164 42.499 98.9403 49.2182 96.8405 54.9296C95.4967 58.3732 93.3969 61.4809 90.6252 64.0006C90.5412 64.0006 90.6252 64.0845 90.7092 64.0845C95.4967 59.801 99.2762 53.9217 98.7723 47.3704Z" fill="#263238"/>
<path d="M61.0611 80.6307C68.2003 88.1058 104.904 123.634 120.946 120.358C140.348 116.327 162.941 104.484 171.76 96.0849C176.716 91.3814 152.863 67.6122 147.907 71.2237C140.096 77.0191 121.198 86.678 117.923 88.0218C114.563 89.3657 86.5102 74.9193 70.1321 69.208C55.4338 64.0845 56.1056 75.3393 61.0611 80.6307Z" fill="#EB9481"/>
<path d="M185.283 85.4184C180.999 91.1297 167.561 99.4447 163.529 100.201C159.498 100.957 144.631 78.6151 145.975 74.6675C147.319 70.72 163.361 52.4941 170.416 50.6463C177.556 48.7985 189.734 79.455 185.283 85.4184Z" fill="#EB9481"/>
<path d="M148.159 71.0559C148.159 71.0559 150.679 62.0689 150.175 53.8378C149.755 46.9506 148.243 36.7038 152.023 36.3678C159.666 35.6119 163.193 61.061 163.193 61.061C163.193 61.061 162.942 72.5677 155.466 73.9955C150.847 74.9194 148.159 71.0559 148.159 71.0559Z" fill="#EB9481"/>
<path d="M160.086 55.6016C159.666 59.3812 164.37 57.7013 164.37 57.7013C164.37 57.7013 158.239 61.7328 159.33 65.8484C160.422 69.7119 165.966 67.4442 166.386 67.2762C166.05 67.5282 160.506 71.3918 162.102 75.3393C163.698 79.4549 168.905 76.1792 169.241 76.0112C168.989 76.3472 165.882 80.3787 167.729 83.1504C170.921 87.8539 179.152 77.691 183.772 77.3551C183.772 77.3551 185.2 85.0822 185.284 85.3342C185.284 85.3342 193.347 75.8432 192.591 69.6279C192.423 67.7802 190.911 66.2684 189.063 66.1004C189.063 66.1004 192.003 63.3287 190.911 60.137C190.323 58.5412 187.215 58.0373 187.215 58.0373C187.215 58.0373 189.483 55.6855 188.307 52.9978C187.383 50.8141 184.444 50.6461 184.444 50.6461C184.444 50.6461 185.535 47.3705 183.856 45.4387C180.412 41.5752 160.926 47.5385 160.086 55.6016Z" fill="#EB9481"/>
<path d="M183.855 50.5623C183.939 50.5623 183.939 50.4783 183.855 50.5623C183.939 50.4783 183.855 50.4783 183.855 50.4783C176.968 50.8982 169.493 53.4179 164.117 57.7854C163.949 57.9534 164.117 58.2894 164.285 58.1214C170.753 54.6778 176.716 52.1581 183.855 50.5623Z" fill="#263238"/>
<path d="M187.298 58.0374C187.382 58.0374 187.382 57.8694 187.298 57.8694C180.159 58.2893 171.844 61.397 166.217 67.1924C166.049 67.3603 166.049 67.7803 166.301 67.5283C170.248 64.0007 180.831 59.3812 187.298 58.0374Z" fill="#263238"/>
<path d="M169.074 76.5992C174.701 71.2238 181.42 68.2001 188.811 66.1004C188.895 66.1004 188.895 65.9324 188.811 65.9324C184.948 66.0164 180.328 67.7802 176.885 69.544C173.693 71.0558 170.921 73.4075 168.906 76.3472C168.738 76.5151 168.906 76.7671 169.074 76.5992Z" fill="#263238"/>
<path d="M164.284 57.7014C164.032 57.8694 164.536 57.9534 164.368 58.2053C163.528 58.9613 158.657 64.0007 159.833 66.1005C160.757 67.8643 163.78 67.7802 164.956 67.2763L167.812 66.1005L165.544 68.2002C164.536 69.1241 163.696 70.216 163.024 71.4758C162.353 72.5677 162.185 73.9116 162.521 75.1714C162.856 76.3473 164.032 77.1032 165.208 77.0192C166.552 76.8512 167.812 76.4313 168.904 75.5914L172.011 73.5756L169.744 76.5152C169.156 77.3551 168.568 78.1951 168.232 79.119C167.812 79.9589 167.644 80.9667 167.812 81.9746C167.98 82.8145 168.652 83.5704 169.492 83.8224C170.5 83.9064 171.507 83.8224 172.347 83.4025C174.279 82.4786 176.127 81.4707 177.975 80.2948C178.899 79.7069 179.823 79.2029 180.746 78.615C181.67 78.0271 182.678 77.6911 183.77 77.5231C182.762 77.7751 181.754 78.279 180.83 78.867C179.907 79.4549 179.067 80.0428 178.143 80.7148C176.379 82.0586 174.531 83.2345 172.599 84.1584C171.508 84.7463 170.332 84.9143 169.156 84.8303C167.896 84.5783 166.804 83.5704 166.552 82.2266C166.384 81.0507 166.468 79.7909 166.972 78.699C167.392 77.6071 167.98 76.6832 168.652 75.7594L169.492 76.6832C168.232 77.6071 166.72 78.1951 165.124 78.363C164.284 78.447 163.36 78.1951 162.688 77.6911C162.017 77.1872 161.513 76.4312 161.177 75.6753C160.673 74.0795 160.925 72.3997 161.849 70.9719C162.604 69.628 163.528 68.4522 164.704 67.4443L165.292 68.3682C163.78 68.9561 160.505 69.3761 158.657 66.8563C156.809 63.1608 163.024 58.4573 164.284 57.7014Z" fill="#263238"/>
<path d="M164.37 57.7013C163.614 57.7853 162.774 57.7853 162.018 57.7013C161.346 57.6173 160.842 57.1974 160.59 56.6094C160.422 55.9375 160.422 55.2656 160.674 54.5937C160.926 53.8378 161.178 53.0818 161.43 52.3259C160.758 52.8299 160.254 53.5858 159.834 54.3417C159.414 55.1816 159.246 56.1055 159.498 57.0294C159.666 57.5333 160.002 57.9533 160.422 58.2053C160.842 58.4572 161.262 58.5412 161.766 58.5412C162.858 58.5412 163.698 58.2053 164.37 57.7013Z" fill="#263238"/>
<path d="M142.28 73.7435L169.913 104.904C169.913 104.904 128.926 124.978 115.572 121.87C102.217 118.762 74.6682 98.0167 62.6576 83.1504C50.6469 68.2841 57.8701 64.1686 74.6682 69.7119C91.4663 75.2553 115.152 86.09 117.587 86.006C120.023 85.9221 142.28 73.7435 142.28 73.7435Z" fill="#FFC727"/>
<path d="M169.913 104.904C169.913 104.904 128.926 124.978 115.571 121.87C107.256 119.938 93.4818 111.203 81.3032 101.209C81.2192 101.209 81.2192 101.125 81.1352 101.125C73.828 95.1612 67.1088 88.694 62.5733 83.1506C58.6258 78.3632 56.778 74.6676 56.61 72.0639C56.526 71.5599 56.61 71.056 56.694 70.636C57.6179 66.6045 64.3371 66.3525 74.5839 69.7961C91.382 75.3395 115.067 86.1743 117.503 86.0903C119.939 86.0063 142.196 73.7437 142.196 73.7437L169.913 104.904Z" fill="#FFC727"/>
<path d="M95.2461 101.796C95.75 101.628 96.338 101.628 96.8419 101.712C97.4299 101.964 97.8498 102.468 97.8498 103.14C97.8498 103.56 98.0178 103.98 98.4377 104.148C98.6057 104.232 98.8577 104.316 99.1097 104.4C99.3617 104.484 99.6136 104.484 99.8656 104.568C99.3616 104.736 98.7737 104.736 98.2698 104.652C97.6818 104.4 97.3459 103.812 97.3459 103.224C97.3459 102.804 97.0939 102.468 96.7579 102.216C96.5899 102.132 96.338 102.048 96.086 102.048C95.75 101.88 95.4981 101.88 95.2461 101.796Z" fill="white"/>
<path d="M59.2137 73.0717C58.7097 73.2397 58.1218 73.2397 57.6178 73.1557C57.1979 72.9877 56.778 72.5678 56.694 72.0638C56.61 71.5599 56.694 71.0559 56.7779 70.636C57.0299 70.888 57.1979 71.3079 57.1979 71.7279C57.1979 72.1478 57.3659 72.5678 57.7858 72.7357C57.9538 72.8197 58.2058 72.9037 58.4578 72.9877C58.6257 72.9877 58.8777 73.0717 59.2137 73.0717Z" fill="white"/>
<path d="M134.048 91.0456C134.552 90.8777 135.14 90.8777 135.644 90.9617C136.232 91.2136 136.652 91.7176 136.652 92.3895C136.652 92.8095 136.82 93.2294 137.239 93.3974C137.407 93.4814 137.659 93.5654 137.911 93.5654C138.163 93.6493 138.415 93.6494 138.667 93.7333C138.163 93.9013 137.575 93.9014 137.071 93.8174C136.484 93.5654 136.148 92.9775 136.148 92.3895C136.148 91.9696 135.896 91.6336 135.56 91.3816C135.392 91.2976 135.14 91.2136 134.888 91.2136C134.552 91.1296 134.3 91.1296 134.048 91.0456Z" fill="white"/>
<path d="M160.925 102.384C161.429 102.216 162.017 102.216 162.521 102.3C163.109 102.552 163.528 103.056 163.528 103.728C163.528 104.148 163.696 104.568 164.116 104.736C164.284 104.82 164.536 104.904 164.788 104.904C165.04 104.988 165.292 104.988 165.544 105.072C165.04 105.24 164.452 105.24 163.948 105.156C163.361 104.904 163.025 104.316 163.025 103.728C163.025 103.308 162.773 102.972 162.437 102.72C162.269 102.636 162.017 102.552 161.765 102.552C161.429 102.468 161.177 102.468 160.925 102.384Z" fill="white"/>
<path d="M108.685 109.775C109.189 109.607 109.776 109.607 110.28 109.691C110.868 109.943 111.288 110.447 111.288 111.119C111.288 111.539 111.456 111.959 111.876 112.127C112.044 112.211 112.296 112.295 112.548 112.295C112.8 112.379 113.052 112.379 113.304 112.463C112.8 112.631 112.212 112.631 111.708 112.547C111.12 112.295 110.784 111.707 110.784 111.119C110.784 110.699 110.532 110.363 110.196 110.111C110.028 110.027 109.776 109.943 109.524 109.943C109.189 109.859 108.937 109.859 108.685 109.775Z" fill="white"/>
<path d="M79.2881 72.4836C79.792 72.3156 80.38 72.3157 80.8839 72.3997C81.4719 72.6516 81.8918 73.1555 81.8918 73.8275C81.8918 74.2474 82.0598 74.6674 82.4797 74.8354C82.6477 74.9193 82.8997 75.0033 83.1517 75.0873C83.4036 75.1713 83.6556 75.1713 83.9076 75.2553C83.4036 75.4233 82.8157 75.4233 82.3118 75.3393C81.7238 75.0874 81.3878 74.4994 81.3878 73.9115C81.3878 73.4915 81.1359 73.0716 80.7999 72.9036C80.6319 72.8196 80.38 72.7356 80.128 72.7356C79.792 72.5676 79.5401 72.5676 79.2881 72.4836Z" fill="white"/>
<path d="M142.868 108.264C142.616 108.768 142.28 109.188 141.776 109.44C141.188 109.692 140.516 109.608 140.096 109.188C139.844 108.852 139.34 108.768 139.004 108.852C138.752 108.936 138.584 109.02 138.416 109.188C138.164 109.356 137.996 109.524 137.744 109.608C137.996 109.188 138.248 108.684 138.836 108.432C139.424 108.18 140.096 108.348 140.516 108.768C140.852 109.02 141.272 109.188 141.608 109.104C141.86 109.02 142.028 108.936 142.196 108.768C142.448 108.6 142.616 108.432 142.868 108.264Z" fill="white"/>
<path d="M110.616 95.4971C110.364 96.001 110.028 96.4209 109.524 96.6729C108.936 96.9249 108.264 96.8409 107.844 96.4209C107.592 96.085 107.088 96.001 106.752 96.085C106.5 96.169 106.332 96.253 106.164 96.4209C105.912 96.5889 105.744 96.7569 105.492 96.8409C105.744 96.4209 105.996 95.917 106.584 95.665C107.172 95.413 107.844 95.581 108.264 96.001C108.6 96.253 109.02 96.421 109.356 96.337C109.608 96.253 109.776 96.169 109.944 96.001C110.196 95.833 110.364 95.6651 110.616 95.4971Z" fill="white"/>
<path d="M126.322 102.552C126.07 103.056 125.734 103.476 125.23 103.728C124.642 103.98 123.97 103.896 123.55 103.392C123.298 103.056 122.794 102.972 122.458 103.056C122.206 103.14 122.038 103.224 121.87 103.392C121.618 103.56 121.45 103.728 121.198 103.812C121.45 103.392 121.702 102.888 122.29 102.636C122.878 102.384 123.55 102.552 123.97 102.972C124.306 103.224 124.726 103.392 125.062 103.308C125.314 103.224 125.482 103.14 125.65 102.972C125.902 102.804 126.07 102.636 126.322 102.552Z" fill="white"/>
<path d="M146.563 79.4548C146.311 79.9588 145.975 80.3787 145.471 80.6307C144.883 80.8827 144.211 80.7987 143.791 80.3788C143.539 80.0428 143.035 79.9588 142.699 80.0428C142.447 80.1268 142.279 80.2108 142.111 80.3788C141.859 80.5467 141.691 80.7147 141.439 80.7987C141.775 80.3788 141.943 79.8748 142.531 79.6228C143.119 79.3709 143.791 79.5389 144.211 79.9588C144.547 80.2108 144.967 80.3787 145.303 80.2947C145.555 80.2107 145.723 80.1268 145.975 79.9588C146.143 79.7068 146.395 79.6228 146.563 79.4548Z" fill="white"/>
<path d="M69.2087 77.8591C69.3767 78.3631 69.3767 78.951 69.2927 79.4549C69.0407 80.0429 68.5368 80.4628 67.8648 80.4628C67.4449 80.4628 67.0249 80.6308 66.857 81.0508C66.773 81.2187 66.689 81.4707 66.605 81.7227C66.521 81.9746 66.521 82.2266 66.437 82.4786C66.269 81.9747 66.269 81.3867 66.353 80.8828C66.605 80.2948 67.1929 79.9589 67.7808 79.9589C68.2008 79.9589 68.5367 79.7069 68.7887 79.3709C68.8727 79.203 68.9567 78.951 68.9567 78.699C69.0407 78.3631 69.1247 78.1111 69.2087 77.8591Z" fill="white"/>
<path d="M151.098 97.345C151.266 97.8489 151.266 98.4369 151.182 98.9408C150.93 99.5287 150.426 99.9487 149.755 99.9487C149.335 99.9487 148.915 100.117 148.747 100.537C148.663 100.705 148.579 100.957 148.579 101.209C148.495 101.461 148.495 101.712 148.411 101.964C148.243 101.461 148.243 100.873 148.327 100.369C148.579 99.7807 149.167 99.4447 149.755 99.4447C150.174 99.4447 150.51 99.1928 150.762 98.8568C150.846 98.6889 150.93 98.4368 150.93 98.1849C150.93 97.8489 151.014 97.5969 151.098 97.345Z" fill="white"/>
<path d="M128.086 114.227C128.254 114.731 128.254 115.319 128.17 115.823C127.918 116.411 127.414 116.831 126.742 116.831C126.322 116.831 125.902 116.999 125.734 117.419C125.65 117.587 125.566 117.839 125.566 118.091C125.482 118.343 125.482 118.595 125.398 118.847C125.23 118.343 125.23 117.755 125.314 117.251C125.566 116.663 126.154 116.327 126.742 116.327C127.162 116.327 127.498 116.075 127.75 115.739C127.834 115.571 127.918 115.319 127.918 115.067C128.002 114.731 128.002 114.479 128.086 114.227Z" fill="white"/>
<path d="M124.054 85.6702C124.222 86.1741 124.222 86.762 124.138 87.266C123.886 87.8539 123.382 88.2738 122.711 88.2738C122.291 88.2738 121.871 88.4418 121.703 88.8618C121.619 89.0298 121.535 89.2817 121.535 89.5337C121.451 89.7857 121.451 90.0377 121.367 90.2896C121.199 89.7857 121.199 89.1977 121.283 88.6938C121.535 88.1059 122.123 87.7699 122.711 87.7699C123.13 87.7699 123.466 87.5179 123.718 87.182C123.802 87.014 123.886 86.762 123.886 86.5101C123.97 86.2581 123.97 86.0061 124.054 85.6702Z" fill="white"/>
<path d="M97.5124 83.4026C97.6804 83.9065 97.6804 84.4945 97.5964 84.9984C97.3444 85.5864 96.8405 86.0063 96.1686 86.0063C95.7486 86.0063 95.3287 86.1743 95.1607 86.5942C95.0767 86.7622 94.9927 87.0142 94.9927 87.2661C94.9087 87.5181 94.9087 87.7701 94.8247 88.0221C94.6567 87.5181 94.6567 86.9302 94.7407 86.4262C94.9927 85.8383 95.5806 85.5023 96.1686 85.5023C96.5885 85.5023 97.0084 85.2504 97.1764 84.9144C97.2604 84.7464 97.3444 84.4945 97.3444 84.2425C97.4284 83.9905 97.4284 83.6546 97.5124 83.4026Z" fill="white"/>
<path d="M81.3028 101.292C81.2188 101.292 81.2188 101.209 81.1348 101.209C81.1348 101.125 81.1347 101.041 81.2187 100.957C81.2187 101.041 81.3028 101.124 81.3028 101.292Z" fill="white"/>
<path d="M78.6992 89.3657C78.9512 88.8617 79.2872 88.4418 79.7911 88.1898C80.3791 87.9379 81.051 88.0218 81.4709 88.5258C81.9749 89.0297 82.7308 89.0297 83.1508 88.5258C83.4027 88.3578 83.5707 88.1898 83.8227 88.1058C83.4867 88.5258 83.3187 89.0297 82.7308 89.2817C82.1429 89.5337 81.4709 89.3657 81.051 88.9457C80.715 88.6938 80.295 88.5258 79.9591 88.6098C79.7071 88.6938 79.5392 88.7777 79.3712 88.9457C79.1192 89.0297 78.9512 89.1977 78.6992 89.3657Z" fill="white"/>
<path d="M161.598 108.6C160.17 106.5 158.322 104.652 156.726 102.804C155.13 100.957 153.367 98.9408 151.603 97.009C148.243 93.3134 144.716 89.6178 141.188 86.0062C139.172 83.9065 136.988 81.8907 134.973 79.791C134.889 79.707 134.805 79.875 134.805 79.9589C138.164 83.8225 141.44 87.77 144.884 91.5496C148.327 95.3292 151.687 99.0248 155.214 102.636C156.222 103.644 157.23 104.652 158.322 105.66C159.33 106.752 160.422 107.76 161.514 108.768C161.514 108.768 161.598 108.684 161.598 108.6Z" fill="#263238"/>
<path opacity="0.1" d="M130.27 120.358C124.306 121.954 119.015 122.71 115.571 121.87C107.256 119.938 93.4818 111.203 81.3032 101.208C81.2192 101.208 81.2192 101.124 81.1352 101.124C73.828 95.1611 67.1088 88.6939 62.5733 83.1506C58.6258 78.3631 56.778 74.6675 56.61 72.0638C56.526 71.5599 56.61 71.0559 56.694 70.636C57.114 68.7882 58.7937 67.6963 61.4814 67.4443L130.27 120.358Z" fill="black"/>
<path d="M88.4426 120.694L94.9098 157.146H17.8906C20.0744 121.534 40.736 82.5626 49.891 71.4759C54.4264 65.9325 63.4974 64.7567 70.3006 69.2922C71.8964 70.384 90.7943 98.2688 92.3901 102.3C95.3298 110.279 88.4426 120.694 88.4426 120.694Z" fill="#FFC727"/>
<path d="M62.8252 93.4812C63.3291 93.3132 63.917 93.3132 64.421 93.3972C65.0089 93.6492 65.4289 94.1531 65.4289 94.825C65.4289 95.4969 65.9328 96.0849 66.6048 96.0849C66.8567 96.1689 67.1087 96.1689 67.3606 96.2529C66.8567 96.4208 66.2688 96.4209 65.7649 96.3369C65.1769 96.0849 64.8409 95.497 64.8409 94.909C64.8409 94.4891 64.589 94.0691 64.253 93.9011C64.0851 93.8171 63.833 93.7331 63.5811 93.7331C63.3291 93.5652 63.1612 93.4812 62.8252 93.4812Z" fill="white"/>
<path d="M67.8643 125.398C68.3682 125.23 68.9561 125.23 69.46 125.314C70.048 125.566 70.4679 126.07 70.4679 126.742C70.4679 127.161 70.6359 127.581 71.0559 127.749C71.2239 127.833 71.4758 127.917 71.7278 127.917C71.9798 128.001 72.2318 128.001 72.4837 128.085C71.9798 128.253 71.3918 128.253 70.8879 128.169C70.3 127.917 69.964 127.329 69.964 126.742C69.964 126.322 69.712 125.986 69.3761 125.734C69.2081 125.65 68.9561 125.566 68.7042 125.566C68.3682 125.482 68.1162 125.482 67.8643 125.398Z" fill="white"/>
<path d="M48.9668 104.064C49.4707 103.896 50.0586 103.896 50.5626 103.98C51.1505 104.232 51.5705 104.736 51.5705 105.408C51.5705 105.828 51.7385 106.248 52.1584 106.416C52.3264 106.584 52.5784 106.584 52.8303 106.668C53.0823 106.752 53.3343 106.752 53.5863 106.836C53.0823 107.004 52.4944 107.004 51.9904 106.92C51.4025 106.668 51.0666 106.08 51.0666 105.492C51.0666 105.072 50.8146 104.652 50.4786 104.484C50.3106 104.4 50.0587 104.316 49.8067 104.316C49.4707 104.232 49.2188 104.148 48.9668 104.064Z" fill="white"/>
<path d="M38.7188 136.82C39.2227 136.652 39.8106 136.652 40.3146 136.736C40.9025 136.988 41.3224 137.492 41.3224 138.164C41.3224 138.584 41.4904 139.004 41.9104 139.172C42.0784 139.256 42.3303 139.34 42.5823 139.34C42.8343 139.424 43.0863 139.424 43.3382 139.508C42.8343 139.676 42.2463 139.676 41.7424 139.592C41.1545 139.34 40.8185 138.752 40.8185 138.164C40.8185 137.744 40.5665 137.408 40.2306 137.156C40.0626 137.072 39.8106 136.988 39.5587 136.988C39.3067 136.904 38.9707 136.904 38.7188 136.82Z" fill="white"/>
<path d="M84.8311 152.695C85.335 152.527 85.9229 152.527 86.4268 152.611C87.0148 152.863 87.4347 153.366 87.4347 154.038C87.4347 154.458 87.6027 154.878 88.0227 155.046C88.1907 155.13 88.4426 155.214 88.6946 155.214C88.9466 155.298 89.1986 155.298 89.4505 155.382C88.9466 155.55 88.3586 155.55 87.8547 155.466C87.2668 155.214 86.9308 154.626 86.9308 154.038C86.9308 153.618 86.6788 153.283 86.3429 153.031C86.1749 152.947 85.9229 152.863 85.671 152.863C85.335 152.779 85.083 152.779 84.8311 152.695Z" fill="white"/>
<path d="M21.8381 141.104C21.3341 141.272 20.7462 141.272 20.2422 141.188C20.1582 141.104 19.9902 141.104 19.9062 141.02C19.9062 140.768 19.9903 140.6 20.0742 140.348C20.1582 140.516 20.3262 140.684 20.4942 140.768C20.6622 140.852 20.9141 140.936 21.1661 140.936C21.3341 141.02 21.5861 141.02 21.8381 141.104Z" fill="white"/>
<path d="M54.5938 70.384C55.0977 70.216 55.6856 70.2161 56.1895 70.3001C56.7775 70.552 57.1974 71.0559 57.1974 71.7278C57.1974 72.1478 57.3654 72.5678 57.7854 72.7357C57.9534 72.8197 58.2053 72.9037 58.4573 72.9877C58.7093 73.0717 58.9613 73.0717 59.2132 73.1557C58.7093 73.3237 58.1213 73.3237 57.6174 73.2397C57.0295 72.9877 56.6935 72.3998 56.6935 71.8119C56.6935 71.3919 56.4415 70.972 56.1056 70.804C55.9376 70.72 55.6856 70.636 55.4337 70.636C55.0977 70.468 54.8457 70.468 54.5938 70.384Z" fill="white"/>
<path d="M81.975 116.579C81.723 117.083 81.387 117.503 80.8831 117.754C80.2952 118.006 79.6232 117.922 79.2033 117.419C78.9513 117.083 78.4474 116.999 78.1114 117.083C77.8594 117.167 77.6915 117.251 77.5235 117.419C77.2715 117.586 77.1035 117.754 76.8516 117.838C77.1035 117.419 77.3555 116.915 77.9434 116.663C78.5314 116.411 79.2033 116.579 79.6232 116.999C79.9592 117.251 80.3791 117.419 80.7151 117.335C80.9671 117.251 81.1351 117.167 81.303 116.999C81.555 116.831 81.723 116.663 81.975 116.579Z" fill="white"/>
<path d="M32.5041 106.332C32.2521 106.836 31.9161 107.256 31.4122 107.508C30.9922 107.676 30.5723 107.676 30.1523 107.508C30.2363 107.34 30.3203 107.172 30.4043 106.92C30.6563 107.088 30.9922 107.088 31.2442 107.004C31.4962 106.92 31.6642 106.836 31.8322 106.668C32.0841 106.584 32.2521 106.416 32.5041 106.332Z" fill="white"/>
<path d="M32.5043 128.337C32.2523 128.841 31.9163 129.261 31.4124 129.513C30.8245 129.765 30.1525 129.681 29.7326 129.261C29.4806 128.925 28.9767 128.841 28.6407 128.925C28.3887 129.009 28.2208 129.093 28.0528 129.261C27.8008 129.429 27.6328 129.597 27.3809 129.681C27.6328 129.261 27.8848 128.757 28.4727 128.505C29.0607 128.253 29.7326 128.421 30.1525 128.841C30.4885 129.093 30.9084 129.261 31.2444 129.177C31.4964 129.093 31.6644 129.009 31.8323 128.841C32.0843 128.589 32.2523 128.421 32.5043 128.337Z" fill="white"/>
<path d="M53.8382 150.511C53.5863 151.015 53.2503 151.435 52.7464 151.687C52.1584 151.939 51.4865 151.855 51.0666 151.351C50.8146 151.015 50.3107 150.931 49.9747 151.015C49.7227 151.099 49.5547 151.183 49.3868 151.351C49.1348 151.519 48.9668 151.687 48.7148 151.771C49.0508 151.351 49.2188 150.847 49.8067 150.595C50.3946 150.343 51.0666 150.511 51.4865 150.931C51.8225 151.183 52.2424 151.351 52.5784 151.267C52.8304 151.183 52.9983 151.099 53.1663 150.931C53.4183 150.763 53.5863 150.679 53.8382 150.511Z" fill="white"/>
<path d="M55.434 123.55C55.182 124.054 54.846 124.474 54.3421 124.726C53.7541 124.978 53.0822 124.894 52.6623 124.39C52.1583 123.886 51.4024 123.886 50.8985 124.39C50.6465 124.558 50.4785 124.726 50.2266 124.81C50.4785 124.39 50.7305 123.886 51.3184 123.634C51.9064 123.382 52.5783 123.55 52.9982 123.97C53.3342 124.222 53.7541 124.39 54.0901 124.306C54.3421 124.222 54.5101 124.138 54.678 123.97C55.014 123.886 55.182 123.718 55.434 123.55Z" fill="white"/>
<path d="M73.5755 145.975C73.3236 146.479 72.9876 146.899 72.4837 147.151C71.8957 147.403 71.2238 147.319 70.8039 146.815C70.5519 146.479 70.048 146.395 69.712 146.479C69.46 146.563 69.292 146.647 69.1241 146.815C68.8721 146.983 68.7041 147.151 68.4521 147.235C68.7041 146.815 68.9561 146.311 69.544 146.059C70.1319 145.807 70.8039 145.975 71.2238 146.395C71.5598 146.647 71.9797 146.815 72.3157 146.731C72.5677 146.647 72.7356 146.563 72.9036 146.395C73.0716 146.227 73.3236 146.059 73.5755 145.975Z" fill="white"/>
<path d="M69.2087 77.8591C69.3767 78.3631 69.3767 78.951 69.2927 79.4549C69.0407 80.0429 68.5368 80.4628 67.8648 80.4628C67.4449 80.4628 67.0249 80.6308 66.857 81.0508C66.773 81.2187 66.689 81.4707 66.605 81.7227C66.521 81.9746 66.521 82.2266 66.437 82.4786C66.269 81.9747 66.269 81.3867 66.353 80.8828C66.605 80.2948 67.1929 79.9589 67.7808 79.9589C68.2008 79.9589 68.5367 79.7069 68.7887 79.3709C68.8727 79.203 68.9567 78.951 68.9567 78.699C69.0407 78.3631 69.1247 78.1111 69.2087 77.8591Z" fill="white"/>
<path d="M84.1589 134.805C84.3268 135.309 84.3269 135.897 84.2429 136.4C83.9909 136.988 83.487 137.408 82.815 137.408C82.3951 137.408 81.9751 137.576 81.8071 137.996C81.7232 138.164 81.6392 138.416 81.5552 138.668C81.4712 138.92 81.4712 139.172 81.3872 139.424C81.2192 138.92 81.2192 138.332 81.3032 137.828C81.5552 137.24 82.1431 136.904 82.7311 136.904C83.151 136.904 83.5709 136.652 83.7389 136.317C83.8229 136.149 83.9069 135.897 83.9069 135.645C84.0749 135.309 84.0749 135.057 84.1589 134.805Z" fill="white"/>
<path d="M81.2184 100.873C81.3864 101.377 81.3864 101.964 81.3025 102.468C81.0505 103.056 80.5465 103.476 79.8746 103.476C79.4547 103.476 79.0347 103.644 78.8667 104.064C78.7827 104.232 78.6987 104.484 78.6987 104.736C78.6147 104.988 78.6148 105.24 78.5308 105.492C78.3628 104.988 78.3628 104.4 78.4468 103.896C78.6987 103.308 79.2867 102.972 79.8746 102.972C80.2946 102.972 80.7145 102.72 80.8825 102.384C80.9665 102.216 81.0505 101.964 81.0505 101.712C81.1345 101.377 81.1344 101.125 81.2184 100.873Z" fill="white"/>
<path d="M65.7644 109.607C65.9323 110.111 65.9323 110.699 65.8483 111.203C65.5964 111.791 65.0924 112.211 64.4205 112.211C63.7486 112.211 63.2446 112.715 63.1606 113.387C63.0766 113.639 63.0767 113.891 62.9927 114.143C62.8247 113.639 62.8247 113.051 62.9087 112.547C63.1606 111.959 63.7486 111.623 64.3365 111.623C64.7565 111.623 65.1764 111.371 65.3444 111.035C65.4284 110.867 65.5124 110.615 65.5124 110.363C65.6804 110.111 65.6804 109.859 65.7644 109.607Z" fill="white"/>
<path d="M31.2448 146.647C31.4128 147.151 31.4128 147.739 31.3288 148.243C31.0768 148.831 30.5729 149.251 29.901 149.251C29.481 149.251 29.0611 149.419 28.8931 149.839C28.8091 150.007 28.7251 150.259 28.7251 150.511C28.6411 150.763 28.6411 151.015 28.5571 151.267C28.3892 150.763 28.3891 150.175 28.4731 149.671C28.7251 149.083 29.313 148.747 29.901 148.747C30.3209 148.747 30.7409 148.495 30.9089 148.159C30.9929 147.991 31.0769 147.739 31.0769 147.487C31.1609 147.067 31.2448 146.899 31.2448 146.647Z" fill="white"/>
<path d="M42.4148 93.2295C42.5828 93.7334 42.5827 94.3213 42.4987 94.8253C42.2468 95.4132 41.7428 95.8332 41.0709 95.8332C40.399 95.8332 39.811 96.3371 39.811 97.0091C39.7271 97.261 39.727 97.513 39.6431 97.7649C39.4751 97.261 39.4751 96.6731 39.5591 96.1692C39.8111 95.5812 40.399 95.2452 40.9869 95.2452C41.4069 95.2452 41.8268 94.9933 41.9948 94.6573C42.0788 94.4894 42.1628 94.2373 42.1628 93.9854C42.3307 93.7334 42.3308 93.4815 42.4148 93.2295Z" fill="white"/>
<path d="M42.4148 115.571C42.5828 116.075 42.5827 116.663 42.4987 117.167C42.2468 117.755 41.7428 118.175 41.0709 118.175C40.399 118.175 39.811 118.678 39.811 119.35C39.7271 119.602 39.727 119.854 39.6431 120.106C39.4751 119.602 39.4751 119.014 39.5591 118.51C39.8111 117.923 40.399 117.587 40.9869 117.587C41.4069 117.587 41.7429 117.335 41.9948 116.999C42.0788 116.831 42.1628 116.579 42.1628 116.327C42.3307 116.075 42.3308 115.823 42.4148 115.571Z" fill="white"/>
<path d="M60.3894 134.805C60.5573 135.309 60.5574 135.897 60.4734 136.4C60.2214 136.988 59.7174 137.408 59.0455 137.408C58.6256 137.408 58.2056 137.576 58.0376 137.996C57.9536 138.164 57.8696 138.416 57.8696 138.668C57.7856 138.92 57.7856 139.172 57.7016 139.424C57.5337 138.92 57.5337 138.332 57.6177 137.828C57.8696 137.24 58.4576 136.904 59.0455 136.904C59.4655 136.904 59.8014 136.652 60.0534 136.317C60.1374 136.149 60.2214 135.897 60.2214 135.645C60.2214 135.309 60.3054 135.057 60.3894 134.805Z" fill="white"/>
<path d="M78.6992 89.3657C78.9512 88.8617 79.2872 88.4418 79.7911 88.1898C80.3791 87.9379 81.051 88.0218 81.4709 88.5258C81.9749 89.0297 82.7308 89.0297 83.1508 88.5258C83.4027 88.3578 83.5707 88.1898 83.8227 88.1058C83.4867 88.5258 83.3187 89.0297 82.7308 89.2817C82.1429 89.5337 81.4709 89.3657 81.051 88.9457C80.715 88.6938 80.295 88.5258 79.9591 88.6098C79.7071 88.6938 79.5392 88.7777 79.3712 88.9457C79.1192 89.0297 78.9512 89.1977 78.6992 89.3657Z" fill="white"/>
<path d="M51.2344 87.0141C51.4863 86.5102 51.8223 86.0903 52.3262 85.8383C52.9142 85.5863 53.5861 85.6703 54.006 86.1742C54.258 86.5102 54.762 86.5942 55.0979 86.5102C55.3499 86.4262 55.5179 86.3422 55.6859 86.1742C55.9378 86.0062 56.1058 85.8383 56.3578 85.7543C56.1058 86.1742 55.8538 86.6782 55.2659 86.9301C54.678 87.1821 54.006 87.0141 53.5861 86.5942C53.2501 86.3422 52.8302 86.1742 52.4942 86.2582C52.2423 86.3422 52.0743 86.4262 51.9063 86.5942C51.6543 86.7621 51.4863 86.9301 51.2344 87.0141Z" fill="white"/>
<path d="M45.9415 74.9194C35.6947 83.4025 -1.0931 114.647 1.17464 125.818C3.44238 137.072 11.9254 146.143 18.4767 139.844C23.9361 134.637 47.8733 96.253 52.2408 85.9222C56.3563 76.1793 56.0204 66.6044 45.9415 74.9194Z" fill="#EB9481"/>
<path d="M0.167969 122.626C0.167969 130.437 5.37541 145.136 15.5383 142.364C22.1735 140.6 49.7224 95.1613 54.1738 84.4105C59.2973 71.9799 54.8458 67.0245 45.3548 74.4156C35.8639 81.8068 0.251959 111.539 0.167969 122.626Z" fill="#FFC727"/>
<path d="M28.8087 90.0376C28.3048 90.2056 27.7168 90.2056 27.2129 90.1216C27.1289 90.1216 27.0449 90.0376 26.9609 90.0376C27.1289 89.9537 27.2129 89.7857 27.3809 89.7017L27.4649 89.7856C27.6328 89.8696 27.8849 89.9536 28.1368 89.9536C28.3048 89.9536 28.5568 89.9537 28.8087 90.0376Z" fill="white"/>
<path d="M16.4619 116.495C16.9659 116.327 17.5538 116.327 18.0578 116.411C18.6457 116.663 19.0656 117.167 19.0656 117.838C19.0656 118.258 19.2336 118.678 19.6535 118.846C19.8215 118.93 20.0735 119.014 20.3255 119.014C20.5774 119.098 20.8294 119.098 21.0814 119.182C20.5774 119.35 19.9895 119.35 19.4855 119.266C18.8976 119.014 18.5617 118.426 18.5617 117.838C18.5617 117.419 18.3097 117.083 17.9737 116.831C17.8058 116.747 17.5538 116.663 17.3018 116.663C16.9659 116.579 16.7139 116.579 16.4619 116.495Z" fill="white"/>
<path d="M19.7375 139.004C19.5695 139.172 19.4015 139.34 19.3175 139.508C19.2336 139.172 19.0656 138.92 18.7296 138.668C18.5616 138.584 18.3097 138.5 18.0577 138.5C17.8057 138.416 17.5537 138.416 17.3018 138.332C17.8057 138.164 18.3937 138.164 18.8976 138.248C19.2336 138.416 19.5695 138.668 19.7375 139.004Z" fill="white"/>
<path d="M32.5043 106.332C32.2523 106.836 31.9163 107.256 31.4124 107.508C30.8245 107.76 30.1525 107.676 29.7326 107.172C29.4806 106.836 28.9767 106.752 28.6407 106.836C28.3887 106.92 28.2208 107.004 28.0528 107.172C27.8008 107.34 27.6328 107.508 27.3809 107.592C27.6328 107.172 27.8848 106.668 28.4727 106.416C29.0607 106.164 29.7326 106.332 30.1525 106.752C30.4885 107.004 30.9084 107.172 31.2444 107.088C31.4964 107.004 31.6644 106.92 31.8323 106.752C32.0843 106.584 32.2523 106.416 32.5043 106.332Z" fill="white"/>
<path d="M43.9274 76.5151C44.0954 77.0191 44.0954 77.607 44.0114 78.111C43.7594 78.6989 43.2555 79.1189 42.5836 79.1189C42.1636 79.1189 41.7437 79.2868 41.5757 79.7068C41.4917 79.8747 41.4077 80.1268 41.4077 80.3787C41.3237 80.6307 41.3237 80.8826 41.2397 81.1346C41.0718 80.6307 41.0718 80.0428 41.1558 79.5388C41.4077 78.9509 41.9956 78.6149 42.5836 78.6149C43.0035 78.6149 43.3395 78.3629 43.5915 78.027C43.6754 77.859 43.7594 77.607 43.7594 77.355C43.8434 77.0191 43.8434 76.7671 43.9274 76.5151Z" fill="white"/>
<path d="M42.4148 93.2295C42.5828 93.7334 42.5827 94.3213 42.4987 94.8253C42.2468 95.4132 41.7428 95.8332 41.0709 95.8332C40.399 95.8332 39.811 96.3371 39.811 97.0091C39.7271 97.261 39.727 97.513 39.6431 97.7649C39.4751 97.261 39.4751 96.6731 39.5591 96.1692C39.8111 95.5812 40.399 95.2452 40.9869 95.2452C41.4069 95.2452 41.8268 94.9933 41.9948 94.6573C42.0788 94.4894 42.1628 94.2373 42.1628 93.9854C42.3307 93.7334 42.3308 93.4815 42.4148 93.2295Z" fill="white"/>
<path d="M10.2468 129.009C10.4147 129.513 10.4148 130.101 10.3308 130.605C10.0788 131.193 9.57485 131.613 8.90293 131.613C8.48298 131.613 8.06301 131.781 7.89503 132.201C7.81104 132.369 7.72704 132.621 7.72704 132.873C7.64305 133.125 7.64309 133.377 7.5591 133.629C7.39112 133.125 7.39109 132.537 7.47508 132.033C7.72705 131.445 8.31499 131.109 8.90293 131.109C9.32288 131.109 9.65885 130.857 9.91082 130.521C9.99481 130.353 10.0788 130.101 10.0788 129.849C10.1628 129.513 10.1628 129.261 10.2468 129.009Z" fill="white"/>
<path d="M53.5861 85.8381C53.5021 86.0061 53.4181 86.1741 53.3341 86.3421C53.0822 86.1741 52.7462 86.1741 52.4942 86.2581C52.2423 86.3421 52.0743 86.426 51.9063 86.594C51.6543 86.762 51.4863 86.93 51.2344 87.014C51.5703 86.594 51.7383 86.0901 52.3262 85.8381C52.6622 85.6702 53.1661 85.6702 53.5861 85.8381Z" fill="white"/>
<path d="M47.623 100.201C46.6992 101.46 45.6913 102.72 44.6834 103.896L44.0115 104.82C44.5994 103.644 45.1874 102.468 45.7753 101.292C46.6992 99.6127 47.4551 97.8489 48.211 96.0851C48.295 96.0011 48.043 95.9171 48.043 96.0011C47.1191 97.4289 46.3632 98.9408 45.5233 100.453C44.6834 101.964 43.8435 103.392 43.0036 104.904C41.3238 107.844 39.644 110.783 37.8802 113.723C34.3526 119.518 30.573 125.23 26.7095 130.773C25.6176 132.369 24.5257 133.881 23.3499 135.477C22.174 137.072 21.0821 138.668 19.9902 140.18C19.9902 140.264 19.9902 140.348 20.0742 140.264C21.1661 138.92 22.3419 137.66 23.4338 136.316C24.5257 134.973 25.5336 133.629 26.5415 132.285C28.6412 129.597 30.573 126.826 32.5888 123.97C36.4524 118.259 40.0639 112.463 43.3396 106.416L43.5915 105.996C44.1795 105.408 44.6834 104.82 45.1874 104.148C46.1952 102.972 47.0352 101.628 47.8751 100.369C47.7911 100.201 47.623 100.117 47.623 100.201Z" fill="#263238"/>
<path d="M68.7883 69.2079C68.7883 69.2079 71.0561 78.4469 68.3684 79.7067C63.3289 82.0585 54.426 74.7513 53.838 73.4075C53.6701 73.0715 52.9141 64.2525 52.4102 57.3653C52.0742 52.9138 51.7383 49.3022 51.7383 49.3022L69.2923 56.2734L68.8723 68.368L68.7883 69.2079Z" fill="#EB9481"/>
<path d="M69.2083 56.1895L68.7883 68.2841C61.9851 67.1082 56.0218 63.0767 52.3262 57.2814C51.9902 52.8299 51.6543 49.2183 51.6543 49.2183L53.838 49.9742L69.2083 56.1895Z" fill="#263238"/>
<path d="M72.4841 42.4153C72.7361 47.3707 76.5156 51.1503 80.7991 50.9823C85.1666 50.7303 88.4423 46.5308 88.1903 41.5754C87.9383 36.6199 84.1588 32.8403 79.8752 33.0083C75.5077 33.3443 72.1481 37.5438 72.4841 42.4153Z" fill="#455A64"/>
<path d="M69.8793 42.919C70.2153 48.3784 74.3308 52.6619 79.1183 52.4099C83.9057 52.1579 87.6014 47.4545 87.3494 41.9951C87.0974 36.5358 82.8979 32.2523 78.1104 32.5042C73.323 32.7562 69.6274 37.3756 69.8793 42.919Z" fill="#C7C7C7"/>
<path d="M84.6612 38.8875C86.2571 60.0531 73.8265 63.4127 69.207 63.7486C65.0915 64.0846 50.8971 64.5886 47.0336 43.6749C43.254 22.7613 52.5769 15.2862 61.9838 14.1103C71.4748 12.9344 82.9814 17.6379 84.6612 38.8875Z" fill="#EB9481"/>
<path d="M78.028 35.1078C77.5241 35.0238 77.0201 34.9399 76.6002 34.8559C76.0962 34.8559 75.5923 34.6039 75.1724 34.2679C74.9204 34.016 74.9204 33.596 75.1724 33.3441C75.6763 32.8401 76.3482 32.6721 77.0201 32.8401C77.692 32.9241 78.364 33.2601 78.784 33.764C79.0359 34.1 78.9519 34.6039 78.616 34.8559C78.448 35.0239 78.28 35.1078 78.028 35.1078Z" fill="#263238"/>
<path d="M63.4973 36.1998C64.0012 36.1158 64.4212 35.9479 64.9251 35.7799C65.4291 35.6959 65.933 35.4439 66.2689 35.108C66.4369 34.856 66.4369 34.4361 66.185 34.1841C65.681 33.7641 64.9251 33.5961 64.3372 33.8481C63.6652 34.0161 63.0773 34.3521 62.6574 34.94C62.4054 35.2759 62.4894 35.7799 62.9093 36.0318C63.0773 36.1998 63.3293 36.2838 63.4973 36.1998Z" fill="#263238"/>
<path d="M67.1925 41.4072C67.1925 41.3232 67.1085 41.4912 67.1085 41.5752C67.2764 43.003 67.2765 44.6828 66.0166 45.2707V45.3547C67.5284 44.9348 67.6124 42.667 67.1925 41.4072Z" fill="#263238"/>
<path d="M65.7647 39.9795C63.4129 39.9795 63.6649 44.683 65.8486 44.683C68.0324 44.599 67.7804 39.9795 65.7647 39.9795Z" fill="#263238"/>
<path d="M64.925 40.3154C64.505 40.5674 64.1691 41.0713 63.6651 41.1553C63.1612 41.2393 62.6572 40.7354 62.2373 40.3154C62.2373 40.2314 62.1533 40.3154 62.1533 40.3994C62.1533 41.3233 62.5733 42.1632 63.4971 42.2472C64.421 42.3312 64.925 41.4913 65.177 40.5674C65.177 40.3994 65.009 40.1474 64.925 40.3154Z" fill="#263238"/>
<path d="M75.5911 40.3992C75.5911 40.3153 75.675 40.4833 75.675 40.4833C75.675 41.9111 75.927 43.5909 77.2709 44.0108V44.0948C75.759 44.0109 75.4231 41.8271 75.5911 40.3992Z" fill="#263238"/>
<path d="M76.8512 38.8876C79.203 38.6357 79.5389 43.2551 77.3552 43.5071C75.1714 43.7591 74.9194 39.0556 76.8512 38.8876Z" fill="#263238"/>
<path d="M77.8591 39.0556C78.2791 39.3075 78.615 39.7275 79.119 39.7275C79.5389 39.7275 79.9589 39.2236 80.2949 38.6356C80.2949 38.5516 80.3788 38.6356 80.3788 38.7196C80.4628 39.6435 80.2949 40.5674 79.455 40.8194C78.6151 41.0713 78.0271 40.3154 77.7752 39.4755C77.6072 39.2236 77.6912 38.9716 77.8591 39.0556Z" fill="#263238"/>
<path d="M68.5358 52.578C68.8717 52.914 69.2077 53.4179 69.7956 53.4179C70.2996 53.4179 70.8875 53.25 71.3915 53.082H71.4754V53.1659C71.0555 53.7539 70.3835 54.0899 69.6276 53.9219C69.0397 53.7539 68.5358 53.25 68.4518 52.662C68.3678 52.578 68.4518 52.494 68.5358 52.578Z" fill="#263238"/>
<path d="M74.2469 46.9507C74.2469 46.9507 74.6668 49.0505 74.7508 50.1423C74.7508 50.2263 74.4989 50.3103 74.1629 50.3103C72.3991 50.7302 70.5513 50.1423 69.3754 48.7985C69.2914 48.7145 69.4594 48.6305 69.5434 48.6305C70.8873 49.4704 72.4831 49.8064 74.0789 49.6384C74.1629 49.3864 73.239 46.0268 73.407 45.9428C74.1629 45.9428 75.0028 46.1108 75.7587 46.3628C75.0028 41.9113 73.4909 37.5437 72.819 33.0923C72.819 33.0083 72.903 32.9243 72.987 32.9243C73.071 32.9243 73.071 32.9243 73.155 33.0083C75.0028 37.4598 76.0107 42.5832 76.9346 47.2027C76.7666 47.7906 74.6668 47.1187 74.2469 46.9507Z" fill="#263238"/>
<path d="M73.4078 49.8062C72.9039 50.5621 72.3159 51.234 71.476 51.738C71.0561 51.99 70.5521 52.0739 70.0482 51.99C68.9563 51.822 68.7883 50.8981 68.9563 50.0582C69.0403 49.6382 69.1243 49.1343 69.2923 48.7144C70.4682 49.5543 71.98 49.8902 73.4078 49.8062Z" fill="#263238"/>
<path d="M71.476 51.7382C71.0561 51.9901 70.5521 52.0741 70.0482 51.9901C68.9563 51.8221 68.7883 50.8983 68.9563 50.0583C70.0482 50.0583 71.3081 50.6463 71.476 51.7382Z" fill="#F392B9"/>
<path d="M47.4541 41.8272C49.8058 41.8272 56.105 35.7799 56.8609 24.6092C56.8609 24.6092 55.5171 34.5201 54.6772 35.9479C53.8373 37.3757 58.2048 32.5883 58.9607 23.6013C58.9607 23.6013 63.7482 27.4649 67.9477 28.8087C72.1472 30.2366 74.7509 30.3205 75.0869 29.9846C75.4228 29.7326 69.2915 27.3809 67.6957 25.3651C67.6957 25.3651 78.6985 31.1604 83.9059 31.8324C84.4938 31.9164 83.1499 22.6774 75.3388 17.0501C67.5277 11.4227 57.2809 13.2705 53.6693 16.4621C53.6693 16.4621 49.6378 16.7981 44.9344 22.5934C40.1469 28.3888 44.9344 41.9112 47.4541 41.8272Z" fill="#263238"/>
<path d="M50.5629 45.103C50.5629 45.103 46.0274 38.3837 42.9198 40.0635C39.8961 41.6594 43.2557 51.3183 46.7833 52.6621C48.5471 53.502 50.7309 52.7461 51.5708 50.8983C51.5708 50.8143 51.5708 50.8143 51.6548 50.7303L50.5629 45.103Z" fill="#EB9481"/>
<path d="M44.0117 42.751C44.0117 42.835 44.0117 42.835 44.0117 42.751C44.0117 42.835 44.0117 42.835 44.0117 42.835C46.4474 43.8429 47.7913 46.1946 48.6312 48.5463C47.8753 47.6224 46.8674 47.1185 45.6915 47.9584C45.6075 48.0424 45.6916 48.1264 45.7755 48.1264C46.6994 47.8744 47.6233 48.2104 48.2112 48.8823C48.6312 49.4703 49.0512 50.1421 49.3871 50.8981C49.4711 51.15 49.8911 50.982 49.8071 50.7301V50.6461C49.8071 47.5385 47.4553 43.1709 44.0117 42.751Z" fill="#263238"/>
<path d="M48.8829 51.7381C48.8829 52.158 48.547 52.494 48.127 52.494C47.7071 52.494 47.3711 52.158 47.3711 51.7381C47.3711 51.3181 47.7071 50.9822 48.127 50.9822C48.547 50.9822 48.8829 51.3181 48.8829 51.7381Z" fill="white"/>
<path d="M46.8673 50.3942C46.8673 50.6462 46.6153 50.8142 46.3633 50.8142C46.1113 50.8142 45.9434 50.5622 45.9434 50.3102C45.9434 50.0582 46.1954 49.8063 46.4473 49.8903C46.6153 49.8903 46.8673 50.1423 46.8673 50.3942Z" fill="white"/>
<path d="M43.171 44.263L41.7432 44.5989C41.5752 44.5989 41.4072 44.5149 41.4072 44.347C41.4072 44.179 41.4912 44.011 41.6592 44.011L43.087 43.675C43.255 43.675 43.423 43.759 43.423 43.927C43.423 44.095 43.339 44.263 43.171 44.263Z" fill="#FFC727"/>
<path d="M43.004 43.3389L41.4922 43.4229C41.3242 43.4229 41.1562 43.3389 41.1562 43.1709C41.1562 43.0029 41.2402 42.835 41.4082 42.835L42.92 42.751C43.088 42.751 43.256 42.835 43.256 43.003C43.34 43.171 43.172 43.3389 43.004 43.3389Z" fill="#FFC727"/>
<path d="M46.1949 39.9794C46.1949 39.9794 44.4311 29.3126 46.9508 23.0133C49.8065 16.0421 63.4129 10.2468 74.0797 16.3781C74.0797 16.3781 57.8696 13.1864 51.2344 23.0973C48.4627 27.2968 49.8065 39.8954 49.8065 39.8954L46.1949 39.9794Z" fill="#C7C7C7"/>
<path d="M49.1701 55.2989C53.9653 54.7731 57.3649 49.8988 56.7632 44.412C56.1615 38.9251 51.7865 34.9033 46.9912 35.4292C42.1959 35.955 38.7964 40.8293 39.398 46.3162C39.9997 51.8031 44.3748 55.8248 49.1701 55.2989Z" fill="#C7C7C7"/>
<path d="M54.2581 44.4309C54.7621 49.3864 51.7384 53.7539 47.4549 54.1739C43.1714 54.6778 39.2239 51.0662 38.6359 46.1107C38.048 41.1553 41.1556 36.7878 45.4391 36.3679C49.7226 35.9479 53.7542 39.4755 54.2581 44.4309Z" fill="#455A64"/>
<path d="M65.7647 58.8773L58.7095 57.6174L51.9902 52.41L52.8301 51.3181L59.2134 56.3575L66.0166 57.5334L65.7647 58.8773Z" fill="#C7C7C7"/>
<path d="M64.8419 58.0375C65.0099 56.0217 70.4693 55.5178 70.1334 58.5414C69.7974 61.5651 64.674 60.0532 64.8419 58.0375Z" fill="#37474F"/>
<path d="M68.8724 68.8721L67.1086 78.7829L53.3342 69.544L50.8984 73.9115C50.8984 73.9115 65.8487 90.0377 65.6807 89.1978L67.8645 80.5467L74.4158 84.9142L71.1401 71.2238L68.8724 68.8721Z" fill="white"/>
<path d="M19.3174 138.836C13.0181 146.563 2.77125 137.744 1.59539 130.941C-1.1763 114.899 2.3513 85.4182 7.05476 71.4758C8.56659 66.9404 38.3832 75.5074 38.4672 80.6308C38.6352 85.8382 32.0839 123.214 19.3174 138.836Z" fill="#EB9481"/>
<path d="M6.29883 79.4548C6.29883 79.4548 6.71877 64.6725 12.0102 54.8456C15.6218 48.0424 25.1967 34.1 48.126 33.0921C53.5854 32.8401 61.4805 36.3677 52.7455 39.9793C46.5302 42.583 41.8268 42.331 38.4671 44.4308C38.4671 44.4308 48.042 50.1422 48.042 55.6016C48.042 60.389 47.7061 65.1765 47.1181 69.8799C46.1943 69.9639 45.2703 69.9639 44.4304 69.9639C44.4304 69.9639 44.2625 75.0873 38.5511 80.3787L6.29883 79.4548Z" fill="#EB9481"/>
<path d="M16.4619 48.9664C20.2415 47.5386 28.3046 44.5989 35.6957 44.515C43.9268 44.431 59.8009 46.4467 59.8009 52.494C59.8009 56.9455 53.6697 56.6936 53.6697 56.6936C53.6697 56.6936 60.053 58.9613 59.2131 62.9088C58.3731 66.6044 53.6697 66.1005 53.6697 66.1005C53.6697 66.1005 57.2813 68.1163 55.8534 71.5599C54.0896 75.5914 46.7825 70.72 41.4071 73.3237C40.3152 73.9956 16.4619 48.9664 16.4619 48.9664Z" fill="#EB9481"/>
<path d="M34.3515 53.2498C38.1311 52.4939 47.1181 52.9138 53.5854 56.6094C53.7534 56.6934 53.7534 56.8614 53.5854 56.7774C47.2861 54.8456 40.8188 53.6698 34.2676 53.3338C34.3516 53.3338 34.3515 53.2498 34.3515 53.2498Z" fill="#263238"/>
<path d="M34.6885 61.565C38.0481 61.229 47.287 62.1529 53.6703 66.1005C53.8383 66.1845 53.8383 66.3524 53.6703 66.2684C47.623 64.0007 41.2397 62.4889 34.6885 61.565C34.6885 61.649 34.6885 61.565 34.6885 61.565Z" fill="#263238"/>
<path d="M59.1288 49.8903C58.2049 48.8824 56.9451 48.5464 55.8532 47.8745C55.7692 47.8745 55.7692 47.9585 55.7692 47.9585C57.701 48.7984 59.8008 50.7302 59.4648 52.9979C59.0448 55.7696 55.7692 56.4415 53.4175 56.5255C53.3335 56.5255 53.3335 56.6935 53.5015 56.6935C56.0212 57.1135 59.6328 56.2735 60.1367 53.2499C60.3887 52.074 59.9687 50.8141 59.1288 49.8903Z" fill="#263238"/>
<path d="M53.1661 56.4417C53.0821 56.4417 53.082 56.5256 53.082 56.5256C56.6096 57.8695 58.7934 60.3892 58.9614 61.733C59.2133 63.1609 58.6254 64.5047 57.3656 65.2606C56.1057 65.9326 54.6779 66.1845 53.334 65.9326C53.2501 65.9326 53.166 66.1005 53.25 66.1005C54.9298 66.4365 58.1215 66.7725 59.2973 64.0848C60.3892 61.901 59.2974 58.2054 53.1661 56.4417Z" fill="#263238"/>
<path d="M55.7702 67.7802C55.0983 66.7723 54.0064 66.1004 52.8306 65.7644C52.7466 65.7644 52.7466 65.8484 52.8306 65.8484C54.8463 66.6883 56.6101 69.124 55.9382 71.3918C55.9382 71.5598 56.1062 71.5597 56.1902 71.4757C56.6101 70.2159 56.4422 68.8721 55.7702 67.7802Z" fill="#263238"/>
<path d="M56.8616 36.3679C56.6936 35.36 55.4338 34.3521 52.9141 33.8481C54.9298 34.4361 56.4416 35.528 56.4416 36.5358C56.4416 37.5437 55.6857 38.5516 53.502 39.7275C53.418 39.7275 53.502 39.8115 53.586 39.7275C54.9298 39.1395 57.1975 38.2156 56.8616 36.3679Z" fill="#263238"/>
<path d="M4.78739 73.8274L41.7432 86.258C41.7432 86.258 28.3047 127.665 21.9215 136.568C15.5382 145.471 6.71921 143.875 1.67978 132.789C-3.44363 121.87 4.78739 73.8274 4.78739 73.8274Z" fill="#FFC727"/>
<path d="M24.2734 87.2661C24.7774 87.0981 25.3653 87.0981 25.8693 87.1821C26.4572 87.4341 26.8772 87.9381 26.8772 88.61C26.8772 89.0299 27.0451 89.4499 27.4651 89.6179C27.633 89.7019 27.8851 89.7858 28.137 89.7858C28.389 89.8698 28.6409 89.8698 28.8929 89.9538C28.389 90.1218 27.8011 90.1218 27.2971 90.0378C26.7092 89.7859 26.3732 89.1979 26.3732 88.61C26.3732 88.19 26.1212 87.8541 25.7853 87.6021C25.6173 87.5181 25.3653 87.4341 25.1133 87.4341C24.7774 87.4341 24.5254 87.3501 24.2734 87.2661Z" fill="white"/>
<path d="M16.4619 116.495C16.9659 116.327 17.5538 116.327 18.0578 116.411C18.6457 116.663 19.0656 117.167 19.0656 117.838C19.0656 118.258 19.2336 118.678 19.6535 118.846C19.8215 118.93 20.0735 119.014 20.3255 119.014C20.5774 119.098 20.8294 119.098 21.0814 119.182C20.5774 119.35 19.9895 119.35 19.4855 119.266C18.8976 119.014 18.5617 118.426 18.5617 117.838C18.5617 117.419 18.3097 117.083 17.9737 116.831C17.8058 116.747 17.5538 116.663 17.3018 116.663C16.9659 116.579 16.7139 116.579 16.4619 116.495Z" fill="white"/>
<path d="M19.8215 139.088C19.6535 139.256 19.4855 139.424 19.3175 139.508C19.2336 139.172 19.0656 138.836 18.7296 138.584C18.5616 138.5 18.3097 138.416 18.0577 138.416C17.8057 138.332 17.5537 138.332 17.3018 138.248C17.8057 138.08 18.3937 138.08 18.8976 138.164C19.3175 138.416 19.6535 138.752 19.8215 139.088Z" fill="white"/>
<path d="M32.5043 106.332C32.2523 106.836 31.9163 107.256 31.4124 107.508C30.8245 107.76 30.1525 107.676 29.7326 107.172C29.4806 106.836 28.9767 106.752 28.6407 106.836C28.3887 106.92 28.2208 107.004 28.0528 107.172C27.8008 107.34 27.6328 107.508 27.3809 107.592C27.6328 107.172 27.8848 106.668 28.4727 106.416C29.0607 106.164 29.7326 106.332 30.1525 106.752C30.4885 107.004 30.9084 107.172 31.2444 107.088C31.4964 107.004 31.6644 106.92 31.8323 106.752C32.0843 106.584 32.2523 106.416 32.5043 106.332Z" fill="white"/>
<path d="M7.30699 108.936C7.05502 109.439 6.71907 109.859 6.21512 110.111C5.62719 110.363 4.95527 110.279 4.53531 109.775C4.28334 109.439 3.77941 109.355 3.44345 109.439C3.19148 109.523 3.02349 109.607 2.85551 109.775C2.60354 109.943 2.43556 110.111 2.18359 110.195C2.51956 109.775 2.68753 109.271 3.27546 109.02C3.86339 108.768 4.53531 108.936 4.95527 109.355C5.29123 109.607 5.71117 109.775 6.04713 109.691C6.2991 109.607 6.46709 109.523 6.63508 109.355C6.88705 109.271 7.13901 109.104 7.30699 108.936Z" fill="white"/>
<path d="M11.4222 81.7227C11.1703 82.2266 10.8343 82.6466 10.3304 82.8985C9.74242 83.1505 9.0705 83.0665 8.65055 82.6465C8.39858 82.3106 7.89465 82.2266 7.55868 82.3106C7.30671 82.3946 7.13872 82.4785 6.97074 82.6465C6.71877 82.8145 6.5508 82.9825 6.29883 83.0665C6.5508 82.6465 6.80276 82.1426 7.39069 81.8906C7.97863 81.6387 8.65055 81.8066 9.0705 82.2266C9.40646 82.4785 9.8264 82.6466 10.1624 82.5626C10.4143 82.4786 10.5823 82.3946 10.7503 82.2266C11.0023 82.0586 11.2542 81.8906 11.4222 81.7227Z" fill="white"/>
<path d="M15.1189 95.4971C15.2869 96.001 15.2868 96.5889 15.2028 97.0929C14.9509 97.6808 14.4469 98.1008 13.775 98.1008C13.355 98.1008 12.9351 98.2687 12.7671 98.6887C12.5991 98.8567 12.5991 99.1086 12.5151 99.3606C12.4312 99.6126 12.4311 99.8646 12.3472 100.117C12.1792 99.6126 12.1792 99.0246 12.2632 98.5207C12.5152 97.9328 13.1031 97.5968 13.691 97.5968C14.111 97.5968 14.5309 97.3448 14.6989 97.0089C14.7829 96.8409 14.8669 96.5889 14.8669 96.337C15.0348 96.001 15.0349 95.749 15.1189 95.4971Z" fill="white"/>
<path d="M10.2468 129.009C10.4147 129.513 10.4148 130.101 10.3308 130.605C10.0788 131.193 9.57485 131.613 8.90293 131.613C8.48298 131.613 8.06301 131.781 7.89503 132.201C7.81104 132.369 7.72704 132.621 7.72704 132.873C7.64305 133.125 7.64309 133.377 7.5591 133.629C7.39112 133.125 7.39109 132.537 7.47508 132.033C7.72705 131.445 8.31499 131.109 8.90293 131.109C9.32288 131.109 9.65885 130.857 9.91082 130.521C9.99481 130.353 10.0788 130.101 10.0788 129.849C10.1628 129.513 10.1628 129.261 10.2468 129.009Z" fill="white"/>
<path d="M37.5438 93.2293C35.528 92.3054 33.5123 91.4655 31.4125 90.7936C29.3127 89.9536 27.213 89.2817 25.0293 88.5258C20.9137 87.098 16.7142 85.8381 12.5987 84.5783C10.163 83.8224 7.72723 83.2344 5.29151 82.5625C5.20752 82.5625 5.20752 82.7305 5.29151 82.7305C9.49103 84.3263 13.6065 85.9221 17.806 87.35C22.0056 88.7778 26.0371 90.1216 30.2367 91.3815C31.4125 91.7175 32.5884 92.0534 33.8482 92.3894C35.0241 92.8093 36.2839 93.1453 37.5438 93.3973C37.6278 93.3973 37.6278 93.2293 37.5438 93.2293Z" fill="#263238"/>
<path d="M42.4158 86.4261C42.3318 86.0901 38.2162 84.9983 38.0483 84.9983C37.9643 84.9983 37.9643 85.0823 38.0483 85.0823C38.2162 85.1663 41.7438 86.5941 41.6598 86.5941C39.6441 92.0535 37.7963 97.5128 35.7805 102.972C33.7647 108.432 31.8329 113.891 29.9851 119.434C28.9773 122.542 28.9773 122.794 30.1531 120.19C31.245 117.503 32.4209 115.319 33.4288 112.631C35.4446 107.172 37.3763 101.712 39.3081 96.169C40.316 93.0614 42.4998 86.5101 42.4158 86.4261Z" fill="#263238"/>
<path d="M106.92 150.931H85.9225C81.7229 150.931 78.2793 147.487 78.2793 143.288C78.2793 139.088 81.7229 135.645 85.9225 135.645H106.92C111.12 135.645 114.563 139.088 114.563 143.288C114.563 147.487 111.12 150.931 106.92 150.931Z" fill="#455A64"/>
<path d="M90.4561 143.12C90.4561 142.868 90.5401 142.616 90.7081 142.448C90.7921 142.364 90.792 142.28 90.876 142.196L91.296 141.776C91.4639 141.692 91.632 141.524 91.7999 141.44C92.4719 141.02 93.1438 140.768 93.8997 140.6C95.6635 140.264 97.4273 140.264 99.1911 140.6C99.947 140.768 100.619 141.02 101.291 141.44C101.459 141.524 101.627 141.692 101.795 141.776L102.215 142.196C102.299 142.364 102.383 142.532 102.467 142.616C102.551 142.784 102.551 142.952 102.635 143.12H102.551H99.1911C99.1071 143.12 99.1071 143.12 99.0231 143.036C98.8551 142.7 98.4351 142.448 98.0152 142.364C97.0073 142.28 95.9994 142.28 94.9916 142.364C94.5716 142.364 94.2356 142.616 93.9837 142.952C93.9837 143.036 93.8997 143.036 93.8997 143.036L90.4561 143.12Z" fill="white"/>
<path d="M90.4561 145.051V143.875V143.792H93.8157C93.8157 143.875 93.8157 143.959 93.8157 144.043C93.8157 144.379 93.8157 144.715 93.8157 145.051C93.8157 145.303 93.7317 145.471 93.4797 145.471H93.3957H90.876C90.708 145.471 90.4561 145.387 90.4561 145.135V145.051Z" fill="white"/>
<path d="M99.1916 145.051C99.1916 144.631 99.1916 144.211 99.1916 143.792H102.551V143.875V145.051C102.551 145.219 102.467 145.471 102.215 145.471H102.131H99.5276C99.3596 145.471 99.1916 145.387 99.1916 145.051C99.1076 145.135 99.1916 145.051 99.1916 145.051Z" fill="white"/>
<path d="M98.6047 21.6695C97.2608 19.7377 96.589 17.386 96.589 15.1183C96.589 6.80322 105.744 0 117.083 0C128.421 0 137.576 6.80322 137.576 15.1183C137.576 23.4333 128.421 30.2365 117.083 30.2365C112.043 30.3205 107.172 28.8927 102.972 26.037L95.917 27.8008L98.6047 21.6695Z" fill="white"/>
<path d="M124.475 15.0343C124.475 16.2102 125.399 17.1341 126.574 17.1341C127.75 17.1341 128.674 16.2102 128.674 15.0343C128.674 13.8585 127.75 12.9346 126.574 12.9346C125.399 12.9346 124.475 13.8585 124.475 15.0343Z" fill="#263238"/>
<path d="M117.082 17.1341C118.242 17.1341 119.182 16.194 119.182 15.0343C119.182 13.8747 118.242 12.9346 117.082 12.9346C115.923 12.9346 114.982 13.8747 114.982 15.0343C114.982 16.194 115.923 17.1341 117.082 17.1341Z" fill="#263238"/>
<path d="M105.492 15.0343C105.492 16.2102 106.416 17.1341 107.592 17.1341C108.768 17.1341 109.692 16.2102 109.692 15.0343C109.692 13.8585 108.768 12.9346 107.592 12.9346C106.416 12.9346 105.492 13.8585 105.492 15.0343Z" fill="#263238"/>
</svg>
