<svg width="18" height="19" viewBox="0 0 18 19" fill="none" xmlns="http://www.w3.org/2000/svg">
<g clip-path="url(#clip0)">
<path fill-rule="evenodd" clip-rule="evenodd" d="M3.75 4.34448C3.33579 4.34448 3 4.68027 3 5.09448V15.5945C3 16.0087 3.33579 16.3445 3.75 16.3445H14.25C14.6642 16.3445 15 16.0087 15 15.5945V5.09448C15 4.68027 14.6642 4.34448 14.25 4.34448H3.75ZM1.5 5.09448C1.5 3.85184 2.50736 2.84448 3.75 2.84448H14.25C15.4926 2.84448 16.5 3.85184 16.5 5.09448V15.5945C16.5 16.8371 15.4926 17.8445 14.25 17.8445H3.75C2.50736 17.8445 1.5 16.8371 1.5 15.5945V5.09448Z" fill="#2E2D2D" fill-opacity="0.5"/>
<path fill-rule="evenodd" clip-rule="evenodd" d="M12 1.34448C12.4142 1.34448 12.75 1.68027 12.75 2.09448V5.09448C12.75 5.5087 12.4142 5.84448 12 5.84448C11.5858 5.84448 11.25 5.5087 11.25 5.09448V2.09448C11.25 1.68027 11.5858 1.34448 12 1.34448Z" fill="#2E2D2D" fill-opacity="0.5"/>
<path fill-rule="evenodd" clip-rule="evenodd" d="M6 1.34448C6.41421 1.34448 6.75 1.68027 6.75 2.09448V5.09448C6.75 5.5087 6.41421 5.84448 6 5.84448C5.58579 5.84448 5.25 5.5087 5.25 5.09448V2.09448C5.25 1.68027 5.58579 1.34448 6 1.34448Z" fill="#2E2D2D" fill-opacity="0.5"/>
<path fill-rule="evenodd" clip-rule="evenodd" d="M1.5 8.09448C1.5 7.68027 1.83579 7.34448 2.25 7.34448H15.75C16.1642 7.34448 16.5 7.68027 16.5 8.09448C16.5 8.5087 16.1642 8.84448 15.75 8.84448H2.25C1.83579 8.84448 1.5 8.5087 1.5 8.09448Z" fill="#2E2D2D" fill-opacity="0.5"/>
</g>
<defs>
<clipPath id="clip0">
<rect width="18" height="18" fill="white" transform="translate(0 0.833496)"/>
</clipPath>
</defs>
</svg>
