<svg width="180" height="150" viewBox="0 0 180 150" fill="none" xmlns="http://www.w3.org/2000/svg">
<path d="M54.9989 72.961C60.158 95.5673 70.9452 122.77 75.5415 127.179C81.3573 132.713 119.816 142.937 121.692 143.219C126.382 143.688 135.95 109.544 130.885 108.793C123.193 107.668 95.1462 106.167 93.5516 104.479C91.8631 102.79 79.9502 87.7817 67.8497 70.8973C59.5013 59.1721 51.8096 58.8907 54.9989 72.961Z" fill="#AD6359"/>
<path d="M117.939 141.343C118.502 141.624 126.569 145.658 131.541 147.065C135.293 148.097 145.986 150.911 147.581 146.971C148.707 144.251 142.516 141.906 138.201 140.123C135.949 139.185 133.135 136.84 133.792 135.34C135.011 132.807 140.827 135.34 144.579 137.591C151.99 141.906 161.839 149.691 166.341 145.845C168.03 144.438 166.06 141.812 163.152 139.279C167.842 142.281 172.908 144.626 174.877 143.125C176.003 142.281 176.097 141.061 175.44 139.748C176.941 140.217 178.16 140.123 179.099 139.185C180.599 137.591 179.849 135.246 178.16 132.807C178.723 132.713 179.286 132.432 179.568 131.869C182.851 126.897 166.529 112.733 160.901 111.42C144.392 107.48 126.944 108.231 126.944 108.231C120.66 113.39 117.939 141.343 117.939 141.343Z" fill="#AD6359"/>
<path d="M142.235 126.053C146.175 126.71 149.927 128.117 153.304 130.274C157.525 133.088 160.245 136.278 163.81 139.561C163.81 139.561 163.81 139.654 163.81 139.748H163.716C162.028 138.154 155.086 132.338 153.304 131.025C150.021 128.586 146.269 126.897 142.235 126.053C142.235 126.147 142.235 126.053 142.235 126.053Z" fill="#263238"/>
<path d="M145.33 119.112C149.645 120.331 154.147 121.457 158.181 123.52C162.589 125.772 166.06 129.43 169.437 132.994C171.501 135.152 173.47 137.309 175.44 139.467C175.534 139.561 175.346 139.748 175.346 139.654C171.876 135.996 168.311 132.432 164.747 129.055C161.37 125.865 157.43 123.333 153.022 121.644C150.395 120.706 147.862 119.956 145.33 119.112C145.236 119.112 145.33 119.112 145.33 119.112Z" fill="#263238"/>
<path d="M150.02 112.921C154.241 113.765 157.9 114.515 161.652 116.767C166.623 119.768 171.407 124.834 173.096 126.616C174.972 128.586 176.754 130.649 178.442 132.713C178.536 132.807 178.348 132.901 178.255 132.807C174.221 128.304 169.906 123.989 165.404 120.05C163.246 118.174 160.807 116.579 158.181 115.36C155.555 114.328 152.74 113.577 150.02 112.921C150.02 113.015 149.926 112.921 150.02 112.921Z" fill="#263238"/>
<path d="M124.506 106.824L112.687 144.345C112.687 144.345 80.7003 135.246 74.7908 128.867C68.975 122.582 58.094 89.9393 54.9985 74.1805C51.8092 58.4217 59.7824 58.7969 67.1928 68.74C74.5094 78.683 92.8008 102.884 93.8326 103.353C94.8644 103.822 124.506 106.824 124.506 106.824Z" fill="#FFC727"/>
<path opacity="0.1" d="M124.506 106.824L112.687 144.345C112.687 144.345 80.7003 135.246 74.7908 128.867C68.975 122.582 58.094 89.9393 54.9985 74.1805C51.8092 58.4217 59.7824 58.7969 67.1928 68.74C74.5094 78.683 92.8008 102.884 93.8326 103.353C94.8644 103.822 124.506 106.824 124.506 106.824Z" fill="black"/>
<path d="M109.592 127.648C110.999 123.239 112.499 118.83 113.719 114.328C114.469 111.795 115.22 109.262 115.876 106.73C115.876 106.636 115.782 106.542 115.689 106.636C114.094 111.045 112.499 115.453 111.092 119.862C109.685 124.271 108.278 128.773 106.871 133.182C106.121 135.715 105.37 138.247 104.808 140.874C104.808 140.968 104.901 140.968 104.901 140.874C106.684 136.559 108.091 132.15 109.592 127.648Z" fill="#263238"/>
<path d="M96.4595 139.185L95.0525 138.716C92.4261 137.778 89.7058 136.746 87.0793 135.715C86.7041 135.621 86.4227 135.433 86.1413 135.339C85.6723 135.152 85.1095 134.87 84.6405 134.683L83.8901 134.401L83.6087 134.308L82.8582 133.932C81.8264 133.463 80.8884 132.994 79.9504 132.525L79.3876 132.15C77.9806 131.4 76.6673 130.556 75.4479 129.524C75.3541 129.43 75.2603 129.336 75.1665 129.242C75.0727 129.148 74.9788 129.055 74.885 128.961C69.0693 122.676 58.1883 90.033 55.0928 74.2742L54.999 73.7114V73.6176C54.8114 72.3982 54.6238 70.8973 54.4362 69.3027C53.9672 61.4233 57.7193 60.2039 62.3156 63.5807C73.6656 88.1569 91.2066 128.773 96.4595 139.185Z" fill="#263238"/>
<path d="M79.8563 145.47L10.0674 145.845C10.1612 144.345 20.1042 100.351 27.9836 84.2173C38.1142 63.3932 43.3672 61.7048 46.4626 60.6729C50.4961 59.2659 57.5313 59.9225 59.2198 60.7667C61.0958 61.7048 67.1929 72.3044 69.4442 80.09C73.7591 95.6612 80.8881 144.532 79.8563 145.47Z" fill="#EBEBEB"/>
<path d="M42.898 62.2676C42.898 62.2676 51.8092 95.0984 52.1844 97.3496C52.8411 100.539 57.2497 145.752 57.2497 145.752L8.56641 145.939C8.56641 145.939 19.166 104.103 27.0454 85.7181C35.769 65.5507 42.898 62.2676 42.898 62.2676Z" fill="#FFC727"/>
<g opacity="0.1">
<path opacity="0.1" d="M42.898 62.2676C42.898 62.2676 51.8092 95.0984 52.1844 97.3496C52.8411 100.539 57.2497 145.752 57.2497 145.752L8.56641 145.939C8.56641 145.939 19.166 104.103 27.0454 85.7181C35.769 65.5507 42.898 62.2676 42.898 62.2676Z" fill="black"/>
</g>
<path d="M59.876 61.142C60.1574 62.1738 68.3182 88.9074 68.881 95.5674C69.5376 102.978 75.0719 145.845 75.0719 145.845H82.201C82.201 145.845 71.8827 84.2173 69.0686 77.745C63.3467 64.4251 59.876 61.142 59.876 61.142Z" fill="#FFC727"/>
<path opacity="0.1" d="M59.876 61.142C60.1574 62.1738 68.3182 88.9074 68.881 95.5674C69.5376 102.978 75.0719 145.845 75.0719 145.845H82.201C82.201 145.845 71.8827 84.2173 69.0686 77.745C63.3467 64.4251 59.876 61.142 59.876 61.142Z" fill="black"/>
<path d="M33.7052 69.9593C21.9799 82.435 -6.44216 129.993 2.65666 138.623C11.6617 147.252 61.7521 135.621 75.7286 128.961C79.9497 126.991 64.0033 100.914 59.1256 100.257C54.9983 99.7884 34.0804 109.356 33.5176 108.137C32.861 106.73 36.1441 96.693 41.2094 78.5891C46.9313 57.5774 38.8643 64.425 33.7052 69.9593Z" fill="#AD6359"/>
<path d="M79.8564 91.8153C89.9871 90.4082 92.8949 91.6277 100.774 85.8119C106.027 82.0599 110.624 83.7483 107.622 89.7516C102.744 99.6009 89.9871 104.103 85.1093 104.479L79.8564 91.8153Z" fill="#AD6359"/>
<path d="M52.8408 101.571C52.8408 101.571 64.2847 95.1922 74.9782 92.6595C82.3886 90.8773 98.8977 88.8136 114.657 105.041C118.409 108.887 121.035 117.048 112.593 113.015C106.59 110.107 103.682 106.448 99.9295 105.417C99.9295 105.417 101.993 116.204 97.9597 119.768C94.489 122.958 90.7369 125.772 86.7972 128.398C86.1406 127.835 85.5778 127.179 85.015 126.428C85.015 126.428 80.9815 129.43 73.2897 128.68L52.8408 101.571Z" fill="#AD6359"/>
<path d="M82.295 92.0967C85.8595 93.9727 93.2699 98.0062 98.1476 103.353C103.588 109.356 112.499 122.395 108.091 126.428C104.808 129.336 100.962 124.646 100.962 124.646C100.962 124.646 103.494 130.837 99.9298 132.807C96.7406 134.589 93.9265 130.837 93.9265 130.837C93.9265 130.837 94.8645 134.871 91.3938 135.996C87.2666 137.403 86.0471 128.773 80.6066 126.522C79.481 126.053 82.295 92.0967 82.295 92.0967Z" fill="#AD6359"/>
<path d="M90.8308 108.137C93.8324 110.388 99.4606 117.329 100.961 124.552C100.961 124.74 100.868 124.834 100.868 124.646C98.1473 118.736 94.7704 113.202 90.8308 108.137C90.737 108.137 90.8308 108.137 90.8308 108.137Z" fill="#263238"/>
<path d="M84.9216 113.765C87.3604 116.016 92.8009 123.427 94.1142 130.743C94.1142 130.931 94.0204 131.025 94.0204 130.837C91.5815 124.927 88.5799 119.206 84.9216 113.765C84.8278 113.859 84.9216 113.765 84.9216 113.765Z" fill="#263238"/>
<path d="M99.9297 105.323C103.213 106.261 105.37 107.949 108.184 109.825C109.591 110.763 110.998 111.701 112.405 112.546C113.719 113.296 115.782 114.328 117.189 113.202C118.034 112.546 117.94 111.42 117.752 110.482C117.377 109.169 116.72 107.855 115.97 106.73C115.97 106.636 115.97 106.636 116.064 106.636C116.814 107.668 117.471 108.793 118.034 110.013C118.409 110.857 118.503 111.701 118.315 112.639C117.846 114.422 115.689 114.703 114.188 114.234C113.25 113.859 112.405 113.484 111.561 113.015C110.717 112.546 109.967 112.077 109.216 111.514C107.622 110.482 106.121 109.262 104.62 108.231C103.119 107.199 101.524 106.261 99.9297 105.51C99.8359 105.51 99.8359 105.417 99.9297 105.323C99.8359 105.417 99.9297 105.323 99.9297 105.323Z" fill="#263238"/>
<path d="M106.871 117.048C106.027 115.172 101.337 107.293 99.8359 105.51V105.417C99.8359 105.417 99.8359 105.417 99.9297 105.417C102.556 107.855 106.683 114.328 107.622 116.485C108.56 118.643 109.685 121.175 109.685 123.427C109.685 126.897 107.434 127.554 106.59 127.742C105.558 127.929 104.526 127.742 103.588 127.273C102.556 126.616 101.618 125.772 100.868 124.74C100.868 124.646 100.868 124.646 100.962 124.646C102.181 126.053 104.151 127.366 106.027 127.085C106.871 126.991 107.621 126.616 108.184 125.959C108.653 125.115 108.935 124.177 108.747 123.145C108.466 120.988 107.809 118.924 106.871 117.048Z" fill="#263238"/>
<path d="M52.841 101.571L68.8812 135.246C68.8812 135.246 6.22131 149.316 0.780781 138.435C-4.65975 127.554 19.7289 84.8739 30.7037 72.3982C43.4608 57.9527 45.0554 62.9242 42.2414 75.6813C39.2397 89.095 33.6116 108.418 33.6116 108.418L52.841 101.571Z" fill="#FFC727"/>
<path opacity="0.1" d="M52.841 101.571L68.8812 135.246C68.8812 135.246 6.22131 149.316 0.780781 138.435C-4.65975 127.554 19.7289 84.8739 30.7037 72.3982C43.4608 57.9527 45.0554 62.9242 42.2414 75.6813C39.2397 89.095 33.6116 108.418 33.6116 108.418L52.841 101.571Z" fill="black"/>
<path d="M14.5693 117.423C20.3851 113.39 26.6699 110.294 33.4236 108.137C35.2997 107.574 37.2695 107.011 39.1455 106.448C39.2393 106.448 39.2393 106.542 39.1455 106.542C35.7687 107.668 32.4856 108.887 29.2963 110.388C26.107 111.795 22.9178 113.296 19.8223 114.797C18.0401 115.641 16.3516 116.579 14.5693 117.517V117.423Z" fill="#263238"/>
<path d="M52.6533 101.477C52.3719 101.571 35.2061 107.199 34.6432 107.48C34.737 107.199 37.8325 98.0999 38.2077 96.7867C38.2077 96.6929 38.3015 96.5053 38.3015 96.4115C38.5829 95.8487 38.9581 95.1921 39.2395 94.6292C39.6147 93.8788 39.9899 93.0346 40.3652 92.2842L52.6533 101.477ZM40.3652 92.2842L39.1457 94.5354C38.9581 94.9106 38.7706 95.2859 38.583 95.5673C38.8644 94.6292 39.1457 93.6912 39.4271 92.7532C39.8961 91.2524 40.2714 89.7515 40.7404 88.1569C40.7404 88.0631 40.6466 88.0631 40.6466 88.1569C39.7085 90.7834 38.7705 93.4098 37.8325 96.1301C36.8945 98.7565 33.4238 108.512 33.4238 108.512C33.4238 108.512 52.2781 101.852 52.6533 101.664C52.7471 101.664 52.7471 101.571 52.7471 101.477C52.7471 101.383 52.6532 101.383 52.5594 101.383L40.3652 92.2842Z" fill="#263238"/>
<path d="M53.8731 123.52C52.0909 119.768 50.4025 116.016 48.4326 112.264C47.307 110.2 46.2752 108.043 45.1495 105.979C45.1495 105.886 44.9619 105.979 44.9619 106.073C46.5566 109.919 48.245 113.765 50.0272 117.517C51.8094 121.269 53.5917 125.021 55.3739 128.773C56.4058 130.931 57.5314 132.994 58.657 135.058H58.7509C57.3438 131.025 55.6554 127.272 53.8731 123.52Z" fill="#263238"/>
<path d="M69.7257 135.808C69.0691 134.777 68.3187 133.276 67.6621 132.244C67.4745 131.963 67.2869 132.056 67.3807 132.338C67.8497 133.276 68.2249 134.308 68.6939 135.339C67.8497 135.527 66.9117 135.715 66.0675 135.808C65.0356 135.996 64.0038 136.278 63.0658 136.465C61.0959 136.84 59.0323 137.216 57.0624 137.685C53.0289 138.435 48.9954 139.092 44.8681 139.654C36.7073 140.874 28.4528 141.624 20.1982 141.999C17.8531 142.093 15.6019 142.093 13.2568 142.093C11.0056 142.093 8.66047 141.999 6.40922 141.718C6.31542 141.718 6.31542 141.812 6.40922 141.812C8.37907 142.187 10.349 142.468 12.3188 142.562C14.3825 142.656 16.5399 142.75 18.6035 142.656C22.7308 142.562 26.952 142.375 31.0792 141.999C39.3338 141.249 47.4946 140.123 55.6554 138.716C57.9066 138.341 60.2517 137.872 62.503 137.403C63.6286 137.216 64.7542 136.934 65.9736 136.653C67.0993 136.465 69.8195 135.996 69.7257 135.808Z" fill="#263238"/>
<path d="M59.876 73.43C55.7487 74.5556 48.3383 68.4585 45.3366 63.3931C45.149 63.0179 45.5242 59.2659 45.8056 54.6695C45.9932 51.8555 46.0871 48.76 45.9933 45.946C45.9933 45.3831 64.0033 49.6042 64.0033 49.6042C64.0033 49.6042 62.5024 55.6076 62.69 60.5791C62.69 60.9543 62.7839 61.3295 62.8777 61.7985C62.8777 61.8923 62.8777 61.8923 62.8777 61.9861C63.2529 64.1436 63.9095 72.3044 59.876 73.43Z" fill="#AD6359"/>
<path d="M47.0254 46.0398C48.0572 50.8237 51.4341 62.3614 61.0019 62.1738C61.6585 62.1738 62.2213 62.08 62.7842 61.9862C62.7842 61.8924 62.7842 61.8924 62.7842 61.7986C62.6903 61.4234 62.5965 61.0482 62.5965 60.5791C62.4089 55.6076 63.9098 49.6043 63.9098 49.6043C63.9098 49.6043 50.9651 46.5088 47.0254 46.0398Z" fill="#263238"/>
<path d="M66.0672 37.41C65.8796 41.8187 68.7874 45.477 72.6333 45.6646C76.4792 45.8522 79.7623 42.4753 79.9499 38.0666C80.1375 33.6579 77.2296 29.9996 73.3837 29.812C69.5379 29.6244 66.2548 33.0013 66.0672 37.41Z" fill="#455A64"/>
<path d="M79.1817 38.2784C79.4017 33.4135 76.1398 29.3142 71.896 29.1222C67.6522 28.9302 64.0335 32.7184 63.8135 37.5832C63.5934 42.4481 66.8553 46.5475 71.0991 46.7394C75.3429 46.9314 78.9616 43.1432 79.1817 38.2784Z" fill="#C7C7C7"/>
<path d="M48.244 23.2459C45.1485 29.0616 44.9609 47.6345 48.6192 52.5122C53.8721 59.5473 64.2841 62.1738 70.6627 55.42C76.8536 48.8539 76.7599 24.6529 72.445 20.0566C66.3478 13.3028 52.8403 14.6161 48.244 23.2459Z" fill="#AD6359"/>
<path d="M63.7215 37.6914C63.7215 37.5976 63.6276 37.7852 63.6276 37.7852C63.7214 39.0047 63.5338 40.5055 62.4082 40.8807V40.9745C63.8152 40.7869 64.0029 38.8171 63.7215 37.6914Z" fill="#263238"/>
<path d="M62.5964 36.3782C60.5328 36.2844 60.5328 40.3179 62.4088 40.4117C64.2849 40.5055 64.2849 36.472 62.5964 36.3782Z" fill="#263238"/>
<path d="M70.7569 37.7852C70.7569 37.6914 70.8507 37.879 70.8507 37.879C70.7569 39.0984 70.9445 40.5992 72.0701 40.9744V41.0683C70.6631 40.8806 70.4755 39.0046 70.7569 37.7852Z" fill="#263238"/>
<path d="M71.8833 36.5658C73.8531 36.472 73.9469 40.5055 72.1647 40.5993C70.2886 40.6931 70.1948 36.6596 71.8833 36.5658Z" fill="#263238"/>
<path d="M60.8143 33.1889C61.3771 33.1889 61.9399 33.0013 62.5027 32.9075C63.0656 32.9075 63.6283 32.7199 64.0973 32.3447C64.3787 32.0633 64.3788 31.5943 64.1912 31.3129C63.6284 30.75 62.8779 30.5624 62.1275 30.75C61.3771 30.8438 60.6267 31.1252 60.0639 31.6881C59.7824 32.0633 59.7825 32.6261 60.1577 33.0013C60.3453 33.0951 60.5329 33.1889 60.8143 33.1889Z" fill="#263238"/>
<path d="M73.7595 33.5641C73.1966 33.4703 72.7276 33.2827 72.1648 33.0951C71.602 33.0013 71.0391 32.7199 70.6639 32.3447C70.4763 32.0633 70.4764 31.5942 70.7578 31.3128C71.3206 30.8438 72.1648 30.6562 72.9152 30.9376C73.6656 31.1252 74.3222 31.5004 74.7913 32.1571C75.0727 32.6261 74.8851 33.1889 74.5099 33.3765C74.2285 33.5641 73.9471 33.6579 73.7595 33.5641Z" fill="#263238"/>
<path d="M61.4705 49.2291C61.7519 49.5105 62.0334 49.9795 62.5024 49.9795C62.9714 49.9795 63.4404 49.8857 63.8156 49.6981H63.9094C63.5342 50.1671 62.9714 50.4485 62.3148 50.3547C61.752 50.1671 61.3767 49.7919 61.3767 49.2291C61.2829 49.2291 61.3767 49.2291 61.4705 49.2291Z" fill="#263238"/>
<path d="M62.8776 45.5708C63.5342 46.6026 64.5661 47.2592 65.6917 47.5406C66.1607 47.6344 66.7235 47.7282 67.1926 47.6344C67.2864 47.6344 67.3801 47.6344 67.4739 47.6344H67.7553C67.8491 47.6344 68.0367 47.5406 68.0367 47.353V47.2592V47.1654C68.0367 46.2274 68.0367 44.7265 68.0367 44.7265C68.4119 44.9141 70.1942 45.7584 70.1942 45.2894C70.0066 41.0683 69.819 36.472 68.7871 32.3447C68.7871 32.2509 68.6934 32.2509 68.5996 32.2509C68.5996 32.2509 68.5058 32.2509 68.5058 32.3447C68.5058 36.3782 69.2562 40.3178 69.35 44.3513C68.6934 44.0699 68.0367 43.7885 67.3801 43.6947C67.2863 43.6947 67.5678 46.5088 67.4739 46.9778C67.4739 46.9778 67.4739 46.9778 67.4739 47.0716C65.8793 47.2592 64.6599 46.6964 63.0652 45.6646C62.8776 45.3832 62.7838 45.3831 62.8776 45.5708Z" fill="#263238"/>
<path d="M66.63 47.0717C66.0672 47.7283 65.4106 48.2911 64.5664 48.5725C64.0973 48.7601 63.6283 48.7601 63.1593 48.6663C62.1275 48.3849 62.1275 47.4469 62.3151 46.6965C62.4089 46.3213 62.5965 45.8523 62.7841 45.4771C63.9098 46.4151 65.223 46.9779 66.63 47.0717Z" fill="#263238"/>
<path d="M64.5664 48.5725C64.0973 48.7601 63.6283 48.7601 63.1593 48.6663C62.1275 48.3849 62.1275 47.4468 62.3151 46.6964C63.4408 46.7902 64.4725 47.5406 64.5664 48.5725Z" fill="#FF98B9"/>
<path opacity="0.2" d="M45.9932 36.3781C47.2126 36.1905 50.1205 32.0632 51.3399 30.4686C52.5593 28.8739 53.3098 20.0565 53.4036 18.0867C51.2461 19.3061 49.4639 21.0883 48.2444 23.3396C46.9312 25.8723 46.087 31.0314 45.9932 36.3781Z" fill="#263238"/>
<path d="M68.5059 25.3095C67.0051 26.9042 64.8476 27.6545 62.6902 27.2793C60.5327 26.9041 58.6567 25.4033 57.9063 23.3397C57.9063 23.2459 57.8125 23.3397 57.8125 23.3397C58.4691 25.5909 60.3451 27.2793 62.5964 27.7484C64.8476 28.1236 67.1927 27.1855 68.5998 25.4033C68.5998 25.3095 68.5997 25.3095 68.5059 25.3095C68.5997 25.3095 68.5059 25.3095 68.5059 25.3095Z" fill="#263238"/>
<path d="M62.5029 9.55066C58.8446 9.55066 55.4677 11.4267 54.0607 13.8656C53.3103 15.2726 53.0288 16.8672 53.2164 18.4619C53.2164 18.5557 53.3102 18.5557 53.3102 18.4619C53.2164 15.6478 54.7173 13.0214 57.1561 11.6143C59.7826 10.0197 63.0657 9.64446 66.0674 10.8639C67.4744 11.4267 68.6 12.3647 69.3504 13.678C69.4442 13.7718 69.7256 13.7718 69.6318 13.5842C68.7876 11.2391 65.786 9.55066 62.5029 9.55066Z" fill="#263238"/>
<path d="M83.4209 18.0866C82.8581 16.3044 81.7325 14.7098 80.1379 13.6779C77.9804 12.1771 75.4477 12.3647 72.9151 12.5523C72.9151 12.5523 72.8213 12.5523 72.8213 12.6461C72.8213 12.6461 72.8213 12.7399 72.9151 12.7399C75.0725 12.5523 77.23 12.5523 79.1998 13.6779C80.7945 14.5221 82.0139 15.9292 82.7643 17.6176C84.0775 21.1821 82.6705 25.2156 79.2936 27.0917C77.4176 28.1235 75.1663 28.2173 73.1027 27.5607C73.0089 27.5607 72.915 27.6545 73.0088 27.6545C77.0423 29.2491 81.6387 27.2793 83.2333 23.2458C83.7961 21.5573 83.8899 19.7751 83.4209 18.0866Z" fill="#263238"/>
<path d="M46.9318 26.9041C46.9318 26.9041 43.7425 20.2442 46.7441 16.5859C48.4326 14.5222 53.8731 14.9913 53.8731 14.9913C53.8731 14.9913 55.7492 11.8958 60.2517 11.0515C64.7542 10.2073 70.1947 13.0214 70.1947 13.0214C70.1947 13.0214 74.6034 10.6763 78.5431 13.209C84.0774 16.6797 83.0456 25.2157 77.2299 27.7483C73.1964 29.5306 67.8496 25.7785 67.8496 25.7785C67.2868 25.8723 61.8463 28.874 58.0004 23.9025C58.0004 23.9025 54.6236 26.7165 51.7157 24.5591C50.8715 26.3413 48.9016 27.1855 46.9318 26.9041Z" fill="#263238"/>
<path d="M49.2759 38.6295C49.2759 38.6295 46.1804 32.1571 43.2726 33.0951C40.3647 34.0331 41.9593 43.0382 44.8672 44.7266C46.368 45.7584 48.3379 45.3832 49.2759 43.8824L49.3697 43.7886L49.2759 38.6295Z" fill="#AD6359"/>
<path d="M43.8356 35.7216C43.8356 35.7216 43.7418 35.7216 43.8356 35.7216C45.8993 37.0348 46.6497 39.2861 47.1187 41.5373C46.6497 40.5993 45.8055 40.0365 44.586 40.5993V40.6931C44.586 40.6931 44.5861 40.6931 44.6799 40.6931C45.5241 40.5993 46.2745 40.9745 46.7435 41.7249C47.0249 42.2877 47.3063 42.9444 47.4939 43.601C47.5877 43.7886 47.9629 43.7886 47.8691 43.5072C47.8691 43.5072 47.8691 43.5072 47.8691 43.4134C48.2443 40.6931 46.7435 36.472 43.8356 35.7216Z" fill="#263238"/>
<path d="M55.9365 51.7618L50.1208 49.2291L45.4307 43.4134L46.3687 42.663L50.8712 48.2911L56.4055 50.7299L55.9365 51.7618Z" fill="#C7C7C7"/>
<path d="M55.3738 50.8237C55.9366 49.1353 60.7205 49.7919 59.8763 52.3245C58.9383 54.8572 54.811 52.5121 55.3738 50.8237Z" fill="#37474F"/>
<path d="M43.2735 32.9074C43.2735 32.9074 42.6169 23.3396 45.4309 18.0867C48.5264 12.2709 61.4711 6.6428 70.2885 12.9275C70.2885 12.9275 55.9368 10.3949 49.2768 18.4619C46.4628 21.8388 46.5566 33.095 46.5566 33.095L43.2735 32.9074Z" fill="#C7C7C7"/>
<path d="M44.6172 46.7148C48.8653 46.6725 52.2698 42.6906 52.2213 37.8208C52.1729 32.9511 48.6898 29.0377 44.4418 29.08C40.1937 29.1222 36.7893 33.1042 36.8377 37.9739C36.8862 42.8436 40.3692 46.757 44.6172 46.7148Z" fill="#C7C7C7"/>
<path d="M49.9336 37.5038C49.9336 41.9125 46.932 45.477 43.0861 45.477C39.2402 45.477 36.1447 42.0063 36.0509 37.5976C35.9571 33.1889 39.0526 29.6244 42.8985 29.6244C46.7443 29.6244 49.8398 33.1889 49.9336 37.5038Z" fill="#455A64"/>
<path d="M62.7841 61.7048L58.6568 72.2106L45.5245 58.9845L41.8662 63.2994C41.8662 63.2994 54.7171 84.4049 54.8109 83.3731L59.1258 74.2742L65.4105 80.559L64.8478 64.7064L62.7841 61.7048Z" fill="#EBEBEB"/>
<path d="M65.4104 72.6797C65.2228 70.0532 65.1291 67.4267 64.8477 64.8003C64.8477 64.7064 64.66 64.7064 64.66 64.8003C64.191 67.3329 64.9414 77.276 64.9414 79.7148C64.66 79.4334 59.1257 74.1805 59.0319 74.2743C58.0939 75.6813 54.9046 82.3413 54.717 82.9041C52.6533 79.5272 44.1174 66.3949 41.6785 63.2056C41.6785 63.2056 41.5847 63.1118 41.5847 63.2056C41.5847 63.2056 41.4909 63.2994 41.5847 63.2994C43.3669 66.8639 54.5294 84.2173 54.717 84.2173C56.4054 81.1219 57.9063 77.9326 59.2195 74.6495C60.1575 75.7751 65.7857 81.6847 65.7857 81.3094C65.6919 78.4954 65.6919 75.5875 65.4104 72.6797Z" fill="#263238"/>
<path d="M127.32 19.9628C126.289 29.812 117.471 36.941 107.622 35.9092C103.776 35.534 100.212 33.8456 97.3976 31.3129L88.3926 32.6261L92.8951 24.8405C91.7694 22.1203 91.3942 19.1186 91.6757 16.2107C92.6137 6.36149 101.431 -0.861283 111.28 0.170541C121.13 1.10856 128.352 9.92597 127.32 19.7752C127.32 19.7752 127.32 19.869 127.32 19.9628Z" fill="white"/>
<path d="M127.321 19.9628C126.946 23.2459 125.726 26.4351 123.662 29.0616C123.193 29.7182 122.631 30.3748 122.068 30.9376C121.505 31.5005 120.848 32.0633 120.192 32.5323C118.879 33.5641 117.378 34.3145 115.877 34.9711C114.376 35.5339 112.688 36.003 111.093 36.0968C110.249 36.1906 109.405 36.1905 108.56 36.1905C107.716 36.1905 106.872 36.0968 106.122 35.9092C102.838 35.3463 99.743 33.7517 97.2103 31.5004L97.3979 31.5942L88.4866 33.0013L87.8301 33.0951L88.1115 32.5323L92.614 24.7467V25.0281C88.7681 15.8355 93.1768 5.23584 102.463 1.38995C111.656 -2.45595 122.255 1.95276 126.101 11.2392C127.227 13.9594 127.696 16.9611 127.321 19.9628ZM127.321 19.9628C128.353 10.2073 121.224 1.48375 111.468 0.451924C109.967 0.264319 108.467 0.358099 106.966 0.545703C104.339 0.920912 101.807 1.95274 99.5554 3.45358C97.3979 4.95441 95.5218 7.01807 94.2086 9.26933C92.8954 11.6144 92.1449 14.147 91.9573 16.8673C91.7697 19.4938 92.2388 22.214 93.2706 24.6529L93.3644 24.8405L93.2706 25.0281L88.7681 32.7199L88.4866 32.2509L97.4917 31.0314H97.5855L97.6793 31.1252C100.118 33.3765 103.026 34.8773 106.215 35.534C107.06 35.7216 107.81 35.8153 108.654 35.8153C109.498 35.9091 110.249 35.9091 111.093 35.8153C112.688 35.7215 114.376 35.3463 115.877 34.7835C117.378 34.2207 118.879 33.4703 120.192 32.4385C120.848 31.9694 121.505 31.4067 122.068 30.8438C122.631 30.281 123.193 29.6244 123.662 28.9678C125.726 26.3413 126.946 23.2459 127.321 19.9628Z" fill="#263238"/>
<path d="M119.534 18.5558C119.534 19.7752 118.596 20.7132 117.376 20.7132C116.157 20.7132 115.219 19.7752 115.219 18.5558C115.219 17.3363 116.157 16.3983 117.376 16.3983C118.502 16.3983 119.534 17.4301 119.534 18.5558Z" fill="#263238"/>
<path d="M111.749 18.5558C111.749 19.7752 110.81 20.7132 109.591 20.7132C108.372 20.7132 107.434 19.7752 107.434 18.5558C107.434 17.3363 108.372 16.3983 109.591 16.3983C110.81 16.3983 111.749 17.4301 111.749 18.5558Z" fill="#263238"/>
<path d="M103.963 18.5558C103.963 19.7752 103.025 20.7132 101.806 20.7132C100.586 20.7132 99.6484 19.7752 99.6484 18.5558C99.6484 17.3363 100.586 16.3983 101.806 16.3983C103.025 16.3983 103.963 17.4301 103.963 18.5558Z" fill="#263238"/>
</svg>
