<svg width="180" height="129" viewBox="0 0 180 129" fill="none" xmlns="http://www.w3.org/2000/svg">
<path d="M70.533 124.03H17.4854V128.389H70.533V124.03Z" fill="#455A64"/>
<path d="M171.611 124.03H70.5322V128.389H171.611V124.03Z" fill="#37474F"/>
<path d="M118.563 124.03H17.4848L3.75 59.2214H104.746L118.563 124.03Z" fill="#263238"/>
<path d="M49.3955 119.918H20.6923L8.68457 63.2515H37.3879L49.3955 119.918Z" fill="white"/>
<path d="M20.1164 84.5527C19.9519 84.7172 19.7051 84.7994 19.4584 84.8817C18.8004 85.0462 18.0603 84.9639 17.4845 84.5527C16.8266 84.2237 16.3331 83.648 16.0042 82.9901C15.4284 81.5919 15.9219 80.276 17.2378 79.947C18.5537 79.618 20.0341 80.4405 20.6921 81.8386C21.1855 82.9078 20.9388 83.977 20.1164 84.5527Z" fill="#C7C7C7"/>
<path d="M19.0472 82.0854C19.1295 82.4144 18.965 82.7434 18.636 82.8256C18.5538 82.8256 18.5538 82.8256 18.4716 82.8256C18.0603 82.8256 17.6491 82.4966 17.5669 82.0854C17.4846 81.7564 17.6491 81.4275 17.9781 81.3452C18.0603 81.3452 18.1426 81.3452 18.1426 81.3452C18.5538 81.3452 18.965 81.6742 19.0472 82.0854Z" fill="white"/>
<path d="M20.0345 84.2238L20.1168 84.5528C19.9523 84.7173 19.7055 84.7995 19.4588 84.8818C18.8008 85.0463 18.0607 84.964 17.4849 84.5528L17.4027 84.2238C17.2382 83.6481 17.5672 83.0724 18.1429 82.9079C18.2251 82.9079 18.3896 82.8256 18.4719 82.9079C19.2121 82.9079 19.87 83.4836 20.0345 84.2238Z" fill="white"/>
<path d="M33.8508 80.8517H22.3366L22.0898 79.8647H33.6041L33.8508 80.8517Z" fill="#C7C7C7"/>
<path d="M38.4571 82.6612H22.7485L22.584 82.0854H38.2926L38.4571 82.6612Z" fill="#C7C7C7"/>
<path d="M38.7042 83.8948H22.9956L22.8311 83.3191H38.622L38.7042 83.8948Z" fill="#C7C7C7"/>
<path d="M21.8436 92.4482C21.6791 92.6127 21.4324 92.695 21.1857 92.7772C20.5277 92.9417 19.7875 92.8594 19.2118 92.4482C18.5538 92.1192 18.0604 91.5435 17.7314 90.8856C17.0734 89.4874 17.6491 88.1715 18.9651 87.8425C20.281 87.5136 21.7614 88.336 22.4193 89.7342C22.8305 90.8033 22.5838 91.8725 21.8436 92.4482Z" fill="#FFC727"/>
<path d="M20.6918 90.0631C20.774 90.3921 20.6095 90.7211 20.2806 90.8033C20.1983 90.8033 20.1161 90.8033 20.1161 90.8033C19.7049 90.8033 19.2936 90.4743 19.2114 90.0631C19.1291 89.7341 19.2936 89.4051 19.6226 89.3229C19.7049 89.3229 19.7871 89.3229 19.7871 89.3229C20.1983 89.2407 20.6095 89.5696 20.6918 90.0631Z" fill="white"/>
<path d="M21.7611 92.1193L21.8433 92.4483C21.6788 92.6128 21.4321 92.695 21.1854 92.7773C20.5274 92.9417 19.7872 92.8595 19.2115 92.4483L19.1293 92.1193C18.9648 91.5436 19.2937 90.9679 19.8695 90.8034C19.9517 90.8034 20.1162 90.7212 20.1984 90.8034C20.9386 90.8856 21.5144 91.3791 21.7611 92.1193Z" fill="white"/>
<path d="M35.497 88.7472H23.9828L23.8184 87.7603H35.3326L35.497 88.7472Z" fill="#C7C7C7"/>
<path d="M40.1025 90.5566H24.3938L24.3115 90.0631H40.0202L40.1025 90.5566Z" fill="#C7C7C7"/>
<path d="M40.3485 91.7902H24.6399L24.5576 91.2968H40.2663L40.3485 91.7902Z" fill="#C7C7C7"/>
<path d="M23.4891 100.344C23.3246 100.508 23.0779 100.59 22.8312 100.673C22.1732 100.837 21.433 100.755 20.8573 100.344C20.1994 100.015 19.7059 99.439 19.3769 98.781C18.7189 97.4651 19.2947 96.067 20.6106 95.738C21.9265 95.409 23.4069 96.2314 24.0648 97.6296C24.4761 98.6988 24.2293 99.7679 23.4891 100.344Z" fill="#455A64"/>
<path d="M22.4195 97.9586C22.5018 98.2876 22.3373 98.6165 22.0083 98.6988C21.9261 98.6988 21.8438 98.6988 21.7616 98.6988C21.3504 98.6988 20.9391 98.3698 20.8569 97.9586C20.7747 97.6296 20.9391 97.3006 21.2681 97.2184C21.3504 97.2184 21.4326 97.2184 21.4326 97.2184C21.9261 97.2184 22.255 97.4651 22.4195 97.9586Z" fill="white"/>
<path d="M23.407 100.015L23.4893 100.344C23.3248 100.508 23.0781 100.59 22.8313 100.673C22.1734 100.837 21.4332 100.755 20.8575 100.344L20.7752 100.015C20.6107 99.439 20.9397 98.8632 21.4332 98.6988C21.5154 98.6988 21.6799 98.6165 21.8444 98.6165C22.5846 98.781 23.2426 99.2745 23.407 100.015Z" fill="white"/>
<path d="M37.2238 96.6426H25.7096L25.4629 95.6557H36.9771L37.2238 96.6426Z" fill="#C7C7C7"/>
<path d="M41.8292 98.5343H26.0383L25.9561 97.9586H41.6647L41.8292 98.5343Z" fill="#C7C7C7"/>
<path d="M42.0753 99.7679H26.3666L26.2021 99.1922H41.9108L42.0753 99.7679Z" fill="#C7C7C7"/>
<path d="M25.133 108.321C24.9685 108.486 24.7218 108.568 24.475 108.65C23.8171 108.815 23.0769 108.733 22.5012 108.321C21.8432 107.992 21.3497 107.417 21.0208 106.759C20.445 105.361 20.9385 104.045 22.2544 103.716C23.4881 103.387 25.0507 104.209 25.7087 105.607C26.2022 106.594 25.9554 107.746 25.133 108.321Z" fill="#263238"/>
<path d="M24.0648 105.854C24.1471 106.183 23.9826 106.512 23.6536 106.594C23.5714 106.594 23.4891 106.594 23.4891 106.594C23.0779 106.594 22.6667 106.265 22.5844 105.854C22.5022 105.525 22.6667 105.196 22.9957 105.114C23.0779 105.114 23.0779 105.114 23.1601 105.114C23.5714 105.114 23.9826 105.443 24.0648 105.854Z" fill="white"/>
<path d="M25.0516 107.91L25.1338 108.239C24.9693 108.404 24.7226 108.486 24.4759 108.568C23.8179 108.733 23.0777 108.65 22.502 108.239L22.4197 107.91C22.2553 107.334 22.5842 106.759 23.0777 106.594C23.1599 106.594 23.3244 106.512 23.4067 106.512C24.2291 106.676 24.8871 107.17 25.0516 107.91Z" fill="white"/>
<path d="M38.8682 104.62H27.354L27.1895 103.551H38.7037L38.8682 104.62Z" fill="#C7C7C7"/>
<path d="M43.4738 106.43H27.7651L27.6006 105.854H43.3915L43.4738 106.43Z" fill="#C7C7C7"/>
<path d="M43.7206 107.663H28.0119L27.9297 107.088H43.6383L43.7206 107.663Z" fill="#C7C7C7"/>
<path d="M26.8605 116.135C26.696 116.299 26.4493 116.381 26.2026 116.464C25.5446 116.628 24.8044 116.546 24.2287 116.135C23.5708 115.806 23.0773 115.23 22.7483 114.572C22.1726 113.256 22.6661 111.858 23.982 111.529C25.2979 111.2 26.7783 112.022 27.4362 113.42C27.8475 114.572 27.6007 115.641 26.8605 116.135Z" fill="#C7C7C7"/>
<path d="M25.7914 113.75C25.8737 114.079 25.7092 114.407 25.3802 114.49C25.2979 114.49 25.2157 114.49 25.2157 114.49C24.8045 114.49 24.3932 114.161 24.311 113.75C24.2288 113.421 24.3932 113.092 24.7222 113.009C24.8045 113.009 24.8867 113.009 24.8867 113.009C25.2979 113.009 25.6269 113.256 25.7914 113.75Z" fill="white"/>
<path d="M26.7786 115.888L26.8609 116.217C26.6964 116.381 26.4497 116.464 26.2029 116.546C25.545 116.71 24.8048 116.628 24.2291 116.217L24.1468 115.888C23.9823 115.312 24.3113 114.736 24.887 114.572C24.9693 114.572 25.0515 114.572 25.216 114.572C25.9562 114.572 26.6142 115.065 26.7786 115.888Z" fill="white"/>
<path d="M40.5959 112.516H29.0817L28.835 111.529H40.3492L40.5959 112.516Z" fill="#C7C7C7"/>
<path d="M45.2013 114.325H29.4104L29.3281 113.749H45.0368L45.2013 114.325Z" fill="#C7C7C7"/>
<path d="M45.4483 115.559H29.6574L29.5752 114.983H45.2838L45.4483 115.559Z" fill="#C7C7C7"/>
<path d="M15.7579 71.0646C15.5934 71.1469 15.5111 71.2291 15.3466 71.2291C14.9354 71.3113 14.442 71.2291 14.113 71.0646C13.7018 70.8179 13.3728 70.4889 13.2083 70.0777C12.7971 69.2552 13.1261 68.3505 13.9485 68.1861C14.8532 68.0216 15.7579 68.515 16.0868 69.3375C16.4158 69.9132 16.3336 70.6534 15.7579 71.0646Z" fill="#C7C7C7"/>
<path d="M15.1004 69.502C15.1826 69.6665 15.0181 69.9132 14.8536 69.9955H14.7714C14.5247 69.9955 14.2779 69.7487 14.1957 69.502C14.1135 69.3375 14.2779 69.0908 14.4424 69.0085H14.5247C14.8537 69.0908 15.0182 69.2553 15.1004 69.502Z" fill="white"/>
<path d="M15.7576 70.9001L15.8399 71.0646C15.6754 71.1468 15.5932 71.2291 15.4287 71.2291C15.0174 71.3113 14.524 71.2291 14.195 71.0646L14.1128 70.9001C14.0305 70.5711 14.195 70.1599 14.524 70.0776C14.6062 70.0776 14.6885 70.0776 14.6885 70.0776C15.2642 70.0776 15.6754 70.4066 15.7576 70.9001Z" fill="white"/>
<path d="M35.4961 70.0778C35.4961 69.9956 35.4961 69.9956 35.5783 69.9133C35.6606 69.9133 35.7428 69.9956 35.7428 70.0778C35.7428 70.1601 35.7428 70.1601 35.6606 70.2423C35.5783 70.2423 35.4961 70.1601 35.4961 70.0778Z" fill="#C7C7C7"/>
<path d="M35.4141 69.5021C35.4141 69.4199 35.4141 69.4199 35.4963 69.3376C35.5786 69.3376 35.6608 69.4199 35.6608 69.5021C35.6608 69.5844 35.6608 69.5844 35.5786 69.6666C35.4963 69.6666 35.4141 69.5844 35.4141 69.5021Z" fill="#C7C7C7"/>
<path d="M35.249 69.0085C35.249 68.9262 35.249 68.9262 35.3313 68.844C35.4135 68.844 35.4957 68.9262 35.4957 69.0085C35.4957 69.0907 35.4957 69.0907 35.4135 69.173C35.3313 69.173 35.3313 69.0907 35.249 69.0085Z" fill="#C7C7C7"/>
<path d="M33.5221 69.9132H32.0417L31.7949 68.9263H33.3576L33.5221 69.9132Z" fill="#C7C7C7"/>
<path d="M32.042 69.9133L32.1242 70.2423L32.371 69.9133H32.042Z" fill="#C7C7C7"/>
<path d="M33.111 69.1731H32.2063L32.124 69.0908H33.111V69.1731Z" fill="white"/>
<path d="M33.193 69.3375H32.2061V69.2552H33.1107L33.193 69.3375Z" fill="white"/>
<path d="M33.193 69.5842H32.2883L32.2061 69.502H33.193V69.5842Z" fill="white"/>
<path d="M102.196 66.3768H9.34254L8.68457 63.2515H101.538L102.196 66.3768Z" fill="#37474F"/>
<path d="M11.3988 64.8142C11.4811 65.1431 11.3166 65.4721 10.9876 65.5544C10.9054 65.5544 10.8231 65.5544 10.8231 65.5544C10.4119 65.5544 10.0007 65.2254 9.91842 64.8142C9.83618 64.4852 10.0007 64.1562 10.3296 64.074C10.4119 64.074 10.4119 64.074 10.4941 64.074C10.9876 64.074 11.3166 64.4029 11.3988 64.8142Z" fill="#C7C7C7"/>
<path d="M14.5238 64.8142C14.6061 65.1431 14.4416 65.4721 14.1126 65.5544C14.0303 65.5544 14.0304 65.5544 13.9481 65.5544C13.5369 65.5544 13.1257 65.2254 13.0434 64.8142C12.9612 64.4852 13.1257 64.1562 13.4546 64.074C13.5369 64.074 13.6191 64.074 13.6191 64.074C14.0303 64.074 14.4416 64.4029 14.5238 64.8142Z" fill="white"/>
<path d="M17.6488 64.8142C17.7311 65.1431 17.5666 65.4721 17.2376 65.5544C17.1554 65.5544 17.0731 65.5544 17.0731 65.5544C16.6619 65.5544 16.2507 65.2254 16.1684 64.8142C16.0862 64.4852 16.2507 64.1562 16.5796 64.074C16.6619 64.074 16.6619 64.074 16.7441 64.074C17.1554 64.074 17.5666 64.4029 17.6488 64.8142Z" fill="#FFC727"/>
<path d="M102.197 66.3767H38.0459L49.3956 119.918H113.628L102.197 66.3767Z" fill="#EBEBEB"/>
<path d="M108.036 117.368H54.7419L54.084 114.243H107.378L108.036 117.368Z" fill="white"/>
<path d="M106.967 115.806C107.049 116.135 106.885 116.464 106.556 116.546C106.474 116.546 106.391 116.546 106.391 116.546C105.98 116.546 105.569 116.217 105.487 115.806C105.405 115.477 105.569 115.148 105.898 115.065C105.98 115.065 106.062 115.065 106.062 115.065C106.474 115.065 106.885 115.394 106.967 115.806Z" fill="#FFC727"/>
<path d="M105.98 115.394L106.555 115.806L106.144 116.217L106.062 116.135L106.309 115.806L105.897 115.477L105.98 115.394Z" fill="white"/>
<path d="M55.482 116.71H55.3175L54.9062 114.819H55.0707L55.482 116.71Z" fill="#263238"/>
<path d="M110.173 117.368C110.091 117.368 110.091 117.368 110.173 117.368L109.927 116.546V116.464C109.927 116.464 110.009 116.464 110.009 116.546L110.173 117.368C110.173 117.286 110.173 117.368 110.173 117.368Z" fill="#A6A6A6"/>
<path d="M110.585 117.368H109.763C109.763 117.368 109.681 117.368 109.681 117.286V117.204H110.503C110.585 117.204 110.585 117.286 110.585 117.368C110.585 117.286 110.585 117.368 110.585 117.368Z" fill="#A6A6A6"/>
<path d="M110.175 114.736L110.421 115.806C110.504 116.052 110.339 116.217 110.092 116.299C110.01 116.299 110.01 116.299 109.928 116.299C109.681 116.299 109.517 116.217 109.434 115.97C109.352 115.888 109.352 115.806 109.352 115.723L109.105 114.654C109.023 114.407 109.188 114.243 109.434 114.161C109.517 114.161 109.517 114.161 109.599 114.161C109.763 114.161 109.928 114.243 110.01 114.325C110.01 114.49 110.092 114.572 110.175 114.736Z" fill="#A6A6A6"/>
<path d="M110.009 116.628C109.763 116.628 109.598 116.546 109.434 116.381C109.269 116.217 109.105 116.052 109.105 115.806L109.022 115.312V115.23C109.022 115.23 109.105 115.23 109.105 115.312L109.187 115.806C109.269 115.97 109.351 116.135 109.516 116.299C109.68 116.381 109.845 116.464 110.009 116.464C110.256 116.464 110.503 116.217 110.503 115.888C110.503 115.806 110.503 115.806 110.503 115.806L110.421 115.394V115.312C110.421 115.312 110.503 115.312 110.503 115.394L110.585 115.806C110.667 116.135 110.503 116.464 110.174 116.546C110.092 116.628 110.092 116.628 110.009 116.628Z" fill="#A6A6A6"/>
<path d="M53.2612 115.806C53.4256 116.464 53.0144 117.122 52.3565 117.368C52.2742 117.368 52.1097 117.451 52.0275 117.451C51.1228 117.451 50.3826 116.793 50.1359 115.888C49.9714 115.23 50.3826 114.572 51.0405 114.325C51.1228 114.325 51.2873 114.243 51.3695 114.243C52.2742 114.243 53.0967 114.901 53.2612 115.806Z" fill="white"/>
<path d="M51.1222 115.477C51.1222 115.559 51.1222 115.641 51.0399 115.723C51.0399 115.723 51.0399 115.723 50.9577 115.723C50.7932 115.723 50.7109 115.641 50.7109 115.477C50.7109 115.394 50.7109 115.312 50.7932 115.23C50.7932 115.23 50.7932 115.23 50.8754 115.23C50.9577 115.23 51.1222 115.312 51.1222 115.477Z" fill="#A6A6A6"/>
<path d="M52.6036 115.477C52.6036 115.559 52.6036 115.641 52.5214 115.723C52.5214 115.723 52.5214 115.723 52.4391 115.723C52.2746 115.723 52.1924 115.641 52.1924 115.477C52.1924 115.394 52.1924 115.312 52.2746 115.23C52.2746 115.23 52.2746 115.23 52.3569 115.23C52.5213 115.23 52.6036 115.312 52.6036 115.477Z" fill="#A6A6A6"/>
<path d="M51.9458 115.394C51.9458 115.477 51.9458 115.559 51.9458 115.641C51.8636 115.723 51.7813 115.806 51.6991 115.806C51.6168 115.806 51.4523 115.723 51.4523 115.723C51.3701 115.641 51.3701 115.559 51.3701 115.477L51.9458 115.394Z" fill="#A6A6A6"/>
<path d="M51.9456 115.641C51.8634 115.723 51.7811 115.806 51.6989 115.806C51.6167 115.806 51.4521 115.723 51.4521 115.723C51.5344 115.641 51.6167 115.641 51.6989 115.641C51.7811 115.477 51.8634 115.559 51.9456 115.641Z" fill="#DBDBDB"/>
<path d="M16.0873 76.4106L15.9228 76.575L15.3471 75.9993L15.1826 75.7526C15.1826 75.7526 15.2648 75.7526 15.2648 75.6703C15.3471 75.6703 15.3471 75.5881 15.3471 75.5059L15.5938 75.7526L16.0873 76.4106Z" fill="#A6A6A6"/>
<path d="M15.3466 75.0947C15.0999 74.848 14.6887 74.7658 14.4419 75.0125C14.1952 75.2592 14.2775 75.6705 14.5242 75.9172C14.7709 76.1639 15.0999 76.2462 15.3466 76.0817C15.3466 76.0817 15.4289 76.0817 15.4289 75.9994C15.5111 75.9994 15.5111 75.9172 15.5111 75.8349C15.6756 75.5882 15.5934 75.2592 15.3466 75.0947ZM15.2644 75.7527C15.2644 75.8349 15.1821 75.8349 15.2644 75.7527C15.0177 75.8349 14.8532 75.8349 14.6887 75.6704C14.5242 75.506 14.5242 75.3415 14.6064 75.177C14.7709 75.0947 15.0177 75.0947 15.1822 75.2592C15.2644 75.3415 15.3466 75.506 15.3466 75.6704L15.2644 75.7527Z" fill="#A6A6A6"/>
<path d="M18.6357 75.9994C18.8002 76.0817 18.9647 76.1639 19.1292 76.1639C19.2115 76.1639 19.2937 76.1639 19.3759 76.0817C19.4582 76.0817 19.4582 75.9994 19.4582 75.9172C19.4582 75.8349 19.376 75.7527 19.2937 75.7527C19.2115 75.6704 19.1292 75.6704 19.047 75.6704C18.9647 75.6704 18.8825 75.5882 18.8002 75.5882C18.718 75.5882 18.6357 75.506 18.6357 75.4237C18.6357 75.3415 18.6357 75.2592 18.718 75.177C18.8002 75.0947 18.8825 75.0947 18.9647 75.0947C19.1292 75.0947 19.2114 75.177 19.3759 75.2592C19.3759 75.2592 19.3759 75.2592 19.3759 75.3415C19.2937 75.2592 19.1292 75.2592 19.047 75.2592C18.9647 75.2592 18.8825 75.2592 18.8002 75.3415C18.718 75.3415 18.718 75.4237 18.718 75.5059C18.718 75.5882 18.8002 75.5882 18.8002 75.6704C18.8825 75.7527 18.9647 75.7527 19.047 75.7527C19.1292 75.7527 19.2937 75.8349 19.3759 75.8349C19.4582 75.9172 19.5404 75.9172 19.5404 76.0817C19.5404 76.1639 19.5404 76.2461 19.4582 76.3284C19.3759 76.4106 19.2937 76.4106 19.2115 76.4106C18.8825 76.2462 18.718 76.1639 18.6357 75.9994C18.6357 76.0817 18.6357 75.9994 18.6357 75.9994Z" fill="#A6A6A6"/>
<path d="M19.6234 75.8348C19.5412 75.6703 19.7057 75.5058 19.8702 75.4236H19.9524C20.1991 75.4236 20.3636 75.5881 20.4459 75.8348H19.7879C19.8702 75.9993 19.9524 76.1638 20.1991 76.1638C20.2814 76.1638 20.3636 76.0815 20.4459 75.9993C20.4459 75.9993 20.4459 75.9993 20.5281 75.9993C20.5281 75.9993 20.5281 75.9993 20.5281 76.0815C20.4459 76.1638 20.3636 76.246 20.2814 76.246C19.8702 76.246 19.7057 76.0815 19.6234 75.8348ZM19.7057 75.7526H20.2814C20.1991 75.5881 20.1169 75.5058 19.9524 75.5058C19.7879 75.5058 19.7057 75.5881 19.7057 75.7526Z" fill="#A6A6A6"/>
<path d="M21.2684 75.4236L21.4328 76.1638C21.4328 76.1638 21.4329 76.1637 21.3506 76.0815V75.9993C21.2684 76.0815 21.1861 76.1638 21.1039 76.1638C20.8571 76.1638 20.6926 75.9993 20.6104 75.7525C20.5281 75.588 20.6104 75.4236 20.7749 75.3413H20.8571C21.0216 75.3413 21.1039 75.4236 21.1861 75.5058L21.2684 75.4236C21.1861 75.4236 21.1861 75.4236 21.2684 75.4236ZM21.2684 75.8348C21.2684 75.6703 21.1039 75.5058 20.9394 75.5058C20.7749 75.5058 20.6926 75.588 20.6926 75.7525V75.8348C20.6926 75.9993 20.8571 76.1638 21.0216 76.1638C21.1861 76.1638 21.2684 75.9993 21.2684 75.8348Z" fill="#A6A6A6"/>
<path d="M21.5977 75.4236C21.6799 75.4236 21.6799 75.4236 21.5977 75.4236L21.6799 75.5881C21.7621 75.5058 21.8444 75.4236 21.9266 75.4236C21.9266 75.4236 21.9266 75.4236 22.0089 75.4236V75.5058C21.9266 75.5058 21.8444 75.5881 21.8444 75.6703C21.8444 75.7526 21.7622 75.7526 21.7622 75.8348L21.8444 76.1638V76.246C21.8444 76.246 21.7622 76.246 21.7622 76.1638L21.5977 75.4236Z" fill="#A6A6A6"/>
<path d="M22.3373 75.8348C22.2551 75.6703 22.4196 75.5058 22.5841 75.4236H22.6663C22.7485 75.4236 22.8308 75.4236 22.913 75.5058C22.913 75.5058 22.913 75.5058 22.913 75.5881C22.913 75.5881 22.913 75.5881 22.8308 75.5881C22.7485 75.5058 22.6663 75.5058 22.5841 75.5058C22.4196 75.5058 22.3373 75.5881 22.3373 75.7526C22.3373 75.7526 22.3373 75.7526 22.3373 75.8348C22.4195 75.9993 22.584 76.1638 22.8308 76.1638C22.913 76.1638 22.9953 76.1638 22.9953 76.0815C22.9953 76.0815 22.9953 76.0815 23.0775 76.0815V76.1638C22.9953 76.246 22.913 76.246 22.8308 76.246C22.584 76.1638 22.3373 76.0815 22.3373 75.8348Z" fill="#A6A6A6"/>
<path d="M23.8174 75.7526C23.8174 75.5881 23.6529 75.5059 23.4884 75.5059C23.4061 75.5059 23.3239 75.5881 23.2416 75.6703V75.7526L23.3239 76.1638L23.2416 75.7526L23.0771 75.1769H23.1594L23.2416 75.5881C23.3239 75.5059 23.4061 75.5059 23.4884 75.5059C23.6529 75.5059 23.8173 75.6703 23.8996 75.8348L23.9818 76.2461C23.9818 76.2461 23.8996 76.2461 23.8996 76.1638L23.8174 75.7526Z" fill="#A6A6A6"/>
<path d="M24.7221 75.8348C24.6398 75.6703 24.8043 75.5058 24.9688 75.4236H25.0511C25.1333 75.4236 25.2155 75.4236 25.2978 75.5058C25.2978 75.5058 25.2978 75.5058 25.2978 75.5881C25.2978 75.5881 25.2978 75.5881 25.2155 75.5881C25.1333 75.5058 25.0511 75.5058 24.9688 75.5058C24.8043 75.5058 24.7221 75.5881 24.7221 75.7526C24.8043 75.7526 24.8043 75.7526 24.7221 75.8348C24.8043 75.9993 24.9688 76.1638 25.2155 76.1638C25.2978 76.1638 25.38 76.1638 25.38 76.0815C25.38 76.0815 25.38 76.0815 25.4623 76.0815V76.1638C25.38 76.246 25.2978 76.246 25.2155 76.246C24.9688 76.1638 24.8043 76.0815 24.7221 75.8348Z" fill="#A6A6A6"/>
<path d="M26.2851 75.7526C26.2851 75.5881 26.1206 75.5059 25.9561 75.5059C25.8739 75.5059 25.7917 75.5881 25.7094 75.6703V75.7526L25.7917 76.1638L25.7094 75.7526L25.5449 75.1769H25.6272L25.7094 75.5881C25.7917 75.5059 25.8739 75.5059 25.9561 75.5059C26.1206 75.5059 26.2851 75.6703 26.3674 75.8348L26.4496 76.2461C26.4496 76.2461 26.4496 76.2461 26.3674 76.1638L26.2851 75.7526Z" fill="#A6A6A6"/>
<path d="M27.3543 75.4236L27.5188 76.1638C27.5188 76.1638 27.5188 76.1637 27.4365 76.0815V75.9993C27.3543 76.0815 27.272 76.1638 27.1898 76.1638C26.943 76.1638 26.7786 75.9993 26.6963 75.7525C26.6141 75.588 26.6963 75.4236 26.8608 75.3413H26.9431C27.1075 75.3413 27.1898 75.4236 27.272 75.5058L27.3543 75.4236C27.272 75.4236 27.272 75.4236 27.3543 75.4236ZM27.3543 75.8348C27.3543 75.6703 27.1898 75.5058 27.0253 75.5058C26.8608 75.5058 26.7786 75.588 26.7786 75.7525V75.8348C26.7786 75.9993 26.9431 76.1638 27.1076 76.1638C27.272 76.1638 27.3543 75.9993 27.3543 75.8348Z" fill="#A6A6A6"/>
<path d="M27.9298 75.4237C27.9298 75.506 27.9298 75.506 27.9298 75.4237C27.9298 75.506 27.9298 75.506 27.9298 75.4237H27.7653L27.8475 75.9994C27.8475 75.9994 27.8475 76.0817 27.9298 76.0817C27.9298 76.0817 28.012 76.0817 28.012 76.1639C27.9298 76.1639 27.8475 76.0817 27.8475 75.9994L27.683 75.4237H27.6008H27.5186H27.6008L27.5186 75.0947C27.5186 75.0947 27.6008 75.0947 27.6008 75.177L27.683 75.5059L27.9298 75.4237Z" fill="#A6A6A6"/>
<path d="M40.5128 78.0554H11.8096V78.1377H40.5128V78.0554Z" fill="#A6A6A6"/>
<path d="M39.5255 73.203H10.8223V73.2853H39.5255V73.203Z" fill="#A6A6A6"/>
<path d="M23.4887 126.826H13.5371V128.389H23.4887V126.826Z" fill="#FFC727"/>
<path opacity="0.1" d="M23.4887 126.826H13.5371V127.813H23.4887V126.826Z" fill="black"/>
<path d="M1.77647 122.714C3.17463 124.852 5.97093 125.757 8.35602 124.77C8.84949 124.606 9.34296 124.359 9.75418 124.03L8.52052 122.138C8.27379 122.303 8.02706 122.467 7.78032 122.55C5.39524 123.619 3.91484 121.727 3.58586 121.316C2.1877 119.424 1.69423 114.983 3.09239 113.338C3.17463 113.174 3.58585 113.009 5.1485 113.338C5.47747 113.42 5.80646 113.503 6.13544 113.585C6.46442 113.667 6.71113 113.749 7.04011 113.749V112.598L7.12235 111.447C7.04011 111.447 6.87562 111.364 6.62888 111.364C5.88868 111.118 5.1485 110.953 4.32605 110.871C3.17463 110.789 1.94097 110.871 1.11853 111.858C-0.855338 114.736 0.0493403 120.247 1.77647 122.714Z" fill="#FFC727"/>
<path opacity="0.1" d="M8.52047 122.138C8.27373 122.303 8.02701 122.467 7.78027 122.55L8.35597 124.77C8.84944 124.606 9.34291 124.359 9.75413 124.03L8.52047 122.138Z" fill="black"/>
<path opacity="0.1" d="M4.57227 111.035L5.23024 113.42C5.55921 113.503 5.88818 113.585 6.21715 113.667C6.54613 113.749 6.79287 113.832 7.12185 113.832V112.68L7.2041 111.529C7.12185 111.529 6.95736 111.447 6.71062 111.447C6.05267 111.282 5.31246 111.118 4.57227 111.035Z" fill="black"/>
<path d="M31.7964 108.075C31.7964 108.075 30.6449 118.191 28.5066 122.467C26.3682 126.744 23.5719 127.237 21.7626 127.237H15.2652C13.4559 127.237 10.5773 126.744 8.52122 122.467C6.46511 118.191 5.23145 108.075 5.23145 108.075H31.7964Z" fill="#FFC727"/>
<path d="M85.8301 83.319H143.566V59.2214H85.8301V83.319Z" fill="#455A64"/>
<path d="M143.565 66.2945V59.2214H150.967L143.565 66.2945Z" fill="#455A64"/>
<path d="M139.207 63.3336H90.2715V63.8271H139.207V63.3336Z" fill="white"/>
<path d="M125.061 65.8009H90.2715V66.2944H125.061V65.8009Z" fill="white"/>
<path d="M133.614 70.8179H90.2715V71.3113H133.614V70.8179Z" fill="white"/>
<path d="M139.207 73.2852H90.2715V73.7786H139.207V73.2852Z" fill="white"/>
<path d="M139.207 75.7524H90.2715V76.2459H139.207V75.7524Z" fill="white"/>
<path d="M120.373 78.2197H90.2715V78.7132H120.373V78.2197Z" fill="white"/>
<path d="M135.67 14.7272H77.9346V35.1238H135.67V14.7272Z" fill="#FFC727"/>
<path d="M77.9342 21.8002V14.7272H70.5322L77.9342 21.8002Z" fill="#FFC727"/>
<path d="M120.044 18.4282H82.458V18.9217H120.044V18.4282Z" fill="white"/>
<path d="M131.393 20.8955H82.458V21.389H131.393V20.8955Z" fill="white"/>
<path d="M131.393 23.4451H82.458V23.9385H131.393V23.4451Z" fill="white"/>
<path d="M126.048 25.9124H82.458V26.4058H126.048V25.9124Z" fill="white"/>
<path d="M131.393 28.3798H82.458V28.8732H131.393V28.3798Z" fill="white"/>
<path d="M113.629 30.847H82.458V31.3405H113.629V30.847Z" fill="white"/>
<path d="M135.67 38.3313H77.9346V53.4643H135.67V38.3313Z" fill="#FFC727"/>
<path d="M77.9342 45.4866V38.3313H70.5322L77.9342 45.4866Z" fill="#FFC727"/>
<path d="M131.311 42.1146H82.458V42.6081H131.311V42.1146Z" fill="white"/>
<path d="M119.303 44.5819H82.458V45.0754H119.303V44.5819Z" fill="white"/>
<path d="M124.896 47.0493H82.458V47.5428H124.896V47.0493Z" fill="white"/>
<path d="M110.832 49.5166H82.458V50.0101H110.832V49.5166Z" fill="white"/>
<path d="M135.67 88.0068H77.9346V101.906H135.67V88.0068Z" fill="#FFC727"/>
<path d="M77.9342 95.1621V88.0068H70.5322L77.9342 95.1621Z" fill="#FFC727"/>
<path d="M127.61 91.7902H82.458V92.2836H127.61V91.7902Z" fill="white"/>
<path d="M115.931 94.2575H82.458V94.751H115.931V94.2575Z" fill="white"/>
<path d="M124.485 96.7249H82.458V97.2183H124.485V96.7249Z" fill="white"/>
<path d="M166.677 73.1206C174.036 73.1206 180.001 67.1554 180.001 59.797C180.001 52.4386 174.036 46.4734 166.677 46.4734C159.319 46.4734 153.354 52.4386 153.354 59.797C153.354 67.1554 159.319 73.1206 166.677 73.1206Z" fill="#A6A6A6"/>
<path d="M162.812 68.5973L163.963 73.9431L172.599 67.5281L175.724 70.4066C175.724 70.4066 168.816 78.4666 163.141 78.4666C160.18 78.4666 159.604 71.7225 159.604 71.7225L162.812 68.5973Z" fill="#FFC727"/>
<path d="M164.211 74.6834C166.349 75.3414 170.379 72.2161 172.106 69.5843C172.188 69.4198 172.106 67.4459 172.024 64.9786C172.024 63.4982 171.942 61.8533 172.106 60.3729C172.106 60.0439 162.483 62.0178 162.483 62.0178C162.895 63.9094 163.059 65.8833 162.977 67.8572C162.977 68.1039 162.895 68.2684 162.895 68.4329V68.5151C162.566 69.7488 162.072 74.0255 164.211 74.6834Z" fill="#DD6A57"/>
<path d="M171.447 60.3728C170.789 63.0046 168.733 68.9262 163.799 68.6795C163.47 68.6795 163.141 68.5972 162.812 68.5972V68.515C162.894 68.3505 162.894 68.1038 162.894 67.9393C162.976 66.9523 162.894 65.9654 162.812 65.0607C162.729 64.0738 162.565 63.1691 162.4 62.1822L162.483 62.0999C163.223 61.8532 169.556 60.6195 171.447 60.3728Z" fill="#263238"/>
<path d="M172.846 48.4475C173.997 51.7373 172.681 61.4421 170.379 63.745C167.089 67.0347 161.414 67.5282 158.618 63.4982C155.904 59.6327 157.877 46.9671 160.427 44.911C164.21 41.868 171.119 43.5951 172.846 48.4475Z" fill="#DD6A57"/>
<path d="M171.941 56.5895C169.638 56.2605 169.803 52.0661 169.803 52.0661C169.803 52.0661 166.02 50.8324 165.855 47.7894C165.855 47.7894 161.825 49.5988 159.029 48.1184C156.233 46.638 157.384 43.4304 157.795 42.7725C158.206 42.1145 159.605 43.6772 159.605 43.6772C159.605 43.6772 160.098 41.8678 160.592 41.7033C161.085 41.6211 161.496 42.7725 161.496 42.7725C161.496 42.7725 165.444 42.0323 168.816 42.6902C172.188 43.3482 173.422 46.9669 173.422 46.9669C173.422 46.9669 175.149 47.6249 175.56 49.023C175.971 50.4212 173.422 56.8363 171.941 56.5895Z" fill="#263238"/>
<path d="M163.47 55.1914C163.47 55.1914 163.47 55.2737 163.47 55.1914C163.387 55.9316 163.387 56.6718 163.963 57.0008C163.963 57.0008 163.963 57.083 163.963 57.0008C163.223 56.8363 163.305 55.7671 163.47 55.1914Z" fill="#263238"/>
<path d="M164.128 54.6157C165.198 54.698 165.033 56.8363 164.046 56.7541C163.059 56.6718 163.224 54.5335 164.128 54.6157Z" fill="#263238"/>
<path d="M159.687 54.9447C159.687 54.9447 159.605 55.0269 159.687 54.9447C159.605 55.6849 159.44 56.4251 158.782 56.5896C159.522 56.5896 159.687 55.6027 159.687 54.9447Z" fill="#263238"/>
<path d="M159.112 54.2045C158.042 54.04 157.796 56.1783 158.783 56.3428C159.77 56.5073 160.016 54.3689 159.112 54.2045Z" fill="#263238"/>
<path d="M165.115 53.711C164.869 53.6287 164.54 53.4642 164.293 53.382C163.964 53.2998 163.717 53.1353 163.553 52.8885C163.471 52.724 163.553 52.4773 163.717 52.3128C164.046 52.1483 164.54 52.1483 164.869 52.3128C165.28 52.4773 165.527 52.724 165.773 53.1353C165.856 53.382 165.773 53.6287 165.527 53.7932C165.28 53.711 165.198 53.711 165.115 53.711Z" fill="#263238"/>
<path d="M158.371 53.0531C158.7 53.0531 158.946 52.9708 159.275 52.8886C159.604 52.8886 159.851 52.8063 160.098 52.5596C160.262 52.3951 160.262 52.1484 160.098 51.9839C159.851 51.6549 159.44 51.5727 159.029 51.6549C158.617 51.6549 158.206 51.9016 157.959 52.1484C157.795 52.3951 157.795 52.6418 158.042 52.8063C158.206 53.0531 158.288 53.0531 158.371 53.0531Z" fill="#263238"/>
<path d="M163.47 61.3599C163.306 61.5244 163.141 61.6888 162.895 61.6888C162.648 61.6888 162.401 61.6066 162.237 61.4421C162.237 61.4421 162.155 61.4421 162.237 61.4421C162.401 61.6888 162.73 61.8533 163.059 61.8533C163.306 61.9356 163.47 61.6888 163.47 61.3599C163.553 61.3599 163.553 61.3599 163.47 61.3599Z" fill="#263238"/>
<path d="M162.977 59.3859C162.566 59.8794 161.99 60.2084 161.332 60.2084C161.085 60.2084 160.756 60.2084 160.509 60.1261H160.345H160.18C160.098 60.1261 160.098 60.0439 160.098 59.9616V59.8794V59.7972C160.098 59.3037 160.263 58.4812 160.263 58.4812C160.098 58.5635 159.111 58.8925 159.111 58.6457C159.44 56.4251 159.851 54.04 160.674 51.9839C160.674 51.9839 160.756 51.9017 160.756 51.9839C160.756 51.9839 160.838 51.9839 160.756 52.0662C160.509 54.2045 159.852 56.2606 159.523 58.3168C159.852 58.2345 160.263 58.1523 160.592 58.07C160.674 58.07 160.345 59.5504 160.345 59.7972C161.167 59.9616 161.825 59.7972 162.73 59.3037C162.977 59.3037 163.059 59.3037 162.977 59.3859Z" fill="#263238"/>
<path d="M160.92 60.0439C161.167 60.4552 161.496 60.7019 161.907 60.9486C162.154 61.0309 162.4 61.1131 162.647 61.0309C163.223 60.9486 163.223 60.4552 163.14 60.0439C163.14 59.7972 163.058 59.6327 162.976 59.386C162.4 59.7972 161.66 60.0439 160.92 60.0439Z" fill="#263238"/>
<path d="M161.907 60.9486C162.154 61.0309 162.401 61.1131 162.647 61.0309C163.223 60.9486 163.223 60.4551 163.141 60.0439C162.565 59.9617 162.072 60.3729 161.907 60.9486Z" fill="#FF99BA"/>
<path d="M171.119 56.425C171.119 56.425 173.258 53.2175 174.656 54.0399C176.054 54.7801 174.574 59.3858 172.929 60.0437C172.106 60.455 171.037 60.126 170.708 59.2213C170.708 59.2213 170.708 59.2213 170.708 59.1391L171.119 56.425Z" fill="#DD6A57"/>
<path d="M174.162 55.356C174.244 55.356 174.244 55.356 174.162 55.356C173.01 55.9317 172.435 57.0009 172.023 58.1523C172.352 57.7411 172.846 57.4943 173.422 57.9055V57.9878C173.01 57.8233 172.517 57.9878 172.27 58.399C172.023 58.728 171.859 58.9747 171.777 59.3037C171.694 59.3859 171.53 59.3859 171.612 59.2214C171.448 57.6588 172.599 55.5204 174.162 55.356Z" fill="#263238"/>
<path d="M162.976 67.9393L164.127 73.4497L172.105 66.3767L174.079 68.5973C174.079 68.5973 166.348 79.8648 166.266 79.3713L163.881 74.6011L160.591 77.9732L161.907 69.5842L162.976 67.9393Z" fill="white"/>
<path d="M161.825 69.6665C161.825 69.5842 161.907 69.5842 161.907 69.6665C161.825 71.3936 160.756 76.246 160.756 77.5619C160.92 77.3974 163.799 74.6011 163.799 74.6834C164.292 75.4236 166.02 78.8778 166.102 79.2068C167.171 77.5619 172.27 70.9001 173.586 69.2552H173.668V69.3375C172.764 71.2291 166.266 79.947 166.184 79.947C165.279 78.3021 164.457 76.575 163.799 74.8479C163.306 75.4236 160.427 78.6311 160.345 78.4666C160.345 76.9862 161.414 71.3936 161.825 69.6665Z" fill="#263238"/>
<path d="M64.6705 95.8658C69.97 90.5663 69.97 81.9742 64.6705 76.6747C59.371 71.3752 50.7789 71.3752 45.4794 76.6747C40.1799 81.9742 40.1799 90.5663 45.4794 95.8658C50.7789 101.165 59.371 101.165 64.6705 95.8658Z" fill="#A6A6A6"/>
<path d="M58.9361 95.2444L57.7024 100.673L49.478 95.0799L47.4219 98.1229C47.4219 98.1229 52.7678 105.36 58.5249 105.36C61.5679 105.36 62.1436 98.4519 62.1436 98.4519L58.9361 95.2444Z" fill="#FFC727"/>
<path d="M57.5381 101.413C55.3175 102.071 51.2053 98.9453 49.5604 96.2312C49.4782 96.0668 49.5604 94.0107 49.6427 91.5433C49.6427 90.0629 49.7249 88.3358 49.5604 86.8554C49.5604 86.5264 50.6296 87.0199 50.6296 87.0199L52.6035 87.3489L59.2653 88.5003C59.2653 88.5003 58.5251 91.7901 58.7718 94.4219C58.7718 94.6686 58.854 94.8331 58.854 95.0798V95.1621C59.2653 96.3957 59.7587 100.755 57.5381 101.413Z" fill="#EB9481"/>
<path d="M58.9359 95.1621V95.2444C58.6069 95.3266 58.2779 95.3266 57.949 95.3266C51.4517 95.6556 50.1357 87.5134 50.1357 87.5134L52.6853 87.4312L59.3471 88.5826C59.3471 88.5826 58.6069 91.8724 58.8536 94.5042C58.8536 94.7509 58.8536 94.9154 58.9359 95.1621Z" fill="#263238"/>
<path d="M48.7382 74.7655C47.5868 78.1375 48.9027 88.0069 51.2878 90.3097C54.6598 93.6817 60.4169 94.1752 63.2955 90.063C66.0918 86.1152 64.0357 73.2029 61.4039 71.1468C57.5384 68.0215 50.5476 69.8309 48.7382 74.7655Z" fill="#EB9481"/>
<path d="M58.2786 81.5918C58.2786 81.5918 58.2786 81.674 58.2786 81.5918C58.3609 82.332 58.3609 83.0722 57.7852 83.4012C57.7852 83.4012 57.7852 83.4834 57.7852 83.4012C58.5254 83.2367 58.5254 82.2498 58.2786 81.5918Z" fill="#263238"/>
<path d="M57.6208 81.0161C56.5517 81.0984 56.7162 83.2367 57.7853 83.1545C58.7723 83.0722 58.5255 80.9339 57.6208 81.0161Z" fill="#263238"/>
<path d="M62.227 81.345C62.227 81.345 62.227 81.4272 62.227 81.345C62.3092 82.0852 62.4737 82.8254 63.1316 82.9899C62.3092 82.9899 62.1447 82.0029 62.227 81.345Z" fill="#263238"/>
<path d="M62.7193 80.605C63.7885 80.4405 64.1175 82.5788 63.0483 82.7433C62.0614 82.9078 61.8146 80.7695 62.7193 80.605Z" fill="#263238"/>
<path d="M56.6331 80.1113C56.8799 80.0291 57.2089 79.8646 57.4556 79.7001C57.7846 79.6179 58.0313 79.4534 58.1958 79.1244C58.278 78.9599 58.1958 78.7132 58.0313 78.5487C57.7023 78.302 57.2088 78.302 56.8799 78.5487C56.4686 78.7132 56.1397 78.9599 55.9752 79.3711C55.8929 79.6179 55.9752 79.9469 56.2219 80.0291C56.4687 80.1113 56.5509 80.1113 56.6331 80.1113Z" fill="#263238"/>
<path d="M63.4601 79.4535C63.1311 79.4535 62.8844 79.3712 62.5554 79.289C62.2264 79.289 61.8974 79.2067 61.6507 78.96C61.4862 78.7955 61.4862 78.5488 61.6507 78.3843C61.8974 78.0553 62.3909 77.9731 62.8021 78.0553C63.2133 78.0553 63.6246 78.302 63.8713 78.631C64.0358 78.8777 64.0358 79.1245 63.789 79.289C63.7068 79.3712 63.6246 79.4535 63.4601 79.4535Z" fill="#263238"/>
<path d="M58.2787 87.9246C58.4432 88.0891 58.6077 88.2536 58.8544 88.2536C59.1012 88.2536 59.3479 88.1713 59.5947 88.0069C59.4302 88.3358 59.1012 88.5003 58.7722 88.4181C58.5255 88.4181 58.2787 88.2536 58.2787 87.9246C58.1965 87.9246 58.2787 87.8424 58.2787 87.9246Z" fill="#263238"/>
<path d="M58.6901 86.1151C59.348 86.6909 61.6509 86.6909 61.6509 86.6086L61.4864 84.9637C61.6509 85.046 62.7201 85.3749 62.6378 85.1282C62.3088 82.9076 61.8976 80.4403 61.0752 78.3019C61.0752 78.3019 60.9929 78.2197 60.9929 78.3019C60.9929 78.3019 60.9107 78.3019 60.9929 78.3842C61.2397 80.5225 61.8976 82.5786 62.1443 84.7992C61.8154 84.6347 61.4041 84.6347 61.0752 84.5525C60.9929 84.5525 61.3219 86.0329 61.3219 86.2796C60.4994 86.2796 59.677 86.1974 58.8546 85.9506C58.5256 85.8684 58.5256 85.9507 58.6901 86.1151Z" fill="#263238"/>
<path d="M49.9717 82.7432C50.7941 82.4965 51.6166 79.7824 51.6166 77.0684C51.6166 75.3413 52.3568 73.1207 54.2484 72.5449C55.5643 72.1337 57.7849 73.2029 59.0186 72.8739C60.2522 72.5449 60.499 71.8047 61.3214 71.887C62.0616 71.887 62.8841 73.7786 62.8841 73.7786C62.8841 73.7786 61.5682 67.9393 54.0017 69.8309C46.1062 71.8047 47.6689 78.631 48.4091 80.7694C49.067 82.332 49.9717 82.7432 49.9717 82.7432Z" fill="#263238"/>
<path d="M50.5477 82.9078C50.5477 82.9078 48.4093 79.7003 46.9289 80.4405C45.4485 81.1807 47.0111 85.8686 48.7383 86.5266C49.5607 86.9378 50.6299 86.6088 51.0411 85.7041V85.6219L50.5477 82.9078Z" fill="#EB9481"/>
<path d="M47.4219 81.7562C48.5733 82.3319 49.2313 83.4011 49.6425 84.5525C49.3135 84.1413 48.82 83.8123 48.2443 84.2236V84.3058C48.6555 84.1413 49.149 84.3058 49.3957 84.717C49.6425 85.046 49.807 85.375 49.9715 85.704C50.0537 85.7862 50.2182 85.7862 50.2182 85.6217C50.1359 84.0591 49.0668 81.9207 47.4219 81.7562Z" fill="#263238"/>
<path d="M52.9331 31.6695C60.7458 31.6695 67.0792 25.3361 67.0792 17.5235C67.0792 9.71083 60.7458 3.37744 52.9331 3.37744C45.1205 3.37744 38.7871 9.71083 38.7871 17.5235C38.7871 25.3361 45.1205 31.6695 52.9331 31.6695Z" fill="#A6A6A6"/>
<path d="M67.7365 28.2975H66.5028C66.3383 26.7348 65.4336 24.432 65.6803 25.5834C65.8448 26.4881 65.9271 27.3928 65.8448 28.2975H45.4483C45.2015 25.9946 46.2707 22.2114 46.2707 22.2114C45.1193 24.103 44.6258 26.8171 44.4613 28.2975H42.5697C42.4052 26.8993 42.8987 24.5142 42.8987 24.5142C42.4052 25.4189 42.0762 27.2283 41.9118 28.2975H39.6911C39.6089 25.9946 40.4314 22.9516 42.2407 20.1553C43.7211 17.9347 41.9118 16.6188 41.9118 12.3421C41.9118 6.58495 45.8595 4.44659 46.5174 3.78864C55.3998 -4.4358 63.4598 3.21293 64.3645 8.64106C65.1869 13.9869 63.7065 14.6449 66.1738 19.4973C67.9832 23.1983 67.7365 28.2975 67.7365 28.2975Z" fill="#263238"/>
<path d="M43.8037 31.2583C46.8468 33.3144 52.6861 36.8509 55.8114 35.6995C58.1965 34.7948 59.5946 32.3275 59.7591 31.5873C58.5255 30.4359 56.7161 29.4489 55.8936 28.8732C51.288 25.8302 47.0935 27.7218 43.8037 31.2583Z" fill="#455A64"/>
<path d="M48.2452 29.5311C48.4919 30.1891 52.0284 34.4658 55.2359 34.1368C56.3051 34.0546 55.8939 28.3797 55.8939 28.3797L55.9761 27.9685L56.8808 22.0469L49.7256 18.0992L48.6564 17.6057C48.6564 17.6057 48.4919 19.2506 48.3274 21.3067V21.6357C48.3274 21.7179 48.3274 21.8824 48.3274 21.9647C48.3274 22.2936 48.2452 22.5404 48.2452 22.8693C48.2452 23.1161 48.2451 23.3628 48.1629 23.6095C48.0807 23.8563 48.1629 24.103 48.1629 24.3497C47.9984 25.9946 48.0807 27.804 48.2452 29.5311Z" fill="#AD6359"/>
<path d="M48.3271 21.2245C49.7253 24.432 52.5216 26.8994 55.8936 27.9685L56.7983 22.0469L49.6431 18.0992L48.5739 17.6057C48.6561 17.5235 48.4916 19.1684 48.3271 21.2245Z" fill="#263238"/>
<path d="M64.1189 12.1776C65.7638 22.6226 59.7599 24.7609 57.4571 25.0899C55.401 25.4189 48.4102 26.2413 45.6961 16.043C42.9821 5.84474 47.2588 1.81477 51.9467 0.827837C56.6347 -0.159096 62.474 1.73252 64.1189 12.1776Z" fill="#AD6359"/>
<path d="M46.601 16.7833C49.2328 16.4543 49.3151 8.39435 49.3151 7.40742C49.3151 8.06537 49.5618 11.3551 49.8085 11.4374C50.0553 11.4374 50.3842 11.3551 50.631 11.1907C50.631 10.7794 50.631 10.3682 50.631 10.0392C50.631 9.87474 50.7132 10.4505 50.8777 11.1084C51.0422 11.0262 51.2067 11.0262 51.3712 10.9439C51.2889 10.1215 51.2889 9.21679 51.4534 8.39435C51.5357 8.06537 51.7002 9.46352 52.1114 10.6972C54.2497 9.87475 56.5526 9.29903 58.8554 8.88781C59.5134 8.80557 60.0891 8.80557 60.5826 8.72332C60.5003 7.73639 60.3358 6.74946 60.4181 6.91395C60.6648 7.48966 60.8293 8.06537 60.9938 8.72332C61.2405 8.72332 61.4872 8.72332 61.734 8.72332C61.6517 7.32517 60.8293 5.18682 61.076 5.51579C61.8162 6.50273 62.3919 7.5719 62.7209 8.80557C63.7078 8.88781 63.9546 9.0523 63.9546 8.80557C63.9546 8.39435 63.1321 4.52886 59.8423 1.97929C56.3058 -0.817019 49.7263 -1.06376 46.4365 3.95315C46.4365 3.95315 43.558 6.17375 43.3935 9.38128C43.0645 12.6711 45.1206 16.9478 46.601 16.7833Z" fill="#263238"/>
<path d="M59.8414 18.1814C59.5946 18.5926 59.2656 19.0038 58.8544 19.3328C58.6077 19.4973 58.361 19.5795 58.1142 19.5795C57.5385 19.5795 57.374 19.0038 57.374 18.5926C57.374 18.3459 57.4563 18.0992 57.4563 17.8524C58.1965 18.1814 59.0189 18.3459 59.8414 18.1814Z" fill="white"/>
<path d="M61.9805 10.8617C61.7337 10.8617 61.487 10.7795 61.2403 10.7795C60.9936 10.7795 60.7468 10.6973 60.5001 10.5328C60.4178 10.3683 60.3356 10.2038 60.4179 10.0393C60.6646 9.79257 60.9936 9.71033 61.3225 9.71033C61.6515 9.71033 61.9805 9.87482 62.2272 10.1215C62.3917 10.286 62.3095 10.5328 62.145 10.6973C62.145 10.8618 62.0627 10.8617 61.9805 10.8617Z" fill="#263238"/>
<path d="M55.2357 11.7664C55.4824 11.6841 55.7292 11.6019 55.8937 11.5196C56.1404 11.4374 56.3871 11.3552 56.5516 11.1907C56.6339 11.0262 56.6338 10.8617 56.4694 10.6972C56.2226 10.4505 55.8114 10.4505 55.5647 10.5327C55.2357 10.615 54.9067 10.7794 54.7422 11.1084C54.66 11.3552 54.7422 11.6019 54.9067 11.6841C55.0712 11.6841 55.1535 11.7664 55.2357 11.7664Z" fill="#263238"/>
<path d="M56.8804 14.2338C56.8804 14.2338 56.7981 14.316 56.8804 14.2338C56.9626 14.974 56.9626 15.8787 56.3047 16.1254V16.2076C57.0449 16.0431 57.0449 14.8917 56.8804 14.2338Z" fill="#263238"/>
<path d="M56.1408 13.5757C54.9894 13.6579 55.1539 15.9608 56.2231 15.8785C57.2923 15.7963 57.1278 13.5757 56.1408 13.5757Z" fill="#263238"/>
<path d="M55.6474 13.7403C55.4829 13.9048 55.2362 14.1515 55.0717 14.1515C54.825 14.1515 54.5782 13.987 54.3315 13.7403C54.3315 13.7403 54.2492 13.7403 54.3315 13.7403C54.3315 14.1515 54.5782 14.645 55.0717 14.645C55.5652 14.645 55.8119 14.2338 55.8941 13.8226C55.8119 13.8226 55.7296 13.6581 55.6474 13.7403Z" fill="#263238"/>
<path d="M60.8285 13.5757C60.8285 13.5757 60.9108 13.6579 60.8285 13.5757C60.9108 14.3159 61.0753 15.1383 61.7332 15.3851C61.7332 15.3851 61.7332 15.4673 61.7332 15.3851C60.9108 15.3851 60.7463 14.3159 60.8285 13.5757Z" fill="#263238"/>
<path d="M61.4038 12.8356C62.5552 12.6711 62.8019 14.9739 61.7327 15.1384C60.6635 15.2206 60.4168 12.9178 61.4038 12.8356Z" fill="#263238"/>
<path d="M61.8977 12.9178C62.0621 13 62.3089 13.2468 62.4734 13.2468C62.6379 13.2468 62.8846 13 63.0491 12.7533C63.0491 12.7533 63.0491 12.7533 63.1313 12.7533C63.2136 13.1645 63.0491 13.658 62.6379 13.8225C62.2267 13.987 61.8977 13.5757 61.8154 13.1645C61.8154 13 61.8154 12.9178 61.8977 12.9178Z" fill="#263238"/>
<path d="M57.1271 19.7441C57.2916 19.9086 57.4561 20.1553 57.7028 20.1553C57.9495 20.1553 58.1963 20.073 58.443 19.9908C58.2785 20.3198 57.8673 20.4843 57.5383 20.402C57.2916 20.3198 57.1271 20.0731 57.1271 19.7441C57.0449 19.7441 57.0449 19.6618 57.1271 19.7441Z" fill="#263238"/>
<path d="M59.8421 16.8655C59.8421 16.8655 60.0888 17.9347 60.0888 18.4281C60.0888 18.5104 60.0066 18.5104 59.8421 18.5104C58.9374 18.7571 58.0327 18.5104 57.457 17.7702C57.457 17.6879 57.457 17.6879 57.5393 17.6879C58.1972 18.0992 59.0197 18.2636 59.7599 18.0992C59.7599 17.9347 59.2664 16.2898 59.3486 16.2898C59.7599 16.2898 60.1711 16.372 60.5001 16.4543C60.0888 14.2337 59.2664 12.0953 58.8552 9.87472C58.8552 9.87472 58.8552 9.79248 58.9374 9.79248H59.0197C60.0066 11.9308 60.5823 14.4804 61.0758 16.7833C61.158 17.2767 60.0888 16.9477 59.8421 16.8655Z" fill="#263238"/>
<path d="M55.6477 17.8524C53.9206 17.8524 52.5225 16.4542 52.5225 14.7271C52.5225 13 53.9206 11.6018 55.6477 11.6018C57.0459 11.6018 58.3618 12.5887 58.6908 13.9869C59.102 15.6318 58.1151 17.3589 56.3879 17.7701C56.1412 17.7701 55.8945 17.8524 55.6477 17.8524ZM55.73 11.9308C55.4833 11.9308 55.3188 11.9308 55.072 12.013C53.5916 12.342 52.6869 13.8224 53.0982 15.3028C53.4271 16.7832 54.9075 17.6879 56.3879 17.2767C57.8683 16.9477 58.773 15.4673 58.3618 13.9869C58.0328 12.8355 56.9637 12.013 55.73 11.9308Z" fill="#FFC727"/>
<path d="M62.8027 17.03C61.5691 17.03 60.4999 15.7964 60.3354 14.1515C60.2532 13.4113 60.4177 12.5888 60.7466 11.9309C61.2401 10.9439 62.3915 10.5327 63.3785 10.9439C63.7074 11.1084 63.9542 11.2729 64.1187 11.5197C64.6121 12.0954 64.9411 12.8356 65.0234 13.658C65.1878 15.3851 64.3654 16.8655 63.0495 17.03C62.9673 17.03 62.885 17.03 62.8027 17.03ZM62.556 11.1907C62.4738 11.1907 62.4738 11.1907 62.3915 11.1907C61.8158 11.2729 61.4046 11.6019 61.1579 12.0954C60.8289 12.6711 60.6644 13.4113 60.8289 14.0692C60.9934 15.5496 61.9803 16.701 63.0495 16.5366C64.1187 16.4543 64.8589 15.1384 64.6944 13.658C64.6122 13.0001 64.3654 12.3421 63.872 11.7664C63.4607 11.4374 62.9672 11.1907 62.556 11.1907Z" fill="#FFC727"/>
<path d="M58.6903 14.316L58.3613 14.0693C58.7725 13.658 59.8417 13.0001 60.6642 13.658L60.4174 13.987C59.595 13.3291 58.6903 14.2337 58.6903 14.316Z" fill="#FFC727"/>
<path d="M44.8731 16.6188L44.4619 16.4543C44.5442 16.2898 45.2021 14.6449 46.1068 14.3982C47.0115 14.1515 52.6041 14.0692 52.8508 14.0692V14.4804C51.206 14.4804 46.847 14.6449 46.1891 14.8094C45.5311 15.0561 45.0376 16.2076 44.8731 16.6188Z" fill="#FFC727"/>
<path d="M47.5881 16.6188C47.5881 16.6188 45.0385 13.4935 43.6403 14.3982C42.2422 15.3029 44.2983 19.9909 46.0254 20.4843C46.9301 20.8133 47.9993 20.3198 48.3283 19.4151V19.3329L47.5881 16.6188Z" fill="#AD6359"/>
<path d="M44.2148 15.7141C45.4485 16.2076 46.1887 17.2768 46.6822 18.4282C46.271 18.017 45.7775 17.7702 45.2018 18.2637C45.2018 18.2637 45.2018 18.2637 45.2018 18.3459C45.2018 18.3459 45.2018 18.3459 45.284 18.3459C45.6952 18.1814 46.1887 18.2637 46.5177 18.6749C46.7644 18.9216 47.0112 19.2506 47.1756 19.5796C47.2579 19.6618 47.4224 19.5796 47.4224 19.4974C47.2579 17.8525 45.942 15.7141 44.2148 15.7141Z" fill="#263238"/>
<path d="M59.7591 31.6696C59.5946 32.492 58.1965 34.9594 55.8114 35.7818C52.6861 36.9332 46.8468 33.3967 43.886 31.3406L43.8037 31.2584C44.3794 30.6827 44.9551 30.107 45.6131 29.5312C46.8468 30.2714 48.1627 30.8472 49.5608 31.1761C50.7122 31.4229 51.8637 31.5874 52.9328 31.5874C53.9198 31.5874 54.9067 31.5051 55.8936 31.2584C56.7161 31.0939 57.5385 30.8472 58.361 30.5182C58.8544 30.9294 59.2657 31.2584 59.7591 31.6696Z" fill="#455A64"/>
<path d="M55.8946 31.3406C55.8946 32.7387 55.7301 34.0546 55.1543 34.1369C53.0982 34.3836 50.8776 32.6565 49.4795 31.2583C50.6309 31.505 51.7823 31.6695 52.8515 31.6695C53.9207 31.6695 54.9076 31.505 55.8946 31.3406Z" fill="#DD6A57"/>
</svg>
