<svg width="19" height="20" viewBox="0 0 19 20" fill="none" xmlns="http://www.w3.org/2000/svg" style="background: transparent;">
<path fill-rule="evenodd" clip-rule="evenodd" d="M13.4733 7.84205C13.4733 11.0941 10.8795 13.6841 7.73665 13.6841C4.59381 13.6841 2 11.0941 2 7.84205C2 4.58997 4.59381 2 7.73665 2C10.8795 2 13.4733 4.58997 13.4733 7.84205ZM11.8841 14.4632C10.6854 15.2363 9.26264 15.6841 7.73665 15.6841C3.46381 15.6841 0 12.1731 0 7.84205C0 3.511 3.46381 0 7.73665 0C12.0095 0 15.4733 3.511 15.4733 7.84205C15.4733 9.89826 14.6926 11.7696 13.4152 13.1682L18.3173 18.1572L16.9155 19.5838L11.8841 14.4632Z" fill="white"/>
</svg>