<svg width="32" height="32" viewBox="0 0 32 32" fill="none" xmlns="http://www.w3.org/2000/svg">
<path d="M16 31C13.0333 31 10.1332 30.1203 7.66645 28.4721C5.19972 26.8238 3.27713 24.4812 2.14181 21.7403C1.0065 18.9994 0.709449 15.9834 1.28823 13.0737C1.86701 10.1639 3.29562 7.49119 5.3934 5.3934C7.49119 3.29562 10.1639 1.86701 13.0737 1.28823C15.9834 0.709449 18.9994 1.0065 21.7403 2.14181C24.4812 3.27713 26.8238 5.19972 28.4721 7.66645C30.1203 10.1332 31 13.0333 31 16C31 19.9783 29.4197 23.7936 26.6066 26.6066C23.7936 29.4197 19.9783 31 16 31ZM16 3.00001C13.4288 3.00001 10.9154 3.76244 8.77759 5.1909C6.63975 6.61936 4.97351 8.64968 3.98957 11.0251C3.00563 13.4006 2.74819 16.0144 3.2498 18.5362C3.75141 21.0579 4.98954 23.3743 6.80762 25.1924C8.6257 27.0105 10.9421 28.2486 13.4638 28.7502C15.9856 29.2518 18.5995 28.9944 20.9749 28.0104C23.3503 27.0265 25.3807 25.3603 26.8091 23.2224C28.2376 21.0846 29 18.5712 29 16C29 12.5522 27.6304 9.24559 25.1924 6.80762C22.7544 4.36965 19.4478 3.00001 16 3.00001V3.00001Z" fill="white"/>
<path d="M21 17H11C10.7348 17 10.4804 16.8946 10.2929 16.7071C10.1054 16.5196 10 16.2652 10 16C10 15.7348 10.1054 15.4804 10.2929 15.2929C10.4804 15.1054 10.7348 15 11 15H21C21.2652 15 21.5196 15.1054 21.7071 15.2929C21.8946 15.4804 22 15.7348 22 16C22 16.2652 21.8946 16.5196 21.7071 16.7071C21.5196 16.8946 21.2652 17 21 17Z" fill="white"/>
<path d="M21 12H11C10.7348 12 10.4804 11.8946 10.2929 11.7071C10.1054 11.5196 10 11.2652 10 11C10 10.7348 10.1054 10.4804 10.2929 10.2929C10.4804 10.1054 10.7348 10 11 10H21C21.2652 10 21.5196 10.1054 21.7071 10.2929C21.8946 10.4804 22 10.7348 22 11C22 11.2652 21.8946 11.5196 21.7071 11.7071C21.5196 11.8946 21.2652 12 21 12Z" fill="white"/>
<path d="M21 22H11C10.7348 22 10.4804 21.8946 10.2929 21.7071C10.1054 21.5196 10 21.2652 10 21C10 20.7348 10.1054 20.4804 10.2929 20.2929C10.4804 20.1054 10.7348 20 11 20H21C21.2652 20 21.5196 20.1054 21.7071 20.2929C21.8946 20.4804 22 20.7348 22 21C22 21.2652 21.8946 21.5196 21.7071 21.7071C21.5196 21.8946 21.2652 22 21 22Z" fill="white"/>
</svg>
