<svg width="32" height="32" viewBox="0 0 32 32" fill="none" xmlns="http://www.w3.org/2000/svg">
<path d="M16 31C13.0333 31 10.1332 30.1203 7.66645 28.4721C5.19972 26.8238 3.27713 24.4812 2.14181 21.7403C1.0065 18.9994 0.709449 15.9834 1.28823 13.0737C1.86701 10.1639 3.29562 7.49119 5.3934 5.3934C7.49119 3.29562 10.1639 1.86701 13.0737 1.28823C15.9834 0.709449 18.9994 1.0065 21.7403 2.14181C24.4812 3.27713 26.8238 5.19972 28.4721 7.66645C30.1203 10.1332 31 13.0333 31 16C31 19.9783 29.4197 23.7936 26.6066 26.6066C23.7936 29.4197 19.9783 31 16 31ZM16 3.00001C13.4288 3.00001 10.9154 3.76244 8.77759 5.1909C6.63975 6.61936 4.97351 8.64968 3.98957 11.0251C3.00563 13.4006 2.74819 16.0144 3.2498 18.5362C3.75141 21.0579 4.98954 23.3743 6.80762 25.1924C8.6257 27.0105 10.9421 28.2486 13.4638 28.7502C15.9856 29.2518 18.5995 28.9944 20.9749 28.0104C23.3503 27.0265 25.3807 25.3603 26.8091 23.2224C28.2376 21.0846 29 18.5712 29 16C29 12.5522 27.6304 9.24559 25.1924 6.80762C22.7544 4.36965 19.4478 3.00001 16 3.00001V3.00001Z" fill="white"/>
<path d="M19.1313 21.4712L11.0114 12.5192C10.796 12.2818 10.6838 11.9685 10.6994 11.6484C10.715 11.3282 10.8571 11.0274 11.0946 10.812C11.332 10.5966 11.6452 10.4844 11.9654 10.5C12.2855 10.5156 12.5864 10.6578 12.8017 10.8952L20.9217 19.8472C21.1371 20.0846 21.2493 20.3978 21.2337 20.718C21.2181 21.0381 21.076 21.339 20.8385 21.5544C20.6011 21.7697 20.2879 21.8819 19.9677 21.8663C19.6475 21.8507 19.3467 21.7086 19.1313 21.4712Z" fill="white"/>
<path d="M18.932 10.9573L10.8121 19.9093C10.5968 20.1467 10.4845 20.4599 10.5001 20.7801C10.5158 21.1003 10.6579 21.4011 10.8953 21.6165C11.1327 21.8318 11.446 21.944 11.7662 21.9284C12.0863 21.9128 12.3872 21.7707 12.6025 21.5333L20.7224 12.5812C20.9378 12.3438 21.05 12.0306 21.0344 11.7104C21.0188 11.3903 20.8767 11.0894 20.6392 10.8741C20.4018 10.6587 20.0886 10.5465 19.7684 10.5621C19.4482 10.5777 19.1474 10.7198 18.932 10.9573Z" fill="white"/>
</svg>
