<svg width="220" height="43" viewBox="0 0 220 43" fill="none" xmlns="http://www.w3.org/2000/svg">
<path d="M30.5996 0.927734V40.5326H24.234L23.7868 36.6799C21.6653 40.023 18.2589 41.1574 14.9093 41.1574C6.81167 41.1574 0.725586 35.7175 0.725586 26.5383C0.725586 16.9054 6.69985 11.9193 14.7407 11.9193C17.6449 11.9193 22.1675 13.5057 23.7868 16.3958V0.927734H30.5996ZM7.53837 26.5383C7.53837 31.4101 10.9998 34.7541 15.3556 34.7541C19.6555 34.7541 23.3405 31.5812 23.3405 26.5383C23.3405 21.6647 19.6555 18.3793 15.3556 18.3793C10.9998 18.3793 7.53837 21.4954 7.53837 26.5383Z" fill="white"/>
<path d="M41.8227 29.0314C42.2699 32.4869 45.2291 34.98 50.0312 34.98C52.5441 34.98 55.8387 34.0166 57.4021 32.3735L61.757 36.7366C58.8537 39.796 54.1066 41.2699 49.9194 41.2699C40.4269 41.2699 34.7881 35.3194 34.7881 26.3672C34.7881 17.8697 40.4828 11.749 49.4172 11.749C58.6301 11.749 64.3826 17.5293 63.3205 29.0314H41.8227ZM56.7872 23.3087C56.3418 19.6839 53.5494 17.8706 49.6399 17.8706C45.9549 17.8706 42.9407 19.6839 41.9345 23.3087H56.7872Z" fill="white"/>
<path d="M87.2211 17.6428C84.4287 15.1497 81.6932 14.6959 78.6213 14.6959C74.3214 14.6392 70.1892 16.2832 70.3019 19.8522C70.4137 23.5914 75.2158 24.3288 78.6772 24.9519C83.5911 25.8009 90.348 26.6508 90.0685 33.1667C89.9017 39.3432 83.5911 40.9863 78.7331 40.9863C73.8751 40.9863 69.0738 39.1162 66.6719 35.3771L68.6816 33.5638C70.9727 36.9068 75.1031 38.324 78.789 38.324C82.1395 38.324 87.2211 37.4164 87.3888 32.9974C87.5006 28.9755 82.9212 28.1814 78.3977 27.4459C73.0375 26.5392 67.7331 25.52 67.6763 19.9099C67.6213 14.4141 73.0374 12.0345 78.6213 12.0912C82.6417 12.0912 86.1599 13.2238 88.8955 15.8304L87.2211 17.6428Z" fill="#FFE300"/>
<path d="M78.7339 41.4209C73.2907 41.4209 68.6472 39.2499 66.3129 35.6141L66.1118 35.2993L68.7581 32.9124L69.034 33.314C70.996 36.1785 74.6422 37.8867 78.7889 37.8867C81.1899 37.8867 86.7927 37.41 86.9604 32.9801C87.056 29.5593 83.4431 28.7057 78.3299 27.8731C73.1626 27.0003 67.3101 26.0104 67.2479 19.9127C67.2272 17.8807 67.9061 16.1506 69.2657 14.7709C71.2566 12.7509 74.6864 11.5945 78.6257 11.6548C82.9481 11.6548 86.5033 12.9522 89.1893 15.5111L89.5012 15.8094L87.2489 18.2476L86.9379 17.9694C84.2384 15.5587 81.547 15.1305 78.4066 15.1296C75.5033 15.1296 73.0238 15.9136 71.738 17.243C71.0375 17.9667 70.6985 18.8395 70.73 19.8376C70.8283 23.1056 75.0371 23.8586 78.4192 24.4634L79.4011 24.6344C84.2032 25.4514 90.7806 26.5694 90.4966 33.1859C90.2893 40.8271 81.4406 41.4209 78.7339 41.4209ZM67.2389 35.4485C69.4551 38.6049 73.8172 40.5508 78.7339 40.5508C81.2449 40.5508 89.4544 40.0175 89.6401 33.1548C89.8916 27.3004 83.9958 26.2995 79.2595 25.4926L78.2704 25.3206C74.7766 24.6966 69.9916 23.8412 69.8725 19.866C69.8338 18.6208 70.2558 17.5339 71.1258 16.6346C72.6036 15.1058 75.4068 14.222 78.6275 14.2614C81.7778 14.2614 84.4584 14.7435 87.1876 17.0426L88.2849 15.8551C85.7603 13.6081 82.4071 12.5112 78.4246 12.5249C74.7766 12.5249 71.6686 13.5633 69.8716 15.3876C68.6815 16.5953 68.0873 18.1149 68.1053 19.9053C68.1558 24.8888 72.4323 25.9967 78.4679 27.0168C82.9067 27.7387 87.9405 28.5575 87.817 33.0103C87.615 38.3459 80.8563 38.7586 78.7889 38.7586C74.553 38.7586 70.7904 37.066 68.6148 34.207L67.2389 35.4485Z" fill="#FFE300"/>
<path d="M117.652 36.6231C114.86 39.4566 111.23 40.8161 107.601 40.8161C99.8394 40.8161 93.418 35.377 93.418 26.5392C93.418 17.6995 99.6158 12.2614 107.601 12.2614C111.23 12.2614 114.86 13.6767 117.652 16.4534L115.866 18.21C113.631 15.9438 110.561 14.867 107.601 14.867C101.347 14.867 96.0985 19.0032 96.0985 26.5401C96.0985 34.0742 101.347 38.2105 107.601 38.2105C110.561 38.2105 113.575 37.0211 115.809 34.7558L117.652 36.6231Z" fill="#FFE300"/>
<path d="M107.601 41.2516C99.1344 41.2516 92.9897 35.0642 92.9897 26.5383C92.9897 17.8751 98.9983 11.825 107.601 11.825C111.476 11.825 115.152 13.3583 117.953 16.1424L118.267 16.4543L115.862 18.8193L115.563 18.5165C113.549 16.4735 110.647 15.3016 107.601 15.3016C102.089 15.3016 96.5269 18.7763 96.5269 26.5383C96.5269 34.2993 102.089 37.775 107.601 37.775C110.54 37.775 113.422 36.5618 115.506 34.4457L115.809 34.1383L118.259 36.6222L117.956 36.9315C115.21 39.7173 111.533 41.2516 107.601 41.2516ZM107.601 12.695C99.5032 12.695 93.8472 18.3875 93.8472 26.5383C93.8472 34.69 99.5032 40.3815 107.601 40.3815C111.159 40.3815 114.493 39.0495 117.041 36.6195L115.804 35.3652C113.588 37.4539 110.623 38.646 107.601 38.646C99.3589 38.646 95.6694 32.5656 95.6694 26.5392C95.6694 18.1761 101.663 14.4324 107.601 14.4324C110.721 14.4324 113.709 15.5843 115.866 17.6053L117.034 16.4562C114.438 14.0271 111.106 12.695 107.601 12.695Z" fill="#FFE300"/>
<path d="M124.744 0.871948V17.7563C126.979 13.7335 130.831 12.2038 134.683 12.1471C142.389 12.1471 146.242 17.19 146.242 24.4991V40.5335H143.561V24.4991C143.561 18.7197 140.88 14.8103 134.683 14.8103C128.875 14.8103 124.855 19.3427 124.855 25.1788V40.5335H122.119V0.871948H124.744Z" fill="#FFE300"/>
<path d="M146.67 40.968H143.133V24.4981C143.133 20.2768 141.667 15.2449 134.682 15.2449C129.236 15.2449 125.283 19.4223 125.283 25.1788V40.968H121.69V0.436401H125.172V16.2897C127.307 13.384 130.629 11.7719 134.676 11.7116C142.188 11.7116 146.67 16.4919 146.67 24.499V40.968ZM143.991 40.098H145.813V24.4981C145.813 16.9246 141.756 12.5816 134.682 12.5816C130.409 12.6448 127.011 14.5578 125.117 17.9694L124.314 19.4141V1.30648H122.548V40.098H124.426V25.1788C124.426 18.9173 128.739 14.3739 134.682 14.3739C140.684 14.3739 143.991 17.9694 143.991 24.4972V40.098Z" fill="#FFE300"/>
<path d="M150.587 16.8131C150.587 7.91754 156.841 2.25159 164.602 2.25159C172.364 2.25159 178.618 7.91754 178.618 16.8131C178.618 25.7086 172.364 31.1476 164.602 31.1476C156.841 31.1476 150.587 25.7086 150.587 16.8131ZM175.937 16.8131C175.937 9.56069 170.856 4.8572 164.602 4.8572C158.349 4.8572 153.268 9.56069 153.268 16.8131C153.268 24.0654 158.349 28.4276 164.602 28.4276C170.856 28.4276 175.937 24.0654 175.937 16.8131Z" fill="#FFE300"/>
<path d="M164.602 31.5831C156.097 31.5831 150.158 25.51 150.158 16.8131C150.158 8.12431 156.233 1.81702 164.602 1.81702C172.972 1.81702 179.047 8.12431 179.047 16.8131C179.046 25.51 173.106 31.5831 164.602 31.5831ZM164.602 2.6871C156.73 2.6871 151.016 8.6275 151.016 16.8131C151.016 24.9977 156.602 30.713 164.602 30.713C172.602 30.713 178.188 24.9977 178.188 16.8131C178.188 8.6275 172.474 2.6871 164.602 2.6871ZM164.602 28.8622C157.676 28.8622 152.839 23.9071 152.839 16.8131C152.839 9.63389 157.785 4.42265 164.602 4.42265C171.42 4.42265 176.367 9.63389 176.367 16.8131C176.366 23.9071 171.529 28.8622 164.602 28.8622ZM164.602 5.29271C158.283 5.29271 153.696 10.138 153.696 16.8131C153.696 23.3957 158.181 27.993 164.602 27.993C171.024 27.993 175.51 23.3957 175.51 16.8131C175.509 10.138 170.921 5.29271 164.602 5.29271Z" fill="#FFE300"/>
<path d="M182.661 28.0899C182.661 19.1935 188.915 13.5276 196.677 13.5276C204.437 13.5276 210.692 19.1935 210.692 28.0899C210.692 36.9855 204.437 42.4245 196.677 42.4245C188.914 42.4245 182.661 36.9855 182.661 28.0899ZM208.011 28.0899C208.011 20.8367 202.93 16.135 196.677 16.135C190.422 16.135 185.34 20.8376 185.34 28.0899C185.34 35.3414 190.423 39.7036 196.677 39.7036C202.93 39.7036 208.011 35.3414 208.011 28.0899Z" fill="#FFE300"/>
<path d="M196.677 42.8591C188.171 42.8591 182.231 36.786 182.231 28.089C182.231 19.4003 188.308 13.093 196.677 13.093C205.046 13.093 211.121 19.4003 211.121 28.089C211.12 36.786 205.181 42.8591 196.677 42.8591ZM196.677 13.9631C188.804 13.9631 183.09 19.9035 183.09 28.089C183.09 36.2737 188.676 41.989 196.677 41.989C204.676 41.989 210.263 36.2737 210.263 28.089C210.263 19.9035 204.549 13.9631 196.677 13.9631ZM196.677 40.1391C189.749 40.1391 184.912 35.184 184.912 28.089C184.912 20.9099 189.858 15.6986 196.677 15.6986C203.494 15.6986 208.44 20.9099 208.44 28.089C208.44 35.184 203.602 40.1391 196.677 40.1391ZM196.677 16.5687C190.357 16.5687 185.769 21.414 185.769 28.089C185.769 34.6717 190.255 39.269 196.677 39.269C203.098 39.269 207.583 34.6726 207.583 28.089C207.583 21.414 202.996 16.5687 196.677 16.5687Z" fill="#FFE300"/>
<path d="M218.889 0.871948H216.154V40.5344H218.889V0.871948Z" fill="#FFE300"/>
<path d="M219.317 40.968H215.725V0.436401H219.317V40.968ZM216.582 40.098H218.46V1.30648H216.582V40.098Z" fill="#FFE300"/>
<path d="M164.701 42.8573C159.483 42.8573 154.269 40.8244 150.324 36.7677L152.766 34.3231C159.256 41.0009 169.891 41.0723 176.472 34.4887L178.88 36.9663C174.952 40.8957 169.825 42.8573 164.701 42.8573Z" fill="white"/>
</svg>
