<svg width="184" height="182" viewBox="0 0 184 182" fill="none" xmlns="http://www.w3.org/2000/svg">
<path d="M85.7727 149.792C122.872 149.792 152.946 157.002 152.946 165.896C152.946 174.79 122.872 182 85.7727 182C48.6743 182 18.5991 174.79 18.5991 165.896C18.5991 157.002 48.6743 149.792 85.7727 149.792Z" fill="#EBEBEB"/>
<path d="M72.1743 159.291L121.045 152.756L141.577 167.305L93.3699 176.935L72.1743 159.291Z" fill="#FFC727"/>
<path d="M75.1367 159.447L94.5368 175.654L139.71 166.664L119.844 152.7C119.844 152.7 106.654 152.785 106.024 152.898C105.394 153.011 99.3742 154.677 99.3742 154.677C99.3742 154.677 91.1719 155.071 90.6011 155.184C90.0303 155.298 75.1367 159.447 75.1367 159.447Z" fill="white"/>
<path d="M99.375 154.661L101.741 156.654L104.091 158.668L108.759 162.724L113.392 166.827L115.69 168.896L117.973 170.981L115.608 168.992L113.258 166.978L108.588 162.92L103.96 158.818L101.662 156.75L99.375 154.661Z" fill="#DBDBDB"/>
<path d="M102.169 165.048C102.74 164.939 103.31 164.855 103.885 164.779C104.46 164.704 105.039 164.637 105.617 164.578C106.197 164.519 106.776 164.469 107.354 164.435C107.933 164.402 108.517 164.368 109.1 164.364C108.525 164.477 107.95 164.558 107.376 164.637C106.801 164.716 106.226 164.775 105.651 164.834C105.077 164.893 104.493 164.943 103.914 164.976C103.335 165.01 102.755 165.045 102.169 165.048Z" fill="#DBDBDB"/>
<path d="M91.7847 169.483C93.2993 168.983 94.8221 168.509 96.3448 168.04C97.8684 167.569 99.3992 167.124 100.931 166.676C101.695 166.449 102.463 166.256 103.238 166.038C103.437 165.989 103.639 165.955 103.843 165.937L104.442 165.874L105.63 165.765C107.22 165.631 108.81 165.509 110.405 165.421C108.823 165.627 107.237 165.798 105.651 165.979L104.463 166.105C104.073 166.138 103.685 166.196 103.302 166.277C102.533 166.478 101.77 166.697 101.002 166.919L96.3869 168.224C94.8641 168.652 93.3244 169.081 91.7847 169.483Z" fill="#DBDBDB"/>
<path d="M93.1396 170.64C94.6078 170.138 96.0768 169.663 97.562 169.197C99.0471 168.732 100.523 168.278 102.009 167.829C102.752 167.603 103.495 167.389 104.245 167.183C104.434 167.133 104.619 167.082 104.82 167.041C105.022 166.999 105.211 166.99 105.404 166.965L106.561 166.852C108.109 166.722 109.653 166.605 111.201 166.52C109.666 166.726 108.126 166.894 106.587 167.074L105.432 167.2C105.239 167.225 105.047 167.242 104.863 167.28C104.677 167.318 104.497 167.372 104.312 167.422L102.08 168.073C100.591 168.492 99.1098 168.954 97.6157 169.378C96.1225 169.802 94.6373 170.233 93.1396 170.64Z" fill="#DBDBDB"/>
<path d="M94.5073 171.623C95.9952 171.181 97.4893 170.761 98.9878 170.364C100.486 169.944 101.992 169.562 103.494 169.168C104.249 168.975 104.987 168.778 105.768 168.623L108.071 168.278C109.611 168.065 111.151 167.859 112.686 167.671C111.159 167.969 109.628 168.233 108.096 168.51L105.797 168.882C105.059 169.034 104.299 169.248 103.549 169.428C102.038 169.798 100.536 170.196 99.0299 170.557C97.5241 170.918 96.022 171.278 94.5073 171.623Z" fill="#DBDBDB"/>
<path d="M116.63 167.263C118.028 166.791 119.434 166.363 120.846 165.979C121.203 165.883 121.555 165.787 121.917 165.702C122.096 165.66 122.273 165.619 122.466 165.589L123.012 165.513L125.193 165.215C126.648 165.014 128.105 164.834 129.561 164.645C131.016 164.456 132.476 164.28 133.932 164.113C132.485 164.347 131.033 164.578 129.582 164.796C128.13 165.014 126.678 165.241 125.227 165.442L123.045 165.756L122.5 165.832C122.332 165.866 122.151 165.908 121.976 165.954L120.909 166.214C119.487 166.58 118.077 166.941 116.63 167.263Z" fill="#DBDBDB"/>
<path d="M115.346 165.968C116.714 165.581 118.093 165.236 119.483 164.931C120.179 164.776 120.867 164.612 121.581 164.512L123.678 164.21C125.084 164.004 126.494 163.819 127.904 163.626C129.313 163.433 130.718 163.257 132.133 163.085C130.731 163.324 129.33 163.559 127.937 163.782C126.544 164.004 125.13 164.23 123.742 164.436L121.644 164.755C121.296 164.801 120.956 164.881 120.608 164.952L119.563 165.162C118.156 165.458 116.75 165.727 115.346 165.968Z" fill="#DBDBDB"/>
<path d="M114.092 164.801C115.456 164.428 116.824 164.083 118.204 163.785C118.896 163.634 119.58 163.47 120.301 163.366L122.399 163.122C123.8 162.959 125.206 162.812 126.595 162.665C127.984 162.519 129.405 162.38 130.811 162.246C129.414 162.447 128.013 162.64 126.616 162.816C125.219 162.993 123.817 163.181 122.421 163.349C121.724 163.433 121.014 163.513 120.323 163.605L118.254 164.024C116.875 164.307 115.488 164.566 114.092 164.801Z" fill="#DBDBDB"/>
<path d="M113.01 163.907C114.336 163.391 115.687 162.963 117.058 162.577C117.23 162.527 117.403 162.485 117.579 162.447C117.757 162.409 117.938 162.382 118.119 162.367L119.181 162.271L121.3 162.09C124.128 161.859 126.959 161.645 129.792 161.466C126.968 161.772 124.145 162.044 121.321 162.304L119.202 162.502L118.145 162.606C117.8 162.646 117.458 162.715 117.125 162.816C115.754 163.194 114.394 163.601 113.01 163.907Z" fill="#DBDBDB"/>
<path d="M111.831 162.863C113.157 162.347 114.512 161.919 115.879 161.533C116.052 161.483 116.224 161.44 116.4 161.403C116.578 161.364 116.759 161.338 116.941 161.323L118.002 161.227L120.122 161.046C122.954 160.815 125.781 160.601 128.613 160.421C125.793 160.727 122.966 160.999 120.143 161.26L118.024 161.457L116.966 161.562C116.621 161.602 116.279 161.671 115.947 161.772C114.579 162.137 113.214 162.54 111.831 162.863Z" fill="#DBDBDB"/>
<path d="M110.652 161.809C111.982 161.297 113.333 160.87 114.7 160.483C114.873 160.433 115.045 160.391 115.225 160.353C115.403 160.314 115.584 160.287 115.767 160.274L116.823 160.177L118.946 159.997C121.774 159.766 124.602 159.552 127.434 159.371C124.615 159.678 121.791 159.95 118.963 160.21L116.865 160.408L115.804 160.513C115.459 160.55 115.117 160.62 114.784 160.722C113.399 161.079 112.039 161.483 110.652 161.809Z" fill="#DBDBDB"/>
<path d="M109.477 160.744C110.803 160.232 112.154 159.8 113.525 159.414C113.698 159.368 113.87 159.325 114.046 159.288C114.224 159.247 114.405 159.22 114.587 159.208L115.648 159.112L117.768 158.927C120.595 158.7 123.428 158.483 126.259 158.306C123.436 158.612 120.612 158.881 117.789 159.146L115.67 159.343L114.612 159.444C114.265 159.485 113.923 159.556 113.589 159.658C112.204 160.022 110.861 160.425 109.477 160.744Z" fill="#DBDBDB"/>
<path d="M107.904 159.817C109.229 159.3 110.581 158.873 111.952 158.487C112.124 158.441 112.297 158.394 112.472 158.357C112.651 158.317 112.832 158.291 113.013 158.281L114.075 158.185L116.194 158C119.022 157.773 121.853 157.555 124.686 157.375C121.862 157.681 119.039 157.954 116.215 158.213L114.096 158.407L113.039 158.512C112.692 158.552 112.349 158.621 112.016 158.722C110.648 159.095 109.288 159.498 107.904 159.817Z" fill="#DBDBDB"/>
<path d="M106.372 158.901C107.698 158.385 109.053 157.958 110.42 157.572C110.593 157.522 110.765 157.48 110.941 157.441C111.12 157.403 111.3 157.376 111.482 157.362L112.543 157.265L114.667 157.085C117.495 156.854 120.323 156.641 123.154 156.46C120.334 156.766 117.507 157.039 114.684 157.299L112.565 157.496L111.507 157.601C111.162 157.64 110.821 157.71 110.488 157.811C109.12 158.176 107.756 158.583 106.372 158.901Z" fill="#DBDBDB"/>
<path d="M105.197 157.845C106.519 157.329 107.87 156.901 109.238 156.515C109.409 156.469 109.581 156.422 109.758 156.389C109.935 156.346 110.117 156.319 110.3 156.31L111.361 156.23L113.479 156.082C116.306 155.906 119.135 155.742 121.967 155.617C119.143 155.869 116.32 156.087 113.496 156.31L111.378 156.469L110.32 156.557C109.976 156.593 109.636 156.662 109.305 156.762C107.937 157.123 106.578 157.526 105.197 157.845Z" fill="#DBDBDB"/>
<path d="M104.02 156.775C105.342 156.263 106.687 155.835 108.055 155.453C108.228 155.403 108.395 155.361 108.572 155.323C108.751 155.28 108.933 155.254 109.117 155.248L110.178 155.185L112.297 155.079C115.12 154.957 117.946 154.86 120.777 154.79C117.953 154.984 115.13 155.143 112.306 155.307L110.208 155.424L109.15 155.491C108.806 155.527 108.466 155.597 108.136 155.7C106.75 156.066 105.4 156.464 104.02 156.775Z" fill="#DBDBDB"/>
<path d="M102.84 155.725C104.161 155.214 105.504 154.786 106.867 154.404C107.039 154.354 107.211 154.311 107.387 154.273C107.565 154.229 107.746 154.205 107.929 154.203L108.991 154.169L111.109 154.136C112.518 154.136 113.933 154.136 115.343 154.11C116.752 154.085 118.166 154.11 119.58 154.136C116.756 154.228 113.933 154.29 111.114 154.357L109.016 154.407L107.958 154.446C107.616 154.481 107.279 154.55 106.951 154.651C105.571 155.009 104.233 155.408 102.84 155.725Z" fill="#DBDBDB"/>
<path d="M95.8418 173.058C97.3609 172.638 98.8837 172.273 100.406 171.9C101.929 171.527 103.461 171.174 104.988 170.813C105.756 170.637 106.515 170.469 107.3 170.314L109.62 169.92C111.168 169.672 112.716 169.425 114.273 169.211C112.737 169.542 111.198 169.835 109.657 170.133L107.342 170.554C106.587 170.708 105.815 170.902 105.051 171.064L100.457 172.089C98.9213 172.424 97.386 172.752 95.8418 173.058Z" fill="#DBDBDB"/>
<path d="M117.558 168.489C119.085 168.116 120.625 167.767 122.173 167.423C123.721 167.079 125.252 166.764 126.788 166.437C127.561 166.273 128.328 166.122 129.116 165.984L131.45 165.639C133.01 165.422 134.571 165.22 136.136 165.023C134.587 165.321 133.035 165.585 131.483 165.862L129.15 166.235C128.387 166.374 127.611 166.55 126.839 166.698L122.223 167.624C120.654 167.913 119.106 168.211 117.558 168.489Z" fill="#DBDBDB"/>
<path d="M151.644 102.883C159.51 110.582 160.827 122.494 159.171 132.926C159.126 133.162 158.763 133.097 158.763 132.876C158.763 130.502 158.836 128.147 158.826 125.802C158.782 125.694 158.747 125.591 158.704 125.487C156.653 124.013 154.771 122.307 153.595 119.996C152.283 117.416 151.766 114.5 150.763 111.802C150.67 111.546 150.945 111.619 151.127 111.752C155.906 115.282 157.435 119.077 158.806 124.151C158.779 121.496 158.499 118.852 157.971 116.25C156.938 111.437 154.893 106.669 151.437 103.095C151.309 102.957 151.511 102.751 151.644 102.883Z" fill="#263238"/>
<path d="M150.168 103.774C148.816 103.817 147.966 105.981 146.914 106.61C146.477 106.959 145.84 106.887 145.491 106.45C145.472 106.427 145.455 106.403 145.439 106.379C144.392 104.905 145.827 103.12 147.174 102.117C146.191 102.509 145.409 103.208 144.371 103.404C143.854 103.569 143.302 103.282 143.138 102.764C143.125 102.726 143.116 102.688 143.108 102.647C142.647 100.657 145.144 99.7763 146.855 99.7324C146.024 99.1571 143.644 97.5888 144.889 96.8176C146.132 96.0455 148.958 98.292 149.868 99.0247C151.206 100.111 152.818 101.728 152.862 103.449C152.941 105.415 151.206 104.196 150.168 103.774Z" fill="#FFC727"/>
<g opacity="0.1">
<g opacity="0.1">
<path opacity="0.1" d="M150.168 103.774C148.816 103.817 147.966 105.981 146.914 106.61C146.477 106.959 145.84 106.887 145.491 106.45C145.472 106.427 145.455 106.403 145.439 106.379C144.392 104.905 145.827 103.12 147.174 102.117C146.191 102.509 145.409 103.208 144.371 103.404C143.854 103.569 143.302 103.282 143.138 102.764C143.125 102.726 143.116 102.688 143.108 102.647C142.647 100.657 145.144 99.7763 146.855 99.7324C146.024 99.1571 143.644 97.5888 144.889 96.8176C146.132 96.0455 148.958 98.292 149.868 99.0247C151.206 100.111 152.818 101.728 152.862 103.449C152.941 105.415 151.206 104.196 150.168 103.774Z" fill="black"/>
</g>
</g>
<path d="M150.556 104.117C148.83 103.331 145.507 104.462 145.222 103.808C144.652 102.475 147.307 101.561 148.737 101.384C147.42 101.025 144.888 100.454 144.966 99.1813C145.06 97.6281 148.845 98.9657 150.763 100.435C153.176 102.284 153.157 104.068 152.759 104.427C152.213 104.919 150.841 104.265 150.556 104.117Z" fill="white"/>
<path d="M169.553 102.121C161.403 109.496 159.633 121.368 160.891 131.854C160.925 132.094 161.295 132.041 161.299 131.82C161.392 129.45 161.407 127.095 161.506 124.75C161.555 124.642 161.594 124.543 161.638 124.441C163.748 123.025 165.695 121.412 166.952 119.146C168.363 116.619 168.988 113.738 170.094 111.069C170.197 110.813 169.922 110.877 169.736 111.005C164.819 114.348 163.153 118.084 161.589 123.104C161.72 120.452 162.099 117.818 162.72 115.238C163.939 110.469 166.161 105.779 169.755 102.338C169.814 102.282 169.818 102.188 169.763 102.128C169.706 102.069 169.613 102.066 169.553 102.121Z" fill="#263238"/>
<path d="M170.997 103.075C172.344 103.173 173.111 105.366 174.139 106.025C174.554 106.395 175.191 106.359 175.562 105.944C175.589 105.914 175.615 105.881 175.638 105.847C176.739 104.431 175.378 102.578 174.065 101.521C175.014 101.954 175.786 102.681 176.818 102.917C177.329 103.102 177.893 102.837 178.077 102.327C178.09 102.288 178.102 102.249 178.111 102.21C178.647 100.242 176.189 99.26 174.478 99.1562C175.328 98.6105 177.766 97.1361 176.533 96.3148C175.299 95.4944 172.408 97.6282 171.474 98.3305C170.097 99.3629 168.441 100.927 168.318 102.618C168.161 104.603 169.94 103.454 170.997 103.075Z" fill="#FFC727"/>
<g opacity="0.1">
<g opacity="0.1">
<path opacity="0.1" d="M170.997 103.075C172.344 103.173 173.111 105.366 174.139 106.025C174.554 106.395 175.191 106.359 175.562 105.944C175.589 105.914 175.615 105.881 175.638 105.847C176.739 104.431 175.378 102.578 174.065 101.521C175.014 101.954 175.786 102.681 176.818 102.917C177.329 103.102 177.893 102.837 178.077 102.327C178.09 102.288 178.102 102.249 178.111 102.21C178.647 100.242 176.189 99.26 174.478 99.1562C175.328 98.6105 177.766 97.1361 176.533 96.3148C175.299 95.4944 172.408 97.6282 171.474 98.3305C170.097 99.3629 168.441 100.927 168.318 102.618C168.161 104.603 169.94 103.454 170.997 103.075Z" fill="black"/>
</g>
</g>
<path d="M170.59 103.394C172.35 102.677 175.628 103.93 175.934 103.286C176.558 101.978 173.938 100.966 172.492 100.734C173.825 100.425 176.376 99.9534 176.347 98.6794C176.312 97.1209 172.477 98.3108 170.506 99.7074C168.048 101.467 167.975 103.247 168.357 103.64C168.909 104.132 170.3 103.513 170.59 103.394Z" fill="white"/>
<path d="M161.22 121.648C160.669 125.603 159.822 129.511 158.688 133.339C158.657 133.496 158.504 133.598 158.347 133.568C158.189 133.537 158.087 133.384 158.118 133.226C158.654 129.622 159.627 126.088 160.163 122.485C160.748 118.84 160.959 115.145 160.792 111.457C160.449 105.386 158.802 98.9308 154.839 94.1774C154.751 94.0638 154.938 93.9072 155.026 94.0101C162.956 103.282 161.692 114.588 161.687 115.611C162.808 111.787 163.968 107.396 168.215 103.498C168.398 103.331 168.54 103.41 168.511 103.695C167.748 110.799 165.777 114.51 161.657 118.3C161.544 119.427 161.411 120.548 161.22 121.648Z" fill="#263238"/>
<path d="M154.765 95.2439C153.339 94.6096 151.372 96.423 149.961 96.551C149.21 96.6154 148.659 96.3202 148.526 95.5677C148.177 93.5279 150.572 92.3872 152.459 92.0186C151.26 91.9443 150.079 92.2646 148.905 91.9497C148.284 91.8611 147.853 91.2858 147.941 90.6649C147.948 90.6175 147.958 90.5701 147.971 90.5245C148.497 88.2332 151.53 88.558 153.324 89.3891C152.754 88.371 151.077 85.5492 152.779 85.3819C154.479 85.2146 156.259 88.9561 156.834 90.18C157.675 91.9792 158.511 94.4619 157.719 96.2513C156.82 98.3358 155.634 96.1976 154.765 95.2439Z" fill="#FFC727"/>
<g opacity="0.1">
<g opacity="0.1">
<path opacity="0.1" d="M154.765 95.2439C153.339 94.6096 151.372 96.423 149.961 96.551C149.21 96.6154 148.659 96.3202 148.526 95.5677C148.177 93.5279 150.572 92.3872 152.459 92.0186C151.26 91.9443 150.079 92.2646 148.905 91.9497C148.284 91.8611 147.853 91.2858 147.941 90.6649C147.948 90.6175 147.958 90.5701 147.971 90.5245C148.497 88.2332 151.53 88.558 153.324 89.3891C152.754 88.371 151.077 85.5492 152.779 85.3819C154.479 85.2146 156.259 88.9561 156.834 90.18C157.675 91.9792 158.511 94.4619 157.719 96.2513C156.82 98.3358 155.634 96.1976 154.765 95.2439Z" fill="black"/>
</g>
</g>
<path d="M155.021 95.7842C153.62 94.0987 149.613 93.6021 149.613 92.7808C149.691 91.1087 152.907 91.497 154.48 92.0338C153.295 91.0013 150.955 89.1324 151.677 87.8548C152.558 86.2864 155.812 89.5806 157.06 92.0678C158.629 95.2045 157.715 97.0484 157.125 97.2148C156.319 97.451 155.237 96.0643 155.021 95.7842Z" fill="white"/>
<path d="M166.436 123.787L169.935 150.51H148.629C149.066 148.146 153.029 123.757 153.029 123.757L166.436 123.787Z" fill="#FFC727"/>
<path d="M0.078125 150.543L23.0291 150.426L45.9756 150.383L91.8694 150.305L137.761 150.383L160.712 150.426L183.658 150.543L160.712 150.663L137.761 150.707L91.8694 150.785L45.9756 150.707L23.0291 150.663L0.078125 150.543Z" fill="#263238"/>
<path d="M123.906 58.591C132.604 58.591 139.655 65.6428 139.655 74.3408C139.655 83.0397 132.604 90.0906 123.906 90.0906C115.208 90.0906 108.156 83.0397 108.156 74.3408C108.156 65.6428 115.207 58.591 123.906 58.591Z" fill="white"/>
<path d="M123.906 93.0027C113.609 93.0054 105.259 84.659 105.256 74.3623C105.255 64.0646 113.6 55.7156 123.898 55.7129C134.194 55.7102 142.544 64.0566 142.546 74.3533V74.3623C142.535 84.6528 134.196 92.9911 123.906 93.0027ZM123.906 56.1369C113.841 56.1343 105.679 64.2928 105.677 74.3578C105.674 84.4237 113.832 92.5849 123.898 92.5876C133.964 92.5903 142.125 84.4318 142.127 74.3658V74.3623C142.127 64.2945 133.973 56.1298 123.906 56.1164V56.1369Z" fill="white"/>
<path d="M42.9783 4.08864C51.1726 1.17023 60.181 5.44854 63.0985 13.6428C66.0169 21.8371 61.7395 30.8455 53.5452 33.763C45.3501 36.6815 36.3425 32.4031 33.4241 24.2089C30.5066 16.0146 34.7831 7.00616 42.9783 4.08864Z" fill="white"/>
<path d="M48.26 36.8917C38.3363 36.8917 30.2905 28.8459 30.2905 18.9223C30.2905 8.99769 38.3363 0.952823 48.26 0.952823C58.1845 0.952823 66.2294 8.99769 66.2294 18.9223C66.2205 28.8433 58.1801 36.8828 48.26 36.8917ZM48.26 1.37242C38.568 1.37242 30.7101 9.22941 30.7101 18.9223C30.7101 28.6151 38.568 36.4721 48.26 36.4721C57.9528 36.4721 65.8098 28.6151 65.8098 18.9223C65.7991 9.23478 57.9483 1.38405 48.26 1.37242Z" fill="white"/>
<path d="M148.269 49.7589C148.998 45.2971 153.205 42.2705 157.666 42.9987C162.129 43.727 165.155 47.9346 164.427 52.3963C163.699 56.8581 159.491 59.8847 155.029 59.1565C150.568 58.4282 147.541 54.2206 148.269 49.7589Z" fill="white"/>
<path d="M156.358 61.9183C150.375 61.9183 145.525 57.0683 145.525 51.0848C145.525 45.1021 150.375 40.2521 156.358 40.2521C162.341 40.2521 167.191 45.1021 167.191 51.0848C167.182 57.0638 162.337 61.9085 156.358 61.9183ZM156.358 40.6717C150.607 40.6717 145.945 45.3338 145.945 51.0848C145.945 56.8357 150.607 61.4987 156.358 61.4987C162.109 61.4987 166.771 56.8357 166.771 51.0848C166.764 45.3365 162.106 40.6788 156.358 40.6717Z" fill="white"/>
<path d="M42.4695 80.3315C45.6661 77.1348 50.849 77.1348 54.0456 80.3315C57.2423 83.5282 57.2423 88.711 54.0456 91.9076C50.849 95.1043 45.6661 95.1043 42.4695 91.9076C39.2719 88.711 39.2719 83.5282 42.4695 80.3315Z" fill="white"/>
<path d="M48.2596 96.644C42.446 96.644 37.7329 91.9309 37.7329 86.1173C37.7329 80.3038 42.446 75.5907 48.2596 75.5907C54.074 75.5907 58.7863 80.3038 58.7863 86.1173C58.7818 91.9291 54.0714 96.6395 48.2596 96.644ZM48.2596 76.0103C42.6777 76.0103 38.1525 80.5355 38.1525 86.1173C38.1525 91.6992 42.6777 96.2244 48.2596 96.2244C53.8414 96.2244 58.3667 91.6992 58.3667 86.1173C58.3604 80.5382 53.8387 76.0183 48.2596 76.0103Z" fill="white"/>
<path d="M85.7722 2.55518C90.293 2.55518 93.9576 6.21975 93.9576 10.7405C93.9576 15.2613 90.293 18.9258 85.7722 18.9258C81.2515 18.9258 77.5869 15.2613 77.5869 10.7405C77.5869 6.21975 81.2515 2.55518 85.7722 2.55518Z" fill="white"/>
<path d="M85.7723 21.481C79.8406 21.481 75.0317 16.6722 75.0317 10.7405C75.0317 4.80885 79.8406 0 85.7723 0C91.7039 0 96.5128 4.80885 96.5128 10.7405C96.5065 16.6695 91.7012 21.4739 85.7723 21.481ZM85.7723 0.4196C80.0723 0.4196 75.4514 5.04057 75.4514 10.7405C75.4514 16.4405 80.0723 21.0614 85.7723 21.0614C91.4722 21.0614 96.0932 16.4405 96.0932 10.7405C96.086 5.04325 91.4695 0.426757 85.7723 0.4196Z" fill="white"/>
<path d="M6.62911 53.7437C8.30304 43.1982 18.2088 36.0069 28.7534 37.6808C39.2998 39.3547 46.4911 49.2605 44.8172 59.806C43.1424 70.3515 33.2375 77.5428 22.692 75.8689C12.1465 74.195 4.95519 64.2892 6.62911 53.7437Z" fill="white"/>
<path d="M25.7208 78.5869C13.6723 78.5869 3.9043 68.8189 3.9043 56.7704C3.9043 44.721 13.6723 34.953 25.7208 34.953C37.7702 34.953 47.5373 44.721 47.5373 56.7704C47.5373 68.8189 37.7702 78.5869 25.7208 78.5869ZM25.7208 35.3726C13.904 35.3726 4.32391 44.9527 4.32391 56.7704C4.32391 68.5872 13.904 78.1673 25.7208 78.1673C37.5385 78.1673 47.1178 68.5872 47.1178 56.7704C47.1115 44.9572 37.5332 35.3851 25.7208 35.3851V35.3726Z" fill="white"/>
<path d="M127.736 5.21503C138.414 5.21503 147.069 13.871 147.069 24.548C147.069 35.2249 138.414 43.8809 127.736 43.8809C117.058 43.8809 108.403 35.2249 108.403 24.548C108.403 13.871 117.058 5.21503 127.736 5.21503Z" fill="white"/>
<path d="M127.728 46.7545C115.464 46.7572 105.518 36.8166 105.517 24.5524C105.514 12.2874 115.455 2.34314 127.72 2.34046C139.984 2.33867 149.928 12.2793 149.93 24.5435V24.548C149.914 36.804 139.984 46.7367 127.728 46.7545ZM127.728 2.76453C115.694 2.76274 105.939 12.5146 105.936 24.548C105.934 36.5804 115.686 46.3376 127.72 46.3394C139.752 46.3421 149.508 36.5893 149.511 24.556V24.548C149.492 12.5254 139.75 2.78332 127.728 2.76453Z" fill="white"/>
<path d="M47.3203 56.7784C49.1955 56.7239 51.0708 56.6782 52.9469 56.6523C54.8221 56.6272 56.7224 56.5932 58.577 56.5932L58.476 56.6237L63.4396 53.376L68.4328 50.1749C70.1103 49.1004 71.7886 48.0769 73.467 47.0033C75.1454 45.9288 76.8239 44.9053 78.5014 43.8809C76.8677 45.0001 75.2305 46.1095 73.5887 47.2081C71.9399 48.2987 70.3035 49.4072 68.6421 50.4853L63.6785 53.7285L58.6773 56.9216L58.6316 56.9502H58.577C56.7018 56.9502 54.8266 56.909 52.9469 56.8876C51.0663 56.867 49.1955 56.8285 47.3203 56.7784Z" fill="white"/>
<path d="M53.4663 76.9586C54.9094 75.1684 56.3641 73.3853 57.8296 71.6094C59.2986 69.8343 60.7668 68.0593 62.2439 66.3013L66.6904 61.0201L71.1718 55.771L71.2264 55.7039H71.3051L77.2592 55.771L80.2384 55.8211L83.2168 55.8838L80.2384 55.9518L77.2592 56.0019L71.3051 56.0645L71.4438 56.0019L67.0053 61.2876L62.5284 66.5411C61.0388 68.2991 59.5286 70.0312 58.0229 71.7731C56.5162 73.5141 54.9729 75.239 53.4663 76.9586Z" fill="white"/>
<path d="M61.3164 31.1515C62.4786 32.2045 63.6157 33.279 64.7403 34.3652C65.864 35.4522 66.9761 36.5517 68.0962 37.6468L67.954 37.5878H70.8366L73.7228 37.6128C75.6445 37.6504 77.5663 37.6889 79.4871 37.7855C77.5663 37.8812 75.6445 37.9188 73.7228 37.9564L70.8366 37.9823H67.954H67.8654L67.8108 37.9233C66.7166 36.8031 65.6046 35.7036 64.5301 34.5665C63.4565 33.4302 62.3694 32.3146 61.3164 31.1515Z" fill="white"/>
<path d="M85.7717 21.2591C85.8603 22.4168 85.8979 23.5754 85.931 24.7331C85.965 25.8909 85.9775 27.053 85.9811 28.2116C85.9855 29.3693 85.9811 30.527 85.931 31.6892L85.8764 33.4267C85.8388 34.0055 85.8182 34.5844 85.7717 35.1632C85.7261 34.5844 85.7046 34.0055 85.667 33.4267L85.6125 31.6892C85.5704 30.527 85.5668 29.3693 85.5624 28.2116C85.5579 27.053 85.5624 25.8909 85.6125 24.7331C85.6626 23.5754 85.684 22.4303 85.7717 21.2591Z" fill="white"/>
<path d="M91.416 52.1673C95.943 52.0832 100.47 52.0412 104.997 52.008L118.577 51.9579L132.159 52.008L138.947 52.0671L145.735 52.1673L138.947 52.272L132.159 52.331L118.577 52.3767L104.997 52.331C100.457 52.306 95.943 52.2559 91.416 52.1673Z" fill="white"/>
<path d="M106.708 67.6988C104.803 67.7829 102.894 67.8249 100.989 67.858H100.922L100.872 67.8043C99.8607 66.7173 98.8792 65.5972 97.8843 64.4932C96.8904 63.39 95.9125 62.2699 94.9471 61.1373L93.479 59.4589L92.0359 57.7805C91.0669 56.6523 90.1186 55.5071 89.1792 54.353C90.2108 55.4212 91.2289 56.5056 92.2327 57.6042L93.7483 59.2406L95.237 60.919C96.2274 62.0266 97.2259 63.1261 98.1993 64.2507C99.1727 65.3744 100.167 66.482 101.136 67.6066L101.018 67.552C102.894 67.578 104.803 67.6191 106.708 67.6988Z" fill="white"/>
<path d="M105.991 27.8672C104.732 27.9298 103.436 27.9763 102.161 28.0014C100.885 28.0264 99.6096 28.0559 98.3347 28.0595L98.4689 28.005C97.7684 28.6813 97.0804 29.3693 96.3709 30.0278L94.2479 32.0247C92.8218 33.3426 91.3867 34.655 89.9141 35.9264C91.2444 34.5083 92.6205 33.1368 94.0009 31.7644L96.098 29.7335C96.7905 29.0544 97.508 28.3959 98.196 27.724L98.2506 27.6739H98.3302C99.589 27.6739 100.881 27.6739 102.157 27.7285C103.433 27.7831 104.715 27.8001 105.991 27.8672Z" fill="white"/>
<path d="M51.2596 11.1896C48.9156 10.1151 46.143 11.1449 45.0685 13.4889C44.1953 15.3946 44.699 17.6491 46.3005 19.0019C46.627 19.2766 46.9876 19.5083 47.3741 19.6899C47.9842 19.9672 48.6472 20.1113 49.3173 20.1095H49.7369C52.3073 19.901 54.2219 17.6483 54.0134 15.0779C53.8756 13.3753 52.8199 11.8848 51.2596 11.1896ZM53.3576 17.294C52.3404 19.5324 49.7002 20.521 47.4626 19.502C47.4591 19.5002 47.4546 19.4984 47.451 19.4966C47.0797 19.3249 46.7326 19.1048 46.4185 18.8426C44.5388 17.2465 44.3098 14.4292 45.905 12.5504C46.3998 11.968 47.0341 11.5233 47.7489 11.2567C48.8547 10.8407 50.0813 10.8846 51.1549 11.3784C53.4059 12.4019 54.3999 15.0564 53.3764 17.3065C53.3764 17.3083 53.3755 17.3101 53.3746 17.311L53.3576 17.294ZM51.2596 11.1896C48.9156 10.1151 46.143 11.1449 45.0685 13.4889C44.1953 15.3946 44.699 17.6491 46.3005 19.0019C46.627 19.2766 46.9876 19.5083 47.3741 19.6899C47.9842 19.9672 48.6472 20.1113 49.3173 20.1095H49.7369C52.3073 19.901 54.2219 17.6483 54.0134 15.0779C53.8756 13.3753 52.8199 11.8848 51.2596 11.1896ZM53.3576 17.294C52.3404 19.5324 49.7002 20.521 47.4626 19.502C47.4591 19.5002 47.4546 19.4984 47.451 19.4966C47.0797 19.3249 46.7326 19.1048 46.4185 18.8426C44.5388 17.2465 44.3098 14.4292 45.905 12.5504C46.3998 11.968 47.0341 11.5233 47.7489 11.2567C48.8547 10.8407 50.0813 10.8846 51.1549 11.3784C53.4059 12.4019 54.3999 15.0564 53.3764 17.3065C53.3764 17.3083 53.3755 17.3101 53.3746 17.311L53.3576 17.294ZM55.3259 13.1955C55.0325 12.4028 54.5842 11.6772 54.008 11.0599C52.2357 9.15694 49.4926 8.5092 47.0565 9.41908C43.7301 10.6591 42.0392 14.3603 43.2783 17.6867C43.7355 18.9133 44.5559 19.9699 45.6304 20.7179L44.7911 22.5349L44.7026 22.7228L47.5351 24.0362L47.6228 23.8474L48.5586 21.8255C52.0836 22.2415 55.2794 19.7212 55.6954 16.1962C55.8153 15.1808 55.6918 14.1528 55.3339 13.1955H55.3259ZM54.9564 18.024C53.8309 20.5112 51.2095 21.9668 48.504 21.6072H48.4244L47.443 23.7767L44.9924 22.6396L45.9158 20.6633L45.8433 20.6132C42.9937 18.6932 42.2396 14.8265 44.1595 11.976C46.0786 9.12652 49.9454 8.37142 52.7958 10.2914C55.3214 11.993 56.2447 15.272 54.977 18.041L54.9564 18.024Z" fill="#455A64"/>
<path d="M55.1451 13.2867C53.9417 10.0713 50.3595 8.43853 47.1431 9.64186C43.9268 10.8443 42.294 14.4274 43.4974 17.6438C43.9501 18.8543 44.7687 19.893 45.8396 20.6168L45.9103 20.6669L44.9915 22.6432L47.442 23.7767L48.4324 21.6152H48.512C51.9198 22.0554 55.0395 19.6496 55.4797 16.2418C55.6085 15.2443 55.494 14.2306 55.1451 13.2867ZM53.5633 17.4031C52.8664 18.9214 51.4125 19.9529 49.7493 20.1095H49.3297C48.6596 20.1104 47.9976 19.9672 47.3874 19.6899C47.0009 19.5083 46.6395 19.2766 46.3129 19.0019C44.3446 17.3351 44.0995 14.389 45.7662 12.4207C47.4321 10.4515 50.3792 10.2073 52.3474 11.8732C53.9462 13.2268 54.4481 15.4787 53.5758 17.3825L53.5633 17.4031Z" fill="#455A64"/>
<path d="M47.6321 23.8644L47.4434 23.7767L44.9929 22.6396L44.7996 22.551L44.2378 22.2952L41.1914 28.8612L45.0975 30.6362L48.1349 24.0988L47.6321 23.8644ZM45.0054 30.3588L41.4768 28.7601L44.3469 22.5716L44.711 22.7398L47.5436 24.0532L47.8621 24.1999L45.0054 30.3588Z" fill="#455A64"/>
<path d="M129.381 64.9172C128.495 63.4088 126.554 62.9051 125.046 63.7908C123.537 64.6775 123.033 66.6189 123.919 68.1273C123.948 68.1765 123.979 68.2257 124.011 68.274C124.091 68.3921 124.179 68.504 124.275 68.6095L124.3 68.6391L127.481 69.5319H127.509C127.654 69.4917 127.793 69.4407 127.93 69.3816C129.524 68.6614 130.233 66.7853 129.514 65.191C129.474 65.1051 129.432 65.0201 129.386 64.9387L129.381 64.9172ZM129.406 67.2541C129.145 68.2016 128.418 68.9495 127.481 69.2385L124.451 68.3993C123.392 67.2013 123.505 65.3717 124.704 64.3133C125.902 63.2549 127.73 63.3677 128.79 64.5656C129.256 65.0917 129.514 65.7708 129.515 66.474C129.515 66.7388 129.479 67.0009 129.406 67.2541Z" fill="#455A64"/>
<path d="M129.515 66.4614C129.516 66.7298 129.479 66.9964 129.406 67.2541C129.145 68.2016 128.418 68.9495 127.481 69.2385L124.451 68.4002C123.392 67.2022 123.505 65.3726 124.704 64.3133C125.901 63.2549 127.73 63.3677 128.79 64.5656C129.255 65.0926 129.513 65.7708 129.515 66.474V66.4614Z" fill="#455A64"/>
<path d="M127.925 69.3611L127.48 69.2394L124.451 68.4002L124.01 68.2785L122.752 67.9215L122.429 69.0801L122.995 69.2394L123.259 69.3101L128.046 70.653L128.31 70.729L128.881 70.8883L129.204 69.7306L127.925 69.3611ZM128.681 70.5358L128.375 70.4517L123.059 68.962L122.753 68.8744L122.929 68.2445L124.3 68.631L127.489 69.5203L128.857 69.9059L128.681 70.5358Z" fill="#455A64"/>
<path d="M127.703 82.5557L127.342 82.4501L117.692 79.7482L117.332 79.6435L116.115 79.3035L115.791 80.4621L116.257 80.5919L116.521 80.6679L128.147 83.9191L128.617 84.0489L128.94 82.8947L127.703 82.5557ZM128.408 83.7134L128.202 83.6552L116.337 80.3315L116.131 80.2733L116.308 79.6435L117 79.8368L127.908 82.8912L128.6 83.0835L128.408 83.7134Z" fill="#455A64"/>
<path d="M127.752 85.2656L127.488 85.1905L116.159 82.0144L115.896 81.9392L115.429 81.8086L115.106 82.9627L127.907 86.5539L128.23 85.3953L127.752 85.2656ZM127.707 86.214L115.43 82.774L115.607 82.1441L115.809 82.1987L127.677 85.526L127.879 85.5805L127.707 86.214Z" fill="#455A64"/>
<path d="M116.337 80.3279L116.262 80.5874L115.884 81.9348L115.808 82.1942L127.678 85.5215L127.753 85.2576L128.127 83.9102L128.202 83.6463L116.337 80.3279ZM127.866 83.8476L127.489 85.1905L116.161 82.0144L116.538 80.6679L127.866 83.8476Z" fill="#455A64"/>
<path d="M116.533 80.6674L116.156 82.0102L127.494 85.1972L127.871 83.8544L116.533 80.6674Z" fill="#455A64"/>
<path d="M128.048 71.6058L122.736 70.1162L123.059 68.9621L128.375 70.4517L128.048 71.6058ZM123.071 69.9274L127.859 71.2694L128.035 70.6405L123.248 69.2984L123.071 69.9274Z" fill="#455A64"/>
<path d="M127.728 82.6022L127.703 82.5557C127.493 82.1656 126.092 79.418 126.364 76.7537C126.583 74.6092 127.095 72.0039 127.224 71.375C127.224 71.2873 127.254 71.2363 127.254 71.2318L127.279 71.111L123.646 70.0911L123.604 70.2128L123.557 70.347C123.344 70.9473 122.424 73.439 121.497 75.3813C120.348 77.7942 117.721 79.4091 117.336 79.6399L117.285 79.6694L117 79.8332L127.909 82.8876L127.728 82.6022ZM117.701 79.7491C118.481 79.2543 120.68 77.7271 121.745 75.5074C122.685 73.5311 123.612 71.0019 123.817 70.4221L126.96 71.3034C126.834 71.9037 126.31 74.551 126.092 76.7242C125.84 79.1783 126.931 81.6324 127.35 82.451L117.701 79.7491Z" fill="#455A64"/>
<path d="M127.341 82.451L117.691 79.7491C118.472 79.2543 120.671 77.7271 121.736 75.5074C122.676 73.5311 123.603 71.0019 123.809 70.4221L126.951 71.3034C126.825 71.9037 126.301 74.551 126.083 76.7242C125.839 79.1783 126.931 81.6324 127.341 82.451Z" fill="#455A64"/>
<path d="M21.9457 43.5794C21.5852 42.7241 20.9383 42.0209 20.1161 41.5905C19.4147 41.3006 18.622 41.3302 17.943 41.6701C17.2407 41.9385 16.6922 42.5031 16.4453 43.2143C16.1179 44.2253 16.5035 45.3123 16.7558 45.8742C16.7826 45.9386 16.8139 46.0021 16.8479 46.063L17.0322 45.9833L17.0036 45.9207L16.9445 45.7946C16.7057 45.2748 16.3362 44.2208 16.6341 43.277C16.8649 42.6239 17.3713 42.1058 18.0181 41.8589C18.376 41.6925 18.7652 41.6039 19.1597 41.5995C19.4577 41.5977 19.752 41.6594 20.024 41.7793C20.797 42.1891 21.4045 42.8529 21.7444 43.659C21.7444 43.7055 21.7865 43.7467 21.799 43.7842C21.8106 43.8048 21.8196 43.8263 21.8285 43.8478L22.0084 43.7681L21.9457 43.5794Z" fill="#455A64"/>
<path d="M22.0171 43.7717L21.8364 43.8513L17.041 45.9789L16.8567 46.0585L16.8271 45.9968L17.0115 45.9153L21.8069 43.7887L21.9876 43.7091L22.0171 43.7717Z" fill="#455A64"/>
<path d="M17.5232 46.9988L17.3309 47.0829L17.2844 46.9863L17.2423 46.8941L17.1958 46.7975L17.3891 46.7134L17.4347 46.81L17.4767 46.9022L17.5232 46.9988Z" fill="#455A64"/>
<path d="M27.8365 69.3521L27.7444 69.3986L27.6478 69.4407L17.759 48.0134L17.6704 47.8246L17.8637 47.7369L17.9522 47.9301L27.79 69.2474L27.8365 69.3521Z" fill="#455A64"/>
<path d="M22.4914 44.7997L22.3026 44.8838L22.2596 44.7872L22.1675 44.5948L22.3571 44.5107L22.4028 44.6073L22.4448 44.704L22.4914 44.7997Z" fill="#455A64"/>
<path d="M32.8082 67.1539L32.7116 67.196L32.6159 67.2425L32.5649 67.1289L22.7307 45.8116L22.6421 45.6228L22.8309 45.5387L22.9194 45.7275L32.8082 67.1539Z" fill="#455A64"/>
<path d="M21.807 43.7887L17.0116 45.9153L17.0411 45.9789L21.8365 43.8513C21.8285 43.8299 21.8186 43.8084 21.807 43.7887ZM21.807 43.7887L17.0116 45.9153L17.0411 45.9789L21.8365 43.8513C21.8285 43.8299 21.8186 43.8084 21.807 43.7887ZM21.807 43.7887L17.0116 45.9153L17.0411 45.9789L21.8365 43.8513C21.8285 43.8299 21.8186 43.8084 21.807 43.7887ZM22.8225 44.4221L22.3483 43.3986L21.9287 43.5794L21.7354 43.6626L16.9651 45.7901L16.7682 45.8742L16.3486 46.054L16.8228 47.0775L16.8649 47.1706L17.2844 46.9854L17.4768 46.9013L22.2597 44.8042L22.4449 44.7201L22.8645 44.5349L22.8225 44.4221ZM16.634 46.1587L16.8479 46.063L17.0322 45.9833L21.8276 43.8558L22.0083 43.7762L22.2221 43.6796L22.5621 44.4177L22.3358 44.5188L22.147 44.6029L17.3686 46.7L17.1753 46.7841L16.9525 46.8852L16.634 46.1587ZM21.807 43.7887L17.0116 45.9153L17.0411 45.9789L21.8365 43.8513C21.8285 43.8299 21.8186 43.8084 21.807 43.7887ZM21.807 43.7887L17.0116 45.9153L17.0411 45.9789L21.8365 43.8513C21.8285 43.8299 21.8186 43.8084 21.807 43.7887Z" fill="#455A64"/>
<path d="M22.2601 44.7872L22.2135 44.6905L17.4351 46.8091L17.4772 46.9013L17.5237 46.9979L22.3021 44.8999L22.2601 44.7872ZM22.2601 44.7872L22.2135 44.6905L17.4351 46.8091L17.4772 46.9013L17.5237 46.9979L22.3021 44.8999L22.2601 44.7872ZM22.864 44.5197L22.8219 44.423L22.4032 44.6073L22.2135 44.6914L17.4351 46.81L17.2428 46.8941L16.8223 47.0784L16.8643 47.1715L17.3394 48.1994L17.7581 48.0142L17.9513 47.9301L22.7298 45.8321L22.9185 45.7489L23.3381 45.5637L22.864 44.5197ZM22.83 45.5387L22.6412 45.6228L17.8619 47.7208L17.6695 47.8085L17.4467 47.9051L17.1032 47.167L17.3295 47.0659L17.5228 46.9827L22.3012 44.8847L22.49 44.8006L22.7163 44.6995L23.0563 45.4385L22.83 45.5387ZM22.2601 44.7872L22.2135 44.6905L17.4351 46.8091L17.4772 46.9013L17.5237 46.9979L22.3021 44.8999L22.2601 44.7872ZM22.2601 44.7872L22.2135 44.6905L17.4351 46.8091L17.4772 46.9013L17.5237 46.9979L22.3021 44.8999L22.2601 44.7872Z" fill="#455A64"/>
<path d="M32.711 67.196L32.5643 67.1289L31.8432 66.7934L31.8092 66.9106C31.8092 66.9106 31.6839 67.3516 31.6249 67.5655L30.8823 67.2174L30.664 67.9895L29.9295 67.6406L29.7031 68.4172L28.9686 68.0647L28.7422 68.8413L28.0086 68.4932L27.9746 68.6095L27.7894 69.2474C27.7894 69.3145 27.7563 69.3611 27.7527 69.3781V69.3986L27.7188 69.4532L30.8904 71.4886L32.0445 72.2347L32.7781 67.2255L32.711 67.196ZM32.1322 70.1332L32.0275 70.8587L31.8763 71.8867L30.3911 70.9133L27.9916 69.3691C28.0167 69.2859 28.0668 69.1222 28.1589 68.7867L28.8979 69.1392L29.1243 68.3626L29.8579 68.7106L30.0852 67.9341L30.8188 68.2875L31.0371 67.5154L31.7796 67.8589L31.8136 67.7417C31.8136 67.7417 31.9398 67.3221 31.998 67.0868L32.5607 67.3472L32.1322 70.1332Z" fill="#455A64"/>
<path d="M32.1318 70.1287L30.3702 70.9133L30.2109 70.9849L31.9394 72.1005L32.241 70.0831L32.1318 70.1287ZM31.9779 70.4311L31.7811 71.748L30.6484 71.018L31.9779 70.4311Z" fill="#455A64"/>
<path d="M22.7305 45.8116L17.9512 47.9096L27.7899 69.2269L27.975 68.589L28.0082 68.4718L28.7418 68.8207L28.969 68.0441L29.7036 68.3966L29.9299 67.62L30.6635 67.9681L30.8818 67.1969L31.6244 67.5449C31.6835 67.3302 31.8051 66.8989 31.8096 66.89L31.8427 66.7728L32.5647 67.1083L22.7305 45.8116ZM26.0193 62.6269C25.2347 61.0406 24.4966 59.4293 23.7325 57.8315C22.9694 56.2327 22.2644 54.6044 21.5674 52.9806C20.8714 51.3576 20.1753 49.7213 19.5455 48.0599C20.3847 49.6166 21.1908 51.202 21.9754 52.7918C22.7591 54.3825 23.4981 55.9893 24.2613 57.5881C25.0253 59.186 25.7259 60.8098 26.4219 62.4381C27.1189 64.0655 27.8149 65.6974 28.4483 67.3552C27.5966 65.7985 26.8039 64.2167 26.0193 62.6269ZM28.239 61.607C27.4543 60.0171 26.7162 58.4103 25.9522 56.8115C25.189 55.2137 24.4885 53.5854 23.7871 51.9571C23.0866 50.3296 22.3941 48.7013 21.7651 47.0399C22.6044 48.5967 23.4104 50.182 24.1942 51.7727C24.9788 53.3626 25.7178 54.9703 26.481 56.5682C27.245 58.167 27.9455 59.7908 28.6461 61.4182C29.3466 63.0465 30.0346 64.6784 30.668 66.3353C29.8163 64.7786 29.0236 63.2147 28.239 61.607Z" fill="#455A64"/>
<path d="M85.248 8.67203C85.248 9.70806 84.4088 10.5473 83.3728 10.5473C82.3368 10.5473 81.4976 9.70806 81.4976 8.67203C81.4976 7.63601 82.3368 6.79681 83.3728 6.79681C84.4088 6.79681 85.248 7.6369 85.248 8.67203Z" fill="#455A64"/>
<path d="M86.6118 13.8414V14.5464H80.1299V13.8414C80.1943 12.0521 81.6973 10.6528 83.4876 10.7172C85.1865 10.7781 86.5509 12.1425 86.6118 13.8414Z" fill="#455A64"/>
<path d="M90.0517 7.54386C90.0517 8.57988 89.2125 9.41908 88.1765 9.41908C87.1405 9.41908 86.3013 8.57988 86.3013 7.54386C86.3013 6.50872 87.1405 5.66863 88.1765 5.66863C89.2125 5.66863 90.0517 6.50872 90.0517 7.54386Z" fill="#455A64"/>
<path d="M91.4164 12.7124V13.3959H84.9336V12.7124C84.9989 10.9221 86.5019 9.52376 88.2913 9.58728C89.9903 9.64991 91.3555 11.0125 91.4164 12.7124Z" fill="#455A64"/>
<path d="M44.3122 86.29C44.4643 86.1979 44.6549 86.1979 44.807 86.29L44.9376 86.3661L45.0673 86.4287C45.232 86.5038 45.3393 86.6667 45.3447 86.8483L45.3653 87.4602L47.3541 87.3976V86.7892C47.3541 86.6148 47.4489 86.4546 47.6019 86.3696C47.6896 86.324 47.7755 86.2721 47.8569 86.2149C48.0036 86.112 48.1951 86.1003 48.3526 86.1853L48.8894 86.4707L49.8288 84.7163L49.292 84.4273C49.1381 84.3441 49.0423 84.1831 49.0441 84.0077C49.0513 83.9084 49.0513 83.8091 49.0441 83.7098C49.0262 83.5317 49.1113 83.3591 49.2633 83.2651L49.7831 82.9422L48.7346 81.2638L48.2094 81.5867C48.0582 81.6807 47.8668 81.6807 47.7147 81.5867L47.5885 81.5116L47.4588 81.4445C47.2924 81.3693 47.1841 81.2065 47.1779 81.0249V80.412L45.1845 80.4756L45.206 81.083C45.2051 81.2575 45.1103 81.4176 44.9582 81.5035C44.8696 81.5492 44.7864 81.6037 44.7023 81.6583C44.5574 81.763 44.365 81.7755 44.2076 81.6923L43.6708 81.4024L42.7305 83.1605L43.2672 83.4459C43.4193 83.5309 43.5142 83.691 43.5151 83.8655C43.5088 83.9648 43.5088 84.0641 43.5151 84.1634C43.533 84.3405 43.448 84.5132 43.2968 84.608L42.777 84.931L43.8255 86.6094L44.3122 86.29ZM44.8115 83.147C45.2382 82.3526 46.2277 82.0547 47.0213 82.4805C47.8158 82.9073 48.1137 83.8968 47.6869 84.6912C47.2646 85.4777 46.2877 85.7792 45.495 85.3658C44.6978 84.9471 44.3901 83.9603 44.8097 83.1622C44.8106 83.1614 44.8115 83.1605 44.8115 83.1596V83.147Z" fill="#455A64"/>
<path d="M49.1577 88.6779C49.2642 88.7423 49.3259 88.8595 49.317 88.9839V89.1896C49.3259 89.3131 49.2642 89.4321 49.1577 89.4956L48.7847 89.7094L49.4807 90.9056L49.8547 90.6918C49.9611 90.6265 50.0954 90.6265 50.2027 90.6918C50.26 90.7302 50.3208 90.7651 50.3825 90.7965C50.4917 90.8537 50.5615 90.9664 50.5633 91.0899V91.5095H51.9607V91.0899C51.9625 90.9655 52.0341 90.8519 52.145 90.7965C52.2077 90.7651 52.2676 90.7302 52.3258 90.6918C52.4322 90.6265 52.5664 90.6265 52.6738 90.6918L53.0433 90.9056L53.7393 89.6969L53.3663 89.4831C53.2598 89.4187 53.1981 89.3006 53.207 89.1771V89.0715V88.9713C53.1981 88.8461 53.2616 88.7271 53.3699 88.6654L53.7393 88.4506L53.0469 87.2509L52.6774 87.4647C52.5709 87.53 52.4367 87.53 52.3293 87.4647C52.2721 87.4262 52.2112 87.3913 52.1495 87.36C52.0368 87.3037 51.9652 87.1883 51.9643 87.0621V86.6425H50.5677V87.0621C50.5668 87.1874 50.4971 87.3019 50.387 87.36C50.3244 87.3896 50.2636 87.4253 50.2072 87.4647C50.0998 87.53 49.9656 87.53 49.8583 87.4647L49.4852 87.2509L48.7882 88.4641L49.1577 88.6779ZM51.2557 87.9425C51.8883 87.9425 52.4009 88.4551 52.4009 89.0876C52.4009 89.7202 51.8883 90.2337 51.2557 90.2337C50.6232 90.2337 50.1106 89.7202 50.1106 89.0876V89.0832C50.1106 88.4533 50.6214 87.9425 51.2513 87.9425H51.2638H51.2557Z" fill="#455A64"/>
<path d="M159.941 49.0914C159.76 47.3039 158.526 45.5208 156.358 45.5208C154.188 45.5208 152.96 47.3039 152.779 49.0914C152.506 51.856 154.369 54.361 156.358 56.6433C158.355 54.3619 160.214 51.8568 159.941 49.0914ZM156.358 51.0812C155.276 51.0785 154.4 50.1999 154.402 49.1174C154.405 48.0357 155.284 47.1598 156.366 47.1625C157.447 47.1652 158.321 48.0411 158.321 49.1218C158.321 50.2044 157.444 51.0812 156.361 51.0812H156.358Z" fill="#455A64"/>
<path d="M130.815 14.3997H125.257V11.068H130.815V14.3997ZM125.676 13.9801H130.397V11.4876H125.676V13.9801Z" fill="#455A64"/>
<path d="M131.332 10.2968H124.741V12.2015H131.332V10.2968Z" fill="#455A64"/>
<path d="M119.928 18.0571L117.41 15.5404L119.089 13.8414L121.606 16.359L119.928 18.0571ZM118.01 15.5404L119.928 17.4827L121.014 16.3626L119.097 14.4498L118.01 15.5404Z" fill="#455A64"/>
<path d="M118.01 16.664L120.235 14.4391L118.79 12.9942L116.565 15.2191L118.01 16.664Z" fill="#455A64"/>
<path d="M136.144 18.0571L134.445 16.3796L136.962 13.862L138.64 15.561L136.144 18.0571ZM135.041 16.3796L136.144 17.4827L138.057 15.5699L136.958 14.4498L135.041 16.3796Z" fill="#455A64"/>
<path d="M139.514 15.2122L137.289 12.9876L135.844 14.4327L138.07 16.6573L139.514 15.2122Z" fill="#455A64"/>
<path d="M119.87 26.1557H118.271V26.3614H119.87V26.1557Z" fill="#455A64"/>
<path d="M119.542 31.0615L119.643 31.2335L121.019 30.4248L120.918 30.2528L119.542 31.0615Z" fill="#455A64"/>
<path d="M119.63 21.2923L121.011 22.0849L120.909 22.2612L119.525 21.464L119.63 21.2923Z" fill="#455A64"/>
<path d="M123.864 33.2835L124.035 33.3792L123.242 34.7651L123.066 34.6595L123.864 33.2835Z" fill="#455A64"/>
<path d="M123.243 17.7511L124.035 19.1316L123.864 19.2363L123.066 17.8558L123.243 17.7511Z" fill="#455A64"/>
<path d="M128.134 16.4977H127.933V18.0965H128.134V16.4977Z" fill="#455A64"/>
<path d="M128.134 34.4251H127.933V36.0239H128.134V34.4251Z" fill="#455A64"/>
<path d="M128.105 18.6449L128.575 26.8848L127.518 26.8678L127.82 18.6369L128.105 18.6449Z" fill="#455A64"/>
<path d="M132.208 33.2835L133.006 34.6595L132.829 34.7651L132.032 33.3792L132.208 33.2835Z" fill="#455A64"/>
<path d="M132.829 17.7511L133.006 17.8558L132.208 19.2363L132.032 19.1316L132.829 17.7511Z" fill="#455A64"/>
<path d="M135.158 30.2542L136.538 31.0513L136.442 31.2276L135.057 30.4259L135.158 30.2542Z" fill="#455A64"/>
<path d="M135.158 22.2621L135.057 22.0858L136.442 21.2931L136.538 21.4649L135.158 22.2621Z" fill="#455A64"/>
<path d="M136.639 17.2653C136.161 16.8019 135.644 16.3814 135.095 16.0065C130.84 13.089 125.228 13.089 120.972 16.0065C120.426 16.385 119.909 16.8055 119.429 17.2653C114.423 22.0151 114.217 29.9231 118.967 34.9288C123.717 39.9336 131.625 40.1403 136.631 35.3905C141.636 30.6407 141.842 22.7318 137.092 17.727C136.943 17.5686 136.788 17.4147 136.631 17.2653H136.639ZM128.034 36.7826C122.218 36.7843 117.501 32.0721 117.499 26.2559C117.496 20.4396 122.21 15.7229 128.026 15.7211C133.841 15.7185 138.558 20.4316 138.561 26.2478V26.2559C138.561 32.0694 133.847 36.7826 128.034 36.7826Z" fill="#455A64"/>
<path d="M137.798 26.1557H136.199V26.3614H137.798V26.1557Z" fill="#455A64"/>
<path d="M119.87 26.1557H118.271V26.3614H119.87V26.1557Z" fill="#455A64"/>
<path d="M119.542 31.0615L119.643 31.2335L121.019 30.4248L120.918 30.2528L119.542 31.0615Z" fill="#455A64"/>
<path d="M119.63 21.2923L121.011 22.0849L120.909 22.2612L119.525 21.464L119.63 21.2923Z" fill="#455A64"/>
<path d="M123.864 33.2835L124.035 33.3792L123.242 34.7651L123.066 34.6595L123.864 33.2835Z" fill="#455A64"/>
<path d="M123.243 17.7511L124.035 19.1316L123.864 19.2363L123.066 17.8558L123.243 17.7511Z" fill="#455A64"/>
<path d="M128.134 16.4977H127.933V18.0965H128.134V16.4977Z" fill="#455A64"/>
<path d="M128.134 34.4251H127.933V36.0239H128.134V34.4251Z" fill="#455A64"/>
<path d="M128.105 18.6449L128.575 26.8848L127.518 26.8678L127.82 18.6369L128.105 18.6449Z" fill="#455A64"/>
<path d="M132.208 33.2835L133.006 34.6595L132.829 34.7651L132.032 33.3792L132.208 33.2835Z" fill="#455A64"/>
<path d="M132.829 17.7511L133.006 17.8558L132.208 19.2363L132.032 19.1316L132.829 17.7511Z" fill="#455A64"/>
<path d="M135.158 30.2542L136.538 31.0513L136.442 31.2276L135.057 30.4259L135.158 30.2542Z" fill="#455A64"/>
<path d="M135.158 22.2621L135.057 22.0858L136.442 21.2931L136.538 21.4649L135.158 22.2621Z" fill="#455A64"/>
<path d="M136.266 17.6384C135.797 17.175 135.289 16.7536 134.746 16.3796C130.701 13.5211 125.309 13.4594 121.199 16.2239C120.652 16.6033 120.134 17.0247 119.651 17.4827C114.886 22.0277 114.707 29.576 119.252 34.341C123.797 39.1069 131.344 39.2849 136.11 34.74C140.876 30.1951 141.054 22.6477 136.509 17.8827C136.429 17.7986 136.348 17.7154 136.266 17.6339V17.6384ZM128.034 36.7826C122.217 36.7843 117.501 32.0721 117.499 26.2559C117.496 20.4396 122.209 15.7229 128.026 15.7211C133.841 15.7185 138.558 20.4316 138.56 26.2478V26.2559C138.56 32.0694 133.847 36.7826 128.034 36.7826Z" fill="#455A64"/>
<path d="M137.798 26.1557H136.199V26.3614H137.798V26.1557Z" fill="#455A64"/>
<path d="M119.87 26.1557H118.271V26.3614H119.87V26.1557Z" fill="#455A64"/>
<path d="M119.542 31.0615L119.643 31.2335L121.019 30.4248L120.918 30.2528L119.542 31.0615Z" fill="#455A64"/>
<path d="M119.63 21.2923L121.011 22.0849L120.909 22.2612L119.525 21.464L119.63 21.2923Z" fill="#455A64"/>
<path d="M123.864 33.2835L124.035 33.3792L123.242 34.7651L123.066 34.6595L123.864 33.2835Z" fill="#455A64"/>
<path d="M123.243 17.7511L124.035 19.1316L123.864 19.2363L123.066 17.8558L123.243 17.7511Z" fill="#455A64"/>
<path d="M128.134 16.4977H127.933V18.0965H128.134V16.4977Z" fill="#455A64"/>
<path d="M128.134 34.4251H127.933V36.0239H128.134V34.4251Z" fill="#455A64"/>
<path d="M128.105 18.6449L128.575 26.8848L127.518 26.8678L127.82 18.6369L128.105 18.6449Z" fill="#455A64"/>
<path d="M132.208 33.2835L133.006 34.6595L132.829 34.7651L132.032 33.3792L132.208 33.2835Z" fill="#455A64"/>
<path d="M132.829 17.7511L133.006 17.8558L132.208 19.2363L132.032 19.1316L132.829 17.7511Z" fill="#455A64"/>
<path d="M135.158 30.2542L136.538 31.0513L136.442 31.2276L135.057 30.4259L135.158 30.2542Z" fill="#455A64"/>
<path d="M135.158 22.2621L135.057 22.0858L136.442 21.2931L136.538 21.4649L135.158 22.2621Z" fill="#455A64"/>
<path d="M137.798 26.1557H136.199V26.3614H137.798V26.1557Z" fill="#455A64"/>
<path d="M128.134 16.4977H127.933V18.0965H128.134V16.4977Z" fill="#455A64"/>
<path d="M124.035 19.1316L123.864 19.2363L123.066 17.8558L123.243 17.7511L124.035 19.1316Z" fill="#455A64"/>
<path d="M121.011 22.0849L120.909 22.2621L119.525 21.4649L119.63 21.2931L121.011 22.0849Z" fill="#455A64"/>
<path d="M119.87 26.1557H118.271V26.3614H119.87V26.1557Z" fill="#455A64"/>
<path d="M120.918 30.2408L119.538 31.0424L119.64 31.2195L121.021 30.418L120.918 30.2408Z" fill="#455A64"/>
<path d="M124.035 33.3792L123.243 34.7651L123.066 34.6595L123.864 33.2835L124.035 33.3792Z" fill="#455A64"/>
<path d="M128.134 34.4251H127.933V36.0239H128.134V34.4251Z" fill="#455A64"/>
<path d="M133.006 34.6595L132.829 34.7651L132.033 33.3801L132.209 33.2835L133.006 34.6595Z" fill="#455A64"/>
<path d="M136.539 31.0513L136.442 31.2276L135.057 30.4259L135.159 30.2542L136.539 31.0513Z" fill="#455A64"/>
<path d="M137.798 26.1557H136.199V26.3614H137.798V26.1557Z" fill="#455A64"/>
<path d="M136.539 21.4649L135.159 22.2621L135.057 22.0858L136.442 21.2931L136.539 21.4649Z" fill="#455A64"/>
<path d="M133.006 17.8558L132.209 19.2363L132.033 19.1325L132.829 17.752L133.006 17.8558Z" fill="#455A64"/>
<path d="M128.575 26.8848L127.518 26.8678L127.82 18.6369L128.105 18.6449L128.575 26.8848Z" fill="#455A64"/>
<path d="M128.396 26.2559C128.396 26.4554 128.234 26.6164 128.035 26.6164C127.836 26.6164 127.674 26.4554 127.674 26.2559C127.674 26.0564 127.836 25.8953 128.035 25.8953C128.234 25.8953 128.396 26.0564 128.396 26.2559Z" fill="#455A64"/>
<path d="M95.3756 45.0055C94.6456 51.261 90.6258 52.4107 89.9548 54.081C89.614 55.1287 89.3339 56.1969 89.1156 57.2777H82.5836C82.3671 56.1951 82.0871 55.126 81.7444 54.0765C81.077 52.3981 77.0537 51.261 76.3236 45.0055C75.8414 40.8936 78.9334 34.4036 85.8474 34.4036C92.7623 34.4036 95.8418 40.8936 95.3756 45.0055Z" fill="#FFC727"/>
<path d="M84.0289 57.739L84.4414 57.6621L82.5027 47.264L82.0902 47.3409L84.0289 57.739Z" fill="white"/>
<path d="M87.6723 57.7558L89.6152 47.3589L89.2028 47.2818L87.2598 57.6788L87.6723 57.7558Z" fill="white"/>
<path d="M85.8523 50.7868C85.3325 50.7868 84.8073 50.3672 84.3752 49.6327C84.3752 49.6085 84.3465 49.5826 84.334 49.554C84.1971 49.7249 83.9949 49.8322 83.7757 49.8474C82.7817 49.8474 82.3827 47.812 82.3657 47.7494L82.576 47.7074C82.6762 48.2531 83.0913 49.6586 83.7757 49.6586C83.96 49.6327 84.1246 49.5307 84.2284 49.3768C83.8097 48.5385 83.578 47.4264 83.8804 46.9022C83.9734 46.7277 84.1568 46.6203 84.3546 46.6248C84.5845 46.6177 84.8001 46.7393 84.9128 46.9397C85.2188 47.4765 84.9925 48.5296 84.606 49.2006C84.5675 49.2695 84.5237 49.3357 84.4763 49.3983L84.5604 49.5495C84.7867 49.9396 85.2564 50.598 85.8523 50.598C86.2513 50.598 86.6494 50.2831 86.9813 49.7087L87.0565 49.5745C86.661 49.0762 86.4499 48.4562 86.4606 47.8201C86.4606 47.082 86.7415 46.6248 87.1951 46.6248C87.3732 46.6275 87.5351 46.7295 87.6148 46.8887C87.9037 47.3924 87.7489 48.5931 87.2953 49.5405C87.4662 49.7016 87.6908 49.792 87.9252 49.7928C88.5121 49.7928 89.0328 48.3748 89.1831 47.829L89.3889 47.8836C89.3263 48.1019 88.7769 50.0022 87.9252 50.0022C87.6577 49.9995 87.4009 49.9011 87.1996 49.7257L87.1486 49.8134C86.7756 50.4638 86.3103 50.8083 85.8397 50.8083L85.8523 50.7868ZM87.1951 46.8136C86.8086 46.8136 86.67 47.3468 86.67 47.7995C86.6673 48.3551 86.8355 48.8973 87.1531 49.3518C87.5432 48.492 87.6899 47.3969 87.4465 46.9728C87.4 46.8762 87.3025 46.8145 87.1951 46.8136ZM84.3546 46.8136C84.232 46.8082 84.1184 46.8753 84.0647 46.9854C83.8383 47.3754 83.9851 48.3238 84.3716 49.163L84.4217 49.0753C84.7742 48.4669 84.988 47.4721 84.7276 47.0238C84.6552 46.8861 84.5093 46.8038 84.3546 46.8136Z" fill="white"/>
<path d="M89.8835 57.0012H81.8198V58.5785H89.8835V57.0012Z" fill="#263238"/>
<path d="M89.8835 58.8299H81.8198V60.4081H89.8835V58.8299Z" fill="#263238"/>
<path d="M89.8835 60.6631H81.8198V62.2413H89.8835V60.6631Z" fill="#263238"/>
<path d="M85.7263 31.8941C85.5724 31.4781 85.4937 31.037 85.4954 30.5932C85.4767 30.1513 85.5393 29.7093 85.6797 29.2888C85.8336 29.7039 85.9124 30.1423 85.9106 30.5852C85.9302 31.0298 85.8667 31.4736 85.7263 31.8941Z" fill="#263238"/>
<path d="M79.7772 33.5519C79.4408 33.2683 79.1563 32.9274 78.938 32.5454C78.7018 32.1696 78.5354 31.7545 78.4478 31.3197C78.7833 31.606 79.0677 31.9478 79.286 32.3307C79.5231 32.7047 79.6887 33.1189 79.7772 33.5519Z" fill="#263238"/>
<path d="M75.456 37.9653C75.0131 37.892 74.5863 37.7399 74.1972 37.5171C73.8044 37.3113 73.4537 37.0349 73.1611 36.7029C73.604 36.7763 74.0298 36.9284 74.4199 37.1512C74.8118 37.3569 75.1634 37.6325 75.456 37.9653Z" fill="#263238"/>
<path d="M73.9197 43.948C73.5037 44.1019 73.0626 44.1797 72.6189 44.1788C72.176 44.1976 71.7341 44.135 71.3145 43.9945C72.1545 43.6975 73.0689 43.6814 73.9197 43.948Z" fill="#263238"/>
<path d="M75.5808 49.8931C74.9984 50.5676 74.2174 51.0391 73.3486 51.2395C73.6296 50.9004 73.9713 50.6159 74.356 50.4003C74.7309 50.1615 75.146 49.9888 75.5808 49.8931Z" fill="#263238"/>
<path d="M96.2612 49.6837C96.7041 49.7562 97.13 49.9065 97.52 50.1283C97.9119 50.335 98.2626 50.6106 98.5561 50.9425C98.1132 50.8718 97.6864 50.7206 97.2981 50.4978C96.9081 50.2876 96.5574 50.0129 96.2612 49.6837Z" fill="#263238"/>
<path d="M97.7798 43.701C98.1967 43.5481 98.6369 43.4684 99.0806 43.4657C99.5235 43.4505 99.9646 43.5149 100.385 43.6554C99.5441 43.9462 98.6315 43.9623 97.7798 43.701Z" fill="#263238"/>
<path d="M96.1226 37.7515C96.4062 37.4142 96.747 37.1306 97.1291 36.9123C97.5048 36.6752 97.9199 36.5088 98.3548 36.4211C98.0685 36.7575 97.7267 37.042 97.3438 37.2603C96.9698 37.4974 96.5565 37.6629 96.1226 37.7515Z" fill="#263238"/>
<path d="M91.709 33.4258C91.7823 32.9829 91.9344 32.5561 92.1581 32.167C92.363 31.7751 92.6394 31.4235 92.9722 31.1309C92.8049 32.0041 92.3639 32.8022 91.7135 33.4088L91.709 33.4258Z" fill="#263238"/>
<path d="M101.758 99.099C101.793 99.2779 101.694 99.456 101.522 99.5186L100.117 99.7619C98.4393 96.355 96.7144 93.6916 97.2056 94.7482C97.9562 96.4168 98.4706 98.1819 98.7328 99.9928C98.1155 100.093 96.6724 100.316 95.9512 100.412C94.1002 94.3036 92.1328 89.8356 92.3932 91.2536C93.4381 96.9554 93.3415 98.8351 93.2073 100.844C86.4937 101.872 77.6839 103.114 71.2646 103.865C70.1105 100.509 69.0154 96.8462 68.9322 97.1191C68.2943 99.1491 68.3945 101.994 68.6379 104.167C66.5945 104.39 64.9626 104.528 63.9596 104.562C63.9596 104.562 63.1204 101.717 62.9487 100.785C62.4736 98.3743 62.4217 95.8979 62.7939 93.4688C63.184 90.9897 64.0983 88.7405 64.95 86.4412C64.9474 86.4242 64.9474 86.4072 64.95 86.3902C65.5137 84.8863 65.9038 83.3224 66.1122 81.729C66.1149 81.7173 66.1149 81.7039 66.1122 81.6914C66.2491 80.531 66.2867 79.3608 66.2258 78.1923C66.0111 73.9176 67.8076 70.0115 71.4113 68.5093C77.6168 60.6846 85.047 62.9463 87.8366 68.1738C88.105 68.6811 88.3779 69.2689 88.6507 69.9149C89.6698 72.2938 90.7022 75.4108 91.5871 77.8148V77.8399C91.9261 78.7819 92.3216 79.7026 92.7707 80.5963C95.1577 84.872 99.5344 86.9691 101.758 99.099Z" fill="#263238"/>
<path d="M69.9603 69.8263C67.6735 71.4457 66.4111 73.6018 66.4022 76.7323C66.4022 78.5654 66.4988 80.3396 66.0542 82.1101C65.6095 83.8807 64.7068 85.492 63.7924 87.0487C62.3323 89.5162 61.401 91.9202 61.4976 94.9907C61.5942 98.0621 62.1731 101.742 63.4945 104.523H63.5195C62.3744 101.679 61.8671 97.6344 61.9888 94.521C62.1185 91.106 63.6457 88.8067 65.1604 86.0628C66.3861 83.886 67.0249 81.4284 67.015 78.9305C67.015 77.3782 66.8012 75.7884 67.2038 74.2862C67.686 72.4906 68.9278 71.2524 70.1741 70.1412C70.3414 69.973 70.1365 69.7055 69.9603 69.8263Z" fill="#263238"/>
<path d="M97.5202 84.9516C95.4973 82.7194 93.4503 80.8522 92.0653 77.9705C90.8074 75.3437 89.9432 72.5166 88.6754 69.8979C88.6683 69.8809 88.6486 69.8728 88.6316 69.8791C88.6146 69.8862 88.6057 69.9059 88.6128 69.9238C90.6437 74.6056 91.5125 79.4476 94.9059 83.2106C96.7606 85.254 98.5902 87.1328 99.9411 89.6719C101.337 92.3451 102.248 95.2439 102.634 98.2347C102.634 98.3439 102.776 98.3224 102.773 98.2347C102.634 93.3284 100.775 88.6251 97.5202 84.9516Z" fill="#263238"/>
<path d="M92.628 102.232C105.891 116.133 122.378 145.182 119.118 150.959C115.485 157.395 96.3624 137.609 96.9618 136.661C97.4744 135.859 90.8664 118.368 86.054 105.576C81.2415 92.7835 89.3508 98.776 92.628 102.232Z" fill="#EA867F"/>
<path d="M108.877 118.877L89.8378 122.309C89.8378 122.309 85.0844 108.815 84.1406 101.331C83.6118 97.1352 86.0784 96.9589 89.1749 99.1911C100.037 106.99 108.877 118.877 108.877 118.877Z" fill="#FFC727"/>
<path d="M86.4854 105.707C86.4854 105.904 86.3253 106.064 86.1284 106.064C85.9316 106.064 85.7715 105.904 85.7715 105.707C85.7715 105.51 85.9316 105.35 86.1284 105.35C86.3253 105.35 86.4854 105.51 86.4854 105.707ZM92.0744 105.35C91.8776 105.35 91.7183 105.51 91.7183 105.707C91.7183 105.904 91.8776 106.064 92.0744 106.064C92.2712 106.064 92.4314 105.904 92.4314 105.707C92.4305 105.51 92.2721 105.35 92.0744 105.35H92.0664H92.0744ZM89.1041 100.735C88.9073 100.735 88.7471 100.895 88.7471 101.092C88.748 101.289 88.9073 101.448 89.1041 101.448C89.3009 101.448 89.4611 101.289 89.4611 101.092C89.4521 100.902 89.2947 100.752 89.1041 100.752V100.735ZM92.0664 114.622C91.8686 114.622 91.7094 114.783 91.7094 114.978C91.7094 115.176 91.8686 115.335 92.0664 115.335C92.2632 115.335 92.4234 115.176 92.4234 114.978C92.4234 114.783 92.2623 114.622 92.0664 114.622ZM98.0106 114.622C97.8128 114.622 97.6536 114.783 97.6536 114.978C97.6536 115.176 97.8128 115.335 98.0106 115.335C98.2074 115.335 98.3675 115.176 98.3675 114.978C98.3675 114.785 98.2128 114.627 98.0186 114.622H98.0106ZM103.956 114.622C103.758 114.622 103.599 114.783 103.599 114.978C103.599 115.176 103.758 115.335 103.956 115.335C104.152 115.335 104.313 115.176 104.313 114.978C104.313 114.785 104.158 114.627 103.964 114.622H103.956ZM89.0952 110.008C88.8984 110.008 88.7382 110.167 88.7382 110.364C88.7382 110.561 88.8984 110.721 89.0952 110.721C89.292 110.721 89.4512 110.561 89.4512 110.364C89.4405 110.178 89.2902 110.03 89.1032 110.024L89.0952 110.008ZM95.0367 110.008C94.8398 110.008 94.6806 110.167 94.6806 110.364C94.6806 110.561 94.8398 110.721 95.0367 110.721C95.2335 110.721 95.3928 110.561 95.3928 110.364C95.3829 110.178 95.2317 110.03 95.0447 110.024L95.0367 110.008ZM100.982 110.008C100.785 110.008 100.626 110.167 100.626 110.364C100.626 110.561 100.785 110.721 100.982 110.721C101.179 110.721 101.338 110.561 101.338 110.364C101.328 110.178 101.177 110.03 100.99 110.024L100.982 110.008ZM89.0952 119.284C89.0012 119.284 88.9109 119.319 88.8429 119.385C88.91 119.599 88.9816 119.804 89.0442 119.992H89.0952C89.2893 119.992 89.4468 119.835 89.4477 119.641C89.4477 119.639 89.4468 119.638 89.4468 119.636C89.4405 119.451 89.2893 119.302 89.1032 119.301L89.0952 119.284ZM95.0367 119.284C94.8372 119.282 94.6743 119.441 94.6717 119.641C94.669 119.84 94.8291 120.003 95.0286 120.006C95.2272 120.007 95.391 119.848 95.3928 119.649V119.644C95.3874 119.455 95.2344 119.302 95.0447 119.296L95.0367 119.284ZM100.982 119.284C100.782 119.282 100.619 119.441 100.617 119.641C100.614 119.84 100.774 120.003 100.974 120.006C101.172 120.007 101.336 119.848 101.338 119.649V119.644C101.332 119.455 101.179 119.302 100.99 119.296L100.982 119.284Z" fill="white"/>
<path d="M89.9683 119.187C92.8554 118.419 100.742 116.557 106.029 116.015C106.062 116.015 106.088 116.133 106.054 116.142C101.729 117.253 92.9511 118.847 90.0103 119.368C89.9683 119.376 89.9048 119.204 89.9683 119.187Z" fill="#263238"/>
<g opacity="0.1">
<g opacity="0.1">
<path opacity="0.1" d="M106.331 119.338L89.8384 122.304C89.8384 122.304 85.0886 108.812 84.1448 101.327C83.8048 98.6418 84.6986 97.6049 86.1962 97.7901L106.331 119.338Z" fill="black"/>
</g>
</g>
<path d="M100.364 150.368H52.1157C52.1157 150.368 56.5085 116.703 72.0525 98.9979C76.2485 94.223 83.855 95.6411 87.4507 98.8682C88.7202 100.099 89.8923 101.43 90.9533 102.845C94.2225 107.041 99.5592 117.131 100.058 119.858C100.898 124.368 96.8948 129.24 96.8948 129.24L100.364 150.368Z" fill="#FFC727"/>
<path d="M80.5411 96.4347C80.5411 96.6315 80.381 96.7907 80.1842 96.7907C79.9873 96.7907 79.8272 96.6315 79.8272 96.4347C79.8272 96.2378 79.9873 96.0777 80.1842 96.0777C80.381 96.0777 80.5411 96.2378 80.5411 96.4347ZM68.2976 105.35C68.1008 105.35 67.9415 105.509 67.9415 105.707C67.9415 105.903 68.1008 106.063 68.2976 106.063C68.4953 106.063 68.6546 105.903 68.6546 105.707C68.6546 105.509 68.4953 105.35 68.2976 105.35ZM74.2436 105.35C74.0458 105.35 73.8866 105.509 73.8866 105.707C73.8866 105.903 74.0458 106.063 74.2436 106.063C74.4404 106.063 74.5997 105.903 74.5997 105.707C74.5997 105.509 74.4404 105.35 74.2436 105.35ZM80.1833 105.35C79.9865 105.35 79.8263 105.509 79.8263 105.707C79.8263 105.903 79.9865 106.063 80.1833 106.063C80.3801 106.063 80.5402 105.903 80.5402 105.707C80.5411 105.509 80.381 105.35 80.1833 105.35ZM86.1284 105.35C85.9315 105.35 85.7714 105.509 85.7714 105.707C85.7714 105.903 85.9315 106.063 86.1284 106.063C86.3252 106.063 86.4853 105.903 86.4853 105.707C86.4862 105.509 86.3261 105.35 86.1284 105.35ZM92.0743 105.35C91.8775 105.35 91.7174 105.509 91.7174 105.707C91.7174 105.903 91.8775 106.063 92.0743 106.063C92.2712 106.063 92.4313 105.903 92.4313 105.707C92.4313 105.509 92.2712 105.35 92.0743 105.35H92.0654H92.0743ZM71.2688 100.734C71.072 100.734 70.9118 100.895 70.9118 101.091C70.9118 101.288 71.072 101.448 71.2688 101.448C71.4656 101.448 71.6249 101.288 71.6249 101.091C71.6159 100.901 71.4593 100.751 71.2688 100.751V100.734ZM77.2139 100.734C77.017 100.734 76.8569 100.895 76.8569 101.091C76.8569 101.288 77.017 101.448 77.2139 101.448C77.4107 101.448 77.5699 101.288 77.5699 101.091C77.561 100.901 77.4044 100.751 77.2139 100.751V100.734ZM83.1589 100.734C82.9621 100.734 82.802 100.895 82.802 101.091C82.802 101.288 82.9621 101.448 83.1589 101.448C83.3558 101.448 83.515 101.288 83.515 101.091C83.507 100.901 83.3495 100.751 83.1589 100.751V100.734ZM89.4521 100.965L89.3053 100.785C89.1353 100.685 88.9171 100.742 88.8177 100.912C88.7175 101.082 88.7748 101.301 88.9448 101.4C89.1148 101.499 89.3331 101.443 89.4324 101.273C89.4637 101.219 89.4807 101.159 89.4816 101.096C89.4744 101.051 89.4574 101.01 89.4315 100.974L89.4521 100.965ZM62.374 114.605H62.3239C62.2443 114.79 62.1602 114.974 62.0805 115.155C62.1915 115.318 62.4133 115.359 62.5762 115.248C62.739 115.137 62.7802 114.915 62.6692 114.752C62.6021 114.655 62.4921 114.596 62.374 114.597V114.605ZM68.3191 114.605C68.1222 114.605 67.9621 114.765 67.9621 114.961C67.9621 115.159 68.1222 115.318 68.3191 115.318C68.5159 115.318 68.676 115.159 68.676 114.961C68.6671 114.766 68.5007 114.613 68.3029 114.622H68.2976L68.3191 114.605ZM74.2642 114.605C74.0673 114.605 73.9081 114.765 73.9081 114.961C73.9081 115.159 74.0673 115.318 74.2642 115.318C74.461 115.318 74.6211 115.159 74.6211 114.961C74.6122 114.766 74.4458 114.613 74.248 114.622H74.2436L74.2642 114.605ZM80.2056 114.605C80.0079 114.605 79.8487 114.765 79.8487 114.961C79.8487 115.159 80.0079 115.318 80.2056 115.318C80.4025 115.318 80.5617 115.159 80.5617 114.961C80.5528 114.766 80.3864 114.613 80.1895 114.622H80.1842L80.2056 114.605ZM86.1507 114.605C85.953 114.605 85.7938 114.765 85.7938 114.961C85.7938 115.159 85.953 115.318 86.1507 115.318C86.3467 115.318 86.5068 115.159 86.5068 114.961C86.4979 114.766 86.3314 114.613 86.1346 114.622H86.1293L86.1507 114.605ZM92.0958 114.605C91.8981 114.605 91.7388 114.765 91.7388 114.961C91.7388 115.159 91.8981 115.318 92.0958 115.318C92.2918 115.318 92.4519 115.159 92.4519 114.961C92.4429 114.766 92.2765 114.613 92.0806 114.621C92.0752 114.622 92.0707 114.622 92.0654 114.622L92.0958 114.605ZM97.9693 114.605C97.8109 114.642 97.7 114.783 97.7009 114.945C97.7009 115.142 97.8593 115.303 98.057 115.306C98.1348 115.306 98.2109 115.279 98.2708 115.231C98.1366 115.054 98.0364 114.849 97.9398 114.639L97.9693 114.605ZM65.3613 109.99C65.1644 109.99 65.0043 110.15 65.0043 110.347C65.0043 110.544 65.1644 110.704 65.3613 110.704C65.5581 110.704 65.7183 110.544 65.7183 110.347C65.6977 110.148 65.5214 110.004 65.3237 110.024L65.3613 109.99ZM71.3064 109.99C71.1095 109.99 70.9494 110.15 70.9494 110.347C70.9494 110.544 71.1095 110.704 71.3064 110.704C71.5032 110.704 71.6633 110.544 71.6633 110.347C71.6428 110.148 71.4665 110.004 71.2688 110.024L71.3064 109.99ZM77.2514 109.99C77.0546 109.99 76.8945 110.15 76.8945 110.347C76.8945 110.544 77.0546 110.704 77.2514 110.704C77.4483 110.704 77.6084 110.544 77.6084 110.347C77.5878 110.148 77.4116 110.004 77.2139 110.024L77.2514 109.99ZM83.1965 109.99C82.9997 109.99 82.8396 110.15 82.8396 110.347C82.8396 110.544 82.9997 110.704 83.1965 110.704C83.3933 110.704 83.5535 110.544 83.5535 110.347C83.5329 110.148 83.3567 110.004 83.1589 110.024L83.1965 109.99ZM89.1416 109.99C88.9448 109.99 88.7846 110.15 88.7846 110.347C88.7846 110.544 88.9448 110.704 89.1416 110.704C89.3384 110.704 89.4986 110.544 89.4986 110.347C89.478 110.148 89.3017 110.004 89.104 110.024L89.1416 109.99ZM95.0822 109.99C94.8854 109.99 94.7261 110.15 94.7261 110.347C94.7261 110.544 94.8854 110.704 95.0822 110.704C95.279 110.704 95.4392 110.544 95.4392 110.347C95.4186 110.148 95.2433 110.004 95.0446 110.024L95.0822 109.99ZM62.391 123.861C62.1941 123.861 62.0349 124.02 62.0349 124.218C62.0349 124.414 62.1941 124.574 62.391 124.574C62.5878 124.574 62.7471 124.414 62.7471 124.218C62.7301 124.021 62.5565 123.876 62.3606 123.893C62.3579 123.894 62.3552 123.894 62.3525 123.894L62.391 123.861ZM68.3361 123.861C68.1392 123.861 67.9791 124.02 67.9791 124.218C67.9791 124.414 68.1392 124.574 68.3361 124.574C68.5329 124.574 68.6921 124.414 68.6921 124.218C68.6751 124.021 68.5025 123.876 68.3056 123.893C68.303 123.894 68.3003 123.894 68.2976 123.894L68.3361 123.861ZM74.2811 123.861C74.0843 123.861 73.9242 124.02 73.9242 124.218C73.9242 124.414 74.0843 124.574 74.2811 124.574C74.478 124.574 74.6372 124.414 74.6372 124.218C74.6202 124.021 74.4475 123.876 74.2507 123.893C74.248 123.894 74.2454 123.894 74.2436 123.894L74.2811 123.861ZM80.2209 123.861C80.024 123.861 79.8648 124.02 79.8648 124.218C79.8648 124.414 80.024 124.574 80.2209 124.574C80.4177 124.574 80.5778 124.414 80.5778 124.218C80.5608 124.021 80.3873 123.876 80.1904 123.893C80.1887 123.894 80.186 123.894 80.1833 123.894L80.2209 123.861ZM86.1659 123.861C85.9691 123.861 85.8099 124.02 85.8099 124.218C85.8099 124.414 85.9691 124.574 86.1659 124.574C86.3628 124.574 86.5229 124.414 86.5229 124.218C86.5059 124.021 86.3323 123.876 86.1355 123.893C86.1337 123.894 86.131 123.894 86.1284 123.894L86.1659 123.861ZM92.111 123.861C91.9142 123.861 91.7549 124.02 91.7549 124.218C91.7549 124.414 91.9142 124.574 92.111 124.574C92.3079 124.574 92.468 124.414 92.468 124.218C92.451 124.021 92.2783 123.875 92.0815 123.892C92.0761 123.893 92.0708 123.893 92.0645 123.894L92.111 123.861ZM98.057 123.861C97.8602 123.861 97.7009 124.02 97.7009 124.218C97.7009 124.414 97.8602 124.574 98.057 124.574C98.2538 124.574 98.414 124.414 98.414 124.218C98.397 124.021 98.2234 123.876 98.0266 123.893C98.0248 123.894 98.0221 123.894 98.0194 123.894L98.057 123.861ZM65.3613 119.245C65.1618 119.242 64.9989 119.403 64.9963 119.602C64.9945 119.801 65.1537 119.964 65.3523 119.967C65.5519 119.969 65.7156 119.81 65.7183 119.61V119.607C65.6914 119.413 65.517 119.276 65.3237 119.296L65.3613 119.245ZM71.3064 119.245C71.1069 119.242 70.944 119.403 70.9413 119.602C70.9395 119.801 71.0988 119.964 71.2983 119.967C71.4969 119.969 71.6607 119.81 71.6633 119.61V119.607C71.6365 119.413 71.462 119.276 71.2688 119.296L71.3064 119.245ZM77.2514 119.245C77.0519 119.242 76.8891 119.403 76.8864 119.602C76.8846 119.801 77.0439 119.964 77.2434 119.967C77.442 119.969 77.6057 119.81 77.6084 119.61V119.607C77.5816 119.413 77.4071 119.276 77.2139 119.296L77.2514 119.245ZM83.1965 119.245C82.997 119.242 82.8342 119.403 82.8315 119.602C82.8297 119.801 82.989 119.964 83.1885 119.967C83.3871 119.969 83.5508 119.81 83.5535 119.61V119.607C83.5267 119.413 83.3522 119.276 83.1589 119.296L83.1965 119.245ZM89.1416 119.245C88.9421 119.242 88.7793 119.403 88.7766 119.602C88.7748 119.801 88.9341 119.964 89.1336 119.967C89.3322 119.969 89.4959 119.81 89.4986 119.61V119.607C89.4717 119.413 89.2973 119.276 89.104 119.296L89.1416 119.245ZM95.0822 119.245C94.8836 119.242 94.7199 119.403 94.7172 119.602C94.7154 119.801 94.8746 119.964 95.0742 119.967C95.2737 119.969 95.4365 119.81 95.4392 119.61V119.607C95.4133 119.413 95.2388 119.276 95.0446 119.296L95.0822 119.245ZM56.4038 133.166C56.207 133.166 56.0478 133.326 56.0478 133.522C56.0478 133.72 56.207 133.879 56.4038 133.879C56.6007 133.879 56.7599 133.72 56.7599 133.522C56.7599 133.326 56.6007 133.166 56.4038 133.166ZM62.3489 133.166C62.1521 133.166 61.992 133.326 61.992 133.522C61.992 133.72 62.1521 133.879 62.3489 133.879C62.5457 133.879 62.7059 133.72 62.7059 133.522C62.7059 133.327 62.5484 133.168 62.3525 133.166H62.3489ZM68.2931 133.166C68.0963 133.166 67.9361 133.326 67.9361 133.522C67.9361 133.72 68.0963 133.879 68.2931 133.879C68.4899 133.879 68.6501 133.72 68.6501 133.522C68.6501 133.327 68.4926 133.168 68.2967 133.166H68.2931ZM74.2391 133.166C74.0423 133.166 73.8821 133.326 73.8821 133.522C73.8821 133.72 74.0423 133.879 74.2391 133.879C74.4359 133.879 74.5961 133.72 74.5961 133.522C74.5961 133.327 74.4386 133.168 74.2436 133.166H74.2391ZM80.1797 133.166C79.9829 133.166 79.8236 133.326 79.8236 133.522C79.8236 133.72 79.9829 133.879 80.1797 133.879C80.3765 133.879 80.5367 133.72 80.5367 133.522C80.5367 133.327 80.3792 133.168 80.1842 133.166H80.1797ZM86.1248 133.166C85.928 133.166 85.7687 133.326 85.7687 133.522C85.7687 133.72 85.928 133.879 86.1248 133.879C86.3216 133.879 86.4817 133.72 86.4817 133.522C86.4817 133.327 86.3243 133.168 86.1293 133.166H86.1248ZM92.0699 133.166C91.873 133.166 91.7138 133.326 91.7138 133.522C91.7138 133.72 91.873 133.879 92.0699 133.879C92.2676 133.879 92.4268 133.72 92.4268 133.522C92.4268 133.326 92.2676 133.166 92.0699 133.166H92.0654H92.0699ZM59.3786 128.552C59.1818 128.552 59.0216 128.711 59.0216 128.908C59.0216 129.104 59.1818 129.265 59.3786 129.265C59.5755 129.265 59.7347 129.104 59.7347 128.908C59.7222 128.722 59.5692 128.577 59.3831 128.572L59.3786 128.552ZM65.3192 128.552C65.1224 128.552 64.9623 128.711 64.9623 128.908C64.9623 129.104 65.1224 129.265 65.3192 129.265C65.5161 129.265 65.6762 129.104 65.6762 128.908C65.6655 128.721 65.5107 128.574 65.3237 128.572L65.3192 128.552ZM71.2643 128.552C71.0675 128.552 70.9073 128.711 70.9073 128.908C70.9073 129.104 71.0675 129.265 71.2643 129.265C71.4611 129.265 71.6213 129.104 71.6213 128.908C71.6106 128.721 71.4558 128.574 71.2688 128.572L71.2643 128.552ZM77.2094 128.552C77.0126 128.552 76.8533 128.711 76.8533 128.908C76.8533 129.104 77.0126 129.265 77.2094 129.265C77.4062 129.265 77.5664 129.104 77.5664 128.908C77.5556 128.721 77.4009 128.574 77.2139 128.572L77.2094 128.552ZM83.1545 128.552C82.9576 128.552 82.7984 128.711 82.7984 128.908C82.7984 129.104 82.9576 129.265 83.1545 129.265C83.3513 129.265 83.5115 129.104 83.5115 128.908C83.4998 128.721 83.3459 128.574 83.1589 128.572L83.1545 128.552ZM89.0996 128.552C88.9027 128.552 88.7435 128.711 88.7435 128.908C88.7435 129.104 88.9027 129.265 89.0996 129.265C89.2964 129.265 89.4565 129.104 89.4565 128.908C89.4449 128.721 89.291 128.574 89.104 128.572L89.0996 128.552ZM95.0411 128.552C94.8433 128.552 94.6841 128.711 94.6841 128.908C94.6841 129.104 94.8433 129.265 95.0411 129.265C95.237 129.265 95.3971 129.104 95.3971 128.908C95.3864 128.721 95.2316 128.574 95.0446 128.572L95.0411 128.552ZM56.4038 142.439C56.207 142.439 56.0478 142.598 56.0478 142.795C56.0478 142.991 56.207 143.152 56.4038 143.152C56.6007 143.152 56.7599 142.991 56.7599 142.795C56.7599 142.598 56.6007 142.439 56.4038 142.439ZM62.3489 142.439C62.1521 142.439 61.992 142.598 61.992 142.795C61.992 142.991 62.1521 143.152 62.3489 143.152C62.5457 143.152 62.7059 142.991 62.7059 142.795C62.7059 142.6 62.5484 142.44 62.3525 142.439H62.3489ZM68.2931 142.439C68.0963 142.439 67.9361 142.598 67.9361 142.795C67.9361 142.991 68.0963 143.152 68.2931 143.152C68.4899 143.152 68.6501 142.991 68.6501 142.795C68.6501 142.6 68.4926 142.44 68.2967 142.439H68.2931ZM74.2391 142.439C74.0423 142.439 73.8821 142.598 73.8821 142.795C73.8821 142.991 74.0423 143.152 74.2391 143.152C74.4359 143.152 74.5961 142.991 74.5961 142.795C74.5961 142.6 74.4386 142.44 74.2436 142.439H74.2391ZM80.1797 142.439C79.9829 142.439 79.8236 142.598 79.8236 142.795C79.8236 142.991 79.9829 143.152 80.1797 143.152C80.3765 143.152 80.5367 142.991 80.5367 142.795C80.5367 142.6 80.3792 142.44 80.1842 142.439H80.1797ZM86.1248 142.439C85.928 142.439 85.7687 142.598 85.7687 142.795C85.7687 142.991 85.928 143.152 86.1248 143.152C86.3216 143.152 86.4817 142.991 86.4817 142.795C86.4817 142.6 86.3243 142.44 86.1293 142.439H86.1248ZM92.0699 142.439C91.873 142.439 91.7138 142.598 91.7138 142.795C91.7138 142.991 91.873 143.152 92.0699 143.152C92.2676 143.152 92.4268 142.991 92.4268 142.795C92.4268 142.598 92.2676 142.439 92.0699 142.439H92.0654H92.0699ZM98.0149 142.439C97.8181 142.439 97.6589 142.598 97.6589 142.795C97.6589 142.991 97.8181 143.152 98.0149 143.152C98.2127 143.152 98.3719 142.991 98.3719 142.795C98.3719 142.6 98.2144 142.44 98.0194 142.439H98.0149ZM59.3822 137.844C59.1845 137.844 59.0252 138.004 59.0252 138.201C59.0252 138.398 59.1845 138.558 59.3822 138.558C59.579 138.558 59.7383 138.398 59.7383 138.201C59.7365 138.005 59.5781 137.846 59.3822 137.844ZM65.3237 137.844C65.1269 137.844 64.9667 138.004 64.9667 138.201C64.9667 138.398 65.1269 138.558 65.3237 138.558C65.5205 138.558 65.6798 138.398 65.6798 138.201C65.6798 138.004 65.5205 137.844 65.3237 137.844ZM71.2688 137.844C71.072 137.844 70.9118 138.004 70.9118 138.201C70.9118 138.398 71.072 138.558 71.2688 138.558C71.4656 138.558 71.6249 138.398 71.6249 138.201C71.6249 138.004 71.4656 137.844 71.2688 137.844ZM77.2139 137.844C77.017 137.844 76.8569 138.004 76.8569 138.201C76.8569 138.398 77.017 138.558 77.2139 138.558C77.4107 138.558 77.5699 138.398 77.5699 138.201C77.5699 138.004 77.4107 137.844 77.2139 137.844ZM83.1589 137.844C82.9621 137.844 82.802 138.004 82.802 138.201C82.802 138.398 82.9621 138.558 83.1589 138.558C83.3558 138.558 83.515 138.398 83.515 138.201C83.515 138.004 83.3558 137.844 83.1589 137.844ZM89.104 137.844C88.9072 137.844 88.7471 138.004 88.7471 138.201C88.7471 138.398 88.9072 138.558 89.104 138.558C89.3008 138.558 89.4601 138.398 89.4601 138.201C89.4601 138.004 89.3008 137.844 89.104 137.844ZM95.0446 137.844C94.8478 137.844 94.6886 138.004 94.6886 138.201C94.6886 138.398 94.8478 138.558 95.0446 138.558C95.2415 138.558 95.4016 138.398 95.4016 138.201C95.4016 138.004 95.2415 137.844 95.0446 137.844ZM53.438 147.125C53.2403 147.125 53.0811 147.284 53.0811 147.481C53.0811 147.679 53.2403 147.838 53.438 147.838C53.6348 147.838 53.7941 147.679 53.7941 147.481C53.7941 147.284 53.6348 147.125 53.438 147.125ZM59.3822 147.125C59.1845 147.125 59.0252 147.284 59.0252 147.481C59.0252 147.679 59.1845 147.838 59.3822 147.838C59.579 147.838 59.7383 147.679 59.7383 147.481C59.7365 147.285 59.5781 147.127 59.3822 147.125ZM65.3237 147.125C65.1269 147.125 64.9667 147.284 64.9667 147.481C64.9667 147.679 65.1269 147.838 65.3237 147.838C65.5205 147.838 65.6798 147.679 65.6798 147.481C65.6798 147.284 65.5205 147.125 65.3237 147.125ZM71.2688 147.125C71.072 147.125 70.9118 147.284 70.9118 147.481C70.9118 147.679 71.072 147.838 71.2688 147.838C71.4656 147.838 71.6249 147.679 71.6249 147.481C71.6249 147.284 71.4656 147.125 71.2688 147.125ZM77.2139 147.125C77.017 147.125 76.8569 147.284 76.8569 147.481C76.8569 147.679 77.017 147.838 77.2139 147.838C77.4107 147.838 77.5699 147.679 77.5699 147.481C77.5699 147.284 77.4107 147.125 77.2139 147.125ZM83.1589 147.125C82.9621 147.125 82.802 147.284 82.802 147.481C82.802 147.679 82.9621 147.838 83.1589 147.838C83.3558 147.838 83.515 147.679 83.515 147.481C83.515 147.284 83.3558 147.125 83.1589 147.125ZM89.104 147.125C88.9072 147.125 88.7471 147.284 88.7471 147.481C88.7471 147.679 88.9072 147.838 89.104 147.838C89.3008 147.838 89.4601 147.679 89.4601 147.481C89.4601 147.284 89.3008 147.125 89.104 147.125ZM95.0446 147.125C94.8478 147.125 94.6886 147.284 94.6886 147.481C94.6886 147.679 94.8478 147.838 95.0446 147.838C95.2415 147.838 95.4016 147.679 95.4016 147.481C95.4016 147.284 95.2415 147.125 95.0446 147.125Z" fill="white"/>
<path d="M100.536 119.615C100.092 117.756 99.0591 116.078 98.1492 114.4C97.1883 112.646 96.1809 110.918 95.1494 109.205L95.0357 109.021C94.864 108.475 94.6161 107.938 94.4104 107.41C94.142 106.731 93.8566 106.059 93.5926 105.375C93.5926 105.355 93.547 105.375 93.5551 105.375C93.7689 106.084 93.9747 106.793 94.2431 107.473C94.3102 107.648 94.3773 107.834 94.4444 108.018C94.0964 107.444 93.7438 106.877 93.3824 106.31C92.7704 105.35 92.1245 104.414 91.5072 103.453C91.5072 103.453 91.4526 103.453 91.4696 103.478C92.4555 105.157 93.3994 106.868 94.3853 108.551C95.3712 110.233 96.3276 111.933 97.2465 113.653C97.7028 114.492 98.1447 115.352 98.5724 116.233C98.9955 117.047 99.3659 117.888 99.68 118.75C100.253 120.423 100.266 122.238 99.7175 123.92C99.1217 125.82 98.0651 127.549 97.0577 129.251C97.0157 129.324 97.1212 129.402 97.1713 129.336C99.2872 126.567 101.413 123.26 100.536 119.615Z" fill="#263238"/>
<path d="M119.118 150.939C116.009 155.231 107.732 155.936 87.031 159.615C84.1653 160.127 75.1238 140.899 78.1532 140.194C81.9707 139.308 96.9663 136.699 98.0864 136.648C107.551 136.216 121.229 148.028 119.118 150.939Z" fill="#EA867F"/>
<path d="M82.3107 139.322C82.3107 139.322 73.5546 140.496 69.1447 142.54C63.2417 145.271 59.2685 150.062 57.7252 152.16C54.5025 156.561 49.7528 169.429 53.2187 171.459C56.3572 173.281 60.5487 159.884 60.5487 159.884C60.5487 159.884 54.0239 172.839 58.2074 174.338C62.39 175.836 66.3677 160.01 66.3677 160.01C66.3677 160.01 59.9609 173.473 64.5175 174.338C67.962 174.992 72.3754 160.857 72.3754 160.857C72.3754 160.857 66.9465 172.466 70.4626 173.289C74.3436 174.203 79.2348 161.411 79.2348 161.411C88.5161 162.007 93.1809 158.475 96.2022 155.596C96.9323 154.886 82.3107 139.322 82.3107 139.322Z" fill="#EA867F"/>
<path d="M62.5162 155.252C61.6976 156.745 60.8378 158.252 60.1704 159.812C59.5039 161.373 58.849 162.963 58.3122 164.579C56.9952 168.552 56.7894 171.245 56.8225 171.077C57.549 167.18 59.919 161.55 60.5989 159.985C61.2789 158.42 61.8908 156.834 62.5744 155.273C62.5958 155.235 62.5368 155.214 62.5162 155.252Z" fill="#263238"/>
<path d="M68.2011 157.614C67.2367 159.565 66.2042 161.47 65.323 163.487C64.4417 165.506 63.7922 167.436 63.0532 169.475C62.9986 169.634 63.0997 169.613 63.1623 169.475C63.981 167.461 64.8953 165.665 65.7345 163.668C66.5737 161.671 67.3414 159.631 68.2521 157.669C68.2647 157.614 68.2181 157.614 68.2011 157.614Z" fill="#263238"/>
<path d="M73.4498 158.784C71.8179 161.696 70.7273 164.901 69.7325 168.074C69.6824 168.228 69.8121 168.186 69.8711 168.027C71.0503 164.918 71.9691 162.472 73.5509 158.843C73.5759 158.784 73.4838 158.726 73.4498 158.784Z" fill="#263238"/>
<path d="M107.228 138.965C105.852 138.096 101.959 136.049 98.1287 136.615C98.1099 136.615 98.0947 136.63 98.0947 136.648C98.0947 136.667 98.1099 136.682 98.1287 136.682C101.283 136.682 105.79 138.285 107.195 139.019C107.233 139.04 107.262 138.985 107.228 138.965Z" fill="#263238"/>
<path d="M77.4483 96.0616C75.8746 96.8713 75.837 99.0444 77.6451 101.465C80.5403 105.35 88.7086 108.526 88.7086 108.526C88.7086 108.526 89.1667 100.974 86.6661 97.4966C84.9877 95.1848 79.3361 95.1007 77.4483 96.0616Z" fill="#EA867F"/>
<path d="M77.8007 97.7436C78.0772 98.5157 82.487 103.231 86.1033 102.631C87.278 102.434 86.4898 95.9605 86.4898 95.9605L86.5399 95.4693L87.2449 88.5929L78.7777 84.4729L77.561 83.9361C77.561 83.9361 77.4939 85.8328 77.4312 88.1903V88.5258V88.9114C77.4312 89.2639 77.4062 89.6253 77.3982 89.9823V90.8206V91.6598C77.3919 93.6952 77.527 95.7279 77.8007 97.7436Z" fill="#EA867F"/>
<path d="M77.4482 88.1903C79.2689 91.8361 82.5989 94.4977 86.5569 95.4693L87.2619 88.5929L78.7947 84.4729L77.5789 83.9361C77.5789 83.9361 77.5109 85.8319 77.4482 88.1903Z" fill="#263238"/>
<path d="M95.309 77.0221C98.4726 88.736 91.8145 91.9497 89.2888 92.6296C86.994 93.2461 79.1057 95.0542 74.7504 83.7313C70.3961 72.4065 74.839 67.2335 80.012 65.5471C85.1858 63.8606 92.1455 65.3127 95.309 77.0221Z" fill="#EA867F"/>
<path d="M92.3052 74.9036C92.0198 74.9286 91.7514 74.9036 91.466 74.9036C91.1761 74.9411 90.8827 74.8848 90.6268 74.7443C90.4738 74.619 90.4282 74.4043 90.5177 74.2281C90.7342 73.906 91.109 73.7271 91.4955 73.762C91.8856 73.7333 92.2721 73.8532 92.5781 74.0983C92.7687 74.2674 92.7857 74.5582 92.6166 74.7497C92.5369 74.8391 92.4251 74.8946 92.3052 74.9036Z" fill="#263238"/>
<path d="M84.7945 76.5855C85.0674 76.4889 85.3027 76.3592 85.5586 76.2411C85.8458 76.1606 86.0972 75.9843 86.2716 75.7418C86.3593 75.5665 86.3137 75.3545 86.1625 75.2301C85.8315 75.0243 85.4154 75.0154 85.0755 75.205C84.714 75.3473 84.4161 75.6157 84.2363 75.9602C84.1352 76.1946 84.2425 76.4656 84.4769 76.5667C84.5771 76.6106 84.6899 76.6177 84.7945 76.5855Z" fill="#263238"/>
<path d="M87.0311 79.2329C87.0311 79.2033 86.9766 79.2874 86.9855 79.3214C87.2029 80.1177 87.321 81.066 86.6581 81.5071C86.6375 81.5071 86.6581 81.5617 86.6581 81.5527C87.5223 81.2128 87.3541 79.9549 87.0311 79.2329Z" fill="#263238"/>
<path d="M86.1041 78.5699C84.7862 78.7793 85.3069 81.3979 86.5237 81.2002C87.7404 81.0034 87.2036 78.3892 86.1041 78.5699Z" fill="#263238"/>
<path d="M85.6177 78.8088C85.4164 79.002 85.2446 79.308 84.9753 79.3921C84.7069 79.4762 84.3679 79.2579 84.1075 79.0396C84.0825 79.0146 84.061 79.0396 84.0699 79.0772C84.1621 79.5809 84.4555 80.0551 85.0093 80.0211C85.5631 79.988 85.777 79.4798 85.802 78.951C85.8065 78.8508 85.6973 78.7372 85.6177 78.8088Z" fill="#263238"/>
<path d="M91.508 77.9785C91.508 77.9454 91.5795 78.0036 91.5831 78.0376C91.7137 78.8553 92.0027 79.7661 92.7838 79.8958C92.8088 79.8958 92.8124 79.9423 92.7838 79.9423C91.864 79.996 91.499 78.7721 91.508 77.9785Z" fill="#263238"/>
<path d="M92.0652 76.9926C93.3491 76.6446 93.953 79.2418 92.7622 79.5648C91.5705 79.8869 90.9916 77.2869 92.0652 76.9926Z" fill="#263238"/>
<path d="M92.6488 77.0597C92.8885 77.1483 93.148 77.3496 93.3958 77.3111C93.6427 77.2735 93.8154 76.9336 93.9496 76.6231C93.9496 76.59 93.9872 76.6231 93.9952 76.6231C94.1259 77.1188 94.0838 77.6725 93.6267 77.8819C93.1695 78.0921 92.7874 77.7182 92.5611 77.253C92.519 77.1563 92.5566 77.0015 92.6488 77.0597Z" fill="#263238"/>
<path d="M91.0588 81.9392C91.0588 81.9392 91.4784 83.1175 91.6045 83.6883C90.5667 84.1822 89.3437 84.0712 88.4115 83.3993C88.3569 83.3573 88.4115 83.2777 88.4786 83.3027C89.3142 83.6463 90.2384 83.7107 91.1134 83.487C91.1134 83.3188 90.3207 81.4946 90.4084 81.4695C90.862 81.4141 91.3209 81.4203 91.7719 81.4901C90.9586 79.011 89.7544 76.6821 88.9778 74.203C88.9527 74.1144 89.0789 74.0599 89.12 74.135C90.556 76.4844 91.5544 79.3169 92.4768 81.8551C92.577 82.1701 91.3066 81.9893 91.0588 81.9392Z" fill="#263238"/>
<path d="M90.8068 83.7939C90.5724 84.2564 90.2253 84.6519 89.7958 84.9435C89.5569 85.0929 89.2769 85.1654 88.9942 85.1493C88.3778 85.1108 88.2597 84.574 88.2811 84.0918C88.2928 83.8359 88.3348 83.5818 88.4073 83.3367C89.1373 83.7411 89.9783 83.9021 90.8068 83.7939Z" fill="#263238"/>
<path d="M74.6042 83.5291C74.6042 83.5291 70.3582 80.0846 70.4091 74.2612C70.4592 68.4378 76.8445 63.4616 84.12 64.1917C84.12 64.1917 74.5622 66.5795 73.2998 71.8867C72.0366 77.1939 74.6042 83.5291 74.6042 83.5291Z" fill="#FFC727"/>
<path d="M76.8611 84.3888C79.0638 83.9692 78.0278 78.9349 78.0278 78.9349C78.0278 78.9349 86.5405 74.4705 84.9122 66.881C84.9122 66.881 87.9836 71.077 93.3919 71.6344C93.3919 71.6344 90.4547 63.688 83.5657 64.2087C83.5657 64.2087 74.713 63.9063 72.309 71.6389C69.905 79.3715 75.3849 84.6742 76.8611 84.3888Z" fill="#263238"/>
<path d="M84.766 66.3353C85.2419 67.434 85.4772 68.6212 85.4584 69.8174C85.4584 71.0287 85.2079 72.2267 84.7239 73.3379C84.6013 73.6143 84.4609 73.8836 84.3043 74.1431L84.095 74.5421C84.0109 74.6674 83.9232 74.789 83.8346 74.9107C83.6539 75.1541 83.4821 75.4019 83.2933 75.6363C83.1046 75.8716 82.8737 76.0568 82.6724 76.2876C82.5678 76.3923 82.4667 76.505 82.3584 76.6061L82.014 76.8915L81.3179 77.4534C80.8222 77.7808 80.3141 78.0823 79.8032 78.3767C80.2479 77.9821 80.7212 77.6377 81.1533 77.2476L81.7831 76.6401L82.0936 76.3377C82.1902 76.233 82.2779 76.1149 82.3745 76.0058C82.5552 75.7794 82.7395 75.5576 82.9283 75.3428C83.1171 75.129 83.2477 74.8651 83.4105 74.6298L83.6503 74.2737L83.8471 73.8917C83.9894 73.6439 84.1155 73.388 84.2247 73.1232C84.6926 72.0728 84.9771 70.9482 85.0639 69.8012C85.1122 69.2242 85.1122 68.6444 85.0639 68.0683C85.0138 67.4841 84.9154 66.9043 84.766 66.3353Z" fill="#263238"/>
<path d="M76.8102 83.7259C76.8102 83.7259 73.5375 80.4621 72.0148 81.695C70.4921 82.9287 73.4159 87.989 75.5344 88.3621C76.6295 88.6448 77.7461 87.9863 78.0288 86.8921C78.0377 86.859 78.0449 86.8259 78.052 86.7928L76.8102 83.7259Z" fill="#EA867F"/>
<path d="M72.888 83.122C72.8728 83.1282 72.8656 83.1452 72.8719 83.1596C72.8746 83.1676 72.8808 83.1739 72.888 83.1766C74.3812 83.4915 75.3465 84.6528 76.0972 85.899C75.5899 85.4794 74.977 85.2781 74.3776 85.899C74.3436 85.933 74.3776 85.9831 74.4277 85.9706C74.9001 85.721 75.479 85.7962 75.8708 86.1594C76.1857 86.4573 76.4667 86.7874 76.71 87.1453C76.7986 87.2589 77.0124 87.1453 76.9364 87.0192C76.9382 87.0084 76.9382 86.9977 76.9364 86.9861C76.6519 85.1985 74.8267 82.9583 72.888 83.122Z" fill="#263238"/>
<path d="M76.6011 87.624C76.6512 87.8924 76.4732 88.1509 76.2048 88.201C75.9355 88.2511 75.6769 88.0731 75.6277 87.8047C75.6223 87.7778 75.6196 87.7519 75.6187 87.7251C75.6134 87.4513 75.8308 87.2249 76.1037 87.2187C76.3461 87.2142 76.5573 87.3851 76.6011 87.624Z" fill="white"/>
<path d="M75.3131 86.9485C75.3346 87.139 75.1977 87.3117 75.0062 87.3341C75.0035 87.3341 75.0009 87.3341 74.9982 87.3341C74.8049 87.3547 74.6323 87.2133 74.6117 87.0201C74.592 86.8259 74.7334 86.6532 74.9266 86.6327C75.1208 86.613 75.2934 86.7543 75.3131 86.9485Z" fill="white"/>
<path d="M72.12 83.0719H71.39C71.2486 83.0764 71.1305 82.9654 71.126 82.8241C71.126 82.8232 71.126 82.8214 71.1251 82.8196C71.1207 82.6791 71.2316 82.5601 71.373 82.5557C71.3756 82.5557 71.3783 82.5557 71.381 82.5557H72.1111C72.2551 82.553 72.3732 82.6675 72.3759 82.8115C72.3759 82.9538 72.2623 83.0692 72.12 83.0719Z" fill="#FFC727"/>
<path d="M72.2254 83.818L71.5124 83.9853C71.3728 84.0175 71.235 83.9317 71.2011 83.793C71.1679 83.6552 71.252 83.5174 71.3898 83.4834C71.3907 83.4834 71.3925 83.4825 71.3943 83.4825L72.1083 83.3152C72.2451 83.2812 72.3838 83.3653 72.4169 83.5022C72.4178 83.504 72.4178 83.5058 72.4187 83.5076C72.4518 83.6454 72.3677 83.7831 72.2299 83.8171C72.2281 83.8171 72.2272 83.818 72.2254 83.818Z" fill="#FFC727"/>
<path d="M99.1974 90.0655C99.1974 90.0655 97.6791 85.8364 94.8761 87.1283C92.074 88.4211 94.2588 92.3263 94.2588 92.3263L99.1974 90.0655Z" fill="white"/>
<path d="M99.1284 89.9115L94.189 92.1539L107.257 120.94L112.197 118.698L99.1284 89.9115Z" fill="white"/>
<path d="M99.4718 89.5792L93.707 92.1963L94.2271 93.3417L99.9918 90.7246L99.4718 89.5792Z" fill="#37474F"/>
<path d="M100.028 90.8384L94.2632 93.4565L94.7837 94.6026L100.549 91.9845L100.028 90.8384Z" fill="#37474F"/>
<path d="M107.245 120.936L110.715 123.646L111.856 124.544L111.944 123.089L112.187 118.691L111.348 118.2C111.348 118.2 111.193 119.123 111.184 119.14L110.345 118.649C110.345 118.649 110.186 119.573 110.182 119.59L109.368 119.094C109.368 119.094 109.2 120.022 109.192 120.039L108.428 119.543C108.428 119.543 108.261 120.47 108.252 120.488L107.438 119.992C107.438 119.993 107.249 120.919 107.245 120.936Z" fill="#EBEBEB"/>
<path d="M110.715 123.647L111.857 124.544L111.945 123.089L110.715 123.647Z" fill="#37474F"/>
<path d="M67.1351 104.96C60.842 115.251 50.2983 137.216 54.3476 145.292C58.2448 153.07 89.229 141.822 95.5141 139.51C98.0979 138.562 94.9683 117.22 92.1072 117.891C85.8132 119.355 72.4719 125.715 72.1739 125.519C71.876 125.321 73.7763 116.078 75.2829 106.902C77.4856 93.5565 71.6541 97.5593 67.1351 104.96Z" fill="#EA867F"/>
<path d="M110.983 107.729C112.691 109.688 110.639 111.42 110.639 111.42C111.764 111.566 112.802 112.099 113.576 112.927C114.872 114.454 113.044 117.156 113.044 117.156C114.185 117.552 115.178 118.283 115.896 119.254C116.987 120.839 115.531 123.827 115.531 123.827C116.377 124.765 116.856 125.976 116.882 127.238C116.819 130.595 112.414 133.288 109.603 134.966C105.428 137.484 97.2851 138.918 95.51 139.527L84.375 121.691C84.375 121.691 94.8185 110.665 98.288 108.907C101.837 107.096 109.305 105.799 110.983 107.729Z" fill="#EA867F"/>
<path d="M110.337 111.211C106.808 111.832 103.654 113.456 100.411 114.903C100.382 114.922 100.374 114.961 100.394 114.991C100.408 115.012 100.435 115.023 100.461 115.016C103.67 113.54 107.128 112.721 110.387 111.375C110.429 111.35 110.443 111.296 110.418 111.254C110.401 111.225 110.37 111.209 110.337 111.211Z" fill="#263238"/>
<path d="M112.846 116.955C112.058 117.176 111.302 117.497 110.597 117.911C109.825 118.3 109.06 118.705 108.302 119.124C106.783 119.963 105.281 120.828 103.809 121.738C103.742 121.78 103.787 121.889 103.859 121.851C105.373 121.012 106.901 120.215 108.453 119.451C109.225 119.069 110.005 118.691 110.786 118.323C111.545 118.02 112.268 117.635 112.942 117.173C112.993 117.126 112.997 117.047 112.95 116.995C112.924 116.966 112.885 116.951 112.846 116.955Z" fill="#263238"/>
<path d="M115.473 123.844C114.777 123.957 114.097 124.46 113.493 124.809C112.81 125.204 112.123 125.594 111.432 125.979C110.056 126.755 108.68 127.527 107.275 128.254C107.208 128.291 107.275 128.4 107.325 128.366C108.755 127.636 110.195 126.923 111.617 126.181C112.316 125.819 113.016 125.452 113.715 125.077C114.306 124.763 115.083 124.431 115.524 123.911C115.542 123.897 115.546 123.871 115.532 123.852C115.517 123.834 115.491 123.829 115.473 123.844Z" fill="#263238"/>
<path d="M72.1829 125.388C71.1326 126.225 70.1646 127.16 69.2923 128.182C68.4432 129.155 67.647 130.172 66.9053 131.228C66.9053 131.253 66.9509 131.275 66.9715 131.253C67.8107 130.259 68.759 129.316 69.6528 128.346C70.5466 127.377 71.5531 126.471 72.3797 125.48C72.4343 125.413 72.2545 125.333 72.1829 125.388Z" fill="#263238"/>
<path d="M61.3706 147.994C64.2971 147.737 67.2038 147.29 70.0721 146.655L72.2247 146.181L74.3639 145.674C75.0779 145.501 75.7864 145.309 76.4995 145.128C77.2134 144.947 77.9175 144.758 78.6225 144.557C81.455 143.79 84.2571 142.917 87.0557 142.019L91.2257 140.622L95.3797 139.153H95.4047C96.9865 138.78 98.5683 138.373 100.146 137.971C101.724 137.568 103.292 137.131 104.849 136.674C106.411 136.243 107.928 135.664 109.38 134.946C110.828 134.201 112.212 133.339 113.517 132.366C112.281 133.44 110.943 134.393 109.523 135.21C108.812 135.624 108.077 135.993 107.32 136.317C106.557 136.637 105.785 136.913 105.013 137.178C103.46 137.706 101.891 138.172 100.322 138.625C98.7526 139.078 97.1753 139.498 95.5935 139.908H95.6356L91.4816 141.432C90.0895 141.902 88.6956 142.397 87.2865 142.846C84.4755 143.731 81.6519 144.599 78.7907 145.309C75.9287 146.017 73.0514 146.685 70.1393 147.167C69.4119 147.29 68.6836 147.403 67.9536 147.507C67.2191 147.595 66.489 147.699 65.7545 147.771C64.2989 147.935 62.8352 148.009 61.3706 147.994Z" fill="#263238"/>
<path d="M54.4902 121.713L73.8276 122.371C73.8276 122.371 76.6011 108.337 76.458 100.785C76.3828 96.5563 73.9153 96.7362 71.1633 99.3924C61.5259 108.685 54.4902 121.713 54.4902 121.713Z" fill="#FFC727"/>
<path d="M68.6554 105.707C68.6554 105.903 68.4953 106.063 68.2984 106.063C68.1007 106.063 67.9415 105.903 67.9415 105.707C67.9415 105.509 68.1007 105.35 68.2984 105.35C68.4953 105.35 68.6554 105.509 68.6554 105.707ZM74.2426 105.35C74.0449 105.35 73.8857 105.509 73.8857 105.707C73.8857 105.903 74.0449 106.063 74.2426 106.063C74.4394 106.063 74.5996 105.903 74.5996 105.707C74.5996 105.509 74.4403 105.35 74.2426 105.35ZM71.2687 100.735C71.0719 100.735 70.9127 100.895 70.9127 101.091C70.9127 101.288 71.0719 101.448 71.2687 101.448C71.4656 101.448 71.6248 101.288 71.6248 101.091C71.6168 100.901 71.4593 100.751 71.2687 100.751V100.735ZM62.3524 114.605C62.1556 114.605 61.9955 114.765 61.9955 114.961C61.9955 115.159 62.1556 115.318 62.3524 115.318C62.5493 115.318 62.7094 115.159 62.7094 114.961C62.6996 114.771 62.543 114.622 62.3524 114.622V114.605ZM68.2975 114.605C68.0998 114.605 67.9406 114.765 67.9406 114.961C67.9406 115.159 68.0998 115.318 68.2975 115.318C68.4944 115.318 68.6545 115.159 68.6545 114.961C68.6447 114.771 68.4881 114.622 68.2975 114.622V114.605ZM74.2426 114.605C74.0449 114.605 73.8857 114.765 73.8857 114.961C73.8857 115.159 74.0449 115.318 74.2426 115.318C74.4394 115.318 74.5996 115.159 74.5996 114.961C74.5898 114.771 74.4332 114.622 74.2426 114.622V114.605ZM65.3237 109.99C65.1268 109.99 64.9676 110.15 64.9676 110.347C64.9676 110.544 65.1268 110.704 65.3237 110.704C65.5205 110.704 65.6797 110.544 65.6797 110.347C65.661 110.164 65.508 110.025 65.3237 110.024V109.99ZM71.2687 109.99C71.0719 109.99 70.9127 110.15 70.9127 110.347C70.9127 110.544 71.0719 110.704 71.2687 110.704C71.4656 110.704 71.6248 110.544 71.6248 110.347C71.606 110.164 71.453 110.025 71.2687 110.024V109.99ZM59.3822 119.262C59.1827 119.26 59.0198 119.42 59.0171 119.619C59.0144 119.819 59.1737 119.981 59.3741 119.984C59.5727 119.986 59.7364 119.827 59.7382 119.627V119.623C59.7194 119.439 59.5665 119.3 59.3822 119.296V119.262ZM65.3237 119.262C65.1241 119.26 64.9613 119.42 64.9586 119.619C64.956 119.819 65.1161 119.981 65.3156 119.984C65.5142 119.986 65.678 119.827 65.6797 119.627V119.623C65.6628 119.438 65.5089 119.297 65.3237 119.296V119.262ZM71.2687 119.262C71.0692 119.26 70.9064 119.42 70.9037 119.619C70.901 119.819 71.0612 119.981 71.2607 119.984C71.4593 119.986 71.623 119.827 71.6248 119.627V119.623C71.6078 119.438 71.4539 119.297 71.2687 119.296V119.262Z" fill="white"/>
<path d="M73.2571 119.309C70.2913 118.961 62.2187 118.247 56.8945 118.469C56.8614 118.469 56.8524 118.596 56.8945 118.596C61.3374 119.078 70.2537 119.401 73.2571 119.489C73.2992 119.493 73.3117 119.317 73.2571 119.309Z" fill="#263238"/>
<path d="M76.4456 107.997C76.2228 108.837 76.026 109.676 75.8122 110.515L75.8497 110.209C75.9678 109.034 76.085 107.859 76.1691 106.68C76.1691 106.651 76.1226 106.646 76.1181 106.68C75.5438 110.788 73.9199 121.171 73.8278 122.309C73.7356 122.309 72.8544 122.334 72.6486 122.309C72.603 122.309 72.6066 122.371 72.6486 122.376C72.7542 122.376 74.0792 122.547 74.0881 122.518C74.6625 120.517 75.5393 112.948 75.7245 111.275C76.026 110.192 76.2738 109.1 76.4662 107.997H76.4456Z" fill="#263238"/>
</svg>
