<svg width="222" height="133" viewBox="0 0 222 133" fill="none" xmlns="http://www.w3.org/2000/svg">
<path d="M190.862 0L201.389 7.29731C202.497 8.07044 202.772 9.59348 202 10.7039C201.566 11.3195 200.873 11.7041 200.121 11.7524C197.311 11.9805 195.219 14.4429 195.447 17.2532C195.674 20.0625 198.137 22.1548 200.947 21.9267C203.756 21.6986 205.85 19.2353 205.621 16.4259C205.594 16.0877 205.533 15.7543 205.439 15.4286C205.219 14.7077 205.337 13.9268 205.757 13.3025C206.53 12.1941 208.054 11.9196 209.162 12.6898L219.69 19.9929L212.385 30.52C211.617 31.6304 211.891 33.1544 212.999 33.9265C213.624 34.3469 214.405 34.4638 215.124 34.2454C217.835 33.4656 220.662 35.0311 221.442 37.7399C222.22 40.4488 220.657 43.2765 217.947 44.0554C215.238 44.8353 212.411 43.2707 211.632 40.5618C211.538 40.2362 211.477 39.9018 211.45 39.5635C211.409 38.8088 211.023 38.1139 210.402 37.6829C209.292 36.9127 207.767 37.1872 206.995 38.2956L199.71 48.8284L189.183 41.5244C188.076 40.7513 187.8 39.2282 188.57 38.1178C189.011 37.5042 189.704 37.1205 190.458 37.0702C193.267 36.8422 195.359 34.3788 195.131 31.5695C194.903 28.7601 192.441 26.6669 189.631 26.896C186.821 27.124 184.728 29.5864 184.957 32.3957C184.984 32.734 185.045 33.0684 185.139 33.394C185.359 34.1169 185.239 34.9007 184.814 35.5259C184.04 36.6344 182.518 36.9079 181.407 36.1386L170.887 28.8413L178.184 18.3143C178.955 17.2039 178.68 15.6809 177.572 14.9077C176.945 14.4854 176.163 14.3665 175.44 14.583C172.73 15.3619 169.903 13.7983 169.123 11.0895C168.344 8.37968 169.907 5.55198 172.617 4.77306C175.326 3.99317 178.153 5.55681 178.932 8.26661C179.027 8.59422 179.087 8.93149 179.115 9.2707C179.165 10.0226 179.55 10.7126 180.163 11.1513C181.273 11.9206 182.797 11.6471 183.569 10.5386L190.862 0Z" fill="#C7C7C7"/>
<path d="M84.7678 67.8771C84.7678 74.5637 90.1884 79.9842 96.8749 79.9842V123.489H12.1099V12.2539H42.3863V12.3032C42.3805 18.9897 47.7972 24.4141 54.4837 24.419C61.1702 24.4248 66.5947 19.0081 66.6005 12.3215V12.3032V12.2539H96.8749V55.7575C90.1884 55.7575 84.7678 61.178 84.7678 67.8646V67.8771Z" fill="#455A64"/>
<path d="M3.54645 59.3148C8.27506 54.5862 15.9406 54.5862 20.6692 59.3148C25.3968 64.0434 25.3968 71.7089 20.6692 76.4375C15.9406 81.1661 8.27506 81.1661 3.54645 76.4375C-1.18215 71.7079 -1.18215 64.0434 3.54645 59.3148Z" fill="#455A64"/>
<path d="M195.144 12.2539H110.386V123.501H195.144V12.2539Z" fill="white"/>
<path d="M98.4307 65.9474C99.4957 59.3459 105.709 54.857 112.309 55.921C118.911 56.9859 123.402 63.2009 122.336 69.8024C121.272 76.4039 115.058 80.8918 108.456 79.8278C101.855 78.7638 97.3658 72.5489 98.4307 65.9474Z" fill="white"/>
<path d="M152.768 0.195068C159.455 0.195068 164.876 5.61563 164.876 12.3031C164.876 18.9897 159.455 24.4102 152.768 24.4102C146.081 24.4102 140.661 18.9897 140.661 12.3031C140.661 5.61563 146.081 0.195068 152.768 0.195068Z" fill="white"/>
<path d="M139.741 60.6167C139.706 60.81 139.822 60.9984 140.01 61.0516L141.567 61.3087C143.338 57.7861 145.139 55.029 144.63 56.1258C143.853 57.8489 143.337 59.6783 143.099 61.5541C143.791 61.6643 145.384 61.8972 146.163 62.0132C148 55.69 150.053 51.058 149.839 52.5289C148.858 58.4413 149.018 60.3838 149.226 62.4732C156.671 63.5575 166.45 64.8814 173.539 65.6778C174.71 62.1978 175.805 58.4104 175.904 58.6926C176.676 60.8003 176.65 63.7479 176.448 66.0025C178.71 66.2412 180.517 66.3948 181.626 66.4258C181.626 66.4258 182.447 63.484 182.619 62.5041C183.071 59.9934 183.054 57.4218 182.568 54.9188C182.066 52.3443 180.982 50.0163 179.977 47.6273C179.979 47.6089 179.979 47.5906 179.977 47.5713C179.312 46.0202 178.831 44.3956 178.549 42.7315V42.6948C178.365 41.4945 178.289 40.2807 178.323 39.0669C178.426 34.6311 176.324 30.5809 172.298 29.0067C165.21 20.8754 157.079 23.1909 154.157 28.6018C153.876 29.1284 153.594 29.7353 153.311 30.4031C152.258 32.8539 151.216 36.101 150.303 38.5895C149.954 39.5656 149.544 40.5194 149.078 41.4443C146.592 45.8868 141.817 48.0496 139.741 60.6167Z" fill="#263238"/>
<path d="M173.975 30.3789C176.549 32.0643 178.007 34.3006 178.11 37.5545C178.172 39.4535 178.11 41.2916 178.663 43.1297C179.287 44.96 180.179 46.6889 181.309 48.2584C182.994 50.8193 184.097 53.3194 184.085 56.5056C184.072 59.6919 183.544 63.4976 182.173 66.3832H182.143C183.32 63.4357 183.76 59.2444 183.533 56.0215C183.282 52.4738 181.524 50.0848 179.771 47.2349C178.36 45.0141 177.576 42.4522 177.503 39.8217C177.455 38.2155 177.644 36.5678 177.155 35.0051C176.54 33.167 175.157 31.8556 173.748 30.7162C173.655 30.6534 173.631 30.5268 173.692 30.434C173.755 30.3413 173.881 30.3171 173.975 30.3789Z" fill="#263238"/>
<path d="M143.981 45.9601C146.144 43.6562 148.345 41.7263 149.772 38.742C151.078 36.0216 151.953 33.0983 153.276 30.3846C153.278 30.3643 153.297 30.3498 153.317 30.3517C153.337 30.3537 153.351 30.3711 153.349 30.3914C153.348 30.4001 153.343 30.4088 153.337 30.4155C151.242 35.2553 150.433 40.2806 146.788 44.1645C144.802 46.279 142.841 48.2205 141.408 50.8501C139.951 53.6063 139.031 56.6147 138.7 59.7159C138.7 59.7594 138.664 59.7951 138.62 59.7951C138.576 59.7951 138.541 59.7594 138.541 59.7159C138.567 54.6113 140.509 49.702 143.981 45.9601Z" fill="#263238"/>
<path d="M171.923 29.165C171.114 28.6992 171.07 23.7425 174.612 21.9595C178.154 20.1765 181.8 23.4545 179.453 27.1365C177.969 29.4588 173.637 30.1391 171.923 29.165Z" fill="#263238"/>
<path d="M179.097 22.3887C179.909 23.3241 180.377 24.508 180.426 25.7469C180.502 26.9221 179.944 28.0479 178.961 28.6993C177.943 29.3468 176.767 29.7024 175.56 29.7295C174.946 29.7642 174.331 29.7411 173.722 29.6618C173.099 29.6067 172.491 29.4386 171.927 29.1651C172.436 29.5623 173.027 29.8445 173.655 29.9923C174.28 30.1624 174.925 30.2581 175.572 30.2745C176.91 30.3431 178.235 29.9942 179.365 29.2752C179.94 28.8839 180.397 28.3436 180.689 27.7135C180.959 27.0815 181.059 26.3915 180.978 25.7102C180.832 24.392 180.152 23.1918 179.097 22.3887Z" fill="#263238"/>
<path d="M203.826 120.48C203.826 120.352 203.784 120.229 203.76 120.106C203.76 120.259 203.821 120.413 203.839 120.572C203.833 120.541 203.833 120.51 203.826 120.48Z" fill="#FFC727"/>
<path d="M164.307 68.3983C158.725 71.4618 130.606 85.5548 121.813 80.6532C111.152 74.7089 100.08 63.6069 96.4593 57.0508C94.4308 53.3746 112.807 43.7966 115.042 46.8736C118.566 51.7201 127.856 60.8555 129.559 62.2462C131.261 63.6368 150.391 60.3346 161.065 60.0341C170.66 59.7645 168.232 66.2229 164.307 68.3983Z" fill="#EB9481"/>
<path d="M96.9114 57.4922C95.2937 55.5865 87.1566 44.7599 85.8829 41.7389C84.6082 38.7179 81.593 29.7594 83.8302 28.5591C86.0655 27.3579 87.1392 29.9072 87.1392 29.9072C87.1392 29.9072 86.4636 25.9237 88.8052 24.9196C91.1459 23.9146 92.7143 27.9338 92.7143 27.9338C92.7143 27.9338 92.322 23.7976 94.7303 22.9588C97.1376 22.119 98.0266 26.433 98.0266 26.433C98.0266 26.433 97.4942 22.664 99.7671 22.8051C102.506 22.983 102.701 30.0416 104.343 33.2713C104.717 34.0057 112.977 47.603 112.977 47.603L96.9114 57.4922Z" fill="#EB9481"/>
<path d="M97.9588 26.0648C98.1125 31.2544 99.0798 33.4965 101.941 37.7061C101.997 37.7921 101.886 37.8907 101.82 37.8105C98.6392 33.9139 97.0214 31.2728 97.7076 26.0281C97.7385 25.801 97.953 25.8194 97.9588 26.0648Z" fill="#263238"/>
<path d="M92.7209 27.5233C93.3336 32.9032 94.3821 35.3483 97.0474 40.0044C97.0842 40.072 96.9788 40.1455 96.9363 40.0778C93.9347 35.7281 92.3787 33.0569 92.4522 27.5967C92.4812 27.3522 92.6899 27.2788 92.7209 27.5233Z" fill="#263238"/>
<path d="M87.2921 30.1399C88.2846 35.3053 89.2955 38.0315 92.4643 42.2228C92.4962 42.2663 92.4865 42.3272 92.4431 42.36C92.4044 42.3881 92.3503 42.3842 92.3164 42.3513C88.6403 38.3871 87.3839 34.9989 87.1394 30.1891C87.1201 29.8577 87.2312 29.8152 87.2921 30.1399Z" fill="#263238"/>
<path d="M116.642 51.2664C116.642 51.2664 117.328 44.7963 117.003 41.8855C116.678 38.9747 111.489 28.5772 109.166 29.5697C106.189 30.856 108.008 37.4555 109.319 40.5683C109.319 40.5683 102.42 43.5342 102.701 48.5334C102.983 53.5336 116.642 51.2664 116.642 51.2664Z" fill="#EB9481"/>
<path d="M108.467 30.195C106.593 33.3262 108.578 37.3019 109.625 40.4215C109.686 40.5751 109.611 40.7501 109.456 40.8109C109.422 40.8245 109.386 40.8313 109.35 40.8313C106.543 42.2654 102.996 45.1211 102.548 48.4117C102.536 48.4533 102.492 48.4774 102.45 48.4658C102.424 48.4581 102.403 48.4378 102.396 48.4117C102.396 44.809 105.655 41.7261 108.829 40.3481C107.708 37.1734 105.888 33.0991 108.436 30.1825C108.448 30.1583 108.473 30.1767 108.467 30.195Z" fill="#263238"/>
<path d="M118.314 49.5996L98.9521 63.9439C98.9521 63.9439 115.827 82.7665 126.328 82.3259C136.831 81.8842 157.468 72.6502 161.922 70.4082C171.671 65.5056 169.244 59.0906 160.782 59.8203C152.32 60.549 131.469 62.2218 130.312 61.9763C129.153 61.7318 118.314 49.5996 118.314 49.5996Z" fill="#DBDBDB"/>
<path d="M128.719 82.1171C139.687 80.6472 157.787 72.5033 161.921 70.4197C170.77 65.9656 169.588 60.2793 162.964 59.8135L128.719 82.1171Z" fill="#C7C7C7"/>
<path d="M103.867 67.0749C106.165 65.5799 108.376 63.9689 110.607 62.3444C112.838 60.7208 115.037 59.1098 117.206 57.4428C118.431 56.4928 119.657 55.5554 120.882 54.5629C120.913 54.5629 120.882 54.4769 120.846 54.503C118.554 55.9912 116.33 57.5964 114.106 59.2026C111.881 60.8078 109.676 62.4371 107.482 64.1042C106.257 65.0358 105.031 65.9916 103.806 66.9841C103.732 67.0072 103.799 67.1174 103.867 67.0749Z" fill="#455A64"/>
<path d="M144.981 77.5952L144.288 77.8465C143.35 72.3776 142.792 66.8488 142.621 61.3027C142.86 61.3027 143.105 61.2601 143.35 61.2476C143.512 66.728 144.058 72.1901 144.981 77.5952Z" fill="#C7C7C7"/>
<path d="M140.397 79.1881C138.927 79.6723 137.462 80.1255 136.033 80.5237C134.849 74.3744 134.112 68.1469 133.828 61.8914C135.096 61.817 136.639 61.7194 138.357 61.5967C138.613 67.5024 139.294 73.381 140.397 79.1881Z" fill="#C7C7C7"/>
<path d="M140.06 123.514L143.375 101.063C143.375 101.063 138.063 91.7928 141.144 85.1323C142.699 81.7625 153.363 65.2921 159.11 61.1259C164.496 57.2159 171.879 60.7819 174.386 64.1894C181.61 73.9926 185.121 91.5782 189.152 123.514H140.06Z" fill="#DBDBDB"/>
<path d="M184.391 92.2276C169.734 94.1343 154.883 93.9604 140.275 91.7125C140.275 91.468 140.225 91.211 140.208 90.9597C154.789 93.2269 169.619 93.4105 184.25 91.5048C184.312 91.7435 184.391 91.9831 184.391 92.2276Z" fill="#C7C7C7"/>
<path d="M185.899 100.554C171.801 102.511 157.513 102.69 143.369 101.087C142.534 99.5512 141.843 97.9402 141.303 96.277C155.852 98.1857 170.591 98.119 185.12 96.0818C185.39 97.5092 185.648 99.0042 185.899 100.554Z" fill="#C7C7C7"/>
<path d="M150.305 99.0534C152.663 99.1317 155.002 99.5211 157.258 100.212C159.533 100.855 164.55 102.84 165.807 103.33C165.838 103.33 165.807 103.392 165.807 103.386C164.17 102.992 162.555 102.506 160.973 101.927C158.747 101.174 156.499 100.488 154.231 99.8932C152.942 99.5782 151.634 99.3433 150.316 99.1887C150.214 99.1761 150.214 99.0476 150.305 99.0534Z" fill="#263238"/>
<path d="M146.156 100.248C148.612 100.047 151.085 100.266 153.465 100.897C153.496 100.897 153.465 100.952 153.465 100.946C152.24 100.805 151.045 100.664 149.832 100.561C148.619 100.456 147.382 100.395 146.155 100.315C146.135 100.308 146.128 100.285 146.135 100.267C146.141 100.258 146.148 100.252 146.156 100.248Z" fill="#263238"/>
<path d="M159.931 122.018L134.822 132.269L115.57 98.6669L140.679 88.4163L159.931 122.018Z" fill="#37474F"/>
<path d="M158.7 122.521L133.584 132.771L114.339 99.1693L139.448 88.9177L158.7 122.521Z" fill="#455A64"/>
<path d="M132.585 110.634C133.282 111.962 134.867 112.548 136.262 111.995C137.484 111.518 138.091 110.14 137.614 108.917C137.577 108.823 137.535 108.731 137.486 108.642C136.788 107.317 135.204 106.732 133.81 107.282C132.586 107.759 131.981 109.137 132.458 110.361C132.494 110.453 132.536 110.546 132.585 110.634Z" fill="white"/>
<path d="M175.814 65.2062C185.004 74.5136 205.04 95.9223 201.131 102.22C194.704 112.582 176.756 123.599 171.022 126.356C168.571 127.545 156.255 110.144 158.461 108.201C161.108 105.873 178.754 95.4981 178.681 94.5742C178.626 93.5566 173.051 81.1982 170.28 71.1921C166.886 58.7661 171.989 61.327 175.814 65.2062Z" fill="#EB9481"/>
<path d="M167.731 105.383C167.731 105.383 159.447 104.311 154 103.87C150.936 103.625 145.71 103.668 143.388 104.482C139.926 105.738 126.232 113.207 127.971 116.565C129.547 119.628 140.495 111.694 140.495 111.694C140.495 111.694 128.744 118.698 131.305 122.012C133.866 125.327 145.055 114.739 145.055 114.739C145.055 114.739 133.151 122.234 136.337 125.217C138.751 127.484 149.412 118.477 149.412 118.477C149.412 118.477 139.216 124.966 141.6 127.397C144.228 130.093 154.595 122.392 154.595 122.392C161.678 127.562 167.12 127.538 171.041 126.35C171.953 126.081 167.731 105.383 167.731 105.383Z" fill="#EB9481"/>
<path d="M143.86 109.384C134.81 113.881 131.747 118.864 131.857 118.747C134.412 116.008 139.148 112.73 140.484 111.835C141.819 110.94 142.56 110.328 143.896 109.433C143.951 109.407 143.896 109.366 143.86 109.384Z" fill="#263238"/>
<path d="M147.726 113.802C143.983 115.456 140.566 117.766 137.634 120.622C137.523 120.738 137.598 120.75 137.733 120.658C139.4 119.475 146.042 114.942 147.758 113.845C147.781 113.826 147.757 113.789 147.726 113.802Z" fill="#263238"/>
<path d="M151.305 117.38C148.428 118.726 145.83 120.596 143.638 122.894C143.529 123.004 143.638 123.03 143.774 122.937C146.286 121.056 148.247 119.561 151.354 117.483C151.414 117.447 151.371 117.356 151.305 117.38Z" fill="#263238"/>
<path d="M163.81 104.384L177.982 125.303C177.982 125.303 201.088 107.687 201.983 100.983C202.878 94.2803 181.242 68.8465 175.114 63.944C168.986 59.0424 167.664 61.6526 168.853 68.1778C170.041 74.7039 178.41 94.2929 178.351 94.6968C178.289 95.1017 163.81 104.384 163.81 104.384Z" fill="#DBDBDB"/>
<path d="M186.457 75.9466C182.259 78.2911 177.923 80.3776 173.472 82.1963L173.215 81.5228C177.588 79.7378 181.85 77.6919 185.978 75.3958L186.457 75.9466Z" fill="#C7C7C7"/>
<path d="M191.855 82.6562C186.961 85.5361 181.881 88.0874 176.647 90.2908C176.157 89.0654 175.581 87.6197 174.975 86.0812C179.801 84.0469 184.495 81.7082 189.023 79.0776C189.979 80.2479 190.93 81.4492 191.855 82.6562Z" fill="#C7C7C7"/>
<path d="M174.944 85.3527C174.355 83.8741 173.779 82.3955 173.216 80.9169C172.921 80.1447 172.603 79.3726 172.321 78.6072L171.902 77.5461C171.83 77.375 171.744 77.1972 171.683 77.0194C171.466 76.3642 171.683 76.9459 171.387 76.3207C171.378 76.2994 171.354 76.2888 171.332 76.2975C171.32 76.3013 171.312 76.31 171.309 76.3207C171.418 76.7372 171.309 76.5845 171.443 76.8908C171.579 77.1972 171.603 77.3567 171.683 77.5954C171.793 77.9568 171.915 78.3182 172.031 78.6797C172.27 79.4151 172.528 80.1505 172.79 80.886C172.827 80.9778 172.865 81.0763 172.895 81.1739L172.858 81.0947C172.449 80.3216 172.041 79.5504 171.633 78.7782C171.633 78.7473 171.565 78.7782 171.577 78.8092C171.907 79.6238 172.263 80.4201 172.667 81.1981C172.901 81.6513 173.157 82.0872 173.421 82.5221C173.776 83.4962 174.132 84.4761 174.506 85.4445C175.657 88.4529 176.827 91.4797 178.219 94.3905C176.993 95.1993 175.725 95.9589 174.499 96.7736C173.273 97.5893 172.048 98.4349 170.823 99.2679C169.596 100.101 168.372 100.935 167.182 101.785C166.606 102.196 166.043 102.614 165.473 103.012C164.903 103.41 164.284 103.986 163.635 104.421C163.567 104.464 163.635 104.549 163.714 104.507C164.369 104.072 165.087 103.715 165.754 103.281C166.422 102.846 166.931 102.54 167.512 102.159C168.738 101.351 169.964 100.524 171.189 99.7086C172.415 98.8939 173.64 98.0551 174.866 97.2153C176.091 96.3755 177.244 95.4748 178.451 94.635C178.487 94.6098 178.511 94.5702 178.517 94.5258C178.569 94.4755 178.584 94.4011 178.561 94.3354C177.423 91.3453 176.137 88.3679 174.944 85.3527Z" fill="#263238"/>
<path d="M175.752 111.608C174.703 110.1 170.469 104.078 169.306 102.668H169.256C170.108 104.236 174.109 110.296 175.156 111.817C177.17 114.896 179.352 117.862 181.693 120.701C181.736 120.75 181.829 120.701 181.798 120.64C179.985 117.515 177.817 114.592 175.752 111.608Z" fill="#263238"/>
<path d="M188.288 116.81C187.596 117.3 186.965 117.877 186.321 118.421L184.318 120.112C183.007 121.227 181.701 122.374 180.28 123.372C180.2 123.428 180.28 123.531 180.377 123.471C181.817 122.44 183.288 121.46 184.666 120.364C186.015 119.341 187.248 118.174 188.344 116.884C188.429 116.828 188.344 116.767 188.288 116.81Z" fill="#263238"/>
<path d="M203.76 120.106C203.76 120.259 203.82 120.412 203.839 120.571V120.48C203.809 120.352 203.783 120.229 203.76 120.106Z" fill="#DBDBDB"/>
<path d="M169.122 61.3394C168.87 62.1908 164.423 67.5649 160.487 67.1542C159.201 67.0189 159.636 59.9854 159.636 59.9854L159.544 59.4588L158.318 52.1054L167.178 47.112L168.453 46.4568C168.453 46.4568 168.654 48.4911 168.876 51.0327V51.3941C168.876 51.5169 168.876 51.6763 168.919 51.8049C168.956 52.1856 168.992 52.578 169.022 52.9636C169.022 53.2574 169.071 53.5395 169.084 53.8517C169.096 54.1648 169.084 54.4644 169.139 54.7707C169.281 56.9587 169.274 59.1524 169.122 61.3394Z" fill="#EB9481"/>
<path d="M168.896 51.0153C167.17 55.0665 163.751 58.1541 159.545 59.4588L158.319 52.1064L167.179 47.112L168.453 46.4568C168.454 46.4558 168.673 48.4727 168.896 51.0153Z" fill="#263238"/>
<path d="M149.821 38.3325C146.371 50.9789 153.552 54.4714 156.284 55.2127C158.736 55.8872 167.277 57.8606 172.014 45.6366C176.75 33.4126 171.959 27.7939 166.377 25.9548C160.795 24.1177 153.264 25.6862 149.821 38.3325Z" fill="#EB9481"/>
<path d="M154.368 35.8624C154.669 35.8779 154.973 35.8779 155.274 35.8624C155.588 35.9301 155.916 35.8943 156.206 35.758C156.371 35.6256 156.427 35.3995 156.342 35.2062C156.114 34.8535 155.714 34.6505 155.294 34.6737C154.872 34.637 154.455 34.7568 154.118 35.011C153.919 35.2043 153.916 35.5222 154.108 35.7213C154.178 35.7928 154.267 35.8421 154.368 35.8624Z" fill="#263238"/>
<path d="M163.388 37.1184C163.105 37.0111 162.828 36.8864 162.561 36.7444C162.255 36.6516 161.986 36.4622 161.795 36.2051C161.708 36.0128 161.758 35.7857 161.918 35.6475C162.281 35.4359 162.73 35.4359 163.093 35.6475C163.487 35.8012 163.809 36.093 164.001 36.4689C164.097 36.725 163.969 37.0121 163.713 37.1087C163.608 37.1483 163.492 37.1512 163.388 37.1184Z" fill="#263238"/>
<path d="M160.495 41.1628C160.495 41.1628 160.554 41.2237 160.544 41.2546C160.305 42.1186 160.17 43.142 160.88 43.6262V43.6687C159.938 43.3005 160.128 41.9408 160.495 41.1628Z" fill="#263238"/>
<path d="M161.494 40.4515C162.916 40.6912 162.333 43.515 161.016 43.2889C159.698 43.0618 160.304 40.2496 161.494 40.4515Z" fill="#263238"/>
<path d="M162.015 40.7155C162.229 40.9232 162.413 41.2547 162.707 41.3282C163.002 41.4016 163.363 41.1938 163.645 40.9542C163.675 40.9542 163.694 40.9542 163.687 40.9977C163.584 41.5369 163.26 42.051 162.664 42.0143C162.07 41.9776 161.843 41.4016 161.819 40.8498C161.812 40.758 161.929 40.6604 162.015 40.7155Z" fill="#263238"/>
<path d="M155.287 39.4351C155.287 39.3983 155.214 39.4351 155.207 39.496C155.049 40.3725 154.71 41.3341 153.858 41.4752V41.5244C154.852 41.6046 155.28 40.299 155.287 39.4351Z" fill="#263238"/>
<path d="M154.704 38.3625C153.325 37.9517 152.609 40.7398 153.89 41.1196C155.169 41.4994 155.862 38.7055 154.704 38.3625Z" fill="#263238"/>
<path d="M154.08 38.3934C153.821 38.4852 153.535 38.6997 153.264 38.6514C152.996 38.6021 152.804 38.2281 152.651 37.8908C152.651 37.8541 152.614 37.8908 152.602 37.8908C152.449 38.4243 152.486 39.0244 152.971 39.2573C153.455 39.4902 153.877 39.0979 154.14 38.6021C154.22 38.5287 154.182 38.3557 154.08 38.3934Z" fill="#263238"/>
<path d="M158.265 47.774C158.02 47.946 157.762 48.1973 157.439 48.1722C157.11 48.118 156.8 47.9924 156.525 47.8049L158.265 47.774ZM156.482 47.8407C156.686 48.2301 157.084 48.4804 157.524 48.4969C157.906 48.4602 158.228 48.1963 158.338 47.8281C158.363 47.7798 158.296 47.7489 158.265 47.773L156.482 47.8407Z" fill="#263238"/>
<path d="M155.304 43.8282C155.304 43.8282 154.84 45.0903 154.692 45.703C154.692 45.7639 154.827 45.8199 155.029 45.8808C156.058 46.3051 157.238 46.1234 158.092 45.4092C158.147 45.3599 158.092 45.2807 158.02 45.3048C157.119 45.6682 156.127 45.731 155.188 45.4826C155.188 45.3048 156.051 43.3498 155.961 43.3198C155.474 43.2522 154.982 43.2522 154.495 43.3198C155.385 40.6603 156.694 38.167 157.56 35.5074C157.56 35.4098 157.456 35.348 157.413 35.4282C155.849 37.9466 154.76 40.985 153.768 43.7054C153.669 44.0601 155.036 43.8765 155.304 43.8282Z" fill="#263238"/>
<path d="M155.287 45.6849C155.518 46.2464 155.892 46.7383 156.371 47.1123C156.638 47.3104 156.962 47.4196 157.296 47.4245C158.02 47.4245 158.203 46.8127 158.222 46.2426C158.226 45.942 158.198 45.6424 158.136 45.3477C157.245 45.7613 156.249 45.8792 155.287 45.6849Z" fill="#263238"/>
<path d="M156.371 47.1122C156.638 47.3103 156.962 47.4195 157.296 47.4244C158.02 47.4244 158.202 46.8117 158.222 46.2425C157.478 46.0734 156.713 46.4319 156.371 47.1122Z" fill="#FF9CBD"/>
<path d="M172.253 44.4101C170.091 44.4101 169.949 39.8632 169.949 39.8632C169.949 39.8632 165.579 39.5385 164.623 33.1235C164.604 35.0157 165.137 36.8722 166.154 38.4667C166.154 38.4667 158.522 37.0577 155.776 30.3596C155.776 30.3596 156.817 33.742 157.938 35.0051C157.938 35.0051 154.777 33.8531 153.406 31.1076C153.406 31.1076 151.77 34.7229 150.653 35.6719C150.653 35.6719 152.014 22.1925 164.384 24.6433C164.384 24.6433 172.154 25.7643 174.483 32.1677C176.812 38.5711 172.253 44.4101 172.253 44.4101Z" fill="#263238"/>
<path d="M169.349 45.7033C169.349 45.7033 172.897 42.1924 174.539 43.5222C176.18 44.8519 173.007 50.3111 170.716 50.7219C169.527 51.0186 168.322 50.2938 168.027 49.106C168.02 49.0771 168.014 49.0471 168.007 49.0181L169.349 45.7033Z" fill="#EB9481"/>
<path d="M173.588 45.0655C173.625 45.0655 173.625 45.1148 173.588 45.1206C171.976 45.4579 170.929 46.7075 170.113 48.0556C170.562 47.5482 171.337 47.4999 171.842 47.9473C171.881 47.9812 171.916 48.0169 171.951 48.0556C171.951 48.0865 171.951 48.1416 171.896 48.1232C171.385 47.8555 170.76 47.9358 170.333 48.3252C169.988 48.647 169.678 49.0046 169.409 49.3912C169.317 49.5139 169.084 49.3911 169.163 49.251V49.2201C169.52 47.296 171.523 44.8819 173.588 45.0655Z" fill="#263238"/>
<path d="M159.557 60.1509L161.487 66.0817L169.121 59.342L170.96 61.7928C170.96 61.7928 163.177 72.8224 163.172 72.3073L161.155 67.1979L157.479 70.3958L158.361 61.818L159.557 60.1509Z" fill="white"/>
<path d="M157.719 66.1127C157.908 64.6979 158.067 63.2637 158.332 61.8605C158.332 61.8112 158.423 61.7929 158.429 61.8605C158.62 63.2512 157.817 68.6679 157.763 69.9735C157.916 69.8324 161.139 67.167 161.163 67.2163C161.624 68.0368 163.1 71.7623 163.198 72.1179C164.424 70.3649 169.123 64.005 170.55 62.3689C170.566 62.3457 170.596 62.3389 170.62 62.3534C170.643 62.3688 170.651 62.4008 170.636 62.4239C169.527 64.262 163.283 72.8408 163.221 72.8408C162.429 71.0781 161.724 69.2767 161.114 67.4425C160.562 68.0552 157.284 71.0636 157.291 70.849C157.349 69.2641 157.492 67.6831 157.719 66.1127Z" fill="#263238"/>
<path d="M24.7452 123.464H78.6038C78.8309 121.412 70.5836 77.6386 60.8896 63.5697C59.7869 61.9713 50.3693 60.8067 46.9125 64.796C28.5973 85.8124 24.2968 122.961 24.7452 123.464Z" fill="#FFC727"/>
<path d="M76.5879 111.675C76.3502 111.618 76.1018 111.618 75.8641 111.675C75.6196 111.724 75.3809 111.748 75.1412 111.817C75.3799 111.878 75.6215 111.927 75.8641 111.963C76.0806 111.978 76.2893 112.041 76.4777 112.146C76.5696 112.204 76.6546 112.274 76.7281 112.355C76.673 112.109 76.6305 111.897 76.5879 111.675ZM47.9853 85.5112C47.7669 85.4976 47.5562 85.429 47.3717 85.3092C47.0412 85.0976 46.844 84.7284 46.8517 84.3351C46.8401 83.7291 46.4613 83.1918 45.896 82.9744C45.6389 82.8816 45.3606 82.8623 45.0929 82.9193C44.8542 82.9686 44.6029 82.9995 44.3642 83.0671C44.6029 83.1338 44.8542 83.1648 45.0929 83.214C45.3084 83.2295 45.5181 83.2923 45.7056 83.3976C46.0409 83.5977 46.2468 83.9572 46.2506 84.3467C46.2497 84.9468 46.6063 85.4899 47.1581 85.7257C47.4142 85.8301 47.6944 85.8571 47.967 85.8059C48.2124 85.7566 48.4511 85.7257 48.6898 85.6581C48.4695 85.5904 48.2298 85.5614 47.9853 85.5112ZM62.8322 106.455C62.6147 106.437 62.404 106.368 62.2195 106.252C61.8909 106.039 61.6957 105.669 61.7044 105.278C61.6986 104.476 61.0443 103.83 60.2422 103.836C60.1417 103.837 60.0431 103.849 59.9455 103.869C59.7 103.918 59.4613 103.948 59.2159 104.016C59.4613 104.083 59.7 104.108 59.9455 104.157C60.162 104.172 60.3717 104.236 60.5582 104.346C60.8955 104.543 61.1042 104.9 61.11 105.291C61.1081 105.891 61.4647 106.433 62.0165 106.67C62.2726 106.774 62.5538 106.799 62.8254 106.743C63.0651 106.694 63.3096 106.67 63.5492 106.601C63.3154 106.528 63.0709 106.505 62.8322 106.455ZM34.8857 110.972C34.6673 110.954 34.4576 110.885 34.273 110.769C33.9425 110.555 33.7454 110.187 33.7521 109.795C33.7454 109.189 33.3646 108.649 32.7954 108.441C32.5364 108.347 32.2562 108.328 31.9875 108.386C31.7478 108.435 31.5082 108.465 31.2637 108.533C31.5082 108.6 31.7478 108.63 31.9875 108.68C32.202 108.692 32.4127 108.756 32.5992 108.863C32.9326 109.062 33.1414 109.419 33.1511 109.807C33.1472 110.41 33.5086 110.955 34.0643 111.186C34.3204 111.29 34.6016 111.317 34.8732 111.265C35.1119 111.217 35.3506 111.186 35.5961 111.118C35.3448 111.051 35.1051 111.018 34.8857 110.972ZM69.7187 84.4452L69.2955 84.537C69.4549 84.5796 69.6173 84.6124 69.7796 84.6356C69.7429 84.5738 69.7245 84.5129 69.7004 84.4452H69.7187ZM60.9071 91.0139C60.8588 90.7684 60.8279 90.5297 60.7602 90.291C60.6935 90.5297 60.6626 90.7684 60.6143 91.0139C60.6017 91.2294 60.5389 91.44 60.4297 91.6266C60.2345 91.9638 59.8759 92.1745 59.4865 92.1774C58.8863 92.1764 58.3432 92.533 58.1074 93.0849C58.003 93.341 57.976 93.6222 58.0282 93.8937C58.0774 94.1324 58.1074 94.3779 58.1751 94.6166C58.2417 94.3779 58.2736 94.1324 58.322 93.8937C58.3403 93.6763 58.4099 93.4666 58.5239 93.281C58.7375 92.9525 59.1067 92.7582 59.4981 92.7659C60.1031 92.7553 60.6394 92.3755 60.853 91.8102C60.939 91.5531 60.9506 91.2777 60.8897 91.0139H60.9071ZM36.1778 91.498C36.1295 91.2593 36.0976 91.0139 36.0309 90.7752C35.9633 91.0139 35.9333 91.2593 35.884 91.498C35.8686 91.7126 35.8058 91.9223 35.6995 92.1107C35.5013 92.4441 35.1447 92.6509 34.7562 92.6558C34.1571 92.6548 33.614 93.0114 33.3781 93.5632C33.2738 93.8193 33.2457 94.0996 33.2979 94.3711C33.3472 94.6166 33.3781 94.8553 33.4448 95.094C33.5125 94.8553 33.5434 94.6166 33.5927 94.3711C33.6082 94.1537 33.6787 93.944 33.7947 93.7584C34.0053 93.427 34.3755 93.2298 34.7678 93.2385C35.3718 93.225 35.9082 92.8471 36.1227 92.2818C36.2029 92.0344 36.2165 91.7705 36.1594 91.5164L36.1778 91.498ZM47.6538 66.8847C47.6055 66.6393 47.5746 66.4006 47.5069 66.1619C47.4403 66.4006 47.4093 66.6393 47.36 66.8847C47.3455 67.1002 47.2828 67.309 47.1765 67.4974C46.9812 67.8347 46.6227 68.0444 46.2332 68.0493C45.6321 68.0493 45.089 68.4049 44.8484 68.9557C44.744 69.2118 44.716 69.4931 44.7682 69.7646C44.8175 70.0033 44.8484 70.2488 44.915 70.4875C44.9827 70.2488 45.0136 70.0033 45.0687 69.7646C45.0871 69.5472 45.1557 69.3375 45.2707 69.1519C45.4823 68.8214 45.8525 68.6262 46.2448 68.6368C46.8488 68.6252 47.3862 68.2474 47.5997 67.681C47.6857 67.424 47.6973 67.1486 47.6364 66.8847H47.6538ZM50.2032 115.106C50.1539 114.861 50.1298 114.622 50.0631 114.377C49.9945 114.622 49.9645 114.861 49.9152 115.106C49.8998 115.322 49.8369 115.531 49.7316 115.719C49.5364 116.056 49.1779 116.266 48.7874 116.271C48.1863 116.27 47.6432 116.625 47.4035 117.177C47.2972 117.433 47.2721 117.715 47.3301 117.985C47.3784 118.226 47.4093 118.469 47.477 118.71C47.5437 118.469 47.5746 118.226 47.6239 117.985C47.6364 117.769 47.7031 117.558 47.8191 117.373C48.0336 117.045 48.4018 116.851 48.7942 116.858C49.3992 116.847 49.9375 116.468 50.1539 115.903C50.2438 115.648 50.2612 115.371 50.2032 115.106ZM62.4582 76.6647C62.2948 76.802 62.1016 76.8976 61.8947 76.9469C61.5101 77.032 61.1091 76.9082 60.8404 76.6222C60.2693 76.0588 59.3492 76.0656 58.7868 76.6357C58.7162 76.7082 58.6515 76.7875 58.5984 76.8735C58.4631 77.0745 58.3094 77.2716 58.1876 77.4852C58.407 77.3634 58.5983 77.2156 58.8003 77.0745C58.9608 76.9343 59.1511 76.8319 59.3579 76.7749C59.7358 76.6773 60.1369 76.7846 60.4171 77.0561C60.8414 77.4813 61.4782 77.6118 62.0349 77.3876C62.2852 77.2803 62.4987 77.1015 62.6476 76.8735C62.7829 76.6647 62.9298 76.4743 63.0525 76.2598C62.8322 76.3825 62.635 76.5294 62.4582 76.6647ZM46.7541 102.171C46.5918 102.309 46.3985 102.403 46.1897 102.447C45.807 102.53 45.4089 102.41 45.1364 102.128C44.6976 101.708 44.0492 101.594 43.4944 101.84C43.2451 101.959 43.0335 102.144 42.8808 102.374C42.7465 102.582 42.5928 102.772 42.4701 102.987C42.6914 102.858 42.8808 102.711 43.0837 102.576C43.2441 102.432 43.4374 102.328 43.6471 102.276C44.0182 102.18 44.4116 102.281 44.6889 102.545C45.1151 102.97 45.7529 103.103 46.3125 102.882C46.5628 102.771 46.7744 102.59 46.9252 102.361C47.0595 102.159 47.2132 101.969 47.3349 101.749C47.1397 101.883 46.9368 102.031 46.729 102.171H46.7541ZM73.9835 100.094C73.9323 100.157 73.8868 100.226 73.8482 100.296L74.0076 100.193C73.997 100.162 73.9893 100.127 73.9835 100.094ZM66.0725 118.476C65.9101 118.613 65.7169 118.71 65.5091 118.757C65.1254 118.842 64.7244 118.722 64.4489 118.439C64.017 118.018 63.3704 117.904 62.8196 118.151C62.5693 118.268 62.3567 118.454 62.2069 118.685C62.0716 118.893 61.9189 119.089 61.7962 119.298C62.0069 119.171 62.2117 119.034 62.4089 118.887C62.5712 118.744 62.7636 118.638 62.9723 118.58C63.3511 118.483 63.7531 118.589 64.0324 118.863C64.4499 119.294 65.0877 119.43 65.6444 119.205C65.8937 119.091 66.1063 118.909 66.2561 118.678C66.3914 118.476 66.5383 118.28 66.661 118.065C66.4707 118.213 66.2754 118.359 66.0725 118.476ZM38.733 121.589C38.5697 121.724 38.3764 121.818 38.1696 121.864C37.7869 121.948 37.3868 121.829 37.1152 121.546C36.6803 121.125 36.0319 121.011 35.4801 121.257C35.2307 121.377 35.0191 121.562 34.8664 121.791C34.7311 122 34.5784 122.189 34.4557 122.405C34.677 122.282 34.8664 122.128 35.0694 121.994C35.2288 121.851 35.4201 121.749 35.626 121.692C36.0039 121.595 36.4049 121.698 36.6871 121.97C37.1075 122.398 37.7463 122.531 38.3049 122.306C38.5523 122.195 38.7639 122.016 38.9166 121.791C39.0519 121.583 39.1978 121.393 39.3273 121.178C39.1311 121.319 38.9417 121.473 38.733 121.607V121.589Z" fill="white"/>
<path d="M62.164 67.2036C63.6958 71.162 69.4623 85.0463 72.5799 95.0147C74.6818 101.699 75.4849 107.313 75.9449 108.789C75.9449 108.789 60.0128 103.679 56.4603 103.673C50.946 103.673 42.0967 115.174 44.2663 116.621C47.6796 118.887 63.9412 126.607 76.9249 129.028C83.9835 130.345 97.286 121.375 96.2316 114.243C94.7608 104.23 76.6678 77.8408 69.787 70.3589C66.2326 66.4739 60.3018 62.3754 62.164 67.2036Z" fill="#AD6359"/>
<path d="M97.2187 116.356C96.8872 123.568 87.8678 129.64 82.6357 129.959C73.6163 130.505 46.5454 122.607 46.5454 122.607L57.0666 102.337C57.0666 102.337 75.4853 108.587 75.9501 108.765C75.7916 108.231 71.2515 91.1734 69.2114 85.5238C69.1003 85.2107 68.9776 84.9111 68.8616 84.5555C68.2479 82.9938 67.4767 80.9218 66.5886 78.6913C66.0977 77.4669 65.5777 76.1681 65.0684 74.8866C62.8447 69.3723 60.6762 64.1025 60.6762 64.1025C63.7764 64.6118 66.8389 66.2412 71.8642 71.5168C76.8885 76.7924 97.7696 104.457 97.2187 116.356Z" fill="#FFC727"/>
<path d="M78.7373 114.231C78.5208 114.217 78.3102 114.149 78.1256 114.034C77.797 113.821 77.6027 113.453 77.6105 113.061C77.5989 112.455 77.2201 111.917 76.6547 111.7C76.3967 111.612 76.1193 111.595 75.8516 111.651C75.6071 111.7 75.3684 111.725 75.1288 111.792C75.3675 111.853 75.6091 111.903 75.8516 111.938C76.0681 111.954 76.2778 112.017 76.4653 112.123C76.8016 112.32 77.0094 112.678 77.0161 113.066C77.0152 113.667 77.3718 114.212 77.9236 114.451C78.1787 114.556 78.4609 114.582 78.7325 114.524C78.9712 114.475 79.2167 114.445 79.4554 114.377C79.2215 114.31 79.0021 114.286 78.7373 114.231ZM72.8935 127.711C72.6354 127.617 72.3571 127.598 72.0904 127.656C71.8449 127.705 71.6062 127.735 71.3675 127.802C71.6062 127.87 71.8449 127.9 72.0904 127.95C72.3049 127.964 72.5147 128.027 72.7021 128.133C73.0278 128.326 73.2346 128.669 73.2549 129.047L73.8666 129.144V129.065C73.8473 128.453 73.453 127.918 72.8741 127.717L72.8935 127.711ZM62.8313 106.449C62.6148 106.432 62.4041 106.362 62.2196 106.247C61.891 106.033 61.6958 105.664 61.7035 105.273C61.6987 104.471 61.0444 103.825 60.2423 103.831C60.1418 103.831 60.0432 103.842 59.9456 103.863C59.7001 103.912 59.4614 103.943 59.216 104.01C59.4614 104.079 59.7001 104.103 59.9456 104.151C60.1621 104.166 60.3718 104.231 60.5583 104.341C60.8956 104.537 61.1043 104.895 61.1101 105.286C61.1082 105.885 61.4648 106.427 62.0166 106.663C62.2727 106.769 62.5539 106.794 62.8255 106.737C63.0652 106.688 63.3097 106.663 63.5493 106.596C63.3155 106.529 63.0709 106.504 62.8313 106.456V106.449ZM72.8741 86.9761C72.6557 86.9655 72.4441 86.895 72.2615 86.7742C71.9309 86.5644 71.7328 86.1982 71.7406 85.8058C71.7319 85.1989 71.353 84.6597 70.7848 84.4461C70.5268 84.3543 70.2484 84.3369 69.9827 84.3968C69.743 84.4461 69.4985 84.4703 69.2598 84.5379C69.4985 84.6056 69.743 84.6355 69.9827 84.6848C70.1982 84.7003 70.406 84.7631 70.5954 84.8684C70.9278 85.0685 71.1365 85.4241 71.1462 85.8126C71.1385 86.4118 71.4941 86.9568 72.0479 87.1907C72.303 87.2941 72.5842 87.3221 72.8568 87.2699C73.1003 87.2216 73.3409 87.1907 73.5845 87.124C73.3583 87.0563 73.1196 87.0254 72.8741 86.9761ZM92.7144 103.87C92.666 103.624 92.6342 103.386 92.5675 103.147C92.4998 103.386 92.4689 103.624 92.4206 103.87C92.409 104.085 92.3462 104.295 92.236 104.483C92.0418 104.82 91.6832 105.029 91.2928 105.033C90.6936 105.032 90.1505 105.389 89.9147 105.94C89.8094 106.197 89.7823 106.477 89.8345 106.749C89.8838 106.987 89.9147 107.233 89.9814 107.472C90.0491 107.233 90.08 106.987 90.1293 106.749C90.1476 106.532 90.2162 106.323 90.3312 106.136C90.5448 105.808 90.913 105.613 91.3044 105.622C91.9094 105.611 92.4457 105.231 92.6593 104.666C92.7511 104.41 92.7704 104.135 92.7144 103.87ZM85.9747 124.187C85.9254 123.942 85.8955 123.703 85.8268 123.465C85.7602 123.703 85.7292 123.942 85.6799 124.187C85.6683 124.404 85.6055 124.614 85.4973 124.8C85.3011 125.138 84.9426 125.347 84.5531 125.351C83.953 125.35 83.4099 125.707 83.1741 126.258C83.0707 126.515 83.0426 126.795 83.0948 127.067C83.1431 127.307 83.1741 127.552 83.2417 127.79C83.3094 127.552 83.3393 127.307 83.3886 127.067C83.407 126.85 83.4765 126.64 83.5906 126.455C83.8051 126.126 84.1724 125.932 84.5657 125.941C85.3707 125.931 86.0163 125.27 86.0066 124.465C86.0056 124.368 85.995 124.271 85.9747 124.175V124.187ZM49.7559 116.474C49.9327 116.323 50.0661 116.128 50.1424 115.909C50.184 115.805 50.2101 115.696 50.2217 115.585L49.7559 116.474ZM96.5993 117.19C96.436 117.326 96.2427 117.42 96.0359 117.466C95.6522 117.55 95.2531 117.429 94.9816 117.147C94.5467 116.726 93.8982 116.612 93.3454 116.859C93.0971 116.978 92.8854 117.163 92.7327 117.393C92.5974 117.6 92.4448 117.791 92.322 118.005C92.5433 117.877 92.7328 117.73 92.9347 117.595C93.0942 117.451 93.2846 117.347 93.4923 117.294C93.8702 117.194 94.2732 117.298 94.5525 117.571C94.9758 117.996 95.6117 118.128 96.1702 117.907C96.4196 117.796 96.6331 117.615 96.7829 117.386C96.9115 117.19 97.0526 117.007 97.1753 116.773C96.9685 116.899 96.7694 117.038 96.58 117.19H96.5993ZM78.1198 99.4824C77.9555 99.6177 77.7632 99.7123 77.5554 99.7578C77.1727 99.8418 76.7736 99.722 76.502 99.4389C76.0662 99.0185 75.4187 98.9044 74.8659 99.1509C74.6175 99.2707 74.4049 99.4543 74.2532 99.6843C74.1179 99.8931 73.9652 100.082 73.8425 100.297C74.0638 100.168 74.2532 100.022 74.4552 99.8863C74.6137 99.7423 74.805 99.6399 75.0128 99.5867C75.3907 99.4852 75.7927 99.5906 76.0729 99.8621C76.4962 100.288 77.1321 100.42 77.6897 100.199C77.94 100.088 78.1526 99.9076 78.3024 99.6785C78.4377 99.4756 78.5846 99.2862 78.7132 99.0658C78.5179 99.2002 78.3275 99.348 78.1198 99.4824ZM84.7918 88.6123C84.5444 88.5871 84.2941 88.6297 84.0689 88.735C83.8186 88.8519 83.607 89.0365 83.4562 89.2675C83.3219 89.4762 83.1673 89.6666 83.0455 89.8811C83.2659 89.7584 83.4563 89.6115 83.6582 89.4762C83.8206 89.3332 84.0129 89.2279 84.2216 89.1699C84.6005 89.0732 85.0025 89.1795 85.2818 89.4521C85.3224 89.4955 85.3678 89.5342 85.4171 89.568C85.2151 89.2491 85.0063 88.9312 84.7918 88.619V88.6123ZM66.0726 118.477C65.9102 118.614 65.717 118.71 65.5092 118.758C65.1255 118.843 64.7235 118.722 64.449 118.44C64.0171 118.018 63.3705 117.904 62.8197 118.152C62.5694 118.269 62.3568 118.455 62.207 118.686C62.0717 118.894 61.919 119.09 61.7963 119.298C62.007 119.172 62.2118 119.035 62.409 118.888C62.5713 118.744 62.7637 118.639 62.9724 118.58C63.3512 118.484 63.7532 118.59 64.0325 118.863C64.45 119.295 65.0869 119.43 65.6445 119.206C65.8938 119.092 66.1064 118.909 66.2562 118.679C66.3915 118.477 66.5384 118.281 66.6611 118.066C66.4708 118.214 66.2755 118.36 66.0726 118.477Z" fill="white"/>
<path d="M53.5617 118.238C54.3088 116.804 55.0741 115.377 55.8289 113.95C56.5827 112.521 57.3181 111.142 58.071 109.753C58.8248 108.361 59.6704 106.866 60.3024 105.346C60.3024 105.346 60.2705 105.297 60.2531 105.346C59.3321 106.618 58.4943 107.949 57.7463 109.329C56.9441 110.731 56.1536 112.154 55.3757 113.576C54.5967 114.997 53.8797 116.375 53.1568 117.784C52.374 119.236 51.6937 120.741 51.1235 122.288C51.1109 122.321 51.1264 122.355 51.1583 122.367C51.1825 122.377 51.2095 122.369 51.2269 122.35C52.0812 121.024 52.8601 119.65 53.5617 118.238Z" fill="#37474F"/>
<g opacity="0.1">
<g opacity="0.1">
<path opacity="0.1" d="M81.5873 111.773L75.9377 108.789C75.7792 108.255 71.2391 91.1974 69.199 85.5488C69.0879 85.2357 68.9651 84.9351 68.8492 84.5804C68.2365 83.0178 67.4643 80.9468 66.5762 78.7163L81.5873 111.773Z" fill="black"/>
</g>
</g>
<path d="M86.2441 114.249C84.664 113.088 83.0124 112.027 81.299 111.075C80.4534 110.598 79.5875 110.158 78.7003 109.758C77.7513 109.335 76.753 109.028 75.8146 108.605C75.7422 108.575 75.6861 108.685 75.7596 108.715C76.6361 109.115 77.4691 109.666 78.3215 110.125C79.1729 110.585 80.0861 111.081 80.981 111.54C82.7322 112.442 84.4543 113.379 86.1948 114.316C86.2373 114.341 86.2808 114.273 86.2441 114.249Z" fill="#37474F"/>
<path d="M82.1447 109.898C80.7357 109.898 72.213 107.638 70.9741 108.808C63.4071 115.94 61.0182 114.507 59.4072 115.432C46.9435 122.607 30.2962 131.032 24.3587 131.081C15.345 131.154 11.7607 123.593 13.2557 116.449C16.2216 102.326 35.2645 74.7831 43.8926 67.4733C48.4578 63.6009 48.0964 69.4399 46.208 75.794C45.0996 79.5195 43.1455 85.0531 41.1837 90.4997C39.4316 95.3405 34.7871 107.711 34.7069 107.999V108.029C34.7069 108.066 34.7069 108.073 34.8055 108.029C35.2036 107.956 45.835 102.938 56.5824 100.174C60.3562 99.207 68.2237 97.8212 71.0427 99.0775C72.7213 99.8255 72.7454 100.824 72.7454 100.824C73.765 100.819 74.7498 101.193 75.5094 101.871C76.0873 102.365 76.5125 103.014 76.7338 103.74C77.5688 103.865 78.3467 104.234 78.971 104.802C79.5074 105.382 79.8562 106.113 79.9693 106.897C81.9359 107.448 82.1447 109.898 82.1447 109.898Z" fill="#AD6359"/>
<path d="M69.56 100.53C68.4303 100.562 67.3054 100.688 66.1959 100.904C66.1215 100.904 66.1215 101.038 66.1959 101.027C67.2918 100.904 68.4022 100.879 69.5039 100.842C70.6075 100.805 71.7112 100.787 72.8071 100.805C71.7353 100.616 70.6481 100.524 69.56 100.53Z" fill="#263238"/>
<path d="M76.6924 103.673C74.7702 103.06 72.736 102.88 70.7365 103.146C70.6572 103.146 70.663 103.275 70.7365 103.269C72.7302 103.163 74.7306 103.312 76.6856 103.716C76.6847 103.716 76.7098 103.68 76.6924 103.673Z" fill="#263238"/>
<path d="M79.9323 106.835C78.1532 106.076 76.2291 105.715 74.2953 105.775C74.2219 105.775 74.1967 105.891 74.2953 105.897C76.1972 106.073 78.0788 106.415 79.9198 106.921C79.9517 106.928 79.9758 106.835 79.9323 106.835Z" fill="#263238"/>
<path d="M56.0374 100.297C55.099 100.45 54.1703 100.654 53.2551 100.91C52.2742 101.148 51.3069 101.419 50.3511 101.731C48.4434 102.37 46.5715 103.113 44.7441 103.956C44.6774 103.986 44.744 104.096 44.7875 104.066C46.6256 103.416 48.5372 102.803 50.4246 102.228C51.3494 101.933 52.2627 101.615 53.2001 101.32C54.1375 101.027 55.1358 100.775 56.0674 100.425C56.1012 100.41 56.1167 100.37 56.1012 100.337C56.0896 100.311 56.0635 100.296 56.0374 100.297Z" fill="#263238"/>
<path d="M48.5866 102.319C49.5038 101.961 50.4673 101.736 51.4482 101.652L62.6603 120.584C62.6603 120.584 31.7741 131.705 25.4317 132.355C19.0901 133.004 11.8788 128.011 11.7561 120.051C11.5841 108.862 29.8307 81.9887 39.0096 71.597C43.2192 66.8297 48.1209 63.3739 49.3762 64.1518C50.8538 65.0776 48.1518 71.0635 46.7543 75.5303C44.1441 83.7775 34.7884 108.005 34.7884 108.005C34.7884 108.005 46.2335 103.115 48.5866 102.319Z" fill="#FFC727"/>
<path d="M24.0147 99.378C23.7982 99.3606 23.5875 99.2911 23.402 99.1761C23.0744 98.9605 22.8772 98.5943 22.8811 98.2019C22.8753 97.5969 22.4974 97.0596 21.9321 96.847C21.6702 96.7542 21.388 96.7349 21.1164 96.7919L20.9637 97.049L21.129 97.0857C21.3455 97.0973 21.5552 97.1601 21.7417 97.2703C22.0761 97.4684 22.2838 97.825 22.2935 98.2135C22.2896 98.8146 22.6472 99.3577 23.2 99.5926C23.4561 99.6969 23.7373 99.724 24.0089 99.6718C24.2476 99.6225 24.4863 99.5926 24.7317 99.5249C24.4689 99.4814 24.2534 99.4273 24.0147 99.378ZM26.1784 129.078C25.962 129.059 25.7513 128.991 25.5667 128.876C25.2362 128.662 25.04 128.293 25.0458 127.9C25.0381 127.296 24.6612 126.758 24.0958 126.546C23.8368 126.454 23.5566 126.434 23.287 126.491C23.0473 126.541 22.8086 126.571 22.5631 126.638C22.8086 126.705 23.0473 126.737 23.287 126.785C23.5025 126.798 23.7122 126.862 23.8997 126.969C24.2331 127.169 24.4408 127.524 24.4505 127.912C24.4447 128.514 24.8032 129.059 25.358 129.291C25.614 129.395 25.8953 129.423 26.1668 129.37C26.4055 129.322 26.6443 129.291 26.8897 129.224C26.6559 129.157 26.4181 129.126 26.1784 129.078ZM34.8847 110.971C34.6673 110.954 34.4576 110.884 34.272 110.768C33.9425 110.554 33.7454 110.187 33.7512 109.794C33.7454 109.188 33.3646 108.649 32.7954 108.44C32.5364 108.346 32.2561 108.328 31.9865 108.385C31.7478 108.434 31.5082 108.464 31.2637 108.533C31.5082 108.599 31.7478 108.629 31.9865 108.679C32.202 108.692 32.4127 108.755 32.5992 108.863C32.9326 109.062 33.1414 109.419 33.1501 109.806C33.1462 110.409 33.5076 110.955 34.0643 111.186C34.3194 111.289 34.6006 111.317 34.8732 111.265C35.1119 111.215 35.3506 111.186 35.596 111.118C35.3448 111.05 35.1051 111.019 34.8847 110.971ZM36.1594 91.5163C36.1101 91.2776 36.0802 91.0322 36.0116 90.7935C35.9449 91.0322 35.914 91.2776 35.8657 91.5163C35.8492 91.7318 35.7874 91.9406 35.6811 92.129C35.483 92.4624 35.1254 92.6693 34.7379 92.6751C34.1377 92.6731 33.5946 93.0297 33.3588 93.5815C33.2554 93.8376 33.2274 94.1189 33.2796 94.3904C33.3289 94.6349 33.3588 94.8746 33.4264 95.1133C33.4941 94.8746 33.5241 94.6349 33.5733 94.3904C33.5898 94.173 33.6593 93.9623 33.7763 93.7777C33.9879 93.4453 34.3561 93.2481 34.7504 93.2568C35.3544 93.2433 35.8889 92.8654 36.1044 92.3011C36.1942 92.0498 36.2126 91.7782 36.1594 91.5163ZM20.3761 108.924C20.3269 108.679 20.296 108.44 20.2283 108.201C20.1607 108.44 20.1307 108.679 20.0814 108.924C20.0659 109.14 20.0041 109.348 19.8968 109.537C19.7026 109.874 19.3431 110.084 18.9536 110.089C18.3544 110.087 17.8113 110.443 17.5755 110.996C17.4712 111.251 17.4431 111.532 17.4953 111.804C17.5446 112.044 17.5755 112.287 17.6422 112.528C17.7099 112.287 17.7408 112.044 17.7901 111.804C17.8084 111.587 17.878 111.377 17.9921 111.191C18.2047 110.861 18.5729 110.666 18.9662 110.676C19.5711 110.666 20.1065 110.287 20.3201 109.72C20.4158 109.46 20.4351 109.177 20.3761 108.906V108.924ZM47.6364 66.903C47.5871 66.6585 47.5562 66.4198 47.4886 66.1802C47.4209 66.4198 47.391 66.6585 47.3417 66.903C47.3262 67.1186 47.2644 67.3283 47.1571 67.5157C46.9628 67.854 46.6034 68.0637 46.2139 68.0676C45.6138 68.0685 45.0697 68.4242 44.829 68.9741C44.7256 69.2301 44.6986 69.5114 44.7498 69.7829C44.7991 70.0226 44.829 70.2671 44.8967 70.5068C44.9643 70.2671 44.9943 70.0226 45.0503 69.7829C45.0687 69.5655 45.1383 69.3558 45.2523 69.1702C45.4649 68.8397 45.8331 68.6445 46.2265 68.6561C46.8314 68.6445 47.3668 68.2657 47.5804 67.6994C47.6761 67.4394 47.6954 67.1562 47.6364 66.8847V66.903ZM50.2032 115.106C50.1539 114.862 50.1298 114.622 50.0621 114.378C49.9945 114.622 49.9645 114.862 49.9152 115.106C49.8988 115.322 49.8369 115.531 49.7316 115.719C49.5354 116.057 49.1769 116.267 48.7874 116.272C48.1863 116.271 47.6422 116.626 47.4026 117.177C47.2972 117.434 47.2721 117.716 47.3291 117.986C47.3784 118.226 47.4084 118.47 47.477 118.71C47.5436 118.47 47.5746 118.226 47.6239 117.986C47.6364 117.769 47.7031 117.559 47.8191 117.373C48.0336 117.045 48.4018 116.851 48.7942 116.859C49.3991 116.847 49.9365 116.469 50.1539 115.903C50.2438 115.647 50.2602 115.372 50.2032 115.106ZM35.252 78.5086C35.0887 78.6448 34.8963 78.7424 34.6886 78.7898C34.3049 78.8758 33.9048 78.7521 33.6342 78.4651L33.5241 78.3675L33.1568 78.8516L33.2187 78.9009C33.642 79.3261 34.2788 79.4556 34.8355 79.2314C35.0858 79.1242 35.2993 78.9454 35.4482 78.7163C35.5835 78.5086 35.7304 78.3182 35.8531 78.1036C35.6502 78.2264 35.4549 78.3733 35.252 78.5086ZM14.7565 120.499C14.5942 120.636 14.4009 120.731 14.1931 120.775C13.8085 120.859 13.4074 120.738 13.132 120.456C12.7686 120.1 12.2487 119.955 11.7549 120.07V120.591C12.096 120.534 12.4449 120.643 12.6913 120.884C13.1175 121.311 13.7553 121.444 14.3158 121.222C14.5652 121.11 14.7788 120.93 14.9285 120.702C15.0638 120.499 15.2166 120.303 15.3393 120.088C15.1383 120.216 14.944 120.352 14.7565 120.499ZM61.8454 119.23L61.7894 119.323L61.8696 119.273L61.8454 119.23ZM38.7214 121.608C38.558 121.743 38.3648 121.837 38.158 121.884C37.7753 121.968 37.3752 121.847 37.1036 121.565C36.6687 121.144 36.0203 121.029 35.4685 121.277C35.2191 121.396 35.0075 121.58 34.8548 121.81C34.7195 122.019 34.5668 122.208 34.4441 122.423C34.6654 122.3 34.8548 122.147 35.0577 122.012C35.2172 121.87 35.4085 121.768 35.6144 121.712C35.9922 121.613 36.3933 121.717 36.6755 121.988C37.0959 122.416 37.7347 122.549 38.2933 122.324C38.5407 122.213 38.7523 122.035 38.905 121.81C39.0403 121.601 39.1862 121.412 39.3157 121.197C39.1321 121.319 38.9427 121.473 38.7339 121.607L38.7214 121.608Z" fill="white"/>
<path d="M51.3496 101.633C49.6091 101.736 42.0847 104.353 38.3969 105.921C34.7149 107.483 31.1885 109.386 27.8631 111.608C25.9892 112.877 24.1879 114.256 22.4474 115.682C22.3855 115.731 22.4474 115.829 22.5141 115.781C29.074 111.249 36.0968 107.429 43.4637 104.384C45.5715 103.562 49.1935 102.331 51.251 101.792C51.8395 101.657 51.4288 101.633 51.3496 101.633Z" fill="#37474F"/>
<path d="M43.9424 85.0775C43.4708 85.8371 42.9982 86.5909 42.5933 87.3872L42.5392 87.4974C43.1519 85.6593 43.7028 83.8646 44.2478 82.0256C44.2797 81.9164 44.0951 81.8545 44.0516 81.9647C41.393 88.7044 38.9355 95.4876 36.5407 102.307C35.872 104.219 35.3144 106.142 34.7017 108.073C34.7017 108.135 34.7877 108.172 34.8128 108.11C35.5415 106.456 36.2769 104.813 36.9447 103.135C37.6125 101.456 38.2319 99.7581 38.862 98.0611C39.9618 95.0952 41.0094 92.1177 42.0057 89.1277C42.3247 88.601 42.6184 88.0791 42.9432 87.5466C43.3722 86.7687 43.7337 85.954 44.0951 85.1384C44.1125 85.0968 44.0913 85.0485 44.0487 85.0311C44.0062 85.0147 43.9588 85.035 43.9424 85.0775Z" fill="#37474F"/>
<path d="M55.1484 116.461C54.3269 115.065 53.5181 113.666 52.6976 112.263C51.8761 110.861 51.104 109.524 50.3202 108.146C49.5384 106.697 48.6851 105.29 47.7593 103.931H47.7109C48.3043 105.382 48.9924 106.795 49.7694 108.159C50.5357 109.586 51.3253 111.002 52.1216 112.417C52.9179 113.832 53.7094 115.168 54.5241 116.528C55.3484 117.957 56.2665 119.328 57.2745 120.633C57.3179 120.682 57.4165 120.633 57.3846 120.579C56.714 119.166 55.9679 117.792 55.1484 116.461Z" fill="#37474F"/>
<path d="M63.1078 120.627C62.1829 118.789 60.7304 116.987 59.6587 115.248C59.6219 115.18 59.5234 115.247 59.5601 115.315C60.5342 116.95 61.3982 118.715 62.3549 120.382C58.1144 122.128 53.6109 123.691 49.2844 125.229C44.8428 126.798 40.3761 128.293 35.8417 129.598C33.3107 130.326 30.7739 131.117 28.2245 131.785C28.0718 131.828 28.1153 131.957 28.2738 131.926C32.8487 130.999 37.3647 129.801 41.7967 128.335C46.3194 126.896 50.7861 125.272 55.2287 123.629C57.7336 122.698 63.187 120.774 63.1078 120.627Z" fill="#37474F"/>
<path d="M55.7556 100.309C50.482 101.734 45.2904 103.448 40.2043 105.443L39.9781 105.523C37.3312 106.564 35.6883 107.361 35.2969 107.397L35.2109 107.35C34.9586 107.166 34.6851 107.016 34.3952 106.902C33.6482 106.632 26.4669 105.738 26.6514 103.513C26.8351 101.289 29.7517 101.455 30.1808 101.485C29.7149 101.381 25.8175 100.468 27.0863 98.5255C27.987 97.1407 31.841 97.3436 32.2334 97.362C31.8343 97.2325 28.2624 96.0622 29.4878 94.084C30.3702 92.6614 34.6774 92.8586 35.1741 92.931C34.7692 92.7783 31.583 92.2391 33.0722 90.5295C34.1082 89.3409 42.2144 90.5295 45.8171 92.3676C51.1778 95.0098 55.7556 100.309 55.7556 100.309Z" fill="#AD6359"/>
<path d="M40.2042 105.443L39.9781 105.523C38.7527 104.555 34.028 102.062 30.3266 101.589C30.0947 101.558 30.0821 101.431 30.3266 101.436C34.8861 101.644 38.9972 104.335 40.2042 105.443Z" fill="#263238"/>
<path d="M32.4356 97.4965C37.545 98.5074 39.8557 99.6352 44.2431 102.429C44.3098 102.466 44.3775 102.374 44.3166 102.33C40.2239 99.2679 37.6745 97.7478 32.4849 97.368C32.2143 97.3496 32.1728 97.4472 32.4356 97.4965Z" fill="#263238"/>
<path d="M35.3333 93.0239C40.2349 94.3227 42.8142 95.4747 46.76 98.6484C46.8528 98.7218 46.9688 98.6058 46.8828 98.5266C43.1641 94.9171 39.9469 93.4897 35.3758 92.8896C35.0627 92.8461 35.0202 92.9379 35.3333 93.0239Z" fill="#263238"/>
<path d="M60.7485 72.0568C57.8445 73.1044 52.2133 69.1277 49.7693 65.6592C49.604 65.4205 49.69 62.7127 49.634 59.4105C49.5972 57.4062 49.5054 55.1757 49.2793 53.1482L62.3479 54.7959C61.9111 57.4149 61.7961 60.0773 62.0049 62.7252C62.0387 63.0036 62.1006 63.279 62.1885 63.5457C62.1885 63.5824 62.1885 63.6317 62.2194 63.681C62.6601 65.236 63.554 71.046 60.7485 72.0568Z" fill="#AD6359"/>
<path d="M62.2257 63.6803C62.2537 63.775 62.2769 63.8716 62.2933 63.9683C54.4626 63.631 51.4908 60.1945 49.5609 56.8913C49.4991 55.635 49.4198 54.3545 49.2729 53.1475L62.3484 54.7961C61.9087 57.4151 61.7927 60.0775 62.0043 62.7245C62.042 63.0028 62.1039 63.2773 62.1889 63.5459C62.2005 63.5827 62.2073 63.631 62.2257 63.6803Z" fill="#263238"/>
<path d="M45.914 38.2096C44.6886 42.7932 47.5385 55.8193 50.8649 58.6316C55.693 62.7069 63.3653 62.8412 66.796 57.094C70.0982 51.5237 66.079 34.6126 62.3844 32.0825C56.9436 28.3687 47.7521 31.4689 45.914 38.2096Z" fill="#AD6359"/>
<path d="M57.728 45.5059C57.728 45.5059 57.6671 45.5619 57.6797 45.5986C57.8933 46.4742 57.9918 47.5102 57.2622 47.9692L57.728 45.5059ZM57.2622 48.0195C58.218 47.6764 58.0711 46.2973 57.728 45.5068L57.2622 48.0195Z" fill="#263238"/>
<path d="M56.7476 44.7591C55.3144 44.9552 55.8102 47.8226 57.139 47.6264C58.4687 47.4312 57.9546 44.5948 56.7476 44.7591Z" fill="#263238"/>
<path d="M62.7096 44.3367C62.7096 44.3367 62.7889 44.3676 62.7889 44.4043C62.9184 45.2992 63.2122 46.2907 64.0636 46.4512C64.0636 46.4512 64.0945 46.4995 64.0636 46.4995C63.0711 46.5178 62.6845 45.1881 62.7096 44.3367Z" fill="#263238"/>
<path d="M63.3403 43.2637C64.7435 42.908 65.3495 45.7454 64.0506 46.0769C62.7527 46.4074 62.1632 43.5642 63.3403 43.2637Z" fill="#263238"/>
<path d="M55.2287 42.9334C55.5843 42.7478 55.9303 42.5429 56.2637 42.3207C56.658 42.168 56.9914 41.8897 57.2137 41.5301C57.3103 41.2673 57.2176 40.9725 56.9866 40.814C56.4937 40.5676 55.9052 40.6072 55.449 40.9174C54.9485 41.16 54.5561 41.5794 54.3464 42.0936C54.2111 42.4299 54.3744 42.8116 54.7117 42.9469C54.8769 43.0136 55.0644 43.0078 55.2287 42.9334Z" fill="#263238"/>
<path d="M64.1128 41.8306C63.7176 41.819 63.3223 41.7871 62.93 41.7321C62.5067 41.7553 62.0863 41.6393 61.7355 41.4016C61.5402 41.2044 61.5026 40.9 61.6427 40.6603C61.9916 40.2312 62.5453 40.0244 63.0894 40.1211C63.6451 40.1336 64.1747 40.3521 64.5777 40.7338C64.8222 41.0015 64.8028 41.4161 64.5351 41.6596C64.4192 41.7659 64.2694 41.8258 64.1128 41.8306Z" fill="#263238"/>
<path d="M58.4139 53.3804C58.6594 53.5456 58.9223 53.7969 59.247 53.7659C59.5755 53.7051 59.8867 53.5736 60.1602 53.3804C60.1602 53.3804 60.2211 53.3803 60.2085 53.4171C60.0114 53.8162 59.6123 54.0762 59.1667 54.0974C58.7821 54.0646 58.4535 53.8036 58.3337 53.4354C58.3095 53.3861 58.3772 53.3562 58.4139 53.3804Z" fill="#263238"/>
<path d="M58.8864 50.5681C59.4633 51.1963 60.2751 51.5558 61.1284 51.5606C61.4966 51.5654 61.8639 51.5181 62.2195 51.4195C62.2891 51.4098 62.3577 51.3886 62.4215 51.3586C62.4872 51.3431 62.55 51.3229 62.6109 51.2968C62.7056 51.2639 62.7646 51.1692 62.753 51.0706C62.7549 51.0397 62.7549 51.0088 62.753 50.9788V50.8986C62.6486 50.2183 62.4031 49.1958 62.4031 49.1958C62.6795 49.2751 64.045 49.6239 63.96 49.2751C63.2729 46.3585 62.5133 43.1113 61.2145 40.3542C61.1913 40.3126 61.1381 40.2981 61.0975 40.3213C61.0666 40.3397 61.0502 40.3735 61.055 40.4093C61.6058 43.2341 62.6486 45.9236 63.2429 48.7851C62.7559 48.6508 62.2523 48.587 61.7479 48.5947C61.6551 48.644 62.2562 50.5681 62.2746 50.8802C62.2785 50.8899 62.2785 50.9015 62.2746 50.9112C61.1594 51.26 60.2345 51.0639 58.9898 50.4879C58.8787 50.4637 58.8178 50.5072 58.8864 50.5681Z" fill="#263238"/>
<path d="M63.8061 33.7176L63.8795 33.8461C63.29 33.0527 62.2492 32.7386 61.3185 33.074C60.3203 33.4421 60.271 34.4955 58.8987 34.9121C57.5254 35.3286 55.1056 33.2518 52.6548 34.8386C49.4444 36.9405 50.7181 42.3814 50.6939 45.0409C50.6688 47.7005 49.1197 49.7773 46.9317 50.1145C45.8039 45.6478 45.3024 40.6969 45.9141 38.2084C47.7532 31.432 56.9127 28.356 62.3603 32.0815C62.944 32.526 63.4359 33.0817 63.8061 33.7176Z" fill="#263238"/>
<path d="M49.6339 48.8652C49.6339 48.8652 46.4351 44.7908 44.5729 45.9544C42.7106 47.1189 45.2716 53.1299 47.5755 53.846C48.7574 54.307 50.09 53.7223 50.55 52.5404C50.5626 52.5104 50.5732 52.4795 50.5829 52.4496L49.6339 48.8652Z" fill="#AD6359"/>
<path d="M45.3512 47.657C45.3339 47.657 45.3203 47.6705 45.3203 47.6879C45.3203 47.7043 45.3339 47.7179 45.3512 47.7179C46.969 48.2755 47.8813 49.6971 48.5433 51.1863C48.1645 50.6007 47.3836 50.4344 46.798 50.8133C46.74 50.8509 46.6839 50.8935 46.6317 50.9408C46.595 50.9718 46.6317 51.0394 46.681 51.0268C47.2396 50.8123 47.8736 50.9747 48.262 51.4308C48.5752 51.8087 48.8458 52.2203 49.0709 52.6562C49.1569 52.7973 49.4072 52.7055 49.3396 52.547C49.3425 52.5344 49.3425 52.5219 49.3396 52.5093C49.2536 50.4634 47.5266 47.742 45.3512 47.657Z" fill="#263238"/>
<path d="M62.1827 63.4047L59.3946 71.1002L49.6649 61.9097L47.1406 65.0775C47.1406 65.0775 56.8829 79.8876 56.9129 79.1696L59.7744 72.5527L64.4305 76.9034L63.641 65.5617L62.1827 63.4047Z" fill="#DBD9D9"/>
<path d="M64.3455 71.2964C64.1493 69.4583 64.0073 67.5467 63.7318 65.6893C63.7318 65.6226 63.6159 65.5985 63.6033 65.6893C63.297 67.5284 64.0817 74.6478 64.1368 76.3632C63.9406 76.1738 59.8479 72.5459 59.786 72.6068C59.1733 73.6611 57.054 78.4835 56.9129 78.9184C55.3754 76.5662 49.4861 68.0241 47.6857 65.812C47.6586 65.785 47.6161 65.785 47.59 65.8111C47.5697 65.8304 47.5639 65.8604 47.5746 65.8855C48.9469 68.3798 56.765 79.88 56.8636 79.8442C57.9779 77.5664 58.9743 75.2325 59.8479 72.8523C60.5524 73.6496 64.7495 77.7548 64.7495 77.4842C64.7234 75.4171 64.5881 73.35 64.3455 71.2964Z" fill="#263238"/>
</svg>
