<svg width="180" height="130" viewBox="0 0 180 130" fill="none" xmlns="http://www.w3.org/2000/svg">
<path d="M93.4834 0.849449C106.159 4.84781 100.374 23.6486 87.6135 19.7353C74.7677 15.737 80.7227 -3.14891 93.4834 0.849449Z" fill="#FFC727"/>
<path opacity="0.1" d="M93.4834 0.849449C106.159 4.84781 100.374 23.6486 87.6135 19.7353C74.7677 15.737 80.7227 -3.14891 93.4834 0.849449Z" fill="black"/>
<path d="M92.2917 0.509283C104.457 4.3375 98.5019 23.1383 86.4218 19.3952C74.1715 15.5669 80.1265 -3.31893 92.2917 0.509283Z" fill="#FFC727"/>
<path opacity="0.1" d="M81.4032 9.35678C81.0629 12.7596 82.5942 16.4177 86.8478 17.6938C96.9713 20.8414 101.82 5.18828 91.7819 2.04064L91.6118 1.95557C101.055 5.10321 96.3758 19.9057 86.7627 16.9281C83.2748 16.0774 81.0629 12.8447 81.4032 9.35678Z" fill="black"/>
<g opacity="0.1">
<path opacity="0.1" d="M91.1014 3.99719C91.2715 4.08226 91.3566 4.25241 91.2715 4.42255L91.1014 4.93298C91.867 5.35834 92.5476 5.95383 92.973 6.71948C93.058 6.80455 93.058 6.97469 93.058 7.05977C92.973 7.22991 92.8028 7.31498 92.6327 7.22991C92.5476 7.22991 92.4625 7.14484 92.4625 7.05977C92.1222 6.37919 91.5268 5.86876 90.8462 5.44341L89.485 9.01641C91.2715 10.2074 91.782 11.2283 91.3566 12.5043C90.8462 13.8655 89.3149 14.3759 87.6985 13.7804L87.2732 14.8013C87.1881 14.9714 87.018 15.0565 86.8478 14.9714C86.6777 14.8863 86.5926 14.7162 86.6777 14.5461L87.103 13.5252C86.0822 13.0148 85.2315 12.1641 84.721 11.1432C84.636 11.0581 84.636 10.888 84.721 10.8029C84.8061 10.6328 84.9762 10.5477 85.1464 10.6328C85.2315 10.6328 85.3165 10.7178 85.3165 10.8029C85.7419 11.7387 86.4224 12.5043 87.3582 12.9297L88.8045 9.27162C87.018 8.08062 86.5075 7.05977 87.018 5.78369C87.5284 4.50762 89.0597 3.91212 90.591 4.50762L90.7611 3.99719C90.676 4.08226 90.9312 3.99719 91.1014 3.99719ZM88.9746 8.7612L90.3357 5.27326C89.0597 4.84791 87.9538 5.27326 87.6135 6.12398C87.2732 7.14484 87.4433 7.74034 88.9746 8.7612ZM89.2298 9.78205L87.8687 13.3551C89.1448 13.8655 90.2507 13.4401 90.676 12.4193C91.0163 11.4835 90.7611 10.8029 89.2298 9.78205Z" fill="black"/>
</g>
<path d="M51.627 61.5056C51.7972 60.3997 51.9673 59.4639 52.0524 58.443C52.1375 57.4222 52.2225 56.4013 52.2225 55.3805C52.2225 54.2745 52.1375 53.2537 51.9673 52.1478C51.7972 50.9568 51.2868 49.7658 50.5211 48.7449C50.0958 48.1494 49.5002 47.724 48.8197 47.4688C48.4794 47.2987 48.1391 47.2136 47.7988 47.2136C47.4585 47.1285 47.1183 47.1285 46.778 47.1285C45.5019 47.2136 44.3109 47.724 43.3751 48.4897C42.5244 49.1702 41.7587 50.021 41.1632 51.0418C40.5677 51.9776 40.1424 53.0835 39.9723 54.1044C39.8021 54.785 39.8872 55.4655 40.1424 56.061C40.3125 56.4864 40.5678 56.8267 40.908 57.0819C41.2483 57.3371 41.6737 57.4222 42.0991 57.4222C42.5244 57.4222 42.9497 57.3371 43.29 57.167C43.6303 56.9968 43.8856 56.7416 44.0557 56.4013C44.396 55.8909 44.5661 55.3805 44.6512 54.785C44.8213 53.7641 44.8213 52.6582 44.6512 51.6373C44.4811 50.6165 44.1407 49.5956 43.5452 48.7449C43.2049 48.2345 42.8647 47.8942 42.3543 47.639C41.8438 47.3837 41.2483 47.2987 40.7379 47.3837C39.717 47.639 38.7813 48.1494 38.1007 48.915C36.8246 50.3612 35.7187 52.0627 35.0381 53.8492C35.8888 52.1478 37.0798 50.5314 38.4409 49.2553C39.1215 48.6598 39.9723 48.2345 40.823 48.0643C41.6737 48.0643 42.4393 48.5748 42.6945 49.2553C43.1199 50.021 43.3751 50.8717 43.3751 51.8075C43.4602 52.6582 43.3751 53.594 43.1199 54.4447C43.0348 54.785 42.8647 55.1253 42.6095 55.4655C42.5244 55.5506 42.4393 55.6357 42.3543 55.6357C42.2692 55.6357 42.2692 55.6357 42.1841 55.6357C42.099 55.6357 42.014 55.5506 42.014 55.5506C42.014 55.4655 41.9289 55.4655 41.9289 55.3805C41.8438 55.0402 41.9289 54.785 42.014 54.5298C42.5244 52.9134 43.5453 51.5523 44.9064 50.7015C45.5019 50.2762 46.0974 50.106 46.778 50.106C46.9481 50.106 47.0332 50.106 47.2034 50.1911C47.2884 50.1911 47.4585 50.2762 47.5436 50.3612C47.7137 50.4463 47.8839 50.6165 48.0541 50.8717C48.3944 51.4672 48.5645 52.1478 48.6495 52.8283C48.7346 53.679 48.7346 54.5298 48.6495 55.3805C48.5645 56.3163 48.4794 57.167 48.3093 58.1028C48.1391 58.9535 47.969 59.8893 47.7138 60.74L51.627 61.5056Z" fill="#FFC727"/>
<path opacity="0.1" d="M51.627 61.5056C51.7972 60.3997 51.9673 59.4639 52.0524 58.443C52.1375 57.4222 52.2225 56.4013 52.2225 55.3805C52.2225 54.2745 52.1375 53.2537 51.9673 52.1478C51.7972 50.9568 51.2868 49.7658 50.5211 48.7449C50.0958 48.1494 49.5002 47.724 48.8197 47.4688C48.4794 47.2987 48.1391 47.2136 47.7988 47.2136C47.4585 47.1285 47.1183 47.1285 46.778 47.1285C45.5019 47.2136 44.3109 47.724 43.3751 48.4897C42.5244 49.1702 41.7587 50.021 41.1632 51.0418C40.5677 51.9776 40.1424 53.0835 39.9723 54.1044C39.8021 54.785 39.8872 55.4655 40.1424 56.061C40.3125 56.4864 40.5678 56.8267 40.908 57.0819C41.2483 57.3371 41.6737 57.4222 42.0991 57.4222C42.5244 57.4222 42.9497 57.3371 43.29 57.167C43.6303 56.9968 43.8856 56.7416 44.0557 56.4013C44.396 55.8909 44.5661 55.3805 44.6512 54.785C44.8213 53.7641 44.8213 52.6582 44.6512 51.6373C44.4811 50.6165 44.1407 49.5956 43.5452 48.7449C43.2049 48.2345 42.8647 47.8942 42.3543 47.639C41.8438 47.3837 41.2483 47.2987 40.7379 47.3837C39.717 47.639 38.7813 48.1494 38.1007 48.915C36.8246 50.3612 35.7187 52.0627 35.0381 53.8492C35.8888 52.1478 37.0798 50.5314 38.4409 49.2553C39.1215 48.6598 39.9723 48.2345 40.823 48.0643C41.6737 48.0643 42.4393 48.5748 42.6945 49.2553C43.1199 50.021 43.3751 50.8717 43.3751 51.8075C43.4602 52.6582 43.3751 53.594 43.1199 54.4447C43.0348 54.785 42.8647 55.1253 42.6095 55.4655C42.5244 55.5506 42.4393 55.6357 42.3543 55.6357C42.2692 55.6357 42.2692 55.6357 42.1841 55.6357C42.099 55.6357 42.014 55.5506 42.014 55.5506C42.014 55.4655 41.9289 55.4655 41.9289 55.3805C41.8438 55.0402 41.9289 54.785 42.014 54.5298C42.5244 52.9134 43.5453 51.5523 44.9064 50.7015C45.5019 50.2762 46.0974 50.106 46.778 50.106C46.9481 50.106 47.0332 50.106 47.2034 50.1911C47.2884 50.1911 47.4585 50.2762 47.5436 50.3612C47.7137 50.4463 47.8839 50.6165 48.0541 50.8717C48.3944 51.4672 48.5645 52.1478 48.6495 52.8283C48.7346 53.679 48.7346 54.5298 48.6495 55.3805C48.5645 56.3163 48.4794 57.167 48.3093 58.1028C48.1391 58.9535 47.969 59.8893 47.7138 60.74L51.627 61.5056Z" fill="black"/>
<path d="M54.8594 108.72C57.6667 112.719 57.0712 124.799 58.7726 126.5C60.4741 128.202 77.8286 128.032 79.0196 127.011C80.2106 125.99 79.6152 121.736 80.8912 121.056C81.5718 120.8 54.8594 108.72 54.8594 108.72Z" fill="#FFC727"/>
<path opacity="0.1" d="M54.8594 108.72C57.6667 112.719 57.0712 124.799 58.7726 126.5C60.4741 128.202 77.8286 128.032 79.0196 127.011C80.2106 125.99 79.6152 121.736 80.8912 121.056C81.5718 120.8 54.8594 108.72 54.8594 108.72Z" fill="black"/>
<path d="M129.212 108.89C125.724 113.995 127.595 124.799 125.894 126.415C124.192 128.117 106.838 127.946 105.647 126.926C104.456 125.905 105.051 121.396 104.286 120.545C103.945 120.205 129.212 108.89 129.212 108.89Z" fill="#FFC727"/>
<path opacity="0.1" d="M129.212 108.89C125.724 113.995 127.595 124.799 125.894 126.415C124.192 128.117 106.838 127.946 105.647 126.926C104.456 125.905 105.051 121.396 104.286 120.545C103.945 120.205 129.212 108.89 129.212 108.89Z" fill="black"/>
<path opacity="0.3" d="M80.9774 121.056C80.552 121.396 80.2969 121.821 80.2118 122.332C72.2151 121.396 64.3034 119.269 56.9022 116.121C56.4768 113.144 55.8813 110.337 54.7754 108.805C54.8605 108.72 81.5729 120.8 80.9774 121.056Z" fill="black"/>
<path opacity="0.3" d="M129.212 108.89C127.936 110.762 127.341 113.484 127.086 116.207C119.94 119.354 112.453 121.481 104.712 122.417C104.712 121.821 104.627 121.226 104.372 120.63C103.946 120.205 129.212 108.89 129.212 108.89Z" fill="black"/>
<path d="M90.8452 35.5587C55.8808 35.5587 42.4395 62.9517 42.4395 79.0303C42.4395 94.8536 52.6481 121.736 90.8452 121.736C129.042 121.736 141.718 98.937 141.718 78.69C141.718 58.4429 126.235 35.5587 90.8452 35.5587Z" fill="#FFC727"/>
<path d="M90.8452 35.5587C55.8808 35.5587 42.4395 62.9517 42.4395 79.0303C42.4395 94.8536 52.6481 121.736 90.8452 121.736C129.042 121.736 141.718 98.937 141.718 78.69C141.718 58.4429 126.235 35.5587 90.8452 35.5587Z" fill="#FFC727"/>
<path d="M100.714 37.6005C100.714 37.6005 116.707 25.3502 133.977 26.7964C139.932 27.3068 130.064 40.2377 129.893 50.3612L100.714 37.6005Z" fill="#FFC727"/>
<path d="M100.714 37.6005C100.714 37.6005 116.707 25.3502 133.977 26.7964C139.932 27.3068 130.064 40.2377 129.893 50.3612L100.714 37.6005Z" fill="#FFC727"/>
<path opacity="0.3" d="M123.258 45.3421C123.173 45.9376 128.702 48.3196 129.213 47.9793C129.808 47.639 130.319 39.6423 134.828 31.2202C135.508 29.9442 124.279 38.4513 123.258 45.3421Z" fill="black"/>
<path opacity="0.3" d="M126.745 76.8185C127.851 76.6484 128.702 75.8827 129.042 74.7768C128.957 76.0529 128.277 77.2439 127.171 77.9244C127.086 78.0095 127.171 78.0946 127.256 78.0946C130.318 76.9036 129.978 72.65 128.872 69.8427C128.787 69.6725 128.787 69.5024 128.702 69.4173C128.021 67.8009 126.83 66.695 125.299 66.8651C120.365 67.7159 122.151 77.4991 126.745 76.8185Z" fill="black"/>
<path d="M138.485 62.8667C139.25 65.1636 146.226 63.2921 147.928 64.7383C150.65 67.0352 149.884 95.364 147.417 97.6609C145.971 98.937 138.144 97.5759 135.933 99.1072C133.721 100.724 138.485 62.8667 138.485 62.8667Z" fill="#FFC727"/>
<path d="M138.485 62.8667C139.25 65.1636 146.226 63.2921 147.928 64.7383C150.65 67.0352 149.884 95.364 147.417 97.6609C145.971 98.937 138.144 97.5759 135.933 99.1072C133.721 100.724 138.485 62.8667 138.485 62.8667Z" fill="#FFC727"/>
<path opacity="0.3" d="M148.354 80.4766C148.354 87.3674 147.758 92.9821 147.078 92.9821C146.397 92.9821 145.802 87.3674 145.802 80.4766C145.802 73.5858 146.397 67.9711 147.078 67.9711C147.758 67.9711 148.354 73.5858 148.354 80.4766Z" fill="black"/>
<path opacity="0.3" d="M77.319 44.6614C77.4041 44.6614 89.2291 40.7481 100.203 43.8106L101.309 39.8123C89.0589 36.4945 76.4683 40.5779 76.043 40.7481L77.319 44.6614L76.6385 42.7047L77.319 44.6614Z" fill="black"/>
<path d="M60.8998 104.892C45.1616 86.7718 54.7747 65.7592 55.2 64.8234C55.7955 63.5473 55.2 62.016 53.8389 61.4205C52.5628 60.9101 51.1166 61.3355 50.5211 62.5265C48.3943 67.2905 47.1183 72.3948 46.778 77.6692C46.0123 89.1538 49.8405 99.7878 58.8581 107.019C61.6655 109.146 62.9415 107.189 60.8998 104.892Z" fill="white"/>
<path d="M54.0088 56.8266C54.0088 58.3579 55.2849 59.634 56.8161 59.634C58.3474 59.634 59.6235 58.3579 59.6235 56.8266C59.6235 55.2954 58.3474 54.0193 56.8161 54.0193C55.2849 53.9342 54.0939 55.2103 54.0088 56.8266Z" fill="white"/>
<path d="M179.915 123.438H160.008V127.861H179.915V123.438Z" fill="#FFC727"/>
<g opacity="0.1">
<path opacity="0.1" d="M160.859 123.863C161.284 124.969 161.284 126.245 160.859 127.351C160.434 126.245 160.434 124.969 160.859 123.863Z" fill="black"/>
<path opacity="0.1" d="M162.305 123.863C162.731 124.969 162.731 126.245 162.305 127.351C161.88 126.245 161.88 124.969 162.305 123.863Z" fill="black"/>
<path opacity="0.1" d="M163.071 123.863C163.496 124.969 163.496 126.245 163.071 127.351C162.646 126.245 162.646 124.969 163.071 123.863Z" fill="black"/>
<path opacity="0.1" d="M167.069 123.863C167.494 124.969 167.494 126.245 167.069 127.351C166.644 126.245 166.644 124.969 167.069 123.863Z" fill="black"/>
<path opacity="0.1" d="M168.09 123.863C168.346 124.459 168.431 125.054 168.431 125.65C168.431 126.245 168.346 126.841 168.09 127.436C167.835 126.841 167.75 126.245 167.75 125.65C167.835 124.969 167.92 124.373 168.09 123.863Z" fill="black"/>
<path opacity="0.1" d="M172.598 123.863C173.024 124.969 173.024 126.245 172.598 127.351C172.173 126.245 172.173 124.969 172.598 123.863Z" fill="black"/>
<path opacity="0.1" d="M173.62 123.863C174.045 124.969 174.045 126.245 173.62 127.351C173.194 126.245 173.194 124.969 173.62 123.863Z" fill="black"/>
<path opacity="0.1" d="M175.492 123.863C175.917 124.969 175.917 126.245 175.492 127.351C175.067 126.245 175.067 124.969 175.492 123.863Z" fill="black"/>
<path opacity="0.1" d="M171.748 123.863C172.004 124.459 172.089 125.054 172.089 125.65C172.089 126.245 172.004 126.841 171.748 127.436C171.493 126.841 171.408 126.245 171.408 125.65C171.408 124.969 171.493 124.373 171.748 123.863Z" fill="black"/>
<path opacity="0.1" d="M164.432 123.863C164.858 124.969 164.858 126.245 164.432 127.351C164.007 126.245 164.007 124.969 164.432 123.863Z" fill="black"/>
<path opacity="0.1" d="M169.537 123.863C169.962 124.969 169.962 126.245 169.537 127.351C169.281 126.755 169.196 126.16 169.196 125.564C169.196 124.969 169.281 124.373 169.537 123.863Z" fill="black"/>
<path opacity="0.1" d="M170.301 123.863C170.727 124.969 170.727 126.245 170.301 127.351C169.876 126.245 169.876 124.969 170.301 123.863Z" fill="black"/>
<path opacity="0.1" d="M177.958 123.863C178.214 124.459 178.299 125.054 178.299 125.65C178.299 126.245 178.214 126.841 177.958 127.436C177.703 126.841 177.618 126.245 177.618 125.65C177.618 124.969 177.703 124.373 177.958 123.863Z" fill="black"/>
<path opacity="0.1" d="M179.065 123.863C179.32 124.459 179.405 125.054 179.405 125.65C179.405 126.245 179.32 126.841 179.065 127.436C178.81 126.841 178.725 126.245 178.725 125.65C178.725 124.969 178.895 124.373 179.065 123.863Z" fill="black"/>
<path opacity="0.1" d="M176.342 123.863C176.768 124.969 176.768 126.245 176.342 127.351C175.917 126.245 175.917 124.969 176.342 123.863Z" fill="black"/>
<path opacity="0.1" d="M166.218 123.863C166.474 124.459 166.559 125.054 166.559 125.65C166.559 126.245 166.474 126.841 166.218 127.436C165.793 126.245 165.793 124.969 166.218 123.863Z" fill="black"/>
</g>
<path opacity="0.1" d="M180 123.438V124.373L160.008 124.969V123.438H180Z" fill="black"/>
<path d="M178.298 119.014H158.392V123.438H178.298V119.014Z" fill="#FFC727"/>
<g opacity="0.1">
<path opacity="0.1" d="M177.448 122.927C177.023 121.821 177.023 120.545 177.448 119.439C177.873 120.545 177.873 121.821 177.448 122.927Z" fill="black"/>
<path opacity="0.1" d="M175.916 122.927C175.661 122.332 175.576 121.736 175.576 121.141C175.576 120.545 175.661 119.95 175.916 119.354C176.172 119.95 176.257 120.545 176.257 121.141C176.257 121.821 176.172 122.417 175.916 122.927Z" fill="black"/>
<path opacity="0.1" d="M175.236 122.927C174.811 121.821 174.811 120.545 175.236 119.439C175.661 120.545 175.661 121.821 175.236 122.927Z" fill="black"/>
<path opacity="0.1" d="M171.237 122.927C170.812 121.821 170.812 120.545 171.237 119.439C171.662 120.545 171.662 121.821 171.237 122.927Z" fill="black"/>
<path opacity="0.1" d="M170.132 122.927C169.877 122.332 169.792 121.736 169.792 121.141C169.792 120.545 169.877 119.95 170.132 119.354C170.388 119.95 170.473 120.545 170.473 121.141C170.473 121.821 170.388 122.417 170.132 122.927Z" fill="black"/>
<path opacity="0.1" d="M165.708 122.927C165.282 121.821 165.282 120.545 165.708 119.439C166.133 120.545 166.133 121.821 165.708 122.927Z" fill="black"/>
<path opacity="0.1" d="M164.687 122.927C164.432 122.332 164.347 121.736 164.347 121.141C164.347 120.545 164.432 119.95 164.687 119.354C165.112 120.545 165.112 121.821 164.687 122.927Z" fill="black"/>
<path opacity="0.1" d="M162.73 122.927C162.305 121.821 162.305 120.545 162.73 119.439C163.156 120.545 163.156 121.821 162.73 122.927Z" fill="black"/>
<path opacity="0.1" d="M166.559 122.927C166.304 122.332 166.219 121.736 166.219 121.141C166.219 120.545 166.304 119.95 166.559 119.354C166.814 119.95 166.899 120.545 166.899 121.141C166.899 121.821 166.729 122.417 166.559 122.927Z" fill="black"/>
<path opacity="0.1" d="M173.874 122.927C173.619 122.332 173.534 121.736 173.534 121.141C173.534 120.545 173.619 119.95 173.874 119.354C174.3 120.545 174.3 121.821 173.874 122.927Z" fill="black"/>
<path opacity="0.1" d="M168.685 122.927C168.26 121.821 168.26 120.545 168.685 119.439C169.111 120.545 169.111 121.821 168.685 122.927Z" fill="black"/>
<path opacity="0.1" d="M168.005 122.927C167.579 121.821 167.579 120.545 168.005 119.439C168.43 120.545 168.43 121.821 168.005 122.927Z" fill="black"/>
<path opacity="0.1" d="M160.263 122.927C159.838 121.821 159.838 120.545 160.263 119.439C160.519 120.035 160.604 120.63 160.604 121.226C160.604 121.821 160.519 122.417 160.263 122.927Z" fill="black"/>
<path opacity="0.1" d="M159.158 122.927C158.902 122.332 158.817 121.736 158.817 121.141C158.817 120.545 158.902 119.95 159.158 119.354C159.413 119.95 159.498 120.545 159.498 121.141C159.498 121.821 159.413 122.417 159.158 122.927Z" fill="black"/>
<path opacity="0.1" d="M161.88 122.927C161.454 121.821 161.454 120.545 161.88 119.439C162.305 120.545 162.305 121.821 161.88 122.927Z" fill="black"/>
<path opacity="0.1" d="M172.088 122.927C171.833 122.332 171.748 121.736 171.748 121.141C171.748 120.545 171.833 119.95 172.088 119.354C172.344 119.95 172.429 120.545 172.429 121.141C172.429 121.821 172.258 122.417 172.088 122.927Z" fill="black"/>
</g>
<path opacity="0.1" d="M178.298 119.014V119.95L158.392 120.63V119.014H178.298Z" fill="black"/>
<path d="M179.83 114.675H159.923V119.099H179.83V114.675Z" fill="#FFC727"/>
<g opacity="0.1">
<path opacity="0.1" d="M160.689 115.101C161.114 116.207 161.114 117.483 160.689 118.589C160.349 117.483 160.349 116.207 160.689 115.101Z" fill="black"/>
<path opacity="0.1" d="M162.219 115.101C162.475 115.696 162.56 116.292 162.56 116.887C162.56 117.483 162.475 118.078 162.219 118.674C161.794 117.483 161.794 116.207 162.219 115.101Z" fill="black"/>
<path opacity="0.1" d="M162.901 115.101C163.326 116.207 163.326 117.483 162.901 118.589C162.476 117.483 162.476 116.207 162.901 115.101Z" fill="black"/>
<path opacity="0.1" d="M166.984 115.101C167.409 116.207 167.409 117.483 166.984 118.589C166.559 117.483 166.559 116.207 166.984 115.101Z" fill="black"/>
<path opacity="0.1" d="M168.005 115.101C168.261 115.696 168.346 116.292 168.346 116.887C168.346 117.483 168.261 118.078 168.005 118.674C167.75 118.078 167.665 117.483 167.665 116.887C167.665 116.207 167.75 115.611 168.005 115.101Z" fill="black"/>
<path opacity="0.1" d="M172.428 115.101C172.854 116.207 172.854 117.483 172.428 118.589C172.003 117.483 172.003 116.207 172.428 115.101Z" fill="black"/>
<path opacity="0.1" d="M173.45 115.101C173.875 116.207 173.875 117.483 173.45 118.589C173.025 117.483 173.025 116.207 173.45 115.101Z" fill="black"/>
<path opacity="0.1" d="M175.406 115.101C175.831 116.207 175.831 117.483 175.406 118.589C174.981 117.483 174.981 116.207 175.406 115.101Z" fill="black"/>
<path opacity="0.1" d="M171.579 115.101C171.834 115.696 171.919 116.292 171.919 116.887C171.919 117.483 171.834 118.078 171.579 118.674C171.323 118.078 171.238 117.483 171.238 116.887C171.238 116.207 171.408 115.611 171.579 115.101Z" fill="black"/>
<path opacity="0.1" d="M164.262 115.101C164.688 116.207 164.688 117.483 164.262 118.589C163.837 117.483 163.837 116.207 164.262 115.101Z" fill="black"/>
<path opacity="0.1" d="M169.451 115.101C169.876 116.207 169.876 117.483 169.451 118.589C169.025 117.483 169.025 116.207 169.451 115.101Z" fill="black"/>
<path opacity="0.1" d="M170.132 115.101C170.558 116.207 170.558 117.483 170.132 118.589C169.707 117.483 169.707 116.207 170.132 115.101Z" fill="black"/>
<path opacity="0.1" d="M177.874 115.101C178.299 116.207 178.299 117.483 177.874 118.589C177.618 117.993 177.533 117.398 177.533 116.802C177.533 116.207 177.618 115.611 177.874 115.101Z" fill="black"/>
<path opacity="0.1" d="M178.98 115.101C179.235 115.696 179.32 116.292 179.32 116.887C179.32 117.483 179.235 118.078 178.98 118.674C178.725 118.078 178.64 117.483 178.64 116.887C178.64 116.207 178.725 115.611 178.98 115.101Z" fill="black"/>
<path opacity="0.1" d="M176.257 115.101C176.682 116.207 176.682 117.483 176.257 118.589C175.831 117.483 175.831 116.207 176.257 115.101Z" fill="black"/>
<path opacity="0.1" d="M166.048 115.101C166.303 115.696 166.389 116.292 166.389 116.887C166.389 117.483 166.303 118.078 166.048 118.674C165.793 118.078 165.708 117.483 165.708 116.887C165.708 116.207 165.878 115.611 166.048 115.101Z" fill="black"/>
</g>
<path opacity="0.1" d="M179.83 114.675V115.611L159.923 116.207V114.675H179.83Z" fill="black"/>
<path d="M34.1021 120.8H14.1953V125.224H34.1021V120.8Z" fill="#FFC727"/>
<g opacity="0.1">
<path opacity="0.1" d="M15.0466 121.141C15.4719 122.247 15.4719 123.523 15.0466 124.629C14.6212 123.523 14.6212 122.332 15.0466 121.141Z" fill="black"/>
<path opacity="0.1" d="M16.5776 121.141C16.8328 121.736 16.9179 122.332 16.9179 122.927C16.9179 123.523 16.8328 124.118 16.5776 124.714C16.3224 124.118 16.2373 123.523 16.2373 122.927C16.2373 122.332 16.3224 121.736 16.5776 121.141Z" fill="black"/>
<path opacity="0.1" d="M17.2583 121.141C17.5135 121.736 17.5985 122.332 17.5985 122.927C17.5985 123.523 17.5135 124.118 17.2583 124.714C17.0031 124.118 16.918 123.523 16.918 122.927C16.918 122.332 17.0031 121.736 17.2583 121.141Z" fill="black"/>
<path opacity="0.1" d="M21.2565 121.141C21.6819 122.247 21.6819 123.523 21.2565 124.629C20.8312 123.523 20.8312 122.332 21.2565 121.141Z" fill="black"/>
<path opacity="0.1" d="M22.362 121.141C22.7873 122.247 22.7873 123.523 22.362 124.629C21.9366 123.523 21.9366 122.332 22.362 121.141Z" fill="black"/>
<path opacity="0.1" d="M26.7858 121.141C27.041 121.736 27.1261 122.332 27.1261 122.927C27.1261 123.523 27.041 124.118 26.7858 124.714C26.3605 123.523 26.3605 122.332 26.7858 121.141Z" fill="black"/>
<path opacity="0.1" d="M27.8071 121.141C28.0623 121.736 28.1474 122.332 28.1474 122.927C28.1474 123.523 28.0623 124.118 27.8071 124.714C27.5518 124.118 27.4668 123.523 27.4668 122.927C27.4668 122.332 27.5518 121.736 27.8071 121.141Z" fill="black"/>
<path opacity="0.1" d="M29.6784 121.141C29.9336 121.736 30.0187 122.332 30.0187 122.927C30.0187 123.523 29.9336 124.118 29.6784 124.714C29.253 123.523 29.253 122.332 29.6784 121.141Z" fill="black"/>
<path opacity="0.1" d="M25.936 121.141C26.3614 122.247 26.3614 123.523 25.936 124.629C25.6808 124.033 25.5957 123.438 25.5957 122.842C25.5957 122.332 25.6808 121.736 25.936 121.141Z" fill="black"/>
<path opacity="0.1" d="M18.6186 121.141C18.8738 121.736 18.9589 122.332 18.9589 122.927C18.9589 123.523 18.8738 124.118 18.6186 124.714C18.3634 124.118 18.2783 123.523 18.2783 122.927C18.2783 122.332 18.3634 121.736 18.6186 121.141Z" fill="black"/>
<path opacity="0.1" d="M23.7233 121.141C24.1487 122.247 24.1487 123.523 23.7233 124.629C23.298 123.523 23.298 122.332 23.7233 121.141Z" fill="black"/>
<path opacity="0.1" d="M24.4889 121.141C24.9143 122.247 24.9143 123.523 24.4889 124.629C24.0636 123.523 24.0636 122.332 24.4889 121.141Z" fill="black"/>
<path opacity="0.1" d="M32.1452 121.141C32.5705 122.247 32.5705 123.523 32.1452 124.629C31.7198 123.523 31.7198 122.332 32.1452 121.141Z" fill="black"/>
<path opacity="0.1" d="M33.2516 121.141C33.677 122.247 33.677 123.523 33.2516 124.629C32.8263 123.523 32.8263 122.332 33.2516 121.141Z" fill="black"/>
<path opacity="0.1" d="M30.6139 121.141C30.8692 121.736 30.9542 122.332 30.9542 122.927C30.9542 123.523 30.8692 124.118 30.6139 124.714C30.1886 123.523 30.1886 122.332 30.6139 121.141Z" fill="black"/>
<path opacity="0.1" d="M20.4057 121.141C20.661 121.736 20.746 122.332 20.746 122.927C20.746 123.523 20.661 124.118 20.4057 124.714C20.1505 124.118 20.0654 123.523 20.0654 122.927C20.0654 122.332 20.1505 121.736 20.4057 121.141Z" fill="black"/>
</g>
<path opacity="0.1" d="M34.1871 120.8V121.736L14.1953 122.332V120.8H34.1871Z" fill="black"/>
<path d="M32.7417 116.377H12.835V120.8H32.7417V116.377Z" fill="#FFC727"/>
<g opacity="0.1">
<path opacity="0.1" d="M13.685 116.802C13.9402 117.398 14.0253 117.993 14.0253 118.589C14.0253 119.184 13.9402 119.78 13.685 120.375C13.4298 119.78 13.3447 119.184 13.3447 118.589C13.3447 117.908 13.4298 117.313 13.685 116.802Z" fill="black"/>
<path opacity="0.1" d="M15.1312 116.802C15.5565 117.908 15.5565 119.184 15.1312 120.29C14.7909 119.184 14.7909 117.908 15.1312 116.802Z" fill="black"/>
<path opacity="0.1" d="M15.8971 116.802C16.3225 117.908 16.3225 119.184 15.8971 120.29C15.4718 119.184 15.4718 117.908 15.8971 116.802Z" fill="black"/>
<path opacity="0.1" d="M19.8949 116.802C20.3203 117.908 20.3203 119.184 19.8949 120.29C19.6397 119.695 19.5547 119.099 19.5547 118.504C19.5547 117.908 19.6397 117.313 19.8949 116.802Z" fill="black"/>
<path opacity="0.1" d="M20.9154 116.802C21.3407 117.908 21.3407 119.184 20.9154 120.29C20.5751 119.184 20.5751 117.908 20.9154 116.802Z" fill="black"/>
<path opacity="0.1" d="M25.4255 116.802C25.8508 117.908 25.8508 119.184 25.4255 120.29C25.0001 119.184 25.0001 117.908 25.4255 116.802Z" fill="black"/>
<path opacity="0.1" d="M26.446 116.802C26.8713 117.908 26.8713 119.184 26.446 120.29C26.0206 119.184 26.0206 117.908 26.446 116.802Z" fill="black"/>
<path opacity="0.1" d="M28.3171 116.802C28.7424 117.908 28.7424 119.184 28.3171 120.29C27.8917 119.184 27.8917 117.908 28.3171 116.802Z" fill="black"/>
<path opacity="0.1" d="M24.5749 116.802C25.0002 117.908 25.0002 119.184 24.5749 120.29C24.1495 119.184 24.1495 117.908 24.5749 116.802Z" fill="black"/>
<path opacity="0.1" d="M17.2575 116.802C17.6829 117.908 17.6829 119.184 17.2575 120.29C16.8321 119.184 16.8321 117.908 17.2575 116.802Z" fill="black"/>
<path opacity="0.1" d="M22.3628 116.802C22.618 117.398 22.703 117.993 22.703 118.589C22.703 119.184 22.618 119.78 22.3628 120.375C22.1076 119.78 22.0225 119.184 22.0225 118.589C22.0225 117.908 22.1926 117.313 22.3628 116.802Z" fill="black"/>
<path opacity="0.1" d="M23.1274 116.802C23.5527 117.908 23.5527 119.184 23.1274 120.29C22.8721 119.695 22.7871 119.099 22.7871 118.504C22.7871 117.908 22.8721 117.313 23.1274 116.802Z" fill="black"/>
<path opacity="0.1" d="M30.7848 116.802C31.0401 117.398 31.1251 117.993 31.1251 118.589C31.1251 119.184 31.0401 119.78 30.7848 120.375C30.3595 119.184 30.3595 117.908 30.7848 116.802Z" fill="black"/>
<path opacity="0.1" d="M31.8903 116.802C32.3157 117.908 32.3157 119.184 31.8903 120.29C31.4649 119.184 31.4649 117.908 31.8903 116.802Z" fill="black"/>
<path opacity="0.1" d="M29.2536 116.802C29.6789 117.908 29.6789 119.184 29.2536 120.29C28.8282 119.184 28.8282 117.908 29.2536 116.802Z" fill="black"/>
<path opacity="0.1" d="M19.0446 116.802C19.47 117.908 19.47 119.184 19.0446 120.29C18.6192 119.184 18.6192 117.908 19.0446 116.802Z" fill="black"/>
</g>
<path opacity="0.1" d="M32.8268 116.377V117.313L12.835 117.908V116.377H32.8268Z" fill="black"/>
<path d="M35.8891 107.614H15.9824V112.038H35.8891V107.614Z" fill="#FFC727"/>
<g opacity="0.1">
<path opacity="0.1" d="M16.7477 108.04C17.1731 109.146 17.1731 110.422 16.7477 111.528C16.3224 110.422 16.3224 109.146 16.7477 108.04Z" fill="black"/>
<path opacity="0.1" d="M18.2798 108.04C18.535 108.635 18.62 109.231 18.62 109.826C18.62 110.422 18.535 111.017 18.2798 111.613C18.0245 111.017 17.9395 110.422 17.9395 109.826C17.9395 109.146 18.0245 108.55 18.2798 108.04Z" fill="black"/>
<path opacity="0.1" d="M18.9594 108.04C19.2147 108.635 19.2997 109.231 19.2997 109.826C19.2997 110.422 19.2147 111.017 18.9594 111.613C18.7042 111.017 18.6191 110.422 18.6191 109.826C18.6191 109.146 18.7893 108.55 18.9594 108.04Z" fill="black"/>
<path opacity="0.1" d="M22.9577 108.04C23.2129 108.635 23.2979 109.231 23.2979 109.826C23.2979 110.422 23.2129 111.017 22.9577 111.613C22.5323 110.422 22.5323 109.146 22.9577 108.04Z" fill="black"/>
<path opacity="0.1" d="M24.0632 108.04C24.4885 109.146 24.4885 110.422 24.0632 111.528C23.6378 110.422 23.6378 109.146 24.0632 108.04Z" fill="black"/>
<path opacity="0.1" d="M28.4878 108.04C28.743 108.635 28.828 109.231 28.828 109.826C28.828 110.422 28.743 111.017 28.4878 111.613C28.2326 111.017 28.1475 110.422 28.1475 109.826C28.1475 109.146 28.2326 108.55 28.4878 108.04Z" fill="black"/>
<path opacity="0.1" d="M29.5082 108.04C29.7634 108.635 29.8485 109.231 29.8485 109.826C29.8485 110.422 29.7634 111.017 29.5082 111.613C29.253 111.017 29.168 110.422 29.168 109.826C29.168 109.146 29.3381 108.55 29.5082 108.04Z" fill="black"/>
<path opacity="0.1" d="M31.3796 108.04C31.6348 108.635 31.7199 109.231 31.7199 109.826C31.7199 110.422 31.6348 111.017 31.3796 111.613C30.9542 110.422 30.9542 109.146 31.3796 108.04Z" fill="black"/>
<path opacity="0.1" d="M27.6364 108.04C28.0618 109.146 28.0618 110.422 27.6364 111.528C27.211 110.422 27.211 109.146 27.6364 108.04Z" fill="black"/>
<path opacity="0.1" d="M20.3207 108.04C20.5759 108.635 20.661 109.231 20.661 109.826C20.661 110.422 20.5759 111.017 20.3207 111.613C20.0655 111.017 19.9805 110.422 19.9805 109.826C19.9805 109.146 20.0655 108.55 20.3207 108.04Z" fill="black"/>
<path opacity="0.1" d="M25.4255 108.04C25.8508 109.146 25.8508 110.422 25.4255 111.528C25.0001 110.422 25.0001 109.146 25.4255 108.04Z" fill="black"/>
<path opacity="0.1" d="M26.1901 108.04C26.6155 109.146 26.6155 110.422 26.1901 111.528C25.7648 110.422 25.7648 109.146 26.1901 108.04Z" fill="black"/>
<path opacity="0.1" d="M33.8464 108.04C34.2717 109.146 34.2717 110.422 33.8464 111.528C33.421 110.422 33.421 109.146 33.8464 108.04Z" fill="black"/>
<path opacity="0.1" d="M34.9525 108.04C35.3778 109.146 35.3778 110.422 34.9525 111.528C34.6122 110.422 34.6122 109.146 34.9525 108.04Z" fill="black"/>
<path opacity="0.1" d="M32.3159 108.04C32.5711 108.635 32.6561 109.231 32.6561 109.826C32.6561 110.422 32.5711 111.017 32.3159 111.613C32.0607 111.017 31.9756 110.422 31.9756 109.826C31.9756 109.146 32.0607 108.55 32.3159 108.04Z" fill="black"/>
<path opacity="0.1" d="M22.1079 108.04C22.3631 108.635 22.4481 109.231 22.4481 109.826C22.4481 110.422 22.3631 111.017 22.1079 111.613C21.8527 111.017 21.7676 110.422 21.7676 109.826C21.7676 109.146 21.8527 108.55 22.1079 108.04Z" fill="black"/>
</g>
<path opacity="0.1" d="M35.8891 107.614V108.55L15.9824 109.146V107.614H35.8891Z" fill="black"/>
<path d="M35.3784 103.191H15.4717V107.614H35.3784V103.191Z" fill="#FFC727"/>
<g opacity="0.1">
<path opacity="0.1" d="M34.527 107.104C34.1017 105.998 34.1017 104.722 34.527 103.616C34.8673 104.722 34.8673 105.998 34.527 107.104Z" fill="black"/>
<path opacity="0.1" d="M32.9956 107.104C32.7404 106.509 32.6553 105.913 32.6553 105.318C32.6553 104.722 32.7404 104.127 32.9956 103.531C33.2508 104.127 33.3358 104.722 33.3358 105.318C33.3358 105.998 33.2508 106.594 32.9956 107.104Z" fill="black"/>
<path opacity="0.1" d="M32.3159 107.104C32.0607 106.509 31.9756 105.913 31.9756 105.318C31.9756 104.722 32.0607 104.127 32.3159 103.531C32.5711 104.127 32.6561 104.722 32.6561 105.318C32.5711 105.998 32.486 106.594 32.3159 107.104Z" fill="black"/>
<path opacity="0.1" d="M28.3171 107.104C27.8917 105.998 27.8917 104.722 28.3171 103.616C28.7424 104.722 28.7424 105.998 28.3171 107.104Z" fill="black"/>
<path opacity="0.1" d="M27.2116 107.104C26.7862 105.998 26.7862 104.722 27.2116 103.616C27.637 104.722 27.637 105.998 27.2116 107.104Z" fill="black"/>
<path opacity="0.1" d="M22.7876 107.104C22.5324 106.509 22.4473 105.913 22.4473 105.318C22.4473 104.722 22.5324 104.127 22.7876 103.531C23.2129 104.722 23.2129 105.998 22.7876 107.104Z" fill="black"/>
<path opacity="0.1" d="M21.7661 107.104C21.5109 106.509 21.4258 105.913 21.4258 105.318C21.4258 104.722 21.5109 104.127 21.7661 103.531C22.0213 104.127 22.1064 104.722 22.1064 105.318C22.0213 105.998 21.9362 106.594 21.7661 107.104Z" fill="black"/>
<path opacity="0.1" d="M19.8102 107.104C19.3849 105.998 19.3849 104.722 19.8102 103.616C20.2356 104.722 20.2356 105.998 19.8102 107.104Z" fill="black"/>
<path opacity="0.1" d="M23.6382 107.104C23.3829 106.509 23.2979 105.913 23.2979 105.318C23.2979 104.722 23.3829 104.127 23.6382 103.531C23.8934 104.127 23.9784 104.722 23.9784 105.318C23.9784 105.998 23.8083 106.594 23.6382 107.104Z" fill="black"/>
<path opacity="0.1" d="M30.9545 107.104C30.6993 106.509 30.6143 105.913 30.6143 105.318C30.6143 104.722 30.6993 104.127 30.9545 103.531C31.2097 104.127 31.2948 104.722 31.2948 105.318C31.2948 105.998 31.2097 106.594 30.9545 107.104Z" fill="black"/>
<path opacity="0.1" d="M25.7653 107.104C25.3399 105.998 25.3399 104.722 25.7653 103.616C26.1907 104.722 26.1907 105.998 25.7653 107.104Z" fill="black"/>
<path opacity="0.1" d="M25.0846 107.104C24.6593 105.998 24.6593 104.722 25.0846 103.616C25.51 104.722 25.51 105.998 25.0846 107.104Z" fill="black"/>
<path opacity="0.1" d="M17.3425 107.104C16.9171 105.998 16.9171 104.722 17.3425 103.616C17.7678 104.722 17.7678 105.998 17.3425 107.104Z" fill="black"/>
<path opacity="0.1" d="M16.237 107.104C15.8116 105.998 15.8116 104.722 16.237 103.616C16.6623 104.722 16.6623 105.998 16.237 107.104Z" fill="black"/>
<path opacity="0.1" d="M18.9596 107.104C18.5343 105.998 18.5343 104.722 18.9596 103.616C19.385 104.722 19.385 105.998 18.9596 107.104Z" fill="black"/>
<path opacity="0.1" d="M29.1675 107.104C28.9122 106.509 28.8271 105.913 28.8271 105.318C28.8271 104.722 28.9122 104.127 29.1675 103.531C29.4227 104.127 29.5077 104.722 29.5077 105.318C29.5077 105.998 29.3376 106.594 29.1675 107.104Z" fill="black"/>
</g>
<path opacity="0.1" d="M35.3784 103.191V104.126L15.4717 104.722V103.191H35.3784Z" fill="black"/>
<path d="M34.1021 98.767H14.1953V103.191H34.1021V98.767Z" fill="#FFC727"/>
<g opacity="0.1">
<path opacity="0.1" d="M15.0466 99.1923C15.4719 100.298 15.4719 101.574 15.0466 102.68C14.6212 101.574 14.6212 100.298 15.0466 99.1923Z" fill="black"/>
<path opacity="0.1" d="M16.5776 99.1924C16.8328 99.7879 16.9179 100.383 16.9179 100.979C16.9179 101.574 16.8328 102.17 16.5776 102.765C16.3224 102.17 16.2373 101.574 16.2373 100.979C16.2373 100.383 16.3224 99.7879 16.5776 99.1924Z" fill="black"/>
<path opacity="0.1" d="M17.2583 99.1924C17.5135 99.7879 17.5985 100.383 17.5985 100.979C17.5985 101.574 17.5135 102.17 17.2583 102.765C17.0031 102.17 16.918 101.574 16.918 100.979C16.918 100.383 17.0031 99.7879 17.2583 99.1924Z" fill="black"/>
<path opacity="0.1" d="M21.2565 99.1924C21.6819 100.298 21.6819 101.574 21.2565 102.68C20.8312 101.574 20.8312 100.298 21.2565 99.1924Z" fill="black"/>
<path opacity="0.1" d="M22.362 99.1924C22.7873 100.298 22.7873 101.574 22.362 102.68C21.9366 101.574 21.9366 100.298 22.362 99.1924Z" fill="black"/>
<path opacity="0.1" d="M26.7858 99.1924C27.2112 100.298 27.2112 101.574 26.7858 102.68C26.3605 101.574 26.3605 100.298 26.7858 99.1924Z" fill="black"/>
<path opacity="0.1" d="M27.8071 99.1924C28.0623 99.7879 28.1474 100.383 28.1474 100.979C28.1474 101.574 28.0623 102.17 27.8071 102.765C27.5518 102.17 27.4668 101.574 27.4668 100.979C27.4668 100.383 27.5518 99.7879 27.8071 99.1924Z" fill="black"/>
<path opacity="0.1" d="M29.6784 99.1924C30.1038 100.298 30.1038 101.574 29.6784 102.68C29.253 101.574 29.253 100.298 29.6784 99.1924Z" fill="black"/>
<path opacity="0.1" d="M25.936 99.1924C26.1912 99.7879 26.2763 100.383 26.2763 100.979C26.2763 101.574 26.1912 102.17 25.936 102.765C25.6808 102.17 25.5957 101.574 25.5957 100.979C25.5957 100.383 25.6808 99.7879 25.936 99.1924Z" fill="black"/>
<path opacity="0.1" d="M18.6186 99.1924C18.8738 99.7879 18.9589 100.383 18.9589 100.979C18.9589 101.574 18.8738 102.17 18.6186 102.765C18.3634 102.17 18.2783 101.574 18.2783 100.979C18.2783 100.383 18.3634 99.7879 18.6186 99.1924Z" fill="black"/>
<path opacity="0.1" d="M23.7233 99.1924C24.1487 100.298 24.1487 101.574 23.7233 102.68C23.298 101.574 23.298 100.298 23.7233 99.1924Z" fill="black"/>
<path opacity="0.1" d="M24.4889 99.1924C24.9143 100.298 24.9143 101.574 24.4889 102.68C24.0636 101.574 24.0636 100.298 24.4889 99.1924Z" fill="black"/>
<path opacity="0.1" d="M32.1452 99.1924C32.5705 100.298 32.5705 101.574 32.1452 102.68C31.7198 101.574 31.7198 100.298 32.1452 99.1924Z" fill="black"/>
<path opacity="0.1" d="M33.2516 99.1924C33.677 100.298 33.677 101.574 33.2516 102.68C32.8263 101.574 32.8263 100.298 33.2516 99.1924Z" fill="black"/>
<path opacity="0.1" d="M30.6139 99.1924C31.0393 100.298 31.0393 101.574 30.6139 102.68C30.1886 101.574 30.1886 100.298 30.6139 99.1924Z" fill="black"/>
<path opacity="0.1" d="M20.4057 99.1924C20.661 99.7879 20.746 100.383 20.746 100.979C20.746 101.574 20.661 102.17 20.4057 102.765C20.1505 102.17 20.0654 101.574 20.0654 100.979C20.0654 100.383 20.1505 99.7879 20.4057 99.1924Z" fill="black"/>
</g>
<path opacity="0.1" d="M34.1871 98.767V99.7027L14.1953 100.383V98.767H34.1871Z" fill="black"/>
<path d="M34.1021 112.038H14.1953V116.462H34.1021V112.038Z" fill="#FFC727"/>
<g opacity="0.1">
<path opacity="0.1" d="M33.2516 115.951C32.8263 114.845 32.8263 113.569 33.2516 112.463C33.677 113.569 33.677 114.76 33.2516 115.951Z" fill="black"/>
<path opacity="0.1" d="M31.8053 115.951C31.38 114.845 31.38 113.569 31.8053 112.463C32.2307 113.569 32.2307 114.76 31.8053 115.951Z" fill="black"/>
<path opacity="0.1" d="M31.0387 115.951C30.6134 114.845 30.6134 113.569 31.0387 112.463C31.294 113.059 31.379 113.654 31.379 114.25C31.379 114.76 31.294 115.356 31.0387 115.951Z" fill="black"/>
<path opacity="0.1" d="M27.0405 115.951C26.7853 115.356 26.7002 114.76 26.7002 114.165C26.7002 113.569 26.7853 112.974 27.0405 112.378C27.2957 112.974 27.3808 113.569 27.3808 114.165C27.3808 114.76 27.2957 115.356 27.0405 115.951Z" fill="black"/>
<path opacity="0.1" d="M26.0202 115.951C25.5948 114.845 25.5948 113.569 26.0202 112.463C26.4455 113.569 26.4455 114.76 26.0202 115.951Z" fill="black"/>
<path opacity="0.1" d="M21.5112 115.951C21.256 115.356 21.1709 114.76 21.1709 114.165C21.1709 113.569 21.256 112.974 21.5112 112.378C21.7664 112.974 21.8515 113.569 21.8515 114.165C21.8515 114.76 21.7664 115.356 21.5112 115.951Z" fill="black"/>
<path opacity="0.1" d="M20.4909 115.951C20.0655 114.845 20.0655 113.569 20.4909 112.463C20.7461 113.059 20.8312 113.654 20.8312 114.25C20.8312 114.76 20.7461 115.356 20.4909 115.951Z" fill="black"/>
<path opacity="0.1" d="M18.6186 115.951C18.3634 115.356 18.2783 114.76 18.2783 114.165C18.2783 113.569 18.3634 112.974 18.6186 112.378C18.8738 112.974 18.9589 113.569 18.9589 114.165C18.9589 114.76 18.8738 115.356 18.6186 115.951Z" fill="black"/>
<path opacity="0.1" d="M22.4469 115.951C22.0216 114.845 22.0216 113.569 22.4469 112.463C22.7872 113.569 22.7872 114.76 22.4469 115.951Z" fill="black"/>
<path opacity="0.1" d="M29.7624 115.951C29.337 114.845 29.337 113.569 29.7624 112.463C30.0176 113.059 30.1026 113.654 30.1026 114.25C30.1026 114.76 29.9325 115.356 29.7624 115.951Z" fill="black"/>
<path opacity="0.1" d="M24.5739 115.951C24.1485 114.845 24.1485 113.569 24.5739 112.463C24.9993 113.569 24.9993 114.76 24.5739 115.951Z" fill="black"/>
<path opacity="0.1" d="M23.893 115.951C23.6378 115.356 23.5527 114.76 23.5527 114.165C23.5527 113.569 23.6378 112.974 23.893 112.378C24.1483 112.974 24.2333 113.569 24.2333 114.165C24.1483 114.76 24.0632 115.356 23.893 115.951Z" fill="black"/>
<path opacity="0.1" d="M16.151 115.951C15.7257 114.845 15.7257 113.569 16.151 112.463C16.5764 113.569 16.5764 114.76 16.151 115.951Z" fill="black"/>
<path opacity="0.1" d="M15.0456 115.951C14.6202 114.845 14.6202 113.569 15.0456 112.463C15.4709 113.569 15.4709 114.76 15.0456 115.951Z" fill="black"/>
<path opacity="0.1" d="M17.768 115.951C17.5128 115.356 17.4277 114.76 17.4277 114.165C17.4277 113.569 17.5128 112.974 17.768 112.378C18.0232 112.974 18.1083 113.569 18.1083 114.165C18.1083 114.76 17.9381 115.356 17.768 115.951Z" fill="black"/>
<path opacity="0.1" d="M27.9762 115.951C27.5509 114.845 27.5509 113.569 27.9762 112.463C28.4016 113.569 28.4016 114.76 27.9762 115.951Z" fill="black"/>
</g>
<path opacity="0.1" d="M34.1871 112.038V112.974L14.1953 113.569V112.038H34.1871Z" fill="black"/>
<path d="M12.58 109.826C25.681 112.208 22.193 131.605 9.092 129.308C-4.09408 126.926 -0.606122 107.444 12.58 109.826Z" fill="#FFC727"/>
<path opacity="0.1" d="M12.58 109.826C25.681 112.208 22.193 131.605 9.092 129.308C-4.09408 126.926 -0.606122 107.444 12.58 109.826Z" fill="black"/>
<path d="M11.3032 109.571C23.8087 111.783 20.3208 131.264 7.81526 129.052C-4.69025 126.755 -1.20229 107.359 11.3032 109.571Z" fill="#FFC727"/>
<path opacity="0.1" d="M1.68945 119.78C1.77452 123.268 3.81622 126.585 8.15487 127.436C18.5336 129.308 21.426 113.144 11.0473 111.272H10.8772C20.5753 113.229 17.853 128.457 7.89966 126.67C4.41173 126.16 1.77452 123.268 1.68945 119.78Z" fill="black"/>
<g opacity="0.1">
<path opacity="0.1" d="M10.7075 113.229C10.8776 113.314 10.9627 113.484 10.9627 113.654L10.7925 114.165C11.6432 114.42 12.4089 115.016 12.9193 115.696C13.0044 115.781 13.0895 115.951 13.0044 116.036C12.9193 116.207 12.7492 116.292 12.5791 116.292C12.494 116.292 12.4089 116.207 12.3239 116.122C11.8985 115.526 11.2179 115.016 10.5373 114.76L9.60155 118.504C11.4731 119.439 12.1537 120.375 11.8985 121.736C11.5582 123.182 10.112 123.863 8.41053 123.523L8.15533 124.544C8.15533 124.714 7.98516 124.884 7.81502 124.799C7.64488 124.799 7.47474 124.629 7.55982 124.459V124.373L7.81502 123.353C6.70909 123.012 5.77332 122.247 5.17782 121.311C5.09275 121.226 5.09277 121.141 5.09277 120.971C5.17784 120.8 5.34799 120.715 5.51813 120.715C5.6032 120.715 5.68826 120.8 5.77334 120.886C6.28376 121.736 7.13449 122.417 8.07028 122.757L9.00604 118.929C7.13447 117.993 6.45392 117.057 6.7942 115.696C7.13449 114.42 8.5807 113.569 10.1971 113.995L10.2821 113.484C10.3672 113.314 10.5373 113.229 10.7075 113.229ZM9.09109 118.248L10.0269 114.59C8.75084 114.335 7.64491 114.845 7.47477 115.781C7.21955 116.802 7.47473 117.398 9.09109 118.248ZM9.51645 119.184L8.58068 122.842C9.94183 123.182 10.9627 122.587 11.2179 121.566C11.4731 120.63 11.1328 120.035 9.51645 119.184Z" fill="black"/>
</g>
</svg>
