<svg width="158" height="31" viewBox="0 0 158 31" fill="none" xmlns="http://www.w3.org/2000/svg">
<path d="M21.9765 0.668701V29.221H17.4048L17.0836 26.4436C15.56 28.8536 13.1136 29.6715 10.708 29.6715C4.8924 29.6715 0.521484 25.7497 0.521484 19.1322C0.521484 12.1875 4.8121 8.59283 10.5869 8.59283C12.6726 8.59283 15.9207 9.73652 17.0836 11.8201V0.668701H21.9765ZM5.4143 19.1322C5.4143 22.6444 7.90022 25.0551 11.0285 25.0551C14.1166 25.0551 16.7631 22.7677 16.7631 19.1322C16.7631 15.6186 14.1166 13.2501 11.0285 13.2501C7.90022 13.2501 5.4143 15.4966 5.4143 19.1322Z" fill="#F37B6F"/>
<path d="M30.036 20.9296C30.3572 23.4208 32.4824 25.2181 35.9312 25.2181C37.7359 25.2181 40.102 24.5236 41.2249 23.339L44.3525 26.4845C42.2674 28.6901 38.8581 29.7527 35.8509 29.7527C29.0336 29.7527 24.9839 25.4628 24.9839 19.0089C24.9839 12.8828 29.0738 8.47021 35.4902 8.47021C42.1068 8.47021 46.2381 12.6374 45.4753 20.9296H30.036ZM40.7832 16.8039C40.4634 14.1907 38.4579 12.8834 35.6502 12.8834C33.0037 12.8834 30.839 14.1907 30.1163 16.8039H40.7832Z" fill="#F37B6F"/>
<path d="M62.6404 12.7193C60.635 10.922 58.6703 10.5948 56.4642 10.5948C53.3761 10.5539 50.4084 11.7392 50.4893 14.3122C50.5696 17.0079 54.0184 17.5395 56.5043 17.9887C60.0334 18.6008 64.8861 19.2135 64.6854 23.911C64.5656 28.3638 60.0334 29.5484 56.5445 29.5484C53.0555 29.5484 49.6074 28.2002 47.8823 25.5045L49.3257 24.1972C50.9711 26.6073 53.9375 27.629 56.5846 27.629C58.9909 27.629 62.6404 26.9747 62.7609 23.789C62.8412 20.8895 59.5523 20.317 56.3036 19.7867C52.454 19.133 48.6445 18.3983 48.6037 14.3537C48.5642 10.3917 52.454 8.67613 56.4642 8.71702C59.3516 8.71702 61.8783 9.53358 63.8429 11.4127L62.6404 12.7193Z" fill="#FFC818"/>
<path d="M56.5454 29.8615C52.6362 29.8615 49.3013 28.2963 47.6249 25.6752L47.4805 25.4483L49.381 23.7275L49.5791 24.017C50.9882 26.0821 53.6068 27.3136 56.5849 27.3136C58.3093 27.3136 62.3331 26.9699 62.4535 23.7763C62.5222 21.3101 59.9275 20.6947 56.2553 20.0945C52.5442 19.4653 48.3411 18.7516 48.2964 14.3556C48.2815 12.8907 48.7691 11.6434 49.7456 10.6488C51.1753 9.19241 53.6386 8.35873 56.4677 8.40226C59.572 8.40226 62.1252 9.33753 64.0543 11.1824L64.2783 11.3974L62.6608 13.1551L62.4374 12.9546C60.4986 11.2166 58.5657 10.908 56.3103 10.9073C54.2252 10.9073 52.4445 11.4726 51.5211 12.4309C51.018 12.9526 50.7745 13.5819 50.7972 14.3015C50.8678 16.6575 53.8905 17.2003 56.3194 17.6363L57.0246 17.7596C60.4734 18.3486 65.1972 19.1546 64.9932 23.9247C64.8443 29.4334 58.4893 29.8615 56.5454 29.8615ZM48.2899 25.5558C49.8815 27.8313 53.0143 29.2342 56.5454 29.2342C58.3488 29.2342 64.2446 28.8497 64.378 23.9023C64.5587 19.6816 60.3244 18.9601 56.9229 18.3783L56.2125 18.2543C53.7033 17.8045 50.2668 17.1878 50.1814 14.3219C50.1535 13.4242 50.4566 12.6407 51.0814 11.9923C52.1428 10.8902 54.156 10.253 56.469 10.2814C58.7315 10.2814 60.6566 10.629 62.6167 12.2865L63.4048 11.4303C61.5917 9.81043 59.1835 9.01961 56.3233 9.02951C53.7033 9.02951 51.4713 9.77812 50.1807 11.0933C49.3259 11.964 48.8992 13.0595 48.9122 14.3503C48.9484 17.943 52.0197 18.7417 56.3544 19.4772C59.5422 19.9976 63.1574 20.5879 63.0687 23.798C62.9237 27.6447 58.0697 27.9422 56.5849 27.9422C53.5427 27.9422 50.8406 26.7219 49.278 24.6608L48.2899 25.5558Z" fill="#FFC818"/>
<path d="M84.4959 26.4027C82.4905 28.4454 79.8835 29.4256 77.2771 29.4256C71.7031 29.4256 67.0913 25.5044 67.0913 19.1329C67.0913 12.7601 71.5425 8.8396 77.2771 8.8396C79.8835 8.8396 82.4905 9.85996 84.4959 11.8618L83.2131 13.1281C81.6079 11.4944 79.403 10.7181 77.2771 10.7181C72.7858 10.7181 69.0164 13.7 69.0164 19.1336C69.0164 24.5652 72.7858 27.5471 77.2771 27.5471C79.403 27.5471 81.5677 26.6897 83.1723 25.0566L84.4959 26.4027Z" fill="#FFC818"/>
<path d="M77.2771 29.7395C71.1967 29.7395 66.7837 25.2788 66.7837 19.1322C66.7837 12.8867 71.0989 8.5249 77.2771 8.5249C80.0602 8.5249 82.7002 9.63037 84.7115 11.6375L84.9375 11.8623L83.2099 13.5674L82.9955 13.349C81.5489 11.8762 79.4645 11.0313 77.2771 11.0313C73.3187 11.0313 69.324 13.5363 69.324 19.1322C69.324 24.7273 73.3187 27.2331 77.2771 27.2331C79.3881 27.2331 81.4576 26.3585 82.9547 24.8329L83.1723 24.6113L84.9317 26.402L84.7141 26.625C82.7417 28.6334 80.101 29.7395 77.2771 29.7395ZM77.2771 9.15217C71.4615 9.15217 67.3995 13.256 67.3995 19.1322C67.3995 25.009 71.4615 29.1122 77.2771 29.1122C79.8323 29.1122 82.2269 28.1519 84.0568 26.4L83.1684 25.4958C81.5768 27.0016 79.4476 27.861 77.2771 27.861C71.3579 27.861 68.7082 23.4775 68.7082 19.1328C68.7082 13.1037 73.0124 10.4047 77.2771 10.4047C79.5182 10.4047 81.6635 11.2351 83.2131 12.6921L84.0517 11.8637C82.1874 10.1125 79.7947 9.15217 77.2771 9.15217Z" fill="#FFC818"/>
<path d="M89.5886 0.628662V12.8011C91.1938 9.90095 93.9601 8.79815 96.7271 8.75726C102.261 8.75726 105.028 12.3928 105.028 17.6622V29.2219H103.103V17.6622C103.103 13.4956 101.178 10.6773 96.7264 10.6773C92.5556 10.6773 89.6682 13.9448 89.6682 18.1522V29.2219H87.7036V0.628662H89.5886Z" fill="#FFC818"/>
<path d="M105.336 29.5352H102.796V17.6615C102.796 14.6182 101.743 10.9906 96.7264 10.9906C92.8153 10.9906 89.9764 14.0022 89.9764 18.1522V29.5352H87.396V0.314697H89.8961V11.7438C91.4295 9.649 93.8157 8.48683 96.7219 8.4433C102.117 8.4433 105.336 11.8896 105.336 17.6622V29.5352ZM103.412 28.9079H104.72V17.6615C104.72 12.2016 101.806 9.07057 96.7264 9.07057C93.6577 9.11608 91.2171 10.4952 89.8566 12.9548L89.2803 13.9963V0.941965H88.0118V28.9079H89.3606V18.1522C89.3606 13.6381 92.4585 10.3627 96.7264 10.3627C101.037 10.3627 103.412 12.9548 103.412 17.6609V28.9079Z" fill="#FFC818"/>
<path d="M108.149 12.1211C108.149 5.70805 112.64 1.62329 118.214 1.62329C123.788 1.62329 128.28 5.70805 128.28 12.1211C128.28 18.5341 123.788 22.4553 118.214 22.4553C112.64 22.4553 108.149 18.5341 108.149 12.1211ZM126.355 12.1211C126.355 6.89264 122.706 3.50175 118.214 3.50175C113.723 3.50175 110.074 6.89264 110.074 12.1211C110.074 17.3495 113.723 20.4944 118.214 20.4944C122.706 20.4944 126.355 17.3495 126.355 12.1211Z" fill="#FFC818"/>
<path d="M118.214 22.7691C112.106 22.7691 107.841 18.3908 107.841 12.1209C107.841 5.85694 112.203 1.30981 118.214 1.30981C124.226 1.30981 128.588 5.85694 128.588 12.1209C128.587 18.3908 124.321 22.7691 118.214 22.7691ZM118.214 1.93708C112.561 1.93708 108.457 6.2197 108.457 12.1209C108.457 18.0215 112.469 22.1418 118.214 22.1418C123.959 22.1418 127.972 18.0215 127.972 12.1209C127.972 6.2197 123.867 1.93708 118.214 1.93708ZM118.214 20.8075C113.24 20.8075 109.766 17.2353 109.766 12.1209C109.766 6.94523 113.318 3.1883 118.214 3.1883C123.11 3.1883 126.664 6.94523 126.664 12.1209C126.663 17.2353 123.189 20.8075 118.214 20.8075ZM118.214 3.81555C113.676 3.81555 110.382 7.30866 110.382 12.1209C110.382 16.8666 113.603 20.1809 118.214 20.1809C122.826 20.1809 126.048 16.8666 126.048 12.1209C126.047 7.30866 122.752 3.81555 118.214 3.81555Z" fill="#FFC818"/>
<path d="M131.184 20.2509C131.184 13.8372 135.676 9.75244 141.25 9.75244C146.823 9.75244 151.315 13.8372 151.315 20.2509C151.315 26.6639 146.823 30.5851 141.25 30.5851C135.675 30.5851 131.184 26.6639 131.184 20.2509ZM149.39 20.2509C149.39 15.0218 145.74 11.6322 141.25 11.6322C136.758 11.6322 133.108 15.0224 133.108 20.2509C133.108 25.4787 136.758 28.6235 141.25 28.6235C145.74 28.6235 149.39 25.4787 149.39 20.2509Z" fill="#FFC818"/>
<path d="M141.249 30.8985C135.141 30.8985 130.875 26.5202 130.875 20.2503C130.875 13.9863 135.239 9.43921 141.249 9.43921C147.26 9.43921 151.623 13.9863 151.623 20.2503C151.622 26.5202 147.357 30.8985 141.249 30.8985ZM141.249 10.0665C135.595 10.0665 131.491 14.3491 131.491 20.2503C131.491 26.1508 135.504 30.2712 141.249 30.2712C146.994 30.2712 151.006 26.1508 151.006 20.2503C151.006 14.3491 146.903 10.0665 141.249 10.0665ZM141.249 28.9375C136.274 28.9375 132.8 25.3653 132.8 20.2503C132.8 15.0746 136.353 11.3177 141.249 11.3177C146.145 11.3177 149.698 15.0746 149.698 20.2503C149.698 25.3653 146.223 28.9375 141.249 28.9375ZM141.249 11.9449C136.711 11.9449 133.416 15.438 133.416 20.2503C133.416 24.9959 136.637 28.3103 141.249 28.3103C145.861 28.3103 149.082 24.9966 149.082 20.2503C149.082 15.438 145.788 11.9449 141.249 11.9449Z" fill="#FFC818"/>
<path d="M157.202 0.628662H155.238V29.2225H157.202V0.628662Z" fill="#FFC818"/>
<path d="M157.51 29.5352H154.93V0.314697H157.51V29.5352ZM155.545 28.9079H156.894V0.941965H155.545V28.9079Z" fill="#FFC818"/>
<path d="M118.285 30.8971C114.538 30.8971 110.793 29.4316 107.96 26.507L109.714 24.7446C114.375 29.5589 122.012 29.6103 126.739 24.864L128.468 26.6501C125.647 29.483 121.965 30.8971 118.285 30.8971Z" fill="#F37B6F"/>
</svg>
