<svg width="180" height="146" viewBox="0 0 180 146" fill="none" xmlns="http://www.w3.org/2000/svg">
<path d="M134.45 22.0889H130.156V68.3083H134.45V22.0889Z" fill="black"/>
<path d="M130.156 22.0889C115.086 22.0889 102.205 28.7397 93.3652 41.1154L130.156 68.3083V22.0889Z" fill="#263238"/>
<path d="M126.788 22.1731C126.619 22.1731 126.451 22.1731 126.367 22.1731C127.714 24.4462 128.472 26.8877 128.051 29.4975C127.714 31.6864 125.609 32.7809 123.841 33.3702C122.073 33.8753 120.221 34.1279 118.369 34.2121C117.695 32.6967 116.854 31.2655 115.843 30.0026C114.665 28.4872 113.234 27.056 111.634 25.8774C111.466 25.9616 111.381 25.9616 111.213 26.0458C114.075 28.1505 116.349 31.0129 117.864 34.2121C112.728 34.2962 106.919 32.9492 103.047 30.9287L102.71 31.1813C106.667 33.3702 112.728 34.7172 118.032 34.633C119.211 37.327 119.463 40.3578 118.79 43.3044C118.453 44.6514 117.948 45.9984 117.275 47.2613C115.507 46.7561 113.57 46.5036 111.718 46.5036C108.351 46.5878 105.657 47.6822 104.478 49.366L104.815 49.6185C105.909 48.0189 108.435 47.0087 111.718 46.9245C113.57 46.8403 115.338 47.0929 117.106 47.598C115.507 50.3762 112.897 52.4809 109.782 53.3228L110.203 53.6596C113.318 52.6493 115.928 50.5446 117.527 47.7664C122.494 49.366 125.272 53.3228 125.778 57.1113C126.114 59.5528 125.609 61.9942 124.346 64.0989L124.683 64.3515C127.882 59.0476 126.199 52.1442 120.895 48.945C120.895 48.945 120.895 48.945 120.81 48.945C119.8 48.3557 118.79 47.8506 117.696 47.5138C118.369 46.251 118.874 44.904 119.211 43.557C119.884 40.6104 119.632 37.5796 118.537 34.8014C120.39 34.8014 122.157 34.4646 123.925 33.9595C126.535 33.1176 128.135 31.6864 128.387 29.7501C128.893 27.056 128.135 24.5304 126.788 22.1731Z" fill="#37474F"/>
<path d="M130.156 119.327H134.45C144.047 119.327 153.476 116.212 161.138 110.487H156.844C149.183 116.212 139.838 119.327 130.156 119.327Z" fill="#DBDBDB"/>
<path d="M130.156 73.1071L93.3652 100.3C107.677 120.589 135.796 125.472 156.17 111.076C156.422 110.908 156.675 110.655 157.012 110.487L130.156 73.1071Z" fill="#EBEBEB"/>
<path d="M135.291 80.2631L134.954 79.758C132.344 79.4212 129.65 79.9263 127.377 81.3575C126.367 81.9469 125.441 82.7045 124.599 83.4622C123.757 82.2836 122.831 81.1892 121.737 80.1789C121.568 80.0105 121.316 79.8421 121.147 79.6738L120.811 79.9263C121.063 80.0947 121.316 80.2631 121.484 80.5156C122.579 81.4417 123.589 82.5362 124.346 83.799C122.999 85.146 121.905 86.7456 121.063 88.5135C119.043 92.723 119.295 96.5114 121.652 97.9426C122.831 98.7003 124.178 98.1952 125.357 96.6798C127.293 94.07 127.967 88.7661 124.852 83.799C128.051 80.684 131.923 79.7579 135.291 80.2631ZM124.936 96.5114C124.01 97.7743 122.831 98.1952 121.821 97.6059C119.632 96.2589 119.464 92.723 121.4 88.6819C122.158 86.9981 123.252 85.4828 124.515 84.1357C127.461 88.9345 126.788 93.9858 124.936 96.5114ZM144.383 92.9755C144.299 93.2281 144.215 93.4807 144.131 93.649C143.962 93.9016 143.71 94.07 143.373 94.07C143.036 93.9858 142.615 92.9755 142.784 91.3759C142.784 91.2076 142.868 91.0392 142.868 90.8708L142.531 90.3657C142.447 90.7024 142.363 91.0392 142.363 91.2918C142.194 92.9755 142.531 94.3226 143.289 94.4067C143.878 94.4909 144.383 94.1542 144.72 93.3123L144.383 92.9755ZM137.227 90.1973C135.544 90.0289 134.028 90.8708 132.934 92.6388C130.408 96.6798 129.987 105.014 131.587 111.665C129.145 113.433 126.199 114.359 123.168 114.359C121.737 114.359 120.305 114.107 118.874 113.686C119.043 111.75 118.874 109.813 118.369 107.961C117.19 103.415 114.581 100.721 111.887 101.142C110.54 101.394 109.698 102.573 109.866 104.425C110.034 107.624 112.897 112.255 118.537 114.023C118.453 115.285 118.117 116.548 117.696 117.727L118.117 117.811L118.201 117.559C118.537 116.464 118.79 115.285 118.958 114.191C120.39 114.612 121.821 114.865 123.252 114.865C126.283 114.949 129.314 114.023 131.755 112.255C132.176 114.023 132.85 115.791 133.776 117.39C134.197 118.064 134.617 118.653 135.123 119.242L135.628 119.158C135.038 118.569 134.533 117.895 134.112 117.138C133.186 115.538 132.513 113.77 132.092 111.918C133.439 110.908 134.702 109.729 135.712 108.466C138.574 104.93 140.511 100.384 140.763 96.4273C141.016 92.723 139.669 90.3657 137.227 90.1973ZM118.537 113.433C113.234 111.665 110.455 107.372 110.287 104.257C110.203 102.657 110.792 101.563 111.971 101.394C114.496 100.973 116.938 103.667 118.032 107.961C118.453 109.729 118.622 111.581 118.537 113.433ZM140.426 96.2589C140.09 101.226 136.975 107.624 132.008 111.244C130.492 104.762 130.913 96.5956 133.355 92.723C134.365 91.1234 135.712 90.3657 137.227 90.5341C139.416 90.7866 140.595 92.8913 140.426 96.2589ZM153.307 105.435C152.381 107.709 151.203 109.897 149.94 111.918C148.93 113.433 147.835 114.865 146.572 116.212C146.909 116.127 147.162 115.959 147.498 115.875C150.361 112.676 152.465 108.55 153.644 105.941L153.307 105.435Z" fill="#DBDBDB"/>
<path d="M156.928 110.487H161.222L134.45 73.1071H130.156L156.928 110.487Z" fill="#C7C7C7"/>
<path d="M156.928 105.688H161.221C181.595 90.7025 186.057 61.7417 171.324 41.1155C168.546 37.1586 165.178 33.7069 161.221 30.9287H156.928C160.8 33.7069 164.252 37.2428 167.03 41.1155C181.763 61.7417 177.301 90.7025 156.928 105.688Z" fill="#37474F"/>
<path d="M156.928 30.9287L130.156 68.3084L156.928 105.688C177.302 90.7025 181.764 61.7417 167.031 41.1155C164.253 37.2428 160.801 33.7911 156.928 30.9287Z" fill="#455A64"/>
<path d="M173.008 83.9674C173.092 83.7991 173.092 83.6307 173.177 83.4623C168.294 80.4315 159.454 79.0845 151.961 79.9264C150.193 76.7272 149.52 73.0229 150.025 69.487C150.277 67.7191 150.782 66.0353 151.456 64.4357C153.729 64.8566 156.086 65.025 158.359 64.6883C163.916 64.0148 167.62 61.3207 167.536 57.9532C167.536 56.2694 166.105 55.175 163.916 55.0066C160.043 54.754 154.15 57.5323 151.119 63.9306C145.226 62.5836 141.437 58.5425 140.175 54.2489L139.838 54.754C141.017 58.3741 143.626 61.3207 146.994 62.9203C148.257 63.5096 149.604 64.0148 150.951 64.3515C150.277 65.9511 149.772 67.6349 149.52 69.4028C149.014 73.0229 149.604 76.7272 151.372 80.0106C149.183 80.2631 146.994 80.8525 144.889 81.6943C143.542 82.1995 142.364 83.0413 141.353 84.0516L141.69 84.4725C142.616 83.4623 143.795 82.7046 145.142 82.1995C147.246 81.3576 149.435 80.8525 151.708 80.5999C152.719 82.3679 153.897 84.0516 155.244 85.4828C158.949 89.3555 164 92.3863 168.546 93.3123L168.799 92.8914C162.906 91.7969 155.834 87.0824 152.214 80.5999C159.538 79.6738 168.378 81.0208 173.008 83.9674ZM163.916 55.5117C165.852 55.5959 167.031 56.522 167.031 57.9532C167.115 60.984 163.579 63.5096 158.275 64.1832C156.086 64.5199 153.813 64.4357 151.624 64.0148C154.571 57.869 160.127 55.2592 163.916 55.5117Z" fill="#37474F"/>
<path d="M128.556 13.7543V59.9737L155.328 22.5941C147.161 16.5325 138.658 13.7543 128.556 13.7543Z" fill="#DBDBDB"/>
<path d="M155.328 22.5098H159.621C151.455 16.5325 142.952 13.67 132.849 13.67H128.556C138.658 13.7542 147.161 16.5325 155.328 22.5098Z" fill="#C7C7C7"/>
<path d="M151.876 20.2367L151.455 19.9842C151.539 20.7419 151.455 21.4996 151.371 22.2573C150.95 24.4462 148.845 25.5406 147.077 26.0457C145.309 26.5509 143.457 26.8034 141.605 26.7193C141.016 25.2039 140.174 23.6885 139.163 22.4256C136.469 18.8055 132.513 15.9431 128.808 14.7645L128.556 14.6803V15.1012H128.64C133.354 16.5324 138.742 21.0786 141.1 26.6351C136.806 26.5509 132.597 25.709 128.556 24.1094V24.6145C132.597 26.2141 136.89 27.056 141.268 27.1402C142.363 29.9184 142.615 32.9492 141.857 35.8116C141.521 37.1586 140.931 38.5056 140.258 39.7685C138.49 39.1791 136.554 38.9266 134.701 38.9266C132.176 38.9266 130.071 39.5159 128.64 40.442V40.9471C129.987 39.9368 132.092 39.3475 134.701 39.3475C136.554 39.3475 138.322 39.5159 140.089 40.1052C137.143 44.8198 132.344 46.4193 129.313 45.9142C129.061 45.9142 128.808 45.83 128.64 45.7458V46.1668C128.808 46.251 129.061 46.251 129.313 46.3352C132.428 46.9245 137.48 45.2407 140.51 40.2736C141.1 40.442 141.689 40.6945 142.194 40.9471L142.447 40.6945C141.857 40.442 141.352 40.1894 140.763 39.9368C141.521 38.674 142.026 37.327 142.363 35.98C143.12 33.0334 142.952 30.0026 141.857 27.1402C143.71 27.1402 145.562 26.8876 147.33 26.3825C150.024 25.5406 151.539 24.1936 151.876 22.2573C151.876 21.5837 151.96 20.9102 151.876 20.2367Z" fill="#C7C7C7"/>
<path d="M128.556 59.9737H132.849L159.621 22.5099H155.328L128.556 59.9737Z" fill="#A6A6A6"/>
<path d="M19.7842 92.8914V92.9756L23.0675 107.203L23.4885 108.887L31.7389 144.836H37.3796C37.3796 144.92 37.3796 145.004 37.3796 145.088C37.3796 145.004 37.3796 144.92 37.3796 144.836H68.7818L55.8168 93.8174L55.7326 93.4807L55.5643 92.8914H19.7842Z" fill="#37474F"/>
<path d="M33.2543 92.8914L46.3035 144.836H31.6548L19.7842 92.9756L33.2543 92.8914Z" fill="#263238"/>
<path d="M1.59981 144.836H37.2115C37.2115 144.92 37.2115 145.004 37.2115 145.088C37.2115 145.004 37.2115 144.92 37.2115 144.836C37.2115 144.246 37.2957 143.741 37.2957 143.236C37.2957 142.563 37.3799 141.805 37.3799 141.131C37.3799 140.879 37.3799 140.626 37.3799 140.374C37.3799 140.205 37.3799 140.037 37.3799 139.869C37.3799 139.7 37.3799 139.448 37.3799 139.195C37.3799 138.942 37.3799 138.69 37.3799 138.437C37.3799 138.185 37.3799 137.932 37.3799 137.68C37.3799 137.595 37.3799 137.427 37.3799 137.343C37.3799 136.922 37.4641 136.501 37.4641 136.08C37.4641 135.912 37.4641 135.659 37.4641 135.491C37.4641 135.407 37.4641 135.322 37.4641 135.238V135.154C37.4641 135.07 37.4641 134.986 37.4641 134.901C37.4641 134.817 37.4641 134.817 37.4641 134.733C37.4641 134.48 37.4641 134.312 37.4641 134.144C37.4641 134.06 37.4641 134.06 37.4641 133.975C37.4641 133.891 37.4641 133.807 37.4641 133.723C37.4641 133.47 37.4641 133.218 37.4641 133.049C37.4641 132.881 37.4641 132.797 37.4641 132.713C37.4641 132.628 37.4641 132.376 37.4641 132.207C37.4641 132.123 37.4641 132.123 37.4641 132.039C37.4641 131.955 37.4641 131.955 37.4641 131.871C37.4641 131.702 37.4641 131.702 37.4641 131.702C37.5483 131.618 37.6325 131.618 37.8008 131.534L38.2218 131.281L38.5585 131.029L40.1581 130.103L40.6632 129.85C41 129.682 41.3368 129.513 41.5893 129.345C42.2628 129.008 42.8521 128.756 43.3573 128.419L44.115 128.082L44.4517 127.914H44.5359L44.9569 127.745C45.2094 127.577 45.5462 127.493 45.7987 127.409L46.2197 127.24C46.6406 127.072 46.9774 126.904 47.2299 126.819C47.3141 126.819 47.3141 126.819 47.3983 126.735L47.4825 126.651C47.4825 126.651 47.5667 126.651 47.5667 126.567H47.6509C47.7351 126.483 47.7351 126.314 47.7351 126.23C47.8193 126.146 47.8193 125.977 47.9035 125.893C48.0718 125.472 48.156 125.136 48.3244 124.715C48.4086 124.294 48.577 123.789 48.7453 123.368C48.8295 123.031 48.9137 122.694 48.9979 122.442C49.0821 122.105 49.1663 121.852 49.2505 121.515C49.6714 120.168 50.0082 118.737 50.2607 117.39C50.3449 117.138 50.4291 116.801 50.4291 116.548C50.4291 116.296 50.5975 115.875 50.6817 115.538C50.85 114.865 50.9342 114.275 51.1026 113.602C51.1868 113.349 51.1868 113.097 51.271 112.928C51.6077 111.329 51.8603 109.729 52.1129 108.214C52.1129 108.045 52.1971 107.877 52.1971 107.793L52.3654 106.53C52.4496 106.193 52.4496 105.856 52.5338 105.435C52.618 104.594 52.7864 103.836 52.8706 102.994C52.8706 102.826 52.9548 102.657 52.9548 102.405C53.039 101.815 53.1231 101.31 53.1231 100.721C53.1231 100.468 53.2073 100.216 53.2073 99.9632C53.2073 99.7107 53.2915 99.5423 53.2915 99.2897C53.2915 99.0371 53.2915 98.953 53.3757 98.7846V98.7004C53.3757 98.4478 53.4599 98.1953 53.4599 97.9427C53.5441 97.185 53.6283 96.5115 53.6283 95.9222C53.6283 95.5854 53.7125 95.2487 53.7125 94.9119C53.7966 94.3226 53.7966 93.8175 53.7966 93.4807C53.7966 93.2281 53.7966 93.0598 53.7966 92.8914C53.7966 92.723 53.7966 92.723 53.7966 92.723H26.6038H5.3041C5.3041 92.723 5.13573 94.4068 4.88316 97.4376C4.88316 97.7743 4.79897 98.0269 4.79897 98.3636C4.63059 100.132 4.46222 102.236 4.29385 104.678C4.29385 105.015 4.20965 105.351 4.20965 105.688C4.12546 106.951 4.04128 108.214 3.8729 109.561C3.78872 110.403 3.78871 111.16 3.70452 112.002C3.70452 112.339 3.62034 112.591 3.62034 112.928C3.45196 114.78 3.36777 116.717 3.19939 118.653C2.77845 123.873 2.35751 129.682 1.85238 135.575C1.85238 135.659 1.85238 135.743 1.85238 135.827C1.76819 137.343 1.59981 138.858 1.51562 140.374C1.85238 142.142 1.76819 143.489 1.59981 144.836Z" fill="#D3766A"/>
<path d="M0 144.836H37.2955C37.2955 144.33 37.3797 143.741 37.3797 143.236C37.3797 142.563 37.4639 141.805 37.4639 141.131C37.548 139.953 37.548 138.69 37.6322 137.68C37.6322 137.595 37.6322 137.427 37.6322 137.343C37.6322 136.585 37.7164 135.912 37.7164 135.238V135.154C37.7164 134.817 37.7164 134.48 37.8006 134.144C37.8006 134.059 37.8006 134.06 37.8006 133.975C37.8006 133.47 37.8006 133.049 37.8848 132.712C37.8848 132.544 37.8848 132.376 37.8848 132.207C37.8848 132.123 37.8848 132.123 37.8848 132.039C37.8848 131.955 37.8848 131.955 37.8848 131.871C37.8848 131.702 37.8848 131.702 37.8848 131.702C37.969 131.618 38.0532 131.618 38.2216 131.534L38.6425 131.281L39.0634 131.029L40.663 130.103C41.1681 129.85 41.6733 129.598 42.1784 129.345C42.8519 129.008 43.4412 128.756 43.9464 128.419L44.7041 128.082L45.0408 127.914H45.125L45.5459 127.745L46.3878 127.409L46.8088 127.24C47.2297 127.072 47.5665 126.903 47.819 126.819C47.9032 126.819 47.9032 126.819 47.9874 126.735L48.0716 126.651C48.0716 126.651 48.1558 126.651 48.1558 126.567H48.24C48.3242 126.483 48.3242 126.314 48.3242 126.23C48.4084 126.146 48.4084 125.977 48.4925 125.809C48.6609 125.472 48.7451 125.051 48.8293 124.63C48.9135 124.209 49.0819 123.704 49.2502 123.283C49.3344 122.947 49.4186 122.61 49.5028 122.357C49.587 122.021 49.6712 121.768 49.7554 121.431C50.1763 120.084 50.5131 118.653 50.7656 117.306C50.8498 117.053 50.934 116.717 50.934 116.464C51.0182 116.212 51.1024 115.791 51.1866 115.454C51.3549 114.78 51.4391 114.191 51.6075 113.518C52.0285 111.497 52.3652 109.561 52.6178 107.709L52.7861 106.446C52.8703 106.109 52.8703 105.772 52.9545 105.351C53.0387 104.509 53.2071 103.752 53.2913 102.91C53.2913 102.741 53.3755 102.573 53.3755 102.32C53.4597 101.731 53.5438 101.226 53.5438 100.637C53.5438 100.384 53.628 100.132 53.628 99.879C53.628 99.6264 53.7122 99.458 53.7122 99.2055C53.7122 98.9529 53.7122 98.8687 53.7964 98.7004V98.6162C53.7964 98.3636 53.8806 98.1111 53.8806 97.8585C53.9648 97.1008 54.049 96.4273 54.049 95.8379C54.049 95.5012 54.1332 95.1645 54.1332 94.8277C54.2174 94.2384 54.2174 93.7332 54.2174 93.3965C54.2174 93.1439 54.2174 92.9756 54.2174 92.8072C54.2174 92.6388 54.2174 92.6388 54.2174 92.6388H5.72482C5.72482 92.6388 -2.8624 105.688 1.43121 122.862C1.34702 123.115 0.505131 136.754 0 144.836Z" fill="#37474F"/>
<path d="M33.2549 133.723C34.8545 132.544 36.6224 131.618 38.3904 130.692C40.1583 129.682 41.9263 128.756 43.7784 127.83C47.3985 126.23 51.187 124.883 54.9755 123.789C55.0597 123.789 55.1439 123.873 55.0597 123.957C51.4396 125.557 47.8195 127.324 44.1994 128.924C42.3472 129.766 40.4951 130.524 38.7271 131.366C36.875 132.123 35.107 132.965 33.2549 133.723C33.2549 133.807 33.2549 133.807 33.2549 133.723Z" fill="#263238"/>
<path d="M43.2734 115.791C43.3576 114.023 43.4417 112.171 43.5259 110.403C43.6943 106.193 43.8627 101.9 44.2836 97.6902C44.2836 97.606 44.3678 97.606 44.452 97.606C44.5362 97.606 44.5362 97.6902 44.5362 97.6902C44.6204 100.973 44.452 104.257 44.3678 107.54C44.3678 109.14 44.2836 110.824 44.2836 112.423C44.1994 114.023 44.1994 115.538 44.2836 117.138C44.3678 118.316 44.6204 120.589 46.1358 120.758C47.567 120.926 48.4089 119.327 48.7456 118.148C49.6717 115.201 50.0084 112.086 50.261 109.056C50.4294 107.288 50.5978 105.52 50.7661 103.668C50.9345 101.815 51.0187 99.9632 50.9345 98.1111C50.9345 98.0269 51.1029 98.0269 51.1029 98.1111C51.1871 99.9632 52.1131 120.253 46.9777 121.768C46.8093 121.768 46.6409 121.852 46.4725 121.852C46.4725 122.273 46.3883 122.61 46.3883 123.031C46.3883 123.62 46.3042 124.21 46.22 124.799C46.1358 125.388 46.0516 125.977 45.8832 126.483C45.799 127.072 45.5465 127.577 45.2939 128.082C45.2097 128.166 45.1255 128.082 45.1255 127.998C45.1255 127.409 45.1255 126.904 45.2939 126.314C45.3781 125.725 45.4623 125.136 45.5465 124.63C45.6306 124.041 45.799 123.536 45.8832 122.947C45.9674 122.61 46.0516 122.189 46.0516 121.768C45.1255 121.6 44.3678 121.01 44.0311 120.168C43.2734 118.906 43.1892 117.306 43.2734 115.791Z" fill="#263238"/>
<path d="M8.9236 110.655C11.0283 110.823 13.133 111.076 15.2377 110.824C17.2583 110.655 19.1104 109.897 20.71 108.635C24.1617 105.941 25.7613 101.479 26.6874 97.3534C26.6874 97.3534 26.6874 97.2692 26.7715 97.2692C26.8557 97.2692 26.8557 97.2692 26.8557 97.3534C26.4348 100.973 25.6771 104.678 23.3198 107.54C22.3096 108.803 21.0467 109.897 19.6155 110.571C18.1001 111.244 16.4164 111.665 14.7326 111.581C12.7121 111.581 10.7757 111.329 8.8394 110.824C8.8394 110.824 8.75522 110.739 8.9236 110.655C8.83941 110.655 8.83941 110.655 8.9236 110.655Z" fill="#263238"/>
<path d="M37.2108 144.836C37.2108 144.92 37.2108 145.004 37.2108 145.088C37.2108 145.004 37.2108 144.92 37.2108 144.836H37.3792C37.5475 142.057 37.9685 133.554 38.0527 131.618V131.366C38.0527 131.281 37.7159 131.366 37.7159 131.45C37.7159 131.534 37.7159 131.618 37.7159 131.702C37.5475 133.554 37.0424 140.121 36.9582 142.31C36.9582 143.152 36.874 143.994 36.874 144.836H37.2108Z" fill="#263238"/>
<path d="M28.3716 2.64143C20.4579 9.3765 22.731 19.2266 19.3635 24.6146C17.343 27.898 10.7763 31.3497 9.51344 35.1382C7.40873 41.2839 12.6284 43.557 11.4498 46.9245C9.76601 51.7233 3.45188 51.3023 2.27324 59.1319C1.0946 66.9614 9.68181 75.2118 30.0554 77.4849C50.429 79.758 61.5419 72.2653 62.2996 65.6986C63.0573 59.0477 56.238 56.943 55.8171 51.9758C55.4803 48.8609 59.6897 46.5878 59.9423 40.863C60.1949 35.054 54.4701 33.2018 53.7124 28.2347C52.9547 23.2676 55.4803 11.3128 48.2401 5.16708C40.9999 -1.14705 32.3285 -0.726112 28.3716 2.64143Z" fill="#263238"/>
<path d="M29.2977 2.8097C27.1088 4.40928 25.3408 6.42982 24.078 8.87128C22.8152 11.3969 21.8049 14.091 21.1314 16.8692C20.7947 18.553 20.2895 20.1525 19.5318 21.6679C18.8583 22.9308 17.9322 24.1094 16.8378 25.0355C14.6489 27.056 12.0391 28.5714 10.0185 30.7603C8.1664 32.865 6.651 35.7274 7.4087 38.5898C7.82964 40.1894 8.8399 41.4522 9.51341 42.8834C10.1027 44.2304 10.3553 45.9984 9.17666 47.177C8.1664 48.1873 6.651 48.6082 5.55655 49.4501C4.37792 50.2078 3.45184 51.2181 2.60996 52.3125C0.92619 54.5014 0.252678 57.3638 0.757809 60.142C1.93645 66.4562 7.91383 70.0763 13.3861 72.3494C14.1438 72.6861 14.9015 72.9387 15.6592 73.2754C15.7434 73.3596 15.9117 73.1912 15.7433 73.107C10.2711 70.6656 3.87278 67.719 1.76807 61.5732C0.842001 58.8792 1.17875 55.8484 2.69415 53.407C3.45184 52.2283 4.4621 51.2181 5.55655 50.3762C6.651 49.5343 7.99802 49.0292 9.09246 48.2715C10.2711 47.5138 10.8604 46.2509 10.8604 44.9039C10.7762 43.3885 10.1027 42.1257 9.34503 40.8629C8.58734 39.5159 7.91383 38.1688 8.08221 36.5693C8.25058 35.0539 8.8399 33.7069 9.68178 32.5282C11.3656 30.0868 13.8912 28.4872 16.1643 26.7192C18.4374 24.8671 20.2895 22.7624 21.1314 19.9C21.5524 18.4688 21.8049 16.9534 22.1417 15.5222C22.4784 14.1751 22.8994 12.8281 23.3203 11.4811C24.2464 8.87129 25.6776 6.42983 27.6139 4.4093C28.2032 3.7358 28.7926 3.31483 29.2977 2.8097C29.4661 2.89389 29.3819 2.72552 29.2977 2.8097Z" fill="#263238"/>
<path d="M63.2253 60.6472C62.9728 59.5528 62.4676 58.5425 61.7941 57.7006C61.1206 56.7746 60.1945 56.0169 59.4369 55.2592C58.595 54.5015 58.0898 53.5754 57.7531 52.4809C57.5005 51.2181 58.0056 49.9553 58.6791 48.8609C59.3527 47.6822 59.942 46.5036 60.5313 45.3249C60.9522 44.1463 61.2048 42.7993 61.289 41.5364C61.3732 38.8424 60.6997 36.2326 59.2685 33.9595C58.595 32.865 57.7531 31.7706 57.0796 30.592C56.3219 29.3291 55.7326 28.0663 55.3116 26.6351C54.3855 23.6043 54.2172 20.321 53.4595 17.206C52.7018 14.0068 51.5231 10.8919 50.1761 7.94527C50.1761 7.86108 50.0077 7.94528 50.0919 8.02946C51.3548 10.7235 52.2808 13.5017 52.9543 16.3641C53.6279 19.0581 53.8804 21.8364 54.3014 24.6146C54.5539 25.9616 54.8907 27.3086 55.3116 28.5714C55.8167 29.7501 56.4061 30.9287 57.0796 31.939C58.4266 34.2121 59.8578 36.401 60.2787 39.0108C60.6997 41.6206 60.1945 44.3147 58.9317 46.5878C57.8373 48.6083 56.4061 50.8814 57.3321 53.2387C58.0898 55.2592 60.0262 56.4378 61.289 58.1216C62.636 59.9737 63.1411 62.331 62.636 64.5199C61.5416 70.2447 55.8167 73.0229 50.5129 73.2755C50.4287 73.2755 50.4287 73.3597 50.4287 73.4439C50.4287 73.5281 50.5129 73.5281 50.5129 73.5281C55.1432 73.4439 60.1945 71.4234 62.3834 67.0456C63.3937 65.1934 63.7305 62.9203 63.2253 60.6472Z" fill="#263238"/>
<path d="M38.3901 46.5037C44.5358 57.6165 61.7945 77.7376 71.0552 78.832C79.895 79.9265 99.3425 57.4482 101.363 51.7233C102.205 49.2819 83.0941 40.2737 83.0941 40.2737C80.1475 43.978 67.856 56.5221 66.5932 56.017C64.1517 55.0909 48.4927 43.0519 42.5995 40.5263C33.0862 36.4011 35.4435 41.1998 38.3901 46.5037Z" fill="#D3766A"/>
<path d="M47.3986 63.1729L53.6285 46.251C53.6285 46.251 46.1358 41.1997 41.5896 38.9267C35.528 35.9801 33.0865 37.4954 36.2015 45.0724C38.3904 50.2079 47.3986 63.1729 47.3986 63.1729Z" fill="#FFC727"/>
<path d="M41.3364 39.6843C41.3364 39.9369 41.0839 40.1895 40.8313 40.1895C40.5787 40.1895 40.3262 39.9369 40.3262 39.6843C40.3262 39.4318 40.5787 39.1792 40.8313 39.1792C41.0839 39.2634 41.3364 39.4318 41.3364 39.6843ZM45.9668 47.5138C45.7142 47.5138 45.4617 47.7664 45.4617 48.019C45.4617 48.2716 45.7142 48.5241 45.9668 48.5241C46.2194 48.5241 46.4719 48.2716 46.4719 48.019C46.3877 47.7664 46.2194 47.5138 45.9668 47.5138Z" fill="white"/>
<path d="M46.4727 60.8157C47.2304 58.29 47.9881 55.7643 48.9141 53.3229C49.3351 52.06 49.8402 50.8814 50.2611 49.6186C50.7663 48.4399 51.3556 47.1771 51.7765 45.9985C51.7765 45.9143 51.9449 45.9985 51.8607 46.0827C51.3556 47.2613 50.9346 48.5241 50.5137 49.787C50.0928 51.0498 49.5876 52.2284 49.1667 53.4913C48.2406 55.9327 47.3987 58.4584 46.5568 60.8998C46.5568 60.984 46.4727 60.8999 46.4727 60.8157Z" fill="#263238"/>
<path opacity="0.1" d="M36.285 45.0724C38.3897 50.1237 47.4821 63.0887 47.4821 63.0887L52.1966 50.2921L35.6115 37.9164C34.4329 38.8425 34.6012 41.1155 36.285 45.0724Z" fill="black"/>
<path d="M55.3958 92.8914L52.7018 74.2858C52.7018 74.2858 58.3424 67.2981 55.1432 60.4789C53.5436 57.0271 44.788 44.0621 39.3158 39.095C32.9175 33.3702 25.8456 37.3271 22.9832 40.6104C17.1742 47.0929 10.4392 63.0045 5.72461 92.8914H55.3958Z" fill="#D3766A"/>
<path d="M56.0693 87.7559L52.7018 74.2858C52.7018 74.2858 58.3424 67.2981 55.1432 60.4789C53.5436 57.0271 44.788 44.0621 39.3158 39.095C32.9175 33.3702 25.1721 37.0745 22.2255 40.2736C17.0059 45.9984 10.4392 57.869 5.72461 87.6717H56.0693V87.7559Z" fill="#FFC727"/>
<path d="M31.1495 39.6843C31.1495 39.9369 30.8969 40.1895 30.6444 40.1895C30.3918 40.1895 30.1392 39.9369 30.1392 39.6843C30.1392 39.4318 30.3918 39.1792 30.6444 39.1792C30.8969 39.1792 31.1495 39.4318 31.1495 39.6843ZM20.4576 56.2694C20.205 56.2694 19.9524 56.522 19.9524 56.7746C19.9524 57.0271 20.205 57.2797 20.4576 57.2797C20.7101 57.2797 20.9627 57.0271 20.9627 56.7746C20.8785 56.522 20.7101 56.2694 20.4576 56.2694ZM30.6444 56.2694C30.3918 56.2694 30.1392 56.522 30.1392 56.7746C30.1392 57.0271 30.3918 57.2797 30.6444 57.2797C30.8969 57.2797 31.1495 57.0271 31.1495 56.7746C31.1495 56.522 30.8969 56.2694 30.6444 56.2694ZM40.8312 56.2694C40.5786 56.2694 40.326 56.522 40.326 56.7746C40.326 57.0271 40.5786 57.2797 40.8312 57.2797C41.0837 57.2797 41.3363 57.0271 41.3363 56.7746C41.3363 56.522 41.0837 56.2694 40.8312 56.2694ZM51.018 56.2694C50.7654 56.2694 50.5128 56.522 50.5128 56.7746C50.5128 57.0271 50.7654 57.2797 51.018 57.2797C51.2705 57.2797 51.5231 57.0271 51.5231 56.7746C51.5231 56.522 51.2705 56.2694 51.018 56.2694ZM25.5089 47.5138C25.2563 47.5138 25.0037 47.7664 25.0037 48.019C25.0037 48.2716 25.2563 48.5241 25.5089 48.5241C25.7614 48.5241 26.014 48.2716 26.014 48.019C26.014 47.7664 25.7614 47.5138 25.5089 47.5138ZM35.6957 47.5138C35.4431 47.5138 35.1905 47.7664 35.1905 48.019C35.1905 48.2716 35.4431 48.5241 35.6957 48.5241C35.9482 48.5241 36.2008 48.2716 36.2008 48.019C36.2008 47.7664 36.0324 47.5138 35.6957 47.5138ZM45.9667 47.5138C45.7141 47.5138 45.4615 47.7664 45.4615 48.019C45.4615 48.2716 45.7141 48.5241 45.9667 48.5241C46.2192 48.5241 46.4718 48.2716 46.4718 48.019C46.4718 47.7664 46.2192 47.5138 45.9667 47.5138ZM10.2707 73.3597C10.0182 73.3597 9.76562 73.6123 9.76562 73.8648C9.76562 74.1174 10.0182 74.37 10.2707 74.37C10.5233 74.37 10.7759 74.1174 10.7759 73.8648C10.7759 73.6123 10.5233 73.3597 10.2707 73.3597ZM20.4576 73.3597C20.205 73.3597 19.9524 73.6123 19.9524 73.8648C19.9524 74.1174 20.205 74.37 20.4576 74.37C20.7101 74.37 20.9627 74.1174 20.9627 73.8648C20.9627 73.5281 20.7101 73.3597 20.4576 73.3597ZM30.6444 73.3597C30.3918 73.3597 30.1392 73.6123 30.1392 73.8648C30.1392 74.1174 30.3918 74.37 30.6444 74.37C30.8969 74.37 31.1495 74.1174 31.1495 73.8648C31.1495 73.5281 30.8969 73.3597 30.6444 73.3597ZM40.8312 73.3597C40.5786 73.3597 40.326 73.6123 40.326 73.8648C40.326 74.1174 40.5786 74.37 40.8312 74.37C41.0837 74.37 41.3363 74.1174 41.3363 73.8648C41.3363 73.5281 41.0837 73.3597 40.8312 73.3597ZM51.018 73.3597C50.7654 73.3597 50.5128 73.6123 50.5128 73.8648C50.5128 74.1174 50.7654 74.37 51.018 74.37C51.2705 74.37 51.5231 74.1174 51.5231 73.8648C51.5231 73.6123 51.2705 73.3597 51.018 73.3597ZM15.3221 64.6041C15.0695 64.6041 14.8169 64.8567 14.8169 65.1092C14.8169 65.3618 15.0695 65.6144 15.3221 65.6144C15.5746 65.6144 15.8272 65.3618 15.8272 65.1092C15.8272 64.7725 15.6588 64.6041 15.3221 64.6041ZM25.5931 64.6041C25.3405 64.6041 25.0879 64.8567 25.0879 65.1092C25.0879 65.3618 25.3405 65.6144 25.5931 65.6144C25.8456 65.6144 26.0982 65.3618 26.0982 65.1092C26.014 64.7725 25.8456 64.6041 25.5931 64.6041C25.5089 64.6041 25.5089 64.6041 25.5931 64.6041ZM35.7798 64.6041C35.5273 64.6041 35.2747 64.8567 35.2747 65.1092C35.2747 65.3618 35.5273 65.6144 35.7798 65.6144C36.0324 65.6144 36.285 65.3618 36.285 65.1092C36.2008 64.7725 36.0324 64.6041 35.7798 64.6041ZM45.9667 64.6041C45.7141 64.6041 45.4615 64.8567 45.4615 65.1092C45.4615 65.3618 45.7141 65.6144 45.9667 65.6144C46.2192 65.6144 46.4718 65.3618 46.4718 65.1092C46.3876 64.7725 46.2192 64.6041 45.9667 64.6041ZM56.0693 64.6041C55.8167 64.6041 55.6483 64.8567 55.6483 65.1092C55.6483 65.3618 55.8167 65.5302 56.0693 65.6144V64.6041ZM15.3221 81.6102C15.0695 81.6102 14.8169 81.8627 14.8169 82.1153C14.8169 82.3679 15.0695 82.6204 15.3221 82.6204C15.5746 82.6204 15.8272 82.3679 15.8272 82.1153C15.8272 81.8627 15.5746 81.6102 15.3221 81.6102ZM25.5089 81.6102C25.2563 81.6102 25.0037 81.8627 25.0037 82.1153C25.0037 82.3679 25.2563 82.6204 25.5089 82.6204C25.7614 82.6204 26.014 82.3679 26.014 82.1153C26.014 81.8627 25.7614 81.6102 25.5089 81.6102ZM35.6957 81.6102C35.4431 81.6102 35.1905 81.8627 35.1905 82.1153C35.1905 82.3679 35.4431 82.6204 35.6957 82.6204C35.9482 82.6204 36.2008 82.3679 36.2008 82.1153C36.2008 81.8627 36.0324 81.6102 35.6957 81.6102ZM45.9667 81.6102C45.7141 81.6102 45.4615 81.8627 45.4615 82.1153C45.4615 82.3679 45.7141 82.6204 45.9667 82.6204C46.2192 82.6204 46.4718 82.3679 46.4718 82.1153C46.4718 81.8627 46.2192 81.6102 45.9667 81.6102Z" fill="white"/>
<path d="M35.8645 72.4336C38.2217 72.4336 40.579 72.6861 42.8521 73.1071C44.0307 73.2755 45.1252 73.6122 46.3038 73.8648C46.8931 74.0332 47.3983 74.1174 47.9876 74.2857C48.5769 74.4541 49.1662 74.5383 49.7556 74.5383H49.8397V74.6225C49.2504 74.7067 48.6611 74.7067 48.156 74.7067C47.5667 74.7067 47.0615 74.6225 46.4722 74.5383C45.2936 74.3699 44.1149 74.1174 42.9363 73.8648C40.579 73.4439 38.2217 73.0229 35.8645 72.7703C35.7803 72.7703 35.7803 72.6862 35.7803 72.602C35.7803 72.4336 35.8645 72.4336 35.8645 72.4336Z" fill="#263238"/>
<path d="M30.2238 74.9593C32.1602 74.6225 34.0123 74.37 35.9486 74.2858C36.8747 74.2016 37.885 74.2016 38.8111 74.2858C39.3162 74.2858 39.7371 74.2858 40.1581 74.37C40.579 74.4542 41.1683 74.4542 41.6735 74.5384C41.7577 74.5384 41.7577 74.6225 41.6735 74.6225C41.1683 74.6225 40.7474 74.7067 40.2423 74.7067L38.8111 74.7909C37.885 74.8751 36.8747 74.8751 35.9486 74.9593C34.0123 75.0435 32.076 75.1277 30.1396 75.296C30.1396 75.0435 30.1397 74.9593 30.2238 74.9593Z" fill="#263238"/>
<path d="M29.2979 39.0949C29.4663 40.021 34.0966 45.9984 38.3902 45.3249C41.421 44.8198 39.8214 38.7582 39.8214 38.7582L42.1787 30.3394L31.8235 22.9308C31.8235 22.9308 29.2137 38.674 29.2979 39.0949Z" fill="#D3766A"/>
<path d="M30.8975 28.4872C32.4129 32.865 35.6962 36.4009 39.9056 38.3373L42.0945 30.3394L31.7393 22.9308L30.8975 28.4872Z" fill="#263238"/>
<path d="M54.0492 18.0479C55.312 32.36 46.809 34.7172 43.7782 34.9698C41 35.2224 31.4025 35.6433 28.7085 21.4997C26.0144 7.356 32.2444 2.3047 38.6427 1.37863C44.9569 0.536746 52.7864 3.7359 54.0492 18.0479Z" fill="#D3766A"/>
<path d="M51.2711 15.1855C50.9343 15.1013 50.5976 15.0171 50.345 14.8487C50.0083 14.7645 49.6715 14.5962 49.4189 14.3436C49.2505 14.1752 49.3347 13.9226 49.5031 13.7543C49.8399 13.5017 50.345 13.4175 50.7659 13.5859C51.1869 13.6701 51.6078 14.0068 51.8604 14.3436C52.0288 14.5962 51.9446 14.9329 51.6078 15.1013C51.4395 15.1855 51.3553 15.2697 51.2711 15.1855Z" fill="#263238"/>
<path d="M41.589 15.1013C41.9258 15.0171 42.2625 14.9329 42.5151 14.8487C42.8519 14.8487 43.1886 14.6803 43.4412 14.4278C43.6096 14.2594 43.6096 14.0068 43.4412 13.8385C43.1044 13.5017 42.5993 13.4175 42.1784 13.5859C41.7574 13.6701 41.3365 13.9226 40.9997 14.2594C40.8313 14.512 40.9155 14.8487 41.1681 15.0171C41.3365 15.1013 41.5048 15.1013 41.589 15.1013Z" fill="#263238"/>
<path d="M43.9456 19.5632L43.8614 19.6474C43.9456 20.5735 43.8614 21.7521 43.0195 22.0889V22.1731C44.0298 22.0047 44.114 20.4893 43.9456 19.5632Z" fill="#263238"/>
<path d="M43.02 18.553C41.4204 18.4688 41.4204 21.668 42.9358 21.7522C44.4512 21.8364 44.367 18.6372 43.02 18.553Z" fill="#263238"/>
<path d="M42.4313 18.7214C42.1787 18.8898 41.9261 19.2265 41.5894 19.2265C41.2526 19.3107 40.9159 18.974 40.6633 18.6372H40.5791C40.5791 19.2265 40.8317 19.9 41.421 19.9842C42.0103 20.0684 42.4313 19.4791 42.5996 18.8898C42.5996 18.8056 42.5154 18.6372 42.4313 18.7214Z" fill="#263238"/>
<path d="M49.3344 19.3949L49.4186 19.4791C49.4186 20.4052 49.5028 21.5838 50.4288 21.9206C49.3344 21.8364 49.166 20.321 49.3344 19.3949Z" fill="#263238"/>
<path d="M50.2604 18.3846C51.86 18.3004 51.9442 21.4154 50.513 21.4996C48.9976 21.668 48.9134 18.4688 50.2604 18.3846Z" fill="#263238"/>
<path d="M50.8495 18.4688C51.1021 18.6372 51.4388 18.9739 51.7756 18.9739C52.1124 18.9739 52.4491 18.6372 52.7017 18.3004H52.7859C52.7859 18.8897 52.6175 19.5632 51.944 19.6474C51.2705 19.7316 50.9337 19.2265 50.7653 18.6372C50.6812 18.6372 50.7653 18.4688 50.8495 18.4688Z" fill="#263238"/>
<path d="M42.767 27.2244C42.9354 27.477 43.0196 27.898 43.3563 27.9821C43.6931 28.0663 44.114 28.0663 44.4508 28.0663C44.0298 28.3189 43.5247 28.4031 43.1038 28.2347C42.767 27.9821 42.5986 27.5612 42.5986 27.1403C42.6828 27.1403 42.767 27.1402 42.767 27.2244Z" fill="#263238"/>
<path d="M47.7344 23.6043C47.7344 23.6043 47.987 25.0356 47.987 25.7933C47.987 25.8774 47.8186 25.8774 47.5661 25.8774C46.3874 26.13 45.1246 25.6249 44.3669 24.6988C44.2827 24.6146 44.3669 24.5304 44.4511 24.6146C45.3772 25.2039 46.3874 25.4565 47.4819 25.4565C47.5661 25.2881 46.9767 22.9309 47.1451 22.9309C47.6503 22.9309 48.2396 23.0992 48.7447 23.2676C48.3238 20.2368 47.4819 17.206 47.1451 14.1752C47.1451 14.091 47.1451 14.0911 47.2293 14.0911C47.2293 14.0911 47.3135 14.091 47.3135 14.1752C48.4079 17.206 48.9131 20.7419 49.4182 23.8569C49.4182 24.2778 47.987 23.6885 47.7344 23.6043Z" fill="#263238"/>
<path d="M29.2974 20.0684C30.8128 20.0684 35.0222 16.0273 35.5273 8.70296C35.5273 8.70296 34.6012 15.2697 34.0961 16.1957C33.591 17.1218 36.4534 13.9226 36.9585 8.02946C36.9585 8.02946 40.1577 10.5551 42.9359 11.4812C45.7141 12.4073 47.3979 12.4915 47.6504 12.3231C47.903 12.1547 43.7778 10.6393 42.7675 9.29228C42.7675 9.29228 50.0919 13.165 53.4594 13.5859C53.8804 13.6701 54.7223 5.50381 49.5868 1.71533C44.4513 -2.07315 35.7799 1.29438 33.4226 3.39909C33.4226 3.39909 30.7286 3.65165 27.6978 7.44013C24.5828 11.2286 27.6978 20.0684 29.2974 20.0684Z" fill="#263238"/>
<path d="M48.7446 19.9843C48.5762 17.5428 49.839 15.5223 51.4386 15.4381C53.0382 15.3539 54.4694 17.206 54.5536 19.6475C54.6378 22.0889 53.4591 24.1095 51.8595 24.1937C50.3442 24.2779 48.913 22.3415 48.7446 19.9843ZM49.3339 19.9001C49.4181 22.0048 50.5967 23.6044 51.8595 23.6044C53.1224 23.6044 54.0484 21.7522 53.9643 19.7317C53.8801 17.627 52.7014 16.0274 51.4386 16.0274C50.1758 16.1116 49.2497 17.8795 49.3339 19.9001Z" fill="#FFC727"/>
<path d="M37.8009 20.5736C37.7167 18.1321 39.4004 16.1116 41.6735 15.9432C43.9466 15.859 45.883 17.7111 45.9671 20.0684C46.1355 22.5099 44.3676 24.5304 42.0945 24.6146C39.8214 24.783 37.8851 22.9308 37.8009 20.5736ZM38.3902 20.4894C38.4744 22.5941 40.1581 24.1937 42.0945 24.1095C44.0308 24.0253 45.5462 22.2573 45.3778 20.1526C45.2936 18.0479 43.6099 16.4483 41.6735 16.5325C39.7372 16.6167 38.2218 18.3846 38.3902 20.4894Z" fill="#FFC727"/>
<path d="M45.7145 19.7317C47.9034 18.8056 48.9136 19.4791 48.9136 19.4791L49.2504 18.974C49.1662 18.974 47.9876 18.1321 45.4619 19.1424L45.7145 19.7317Z" fill="#FFC727"/>
<path d="M38.053 19.9842V19.3949C37.6321 19.3949 28.5397 19.5633 27.6136 19.7316C26.6876 19.9 24.4987 21.668 24.2461 21.8364L24.667 22.2573C25.2564 21.7522 26.9401 20.4052 27.6136 20.2368H27.6978C28.4555 20.1526 34.8538 19.9842 38.053 19.9842Z" fill="#FFC727"/>
<path d="M31.0651 21.4996C31.0651 21.4996 27.9501 17.0376 25.9296 18.132C23.909 19.2265 26.2663 25.7932 28.6236 26.6351C29.8864 27.2244 31.3176 26.6351 31.8228 25.4564C31.8228 25.4564 31.8228 25.3723 31.907 25.3723L31.0651 21.4996Z" fill="#D3766A"/>
<path d="M26.6035 19.9C26.6035 19.9 26.6035 19.9842 26.6035 19.9C26.6035 19.9842 26.6035 19.9842 26.6035 19.9C28.2873 20.6577 29.1292 22.1731 29.8027 23.7727C29.2975 23.1834 28.624 22.8466 27.7821 23.4359V23.5201C27.7821 23.5201 27.7822 23.5201 27.8663 23.5201C28.4557 23.3517 29.1292 23.5201 29.5501 24.0253C29.8869 24.4462 30.1394 24.8671 30.3078 25.3723C30.392 25.5406 30.6446 25.4565 30.5604 25.2881C30.5604 23.1834 28.8766 20.1526 26.6035 19.9Z" fill="#263238"/>
<path d="M69.9608 39.0107C57.1641 56.8587 57.1641 79.8421 69.9608 97.6901L109.698 68.3925L69.9608 39.0107Z" fill="#FFC727"/>
<path opacity="0.1" d="M98.5005 60.0579L98.0796 59.7211C98.5847 63.678 98.3321 68.3084 95.5539 71.2549C94.0385 72.8545 91.5971 72.602 89.8291 72.0968C88.0612 71.5075 86.3774 70.7498 84.7778 69.6554C85.1146 68.0558 85.1988 66.372 85.0304 64.6882C84.6936 60.2262 82.9257 55.5959 80.4842 52.6493C78.2111 49.8711 75.6855 49.1976 73.7491 50.713C72.4021 51.7232 71.897 53.3228 72.3179 55.3433C73.244 59.9737 78.6321 66.2036 84.3569 69.9079C83.8517 72.8545 82.3363 75.5486 80.1474 77.5691C79.053 78.5793 77.8744 79.337 76.6115 80.0105C75.4329 78.5793 74.0017 77.2323 72.3179 76.2221C68.3611 73.7806 64.6568 73.6122 62.973 75.7169C62.1311 76.8114 62.3837 78.2426 63.7307 79.5054C66.088 81.6943 71.3077 82.9571 76.5274 80.4315C79.2214 83.799 79.7265 87.6717 78.9688 90.8708L79.5581 90.4499C80.0633 88.0084 79.8107 85.4828 78.7162 83.2097C78.2111 82.1994 77.6218 81.1892 76.9483 80.2631C78.2111 79.5896 79.3898 78.7477 80.4842 77.8216C82.6731 75.8011 84.2727 73.0229 84.862 70.0763C86.3774 71.0866 88.0612 71.8443 89.8291 72.4336C92.5231 73.1913 94.6279 72.8545 95.9749 71.4233C98.5847 68.6451 99.0057 64.2673 98.5005 60.0579ZM63.9833 79.337C62.8046 78.2426 62.5521 77.0639 63.2256 76.1379C64.741 74.1173 68.2769 74.3699 72.0654 76.7272C73.6649 77.6533 75.012 78.9161 76.1906 80.2631C71.2235 82.6204 66.2564 81.4418 63.9833 79.337ZM84.4411 69.487C78.8846 65.8669 73.5808 59.7211 72.7389 55.3433C72.4021 53.4912 72.8231 52.06 74.0017 51.1339C75.7697 49.7869 78.0427 50.4604 80.2316 53.0702C83.3466 56.7745 85.4513 63.5096 84.4411 69.487Z" fill="black"/>
<path d="M109.697 68.3083H114.327L74.5903 39.0107H69.96L109.697 68.3083Z" fill="#FFC727"/>
<g opacity="0.1">
<path opacity="0.1" d="M109.697 68.3083H114.327L74.5903 39.0107H69.96L109.697 68.3083Z" fill="black"/>
</g>
<path d="M69.96 97.6059H74.5903L114.327 68.3083H109.697L69.96 97.6059Z" fill="#FFC727"/>
<g opacity="0.2">
<path opacity="0.2" d="M69.96 97.6059H74.5903L114.327 68.3083H109.697L69.96 97.6059Z" fill="black"/>
</g>
<path d="M21.3 47.7664C20.8791 66.372 24.4992 86.7456 28.5402 89.7764C33.0022 93.0598 41.4211 96.3431 54.6386 99.4581C57.5852 100.132 61.6263 78.4952 58.5113 77.7375C51.3553 75.9695 40.6634 73.5281 38.9796 71.7601C36.9591 69.7396 35.1069 60.3947 29.8872 48.4399C25.9304 39.2634 21.5526 38.3373 21.3 47.7664Z" fill="#D3766A"/>
<path d="M55.1436 79.4212C55.1436 79.4212 62.3838 75.5485 66.8458 74.7066C72.739 73.528 78.3796 74.9592 80.6527 75.7169C85.4514 77.2323 96.0592 84.3883 94.5438 87.7559C93.1968 90.8708 82.7574 83.0413 82.7574 83.0413C82.7574 83.0413 94.7121 89.2712 92.3549 92.6388C89.9976 96.0063 78.3796 86.3246 78.3796 86.3246C78.3796 86.3246 90.5027 92.9755 87.5561 96.0905C85.283 98.4478 74.3385 90.1973 74.3385 90.1973C74.3385 90.1973 84.7779 95.9221 82.589 98.532C80.1475 101.31 69.5398 94.4067 69.5398 94.4067C62.8889 99.879 57.4167 99.7948 53.6282 99.2896C52.6179 99.1213 55.1436 79.4212 55.1436 79.4212Z" fill="#D3766A"/>
<path d="M78.7158 80.5999C80.147 81.2734 81.5782 81.9468 83.0094 82.7887C84.3565 83.6306 85.7035 84.4725 86.9663 85.3986C88.6501 86.5772 90.2496 87.9242 91.5967 89.4396C88.9026 86.914 84.1039 83.9674 82.6727 83.1255C81.4098 82.3678 80.0628 81.5259 78.7158 80.5999C78.7158 80.684 78.7158 80.5999 78.7158 80.5999Z" fill="#263238"/>
<path d="M75.7689 85.4828C77.5368 86.4089 79.389 87.3349 81.1569 88.3452C82.9249 89.3555 84.4403 90.4499 86.124 91.6285C86.2924 91.7127 86.124 91.7969 86.0398 91.7127C84.3561 90.6183 82.6723 89.7764 80.9044 88.7661C79.1364 87.6717 77.4526 86.5772 75.7689 85.4828C75.6847 85.567 75.7689 85.4828 75.7689 85.4828Z" fill="#263238"/>
<path d="M72.4863 89.2714C75.2645 90.5342 77.8743 92.3863 80.3158 94.2385C80.4 94.3227 80.3158 94.4069 80.1474 94.3227C77.5375 92.6389 75.517 91.2919 72.4021 89.4397C72.3179 89.3556 72.4021 89.1872 72.4863 89.2714Z" fill="#263238"/>
<path d="M26.8564 87.335C27.2774 87.9243 27.6983 88.5136 28.2035 89.1029C28.7086 89.608 29.2979 90.029 29.9714 90.3657C31.2342 91.1234 32.4971 91.8811 33.7599 92.8072C32.3287 92.3021 30.9817 91.6286 29.7188 90.8709C29.0453 90.4499 28.456 90.029 27.9509 89.4397C27.4458 88.7662 27.109 88.0927 26.8564 87.335Z" fill="#263238"/>
<path d="M20.2899 67.1298L34.6862 56.2695C34.6862 56.2695 31.1502 47.9348 28.4562 43.557C25.0045 37.8322 22.0579 37.748 20.6267 45.8301C19.7848 51.3023 20.2899 67.1298 20.2899 67.1298Z" fill="#FFC727"/>
<path d="M20.9628 56.7745C20.9628 57.0271 20.7102 57.2797 20.4576 57.2797C20.3735 57.2797 20.2893 57.2797 20.2051 57.1955C20.2051 56.9429 20.2051 56.6903 20.2051 56.4378C20.2893 56.3536 20.3735 56.3536 20.4576 56.3536C20.7102 56.2694 20.9628 56.4378 20.9628 56.7745ZM30.6445 56.2694C30.3919 56.2694 30.1393 56.522 30.1393 56.7745C30.1393 57.0271 30.3919 57.2797 30.6445 57.2797C30.897 57.2797 31.1496 57.0271 31.1496 56.7745C31.1496 56.522 30.897 56.2694 30.6445 56.2694ZM25.509 47.5138C25.2564 47.5138 25.0038 47.7664 25.0038 48.0189C25.0038 48.2715 25.2564 48.5241 25.509 48.5241C25.7615 48.5241 26.0141 48.2715 26.0141 48.0189C26.0141 47.7664 25.8457 47.5138 25.509 47.5138Z" fill="white"/>
<path d="M33.0013 57.6164C33.1696 57.448 34.6008 56.2694 34.685 56.2694C34.2641 55.3433 33.759 54.3331 33.338 53.3228C33.0855 52.8177 32.9171 52.3967 32.7487 51.8074C32.5803 51.2181 32.2436 50.6288 32.0752 50.2079C32.0752 50.1237 32.1594 50.1237 32.1594 50.1237C32.4961 50.713 32.6645 51.2181 33.0013 51.7232C33.2538 52.2284 33.5064 52.6493 33.6748 53.1544C34.1799 54.1647 34.685 55.2591 35.106 56.2694C34.4325 56.7745 33.759 57.1955 33.0013 57.6164Z" fill="#263238"/>
<path d="M20.7947 64.6041C22.8153 62.9203 24.7516 61.1524 26.8563 59.5528C27.8666 58.7109 28.961 57.9532 30.0555 57.1955C31.1499 56.4378 32.2444 55.7643 33.3388 55.0066C33.423 54.9224 33.423 55.0908 33.423 55.0908C32.3286 55.8485 31.3183 56.6904 30.308 57.5323C29.2978 58.3741 28.2033 59.1319 27.1931 59.9737C25.0884 61.5733 22.9837 63.1729 20.9631 64.7725C20.7948 64.7725 20.7106 64.6883 20.7947 64.6041Z" fill="#263238"/>
<path d="M22.0578 65.7827C21.8053 66.0353 21.4685 66.2879 21.216 66.5404C20.9634 66.793 20.6266 67.0455 20.3741 67.2139L20.2057 67.3823V67.1297C20.1215 66.1195 20.0373 65.1092 20.0373 64.099C20.0373 63.0887 19.9531 62.0784 19.9531 61.0682C19.9531 60.0579 19.9531 59.0476 19.9531 58.0374C19.9531 57.0271 20.0373 56.0169 20.1215 55.0066C20.2057 56.0169 20.2057 57.0271 20.2899 58.0374C20.3741 59.0476 20.3741 60.0579 20.3741 61.0682L20.4583 64.099C20.4583 65.1092 20.4583 66.1195 20.4583 67.1297L20.2057 67.0456C20.5424 66.793 20.795 66.6246 21.1318 66.4562C21.4685 66.2037 21.8053 65.9511 22.0578 65.7827Z" fill="#263238"/>
<path d="M19.2793 57.3639C19.5319 57.7848 19.7844 58.2899 19.8686 58.7951C20.037 59.3002 20.1212 59.8054 20.1212 60.3105C19.6161 59.4686 19.3635 58.4583 19.2793 57.3639Z" fill="#263238"/>
<path d="M32.917 50.6288C33.0854 50.9655 33.2537 51.3023 33.2537 51.639C33.2537 51.8074 33.3379 51.9758 33.3379 52.1442C33.3379 52.3125 33.3379 52.4809 33.3379 52.7335C33.1696 52.3967 33.0854 52.06 33.0012 51.7232C33.0012 51.3023 32.917 50.9655 32.917 50.6288Z" fill="#263238"/>
<path d="M77.6217 41.0313C81.4944 40.6103 87.0508 38.0847 89.9132 38.674C91.3444 38.9266 92.4389 40.1052 92.6073 41.5364C92.6073 41.5364 94.8804 39.2633 97.406 40.2736C98.6688 40.7787 99.0056 43.3044 99.0056 43.3044C99.0056 43.3044 100.942 41.6206 103.131 42.6309C104.815 43.4727 104.899 45.83 104.899 45.83C104.899 45.83 107.509 45.0723 109.024 46.4193C112.055 49.1976 106.667 64.604 100.184 65.025C97.1534 65.1934 98.6688 61.4891 98.6688 61.4891C98.6688 61.4891 95.2171 66.2878 92.018 65.2775C88.8188 64.2673 91.0919 59.5527 91.0919 59.5527C91.0919 59.5527 87.7244 64.1831 84.5252 62.7519C81.1577 61.3207 84.1884 57.0271 84.1884 57.0271C84.1884 57.0271 80.6525 59.6369 78.4636 58.0373C74.8435 55.3433 82.1679 50.6287 82.5889 47.0086L77.6217 43.2202V41.0313Z" fill="#D3766A"/>
<path d="M83.5149 39.6843C79.8106 39.7685 77.1166 34.2962 73.5807 33.8753C68.7819 33.286 71.3918 39.8526 77.5375 43.2202L82.7572 44.9881L83.5149 39.6843Z" fill="#D3766A"/>
<path d="M104.899 46.1668C104.899 46.0826 104.983 46.1668 104.899 46.1668C104.983 46.1668 104.983 46.1668 104.899 46.1668C104.478 51.6391 102.205 57.5323 98.5002 61.7417C98.416 61.91 98.0793 61.7417 98.2477 61.5733C101.194 56.522 103.383 51.8074 104.899 46.1668Z" fill="#263238"/>
<path d="M99.0053 43.3044C99.0053 43.2202 99.0895 43.3044 99.0895 43.3044C98.5002 48.945 95.8062 55.5117 91.0074 59.8053C90.8391 59.9737 90.5023 59.8895 90.7549 59.7211C93.7015 56.6062 97.7425 48.3557 99.0053 43.3044Z" fill="#263238"/>
<path d="M83.5991 57.2797C88.0611 52.9861 90.6709 47.6822 92.5231 41.8732C92.5231 41.789 92.6915 41.8732 92.6915 41.8732C92.5231 44.9882 90.9235 48.5241 89.4923 51.2181C88.1453 53.7438 86.209 55.8485 83.7675 57.3639C83.6833 57.4481 83.5149 57.3639 83.5991 57.2797Z" fill="#263238"/>
</svg>
