<svg width="196" height="161" viewBox="0 0 196 161" fill="none" xmlns="http://www.w3.org/2000/svg">
<path d="M16.8381 91.7365C17.3617 91.4226 18.0096 91.4011 18.5519 91.6819C18.8169 91.8249 19.0676 91.9886 19.337 92.1129C19.6135 92.2271 19.8707 92.3837 20.0991 92.5777C20.316 92.7845 20.474 93.0431 20.5631 93.3304C20.6292 93.622 20.6586 93.9216 20.6515 94.2211L20.7204 96.0319L28.0211 95.7819L27.9794 95.8229L27.8961 93.4734C27.9047 93.0647 28.0555 92.6703 28.3227 92.3586C28.6115 92.0828 28.9369 91.8486 29.2896 91.6618L29.7823 91.3508C29.9532 91.238 30.1414 91.1533 30.3397 91.0994C30.7398 90.9867 31.1672 91.0175 31.5471 91.1878L33.6323 92.2803L33.4879 92.3255L36.8825 85.8157L36.9486 86.029L34.8635 84.9243C34.4935 84.6916 34.2134 84.3411 34.069 83.9302C33.9994 83.7255 33.9642 83.51 33.9635 83.2931V82.712L33.9354 82.1273C33.8909 81.4607 34.1933 80.82 34.7342 80.4286L36.7353 79.1744L36.6656 79.4618L32.7689 73.2766L33.0799 73.3455L31.0738 74.5953C30.678 74.8094 30.2205 74.8777 29.778 74.79C29.5603 74.7455 29.3513 74.6636 29.1603 74.5487L28.6596 74.2621L28.1432 74.002C27.9442 73.9044 27.7625 73.7737 27.6045 73.6156C27.2906 73.2989 27.0966 72.8816 27.0571 72.4369L26.9867 70.073L27.2058 70.2821L19.9001 70.4911L20.0862 70.2957L20.1422 72.6596C20.125 73.0927 19.9612 73.5065 19.6782 73.8347C19.5338 73.997 19.3628 74.1314 19.1718 74.2348L18.679 74.5365L18.1827 74.8389C17.6425 75.2052 16.9487 75.2619 16.3575 74.9868L14.2853 73.8584L14.4533 73.8074L10.956 80.2267L10.9237 80.1283L12.9852 81.256C13.3271 81.4744 13.5842 81.8019 13.7142 82.1848C13.804 82.5712 13.8421 82.9684 13.8263 83.3656C13.8644 83.7593 13.8478 84.1558 13.7746 84.5451C13.6726 84.9344 13.4355 85.2748 13.1066 85.5061L11.0997 86.7473V86.715L14.936 92.9318L16.8381 91.7365ZM16.8381 91.7365L14.9382 92.9253L11.0652 86.7452L13.0563 85.5004C13.3723 85.2763 13.6 84.9466 13.6984 84.5709C13.7631 84.1873 13.7731 83.7966 13.7308 83.4102C13.7401 83.0245 13.6999 82.6387 13.6101 82.2638C13.4844 81.9018 13.2373 81.5936 12.9133 81.3903L10.8468 80.2425L10.7808 80.2052L10.8145 80.1398L14.2278 73.6753L14.2824 73.5646L14.3945 73.625L16.4466 74.7124C16.7792 74.8568 17.1498 74.8863 17.5011 74.795C17.6655 74.744 17.8228 74.6665 17.9651 74.5688L18.4671 74.2477L18.9735 73.9331C19.1272 73.8455 19.2659 73.732 19.3822 73.5977C19.6135 73.3262 19.745 72.9842 19.7536 72.6272L19.6653 70.3051V70.114H19.8563L27.1562 69.864H27.3703V70.0781L27.4486 72.3988C27.4766 72.7486 27.6282 73.0776 27.8767 73.3276C27.9988 73.4476 28.1389 73.5474 28.2947 73.6199L28.8277 73.8842L29.3484 74.1824C29.4928 74.2671 29.6501 74.3281 29.8124 74.3633C30.1493 74.4273 30.4977 74.3734 30.7979 74.2104L32.7898 72.9885L32.9844 72.8679L33.1015 73.0632L36.9364 79.2807L37.0442 79.4567L36.8675 79.5638L34.88 80.7949C34.5941 80.9946 34.388 81.2891 34.2989 81.6259C34.2529 81.794 34.2335 81.97 34.2422 82.1453V82.7357V83.3247C34.2436 83.5014 34.2737 83.6774 34.3305 83.8462C34.4397 84.1816 34.6609 84.4711 34.9582 84.6629L37.0104 85.787L37.1491 85.861L37.0751 86.001L33.5784 92.4182L33.5217 92.5116L33.4297 92.4613L31.3719 91.3408C31.0292 91.1878 30.645 91.1547 30.2808 91.2481C29.9209 91.3774 29.5798 91.5556 29.2687 91.7782C28.9304 91.9549 28.6179 92.1768 28.34 92.4376C28.0857 92.722 27.9392 93.0869 27.9255 93.4676L27.9772 95.7906V95.8315H27.9305L20.701 96.0312L20.6263 94.2204C20.6349 93.9244 20.6069 93.6285 20.5437 93.3376C20.4539 93.0539 20.2937 92.7967 20.0797 92.5898C19.8534 92.3966 19.5977 92.2393 19.3226 92.1258C19.0533 91.9958 18.8011 91.8342 18.5418 91.6906C18.0053 91.4061 17.3595 91.4241 16.8381 91.7365Z" fill="#DBD9D9"/>
<path d="M18.3475 80.9163C19.5435 77.7652 23.0674 76.1806 26.2185 77.3766C27.6996 77.9383 28.9035 79.0545 29.5772 80.4889C31.0073 83.5294 29.7029 87.1539 26.6624 88.5847C26.605 88.612 26.5468 88.6372 26.4886 88.6623C24.996 89.3109 23.3052 89.3375 21.7939 88.737C21.0548 88.4346 20.3789 87.9965 19.8006 87.4463C18.0638 85.7497 17.4942 83.1883 18.3475 80.9163ZM18.3475 80.9163C17.8016 82.4003 17.867 84.0416 18.5285 85.4774C19.9069 88.4124 23.4029 89.6737 26.3371 88.296C27.7169 87.6481 28.79 86.4895 29.3309 85.0637C30.4514 82.0756 28.9811 78.7399 26.0196 77.5504C24.565 76.9722 22.9396 76.9952 21.5016 77.6151C20.0578 78.2601 18.9258 79.4453 18.3475 80.9163Z" fill="#DBD9D9"/>
<path d="M187.542 86.3354L184.984 81.9014L183.633 82.6851C183.232 82.9121 182.74 82.8955 182.356 82.6441C182.141 82.5041 181.919 82.3755 181.691 82.2584C181.282 82.053 181.02 81.635 181.017 81.1767V79.6108H175.91V81.171C175.906 81.6307 175.647 82.048 175.237 82.2541C175.008 82.3705 174.787 82.4998 174.572 82.6384C174.188 82.8919 173.694 82.907 173.295 82.6815L171.939 81.8964L169.38 86.3318L170.746 87.1155C171.14 87.3504 171.371 87.7863 171.34 88.2446V88.6203V88.9966C171.371 89.452 171.142 89.8866 170.75 90.1193L169.357 90.9102L171.916 95.3442L173.277 94.5598C173.677 94.3299 174.172 94.3486 174.554 94.6058C174.767 94.7408 174.986 94.8701 175.213 94.9857C175.623 95.1926 175.884 95.6099 175.887 96.0682V97.6341H180.994V96.0682C180.998 95.6099 181.257 95.1926 181.668 94.9857C181.896 94.8701 182.132 94.7408 182.328 94.6058C182.71 94.3486 183.205 94.3292 183.605 94.5598L184.966 95.3442L187.524 90.9102L186.163 90.1251C185.769 89.8924 185.538 89.4571 185.568 89.0002V88.6203V88.2446C185.538 87.7856 185.768 87.3504 186.163 87.1155L187.542 86.3354ZM182.649 88.6253C182.649 90.9346 180.777 92.805 178.47 92.805C176.161 92.805 174.289 90.9346 174.289 88.6253C174.289 86.3167 176.161 84.447 178.47 84.447C180.777 84.447 182.649 86.3167 182.649 88.6253Z" fill="#DBD9D9"/>
<path d="M54.0637 47.0018L51.5052 42.5714L50.1491 43.3557C49.7483 43.5834 49.2548 43.5648 48.8719 43.3091C48.6579 43.1719 48.4359 43.0447 48.2082 42.9298C47.7981 42.7237 47.5374 42.3063 47.5345 41.8473V40.3052H42.4533V41.8703C42.4497 42.33 42.1904 42.7474 41.7803 42.9535C41.5519 43.0677 41.3306 43.1956 41.1159 43.3335C40.733 43.5892 40.2381 43.6071 39.8388 43.3802L38.4827 42.5951L35.9241 47.0255L37.2896 47.8105C37.6853 48.0454 37.9152 48.4836 37.8836 48.9433V49.3182V49.6953C37.9145 50.1507 37.6868 50.5853 37.2939 50.818L35.9004 51.6081L38.4596 56.0435L39.8201 55.2585C40.2202 55.0293 40.7136 55.0458 41.0972 55.3001C41.3105 55.4402 41.531 55.5688 41.7573 55.6851C42.166 55.8898 42.426 56.3064 42.4311 56.7626V58.3327H47.5381V56.7626C47.5424 56.3064 47.8031 55.8898 48.2118 55.6851C48.4374 55.5688 48.6586 55.4402 48.8712 55.3001C49.2548 55.0458 49.7497 55.0293 50.1483 55.2585L51.5095 56.0435L54.068 51.6081L52.7026 50.8238C52.3111 50.5867 52.0841 50.1507 52.1136 49.6953V49.3182V48.9433C52.082 48.4829 52.3111 48.0454 52.7076 47.8105L54.0637 47.0018ZM49.17 49.2945C49.17 51.6038 47.2989 53.4742 44.991 53.4742C42.6825 53.4742 40.8113 51.6038 40.8113 49.2945C40.8113 46.9867 42.6825 45.1163 44.991 45.1163C47.2989 45.1084 49.1765 46.9737 49.1844 49.2809V49.2953H49.17V49.2945Z" fill="#DBD9D9"/>
<path d="M163.445 12.44H118.695C118.695 12.44 123.131 0.324707 129.962 0.324707C136.793 0.324707 138.929 8.68412 138.929 8.68412C138.929 8.68412 143.536 4.13736 147.321 4.13736C151.106 4.13736 154.375 10.1192 154.375 10.1192C154.375 10.1192 159.744 6.8999 163.445 12.44Z" fill="#DBD9D9"/>
<path d="M91.5701 85.0818H46.8145C46.8145 85.0818 51.2556 72.9666 58.0822 72.9666C64.9088 72.9666 67.0493 81.326 67.0493 81.326C67.0493 81.326 71.6556 76.7785 75.4417 76.7785C79.2264 76.7785 82.519 82.7884 82.519 82.7884C82.519 82.7884 87.8645 79.5611 91.5701 85.0818Z" fill="#DBD9D9"/>
<g opacity="0.5">
<g opacity="0.5">
<path opacity="0.5" d="M190.896 52.6805H169.998C169.998 52.6805 174.67 45.9092 178.357 45.9092C182.045 45.9092 183.127 50.4229 183.127 50.4229C183.127 50.4229 185.728 48.3147 188.133 48.6911C190.539 49.0682 190.896 52.6805 190.896 52.6805Z" fill="#DBD9D9"/>
</g>
</g>
<g opacity="0.5">
<g opacity="0.5">
<path opacity="0.5" d="M132.86 65.2615H111.961C111.961 65.2615 116.638 58.4902 120.321 58.4902C124.003 58.4902 125.091 63.0039 125.091 63.0039C125.091 63.0039 127.691 60.9008 130.097 61.2772C132.502 61.6536 132.86 65.2615 132.86 65.2615Z" fill="#DBD9D9"/>
</g>
</g>
<path d="M40.7965 65.1314H0.0639648C0.0639648 65.1314 5.63714 52.6756 11.609 51.8955C17.5808 51.1155 20.4317 61.1521 20.4317 61.1521C20.4317 61.1521 24.2817 57.6045 27.31 57.6045C30.3376 57.6045 32.6734 62.2755 32.6734 62.2755C32.6734 62.2755 38.7394 59.0748 40.7965 65.1314Z" fill="#DBD9D9"/>
<g opacity="0.5">
<g opacity="0.5">
<path opacity="0.5" d="M69.1957 31.8653H41.6753C41.6753 31.8653 46.4031 22.8465 51.5302 22.7129C56.6573 22.5778 59.3559 29.5445 59.3559 29.5445C59.3559 29.5445 67.3282 23.1216 69.1957 31.8653Z" fill="#DBD9D9"/>
</g>
</g>
<path d="M47.7028 149.685H12.4917V160.414H47.7028V149.685Z" fill="white"/>
<g opacity="0.1">
<g opacity="0.1">
<path opacity="0.1" d="M22.8652 149.685H12.4917V160.414H22.8652V149.685Z" fill="black"/>
</g>
</g>
<path d="M93.4049 133.593H58.1938V160.413H93.4049V133.593Z" fill="white"/>
<g opacity="0.1">
<g opacity="0.1">
<path opacity="0.1" d="M68.5673 133.593H58.1938V160.413H68.5673V133.593Z" fill="black"/>
</g>
</g>
<path d="M139.102 117.497H103.891V160.408H139.102V117.497Z" fill="white"/>
<g opacity="0.1">
<g opacity="0.1">
<path opacity="0.1" d="M114.265 117.497H103.891V160.408H114.265V117.497Z" fill="black"/>
</g>
</g>
<path d="M184.803 101.406H149.592V160.413H184.803V101.406Z" fill="white"/>
<g opacity="0.1">
<g opacity="0.1">
<path opacity="0.1" d="M159.966 101.406H149.592V160.413H159.966V101.406Z" fill="black"/>
</g>
</g>
<path d="M12.4409 104.768C13.2993 104.768 14.2984 104.745 15.2272 104.722C16.1559 104.699 17.1263 104.662 18.0787 104.615C19.9872 104.537 21.8957 104.424 23.8099 104.296C27.6355 104.049 31.4626 103.691 35.286 103.287C42.9322 102.461 50.5525 101.357 58.1433 99.9767C65.7341 98.5955 73.2611 96.9355 80.7226 94.994C88.1806 93.0244 95.5524 90.7503 102.838 88.1716C110.118 85.5959 117.265 82.6495 124.246 79.3475C131.255 76.0657 138.059 72.3672 144.624 68.2715L149.519 65.1513L154.274 61.812C155.88 60.7295 157.395 59.5178 158.919 58.3341L161.213 56.5506L162.364 55.6599L163.47 54.7297L167.882 50.9364C168.634 50.323 169.312 49.6263 170.018 48.9633L172.127 46.9521L174.236 44.9359C174.933 44.2585 175.572 43.5431 176.242 42.8234L180.232 38.564L180.496 38.7881L176.706 43.2465C176.066 43.9834 175.457 44.7506 174.789 45.4617L172.77 47.5835L170.75 49.711C170.071 50.4114 169.421 51.1454 168.697 51.8005L164.434 55.8351L163.365 56.8429L162.251 57.7953L160.017 59.7038C158.527 60.9759 157.059 62.271 155.485 63.4425L150.84 67.0497L146.02 70.4257C139.565 74.9006 132.846 78.9848 125.902 82.6538C118.954 86.3501 111.823 89.6937 104.54 92.6703C97.2576 95.649 89.8578 98.3232 82.3409 100.695C74.8241 103.067 67.2267 105.13 59.5483 106.881C51.8734 108.662 44.1339 110.163 36.329 111.386C32.4265 111.985 28.5176 112.541 24.5829 112.987C22.6148 113.215 20.6459 113.424 18.6627 113.605C17.6729 113.698 16.6788 113.776 15.6854 113.855C14.6913 113.934 13.7073 114 12.6198 114.056L12.4409 104.768Z" fill="#FFC727"/>
<path d="M181.669 44.0844L179.389 39.7941L174.716 38.4617L184.854 33.0271L181.669 44.0844Z" fill="#FFC727"/>
<path d="M170.375 98.7779H163.724C163.724 98.7779 163.208 97.2767 165.117 91.4995C167.026 85.7224 168.219 80.2706 165.651 74.6011C163.083 68.9296 161.407 61.886 164.179 54.7793C167.313 46.7546 168.176 46.8853 164.101 35.4517C163.743 34.4525 164.101 34.4116 164.565 35.0516C165.029 35.6937 168.06 43.253 168.418 45.3245C168.418 45.3245 171.339 40.471 172.413 40.4014C173.486 40.3324 173.114 40.5177 172.413 41.3301C167.397 47.1166 164.639 56.5211 164.494 61.1555C164.35 65.7906 166.78 70.7827 166.78 70.7827C166.78 70.7827 170.059 65.7906 172.2 63.7241C174.34 61.6569 175.766 58.518 174.624 55.7361C173.481 52.9541 178.214 57.0929 175.028 61.6526C175.028 61.6526 179.83 60.7238 180.972 62.651C182.114 64.5796 177.833 60.3704 173.624 64.1522C171.116 66.3926 169.223 69.2413 168.132 72.4233C168.132 72.4233 172.232 81.7531 170.918 86.9722C168.809 95.4623 170.375 98.7779 170.375 98.7779Z" fill="#FFC727"/>
<g opacity="0.5">
<g opacity="0.5">
<path opacity="0.5" d="M170.375 98.7779H163.724C163.724 98.7779 163.208 97.2767 165.117 91.4995C167.026 85.7224 168.219 80.2706 165.651 74.6011C163.083 68.9296 161.407 61.886 164.179 54.7793C167.313 46.7546 168.176 46.8853 164.101 35.4517C163.743 34.4525 164.101 34.4116 164.565 35.0516C165.029 35.6937 168.06 43.253 168.418 45.3245C168.418 45.3245 171.339 40.471 172.413 40.4014C173.486 40.3324 173.114 40.5177 172.413 41.3301C167.397 47.1166 164.639 56.5211 164.494 61.1555C164.35 65.7906 166.78 70.7827 166.78 70.7827C166.78 70.7827 170.059 65.7906 172.2 63.7241C174.34 61.6569 175.766 58.518 174.624 55.7361C173.481 52.9541 178.214 57.0929 175.028 61.6526C175.028 61.6526 179.83 60.7238 180.972 62.651C182.114 64.5796 177.833 60.3704 173.624 64.1522C171.116 66.3926 169.223 69.2413 168.132 72.4233C168.132 72.4233 172.232 81.7531 170.918 86.9722C168.809 95.4623 170.375 98.7779 170.375 98.7779Z" fill="black"/>
</g>
</g>
<path d="M169.074 71.2611C169.074 71.2611 175.042 69.6119 178.277 75.44C178.278 75.4602 172.195 76.5742 169.074 71.2611Z" fill="#37474F"/>
<path d="M154.436 39.3008C154.436 39.3008 159.906 36.3982 164.332 41.4054C164.333 41.4054 158.629 43.8095 154.436 39.3008Z" fill="#37474F"/>
<path d="M170.593 69.6542C172.467 67.8362 175.342 67.5288 177.559 68.9122C177.559 68.9122 174.317 71.7164 170.593 69.6542Z" fill="#37474F"/>
<path d="M167.899 39.7513C168.273 37.1705 170.357 35.1766 172.952 34.918C172.952 34.9173 172.106 39.1099 167.899 39.7513Z" fill="#37474F"/>
<path d="M155.825 54.3198C158.392 53.8723 160.934 55.2306 161.992 57.6124C161.992 57.6124 157.748 58.1138 155.825 54.3198Z" fill="#37474F"/>
<path d="M159.475 83.2803L159.851 87.7567L161.007 101.406H173.389L174.544 87.7567L174.921 83.2803H159.475Z" fill="#455A64"/>
<path d="M159.475 83.2803L159.851 87.7567H174.544L174.921 83.2803H159.475Z" fill="#263238"/>
<path d="M176.138 81.4832H158.258V85.7785H176.138V81.4832Z" fill="#455A64"/>
<path d="M117.808 113.68H125.499C125.499 113.68 120.59 106.84 119.462 103.17C117.818 97.7415 120.688 92.4894 124.594 89.5918C126.368 88.2731 128.193 90.2009 130.761 89.5918C133.924 88.829 133.85 86.1835 133.724 85.9228C133.597 85.6628 133.158 88.245 131.644 88.7371C128.17 89.9028 127 87.2746 123.879 88.3384C124 87.2323 124.016 86.1167 123.929 85.0077C123.786 83.1502 125.726 77.7451 130.895 78.2968C131.56 78.3715 131.155 77.9161 129.938 77.8327C129.079 77.8126 128.226 77.9707 127.43 78.2968C128.082 77.5332 128.497 76.5944 128.625 75.5982C128.745 74.0941 129.651 73.161 129.553 72.924C129.456 72.687 128.689 73.2106 128.355 74.7815C128.355 74.7815 127.593 77.2423 126.682 78.0317C125.773 78.8218 123.897 80.9997 123.433 83.1394C123.433 83.1394 123.298 81.8078 123.071 79.2442C122.904 77.3623 121.756 75.8481 121.468 75.9688C121.18 76.0895 122.57 77.7394 122.639 79.5035C122.709 81.2683 122.373 83.1811 122.718 84.6486C123.274 86.9945 122.685 89.5573 121.565 90.8488C120.446 92.1403 117.53 94.7735 117.386 99.5013C117.242 104.23 119.002 111.706 117.808 113.68Z" fill="#FFC727"/>
<g opacity="0.5">
<g opacity="0.5">
<path opacity="0.5" d="M117.808 113.68H125.499C125.499 113.68 120.59 106.84 119.462 103.17C117.818 97.7415 120.688 92.4894 124.594 89.5918C126.368 88.2731 128.193 90.2009 130.761 89.5918C133.924 88.829 133.85 86.1835 133.724 85.9228C133.597 85.6628 133.158 88.245 131.644 88.7371C128.17 89.9028 127 87.2746 123.879 88.3384C124 87.2323 124.016 86.1167 123.929 85.0077C123.786 83.1502 125.726 77.7451 130.895 78.2968C131.56 78.3715 131.155 77.9161 129.938 77.8327C129.079 77.8126 128.226 77.9707 127.43 78.2968C128.082 77.5332 128.497 76.5944 128.625 75.5982C128.745 74.0941 129.651 73.161 129.553 72.924C129.456 72.687 128.689 73.2106 128.355 74.7815C128.355 74.7815 127.593 77.2423 126.682 78.0317C125.773 78.8218 123.897 80.9997 123.433 83.1394C123.433 83.1394 123.298 81.8078 123.071 79.2442C122.904 77.3623 121.756 75.8481 121.468 75.9688C121.18 76.0895 122.57 77.7394 122.639 79.5035C122.709 81.2683 122.373 83.1811 122.718 84.6486C123.274 86.9945 122.685 89.5573 121.565 90.8488C120.446 92.1403 117.53 94.7735 117.386 99.5013C117.242 104.23 119.002 111.706 117.808 113.68Z" fill="black"/>
</g>
</g>
<path d="M122.448 87.5017C122.448 87.5017 117.163 88.3529 114.939 83.0211C114.939 83.029 120.275 82.6439 122.448 87.5017Z" fill="#37474F"/>
<path d="M122.128 88.7365C120.865 90.6041 118.493 91.3691 116.378 90.5948C116.378 90.5948 118.615 87.6742 122.128 88.7365Z" fill="#37474F"/>
<path d="M138.447 91.5225C136.253 92.0353 133.994 90.988 132.967 88.9833C132.967 88.9833 136.603 88.3412 138.447 91.5225Z" fill="#37474F"/>
<path d="M127.306 76.4258C125.09 76.0149 123.438 74.1467 123.303 71.8977C123.303 71.8977 126.892 72.7704 127.306 76.4258Z" fill="#37474F"/>
<path d="M114.405 99.4365L114.78 103.913L115.937 117.562H128.322L129.474 103.913L129.855 99.4365H114.405Z" fill="#455A64"/>
<path d="M114.405 99.4365L114.78 103.913H129.474L129.855 99.4365H114.405Z" fill="#263238"/>
<path d="M131.068 97.6401H113.188V101.936H131.068V97.6401Z" fill="#455A64"/>
<path d="M70.4444 128.54H76.677C76.677 128.54 72.6969 122.995 71.8005 120.024C70.4681 115.626 72.7939 111.372 75.9572 109.022C77.3967 107.955 78.8727 109.516 80.9536 109.022C83.5172 108.401 83.4569 106.235 83.3549 106.046C83.2529 105.854 82.8908 107.903 81.669 108.33C78.8548 109.258 77.898 107.142 75.3761 108.005C75.3345 107.11 75.3524 106.214 75.4264 105.321C75.6821 102.155 78.273 99.8639 78.273 99.8639C78.8002 99.244 79.1356 98.4834 79.2398 97.6768C79.3375 96.4557 80.0708 95.7029 79.9925 95.5083C79.9135 95.3129 79.2958 95.7402 79.0265 97.0174C79.0265 97.0174 78.4087 99.0099 77.6703 99.6499C76.9319 100.292 75.4128 102.057 75.0278 103.779C75.0278 103.779 74.4186 108.976 73.5093 110.026C72.5985 111.075 70.2583 113.202 70.1233 117.033C69.989 120.864 71.4105 126.962 70.4444 128.54Z" fill="#FFC727"/>
<g opacity="0.5">
<g opacity="0.5">
<path opacity="0.5" d="M70.4444 128.54H76.677C76.677 128.54 72.6969 122.995 71.8005 120.024C70.4681 115.626 72.7939 111.372 75.9572 109.022C77.3967 107.955 78.8727 109.516 80.9536 109.022C83.5172 108.401 83.4569 106.235 83.3549 106.046C83.2529 105.854 82.8908 107.903 81.669 108.33C78.8548 109.258 77.898 107.142 75.3761 108.005C75.3345 107.11 75.3524 106.214 75.4264 105.321C75.6821 102.155 78.273 99.8639 78.273 99.8639C78.8002 99.244 79.1356 98.4834 79.2398 97.6768C79.3375 96.4557 80.0708 95.7029 79.9925 95.5083C79.9135 95.3129 79.2958 95.7402 79.0265 97.0174C79.0265 97.0174 78.4087 99.0099 77.6703 99.6499C76.9319 100.292 75.4128 102.057 75.0278 103.779C75.0278 103.779 74.4186 108.976 73.5093 110.026C72.5985 111.075 70.2583 113.202 70.1233 117.033C69.989 120.864 71.4105 126.962 70.4444 128.54Z" fill="black"/>
</g>
</g>
<path d="M74.3271 105.376C72.0688 105.305 70.1524 103.703 69.6826 101.495C69.6826 101.495 73.3753 101.824 74.3271 105.376Z" fill="#37474F"/>
<path d="M88.5609 103.463C87.7593 105.569 85.6288 106.859 83.3921 106.592C83.3914 106.593 84.8868 103.199 88.5609 103.463Z" fill="#37474F"/>
<path d="M79.4537 95.5908C77.4382 94.5816 76.3723 92.3283 76.8657 90.1289C76.8657 90.1296 80.0707 91.9634 79.4537 95.5908Z" fill="#37474F"/>
<path d="M65.5127 115.467L65.8876 119.944L67.0448 133.593H79.4259L80.5816 119.944L80.9587 115.467H65.5127Z" fill="#455A64"/>
<path d="M65.5127 115.467L65.8876 119.944H80.5816L80.9587 115.467H65.5127Z" fill="#263238"/>
<path d="M82.1752 113.671H64.2949V117.966H82.1752V113.671Z" fill="#455A64"/>
<path d="M28.1097 138.939H33.0328C33.0328 138.939 29.8881 134.554 29.177 132.205C28.1276 128.731 30.3766 124.858 32.2843 123.646C33.4824 122.894 34.7689 123.901 36.413 123.503C38.4379 123.038 38.3912 121.32 38.3129 121.153C38.2346 120.987 37.9509 122.629 36.9805 122.955C34.7559 123.703 33.9996 122.026 32.0063 122.701C32.0063 122.701 32.0803 120.016 30.0102 118.776C29.6382 118.552 30.8643 119.83 31.1897 121.339C31.4842 122.37 31.2342 123.479 30.5245 124.284C29.8149 125.12 27.943 126.796 27.8503 129.828C27.757 132.859 28.871 137.685 28.1097 138.939Z" fill="#FFC727"/>
<g opacity="0.5">
<g opacity="0.5">
<path opacity="0.5" d="M28.1097 138.939H33.0328C33.0328 138.939 29.8881 134.554 29.177 132.205C28.1276 128.731 30.3766 124.858 32.2843 123.646C33.4824 122.894 34.7689 123.901 36.413 123.503C38.4379 123.038 38.3912 121.32 38.3129 121.153C38.2346 120.987 37.9509 122.629 36.9805 122.955C34.7559 123.703 33.9996 122.026 32.0063 122.701C32.0063 122.701 32.0803 120.016 30.0102 118.776C29.6382 118.552 30.8643 119.83 31.1897 121.339C31.4842 122.37 31.2342 123.479 30.5245 124.284C29.8149 125.12 27.943 126.796 27.8503 129.828C27.757 132.859 28.871 137.685 28.1097 138.939Z" fill="black"/>
</g>
</g>
<path d="M22.374 131.559L22.7497 136.036L23.9068 149.685H36.2879L37.4436 136.036L37.82 131.559H22.374Z" fill="#455A64"/>
<path d="M22.374 131.559L22.7497 136.036H37.4436L37.82 131.559H22.374Z" fill="#263238"/>
<path d="M39.037 129.762H21.1567V134.057H39.037V129.762Z" fill="#455A64"/>
<path d="M1.29443 160.413L25.6343 160.297L49.9691 160.259L98.6473 160.181L147.326 160.255L171.665 160.297L196 160.413L171.665 160.525L147.326 160.566L98.6473 160.645L49.9691 160.566L25.6343 160.525L1.29443 160.413Z" fill="#263238"/>
<path d="M104.884 21.5743C104.884 21.621 104.955 21.6174 104.955 21.5743C105.018 19.3828 107.178 17.924 107.109 15.6916C107.048 14.7054 106.709 13.7565 106.129 12.9549C105.746 12.4399 105.331 11.9507 104.885 11.4874L104.709 11.2461C104.325 10.7462 103.986 10.2132 103.696 9.65367C103.401 8.995 103.223 8.28819 103.171 7.56775C103.028 6.17571 102.981 4.78152 102.02 3.70409C101.178 2.82922 100.089 2.22945 98.8986 1.98595C96.2704 1.34452 93.1394 1.80495 91.399 4.05749C91.0931 4.4547 90.8489 4.89717 90.6743 5.36692C89.7276 6.10101 89.033 7.11308 88.6868 8.25947C88.2781 9.83826 89.3318 11.129 89.2348 11.9199C89.1515 12.6116 88.7241 13.2063 88.444 13.8276C88.1445 14.3541 87.8845 14.9022 87.6639 15.4667C87.4061 16.2612 87.3845 17.1131 87.6036 17.919C87.766 18.6588 88.105 19.3469 88.5927 19.9251C89.0847 20.4445 89.7125 20.8137 90.4042 20.9889C90.5665 21.0392 90.7339 21.0866 90.9013 21.1268C91.4773 21.4436 92.1037 21.6806 92.656 22.0563C93.2594 22.4607 93.694 23.0712 93.8778 23.7751C94.0675 24.4245 94.1328 25.1033 94.2765 25.7626C94.4043 26.3775 94.6507 26.9608 95.002 27.4815C95.7231 28.4986 96.7589 29.2499 97.9505 29.6184C99.3411 30.0271 100.811 30.0774 102.227 29.7671C103.506 29.5983 104.656 28.903 105.399 27.8486C106.016 26.8674 106.185 25.67 105.863 24.5559C105.615 23.908 105.305 23.2853 104.934 22.6984C104.595 22.1015 104.45 21.4127 104.522 20.7296C104.837 18.4771 107.007 16.7173 106.445 14.2974C106.281 13.6825 106.013 13.1 105.654 12.5742C106.326 13.355 106.765 14.3067 106.923 15.3238C107.007 16.4242 106.716 17.5225 106.096 18.4354C105.533 19.4065 104.87 20.4085 104.884 21.5743ZM90.4883 20.8963C89.5372 20.6434 88.7256 20.0243 88.23 19.1745C87.6884 18.2214 87.4729 17.1167 87.6173 16.0306C87.7243 15.517 87.9039 15.0214 88.151 14.5581C88.1503 14.5452 88.1503 14.5337 88.151 14.5201C88.059 14.8526 87.9965 15.1917 87.9649 15.5328C87.8823 16.6332 88.0992 17.7365 88.5913 18.7235C89.0273 19.6077 89.6888 20.3633 90.5105 20.9106L90.4883 20.8963Z" fill="#263238"/>
<path d="M95.4989 22.1046C97.3191 31.2728 101.953 39.3162 104.674 39.9418C108.577 40.8339 118.983 39.6459 123.716 38.243C125.109 37.83 121.687 27.0967 120.2 27.519C118.408 28.0484 107.981 30.482 107.795 30.4777C107.392 30.4777 101.127 22.1506 99.6269 19.9957C96.8737 16.0487 94.5099 17.1168 95.4989 22.1046Z" fill="#F7A9A0"/>
<path d="M129.545 36.5141C127.566 37.7129 122.579 38.5864 121.283 38.3299C119.986 38.0757 118.232 29.6272 119.105 28.6058C119.978 27.5837 126.944 24.0497 129.298 24.3664C131.653 24.6811 131.588 35.2751 129.545 36.5141Z" fill="#F7A9A0"/>
<path d="M152.731 29.1216L151.84 33.2596L155.347 35.3872L152.731 29.1216Z" fill="#37474F"/>
<path d="M142.956 35.9429L140.337 41.3401L152.866 33.8915L152.01 32.5354L142.956 35.9429Z" fill="#455A64"/>
<path d="M134.704 30.1286C134.704 30.1286 132.549 22.3409 130.459 21.8762C128.37 21.4122 124.279 33.8349 128.138 37.7266C129.368 38.9807 131.825 38.5024 131.825 38.5024L134.704 30.1286ZM128.834 36.6959C125.838 33.6676 128.909 23.279 130.538 23.6367C132.168 23.9937 133.941 30.7793 133.941 30.7793L131.689 37.2805C131.689 37.2813 129.791 37.667 128.834 36.6959Z" fill="#455A64"/>
<path d="M143.504 44.8643L129.674 42.2741L135.767 22.2253L144.623 23.9665L143.504 44.8643Z" fill="#37474F"/>
<path d="M135.767 22.2252L134.629 20.4697L145.993 22.4716L144.623 23.9671L135.767 22.2252Z" fill="#455A64"/>
<path d="M154.436 29.8831C154.436 29.8831 155.643 28.2727 156.037 28.9543C156.434 29.6367 154.436 29.8831 154.436 29.8831Z" fill="#455A64"/>
<path d="M154.84 32.4556C154.84 32.4556 156.298 31.0636 156.573 31.8142C156.846 32.567 154.84 32.4556 154.84 32.4556Z" fill="#455A64"/>
<path d="M157.218 30.7189C157.218 30.7189 159.043 29.8785 159.075 30.6687C159.108 31.4573 157.218 30.7189 157.218 30.7189Z" fill="#455A64"/>
<path d="M158.239 32.7162C158.239 32.7162 160.13 32.0288 160.097 32.8218C160.064 33.6169 158.239 32.7162 158.239 32.7162Z" fill="#455A64"/>
<path d="M158.189 29.0195C158.189 29.0195 159.832 27.8595 160 28.6345C160.167 29.4095 158.189 29.0195 158.189 29.0195Z" fill="#455A64"/>
<path d="M160.459 30.6393C160.459 30.6393 162.382 30.0402 162.317 30.831C162.252 31.6197 160.459 30.6393 160.459 30.6393Z" fill="#455A64"/>
<path d="M155.769 35.1951C155.769 35.1951 157.76 35.4924 157.343 36.1669C156.925 36.8392 155.769 35.1951 155.769 35.1951Z" fill="#455A64"/>
<path d="M160.004 38.5388C160.004 38.5388 161.522 39.8633 160.808 40.2059C160.092 40.5507 160.004 38.5388 160.004 38.5388Z" fill="#455A64"/>
<path d="M157.733 37.2761C157.733 37.2761 159.48 38.2788 158.843 38.7543C158.207 39.227 157.733 37.2761 157.733 37.2761Z" fill="#455A64"/>
<path d="M156.484 34.0769C156.484 34.0769 158.468 33.7523 158.276 34.541C158.085 35.3296 156.484 34.0769 156.484 34.0769Z" fill="#455A64"/>
<path d="M159.02 35.6831C159.02 35.6831 160.877 36.4086 160.343 36.9753C159.809 37.542 159.02 35.6831 159.02 35.6831Z" fill="#455A64"/>
<path d="M125.583 24.6216C125.017 25.7048 126.618 25.75 126.618 25.75C126.618 25.75 124.297 26.2148 124.144 27.6075C123.991 29.001 125.937 28.894 126.075 28.894C125.955 28.922 123.831 29.4241 123.818 30.7945C123.803 32.1636 125.749 31.8669 125.874 31.844C125.764 31.9093 124.352 32.7727 124.579 33.7898C124.965 35.5769 128.638 33.5255 130.045 33.9888C130.045 33.9888 129.534 36.464 129.534 36.5394C129.534 36.5394 133.069 34.6812 133.584 32.7253C133.749 32.1492 133.489 31.5365 132.961 31.2528C132.961 31.2528 134.17 30.7888 134.216 29.697C134.216 29.1454 133.37 28.616 133.37 28.616C133.917 28.3617 134.276 27.8237 134.299 27.2225C134.299 26.4568 133.416 26.0517 133.416 26.0517C133.416 26.0517 134.142 25.2207 133.881 24.4406C133.352 22.8561 126.809 22.3001 125.583 24.6216Z" fill="#F7A9A0"/>
<path d="M133.305 25.9167C131.118 25.1704 128.757 25.1086 126.534 25.7415C126.46 25.7415 126.468 25.8844 126.534 25.8758C128.783 25.5712 131.064 25.5964 133.305 25.9505V25.9167Z" fill="#263238"/>
<path d="M133.417 28.5829C133.44 28.5829 133.45 28.5455 133.417 28.5369C130.997 27.7389 128.372 27.833 126.015 28.802C125.936 28.8386 125.899 28.955 126.015 28.9176C127.631 28.3365 131.323 28.2302 133.417 28.5829Z" fill="#263238"/>
<path d="M125.74 31.9449C128.062 31.0161 130.431 30.9335 132.883 31.1878C132.915 31.1878 132.92 31.1461 132.883 31.1368C131.717 30.6728 130.134 30.6728 128.903 30.7848C127.759 30.861 126.655 31.2352 125.698 31.8666C125.671 31.8989 125.694 31.9729 125.74 31.9449Z" fill="#263238"/>
<path d="M126.628 25.7498C126.192 25.8855 125.77 26.0629 125.365 26.2741C124.963 26.463 124.619 26.7546 124.366 27.1195C124.261 27.2948 124.222 27.5031 124.259 27.7049C124.303 27.9053 124.395 28.0928 124.529 28.2487C124.824 28.5396 125.23 28.6919 125.643 28.6667H126.646L125.717 29.033C125.3 29.1911 124.911 29.4173 124.566 29.7018C124.231 29.9524 124.016 30.3317 123.977 30.7469C123.942 31.1426 124.19 31.5075 124.571 31.6203C124.984 31.736 125.42 31.7467 125.838 31.6483L127.004 31.4113L125.987 32.011C125.704 32.1791 125.442 32.3824 125.207 32.6144C124.978 32.8277 124.817 33.1036 124.743 33.4074C124.687 33.6904 124.796 33.9777 125.026 34.1508C125.309 34.3103 125.631 34.3836 125.955 34.3598C126.643 34.3282 127.328 34.2435 128.004 34.1048C128.348 34.0495 128.691 33.9892 129.038 33.9461C129.384 33.8865 129.739 33.9001 130.079 33.9842C129.735 33.9389 129.388 33.9598 129.052 34.0445C128.713 34.1099 128.374 34.1932 128.035 34.2758C127.356 34.4654 126.661 34.5897 125.959 34.6486C125.579 34.6845 125.197 34.6091 124.859 34.4346C124.501 34.1975 124.319 33.7694 124.394 33.3471C124.477 32.9685 124.669 32.6202 124.947 32.3494C125.202 32.0857 125.49 31.8559 125.802 31.6663L125.95 32.0333C125.457 32.164 124.938 32.164 124.445 32.0333C124.175 31.9486 123.942 31.7733 123.786 31.537C123.642 31.2999 123.573 31.0248 123.586 30.7469C123.636 30.2218 123.909 29.742 124.334 29.4274C124.708 29.1164 125.13 28.87 125.583 28.694L125.653 29.0416C125.136 29.056 124.639 28.8398 124.297 28.4527C124.141 28.2508 124.04 28.0123 124.004 27.7609C123.967 27.5031 124.026 27.2416 124.172 27.0269C124.46 26.644 124.85 26.3524 125.299 26.1822C125.725 25.9868 126.169 25.8424 126.628 25.7498Z" fill="#263238"/>
<path d="M120.187 27.7977C120.187 27.7977 125.893 19.8233 127.905 23.5864C128.509 24.7012 129.646 30.0036 128.582 30.2492C127.19 30.5696 126.326 28.4478 125.982 27.0277C125.982 27.0277 124.421 30.0129 122.02 29.5446C121.129 29.3528 120.421 28.6791 120.187 27.7977Z" fill="#F7A9A0"/>
<path d="M127.728 23.2791C128.013 23.6885 128.24 24.1374 128.397 24.6115C128.569 25.0827 128.707 25.5654 128.811 26.0559C129.038 27.0342 129.179 28.0298 129.229 29.034C129.243 29.3004 129.219 29.5676 129.158 29.8269C129.12 29.9763 129.051 30.1164 128.954 30.2357C128.901 30.3003 128.839 30.357 128.768 30.403C128.695 30.444 128.617 30.4756 128.536 30.4957C128.243 30.5574 127.937 30.5115 127.673 30.3693C127.432 30.2364 127.217 30.0611 127.037 29.8542C126.705 29.4542 126.445 29.0009 126.266 28.5118C126.075 28.042 125.919 27.5572 125.801 27.0637L126.121 27.0953C125.933 27.4264 125.712 27.7374 125.462 28.024C125.221 28.3214 124.951 28.5915 124.654 28.8321C124.352 29.0656 124.017 29.253 123.66 29.3902C123.308 29.526 122.932 29.5949 122.555 29.5885C122.923 29.5454 123.281 29.4398 123.613 29.2782C123.939 29.1151 124.241 28.909 124.51 28.6648C124.783 28.4227 125.031 28.1541 125.249 27.8617C125.469 27.5723 125.66 27.2605 125.82 26.933L126.019 26.5329L126.144 26.9696C126.269 27.4437 126.425 27.9084 126.608 28.3616C126.785 28.8034 127.027 29.2157 127.329 29.5834C127.58 29.9325 127.992 30.1258 128.421 30.0942C128.755 30.0439 128.821 29.4994 128.821 29.0354C128.813 28.5462 128.781 28.0578 128.723 27.5722C128.676 27.1082 128.62 26.5925 128.537 26.1055C128.416 25.1286 128.143 24.174 127.728 23.2791Z" fill="#263238"/>
<path d="M112.292 29.3068L113.044 40.6708C113.044 40.6708 105.558 41.6793 103.491 39.9662C101.425 38.2516 96.6547 29.8283 95.4946 23.159C94.3332 16.4897 96.73 15.4734 100.635 21.1392C104.541 26.805 107.657 30.2823 107.843 30.2737C108.027 30.2636 112.292 29.3068 112.292 29.3068Z" fill="#FFC727"/>
<path d="M110.258 30.2174C110.258 30.2002 110.243 30.1851 110.226 30.1851C110.208 30.1851 110.194 30.2002 110.194 30.2174C110.187 33.5617 110.365 36.9061 110.727 40.2296C110.727 40.2669 110.793 40.2619 110.793 40.2296C110.795 36.8852 110.617 33.5431 110.258 30.2174Z" fill="#263238"/>
<g opacity="0.1">
<g opacity="0.1">
<path opacity="0.1" d="M106.9 40.9119C105.479 40.8099 104.188 40.5369 103.496 39.9831C101.43 38.2643 96.6596 29.851 95.4945 23.1774C94.6484 18.357 95.6705 16.4887 97.7743 17.967L106.9 40.9119Z" fill="black"/>
</g>
</g>
<path d="M88.932 134.717C88.0399 134.82 64.2115 129.738 63.4264 128.968C63.1248 128.685 63.6635 125.169 64.4342 120.938C64.4356 120.895 64.4356 120.852 64.4342 120.809C64.5922 119.935 68.7899 105.348 68.7899 105.348L84.3192 109.008L79.8709 123.897L79.8055 124.156C79.8055 124.156 88.0579 130.193 88.8337 131.122C89.6087 132.051 89.8234 134.615 88.932 134.717Z" fill="#F7A9A0"/>
<path d="M64.0592 123.042C63.5018 126.292 63.1764 128.732 63.4271 128.967C64.2122 129.743 88.0406 134.819 88.937 134.718C89.8334 134.615 89.6014 132.066 88.835 131.133C88.371 130.561 85.1186 128.105 82.6491 126.265C84.3026 127.603 86.6801 130.803 76.4819 127.529C70.189 125.504 66.2557 123.971 64.0592 123.042Z" fill="#263238"/>
<path d="M97.9514 37.0527C97.9514 37.0527 99.2831 48.4404 96.9343 51.037C96.9343 51.037 93.3163 76.8479 91.8258 84.4043C89.8613 94.3705 81.9293 119.768 81.9293 119.768L64.9375 115.658C64.9375 115.658 75.6737 83.3032 75.7578 82.6524C76.2218 78.9654 79.008 53.3629 78.7854 52.7315C75.8928 44.5682 79.7378 37.0527 79.7378 37.0527H97.9514Z" fill="#37474F"/>
<path d="M81.6042 115.198C79.236 114.549 79.9277 114.687 77.5495 114.07C76.3888 113.769 68.7261 111.785 67.5984 111.748C67.5704 111.748 67.561 111.804 67.5984 111.813C68.6291 112.319 76.3148 114.136 77.4856 114.401C79.8768 114.957 79.1987 114.763 81.6006 115.287C81.6222 115.301 81.6466 115.213 81.6042 115.198Z" fill="#263238"/>
<path d="M79.7837 112.389L84.9295 94.2766L86.2016 89.7449L86.8236 87.473C87.0384 86.7253 87.2058 85.9625 87.325 85.1939C87.789 82.0909 88.1783 78.975 88.5884 75.8634L91.091 57.1994L91.718 52.532L92.0376 50.2112C92.098 49.8162 92.1404 49.4398 92.2101 49.0304C92.2481 48.845 92.2718 48.6568 92.279 48.4694V47.884C92.3444 44.7494 92.3257 41.6054 92.3113 38.4658C92.3825 41.6054 92.46 44.7444 92.4514 47.884V48.478C92.4399 48.6813 92.4169 48.8817 92.3817 49.0821C92.3214 49.4441 92.2747 49.8535 92.218 50.2342L91.912 52.555L91.3129 57.2224L88.9253 75.9051C88.4986 79.0167 88.0806 82.1232 87.6022 85.2305C87.4794 86.0149 87.3063 86.7906 87.0822 87.5527L86.4451 89.8225L85.145 94.347L82.4974 103.384L79.7837 112.389Z" fill="#263238"/>
<path d="M96.9296 51.027C96.9296 51.027 95.5081 61.1742 94.0831 70.6017L79.7324 37.0535H97.951C97.9517 37.0535 99.2784 48.4318 96.9296 51.027Z" fill="#263238"/>
<path d="M126.047 117.567C125.196 117.846 100.831 117.655 99.9106 117.056C99.5579 116.837 102.177 95.1924 102.177 95.1924L117.743 95.8604L114.993 109.068C114.993 109.068 124.283 113.313 125.212 114.075C126.14 114.836 126.892 117.288 126.047 117.567Z" fill="#F7A9A0"/>
<path d="M126.047 117.562C125.671 117.689 120.758 117.721 115.287 117.668H114.2L111.391 117.632L110.304 117.608L109.236 117.585L107.638 117.548L106.639 117.52L105.682 117.492C105.218 117.492 104.753 117.464 104.341 117.441L103.495 117.409C102.966 117.387 102.483 117.359 102.056 117.331C101.837 117.331 101.633 117.303 101.447 117.288C100.982 117.251 100.607 117.215 100.352 117.172C100.214 117.158 100.079 117.125 99.9517 117.069C99.8267 116.995 99.905 114.358 100.058 110.931C102.408 111.483 106.714 112.347 113.294 113.295C124.114 114.851 120.886 111.939 119.053 110.948L118.997 110.922L119.341 111.083L119.401 111.108L120.029 111.409L120.716 111.734C121.092 111.916 121.473 112.097 121.836 112.278C122.198 112.459 122.555 112.625 122.885 112.793L123.46 113.077L123.726 113.215L124.074 113.396C124.315 113.522 124.538 113.638 124.715 113.745C124.76 113.764 124.804 113.787 124.845 113.814C124.993 113.896 125.135 113.988 125.273 114.089C126.158 114.831 126.892 117.288 126.047 117.562Z" fill="#263238"/>
<path d="M117.028 102.999L100.719 103.198C100.719 103.198 104.759 73.6156 104.336 72.2135C104.173 71.6655 84.3672 53.7213 84.3672 53.7213C77.2698 46.7266 79.722 37.0398 79.722 37.0398H97.9499C97.9499 37.0398 98.197 39.8813 99.1538 40.9588C104.634 47.1073 118.616 59.808 120.739 65.4753C123.424 72.5669 117.028 102.999 117.028 102.999Z" fill="#37474F"/>
<path d="M79.7836 43.3184C79.8397 44.4044 80.0401 45.4775 80.3827 46.5083C80.7081 47.5369 81.1362 48.5295 81.6591 49.4712C82.7128 51.3589 84.0151 53.0957 85.5328 54.6357C87.019 56.2087 88.6401 57.659 90.2512 59.1164C91.0593 59.8483 91.8738 60.5687 92.6934 61.2812L95.1507 63.4304C94.2679 62.794 93.4088 62.1216 92.5447 61.458C91.6806 60.7928 90.8546 60.0645 90.0142 59.3907C88.3521 57.998 86.7266 56.5212 85.1988 54.9503C83.6653 53.3751 82.3688 51.5858 81.3488 49.6378C80.3044 47.697 79.7657 45.5228 79.7836 43.3184Z" fill="#263238"/>
<path d="M93.7195 38.4468C93.6821 39.1478 93.7338 39.8489 93.8732 40.5363C93.9357 40.8789 94.0477 41.2093 94.2079 41.516C94.4069 41.8004 94.6439 42.0641 94.8716 42.3284C95.7996 43.3785 96.7291 44.3999 97.7096 45.4263L103.449 51.5749C105.369 53.6227 107.268 55.6849 109.148 57.7658C111.033 59.8459 112.909 61.9455 114.721 64.091C115.185 64.634 115.607 65.1828 116.025 65.7539C116.229 66.0404 116.434 66.3292 116.62 66.6452C116.72 66.8047 116.796 66.9792 116.847 67.161C116.896 67.3348 116.935 67.5115 116.963 67.6903C117.121 69.096 117.153 70.5139 117.056 71.9254C116.916 74.7116 116.628 77.5258 116.285 80.3077C115.593 85.8802 114.72 91.4211 113.735 96.9382C114.172 94.1699 114.578 91.3959 114.952 88.6162C115.342 85.8299 115.703 83.043 116.015 80.256C116.327 77.4698 116.614 74.6829 116.74 71.8966C116.828 70.5039 116.792 69.1047 116.632 67.7169C116.607 67.5503 116.57 67.3836 116.526 67.2213C116.48 67.0669 116.414 66.9203 116.327 66.7846C116.155 66.4922 115.955 66.2085 115.751 65.9262C115.338 65.3681 114.896 64.8258 114.455 64.2871C110.875 59.981 107.024 55.881 103.273 51.748L97.6018 45.5341C96.673 44.489 95.7436 43.4439 94.8148 42.3722C94.5922 42.1028 94.3508 41.8385 94.1655 41.5455C94.0053 41.228 93.8962 40.8882 93.8409 40.5377C93.713 39.8474 93.6728 39.1457 93.7195 38.4468Z" fill="#263238"/>
<path d="M115.756 99.13C113.475 99.0603 114.13 99.0373 111.85 99.0043C110.735 99.0043 103.398 98.8986 102.358 99.1443C102.334 99.1443 102.334 99.2047 102.358 99.209C103.402 99.4503 110.717 99.362 111.85 99.3483C114.13 99.316 113.475 99.288 115.756 99.2226C115.801 99.2233 115.801 99.13 115.756 99.13Z" fill="#263238"/>
<path d="M98.9634 34.174L98.0626 37.0536C98.0626 37.0536 85.7649 38.358 79.7837 37.0536C79.7837 37.0536 84.0051 22.4379 90.9286 18.3982C94.385 16.3784 97.3659 17.5248 98.7034 20.0891C99.0431 20.7384 101.49 26.9767 101.49 29.5949C101.485 32.3725 98.9634 34.174 98.9634 34.174Z" fill="#FFC727"/>
<path d="M96.372 32.0434C95.3844 32.1418 94.4054 32.3106 93.4414 32.5491C92.9767 32.6798 92.5127 32.8285 92.0479 32.9858C91.8109 33.0641 91.5839 33.1345 91.3433 33.2035C91.0991 33.2832 90.8463 33.3335 90.5905 33.3521L96.372 32.0434ZM90.5898 33.3902C90.8326 33.4075 91.0768 33.4075 91.3196 33.3902C91.5531 33.3636 91.7844 33.3177 92.0113 33.2552C92.4753 33.1295 92.9767 32.9858 93.4608 32.8551C94.4355 32.5958 95.4109 32.3343 96.405 32.1454C96.4331 32.1174 96.4187 32.0377 96.3727 32.0427L90.5898 33.3902Z" fill="#263238"/>
<path d="M98.824 32.8968C98.0094 32.8214 97.1913 32.7891 96.3725 32.7992C95.9595 32.7992 95.555 32.8422 95.1463 32.8825L94.5609 32.9572C94.3519 32.9852 94.1386 33.0405 93.9253 33.0685V33.1008H94.5329H95.1463L96.3725 33.0599C97.1899 33.0269 98.0023 32.9995 98.8197 32.9895C98.8699 32.9629 98.8656 32.9026 98.824 32.8968Z" fill="#263238"/>
<path d="M90.2887 18.8255C81.8956 23.7443 74.1726 30.0358 74.0347 33.0081C73.8716 37.0111 77.82 45.6075 80.2794 49.8799C81.0049 51.1383 90.6594 45.3159 89.888 43.9691C88.9592 42.3472 84.0009 34.0252 83.9578 33.8442C83.8745 33.4491 90.3663 24.3384 91.9739 22.2015C94.6868 18.6316 94.0037 16.6434 90.2887 18.8255Z" fill="#F7A9A0"/>
<path d="M96.9754 56.0055C96.5186 56.5636 95.7622 56.7769 95.0806 56.5391C95.0245 57.1346 94.7624 57.6927 94.3379 58.1143C93.5578 58.8247 92.104 57.9096 92.104 57.9096C91.9172 58.5137 91.553 59.0474 91.0596 59.4417C90.2422 60.0458 88.644 59.3311 88.644 59.3311C88.1635 59.7923 87.5343 60.0645 86.8706 60.1011C85.0964 60.1291 83.6196 57.845 82.6908 56.3861C81.7614 54.928 80.3973 49.9683 80.0439 49.0446L89.243 42.8723C89.243 42.8723 95.3413 48.1244 96.2097 49.9776C96.9395 51.5571 97.7935 54.9338 96.9754 56.0055Z" fill="#F7A9A0"/>
<path d="M95.1879 56.3769C94.8022 54.5194 93.8907 52.8932 93.0747 51.2139C93.0747 51.1765 92.9964 51.2139 93.0144 51.2455C93.8455 52.9083 94.3375 54.7155 95.1039 56.4056C95.119 56.4257 95.1484 56.4301 95.1693 56.4157C95.1807 56.4056 95.1879 56.3927 95.1879 56.3769Z" fill="#263238"/>
<path d="M92.2063 57.7985C92.0777 57.3869 91.8967 56.994 91.6676 56.6277C91.4435 56.2283 91.2035 55.8347 90.9852 55.4447C90.5204 54.6546 90.0564 53.8846 89.5314 53.1225C89.5091 53.0894 89.4531 53.1225 89.4753 53.1498C89.9401 53.9349 90.4041 54.725 90.8178 55.5287C91.0311 55.9288 91.2459 56.3318 91.4549 56.7369C91.6252 57.1319 91.8406 57.5076 92.0956 57.8553C92.12 57.8811 92.1617 57.8825 92.1876 57.8581C92.2027 57.8423 92.2106 57.8193 92.2063 57.7985Z" fill="#263238"/>
<path d="M88.626 59.298C88.5038 58.9274 88.32 58.5819 88.0822 58.2716C87.8632 57.9189 87.6462 57.567 87.4322 57.2093C86.9998 56.4989 86.5688 55.7878 86.1594 55.0594C86.1594 55.0221 86.0854 55.0594 86.1048 55.0867C86.5128 55.8302 86.9129 56.5722 87.3252 57.3113L87.9673 58.416C88.1282 58.7615 88.348 59.0754 88.6166 59.3447C88.6166 59.344 88.6303 59.3167 88.626 59.298Z" fill="#263238"/>
<path d="M86.6155 37.9822L75.7629 42.5512C75.7629 42.5512 73.185 34.7226 74.1367 32.205C75.0891 29.6874 82.7892 22.6841 88.71 19.4065C94.6308 16.1276 95.3606 18.1431 91.2829 23.684C87.2052 29.2241 84.317 33.6221 84.4053 33.7938C84.4922 33.9648 86.6155 37.9822 86.6155 37.9822Z" fill="#FFC727"/>
<path d="M84.8869 35.9111C84.9192 35.9111 84.8868 35.8363 84.8588 35.8507C81.7034 36.9662 78.6133 38.2527 75.598 39.705C75.5656 39.705 75.598 39.7754 75.626 39.7654C78.7807 38.6499 81.8722 37.3634 84.8869 35.9111Z" fill="#263238"/>
<path d="M86.6151 37.9823C86.2115 37.305 85.8214 36.6212 85.4314 35.9388L84.2749 33.8766L84.252 33.8026L84.3029 33.7279L85.9133 31.3095C86.4521 30.5014 87.0102 29.7077 87.5575 28.9075C88.1063 28.1095 88.6673 27.3144 89.2297 26.53C89.7914 25.7449 90.3674 24.9555 90.9485 24.2078C90.4421 25.0345 89.9314 25.8613 89.4071 26.6744C88.8827 27.4875 88.3577 28.3041 87.8139 29.1086C87.2702 29.9117 86.7501 30.7248 86.1978 31.5228L84.5493 33.9147V33.766L85.6081 35.8742C85.9363 36.5479 86.2854 37.2576 86.6151 37.9823Z" fill="#263238"/>
<path d="M89.3599 26.5114C89.566 26.2176 89.8045 25.9468 90.0695 25.7033C90.331 25.4562 90.6126 25.2321 90.9106 25.0295C90.8259 25.1962 90.721 25.3528 90.5989 25.4936C90.4832 25.63 90.3619 25.76 90.2319 25.8843C89.9682 26.1292 89.6745 26.3397 89.3599 26.5114Z" fill="#263238"/>
<path d="M94.0728 17.9017C94.118 18.3097 95.6982 21.116 97.5184 21.2496C98.1131 21.292 98.4923 18.064 98.4923 18.064L98.5764 17.8313L99.7285 14.581L96.1163 11.5851L95.5862 11.1814C95.5862 11.1814 95.3319 12.1094 95.0194 13.2292L94.9785 13.393C94.9785 13.4577 94.9411 13.5137 94.9225 13.574L94.7831 14.089C94.7458 14.2241 94.7135 14.349 94.6811 14.4884L94.5835 14.9064C94.3471 15.8919 94.1762 16.8932 94.0728 17.9017Z" fill="#F7A9A0"/>
<path d="M95.02 13.2292C95.4783 15.2096 96.7762 16.8903 98.5777 17.8313L99.7291 14.581L96.1161 11.5858L95.5874 11.1814C95.5867 11.1814 95.331 12.0915 95.02 13.2292Z" fill="#263238"/>
<path d="M104.754 8.82697C105.683 14.8031 102.209 16.0386 100.918 16.2576C99.7475 16.4394 95.7394 16.9026 94.1937 11.0565C92.6472 5.20966 95.1224 2.88314 97.788 2.32575C100.454 1.76836 103.821 2.8458 104.754 8.82697Z" fill="#F7A9A0"/>
<path d="M103.399 7.33136H102.981C102.832 7.34213 102.684 7.30478 102.558 7.22505C102.487 7.15753 102.471 7.05122 102.516 6.96503C102.635 6.81203 102.827 6.73517 103.018 6.76031C103.212 6.75959 103.401 6.83143 103.547 6.96001C103.627 7.05698 103.614 7.19991 103.518 7.28107C103.484 7.30909 103.442 7.32561 103.399 7.33136Z" fill="#263238"/>
<path d="M99.5342 8.47856C99.6735 8.47497 99.8143 8.46349 99.9522 8.44625C100.1 8.45774 100.247 8.4175 100.37 8.33562C100.44 8.26594 100.454 8.16107 100.408 8.0756C100.288 7.9226 100.093 7.84718 99.9012 7.88022C99.7065 7.88381 99.5191 7.95709 99.3769 8.08925C99.2899 8.18407 99.295 8.32988 99.3891 8.41751C99.4279 8.45486 99.4803 8.47569 99.5342 8.47856Z" fill="#263238"/>
<path d="M100.622 9.67676C100.622 9.67676 100.593 9.70477 100.599 9.71985C100.682 10.1235 100.714 10.5969 100.37 10.8009C100.815 10.6759 100.765 10.0445 100.622 9.67676Z" fill="#263238"/>
<path d="M100.184 9.31929C99.5206 9.3904 99.7203 10.712 100.319 10.6438C100.918 10.5734 100.737 9.2647 100.184 9.31929Z" fill="#263238"/>
<path d="M99.9343 9.42612C99.828 9.51375 99.7346 9.66244 99.5996 9.69548C99.4646 9.72852 99.2979 9.61718 99.1772 9.49651C99.2096 9.75078 99.3439 9.99213 99.6183 9.99213C99.8912 9.99213 100.018 9.74575 100.046 9.48143C100.04 9.45341 99.9753 9.38877 99.9343 9.42612Z" fill="#263238"/>
<path d="M102.827 9.22144C102.827 9.22144 102.86 9.22144 102.86 9.24945C102.901 9.66246 103.018 10.1236 103.408 10.2112C102.966 10.2292 102.827 9.61721 102.827 9.22144Z" fill="#263238"/>
<path d="M103.153 8.72498C103.803 8.59066 104.03 9.9008 103.426 10.0265C102.823 10.15 102.605 8.8593 103.153 8.72498Z" fill="#263238"/>
<path d="M103.44 8.78527C103.556 8.83626 103.682 8.94402 103.802 8.92893C103.923 8.91528 104.029 8.75293 104.099 8.60425H104.123C104.172 8.85565 104.123 9.12932 103.899 9.21767C103.676 9.3053 103.491 9.11423 103.389 8.87361C103.37 8.84056 103.394 8.76228 103.44 8.78527Z" fill="#263238"/>
<path d="M101.095 12.904C101.201 12.988 101.309 13.113 101.462 13.113C101.615 13.0943 101.762 13.0426 101.894 12.9643C101.894 12.9643 101.918 12.9643 101.894 12.9643C101.789 13.1396 101.596 13.2437 101.393 13.2336C101.222 13.1999 101.082 13.0728 101.036 12.904C101.036 12.8889 101.049 12.8738 101.066 12.8738C101.081 12.8738 101.095 12.8889 101.095 12.904Z" fill="#263238"/>
<path d="M102.571 11.1678C102.571 11.1678 102.748 11.7619 102.789 12.0506C102.789 12.0786 102.729 12.1016 102.631 12.1203C102.146 12.2826 101.611 12.1648 101.239 11.8136C101.216 11.7899 101.239 11.7525 101.276 11.7676C101.68 11.9623 102.137 12.0219 102.577 11.9343C102.577 11.8509 102.242 10.9265 102.285 10.9172C102.512 10.9021 102.739 10.9172 102.962 10.9639C102.628 9.71475 102.099 8.52457 101.782 7.27547C101.782 7.23022 101.838 7.20578 101.856 7.24314C102.464 8.4987 102.945 9.81101 103.291 11.1628C103.315 11.3216 102.692 11.1951 102.571 11.1678Z" fill="#263238"/>
<path d="M94.1984 11.5111C95.2299 11.4738 95.2256 9.30167 95.2256 9.30167C95.2256 9.30167 97.3057 9.07327 97.6491 6.00906C97.6936 6.91123 97.471 7.80621 97.0084 8.58196C97.0084 8.58196 100.631 7.7782 101.829 4.53586C101.829 4.53586 101.365 6.17068 100.877 6.78912C101.774 6.40196 102.513 5.72031 102.972 4.85693C102.972 4.85693 103.817 6.55208 104.364 6.98377C104.364 6.98377 103.487 0.590303 97.6211 1.94571C97.6211 1.94571 93.9284 2.6094 92.9256 5.70665C91.9229 8.80318 94.1984 11.5111 94.1984 11.5111Z" fill="#263238"/>
<path d="M95.396 11.2506C95.396 11.2506 94.0348 9.39309 93.1908 9.85854C92.3454 10.3226 93.3898 13.0621 94.4033 13.4162C94.9248 13.6382 95.5274 13.3954 95.7501 12.8746C95.7551 12.8624 95.7594 12.8516 95.7644 12.8401L95.396 11.2506Z" fill="#F7A9A0"/>
<path d="M93.5391 10.6516V10.6796C94.2107 10.9849 94.7185 11.5631 94.9311 12.2678C94.7702 12.0041 94.424 11.9201 94.1604 12.0803C94.1345 12.0961 94.1101 12.1133 94.0864 12.1334V12.1701C94.3385 12.0832 94.6179 12.1651 94.7831 12.3748C94.9167 12.5472 95.0317 12.7318 95.1272 12.9279C95.1602 12.9932 95.2759 12.9552 95.2486 12.8819C95.2155 11.9761 94.4908 10.7227 93.5391 10.6516Z" fill="#263238"/>
<path d="M98.4939 18.1195L97.1241 20.6652L94.1943 16.9495L93.1348 17.9249C93.1348 17.9249 95.773 23.6374 95.8183 23.4004L97.1751 21.2269L98.5679 23.0017L98.8933 18.9786L98.4939 18.1195Z" fill="white"/>
<path d="M98.8524 20.9999C98.8804 20.3304 98.9307 19.6624 98.9307 18.9987C98.9307 18.9757 98.8941 18.9556 98.889 18.9987C98.685 19.6251 98.578 22.17 98.5076 22.774C98.448 22.695 97.1939 21.2032 97.1802 21.2233C96.9015 21.5616 95.9074 23.1404 95.8378 23.2898C95.4204 22.361 93.8043 19.0684 93.2886 18.1806C93.2886 18.1533 93.2376 18.1806 93.2455 18.1806C93.5989 19.1101 95.7257 23.5828 95.7681 23.5728C96.2816 22.8236 96.7557 22.0493 97.1895 21.252C97.6334 21.9135 98.1233 22.5435 98.657 23.1375C98.7583 22.4271 98.8229 21.7138 98.8524 20.9999Z" fill="#263238"/>
</svg>
