<svg width="176" height="180" viewBox="0 0 176 180" fill="none" xmlns="http://www.w3.org/2000/svg">
<g opacity="0.6">
<g opacity="0.6">
<path opacity="0.6" d="M91.6793 141.373C93.0713 141.373 94.1996 142.501 94.1996 143.893C94.1996 145.285 93.0713 146.412 91.6793 146.412C90.2884 146.412 89.1602 145.285 89.1602 143.893C89.1602 142.5 90.2884 141.373 91.6793 141.373Z" fill="#FFC727"/>
</g>
</g>
<g opacity="0.6">
<g opacity="0.6">
<path opacity="0.6" d="M97.2614 139.085C97.2614 139.765 96.7114 140.316 96.0306 140.316C95.3517 140.316 94.7998 139.764 94.7998 139.085C94.7998 138.406 95.3507 137.855 96.0306 137.855C96.7105 137.855 97.2614 138.406 97.2614 139.085Z" fill="#FFC727"/>
</g>
</g>
<g opacity="0.6">
<g opacity="0.6">
<path opacity="0.6" d="M151.135 142.676C151.133 143.353 150.582 143.9 149.905 143.898C149.228 143.895 148.68 143.344 148.684 142.667C148.686 141.992 149.234 141.446 149.91 141.446C150.584 141.443 151.133 141.988 151.135 142.662C151.136 142.666 151.135 142.672 151.135 142.676Z" fill="#FFC727"/>
</g>
</g>
<g opacity="0.6">
<g opacity="0.6">
<path opacity="0.6" d="M175.715 153.881C175.715 154.56 175.164 155.111 174.484 155.111C173.804 155.111 173.252 154.56 173.252 153.881C173.252 153.201 173.804 152.65 174.484 152.65C175.164 152.65 175.715 153.202 175.715 153.881Z" fill="#FFC727"/>
</g>
</g>
<path d="M173.833 157.49C173.833 158.298 173.178 158.953 172.37 158.953H81.1224C80.3146 158.953 79.6592 158.298 79.6592 157.49C79.6592 156.683 80.3146 156.027 81.1224 156.027C81.2387 156.027 81.3549 156.041 81.4682 156.068C81.4721 154.473 82.7684 153.183 84.3645 153.187C85.1372 153.188 85.8766 153.499 86.4178 154.05H86.4452C86.4266 153.871 86.4178 153.692 86.4178 153.513C86.4334 150.492 88.896 148.057 91.9153 148.074C92.73 148.078 93.532 148.264 94.2646 148.618C94.3857 146.476 96.2221 144.836 98.3633 144.958C99.8871 145.044 101.219 146.012 101.769 147.433C102.77 145.853 104.508 144.893 106.379 144.891C106.731 144.892 107.08 144.926 107.423 144.991C106.701 140.984 109.366 137.15 113.373 136.428C115.562 136.036 117.81 136.65 119.495 138.102C119.748 137.616 120.248 137.311 120.794 137.308C120.985 137.309 121.179 137.346 121.358 137.418L122.725 100.827H130.763L132.13 137.418C132.308 137.346 132.499 137.309 132.691 137.308C133.237 137.309 133.739 137.615 133.989 138.102C137.079 135.447 141.738 135.8 144.391 138.891C145.828 140.563 146.441 142.788 146.063 144.96C146.408 144.893 146.758 144.859 147.107 144.858C148.978 144.861 150.718 145.821 151.718 147.402C152.494 145.4 154.746 144.406 156.748 145.182C158.169 145.733 159.137 147.064 159.223 148.587C161.924 147.262 165.185 148.379 166.509 151.08C166.876 151.826 167.066 152.648 167.064 153.481C167.075 153.659 167.075 153.839 167.064 154.018C168.183 152.88 170.014 152.866 171.151 153.984C171.7 154.526 172.012 155.265 172.014 156.037C172.129 156.009 172.247 155.996 172.365 155.996C173.171 155.993 173.829 156.645 173.832 157.453V157.49H173.833Z" fill="#DBD9D9"/>
<path d="M108.07 55.9434C107.679 55.9434 92.9873 62.7234 92.1218 79.4192C91.3198 94.7709 101.932 109.348 103.303 108.382C104.981 107.197 102.128 97.6369 105.391 86.6965C106.544 82.8185 111.602 79.3733 111.602 79.3733L108.07 55.9434Z" fill="white"/>
<path d="M103.148 108.655C102.977 108.647 102.811 108.595 102.666 108.505C100.11 107.093 91.1461 93.7179 91.8943 79.4056C92.2362 72.5376 95.1666 66.0545 100.096 61.2612C103.983 57.4194 107.77 55.7158 108.053 55.7158H108.253L108.278 55.9112L111.834 79.4837L111.748 79.5697C111.696 79.6019 106.735 83.0101 105.62 86.7649C103.683 93.2403 103.901 99.2506 104.047 103.264C104.152 106.241 104.217 108.04 103.436 108.592C103.348 108.641 103.249 108.663 103.148 108.655ZM107.889 56.2531C106.066 57.1097 93.1563 63.8859 92.3456 79.4242C91.6257 93.295 100.465 106.764 102.889 108.095C103.076 108.2 103.163 108.19 103.173 108.187C103.756 107.776 103.683 105.781 103.592 103.247C103.446 99.2282 103.227 93.1484 105.173 86.6233C106.253 82.9778 110.567 79.8207 111.356 79.2601L107.889 56.2531Z" fill="#263238"/>
<g opacity="0.1">
<g opacity="0.1">
<path opacity="0.1" d="M111.606 79.3733C110.124 80.4263 108.775 81.6493 107.582 83.0188C105.395 78.1386 101.321 69.0347 98.6865 63.1376C102.993 58.1617 107.846 55.9658 108.07 55.9658L111.606 79.3733Z" fill="black"/>
</g>
</g>
<path d="M145.468 55.9709C145.863 55.9709 160.542 62.7745 161.389 79.4702C162.164 94.8209 151.528 109.38 150.161 108.414C148.489 107.229 151.35 97.6742 148.106 86.729C146.956 82.8461 141.904 79.397 141.904 79.397L145.468 55.9709Z" fill="white"/>
<path d="M150.301 108.686C150.199 108.688 150.098 108.658 150.013 108.6C149.236 108.049 149.299 106.249 149.414 103.273C149.563 99.2817 149.788 93.2488 147.873 86.792C146.761 83.0372 141.808 79.6193 141.757 79.5831L141.64 79.505V79.3643L145.235 55.7419H145.467C145.75 55.7419 149.537 57.4514 153.42 61.2971C158.352 66.0933 161.284 72.5823 161.621 79.4552C162.35 93.7675 153.365 107.132 150.809 108.541C150.653 108.632 150.479 108.681 150.301 108.686ZM142.135 79.292C142.925 79.8527 147.235 83.0381 148.31 86.6651C150.246 93.1902 150.017 99.2689 149.868 103.292C149.771 105.821 149.7 107.817 150.278 108.227C150.278 108.227 150.375 108.227 150.561 108.141C152.984 106.806 161.849 93.3543 161.146 79.4835C160.358 63.9404 147.477 57.1554 145.654 56.2899L142.135 79.292Z" fill="#263238"/>
<path d="M158.754 69.0896C157.492 69.3172 156.08 69.7411 155.287 70.5206C153.592 72.1695 155.793 81.3018 152.748 82.6136C149.704 83.9265 151.222 80.4813 148.884 80.9365C147.818 81.1562 147.308 82.7279 146.879 84.2723C145.481 82.3841 143.79 80.7333 141.866 79.3833L145.466 55.9709C145.75 55.9709 154.289 59.8938 158.754 69.0896Z" fill="#FFC727"/>
<g opacity="0.1">
<g opacity="0.1">
<path opacity="0.1" d="M154.881 63.216L145.978 83.106C144.762 81.712 143.385 80.4666 141.877 79.397L145.468 55.9709C145.677 55.9709 150.571 58.1942 154.881 63.216Z" fill="black"/>
</g>
</g>
<path d="M137.87 94.3518H115.707C115.707 94.3518 105.263 75.6692 106.502 53.4231C107.126 42.3148 110.029 31.1273 113.524 21.8729C118.331 9.08636 124.278 0 126.857 0C129.436 0 135.364 9.08246 140.167 21.8729C143.64 31.1322 146.546 42.3236 147.133 53.4329C148.337 75.6965 137.87 94.3518 137.87 94.3518Z" fill="#DBD9D9"/>
<path d="M140.087 50.5571C140.081 57.6165 134.355 63.3348 127.294 63.3299C120.236 63.3241 114.518 57.598 114.523 50.5385C114.528 43.48 120.254 37.7607 127.314 37.7666H127.328C134.38 37.7813 140.089 43.5044 140.087 50.5571Z" fill="#C7C7C7"/>
<path d="M139.63 49.258C139.625 56.3174 133.898 62.0357 126.838 62.0308C119.779 62.026 114.062 56.2989 114.067 49.2394C114.072 42.1809 119.799 36.4626 126.858 36.4675H126.871C133.918 36.4675 139.63 42.18 139.63 49.2258V49.258Z" fill="#FFC727"/>
<path d="M135.716 49.2452C135.718 54.142 131.749 58.1147 126.853 58.1177C121.956 58.1196 117.984 54.1518 117.981 49.254C117.979 44.3572 121.946 40.3845 126.844 40.3826H126.849C131.744 40.3816 135.713 44.3494 135.716 49.2452Z" fill="white"/>
<path d="M135.716 49.2452C135.719 50.3442 135.515 51.4343 135.115 52.458L130.065 57.5111C128.282 58.1997 126.322 58.2955 124.479 57.7846L135.388 46.8755C135.607 47.6462 135.717 48.4443 135.716 49.2452Z" fill="#DBD9D9"/>
<path d="M128.152 40.4783L118.08 50.5483C118.017 50.1185 117.985 49.6848 117.985 49.2492C117.985 44.3524 121.955 40.3826 126.852 40.3826C127.287 40.3835 127.722 40.4168 128.152 40.4783Z" fill="#DBD9D9"/>
<path d="M134.608 44.9394L122.56 56.9865C122.327 56.8595 122.1 56.7198 121.881 56.5674L134.184 44.2654C134.34 44.4832 134.476 44.7196 134.608 44.9394Z" fill="#DBD9D9"/>
<path d="M140.169 21.8778H113.526C118.333 9.09124 124.279 0.00488281 126.859 0.00488281C129.437 0.00488281 135.366 9.08538 140.169 21.8778Z" fill="#FFC727"/>
<path d="M118.126 19.1064C118.126 19.5186 117.791 19.8537 117.378 19.8537C116.966 19.8537 116.631 19.5186 116.631 19.1064C116.631 18.6942 116.966 18.3591 117.378 18.3591C117.792 18.3591 118.126 18.6942 118.126 19.1064Z" fill="white"/>
<path d="M122.852 19.1115C122.852 19.5247 122.517 19.8588 122.103 19.8588C121.692 19.8588 121.357 19.5247 121.357 19.1115C121.357 18.6993 121.692 18.3643 122.103 18.3643C122.514 18.3613 122.85 18.6925 122.852 19.1027V19.1115Z" fill="white"/>
<path d="M127.592 19.1152C127.592 19.5274 127.257 19.8624 126.843 19.8624C126.431 19.8624 126.096 19.5274 126.096 19.1152C126.096 18.703 126.431 18.3679 126.843 18.3679H126.848C127.259 18.3679 127.592 18.7 127.592 19.1103V19.1152Z" fill="white"/>
<path d="M132.33 19.1203C132.33 19.5325 131.995 19.8676 131.581 19.8676C131.169 19.8676 130.835 19.5325 130.835 19.1203C130.835 18.7071 131.169 18.373 131.581 18.373H131.586C131.997 18.373 132.33 18.7052 132.33 19.1154V19.1203Z" fill="white"/>
<path d="M137.069 19.1203C137.069 19.5325 136.735 19.8676 136.321 19.8676C135.909 19.8676 135.575 19.5325 135.575 19.1203C135.575 18.7071 135.909 18.373 136.321 18.373H136.327C136.737 18.373 137.069 18.7052 137.069 19.1154V19.1203Z" fill="white"/>
<path d="M118.081 90.9299C118.081 91.3431 117.747 91.6771 117.333 91.6771C116.92 91.6771 116.586 91.3431 116.586 90.9299C116.586 90.5177 116.92 90.1826 117.333 90.1826C117.748 90.1816 118.081 90.5177 118.081 90.9299Z" fill="#C7C7C7"/>
<path d="M122.82 90.9338C122.82 91.346 122.486 91.6811 122.072 91.6811C121.66 91.6811 121.325 91.346 121.325 90.9338C121.326 90.5216 121.66 90.1865 122.072 90.1865H122.078C122.488 90.1865 122.82 90.5186 122.82 90.9289V90.9338Z" fill="#C7C7C7"/>
<path d="M127.559 90.9614C127.559 91.3746 127.224 91.7086 126.811 91.7086C126.399 91.7086 126.064 91.3746 126.064 90.9614C126.064 90.5492 126.399 90.2141 126.811 90.2141H126.817C127.227 90.2141 127.559 90.5472 127.559 90.9575V90.9614Z" fill="#C7C7C7"/>
<path d="M132.298 90.9614C132.298 91.3746 131.963 91.7086 131.55 91.7086C131.137 91.7086 130.802 91.3746 130.802 90.9614C130.802 90.5492 131.137 90.2141 131.55 90.2141H131.553C131.965 90.2141 132.298 90.5472 132.298 90.9575V90.9614Z" fill="#C7C7C7"/>
<path d="M137.043 90.9614C137.043 91.3746 136.708 91.7086 136.294 91.7086C135.882 91.7086 135.547 91.3746 135.547 90.9614C135.547 90.5492 135.882 90.2141 136.294 90.2141C136.706 90.217 137.04 90.5501 137.043 90.9614Z" fill="#C7C7C7"/>
<path d="M135.824 101.014L117.798 101L116.96 94.342L136.678 94.3567L135.824 101.014Z" fill="#FFC727"/>
<g opacity="0.1">
<g opacity="0.1">
<path opacity="0.1" d="M136.673 94.3567L136.257 97.6007L117.278 96.8906L116.959 94.343L136.673 94.3567Z" fill="black"/>
</g>
</g>
<g opacity="0.5">
<g opacity="0.5">
<path opacity="0.5" d="M126.092 3.77734C124.425 7.3818 122.816 10.9814 121.267 14.6083C120.52 16.432 119.732 18.2538 119.034 20.0775L118.487 21.4441C118.303 21.8993 118.14 22.3554 117.963 22.8106C117.626 23.722 117.262 24.6334 116.947 25.5721L115.963 28.3472C115.63 29.2586 115.37 30.2159 115.051 31.1458L114.594 32.5446L114.189 33.9571L113.783 35.3735C113.648 35.8297 113.484 36.3083 113.373 36.786C112.353 40.5819 111.55 44.4237 110.905 48.3466C110.833 44.3573 111.197 40.3728 111.988 36.4626C112.172 35.4829 112.417 34.5168 112.649 33.542L113 32.0885L113.405 30.6486C113.689 29.6913 113.956 28.7302 114.277 27.7875L115.238 24.9528C115.57 24.0141 115.953 23.0929 116.308 22.164C116.664 21.2341 117.036 20.3325 117.443 19.4211C117.849 18.5097 118.241 17.5983 118.672 16.687C119.106 15.7756 119.516 14.8642 119.981 14.0076C121.754 10.4471 123.797 7.02722 126.092 3.77734Z" fill="white"/>
</g>
</g>
<path d="M150.639 145.26L148.863 145.588L148.465 147.455L148.07 145.588L146.296 145.255L148.065 144.827L148.465 143.059L148.87 144.827L150.639 145.26Z" fill="#FCFCFC"/>
<path d="M133.382 130.264L131.611 130.587L131.213 132.46L130.817 130.587L129.044 130.259L130.809 129.831L131.213 128.063L131.614 129.831L133.382 130.264Z" fill="#FCFCFC"/>
<path d="M125.404 112.282L123.627 112.611L123.23 114.479L122.835 112.611L121.061 112.282L122.83 111.851L123.23 110.082L123.635 111.851L125.404 112.282Z" fill="#FCFCFC"/>
<path d="M107.601 148.819L106.611 149.002L106.389 150.049L106.17 149.002L105.176 148.819L106.164 148.577L106.389 147.588L106.617 148.577L107.601 148.819Z" fill="#FCFCFC"/>
<path d="M160.951 151.935L159.961 152.118L159.739 153.166L159.514 152.118L158.527 151.935L159.511 151.694L159.739 150.709L159.966 151.694L160.951 151.935Z" fill="#FCFCFC"/>
<path d="M93.9581 155.598L92.9647 155.781L92.7459 156.829L92.5212 155.781L91.5347 155.598L92.5173 155.357L92.7459 154.368L92.9676 155.357L93.9581 155.598Z" fill="#FCFCFC"/>
<path d="M137.088 154.729L136.093 154.914L135.875 155.959L135.652 154.914L134.658 154.729L135.647 154.487L135.875 153.503L136.098 154.487L137.088 154.729Z" fill="#FCFCFC"/>
<path d="M129.829 127.42L128.834 127.603L128.617 128.646L128.393 127.603L127.404 127.416L128.388 127.179L128.617 126.19L128.839 127.179L129.829 127.42Z" fill="#FCFCFC"/>
<path d="M163.297 154.195C163.139 154.195 163.01 154.324 163.01 154.483C163.01 154.641 163.139 154.77 163.297 154.77C163.456 154.77 163.585 154.641 163.585 154.483C163.585 154.324 163.457 154.195 163.297 154.195Z" fill="#FCFCFC"/>
<path d="M125.992 123.793C125.834 123.793 125.705 123.922 125.705 124.08C125.705 124.239 125.834 124.367 125.992 124.367C126.151 124.367 126.279 124.239 126.279 124.08C126.279 123.921 126.151 123.793 125.992 123.793Z" fill="#FCFCFC"/>
<path d="M101.472 155.598C101.314 155.598 101.185 155.727 101.185 155.886C101.185 156.045 101.314 156.173 101.472 156.173C101.63 156.173 101.759 156.045 101.759 155.886C101.759 155.727 101.631 155.598 101.472 155.598Z" fill="#FCFCFC"/>
<path d="M119.686 151.648C119.527 151.648 119.398 151.777 119.398 151.935C119.398 152.093 119.527 152.222 119.686 152.222C119.844 152.222 119.973 152.093 119.973 151.935C119.973 151.777 119.844 151.648 119.686 151.648Z" fill="#FCFCFC"/>
<path d="M156.098 149.028C155.986 149.046 155.909 149.149 155.926 149.262C155.939 149.35 156.009 149.42 156.098 149.433C156.21 149.417 156.286 149.312 156.27 149.201C156.257 149.112 156.187 149.042 156.098 149.028Z" fill="#FCFCFC"/>
<path d="M130.973 145.98C130.861 145.996 130.784 146.101 130.8 146.212C130.814 146.301 130.884 146.371 130.973 146.385C131.083 146.368 131.16 146.264 131.146 146.152C131.132 146.063 131.062 145.994 130.973 145.98Z" fill="#FCFCFC"/>
<path d="M112.582 141.997C112.47 142.014 112.392 142.118 112.409 142.23C112.423 142.318 112.492 142.389 112.582 142.402C112.693 142.385 112.769 142.281 112.754 142.169C112.74 142.08 112.67 142.012 112.582 141.997Z" fill="#FCFCFC"/>
<path d="M144.046 142.836C143.741 142.836 143.495 143.082 143.495 143.387C143.495 143.692 143.741 143.939 144.046 143.939C144.35 143.939 144.595 143.692 144.595 143.387C144.595 143.082 144.35 142.836 144.046 142.836Z" fill="#FCFCFC"/>
<path d="M115.188 140.138C114.883 140.138 114.637 140.385 114.637 140.689C114.637 140.994 114.883 141.241 115.188 141.241C115.493 141.241 115.738 140.994 115.738 140.689C115.738 140.385 115.492 140.138 115.188 140.138Z" fill="#FCFCFC"/>
<path d="M38.8936 99.8512C38.9111 105.293 43.3351 109.692 48.776 109.675C54.2179 109.659 58.6165 105.235 58.6008 99.7936C58.5842 94.3634 54.1788 89.9697 48.7477 89.9697C43.3068 89.9697 38.8936 94.381 38.8936 99.8229V99.8512ZM44.1576 99.8512C44.14 97.291 46.205 95.2016 48.7652 95.1859C51.3264 95.1703 53.4149 97.2324 53.4305 99.7936C53.4461 102.355 51.3822 104.443 48.8219 104.459H48.7946C46.2441 104.459 44.1732 102.401 44.1576 99.8512Z" fill="white"/>
<path d="M46.8696 90.3821H50.6665L50.4575 87.6929H47.0787L46.8696 90.3821Z" fill="white"/>
<path d="M54.103 91.6626L56.7863 94.3459L58.5368 92.2995L56.1494 89.9121L54.103 91.6626Z" fill="white"/>
<path d="M58.3052 97.679V101.475L60.9943 101.266V97.887L58.3052 97.679Z" fill="white"/>
<path d="M57.0295 104.906L54.3403 107.595L56.3926 109.346L58.78 106.958L57.0295 104.906Z" fill="white"/>
<path d="M51.0083 109.113H47.2124L47.4214 111.802H50.7993L51.0083 109.113Z" fill="white"/>
<path d="M43.7809 107.839L41.0976 105.149L39.3413 107.202L41.7277 109.589L43.7809 107.839Z" fill="white"/>
<path d="M39.5725 101.816V98.0205L36.8833 98.2286V101.607L39.5725 101.816Z" fill="white"/>
<path d="M40.854 94.5891L43.5373 91.9057L41.4899 90.1494L39.1035 92.5368L40.854 94.5891Z" fill="white"/>
<path d="M50.9955 97.6203L47.9547 96.8027L45.7227 99.0348L46.5403 102.078L49.5831 102.894L51.8141 100.669L50.9955 97.6203ZM48.7703 100.825C48.2174 100.828 47.7662 100.382 47.7623 99.8279C47.7593 99.2751 48.2057 98.8228 48.7596 98.8199C49.3134 98.8169 49.7647 99.2633 49.7676 99.8172V99.8279C49.7676 100.379 49.3203 100.825 48.7703 100.825Z" fill="white"/>
<path d="M34.0437 130.61C34.0271 136.052 38.4257 140.477 43.8676 140.492C49.3085 140.508 53.7344 136.11 53.7481 130.668C53.7657 125.227 49.3671 120.802 43.9253 120.786H43.8607C38.4443 120.805 34.0594 125.194 34.0437 130.61ZM36.1361 130.61C36.1361 126.341 39.5979 122.879 43.8676 122.879C48.1373 122.879 51.5981 126.341 51.5981 130.61C51.5981 134.881 48.1373 138.342 43.8676 138.342H43.8607C39.594 138.339 36.1361 134.878 36.1361 130.61ZM34.0437 130.61C34.0271 136.052 38.4257 140.477 43.8676 140.492C49.3085 140.508 53.7344 136.11 53.7481 130.668C53.7657 125.227 49.3671 120.802 43.9253 120.786H43.8607C38.4443 120.805 34.0594 125.194 34.0437 130.61ZM36.1361 130.61C36.1361 126.341 39.5979 122.879 43.8676 122.879C48.1373 122.879 51.5981 126.341 51.5981 130.61C51.5981 134.881 48.1373 138.342 43.8676 138.342H43.8607C39.594 138.339 36.1361 134.878 36.1361 130.61ZM27.3096 130.61C27.3125 139.755 34.7285 147.166 43.8734 147.163C53.0174 147.16 60.4286 139.745 60.4256 130.599C60.4217 121.454 53.0067 114.042 43.8607 114.045C34.7168 114.049 27.3057 121.465 27.3096 130.61ZM33.1041 130.61C33.1129 124.663 37.9432 119.85 43.8901 119.859C49.8369 119.868 54.6507 124.698 54.6409 130.645C54.6321 136.59 49.8057 141.403 43.8607 141.396C37.9129 141.384 33.0982 136.558 33.0982 130.61H33.1041ZM34.0486 130.61C34.033 136.052 38.4316 140.477 43.8734 140.492C49.3143 140.508 53.7403 136.11 53.754 130.668C53.7716 125.227 49.3729 120.802 43.9311 120.786H43.8676C38.4472 120.802 34.0594 125.192 34.0437 130.61H34.0486ZM36.1419 130.61C36.1419 126.341 39.6038 122.879 43.8734 122.879C48.1441 122.879 51.605 126.341 51.605 130.61C51.605 134.881 48.1441 138.342 43.8734 138.342H43.8676C39.5979 138.342 36.1361 134.881 36.1361 130.61H36.1419Z" fill="#455A64"/>
<path d="M41.9214 114.347H45.7163L45.3343 110.562H42.2975L41.9214 114.347Z" fill="#455A64"/>
<path d="M50.313 115.553L53.599 117.448L55.1639 113.982L52.5323 112.463L50.313 115.553Z" fill="#455A64"/>
<path d="M56.979 120.792L58.8721 124.078L61.9627 121.859L60.4448 119.227L56.979 120.792Z" fill="#455A64"/>
<path d="M60.1309 128.663V132.453L63.9151 132.078V129.04L60.1309 128.663Z" fill="#455A64"/>
<path d="M58.9199 137.055L57.0249 140.341L60.4897 141.906L62.0086 139.275L58.9199 137.055Z" fill="#455A64"/>
<path d="M53.6815 143.721L50.4004 145.615L52.6207 148.706L55.2454 147.187L53.6815 143.721Z" fill="#455A64"/>
<path d="M45.8096 146.868H42.0186L42.3956 150.658H45.4316L45.8096 146.868Z" fill="#455A64"/>
<path d="M37.4231 145.662L34.1372 143.767L32.5713 147.233L35.2038 148.751L37.4231 145.662Z" fill="#455A64"/>
<path d="M30.7576 140.422L28.8616 137.142L25.771 139.363L27.291 141.988L30.7576 140.422Z" fill="#455A64"/>
<path d="M27.6045 132.552V128.762L23.8203 129.138V132.175L27.6045 132.552Z" fill="#455A64"/>
<path d="M28.8104 124.165L30.7044 120.88L27.2396 119.315L25.7217 121.946L28.8104 124.165Z" fill="#455A64"/>
<path d="M34.0497 117.501L37.3348 115.606L35.1164 112.516L32.4839 114.035L34.0497 117.501Z" fill="#455A64"/>
<path d="M0.00394596 124.589C-0.160159 130.89 4.81477 136.13 11.1152 136.294C17.4167 136.459 22.6573 131.484 22.8214 125.184C22.9855 118.883 18.0106 113.643 11.7111 113.478H11.7062C5.40768 113.316 0.168051 118.29 0.00394596 124.589ZM6.08461 124.745C6.16569 121.805 8.61556 119.486 11.5558 119.567C14.496 119.648 16.814 122.098 16.7329 125.038C16.6518 127.978 14.2049 130.296 11.2666 130.216C8.32543 130.137 6.00549 127.689 6.08461 124.749V124.745Z" fill="#C7C7C7"/>
<path d="M9.50439 113.895L13.8913 114.011L13.7291 110.898L9.82873 110.795L9.50439 113.895Z" fill="#C7C7C7"/>
<path d="M17.8149 115.594L20.8353 118.775L22.9208 116.463L20.2326 113.635L17.8149 115.594Z" fill="#C7C7C7"/>
<path d="M22.4932 122.67L22.377 127.058L25.4832 126.896L25.5877 122.995L22.4932 122.67Z" fill="#C7C7C7"/>
<path d="M20.7943 130.981L17.606 134.001L19.9181 136.087L22.7538 133.404L20.7943 130.981Z" fill="#C7C7C7"/>
<path d="M13.7131 135.659L9.33008 135.542L9.4873 138.65L13.3878 138.753L13.7131 135.659Z" fill="#C7C7C7"/>
<path d="M5.40704 133.961L2.38775 130.772L0.299316 133.091L2.9836 135.919L5.40704 133.961Z" fill="#C7C7C7"/>
<path d="M2.42725 118.572L5.60972 115.554L3.29663 113.466L0.467773 116.15L2.42725 118.572Z" fill="#C7C7C7"/>
<path d="M14.4421 122.09L10.698 120.984L7.86914 123.667L8.77948 127.458L12.5178 128.571L15.3506 125.887L14.4421 122.09ZM11.5791 126.014C10.8943 125.998 10.3522 125.429 10.3688 124.744C10.3844 124.061 10.9529 123.518 11.6386 123.534C12.3224 123.551 12.8645 124.119 12.8489 124.804C12.8489 124.805 12.848 124.807 12.848 124.809C12.8284 125.492 12.2619 126.031 11.5791 126.014Z" fill="#C7C7C7"/>
<path d="M142.59 127.383C142.59 127.383 145.271 136.418 148.514 145.649C151.759 154.879 154.596 176.082 153.998 176.632C153.402 177.181 146.249 156.569 144.192 147.138C142.134 137.706 140.652 128.053 140.652 128.053L142.59 127.383Z" fill="#FFC727"/>
<path d="M142.637 127.155L144.781 133.296L141.362 134.127L140.337 127.799L142.637 127.155Z" fill="#DBDBDB"/>
<path d="M142.637 127.156C143.13 125.578 142.826 123.859 141.826 122.544C140.332 120.413 140.767 118.75 140.767 118.75C140.767 118.75 136.919 123.683 140.337 127.806L142.637 127.156Z" fill="#455A64"/>
<path d="M140.801 118.508C140.995 118.816 140.599 120.365 141.315 121.578C142.033 122.791 138.507 124.601 138.796 122.778C139.124 120.713 140.446 117.938 140.801 118.508Z" fill="#FFC727"/>
<path d="M159.449 132.686C159.449 132.686 156.827 139.999 153.784 147.433C150.742 154.868 147.469 172.202 147.94 172.678C148.408 173.154 155.179 156.51 157.277 148.854C159.376 141.199 161.032 133.356 161.032 133.356L159.449 132.686Z" fill="#A6A6A6"/>
<path d="M159.422 132.485L157.392 137.437L160.166 138.268L161.286 133.115L159.422 132.485Z" fill="#DBDBDB"/>
<path d="M159.422 132.485C159.717 128.41 162.955 125.112 162.955 125.112C162.955 125.112 164.295 129.897 161.286 133.156L159.422 132.485Z" fill="#455A64"/>
<path d="M151.392 123.08C151.392 123.08 152.425 130.782 153.846 138.706C155.266 146.629 154.851 164.245 154.294 164.613C153.737 164.982 150.594 147.292 150.132 139.361C149.668 131.433 149.723 123.389 149.723 123.389L151.392 123.08Z" fill="#37474F"/>
<path d="M151.458 122.899L152.411 128.173L149.521 128.409L149.501 123.126L151.458 122.899Z" fill="#DBDBDB"/>
<path d="M149.501 123.127C149.501 123.127 151.352 122.945 151.458 122.905C152.02 121.104 152.468 119.268 152.799 117.409C152.685 117.261 146.571 118.113 146.605 118.689C146.64 119.266 149.501 123.127 149.501 123.127Z" fill="#455A64"/>
<path d="M142.229 152.246H157.908C159.529 152.246 160.844 153.56 160.844 155.182V176.444C160.844 178.067 159.529 179.381 157.908 179.381H142.229C140.607 179.381 139.292 178.067 139.292 176.444V155.182C139.292 153.56 140.607 152.246 142.229 152.246Z" fill="#455A64"/>
<path d="M158.128 147.962H142.014V152.246H158.128V147.962Z" fill="#455A64"/>
<path d="M142.999 152.126C146.746 151.944 155.916 151.938 157.148 152.126V152.179C152.439 152.518 147.709 152.518 142.999 152.179C142.985 152.164 142.985 152.141 142.999 152.126Z" fill="#263238"/>
<path d="M37.2639 178.647C37.3713 177.671 48.551 153.585 49.5669 152.938C49.9449 152.683 53.5494 154.109 57.8552 155.955L57.9919 156.014C58.8808 156.393 75.266 160.794 75.266 160.794L68.0033 176.56L50.9432 171.616L50.6824 171.488C50.6824 171.488 42.2798 178.779 41.1125 179.39C39.9472 180 37.1545 179.617 37.2639 178.647Z" fill="#AD6359"/>
<path d="M61.0987 156.929L53.626 172.421L50.9457 171.646L50.6819 171.52C50.6819 171.52 42.2783 178.81 41.113 179.421C39.9467 180.031 37.1716 179.63 37.281 178.66C37.3894 177.689 48.5681 153.598 49.584 152.951C49.963 152.696 53.5664 154.122 57.8771 155.967L58.01 156.026C58.2015 156.123 59.4127 156.461 61.0987 156.929Z" fill="#DBD9D9"/>
<path d="M37.1664 178.765C37.2758 177.786 48.476 153.421 49.4929 152.76C49.8758 152.509 53.5203 153.931 57.872 155.781L50.6866 171.511C50.6866 171.511 42.2332 178.907 41.0444 179.521C39.8556 180.137 37.0619 179.75 37.1664 178.765Z" fill="#FFC727"/>
<path d="M38.3026 178.866C40.2846 174.829 47.8715 158.361 49.5302 154.209C49.5302 154.178 49.5302 154.168 49.5028 154.209C47.4564 158.17 39.9925 174.715 38.2391 178.844C38.201 178.907 38.2616 178.952 38.3026 178.866Z" fill="#263238"/>
<path d="M42.6398 178.36C43.0871 177.452 43.1341 176.399 42.7678 175.457C42.4474 174.615 41.8163 173.928 41.0036 173.538C40.9821 173.538 40.9577 173.575 41.0036 173.588C42.5333 174.639 43.1868 176.573 42.6085 178.337C42.5763 178.369 42.6251 178.391 42.6398 178.36Z" fill="#263238"/>
<path d="M49.5616 172.906C50.3362 171.283 50.6283 169.123 49.7618 167.492C49.7257 167.429 49.6397 167.492 49.6397 167.538C49.7315 169.311 49.6329 171.09 49.3467 172.842C49.3408 172.905 49.3868 172.96 49.4503 172.966C49.4971 172.969 49.5401 172.947 49.5616 172.906Z" fill="#263238"/>
<path d="M48.4907 173.944C49.2653 172.318 49.5574 170.157 48.686 168.526C48.6548 168.462 48.563 168.526 48.5679 168.571C48.6597 170.344 48.562 172.123 48.2758 173.876C48.266 173.936 48.309 173.996 48.3725 174.005C48.4213 174.011 48.4683 173.988 48.4907 173.944Z" fill="#263238"/>
<path d="M47.4158 174.978C48.1904 173.352 48.4873 171.192 47.617 169.561C47.5847 169.497 47.4939 169.561 47.4978 169.606C47.5886 171.381 47.489 173.162 47.2018 174.915C47.195 174.977 47.2419 175.033 47.3044 175.039C47.3503 175.043 47.3943 175.019 47.4158 174.978Z" fill="#263238"/>
<path d="M46.3445 176.014C47.1191 174.391 47.4151 172.232 46.5448 170.6C46.5086 170.537 46.4216 170.6 46.4216 170.645C46.5135 172.418 46.4158 174.197 46.1296 175.95C46.1227 176.012 46.1697 176.069 46.2322 176.074C46.2791 176.077 46.322 176.054 46.3445 176.014Z" fill="#263238"/>
<path d="M52.9291 157.034C53.7662 155.211 50.9149 153.895 50.0768 155.731C49.2387 157.568 52.0909 158.857 52.9291 157.034Z" fill="#263238"/>
<path d="M53.1112 176.678C54.1779 176.168 53.9865 174.814 53.5078 173.976C52.66 172.556 51.4555 171.382 50.0118 170.572C49.9893 170.558 49.9581 170.567 49.9444 170.59C49.9424 170.593 49.9414 170.596 49.9405 170.6C49.8223 170.574 49.7061 170.649 49.6797 170.767C49.6748 170.789 49.6738 170.811 49.6757 170.832C49.9444 172.367 50.0401 174.022 50.7737 175.448C51.2025 176.269 52.1041 177.162 53.1112 176.678ZM50.5588 173.075C50.4093 172.321 50.2941 171.57 50.1036 170.823C50.7815 171.493 51.4702 172.126 52.0992 172.86C52.4001 173.208 52.6775 173.578 52.9286 173.962C53.3066 174.568 53.9357 176.801 52.0817 176.146C51.0736 175.785 50.7375 173.972 50.5588 173.075Z" fill="#263238"/>
<path d="M51.2756 166.23C50.4003 167.552 50.1317 169.21 49.7039 170.705C49.6833 170.826 49.7644 170.941 49.8875 170.963C49.907 170.966 49.9266 170.967 49.9471 170.965C49.9471 170.996 49.9774 171.019 50.0145 171.001C51.5354 170.345 52.8551 169.3 53.8426 167.97C54.4023 167.187 54.754 165.866 53.7234 165.236C52.6929 164.607 51.7816 165.459 51.2756 166.23ZM52.6421 165.669C54.5567 165.214 53.7 167.364 53.2624 167.948C52.9742 168.305 52.6617 168.644 52.3286 168.959C51.6262 169.604 50.8917 170.212 50.1278 170.782C50.3828 170.062 50.583 169.319 50.8018 168.59C51.0841 167.692 51.5989 165.925 52.6558 165.692L52.6421 165.669Z" fill="#263238"/>
<path d="M94.4867 109.366C94.4867 109.366 94.1819 118.808 92.7675 123.46C92.7675 123.46 91.2242 124.272 90.7592 124.563C90.7592 124.563 102.492 152.651 101.823 163.459C101.603 167 97.8304 171.483 93.7795 174.008C86.6077 178.468 53.6353 175.894 53.6353 175.894L58.7157 154.847C58.7157 154.847 78.5695 156.077 79.1282 154.879C79.8403 153.361 75.4339 141.546 71.9115 131.945C71.5549 130.979 68.014 127.388 68.4301 120.926C68.7427 116.922 69.7752 113.006 71.4729 109.366H94.4867Z" fill="#37474F"/>
<path d="M62.7534 157.185C67.5828 157.098 71.5165 157.508 76.3459 157.508H79.5362C79.9591 157.521 80.3811 157.482 80.7943 157.394C81.1801 157.329 81.5279 157.124 81.7692 156.815C82.0876 156.359 81.9147 155.731 81.8053 155.21C81.5641 154.076 81.2866 152.932 80.9897 151.826C79.7735 147.269 78.1833 142.808 76.6887 138.333L74.3825 131.421C74.1969 130.86 74.0084 130.3 73.772 129.757C73.5483 129.266 73.2963 128.788 73.0169 128.326C72.4689 127.432 72.0293 126.475 71.7041 125.479C70.3961 121.186 71.6523 116.743 73.181 112.692C73.3862 112.15 73.6001 111.608 73.8179 111.071C73.8179 111.034 73.896 111.071 73.8814 111.071C72.4865 115.348 70.8288 119.797 71.7627 124.358C71.9805 125.426 72.3566 126.457 72.8792 127.415C73.1478 127.907 73.4389 128.381 73.6997 128.873C73.9614 129.377 74.1861 129.897 74.3737 130.431C75.1883 132.71 75.9142 134.988 76.6839 137.267C78.2097 141.823 79.8146 146.344 81.0854 150.964C81.4 152.118 81.6959 153.274 81.9567 154.441C82.1472 155.297 82.576 156.47 81.8229 157.175C81.2769 157.694 80.4163 157.759 79.7003 157.763H76.0861C71.1932 157.763 63.3562 157.339 62.7496 157.308C62.6402 157.353 62.644 157.189 62.7534 157.185Z" fill="#263238"/>
<path d="M57.354 174.915C57.8091 172.459 58.2653 169.985 58.826 167.542C59.3857 165.1 59.9601 162.648 60.5931 160.22C60.7718 159.532 60.9574 158.853 61.141 158.165C61.228 157.837 61.3149 157.514 61.4087 157.19C61.4927 156.857 61.5933 156.528 61.7105 156.206C61.7242 156.19 61.7467 156.188 61.7623 156.202C61.7701 156.209 61.774 156.218 61.774 156.228C61.7086 156.864 61.5953 157.494 61.438 158.115C61.3198 158.707 61.2045 159.3 61.0815 159.891C60.8334 161.107 60.5745 162.322 60.3068 163.538C59.7745 165.975 59.1679 168.395 58.5486 170.828C58.193 172.204 57.8365 173.571 57.478 174.93C57.4584 175.016 57.3354 174.997 57.354 174.915Z" fill="#263238"/>
<path d="M97.8045 143.779L72.9524 134.779C72.6066 133.823 72.2549 132.875 71.9139 131.946C71.5711 131.016 68.0175 127.389 68.4326 120.927C68.7442 116.922 69.7757 113.006 71.4763 109.366H94.4834C94.4834 109.366 94.1874 118.808 92.77 123.456C92.77 123.456 91.2256 124.272 90.7607 124.564C90.7597 124.564 94.6328 133.836 97.8045 143.779Z" fill="#263238"/>
<path d="M135.583 179.777C134.645 180.059 108.101 179.18 107.113 178.506C106.735 178.255 106.658 174.382 106.658 169.693V169.546C106.658 168.581 107.073 152.392 107.073 152.392L125.654 152.934L123.786 169.903V170.194C123.786 170.194 133.811 175.075 134.804 175.931C135.798 176.788 136.522 179.499 135.583 179.777Z" fill="#AD6359"/>
<path d="M135.583 179.781C134.645 180.059 108.102 179.18 107.116 178.506C106.734 178.251 106.633 174.378 106.662 169.698V169.546C106.662 169.283 106.662 167.971 106.744 165.979L124.155 166.649L123.795 169.92V170.213C123.795 170.213 133.819 175.097 134.818 175.949C135.817 176.801 136.522 179.499 135.583 179.781Z" fill="#DBD9D9"/>
<path d="M135.783 179.891C134.835 180.173 108.037 179.28 107.033 178.601C106.651 178.345 106.579 174.436 106.579 169.705L123.854 170.248C123.854 170.248 133.965 175.178 134.982 176.044C135.998 176.91 136.731 179.607 135.783 179.891Z" fill="#FFC727"/>
<path d="M135.442 178.806C130.953 178.546 112.823 177.922 108.36 178.009C108.33 178.009 108.324 178.032 108.36 178.036C112.809 178.391 130.94 178.87 135.437 178.879C135.529 178.907 135.529 178.815 135.442 178.806Z" fill="#263238"/>
<path d="M133.292 175.006C132.28 174.941 131.285 175.307 130.557 176.013C129.906 176.632 129.518 177.479 129.473 178.378C129.473 178.404 129.524 178.404 129.528 178.378C129.901 176.561 131.43 175.209 133.278 175.061C133.324 175.061 133.329 175.006 133.292 175.006Z" fill="#263238"/>
<path d="M125.582 170.736C123.786 170.649 121.681 171.214 120.514 172.649C120.468 172.705 120.546 172.767 120.6 172.746C122.203 171.971 123.883 171.372 125.613 170.959C125.673 170.942 125.709 170.878 125.69 170.818C125.677 170.769 125.632 170.736 125.582 170.736Z" fill="#263238"/>
<path d="M126.953 171.324C125.131 171.237 123.048 171.803 121.882 173.238C121.837 173.293 121.918 173.357 121.973 173.329C123.577 172.558 125.256 171.96 126.986 171.548C127.046 171.53 127.081 171.467 127.063 171.406C127.049 171.357 127.004 171.324 126.953 171.324Z" fill="#263238"/>
<path d="M128.326 171.911C126.503 171.825 124.42 172.39 123.254 173.826C123.208 173.88 123.29 173.944 123.345 173.916C124.948 173.145 126.628 172.547 128.358 172.135C128.419 172.117 128.454 172.054 128.434 171.993C128.421 171.945 128.376 171.911 128.326 171.911Z" fill="#263238"/>
<path d="M129.692 172.5C127.897 172.413 125.792 172.978 124.624 174.414C124.578 174.468 124.656 174.532 124.71 174.505C126.313 173.732 127.992 173.134 129.723 172.724C129.784 172.705 129.819 172.643 129.8 172.582C129.788 172.533 129.743 172.5 129.692 172.5Z" fill="#263238"/>
<path d="M109.648 173.78C107.629 173.716 107.528 176.852 109.551 176.914C111.574 176.978 111.665 173.839 109.648 173.78Z" fill="#263238"/>
<path d="M127.696 166.002C126.811 165.218 125.64 165.915 125.053 166.681C124.067 168.018 123.449 169.588 123.263 171.238C123.263 171.265 123.284 171.288 123.312 171.288H123.316C123.338 171.407 123.452 171.486 123.57 171.466C123.593 171.462 123.616 171.454 123.635 171.442C124.949 170.6 126.451 169.862 127.463 168.645C128.047 167.92 128.525 166.745 127.696 166.002ZM125.363 169.751C124.73 170.179 124.078 170.577 123.458 171.033C123.78 170.136 124.149 169.256 124.561 168.398C124.766 167.986 124.999 167.589 125.258 167.209C125.668 166.63 127.482 165.186 127.596 167.145C127.652 168.229 126.11 169.237 125.354 169.751H125.363Z" fill="#263238"/>
<path d="M118.765 171.743C120.324 172.034 121.956 171.643 123.5 171.457C123.618 171.432 123.694 171.316 123.671 171.198C123.666 171.175 123.657 171.153 123.647 171.133C123.647 171.133 123.682 171.088 123.647 171.059C122.451 169.912 120.976 169.098 119.366 168.699C118.427 168.489 117.088 168.699 116.898 169.867C116.705 171.033 117.857 171.575 118.765 171.743ZM117.711 170.705C116.55 169.118 118.87 169.072 119.534 169.256C119.976 169.38 120.409 169.532 120.833 169.71C121.712 170.084 122.523 170.577 123.362 171.033C122.596 171.078 121.84 171.187 121.083 171.26C120.187 171.351 118.355 171.557 117.711 170.705Z" fill="#263238"/>
<path d="M125.299 168.626H104.517C104.517 168.626 108.217 140.334 106.986 138.483C106.443 137.677 79.4632 140.379 71.5705 131.831C64.3518 124.012 71.6985 109.366 71.6985 109.366H93.8439C93.8439 109.366 94.3 115.645 95.4849 118.152C95.9997 119.227 120.739 117.696 124.612 124.763C129.783 134.21 125.299 168.626 125.299 168.626Z" fill="#37474F"/>
<path d="M106.708 164.676C109.049 164.608 111.402 164.512 113.752 164.517C116.104 164.521 118.459 164.567 120.811 164.657C121.477 164.685 123.436 164.781 123.756 164.804C124.074 164.811 124.395 164.837 124.712 164.886C124.748 164.886 124.739 164.941 124.712 164.945C124.202 165.035 118.884 165.095 117.717 165.1C115.38 165.1 113.041 165.035 110.705 164.953L106.717 164.804C106.64 164.781 106.63 164.676 106.708 164.676Z" fill="#263238"/>
<path d="M92.9421 116.147C92.8434 115.481 92.7584 114.816 92.6803 114.151C92.4986 112.633 92.3443 111.102 92.2983 109.572C92.2983 109.452 92.4624 109.462 92.4751 109.572C92.6177 110.752 92.7272 111.936 92.8629 113.116C93.0007 114.296 93.0954 115.476 93.3191 116.635C93.3875 116.981 93.533 117.545 93.9795 117.573C94.5812 117.573 94.6955 116.776 94.7453 116.333C94.8586 115.236 94.8781 114.131 94.8048 113.03C94.7413 111.772 94.5812 110.519 94.4454 109.271C94.4454 109.23 94.5128 109.221 94.5225 109.271C95.0373 111.699 95.5336 114.247 95.1067 116.73C95.0784 117.241 94.7658 117.693 94.2999 117.901H94.2774C94.2793 117.915 94.2793 117.928 94.2774 117.942V118.157C94.2823 118.215 94.2823 118.275 94.2774 118.334V118.703C94.2774 118.753 94.2364 118.794 94.1856 118.794C94.1357 118.794 94.0947 118.753 94.0947 118.703C94.0625 118.698 94.038 118.675 94.0312 118.644C93.9853 118.406 93.9853 118.162 94.0312 117.923C93.7342 117.925 93.4558 117.776 93.2917 117.528C93.07 117.101 92.9499 116.628 92.9421 116.147Z" fill="#263238"/>
<path d="M95.1432 117.942C93.4445 119.11 91.8494 120.423 90.3763 121.866C90.3539 121.892 90.3568 121.932 90.3841 121.956C90.4046 121.973 90.4359 121.975 90.4584 121.962C92.0809 120.708 93.7483 119.478 95.2976 118.138C95.3523 118.095 95.361 118.017 95.3181 117.963C95.2761 117.909 95.1979 117.9 95.1432 117.942Z" fill="#263238"/>
<path d="M76.9383 119.149C77.4179 119.149 77.8946 119.113 78.3693 119.04C78.7884 118.957 79.2016 118.85 79.6089 118.722C80.3786 118.498 81.3135 118.229 81.8869 117.624C82.429 116.955 82.8607 116.209 83.1723 115.408C83.5553 114.572 83.8092 113.682 83.9235 112.77C83.9235 112.729 83.9929 112.729 83.988 112.77C83.9323 113.714 83.7799 114.65 83.5328 115.563C83.3912 116.017 83.2183 116.459 83.0083 116.885C82.4857 118.238 81.2168 119.158 79.7682 119.236C78.8363 119.409 77.8799 119.409 76.9481 119.236C76.8611 119.245 76.8787 119.149 76.9383 119.149Z" fill="#263238"/>
<path d="M109.228 137.148C109.126 136.643 108.718 136.256 108.207 136.182C107.611 136.116 107.009 136.103 106.412 136.146C105.045 136.146 103.642 136.173 102.256 136.177C96.7873 136.177 91.32 136.037 85.9388 134.961C83.3209 134.462 80.7655 133.688 78.3098 132.655C76.2272 131.743 74.1446 130.522 72.8416 128.604C71.3519 126.403 71.2327 123.519 71.2826 120.94C71.3392 118.157 71.7886 115.395 72.6169 112.738C72.8328 112.064 73.074 111.398 73.3378 110.742C73.3378 110.701 73.2919 110.665 73.2743 110.711C72.1754 113.231 71.4467 115.897 71.1097 118.626C70.9475 119.968 70.8869 121.32 70.927 122.672C70.9299 123.997 71.1018 125.317 71.4359 126.6C72.8533 131.425 78.2717 133.434 82.6312 134.643C87.8963 136.119 93.387 136.529 98.8259 136.611C101.561 136.652 104.295 136.611 107.029 136.57C107.548 136.57 108.395 136.419 108.718 136.966C108.858 137.28 108.942 137.616 108.964 137.96C109.025 138.347 109.066 138.735 109.097 139.121C109.173 140.576 109.154 142.034 109.038 143.487C108.865 146.44 108.66 149.391 108.422 152.341C108.19 155.307 107.858 158.263 107.643 161.234C107.588 161.958 107.52 162.683 107.452 163.413C107.452 163.495 107.583 163.508 107.598 163.413C108.353 157.548 108.901 151.66 109.284 145.764C109.379 144.305 109.489 142.848 109.529 141.385C109.623 139.966 109.52 138.54 109.228 137.148Z" fill="#263238"/>
<path d="M95.9175 138.233C94.0703 138.212 92.229 138.077 90.3994 137.832C88.6773 137.614 86.9551 137.377 85.2408 137.085C82.2615 136.58 79.2168 136.019 76.4016 134.884C74.8593 134.293 73.4233 133.459 72.1456 132.414C72.1095 132.387 72.0636 132.414 72.0949 132.464C74.2233 134.533 76.9203 135.745 79.7599 136.52C83.0166 137.366 86.3339 137.948 89.6844 138.261C91.7591 138.442 93.8417 138.503 95.9233 138.442C95.98 138.441 96.0259 138.393 96.0249 138.336C96.022 138.277 95.9761 138.232 95.9175 138.233Z" fill="#263238"/>
<path d="M84.2117 88.9658C90.7828 92.9669 100.278 98.143 101.777 96.0741C105.61 90.7886 107.551 79.2504 107.587 76.5485C107.587 74.9817 96.2735 72.4478 96.0176 74.1202C95.7255 76.0611 95.2615 85.8449 94.6509 86.3362C94.1948 86.7103 87.3835 84.7782 85.3693 84.66C80.4061 84.3591 81.1631 87.1118 84.2117 88.9658Z" fill="#AD6359"/>
<path d="M95.3433 76.8042L108.357 78.6816C108.357 78.6816 105.126 94.8079 101.298 96.5662C99.0659 97.5967 89.2586 93.0487 84.2691 89.4764C78.8292 85.5848 82.3692 83.89 86.168 84.5591C89.1952 85.0886 94.2571 86.2686 94.3713 86.0449C94.4866 85.8222 95.3433 76.8042 95.3433 76.8042Z" fill="#FFC727"/>
<g opacity="0.1">
<g opacity="0.1">
<path opacity="0.1" d="M96.4973 84.9282C96.4885 85.3316 96.5403 85.7341 96.6516 86.1219C96.7591 85.7321 96.8118 85.3287 96.805 84.9243C96.8118 84.5199 96.7601 84.1165 96.6565 83.7258C96.5471 84.1175 96.4943 84.5219 96.4973 84.9282ZM98.534 96.4303L98.8299 96.4928C98.8221 96.1724 98.7733 95.8539 98.6844 95.5453C98.5974 95.8334 98.5476 96.1294 98.534 96.4303ZM99.5713 80.7181C99.1679 80.7113 98.7674 80.7621 98.3776 80.8686C99.1601 81.0786 99.9836 81.0786 100.765 80.8686C100.378 80.767 99.9758 80.7181 99.5762 80.722L99.5713 80.7181ZM94.4039 91.554C94.0005 91.5432 93.5991 91.594 93.2103 91.7044C93.9937 91.9135 94.8191 91.9135 95.6025 91.7044C95.2127 91.5989 94.8083 91.5471 94.4039 91.554ZM83.4695 86.3554C83.1872 86.0662 82.8668 85.8171 82.5151 85.6169C82.9156 86.3163 83.488 86.9014 84.1796 87.3156C83.9823 86.9629 83.7371 86.6386 83.4499 86.3554H83.4695ZM106.12 81.4879C105.836 81.1978 105.514 80.9477 105.164 80.7455C105.362 81.0991 105.609 81.4224 105.897 81.7067C106.179 81.9958 106.5 82.2459 106.851 82.4491C106.649 82.0945 106.397 81.7702 106.102 81.4879H106.12ZM101.317 91.3537C101.034 91.0626 100.711 90.8135 100.361 90.6104C100.557 90.965 100.804 91.2893 101.094 91.5725C101.375 91.8626 101.696 92.1108 102.048 92.31C101.844 91.9584 101.592 91.636 101.299 91.3537H101.317ZM103.071 86.0223C102.781 86.3046 102.531 86.6269 102.329 86.9786C102.682 86.7832 103.006 86.537 103.29 86.2499C103.581 85.9685 103.829 85.6452 104.029 85.2936C103.669 85.486 103.34 85.7322 103.053 86.0223H103.071ZM89.6987 87.4758C89.4115 87.76 89.1633 88.0794 88.9601 88.4282C89.6664 88.0247 90.2525 87.4435 90.6637 86.7422C90.3023 86.9385 89.9712 87.1856 89.6781 87.4758H89.6987Z" fill="black"/>
</g>
</g>
<path d="M101.431 80.4809C100.482 80.3393 99.5376 80.2211 98.5921 80.098C98.1359 80.0433 97.6807 79.9798 97.2245 79.9388C96.7693 79.8977 96.2321 79.8069 95.7398 79.7922C95.7241 79.7932 95.7124 79.8059 95.7124 79.8206C95.7124 79.8352 95.7251 79.8479 95.7398 79.8479C96.195 79.9798 96.7195 80.0384 97.202 80.139C97.6846 80.2396 98.1134 80.3031 98.5676 80.3803C99.5122 80.5405 100.451 80.6997 101.395 80.8365C103.285 81.1139 105.176 81.3327 107.076 81.5339C107.122 81.5339 107.135 81.4694 107.076 81.4655C105.19 81.0914 103.317 80.7593 101.431 80.4809Z" fill="#263238"/>
<g opacity="0.1">
<g opacity="0.1">
<path opacity="0.1" d="M105.883 88.1499C104.639 92.0142 103.026 95.7681 101.29 96.5662C99.0569 97.5958 89.2506 93.0487 84.2659 89.4804C81.4361 87.4574 81.0346 86.0312 81.8278 85.2107L105.883 88.1499Z" fill="black"/>
</g>
</g>
<path d="M137.033 77.6012C137.033 77.6012 123.199 76.8998 108.899 75.5421C94.5997 74.1833 63.4099 77.5514 62.8453 78.6034C62.2797 79.6564 94.1865 82.6279 108.33 82.2489C122.473 81.8709 136.755 80.6039 136.755 80.6039L137.033 77.6012Z" fill="#455A64"/>
<path d="M137.337 77.456C139.056 76.4723 141.232 75.8481 144.196 77.0008C147.768 78.3673 149.97 77.1785 149.97 77.1785C149.97 77.1785 144.346 84.4187 137.25 80.9784L137.337 77.456Z" fill="#263238"/>
<path d="M96.6006 74.3298C98.1234 73.2866 99.8543 70.9852 101.157 70.6111C101.82 70.3952 102.544 70.6404 102.938 71.2128C102.938 71.2128 103.395 69.7593 104.652 69.6177C105.294 69.5405 105.982 70.529 105.982 70.529C106.23 69.8716 106.825 69.4077 107.522 69.3266C108.435 69.2768 108.972 70.238 108.972 70.238C108.972 70.238 109.883 69.3266 110.794 69.5728C112.676 70.0641 113.892 77.6657 111.276 79.2872C110.059 80.0442 109.865 78.1707 109.865 78.1707C109.865 78.1707 109.496 80.9322 107.936 81.2242C106.379 81.5153 106.268 79.0645 106.268 79.0645C106.268 79.0645 105.886 81.739 104.235 81.8758C102.587 82.0125 102.833 79.5519 102.833 79.5519C102.833 79.5519 101.957 81.4245 100.673 81.2418C98.5445 80.937 100.581 77.3326 99.9159 75.7238L97.0138 75.2412L96.6006 74.3298Z" fill="#AD6359"/>
<path d="M98.7511 72.4251C97.2205 73.2867 94.8918 71.5958 93.3113 72.2112C91.174 73.0444 93.7655 75.1914 97.0476 75.2325L99.6215 74.8124L98.7511 72.4251Z" fill="#AD6359"/>
<path d="M109.136 70.3748C110.192 72.8637 110.467 75.6144 109.925 78.2626C109.925 78.3495 109.761 78.3534 109.766 78.2626C109.926 75.6144 109.703 72.9584 109.1 70.3748H109.136Z" fill="#263238"/>
<path d="M106.011 70.457C106.011 70.4248 106.052 70.416 106.065 70.457C107.2 73.2126 107.313 76.2827 106.384 79.1145C106.348 79.2152 106.216 79.2699 106.247 79.1507C106.794 77.2146 106.611 72.8844 106.011 70.457Z" fill="#263238"/>
<path d="M102.726 79.725C103.608 76.945 103.514 74.1562 103.003 71.3136C103.003 71.2726 103.053 71.2677 103.067 71.3136C103.696 72.6353 103.832 74.5029 103.814 75.934C103.825 77.2781 103.481 78.6007 102.821 79.7709C102.798 79.8071 102.706 79.7885 102.726 79.725Z" fill="#263238"/>
<path d="M87.9753 86.6828C86.5267 86.8792 84.0144 84.2681 83.2319 82.418C83.3697 81.4402 83.5543 80.4703 83.7877 79.511C83.9694 78.5772 84.1472 77.533 84.2439 76.5718L90.1399 78.6309C89.6769 79.8041 89.3585 81.027 89.1915 82.2764C89.1768 82.4102 89.1768 82.544 89.1915 82.6779V82.7414C89.2422 83.5023 89.3741 86.4914 87.9753 86.6828Z" fill="#AD6359"/>
<path d="M89.1916 82.673V82.7413C88.9816 82.7482 88.7707 82.7374 88.5616 82.7101C85.0216 82.2178 84.4893 78.1532 84.4102 76.6353L90.1392 78.6592C89.6752 79.8304 89.3548 81.0544 89.1867 82.3037C89.1789 82.4268 89.1809 82.5509 89.1916 82.673Z" fill="#263238"/>
<path d="M83.3504 69.4811C82.6217 71.6096 83.5555 77.8612 85.0403 79.2962C87.1912 81.3739 90.8143 81.6845 92.6087 79.0735C94.3455 76.5445 92.9877 68.4242 91.3203 67.1074C88.8636 65.1753 84.4083 66.3553 83.3504 69.4811Z" fill="#AD6359"/>
<path d="M89.5191 73.436C89.5191 73.436 89.4879 73.4585 89.4928 73.4771C89.5602 73.8961 89.5699 74.3884 89.2056 74.5799C89.2056 74.5799 89.2056 74.6072 89.2056 74.5799C89.6686 74.4793 89.652 73.8229 89.5191 73.436Z" fill="#263238"/>
<path d="M89.087 73.0442C88.3993 73.0814 88.5273 74.4518 89.1602 74.4118C89.7932 74.3707 89.6613 73.013 89.087 73.0442Z" fill="#263238"/>
<path d="M91.8994 73.2134C91.8994 73.2134 91.9356 73.2134 91.9356 73.2456C91.9619 73.6735 92.0635 74.157 92.4592 74.2615V74.284C91.9815 74.2615 91.8584 73.6188 91.8994 73.2134Z" fill="#263238"/>
<path d="M92.2351 72.7351C92.914 72.6208 93.0918 73.9834 92.4617 74.1016C91.8346 74.2208 91.6705 72.8308 92.2351 72.7351Z" fill="#263238"/>
<path d="M88.5087 72.471C88.6836 72.4016 88.8536 72.3225 89.0177 72.2336C89.2023 72.173 89.3625 72.0548 89.4729 71.8966C89.5315 71.7774 89.4992 71.6338 89.3967 71.5508C89.172 71.418 88.8926 71.418 88.6679 71.5508C88.4198 71.6426 88.2167 71.8243 88.0985 72.0607C88.0331 72.2219 88.1102 72.4055 88.2704 72.471C88.3466 72.5013 88.4326 72.5013 88.5087 72.471Z" fill="#263238"/>
<path d="M92.7052 71.9965C92.5186 71.9769 92.3329 71.9476 92.1503 71.9056C91.949 71.9007 91.7547 71.8304 91.5994 71.7054C91.5164 71.6009 91.5164 71.4533 91.5994 71.3488C91.7801 71.1623 92.0478 71.0851 92.3008 71.1486C92.5616 71.1789 92.8028 71.3019 92.9786 71.4953C93.0861 71.6292 93.0636 71.8245 92.9288 71.931C92.8663 71.9808 92.7862 72.0052 92.7052 71.9965Z" fill="#263238"/>
<path d="M89.4199 77.3277C89.5284 77.4186 89.6436 77.5465 89.7989 77.5465C89.9591 77.527 90.1135 77.4762 90.2541 77.3961C90.2541 77.3961 90.2815 77.3961 90.2541 77.3961C90.1477 77.5768 89.9494 77.6852 89.7403 77.6784C89.5577 77.6481 89.4112 77.5114 89.3711 77.3316C89.3701 77.3316 89.4199 77.314 89.4199 77.3277Z" fill="#263238"/>
<path d="M89.7517 76.02C89.9998 76.3385 90.37 76.5387 90.7725 76.571C90.9463 76.5964 91.1222 76.5964 91.296 76.571H91.3927L91.4826 76.5485C91.5295 76.5348 91.5608 76.4918 91.5608 76.444C91.5627 76.4284 91.5627 76.4137 91.5608 76.3981V76.3619C91.5608 76.0337 91.465 75.5414 91.465 75.5414C91.5881 75.5922 92.2211 75.81 92.1986 75.642C92.0296 74.1582 91.7092 72.6949 91.2413 71.2766C91.2345 71.2551 91.212 71.2434 91.1896 71.2512C91.1778 71.2551 91.169 71.2649 91.1651 71.2766C91.3185 72.6432 91.7072 73.956 91.8801 75.3187C91.6565 75.2356 91.421 75.1868 91.1827 75.1722C91.1368 75.1722 91.3468 76.1246 91.342 76.2701C90.8076 76.3766 90.2528 76.2603 89.8064 75.9468C89.7566 75.9565 89.7244 75.9878 89.7517 76.02Z" fill="#263238"/>
<path d="M91.087 76.4029C90.9297 76.653 90.7089 76.8571 90.4501 76.9949C90.3075 77.0642 90.1492 77.0896 89.9939 77.0681C89.6471 77.0095 89.6101 76.6989 89.6521 76.4303C89.6726 76.2847 89.7107 76.1421 89.7644 76.0063C90.1532 76.2769 90.6152 76.4156 91.087 76.4029Z" fill="#263238"/>
<path d="M90.4492 76.9949C90.3065 77.0633 90.1473 77.0887 89.993 77.0682C89.6472 77.0086 89.6101 76.6989 89.6511 76.4303C90.0164 76.4088 90.3476 76.6452 90.4492 76.9949Z" fill="#FF97B8"/>
<g opacity="0.2">
<g opacity="0.2">
<path opacity="0.2" d="M84.6388 67.5671C84.7258 68.4052 84.9309 71.0075 84.6163 71.5955C84.3028 72.1836 83.6415 73.5277 83.2498 73.7875C83.0398 72.0644 83.0495 70.3921 83.3582 69.4807C83.6092 68.7413 84.0508 68.0809 84.6388 67.5671Z" fill="#263238"/>
</g>
</g>
<path d="M90.007 69.1714C89.5997 69.7712 88.9091 70.116 88.1853 70.0828C87.4507 70.0564 86.7825 69.653 86.4162 69.0161C86.4162 68.9936 86.3801 69.0161 86.3899 69.0161C86.7122 69.7233 87.3999 70.1932 88.1755 70.2371C88.9384 70.2391 89.6456 69.8347 90.0285 69.1753C90.0666 69.1714 90.0266 69.144 90.007 69.1714Z" fill="#263238"/>
<path d="M87.2728 64.332C86.1651 64.4639 85.202 65.1506 84.7175 66.1548C84.529 66.6471 84.5133 67.1873 84.6716 67.6903H84.7126C84.5485 66.7721 84.8962 65.8383 85.624 65.2522C86.4171 64.5674 87.4868 64.3008 88.5085 64.5323C88.992 64.6339 89.4248 64.9054 89.7246 65.2981C89.7569 65.3391 89.8428 65.2981 89.8165 65.2571C89.4199 64.5694 88.3522 64.1816 87.2728 64.332Z" fill="#263238"/>
<path d="M94.5224 66.1051C94.2557 65.5395 93.7996 65.0853 93.233 64.8206C92.4447 64.4514 91.6252 64.6204 90.8096 64.8206V64.8568C91.4894 64.6565 92.2152 64.6565 92.897 64.8568C93.4684 65.0609 93.952 65.4575 94.2626 65.9781C94.8819 67.0819 94.5947 68.4719 93.5895 69.2407C93.0132 69.6598 92.2904 69.8239 91.589 69.6959L94.5224 66.1051ZM91.5881 69.736C92.9888 70.0573 94.3828 69.1821 94.7041 67.7813C94.8292 67.2343 94.7755 66.6629 94.5488 66.15L91.5881 69.736Z" fill="#263238"/>
<path d="M83.0403 70.7439C83.0403 70.7439 81.6737 68.7346 82.4708 67.3856C82.926 66.6247 84.7263 66.5153 84.7263 66.5153C85.1219 65.7514 85.8057 65.1761 86.6262 64.9163C88.0846 64.4054 89.9572 65.0804 89.9572 65.0804C89.9572 65.0804 91.2866 64.1045 92.6913 64.715C94.6635 65.5678 94.7505 68.4152 92.9873 69.5366C91.7477 70.32 89.839 69.3588 89.839 69.3588C89.67 69.4038 88.0163 70.657 86.5393 69.2445C86.5393 69.2445 85.5693 70.32 84.5251 69.7593C84.2829 70.364 83.6919 70.7557 83.0403 70.7439Z" fill="#263238"/>
<path d="M84.5122 74.5897C84.5122 74.5897 83.1446 72.5618 82.2333 73.0493C81.3209 73.5367 82.3339 76.4672 83.3986 76.8774C83.9447 77.1334 84.5933 76.8979 84.8482 76.3538C84.8541 76.3402 84.8599 76.3265 84.8668 76.3118L84.5122 74.5897Z" fill="#AD6359"/>
<path d="M82.5254 73.8826V73.9099C83.218 74.2645 83.7259 74.8985 83.9242 75.6506C83.7699 75.3595 83.4084 75.2482 83.1163 75.4025C83.0792 75.422 83.046 75.4465 83.0138 75.4728C82.9913 75.4728 83.0138 75.5188 83.0138 75.5139C83.2834 75.4308 83.5784 75.5285 83.7474 75.7551C83.8831 75.9437 83.9994 76.1449 84.0932 76.3569C84.1264 76.4252 84.2485 76.3891 84.227 76.3109C84.2798 75.3419 83.555 73.992 82.5254 73.8826Z" fill="#263238"/>
<path d="M67.7926 115.892C67.8522 115.97 95.5889 118.366 95.881 118.102C96.2678 117.728 94.5135 89.9825 89.5288 84.3316C88.3029 82.965 83.9922 81.279 82.5748 82.1582C78.9068 84.4371 76.6514 89.5624 75.2165 92.5476C74.1498 94.7581 72.7783 98.5579 71.5114 102.463C69.4151 108.901 67.5875 115.609 67.7926 115.892Z" fill="#FFC727"/>
<g opacity="0.1">
<g opacity="0.1">
<path opacity="0.1" d="M84.2064 92.825C84.0716 93.2079 83.9964 93.6084 83.9827 94.0137C84.2064 93.6777 84.3783 93.3104 84.4974 92.9256C84.6303 92.5436 84.7045 92.1441 84.7211 91.7407C84.4974 92.0748 84.3226 92.4401 84.2064 92.825ZM73.0746 100.075C72.9437 100.457 72.8694 100.856 72.8547 101.26C73.0784 100.923 73.2494 100.556 73.3686 100.171C73.4994 99.7887 73.5737 99.3892 73.5884 98.9857C73.3676 99.3227 73.1947 99.689 73.0746 100.075ZM89.3376 116.324C89.2096 116.707 89.1373 117.106 89.1188 117.509C89.3444 117.173 89.5193 116.806 89.6375 116.42C89.7664 116.037 89.8397 115.639 89.8563 115.235C89.6365 115.565 89.4626 115.924 89.3376 116.301V116.324ZM75.499 116.566C75.502 116.583 75.502 116.602 75.499 116.62L75.8223 116.643C75.9464 116.268 76.0157 115.876 76.0323 115.481C75.8057 115.808 75.626 116.166 75.499 116.543V116.566ZM68.2618 114.346C68.1338 114.729 68.0586 115.128 68.0381 115.531C68.4806 114.849 68.7345 114.064 68.7765 113.253C68.5607 113.586 68.3887 113.947 68.2627 114.324V114.346H68.2618ZM82.41 107.265C82.2821 107.649 82.2078 108.05 82.1873 108.455C82.4168 108.121 82.5926 107.754 82.7069 107.365C82.8388 106.984 82.9121 106.584 82.9257 106.18C82.7079 106.51 82.5341 106.868 82.41 107.243V107.265ZM78.1686 87.9223C78.0377 88.3052 77.9645 88.7057 77.9498 89.1111C78.1706 88.7721 78.3435 88.4039 78.4636 88.018C78.5955 87.6371 78.6697 87.2395 78.6873 86.8371C78.4646 87.1653 78.2908 87.5228 78.1677 87.8988V87.9223H78.1686ZM92.8834 92.8298C92.5015 92.696 92.1049 92.6198 91.7025 92.6022C92.0356 92.8288 92.4018 93.0047 92.7857 93.1209L92.987 93.1756C92.9421 93.034 92.9147 92.9207 92.8834 92.8074V92.8298ZM74.7654 108.486C74.3815 108.358 73.983 108.284 73.5795 108.264C73.9146 108.491 74.2819 108.667 74.6697 108.783C75.0516 108.915 75.4492 108.99 75.8536 109.006C75.5185 108.774 75.1522 108.592 74.7654 108.464V108.486ZM95.854 116.788C95.4691 116.657 95.0686 116.583 94.6642 116.57C95.0031 116.792 95.3714 116.965 95.7573 117.085C95.8178 117.085 95.8715 117.121 95.9311 117.14V116.817L95.854 116.788ZM85.5368 112.756C85.1549 112.625 84.7553 112.551 84.3519 112.537C84.6899 112.76 85.0581 112.934 85.4459 113.052C85.8269 113.185 86.2264 113.261 86.6308 113.276C86.2929 113.044 85.9246 112.861 85.5368 112.733V112.756ZM93.027 104.353C92.646 104.226 92.2495 104.153 91.847 104.135C92.1821 104.359 92.5484 104.532 92.9323 104.65C93.3152 104.781 93.7167 104.856 94.1221 104.873C93.7841 104.642 93.4158 104.461 93.027 104.331V104.353ZM81.7868 98.1154C81.4029 97.9845 81.0024 97.9093 80.597 97.8917C80.935 98.1173 81.3033 98.2922 81.6911 98.4114C82.074 98.5413 82.4725 98.6165 82.8759 98.6351C82.5409 98.4084 82.1736 98.2336 81.7868 98.1154ZM72.423 113.404C72.2472 113.04 72.0186 112.705 71.7431 112.409C71.8222 112.805 71.959 113.187 72.1446 113.544C72.3243 113.906 72.5529 114.24 72.8235 114.538C72.7454 114.142 72.6116 113.76 72.423 113.404ZM84.0237 84.5005C83.8469 84.1381 83.6183 83.804 83.3448 83.5081C83.5157 84.2993 83.8899 85.0329 84.4301 85.6356C84.35 85.239 84.2142 84.8561 84.0237 84.5005ZM89.9207 97.4951C89.741 97.1347 89.5134 96.7996 89.2418 96.5027C89.32 96.8993 89.4558 97.2831 89.6424 97.6416C89.8201 98.004 90.0506 98.3391 90.3261 98.6351C90.246 98.2375 90.1102 97.8546 89.9207 97.4951ZM82.2244 116.574C82.0447 116.213 81.8181 115.878 81.5455 115.582C81.6246 115.977 81.7584 116.358 81.946 116.716C82.028 116.866 82.1101 117.017 82.2049 117.171L82.4881 117.195C82.4119 116.983 82.3241 116.777 82.2244 116.574ZM88.9176 108.276C88.7378 107.915 88.5092 107.58 88.2396 107.279C88.3178 107.676 88.4535 108.059 88.6391 108.418C88.8189 108.781 89.0475 109.117 89.319 109.416C89.2419 109.019 89.1061 108.636 88.9176 108.276ZM78.1726 103.343C77.9958 102.979 77.7642 102.642 77.4897 102.345C77.5718 102.742 77.7086 103.125 77.8961 103.484C78.0758 103.846 78.3054 104.18 78.5779 104.477C78.4988 104.081 78.3621 103.697 78.1726 103.338V103.343ZM70.4996 105.652C70.4635 105.784 70.4176 105.921 70.3766 106.053L70.484 106.003C70.8464 105.826 71.1825 105.597 71.4794 105.324C71.1395 105.386 70.8083 105.495 70.4996 105.648V105.652ZM78.9384 111.713C78.575 111.892 78.238 112.121 77.9362 112.392C78.3347 112.312 78.7206 112.176 79.081 111.986C79.4405 111.809 79.7745 111.581 80.0695 111.307C79.6749 111.386 79.294 111.524 78.9384 111.713ZM76.7152 94.676C76.3547 94.8528 76.0206 95.0814 75.7266 95.3549C76.1212 95.2758 76.5032 95.141 76.8607 94.9534C77.2241 94.7747 77.5591 94.5422 77.8541 94.2657C77.4624 94.3498 77.0834 94.4885 76.7298 94.676H76.7152ZM92.7818 112.379C92.4185 112.557 92.0834 112.785 91.7845 113.058C92.1792 112.979 92.563 112.842 92.9196 112.652C93.2839 112.478 93.6209 112.248 93.9169 111.974C93.5203 112.053 93.1384 112.188 92.7818 112.379ZM86.8955 102.267C86.5322 102.445 86.1952 102.673 85.8982 102.945C86.2929 102.867 86.6758 102.732 87.0323 102.544C87.3957 102.369 87.7307 102.141 88.0248 101.865C87.6321 101.948 87.2501 102.088 86.8965 102.281V102.267H86.8955ZM89.6287 87.4573C89.2663 87.6371 88.9322 87.8666 88.6342 88.1411C89.0289 88.059 89.4099 87.9243 89.7694 87.7396C90.1327 87.5599 90.4678 87.3294 90.7667 87.0559C90.3642 87.1379 89.9745 87.2776 89.613 87.471L89.6287 87.4573Z" fill="black"/>
</g>
</g>
<path d="M88.4454 90.3333C94.2282 94.8032 105.42 102.636 110.448 101.328C115.785 99.9383 120.742 91.9558 123.099 89.2031C124.101 88.0368 114.377 82.4504 113.037 83.4067C111.698 84.364 108.512 89.6818 107.396 90.1965C106.279 90.7113 96.8656 86.7288 90.6999 85.0389C83.4548 83.0511 83.746 86.7005 88.4454 90.3333Z" fill="#AD6359"/>
<path d="M116.446 72.4476C117.201 72.3675 117.93 72.768 118.268 73.4498C118.749 73.0503 119.355 72.8325 119.981 72.8344C121.08 72.8852 121.481 74.6347 121.481 74.6347C122.066 74.3241 122.731 74.1981 123.389 74.2753C124.438 74.4296 125.094 76.138 125.094 76.138C125.789 76.1517 126.458 76.4135 126.975 76.8765C128.307 78.1708 127.71 80.9459 127.35 82.714C126.99 84.482 123.153 89.749 122.406 90.087L111.847 86.1407C111.847 86.1407 111.196 81.5838 112.603 77.4831C113.169 75.76 115.051 72.6391 116.446 72.4476Z" fill="#AD6359"/>
<path d="M118.05 73.4918C116.97 75.1456 116.437 77.0279 115.797 78.8731C115.791 78.8907 115.801 78.9102 115.819 78.9161C115.835 78.9229 115.856 78.9131 115.862 78.8956C116.477 77.0503 117.447 75.3507 118.141 73.5328C118.15 73.5074 118.141 73.4781 118.114 73.4664C118.091 73.4537 118.061 73.4664 118.05 73.4918Z" fill="#263238"/>
<path d="M121.317 74.6443C121.11 75.0429 120.957 75.4678 120.861 75.9064C120.728 76.3616 120.605 76.8177 120.486 77.2729C120.25 78.1853 120.036 79.1162 119.85 80.0666C119.85 80.1077 119.904 80.1301 119.912 80.0666C120.149 79.1553 120.4 78.2439 120.673 77.3325L121.097 75.966C121.263 75.5479 121.381 75.1122 121.448 74.6668C121.447 74.6287 121.416 74.5994 121.377 74.6004C121.351 74.6013 121.327 74.6189 121.317 74.6443Z" fill="#263238"/>
<path d="M125.062 76.1752C124.878 76.5386 124.757 76.9322 124.707 77.3366C124.607 77.7606 124.507 78.1845 124.403 78.6085C124.196 79.4514 123.986 80.2944 123.756 81.1326C123.756 81.1501 123.771 81.1648 123.786 81.1648C123.805 81.1648 123.818 81.1501 123.818 81.1326C124.061 80.2808 124.315 79.4378 124.552 78.586C124.671 78.1669 124.784 77.7469 124.895 77.3278C125.035 76.9547 125.105 76.5601 125.104 76.1615C125.097 76.1518 125.083 76.1498 125.073 76.1566C125.066 76.1615 125.062 76.1684 125.062 76.1752Z" fill="#263238"/>
<path d="M111.123 85.0926L121.745 93.2949C121.745 93.2949 114.49 102.204 108.817 102.089C103.144 101.975 91.6107 93.8556 87.3421 89.7862C83.0724 85.7168 84.607 83.0745 90.3761 84.7058C96.1452 86.3361 106.562 89.7813 106.931 89.795C107.299 89.8087 111.123 85.0926 111.123 85.0926Z" fill="#FFC727"/>
<g opacity="0.1">
<g opacity="0.1">
<path opacity="0.1" d="M89.6789 87.4757C89.3927 87.759 89.1446 88.0794 88.9404 88.4281C89.6476 88.0247 90.2337 87.4435 90.644 86.7422C90.2904 86.9405 89.9651 87.1876 89.6789 87.4757ZM109.998 96.8581C109.707 97.1384 109.456 97.4588 109.255 97.8095C109.961 97.4051 110.545 96.8219 110.953 96.1196C110.601 96.3169 110.279 96.567 109.998 96.8581ZM112.18 85.9226C112.048 86.0271 111.929 86.1414 111.81 86.2547C111.52 86.537 111.27 86.8574 111.068 87.2071C111.423 87.0098 111.748 86.7627 112.034 86.4735C112.157 86.3465 112.276 86.2186 112.389 86.0769L112.18 85.9226ZM101.299 91.3625C101.016 91.0714 100.694 90.8213 100.343 90.6191C100.538 90.9737 100.785 91.298 101.076 91.5813C101.357 91.8714 101.677 92.1195 102.03 92.3188C101.832 91.9642 101.587 91.6399 101.3 91.3527V91.3625H101.299ZM108.135 101.697C107.855 101.405 107.533 101.157 107.181 100.959C107.382 101.309 107.629 101.632 107.915 101.915C107.961 101.956 108.002 102.002 108.048 102.038L108.503 102.079C108.376 101.934 108.258 101.811 108.139 101.687L108.135 101.697ZM113.114 91.7171C112.833 91.4299 112.515 91.1818 112.166 90.9796C112.362 91.3332 112.608 91.6565 112.895 91.9408C113.178 92.2289 113.499 92.4771 113.847 92.6793C113.651 92.3247 113.404 92.0014 113.114 91.7171ZM103.672 97.4276C103.268 97.4207 102.864 97.4725 102.474 97.5819C102.864 97.6894 103.267 97.7411 103.672 97.7372C104.076 97.745 104.481 97.6952 104.871 97.5868C104.478 97.4764 104.069 97.4227 103.66 97.4276H103.672ZM120.277 92.1459C120.086 92.1459 119.899 92.1137 119.702 92.1049C119.299 92.1 118.897 92.1537 118.509 92.2641C118.899 92.3696 119.303 92.4224 119.707 92.4194C119.988 92.4214 120.269 92.3989 120.546 92.3511L120.277 92.1459ZM94.4184 91.553C94.0159 91.5432 93.6125 91.594 93.2247 91.7044C94.0081 91.9134 94.8326 91.9134 95.6169 91.7044C95.2223 91.5969 94.814 91.5462 94.4047 91.553H94.4184ZM98.52 96.7438C98.5122 97.1472 98.565 97.5497 98.6744 97.9375C98.8844 97.155 98.8844 96.3316 98.6744 95.5501C98.5718 95.9389 98.5239 96.3413 98.5327 96.7438H98.52ZM107.774 92.0639C107.764 92.4683 107.814 92.8727 107.925 93.2624C108.033 92.8717 108.087 92.4683 108.084 92.0639C108.091 91.6604 108.038 91.258 107.93 90.8702C107.821 91.259 107.773 91.6604 107.783 92.0639H107.774ZM114.96 97.5321C114.958 97.9365 115.009 98.3389 115.11 98.7306C115.224 98.3428 115.28 97.9404 115.274 97.536C115.281 97.1316 115.228 96.7282 115.119 96.3384C115.018 96.7233 114.967 97.1199 114.97 97.5184L114.96 97.5321Z" fill="black"/>
</g>
</g>
<path d="M114.405 91.098C113.667 90.4914 112.914 89.9043 112.162 89.3163C111.803 89.034 111.443 88.7468 111.074 88.4782C110.705 88.2086 110.29 87.8579 109.875 87.5942C109.863 87.5834 109.846 87.5844 109.836 87.5961C109.826 87.6078 109.826 87.6244 109.838 87.6352C110.18 87.9898 110.582 88.3004 110.941 88.6325C111.301 88.9656 111.634 89.2391 111.98 89.5439C112.709 90.1632 113.433 90.7786 114.172 91.3666C115.657 92.574 117.165 93.7315 118.696 94.8754C118.715 94.8842 118.736 94.8783 118.745 94.8597C118.753 94.847 118.751 94.8324 118.741 94.8207C117.315 93.5586 115.88 92.3278 114.405 91.098Z" fill="#263238"/>
<path d="M97.6943 97.4916C96.7419 96.84 93.0642 94.1518 92.3941 93.6458C91.0275 92.6202 89.6971 91.5818 88.3432 90.5562L97.6943 97.4916ZM88.3218 90.5562C89.0505 91.2712 89.8104 91.9501 90.5997 92.6026L90.417 92.4971C90.0341 92.2832 89.6424 92.0868 89.2556 91.8866C89.2556 91.8866 89.2146 91.9139 89.2556 91.9276C89.6297 92.165 90.0038 92.4102 90.3907 92.6338C90.6319 92.7755 90.883 92.9025 91.133 93.0304C91.4788 93.3127 91.8305 93.5862 92.1812 93.8598C92.863 94.3794 96.5182 97.0813 97.6494 97.5052C97.6953 97.5658 97.7314 97.5189 97.6953 97.4916L88.3218 90.5562Z" fill="#263238"/>
</svg>
