<svg width="181" height="146" viewBox="0 0 181 146" fill="none" xmlns="http://www.w3.org/2000/svg">
<path d="M85.9444 0.112671H25.6816V77.4969H85.9444V0.112671Z" fill="#EBEBEB"/>
<path d="M85.9441 77.4969L55.8691 77.6095L25.6814 77.7222H25.5687V77.6095L25.4561 0.225295V0H25.6814L85.9441 0.112648H86.1694V0.337909L86.0568 39.0864L85.9441 77.4969ZM85.9441 77.4969L85.8315 38.7484L85.7189 0.112648L85.9441 0.337909L25.6814 0.450556L25.9066 0.225295L25.794 77.6095L25.6814 77.4969L55.7564 77.6095L85.9441 77.4969Z" fill="#DBDBDB"/>
<path d="M32.3281 16.6708H55.8701H79.412L55.8701 16.7834L32.3281 16.6708Z" fill="#C7C7C7"/>
<path d="M32.3281 18.5857H55.8701H79.412L55.8701 18.6983L32.3281 18.5857Z" fill="#C7C7C7"/>
<path d="M32.3281 20.5006H55.8701H79.412L55.8701 20.6132L32.3281 20.5006Z" fill="#C7C7C7"/>
<path d="M32.3281 22.4155H55.8701H79.412L55.8701 22.5282L32.3281 22.4155Z" fill="#C7C7C7"/>
<path d="M32.3281 24.3304H55.8701H79.412L55.8701 24.4431L32.3281 24.3304Z" fill="#C7C7C7"/>
<path d="M32.3281 26.2452H55.8701H79.412L55.8701 26.3579L32.3281 26.2452Z" fill="#C7C7C7"/>
<path d="M32.3281 28.1602H55.8701H79.412L55.8701 28.2728L32.3281 28.1602Z" fill="#C7C7C7"/>
<path d="M32.3281 30.0751H55.8701H79.412L55.8701 30.1877L32.3281 30.0751Z" fill="#C7C7C7"/>
<path d="M32.3281 31.99H55.8701H79.412L55.8701 32.1026L32.3281 31.99Z" fill="#C7C7C7"/>
<path d="M32.3281 34.0176L55.8701 33.9049L79.412 34.0176H55.8701H32.3281Z" fill="#C7C7C7"/>
<path d="M32.3281 35.9325L55.8701 35.8198L79.412 35.9325H55.8701H32.3281Z" fill="#C7C7C7"/>
<path d="M32.3281 37.8473L55.8701 37.7346L79.412 37.8473H55.8701H32.3281Z" fill="#C7C7C7"/>
<path d="M32.3281 39.7621L55.8701 39.6495L79.412 39.7621H55.8701H32.3281Z" fill="#C7C7C7"/>
<path d="M32.3281 41.6771L55.8701 41.5645L79.412 41.6771H55.8701H32.3281Z" fill="#C7C7C7"/>
<path d="M32.3281 43.592L55.8701 43.4794L79.412 43.592H55.8701H32.3281Z" fill="#C7C7C7"/>
<path d="M40.8877 37.7346H37.2832V45.7321H40.8877V37.7346Z" fill="#FFC727"/>
<path d="M47.5342 33.4543H43.9297V45.8448H47.5342V33.4543Z" fill="#FFC727"/>
<path d="M54.0674 28.6108H50.4629V45.7323H54.0674V28.6108Z" fill="#FFC727"/>
<path d="M60.7139 26.5833H57.1094V45.8448H60.7139V26.5833Z" fill="#FFC727"/>
<path d="M67.3584 22.8661H63.7539V45.7322H67.3584V22.8661Z" fill="#FFC727"/>
<path d="M74.0049 19.2616H70.4004V45.8448H74.0049V19.2616Z" fill="#FFC727"/>
<path d="M33.5667 15.3191L33.6794 22.9787L33.792 30.6382C33.792 35.7071 33.9047 40.7759 33.9047 45.8448L33.6794 45.6195H45.1687H56.6581L68.1475 45.7321L79.6368 45.8448L68.1475 45.9574L56.6581 46.07H45.1687H33.6794H33.4541V45.8448C33.4541 40.7759 33.4541 35.7071 33.5667 30.6382L33.6794 22.9787L33.5667 15.3191Z" fill="#C7C7C7"/>
<path d="M40.8877 47.4218H37.2832V47.7597H40.8877V47.4218Z" fill="#C7C7C7"/>
<path d="M47.5342 47.4218H43.9297V47.7597H47.5342V47.4218Z" fill="#C7C7C7"/>
<path d="M54.0674 47.4218H50.4629V47.7597H54.0674V47.4218Z" fill="#C7C7C7"/>
<path d="M60.7139 47.4218H57.1094V47.7597H60.7139V47.4218Z" fill="#C7C7C7"/>
<path d="M67.3584 47.4218H63.7539V47.7597H67.3584V47.4218Z" fill="#C7C7C7"/>
<path d="M74.0049 47.4218H70.4004V47.7597H74.0049V47.4218Z" fill="#C7C7C7"/>
<path d="M37.6221 38.7484C39.3117 38.7484 41.1139 38.6358 42.8035 38.4105C44.4931 38.1852 46.2954 37.8473 47.985 37.5094C51.3642 36.7209 54.6308 35.5945 57.7847 34.0175C60.9387 32.5532 63.7547 30.5257 66.3455 28.1602L66.796 27.7096L67.2466 27.2591L68.1477 26.3579C68.7109 25.6821 69.2741 25.1189 69.8373 24.3304C70.9637 22.9787 71.8649 21.5144 72.766 20.05C70.4006 24.781 66.9087 28.836 62.5157 31.8773C61.0513 32.8911 59.587 33.7923 58.01 34.5807C51.7021 37.5094 44.7184 38.9737 37.6221 38.7484Z" fill="#263238"/>
<path d="M73.892 22.5281L73.3288 22.6408L72.7656 20.1627L70.4001 20.9512L70.1748 20.5006L73.1035 19.4868L73.892 22.5281Z" fill="#263238"/>
<path d="M80.4249 57.7847H31.3135V59.8122H80.4249V57.7847Z" fill="#DBDBDB"/>
<path d="M58.9104 62.741H31.3135V64.7685H58.9104V62.741Z" fill="#DBDBDB"/>
<path d="M69.6116 8.67334H42.0146V10.7009H69.6116V8.67334Z" fill="#DBDBDB"/>
<path d="M74.5682 96.3079L15.5445 108.473L0 32.7785L43.8173 23.7672L61.9524 35.0313L74.5682 96.3079Z" fill="#FFC727"/>
<path opacity="0.8" d="M74.5682 96.3079L15.5445 108.473L0 32.7785L43.8173 23.7672L61.9524 35.0313L74.5682 96.3079Z" fill="white"/>
<path d="M43.8174 23.7672L61.9525 35.0313L46.746 38.1852L43.8174 23.7672Z" fill="#FFC727"/>
<path d="M41.0947 37.5527L8.32617 44.2837L8.73412 46.2697L41.5026 39.5387L41.0947 37.5527Z" fill="#DBDBDB"/>
<path d="M42.0957 42.396L9.32715 49.1271L9.73508 51.113L42.5036 44.382L42.0957 42.396Z" fill="#DBDBDB"/>
<path d="M43.1181 47.3515L10.3496 54.0825L10.7575 56.0685L43.5261 49.3375L43.1181 47.3515Z" fill="#DBDBDB"/>
<path d="M59.4103 49.1597L11.3057 59.0409L11.7136 61.0269L59.8182 51.1456L59.4103 49.1597Z" fill="#DBDBDB"/>
<path d="M60.5969 53.7732L12.4775 63.5955L12.883 65.582L61.0024 55.7597L60.5969 53.7732Z" fill="#DBDBDB"/>
<path d="M61.4347 58.9574L13.3301 68.8386L13.738 70.8246L61.8426 60.9434L61.4347 58.9574Z" fill="#DBDBDB"/>
<path d="M62.4338 63.802L14.3291 73.6832L14.737 75.6692L62.8417 65.788L62.4338 63.802Z" fill="#DBDBDB"/>
<path d="M63.4561 68.7557L15.3516 78.6368L15.7595 80.6228L63.8641 70.7416L63.4561 68.7557Z" fill="#DBDBDB"/>
<path d="M64.4786 73.7095L16.374 83.5907L16.782 85.5767L64.8866 75.6955L64.4786 73.7095Z" fill="#DBDBDB"/>
<path d="M65.4796 78.5527L17.375 88.4338L17.7829 90.4198L65.8875 80.5387L65.4796 78.5527Z" fill="#DBDBDB"/>
<path d="M66.5021 83.5083L18.3975 93.3895L18.8054 95.3755L66.91 85.4942L66.5021 83.5083Z" fill="#DBDBDB"/>
<path d="M67.5011 88.3518L19.3965 98.233L19.8044 100.219L67.9091 90.3378L67.5011 88.3518Z" fill="#DBDBDB"/>
<path d="M158.599 60.3755H41.79V145.081H158.599V60.3755Z" fill="#FFC727"/>
<path d="M83.0166 51.5895H41.79V60.3755H85.382L83.0166 51.5895Z" fill="#FFC727"/>
<g opacity="0.1">
<path opacity="0.1" d="M158.599 60.3756H41.79V145.081H158.599V60.3756Z" fill="black"/>
<path opacity="0.1" d="M83.0166 51.5895H41.79V60.3755H85.382L83.0166 51.5895Z" fill="black"/>
</g>
<path d="M157.81 113.317C135.057 106.784 112.754 100.363 90.7891 93.9425C96.3085 68.1478 111.74 42.8036 112.867 16.6709C135.62 22.8661 157.923 28.9488 179.888 35.144C174.256 61.3893 158.711 86.9588 157.81 113.317Z" fill="#EBEBEB"/>
<path d="M157.811 113.317C135.058 106.896 112.642 100.476 90.6771 94.0551H90.5645V93.9424C96.0839 68.1477 111.516 42.8035 112.529 16.6708C112.529 16.5582 112.529 16.5582 112.529 16.4456L112.755 16.5582C135.508 22.7534 157.811 28.9487 179.776 35.1439H180.001V35.2566C174.257 61.3892 158.825 86.9587 157.811 113.317ZM157.811 113.317C158.712 86.8461 174.144 61.3892 179.663 35.1439C179.663 35.2566 179.776 35.2566 179.776 35.3692C157.811 29.174 135.508 23.0914 112.755 17.0088L112.98 16.8961C111.854 43.0288 96.4218 68.373 90.7897 94.1677L90.6771 93.9424C112.755 100.25 135.058 106.783 157.811 113.317Z" fill="#DBDBDB"/>
<path d="M154.206 65.3316C150.827 74.3429 140.577 79.4117 131.002 76.5957C121.428 73.7797 116.359 64.2052 119.738 55.194C123.005 46.1827 132.917 41.1139 142.604 43.8172C152.291 46.5206 157.586 56.3204 154.206 65.3316Z" fill="#455A64"/>
<path d="M136.972 60.2628C133.029 64.7684 129.087 69.2741 125.144 73.6671C119.4 69.3867 117.147 61.8398 119.625 55.194C122.892 46.1827 132.917 41.1139 142.491 43.8172C152.178 46.6333 157.585 56.3204 154.093 65.3316C148.461 63.642 142.716 61.9524 136.972 60.2628Z" fill="#DBDBDB"/>
<path d="M136.972 60.2628C140.351 64.881 143.843 69.4993 147.222 74.1176C142.491 77.2715 136.521 78.2853 131.002 76.5957C121.428 73.7797 116.471 64.0926 119.738 55.1939C123.004 46.2953 133.03 41.1138 142.604 43.8172C152.291 46.6332 157.698 56.3203 154.206 65.3316C148.461 63.642 142.717 61.9524 136.972 60.2628Z" fill="#DBDBDB"/>
<path d="M136.972 60.2628L118.836 63.3041C118.386 60.6007 118.724 57.7847 119.625 55.194C122.891 46.1827 132.916 41.1139 142.491 43.8172C152.178 46.6333 157.585 56.3204 154.093 65.3316C148.461 63.642 142.716 61.9524 136.972 60.2628Z" fill="#FFC727"/>
<path d="M117.936 28.0476C127.172 30.6383 136.409 33.2291 145.533 35.8198C145.42 36.4957 145.195 37.1715 145.082 37.8474C135.958 35.2566 126.834 32.6659 117.598 30.0752C117.71 29.3993 117.823 28.7235 117.936 28.0476Z" fill="#DBDBDB"/>
<path d="M115.796 79.6371C127.961 83.2416 140.239 86.8461 152.629 90.4506C152.404 91.1264 152.292 91.8023 152.066 92.4781C139.676 88.8736 127.398 85.2691 115.12 81.6646C115.458 80.9888 115.683 80.3129 115.796 79.6371Z" fill="#DBDBDB"/>
<path d="M114.218 84.7059C126.496 88.3104 138.887 91.9149 151.277 95.6321C151.165 96.3079 150.939 96.9838 150.827 97.6596C138.324 94.0551 125.933 90.338 113.655 86.7335C113.881 85.945 114.106 85.2691 114.218 84.7059Z" fill="#DBDBDB"/>
<path d="M112.867 89.6621C125.257 93.2666 137.761 96.9837 150.264 100.588C150.151 101.264 150.038 101.94 149.926 102.616C137.31 98.8987 124.694 95.2941 112.304 91.6896C112.529 91.0138 112.642 90.338 112.867 89.6621Z" fill="#DBDBDB"/>
<path d="M108.586 79.7497L104.193 78.398L104.869 76.3705L109.262 77.7222C109.037 78.398 108.812 79.0739 108.586 79.7497Z" fill="#FFC727"/>
<path d="M107.01 84.7059L102.504 83.3542C102.729 82.6783 102.955 82.0025 103.18 81.3267L107.685 82.6783C107.46 83.3542 107.235 84.03 107.01 84.7059Z" fill="#455A64"/>
<path d="M105.658 89.6621L101.152 88.3104C101.378 87.6345 101.49 86.9587 101.716 86.2828L106.221 87.6345C105.996 88.423 105.771 89.0989 105.658 89.6621Z" fill="#DBDBDB"/>
<path d="M158.261 145.081H41.4527L32.4414 67.3593H149.25L158.261 145.081Z" fill="#FFC727"/>
<path d="M72.7666 59.3618H31.54L32.4412 67.3593H76.1458L72.7666 59.3618Z" fill="#FFC727"/>
<path d="M112.303 7.88491C112.078 7.20907 112.078 6.53323 112.078 5.85739C112.078 5.18154 112.191 4.50568 112.303 3.82983C112.641 5.18152 112.641 6.53322 112.303 7.88491Z" fill="#263238"/>
<path d="M108.136 9.12393C107.685 8.67337 107.235 8.11016 106.897 7.43432C106.559 6.87111 106.221 6.19525 106.108 5.51941C106.559 5.96997 107.009 6.53318 107.347 7.20902C107.685 7.77223 107.911 8.44808 108.136 9.12393Z" fill="#263238"/>
<path d="M105.094 12.2779C104.418 12.0526 103.742 11.8273 103.179 11.4894C102.616 11.1515 102.052 10.7009 101.489 10.2504C102.165 10.4756 102.841 10.7009 103.404 11.0388C103.967 11.3768 104.531 11.8273 105.094 12.2779Z" fill="#263238"/>
<path d="M103.967 16.5583C102.616 16.8962 101.151 16.8962 99.7998 16.5583C101.151 16.2203 102.616 16.2203 103.967 16.5583Z" fill="#263238"/>
<path d="M105.207 20.8385C104.756 21.2891 104.193 21.7396 103.517 22.0776C102.954 22.4155 102.278 22.7534 101.603 22.866C102.616 21.9649 103.855 21.1764 105.207 20.8385Z" fill="#263238"/>
<path d="M108.362 23.8799C108.136 24.5557 107.911 25.2316 107.573 25.7948C107.235 26.358 106.785 26.9212 106.334 27.4844C106.559 26.8085 106.785 26.1327 107.122 25.5695C107.46 24.8937 107.911 24.3304 108.362 23.8799Z" fill="#263238"/>
<path d="M112.642 25.0063C112.98 26.358 112.98 27.8223 112.642 29.174C112.304 27.7097 112.304 26.358 112.642 25.0063Z" fill="#263238"/>
<path d="M116.922 23.7672C117.372 24.2178 117.823 24.781 118.161 25.4568C118.499 26.02 118.837 26.6959 118.949 27.3717C118.499 26.9211 118.048 26.3579 117.71 25.6821C117.372 25.1189 117.147 24.4431 116.922 23.7672Z" fill="#263238"/>
<path d="M119.963 20.5007C120.639 20.726 121.315 20.9513 121.878 21.2892C122.441 21.6271 123.004 22.0777 123.567 22.5283C122.216 22.303 120.977 21.5145 119.963 20.5007Z" fill="#263238"/>
<path d="M120.978 16.2204C121.653 15.9951 122.329 15.9951 123.005 15.9951C123.681 15.9951 124.357 16.1077 125.033 16.2204C124.357 16.4457 123.681 16.4457 123.005 16.4457C122.442 16.5583 121.653 16.4457 120.978 16.2204Z" fill="#263238"/>
<path d="M119.851 12.0526C120.301 11.602 120.864 11.1514 121.54 10.8135C122.103 10.4756 122.779 10.1377 123.455 10.025C123.005 10.4756 122.441 10.9262 121.765 11.2641C121.09 11.602 120.526 11.8273 119.851 12.0526Z" fill="#263238"/>
<path d="M116.584 9.01126C116.809 8.33541 117.035 7.65955 117.372 7.09635C117.71 6.53315 118.161 5.96994 118.612 5.40674C118.386 6.08258 118.161 6.75844 117.823 7.32165C117.598 7.88485 117.147 8.44805 116.584 9.01126Z" fill="#263238"/>
<path d="M125.708 107.234C125.708 123.792 112.416 137.309 95.7453 137.309C79.0745 137.422 65.5576 123.905 65.5576 107.234C65.5576 90.5633 78.9619 77.159 95.7453 77.0464C112.191 77.159 125.708 90.6759 125.708 107.234ZM112.078 126.834C100.026 114.894 87.9732 102.841 75.9206 90.9012C68.1484 99.9125 67.3599 114.894 77.047 125.031C86.8467 135.169 102.391 135.169 112.078 126.834ZM79.0745 87.7473C91.1271 99.6872 103.18 111.74 115.232 123.68C123.342 114.105 123.568 98.5608 113.092 88.6484C102.729 78.736 87.6352 80.2003 79.0745 87.7473Z" fill="#F7F5F4"/>
</svg>
