<svg width="204" height="146" viewBox="0 0 204 146" fill="none" xmlns="http://www.w3.org/2000/svg">
<path d="M47.7496 42.2907H190.928C193.565 42.2907 195.703 44.4288 195.703 47.0657V138.503C195.703 141.14 193.565 143.278 190.928 143.278H47.7496C45.1127 143.278 42.9746 141.14 42.9746 138.503V47.137C42.9746 44.5001 45.1127 42.2907 47.7496 42.2907Z" fill="#455A64"/>
<path d="M37.915 136.793H203.4V139.786C203.4 142.993 200.763 145.63 197.556 145.63H43.759C40.5519 145.63 37.915 142.993 37.915 139.786V136.793Z" fill="#455A64"/>
<path d="M104.266 135.866L106.332 139.145H135.196L137.12 135.866H104.266Z" fill="#263238"/>
<path d="M194.42 135.866C194.42 135.937 160.496 135.937 118.733 135.937C76.8984 135.937 42.9746 135.866 42.9746 135.866C42.9746 135.795 76.8984 135.795 118.733 135.795C160.496 135.795 194.42 135.795 194.42 135.866Z" fill="#263238"/>
<path d="M48.3903 48.1348H189.644C190.214 48.1348 190.713 48.6336 190.713 49.2038V132.16C190.713 132.73 190.214 133.229 189.644 133.229H48.3903C47.8202 133.229 47.3213 132.73 47.3213 132.16V49.2038C47.3213 48.6336 47.8202 48.1348 48.3903 48.1348Z" fill="#EBEBEB"/>
<path d="M190.572 133.301H47.1797L47.3222 54.4777H190.572V133.301Z" fill="white"/>
<path d="M59.0813 51.4131C59.0813 52.0545 58.5825 52.5534 57.9411 52.5534C57.2996 52.5534 56.8008 52.0545 56.8008 51.4131C56.8008 50.7717 57.2996 50.2728 57.9411 50.2728C58.5825 50.2728 59.0813 50.7717 59.0813 51.4131Z" fill="#263238"/>
<path d="M52.1683 51.4131C52.1683 52.0545 51.6694 52.5534 51.028 52.5534C50.3866 52.5534 49.8877 52.0545 49.8877 51.4131C49.8877 50.7717 50.3866 50.2728 51.028 50.2728C51.6694 50.2728 52.1683 50.7717 52.1683 51.4131Z" fill="#263238"/>
<path d="M55.4466 51.4131C55.4466 52.0545 54.9478 52.5534 54.3063 52.5534C53.6649 52.5534 53.166 52.0545 53.166 51.4131C53.166 50.7717 53.6649 50.2728 54.3063 50.2728C54.9478 50.2728 55.4466 50.7717 55.4466 51.4131Z" fill="#263238"/>
<path d="M190.786 125.746H47.1797V133.372H190.786V125.746Z" fill="#263238"/>
<path d="M52.5954 130.379V130.592H51.4551V130.379L52.0965 129.808C52.239 129.666 52.239 129.595 52.239 129.452C52.239 129.309 52.1677 129.238 51.9539 129.238C51.8114 129.238 51.6689 129.309 51.5976 129.381L51.3838 129.238C51.5263 129.096 51.7401 128.953 51.9539 128.953C52.3103 128.953 52.5241 129.096 52.5241 129.381C52.5241 129.595 52.4528 129.737 52.239 129.88L51.8114 130.307L52.5954 130.379Z" fill="white"/>
<path d="M52.7383 129.666C52.7383 129.595 52.8095 129.452 52.9521 129.452C53.0946 129.452 53.1659 129.523 53.1659 129.666C53.1659 129.737 53.0946 129.88 52.9521 129.88C52.8095 129.808 52.7383 129.737 52.7383 129.666ZM52.7383 130.45C52.7383 130.379 52.8096 130.236 52.8808 130.236C52.9521 130.236 53.0946 130.307 53.0946 130.379C53.0946 130.379 53.0946 130.379 53.0946 130.45C53.0946 130.521 53.0233 130.664 52.9521 130.664C52.8808 130.664 52.7383 130.664 52.7383 130.45C52.7383 130.521 52.7383 130.521 52.7383 130.45Z" fill="white"/>
<path d="M53.8074 129.096V130.664H53.5224V129.381H53.166V129.167L53.8074 129.096Z" fill="white"/>
<path d="M55.5181 130.307H55.2331V130.664H54.948V130.307H54.0928V130.093L54.8768 129.096H55.1618L54.4491 130.022H54.948V129.737H55.2331V130.022H55.5181V130.307Z" fill="white"/>
<path d="M175.748 129.666H58.084V130.236H175.748V129.666Z" fill="white"/>
<path d="M94.7159 129.096H57.9414V130.521H94.7159V129.096Z" fill="#FF725E"/>
<path d="M95.9267 129.951C95.9267 130.949 95.1427 131.733 94.145 131.733C93.1472 131.733 92.3633 130.949 92.3633 129.951C92.3633 128.953 93.1472 128.169 94.145 128.169C95.1427 128.169 95.9267 128.953 95.9267 129.951Z" fill="#FF725E"/>
<path d="M178.67 129.951C178.67 130.236 178.456 130.45 178.171 130.45C178.171 130.45 178.171 130.45 178.1 130.45C177.672 130.45 177.458 130.165 177.458 129.666C177.387 129.238 177.672 128.882 178.1 128.811C178.171 128.811 178.171 128.811 178.242 128.811C178.385 128.811 178.527 128.811 178.67 128.882L178.527 129.096C178.456 129.024 178.313 129.024 178.242 129.024C177.957 129.024 177.743 129.238 177.743 129.523C177.886 129.381 178.028 129.381 178.171 129.381C178.456 129.452 178.67 129.666 178.67 129.951C178.67 129.88 178.67 129.951 178.67 129.951ZM178.456 129.951C178.456 129.808 178.313 129.666 178.171 129.666C178.028 129.666 177.886 129.737 177.815 129.88C177.815 130.022 177.957 130.165 178.171 130.165C178.242 130.236 178.385 130.093 178.456 129.951Z" fill="white"/>
<path d="M178.812 129.381C178.812 129.31 178.884 129.167 178.955 129.167C179.026 129.167 179.169 129.238 179.169 129.309C179.169 129.309 179.169 129.31 179.169 129.381C179.169 129.452 179.098 129.595 179.026 129.595C178.955 129.595 178.884 129.523 178.812 129.381C178.812 129.452 178.812 129.381 178.812 129.381ZM178.812 130.236C178.812 130.165 178.884 130.022 178.955 130.022C179.026 130.022 179.169 130.093 179.169 130.165C179.169 130.165 179.169 130.165 179.169 130.236C179.169 130.307 179.098 130.45 179.026 130.45C178.955 130.45 178.884 130.379 178.812 130.236C178.812 130.307 178.812 130.236 178.812 130.236Z" fill="white"/>
<path d="M179.383 129.666C179.383 129.167 179.668 128.882 180.024 128.882C180.381 128.882 180.666 129.167 180.666 129.666C180.666 130.165 180.381 130.45 180.024 130.45C179.668 130.45 179.383 130.165 179.383 129.666ZM180.381 129.666C180.381 129.309 180.238 129.096 180.024 129.096C179.81 129.096 179.668 129.238 179.668 129.666C179.668 130.022 179.81 130.236 180.024 130.236C180.238 130.236 180.381 130.022 180.381 129.666Z" fill="white"/>
<path d="M180.879 129.666C180.879 129.167 181.164 128.882 181.52 128.882C181.877 128.882 182.162 129.167 182.162 129.666C182.162 130.165 181.877 130.45 181.52 130.45C181.164 130.45 180.879 130.165 180.879 129.666ZM181.877 129.666C181.877 129.309 181.734 129.096 181.52 129.096C181.307 129.096 181.164 129.238 181.164 129.666C181.164 130.022 181.307 130.236 181.52 130.236C181.734 130.165 181.877 130.022 181.877 129.666Z" fill="white"/>
<path d="M184.656 129.523H184.157V127.955H185.725V128.526H184.656V129.523Z" fill="white"/>
<path d="M185.725 131.519H184.157V130.022H184.656V131.02H185.725V131.519Z" fill="white"/>
<path d="M188.148 131.519H186.58V131.02H187.649V130.022H188.148V131.519Z" fill="white"/>
<path d="M188.148 129.523H187.649V128.526H186.58V127.955H188.148V129.523Z" fill="white"/>
<path d="M165.128 93.6753L163.632 108.285C163.489 109.711 163.347 111.207 163.204 112.775C163.133 113.203 163.133 113.559 163.061 113.987L162.99 114.343C162.919 115.056 162.848 115.84 162.776 116.624C162.634 117.978 162.491 119.332 162.349 120.757C162.206 122.183 162.064 123.608 161.921 125.105C161.921 125.461 161.85 125.746 161.85 126.102H125.717C127.926 108.927 129.708 95.1719 129.85 93.7466C129.85 93.6753 129.85 93.6753 129.85 93.6753H165.128Z" fill="#F7A9A0"/>
<path d="M165.128 93.6753C165.128 93.6753 164.558 99.448 163.703 108.285C163.561 109.711 163.418 111.207 163.275 112.775C163.204 113.203 163.204 113.559 163.133 113.987C163.133 114.129 163.133 114.272 163.062 114.343C162.99 115.127 162.919 115.84 162.848 116.624C162.705 117.978 162.563 119.332 162.42 120.757C162.278 122.183 162.135 123.608 161.993 125.105C161.993 125.461 161.921 125.746 161.921 126.102H135.267L133.913 117.907L133.842 117.55L131.133 101.158V101.016L130.848 99.448C130.848 99.448 130.848 99.448 130.848 99.3767L129.922 93.604L165.128 93.6753Z" fill="#263238"/>
<path d="M182.518 126.174H137.619C136.336 122.61 135.196 118.619 134.198 114.699L134.127 114.486C132.915 109.568 131.917 104.793 131.205 101.087V101.016C131.133 100.517 130.991 100.018 130.92 99.5906C130.92 99.5906 130.92 99.5906 130.92 99.5193C130.35 96.526 130.064 94.4592 129.993 93.8891C129.993 93.8178 129.993 93.7466 129.993 93.7466H176.674C182.946 105.933 183.017 119.403 182.518 126.174Z" fill="#F7A9A0"/>
<path d="M183.374 126.174H125.147C127.784 107.929 129.922 93.6753 129.922 93.6753H141.183H156.648H177.53C182.59 103.653 184.657 114.985 183.374 126.174Z" fill="#37474F"/>
<path d="M131.989 93.6753L131.134 101.087V101.23L128.283 126.174H128.212L131.134 101.087V101.016L131.989 93.6753Z" fill="#455A64"/>
<path d="M174.679 93.6753C174.75 93.9604 174.893 94.2454 174.964 94.4592C174.893 94.1742 174.821 93.9604 174.679 93.6753C174.679 93.604 174.679 93.604 174.679 93.6753C174.679 93.604 174.679 93.604 174.679 93.6753Z" fill="#455A64"/>
<path d="M174.964 94.4592C175.178 95.0294 175.391 95.6708 175.605 96.2409C175.391 95.6708 175.178 95.0294 174.964 94.4592Z" fill="#455A64"/>
<path d="M180.38 120.615C180.38 122.468 180.309 124.321 180.095 126.174H180.024C180.238 124.321 180.309 122.468 180.309 120.615C180.238 117.408 179.953 114.129 179.454 110.922C178.884 107.715 178.171 104.579 177.316 101.444C176.817 99.6618 176.247 97.9514 175.677 96.2409C176.247 97.9514 176.817 99.6618 177.316 101.444C178.171 104.579 178.955 107.715 179.454 110.922C179.953 114.129 180.238 117.408 180.38 120.615Z" fill="#455A64"/>
<path d="M146.527 93.6753L145.244 126.174H145.102L146.527 93.6753Z" fill="#455A64"/>
<path d="M175.391 126.174H175.32C175.32 124.321 175.249 122.468 175.106 120.686C174.892 117.479 174.465 114.272 174.037 111.136C173.61 108 173.039 104.793 172.469 101.657C171.97 99.0204 171.4 96.3835 170.83 93.7466C171.471 96.3835 171.97 99.0204 172.469 101.657C173.111 104.793 173.61 108 174.108 111.136C174.607 114.343 174.964 117.479 175.177 120.686C175.249 122.539 175.391 124.321 175.391 126.174Z" fill="#455A64"/>
<path d="M135.766 93.6753L134.127 114.699L133.842 117.978L133.271 126.174H133.129L133.842 117.621L134.055 114.486L135.766 93.6753Z" fill="#455A64"/>
<path d="M141.111 93.6753L139.115 126.174H139.044L141.111 93.6753Z" fill="#455A64"/>
<path d="M151.517 93.604V93.6753L151.304 126.174H151.232L151.517 93.6753V93.604Z" fill="#455A64"/>
<path d="M169.618 126.174H169.547C169.404 124.534 169.262 122.895 169.119 121.256C168.834 117.978 168.478 114.771 168.121 111.492C167.48 105.506 166.767 99.5193 166.055 93.604C166.767 99.5905 167.48 105.577 168.193 111.492C168.549 114.771 168.905 117.978 169.19 121.256C169.333 122.967 169.476 124.534 169.618 126.174Z" fill="#455A64"/>
<path d="M163.846 126.174H163.775L163.632 124.178L163.062 114.414L161.779 93.6753V93.604V93.6753L163.062 113.987V114.058L163.704 124.178L163.846 126.174Z" fill="#455A64"/>
<path d="M157.431 126.174H157.36L156.647 93.6753L157.431 126.174Z" fill="#455A64"/>
<path d="M129.495 40.7228C129.352 51.912 129.424 63.3862 130.992 74.5041C132.203 83.1275 136.194 90.1118 145.245 91.8223C153.655 93.4615 165.628 92.7488 172.399 86.9048C175.606 84.1966 176.603 80.4906 176.176 76.4283C175.606 70.7268 169.762 39.8676 168.051 30.2464C166.982 24.4024 165.913 18.4158 163.846 12.7856C159.428 0.955057 153.512 1.3114 152.657 1.0976C151.945 0.669987 147.312 -1.18299 140.898 1.16887C137.548 2.38043 134.84 5.01736 133.486 8.36697C129.281 18.202 129.566 30.3176 129.495 40.7228Z" fill="#263238"/>
<path d="M154.581 2.73679C161.851 5.73006 163.917 13.4271 165.913 20.3401C168.764 29.9613 171.401 39.5826 173.61 49.3463C174.679 54.05 175.606 58.7538 176.389 63.5287C177.173 68.0899 178.242 72.9362 178.171 77.5686C177.957 85.1944 171.187 88.9716 164.416 90.3969C164.274 90.3969 164.131 90.3257 164.131 90.1831C164.131 90.0406 164.203 89.8981 164.345 89.8981C168.194 88.9716 172.042 87.76 174.822 84.7667C178.314 80.9182 177.672 76.2145 177.031 71.4395C175.962 63.3862 174.394 55.3329 172.541 47.4221C170.688 39.5113 168.55 31.6005 166.341 23.761C164.203 16.2778 162.492 6.44275 154.581 2.9506C154.439 2.80806 154.51 2.66552 154.581 2.73679Z" fill="#263238"/>
<path d="M130.564 16.7054C131.633 10.7901 134.413 5.01737 140.542 3.02185C132.702 5.87259 131.134 14.6386 130.422 21.908C129.638 29.605 129.139 37.302 128.925 44.9989C128.711 52.4109 128.64 59.894 129.139 67.306C129.638 75.288 131.419 82.6999 136.408 89.1141C136.48 89.1854 136.48 89.2566 136.408 89.3279C136.337 89.3992 136.266 89.3992 136.194 89.3279C131.277 84.1966 129.424 76.9272 128.783 70.0854C127.927 61.0343 128.07 51.8407 128.426 42.7184C128.711 34.0949 128.996 25.1863 130.564 16.7054Z" fill="#263238"/>
<path d="M147.526 51.6269C136.551 65.1679 121.442 77.925 115.17 77.7112C110.11 77.5686 79.6788 59.2526 77.4695 56.5444C75.6165 54.1926 89.9414 35.6628 92.9347 37.0169C97.9234 39.1549 115.598 53.765 117.095 53.5512C118.591 53.3373 130.992 47.9209 143.321 42.1482C155.152 36.5893 155.223 42.2907 147.526 51.6269Z" fill="#F7A9A0"/>
<path d="M80.8892 59.1101C78.4661 57.756 67.7758 50.4154 65.2814 47.7072C62.787 44.999 56.0878 36.7318 57.9408 34.5938C59.7938 32.4557 61.9318 34.7363 61.9318 34.7363C61.9318 34.7363 59.6512 30.8166 61.718 28.821C63.7848 26.8255 66.9919 30.4602 66.9919 30.4602C66.9919 30.4602 64.9964 26.2554 67.2057 24.4024C69.415 22.5494 72.0519 26.7543 72.0519 26.7543C72.0519 26.7543 70.0564 22.977 72.4796 22.2644C75.4016 21.4091 78.3948 28.7498 81.3881 31.5293C82.0295 32.1707 96.0694 43.2885 96.0694 43.2885L80.8892 59.1101Z" fill="#F7A9A0"/>
<path d="M71.9097 26.5405C74.119 31.9569 75.972 33.9524 80.6757 37.302C80.747 37.3733 80.6757 37.5158 80.6044 37.4445C75.6869 34.5938 72.9787 32.3845 71.6246 26.6117C71.5534 26.3267 71.8384 26.2554 71.9097 26.5405Z" fill="#263238"/>
<path d="M66.9205 30.1038C69.7 35.5202 71.6955 37.7295 76.328 41.578C76.3992 41.6493 76.328 41.7206 76.2567 41.7206C71.3392 38.2997 68.7022 36.0904 66.7067 30.3176C66.6355 30.0326 66.8493 29.8188 66.9205 30.1038Z" fill="#263238"/>
<path d="M62.2172 34.9501C65.2818 40.0102 67.4198 42.5045 72.3373 45.6404C72.4086 45.6404 72.4086 45.7116 72.4086 45.7829C72.4086 45.8542 72.3373 45.8542 72.266 45.8542C66.8496 43.0747 64.2127 40.0101 62.0747 35.0214C61.9321 34.7363 62.0747 34.665 62.2172 34.9501Z" fill="#263238"/>
<path d="M100.773 43.3598C100.773 43.3598 98.4216 36.4467 96.7111 33.596C95.0007 30.7453 84.8092 22.6207 82.9563 24.7587C80.5331 27.4669 85.5219 33.3109 88.3014 35.8766C88.3014 35.8766 82.6712 42.1482 85.3082 47.137C87.9451 52.197 100.773 43.3598 100.773 43.3598Z" fill="#F7A9A0"/>
<path d="M82.5288 25.6852C82.1012 29.7475 86.021 32.8833 88.5154 35.5915C88.6579 35.7341 88.6579 35.9479 88.5154 36.0904L88.4441 36.1617C86.2348 38.9411 83.9542 43.5023 85.0945 47.137C85.0945 47.2083 85.0945 47.2083 85.0232 47.2795C84.9519 47.2795 84.9519 47.2795 84.8807 47.2083C83.1702 43.5023 85.0232 38.8699 87.6601 35.9479C85.0232 33.1684 81.246 29.89 82.5288 25.6852C82.4575 25.6852 82.5288 25.6852 82.5288 25.6852Z" fill="#263238"/>
<path d="M103.197 42.7897L84.3105 66.1657C84.3105 66.1657 109.397 79.6354 115.954 78.4239C122.51 77.2123 130.635 71.5108 146.884 52.8385C159.784 38.0859 149.592 37.9434 141.539 42.0057C134.982 45.2841 118.306 52.8385 116.951 52.2684C115.669 51.627 103.197 42.7897 103.197 42.7897Z" fill="#FFC727"/>
<path d="M84.3105 66.1657C84.3105 66.1657 107.045 78.3526 114.885 78.4951C115.241 78.4951 115.597 78.4951 115.954 78.4239C122.439 77.2123 130.635 71.5108 146.884 52.8385C152.586 46.3531 153.797 42.6471 152.657 40.9367C151.232 38.7986 146.029 39.7251 141.539 42.0057C134.982 45.284 118.306 52.8385 116.951 52.2684C115.597 51.6982 103.197 42.7897 103.197 42.7897L84.3105 66.1657Z" fill="#FFC727"/>
<path d="M107.26 47.3508C104.694 50.9855 101.986 54.4777 99.2063 57.9698C97.8522 59.6803 96.4268 61.3907 95.0014 63.0299C93.5761 64.669 91.9369 66.3795 90.4402 68.0899C90.369 68.1612 90.2265 68.0899 90.2977 68.0186C91.7231 66.2369 93.0059 64.384 94.36 62.6023C95.7141 60.8205 97.0682 59.1814 98.4223 57.4709C101.202 54.05 104.053 50.5579 106.975 47.2083C107.046 47.137 107.117 47.0657 107.188 47.137C107.26 47.137 107.26 47.2795 107.26 47.3508Z" fill="#263238"/>
<path d="M129.85 85.1231V93.604C129.85 93.604 140.469 93.5328 177.458 93.5328C177.458 93.5328 173.395 59.8941 160.852 45.2128C154.581 37.8721 146.884 38.0859 141.824 42.8609C140.541 44.0725 128.639 64.0276 126.786 71.4396C125.218 77.9963 129.85 85.1231 129.85 85.1231Z" fill="#FFC727"/>
<path d="M144.318 47.0657L141.182 56.6157C140.185 59.8228 139.187 62.9586 138.26 66.1657C137.476 69.3727 136.336 72.5798 136.977 75.8582C137.548 79.0652 138.759 82.2011 140.541 84.9805L140.612 85.0518V85.1943C140.541 86.6197 140.398 88.0451 140.327 89.3992C140.256 90.8245 140.042 92.1786 139.899 93.604C139.828 92.1786 139.828 90.7533 139.828 89.3279C139.828 87.9025 139.828 86.4772 139.899 85.1231L139.971 85.3369C138.046 82.4861 136.764 79.2791 136.193 75.9294C135.908 74.219 135.98 72.5086 136.336 70.7981C136.692 69.1589 137.12 67.5198 137.548 65.8806C138.474 62.6022 139.614 59.5377 140.683 56.3306C141.824 53.2661 143.035 50.2015 144.318 47.0657Z" fill="#263238"/>
<path d="M137.12 59.609C137.049 60.0366 137.334 60.4642 137.762 60.5355C138.189 60.5355 138.546 60.2504 138.546 59.8228C138.617 59.3952 138.332 58.9676 137.904 58.8963C137.548 58.8963 137.192 59.2527 137.12 59.609Z" fill="#263238"/>
<path d="M134.27 68.9451C134.198 69.3727 134.484 69.8004 134.911 69.8716C135.339 69.9429 135.695 69.5866 135.695 69.1589C135.766 68.7313 135.481 68.3037 135.054 68.2325C134.626 68.1612 134.27 68.5175 134.27 68.9451Z" fill="#263238"/>
<path d="M134.27 78.2813C134.198 78.7089 134.484 79.1365 134.911 79.2078C135.339 79.2791 135.695 78.9227 135.695 78.4951C135.766 78.0675 135.481 77.6399 135.054 77.5686C134.626 77.4974 134.27 77.8537 134.27 78.2813Z" fill="#263238"/>
<path d="M137.12 85.8358C137.049 86.2634 137.334 86.691 137.762 86.7623C138.189 86.7623 138.546 86.4772 138.546 86.0496C138.617 85.622 138.332 85.1943 137.904 85.1231C137.548 85.1231 137.192 85.4082 137.12 85.8358Z" fill="#263238"/>
<path d="M134.483 54.9053C133.2 57.0433 132.06 59.1814 130.92 61.3907C131.205 60.3929 131.561 59.3239 131.846 58.3261C131.846 58.2549 131.775 58.1836 131.704 58.2549C131.133 59.4664 130.706 60.7493 130.492 62.1034C130.136 62.816 129.708 63.5287 129.352 64.2414C128.639 65.6668 127.926 67.0922 127.356 68.5888C126.786 70.0854 126.501 71.6533 126.43 73.2212C126.43 73.2925 126.572 73.2925 126.572 73.2212C126.857 71.5821 127.356 70.0142 128.069 68.5888C128.71 67.0922 129.423 65.6668 130.136 64.2414C131.632 61.1769 133.129 58.0411 134.554 54.9765C134.554 54.9052 134.483 54.834 134.483 54.9053Z" fill="#263238"/>
<path d="M166.055 49.7739C181.663 66.9496 199.266 95.9559 191.712 102.156C184.87 107.858 159.783 102.441 143.962 96.3122C140.969 95.1719 147.596 68.375 150.946 69.3015C156.719 70.7981 165.77 74.5753 166.198 74.7179C167.053 74.9317 162.777 64.5978 157.574 52.1258C151.801 38.1572 157.146 39.9389 166.055 49.7739Z" fill="#F7A9A0"/>
<path d="M117.521 68.9451C117.664 70.2992 118.448 71.5108 119.659 72.1522C118.59 72.9362 117.878 74.1477 117.593 75.4306C117.236 77.7112 120.657 79.3503 120.657 79.3503C119.731 80.4194 119.161 81.7735 119.018 83.1276C118.876 85.4081 122.154 87.4749 122.154 87.4749C121.869 88.9003 122.083 90.4682 122.867 91.751C124.933 95.1007 144.889 97.4525 147.597 97.6663L152.158 69.8716C152.158 69.8716 135.125 61.6045 130.564 62.1746C126.715 62.6735 117.165 64.8828 117.521 68.9451Z" fill="#F7A9A0"/>
<path d="M119.731 72.0097C123.651 70.5131 127.927 69.9429 132.06 69.444C132.132 69.444 132.132 69.444 132.132 69.5153C132.132 69.5866 132.132 69.5866 132.06 69.5866C127.998 70.0142 123.864 71.5821 119.802 72.2235C119.731 72.2235 119.66 72.1522 119.731 72.0097C119.66 72.081 119.731 72.0097 119.731 72.0097Z" fill="#263238"/>
<path d="M120.8 79.0652C121.727 78.7801 122.653 78.6376 123.651 78.6376C124.649 78.5663 125.646 78.4951 126.715 78.4951C128.782 78.4238 130.778 78.3525 132.773 78.4238C132.844 78.4238 132.916 78.5663 132.773 78.5663C130.778 78.6376 128.711 78.7801 126.715 78.9227C125.718 78.994 124.72 79.1365 123.651 79.2078C122.724 79.3503 121.727 79.4216 120.8 79.3503C120.729 79.3503 120.657 79.279 120.729 79.1365C120.729 79.0652 120.729 79.0652 120.8 79.0652Z" fill="#263238"/>
<path d="M122.297 87.5462C123.153 87.3324 124.008 87.2611 124.863 87.3324L127.642 87.2611C129.495 87.1899 131.348 87.1899 133.201 87.0473C133.273 87.0473 133.273 87.0473 133.273 87.1186C133.273 87.1899 133.273 87.1899 133.201 87.1899C131.348 87.3324 129.424 87.475 127.571 87.5462L124.792 87.6888C123.936 87.8313 123.081 87.76 122.297 87.6175C122.297 87.6175 122.226 87.6175 122.297 87.5462Z" fill="#263238"/>
<path d="M158.429 42.2195C169.689 48.99 198.981 89.3279 193.849 100.517C188.718 111.777 152.442 99.8757 152.442 99.8757L155.293 69.444C155.293 69.444 164.843 74.6466 165.128 74.219C165.413 73.7202 159.712 59.8941 157.431 54.3351C155.008 48.7049 152.371 38.6561 158.429 42.2195Z" fill="#FFC727"/>
<path d="M159 99.3768C159.57 95.3857 161.494 78.7802 161.637 75.2168C161.637 74.9317 161.494 74.9317 161.423 75.1455C159.285 87.1899 159.214 95.3857 158.786 99.3768C158.857 99.448 159 99.448 159 99.3768Z" fill="#263238"/>
<path d="M155.435 69.5153C156.504 69.8716 157.502 70.3705 158.5 70.8694C159.426 71.297 160.282 71.7246 161.208 72.2235C163.132 73.2212 165.057 74.219 166.981 75.288C168.905 76.357 170.758 77.3548 172.682 78.4951C174.607 79.5641 176.388 80.7757 178.241 81.8447C178.313 81.916 178.241 81.9873 178.17 81.9873C176.246 80.9182 174.25 79.9917 172.326 78.994L166.625 76.072C164.7 75.0742 162.847 74.1477 160.923 73.15L158.144 71.6533C157.146 71.1545 156.148 70.6556 155.222 70.0142C155.079 69.9429 155.079 69.8004 155.15 69.7291C155.15 69.5153 155.293 69.444 155.435 69.5153Z" fill="#263238"/>
<path d="M158.501 60.7493C159.072 61.4619 159.642 62.2459 160.212 63.0298C160.283 63.1724 160.426 63.3149 160.497 63.4575C160.354 63.0299 160.212 62.6735 160.069 62.2459C159.499 60.8918 158.929 59.4664 158.501 58.0411C158.501 57.9698 158.573 57.9698 158.644 58.0411C159.357 59.3952 159.998 60.8205 160.568 62.3172C161.21 63.7425 161.78 65.0966 162.35 66.522C162.92 67.9474 163.561 69.3015 164.132 70.7268C164.702 72.0809 165.201 73.5063 165.628 74.9317C165.628 75.0029 165.557 75.0742 165.486 75.0029C164.702 73.6488 164.06 72.2235 163.49 70.7981C162.92 69.3727 162.35 67.9474 161.78 66.5933C161.566 66.0231 161.281 65.3817 161.067 64.8116L160.782 64.384C160.497 64.0276 160.212 63.6 159.998 63.2437C159.428 62.4597 158.929 61.6045 158.501 60.7493C158.43 60.7493 158.501 60.7493 158.501 60.7493Z" fill="#263238"/>
<path d="M152.301 99.2342C152.301 99.0204 152.443 99.0204 152.443 99.2342C152.515 99.448 152.515 99.5906 152.515 99.6619C153.726 99.9469 158.287 101.301 159.356 101.586C161.637 102.228 163.989 102.798 166.341 103.297C168.692 103.795 171.044 104.223 173.467 104.579C175.819 104.936 178.242 105.292 180.666 105.363C180.737 105.363 180.737 105.435 180.737 105.435C180.737 105.435 180.737 105.506 180.666 105.506C178.242 105.435 175.748 105.363 173.325 105.15C170.902 104.936 168.55 104.508 166.198 104.08C163.846 103.582 161.423 103.011 159.071 102.37C157.931 102.014 156.719 101.657 155.579 101.23C154.439 100.945 153.37 100.517 152.301 99.9469C152.229 99.8757 152.158 99.8044 152.158 99.7331L152.301 99.2342Z" fill="#263238"/>
<path d="M153.156 41.6493C153.014 42.6471 148.88 49.2038 144.462 49.3463C143.036 49.4176 142.466 41.5781 142.466 41.5781L142.252 41.0079L139.829 33.0259L148.88 26.1841L150.163 25.2576C150.163 25.2576 150.662 27.4669 151.303 30.2464C151.303 30.3889 151.375 30.5315 151.375 30.6027C151.375 30.7453 151.446 30.8878 151.446 31.0303C151.517 31.458 151.66 31.8143 151.731 32.3132C151.802 32.7408 151.873 32.9546 151.945 33.3109L152.159 34.3087C152.729 36.8031 153.014 39.2262 153.156 41.6493Z" fill="#F7A9A0"/>
<path d="M151.375 30.3177C150.092 35.0214 146.742 38.9411 142.324 41.0079L139.9 33.0259L148.951 26.1841L150.234 25.2576C150.234 25.3289 150.804 27.5382 151.375 30.3177Z" fill="#263238"/>
<path d="M128.212 19.7699C126.43 34.2374 134.84 36.9456 137.976 37.3732C140.826 37.7296 150.519 38.5848 153.797 24.3311C157.076 10.0774 150.947 4.7323 144.532 3.52074C138.047 2.38044 129.994 5.23118 128.212 19.7699Z" fill="#F7A9A0"/>
<path d="M133.271 16.2778C133.628 16.2778 133.913 16.2065 134.269 16.2065C134.626 16.2065 134.982 16.1353 135.267 15.9215C135.409 15.7789 135.481 15.4939 135.338 15.2801C135.053 14.9237 134.554 14.7099 134.127 14.8524C133.628 14.8524 133.2 15.0663 132.844 15.3513C132.63 15.5651 132.63 15.9215 132.915 16.1353C132.986 16.2065 133.129 16.2778 133.271 16.2778Z" fill="#263238"/>
<path d="M143.106 17.5606C142.75 17.4893 142.465 17.3468 142.18 17.2043C141.824 17.133 141.539 16.9192 141.253 16.7054C141.111 16.4916 141.182 16.2778 141.325 16.064C141.681 15.7789 142.18 15.7076 142.608 15.9214C143.035 16.064 143.463 16.349 143.748 16.7054C143.89 16.9905 143.819 17.3468 143.534 17.4893C143.391 17.5606 143.249 17.5606 143.106 17.5606Z" fill="#263238"/>
<path d="M140.47 20.9815L140.541 21.0528C140.327 22.0505 140.327 23.1908 141.182 23.6897V23.761C140.113 23.4046 140.185 21.8367 140.47 20.9815Z" fill="#263238"/>
<path d="M141.539 20.055C143.178 20.1976 142.822 23.4047 141.325 23.3334C139.829 23.2621 140.185 19.9838 141.539 20.055Z" fill="#263238"/>
<path d="M142.109 20.2688C142.394 20.4826 142.608 20.839 142.893 20.9103C143.178 20.9815 143.606 20.6964 143.891 20.4114C143.891 20.4114 143.962 20.4114 143.962 20.4826C143.891 21.1241 143.606 21.6942 142.893 21.6942C142.181 21.6942 141.895 21.1241 141.824 20.4826C141.895 20.3401 142.038 20.1976 142.109 20.2688Z" fill="#263238"/>
<path d="M134.697 20.1263C134.697 20.1263 134.626 20.1263 134.626 20.1975C134.554 21.1953 134.341 22.3356 133.414 22.5494V22.6207C134.483 22.6207 134.839 21.0528 134.697 20.1263Z" fill="#263238"/>
<path d="M133.913 18.986C132.345 18.7009 131.846 21.908 133.343 22.1931C134.839 22.4069 135.267 19.1998 133.913 18.986Z" fill="#263238"/>
<path d="M133.272 19.0572C132.987 19.1998 132.702 19.4849 132.417 19.4136C132.132 19.4136 131.847 18.986 131.704 18.6296H131.633C131.562 19.2711 131.633 19.9125 132.203 20.1263C132.773 20.3401 133.201 19.8412 133.415 19.2711C133.415 19.2711 133.344 19.0572 133.272 19.0572Z" fill="#263238"/>
<path d="M138.688 28.8923C138.403 29.1061 138.189 29.3911 137.833 29.4624C137.476 29.4624 137.12 29.3199 136.764 29.1773L138.688 28.8923ZM136.692 29.1773C136.977 29.605 137.405 29.8188 137.904 29.8188C138.332 29.7475 138.617 29.3911 138.688 29.0348C138.759 28.9635 138.688 28.8923 138.617 28.9635L136.692 29.1773Z" fill="#263238"/>
<path d="M134.981 24.7587C134.981 24.7587 134.625 26.1841 134.483 26.8968C134.483 26.9681 134.625 27.0393 134.839 27.0393C136.05 27.3957 137.333 27.1106 138.189 26.2554C138.26 26.1841 138.189 26.1128 138.117 26.1128C137.191 26.6117 136.05 26.8255 134.981 26.6117C134.981 26.3979 135.694 24.1886 135.623 24.1173C135.053 24.1173 134.554 24.1886 133.984 24.2599C134.696 21.1953 135.908 18.2733 136.549 15.2088C136.549 15.0662 136.407 15.0662 136.407 15.1375C135.053 18.2021 133.984 21.4804 133.271 24.7587C133.2 25.2576 134.696 24.9013 134.981 24.7587Z" fill="#263238"/>
<path d="M135.054 26.9681C135.41 27.5382 135.838 28.0371 136.408 28.3934C136.693 28.6072 137.12 28.6785 137.477 28.6072C138.261 28.536 138.403 27.8233 138.332 27.1819C138.332 26.8255 138.261 26.5405 138.118 26.1841C137.263 26.8255 136.123 27.0393 135.054 26.9681Z" fill="#263238"/>
<path d="M136.479 28.3934C136.765 28.6072 137.192 28.6785 137.549 28.6072C138.332 28.536 138.475 27.8233 138.404 27.1819C137.549 27.1106 136.765 27.6095 136.479 28.3934Z" fill="#FF98B9"/>
<path d="M152.8 24.2599C150.092 24.4737 149.664 18.2021 149.664 18.2021C149.664 18.2021 139.829 16.6342 139.33 7.15545C139.33 7.15545 135.98 13.6409 129.139 14.4961C129.139 14.4961 130.065 4.16218 138.404 2.59427C138.404 2.59427 148.809 -0.612808 154.083 7.79686C159.428 16.1353 154.581 24.1173 152.8 24.2599Z" fill="#263238"/>
<path d="M139.33 6.44275C139.116 7.86812 139.187 9.36475 139.615 10.7901C139.971 12.2155 140.684 13.5696 141.61 14.7099C141.824 14.995 142.109 15.28 142.323 15.4938L142.679 15.9214L143.107 16.2778C143.392 16.4916 143.677 16.7767 143.962 16.9905L144.889 17.5606C145.031 17.6319 145.174 17.7744 145.387 17.8457L145.886 18.0595L146.884 18.4871C147.597 18.7009 148.309 18.9147 148.951 19.1285C148.309 18.7722 147.597 18.5584 147.027 18.202L146.1 17.7032L145.601 17.4181C145.459 17.3468 145.316 17.2043 145.174 17.133L144.318 16.5629C144.033 16.3491 143.748 16.064 143.534 15.8502L143.178 15.4938L142.822 15.1375C142.608 14.8524 142.323 14.6386 142.109 14.3535C141.254 13.2845 140.541 12.0017 140.114 10.7189C139.9 10.0774 139.686 9.36475 139.543 8.65207C139.401 7.79685 139.33 7.15543 139.33 6.44275Z" fill="#263238"/>
<path d="M151.374 23.8322C151.374 23.8322 154.723 19.4136 156.79 20.6252C158.786 21.8367 156.149 28.3222 153.726 29.1774C152.514 29.6763 151.017 29.1061 150.519 27.8945C150.519 27.8233 150.447 27.8233 150.447 27.752L151.374 23.8322Z" fill="#F7A9A0"/>
<path d="M155.935 22.4781C154.225 23.1196 153.227 24.6162 152.585 26.2554C153.013 25.614 153.868 25.4002 154.438 25.8278C154.51 25.899 154.581 25.899 154.581 25.9703V26.0416H154.51C153.868 25.8278 153.227 26.0416 152.799 26.5404C152.514 26.9681 152.229 27.3957 152.015 27.8945C151.944 28.0371 151.659 27.9658 151.73 27.752C151.801 25.5427 153.583 22.5494 155.935 22.4781Z" fill="#263238"/>
<path d="M142.251 40.7228L144.461 47.4221L153.084 39.7251L155.222 42.5045C155.222 42.5045 146.385 55.0478 146.385 54.4776L144.104 48.7049L139.971 52.3396L140.968 42.5758L142.251 40.7228Z" fill="#FFC727"/>
<path d="M140.113 47.4934C140.327 45.8542 140.469 44.215 140.826 42.6471C140.826 42.5758 140.897 42.5758 140.897 42.6471C141.111 44.215 140.256 50.4154 140.184 51.8407C140.327 51.6982 144.033 48.6337 144.033 48.7049C144.532 49.6314 146.242 53.8362 146.385 54.2639C147.81 52.2683 153.654 44.4288 155.293 42.5758H155.365V42.6471C154.082 44.7852 146.527 55.1191 146.385 55.1191C145.458 53.1236 144.674 51.0568 143.962 48.99C143.32 49.6314 139.614 53.1236 139.614 52.9098C139.757 51.0568 139.899 49.2751 140.113 47.4934Z" fill="#263238"/>
<path d="M57.7266 95.1007C57.7266 88.1877 62.6441 83.769 68.8444 83.769C74.9735 83.769 79.9623 88.1877 79.9623 95.1007C79.9623 102.014 75.0448 106.29 68.8444 106.29C62.6441 106.29 57.7266 102.014 57.7266 95.1007ZM77.8243 95.1007C77.8243 89.4705 73.8332 85.7646 68.8444 85.7646C63.9269 85.7646 59.8646 89.4705 59.8646 95.1007C59.8646 100.731 63.8556 104.152 68.8444 104.152C73.7619 104.152 77.8243 100.731 77.8243 95.1007Z" fill="#FFC727"/>
<path d="M68.8444 106.646C62.0739 106.646 57.4414 101.871 57.4414 95.1006C57.4414 88.3301 62.2877 83.4126 68.8444 83.4126C75.4723 83.4126 80.2473 88.3301 80.2473 95.1006C80.2473 101.871 75.5436 106.646 68.8444 106.646ZM68.8444 84.054C62.644 84.054 58.0828 88.6865 58.0828 95.1006C58.0828 101.515 62.5015 105.933 68.8444 105.933C75.1872 105.933 79.6059 101.443 79.6059 95.1006C79.6059 88.6865 75.0447 84.054 68.8444 84.054ZM68.8444 104.508C63.3567 104.508 59.5082 100.66 59.5082 95.1006C59.5082 89.4704 63.428 85.4081 68.8444 85.4081C74.2608 85.4081 78.1805 89.4704 78.1805 95.1006C78.1093 100.66 74.332 104.508 68.8444 104.508ZM68.8444 86.1208C63.8556 86.1208 60.2209 89.898 60.2209 95.1006C60.2209 100.232 63.7843 103.795 68.8444 103.795C73.9044 103.795 77.4679 100.232 77.4679 95.1006C77.4679 89.898 73.8331 86.1208 68.8444 86.1208Z" fill="#FFC727"/>
<path d="M68.9156 115.412C64.7821 115.412 60.6485 113.844 57.5127 110.637L59.4369 108.713C64.5682 113.915 72.9779 113.987 78.1805 108.855L80.1047 110.78C77.0402 113.915 72.9779 115.412 68.9156 115.412Z" fill="#F37B6F"/>
<path d="M0 88.8289H50.0304V67.9473H0V88.8289Z" fill="#455A64"/>
<path d="M50.0303 74.0763V67.9473H56.5157L50.0303 74.0763Z" fill="#455A64"/>
<path d="M46.2533 71.5107H3.84863V71.9383H46.2533V71.5107Z" fill="white"/>
<path d="M33.9952 73.6489H3.84863V74.0765H33.9952V73.6489Z" fill="white"/>
<path d="M41.4071 77.9961H3.84863V78.4237H41.4071V77.9961Z" fill="white"/>
<path d="M46.2533 80.1343H3.84863V80.5619H46.2533V80.1343Z" fill="white"/>
<path d="M46.2533 82.2722H3.84863V82.6998H46.2533V82.2722Z" fill="white"/>
</svg>
