<svg width="180" height="161" viewBox="0 0 180 161" fill="none" xmlns="http://www.w3.org/2000/svg">
<path d="M63.4048 125.7L57.5195 141.801H64.5152L77.5072 133.029L63.4048 125.7Z" fill="#FFC727"/>
<path opacity="0.1" d="M63.4048 125.7L57.5195 141.801H64.5152L77.5072 133.029L63.4048 125.7Z" fill="black"/>
<path d="M153.35 125.7L159.346 141.801H152.35L139.358 133.029L153.35 125.7Z" fill="#FFC727"/>
<path opacity="0.1" d="M153.35 125.7L159.346 141.801H152.35L139.358 133.029L153.35 125.7Z" fill="black"/>
<path d="M108.377 143.245C147.933 143.245 180 111.178 180 71.6225C180 32.0665 147.933 0 108.377 0C68.8213 0 36.7549 32.0665 36.7549 71.6225C36.7549 111.178 68.8213 143.245 108.377 143.245Z" fill="#FFC727"/>
<path opacity="0.1" d="M107.6 138.803C145.378 138.803 176.003 108.178 176.003 70.401C176.003 32.6235 145.378 1.99878 107.6 1.99878C69.8229 1.99878 39.1982 32.6235 39.1982 70.401C39.1982 108.178 69.8229 138.803 107.6 138.803Z" fill="black"/>
<path d="M108.377 135.361C143.763 135.361 172.449 106.675 172.449 71.2893C172.449 35.9036 143.763 7.21777 108.377 7.21777C72.9915 7.21777 44.3057 35.9036 44.3057 71.2893C44.3057 106.675 72.9915 135.361 108.377 135.361Z" fill="white"/>
<path d="M171.005 57.6311C141.801 75.2869 93.8304 104.269 67.0691 120.148C59.5182 113.708 53.5219 105.713 49.5244 96.607L138.136 14.4355C155.015 23.319 167.007 39.198 171.005 57.6311Z" fill="#EBEBEB"/>
<path d="M172.449 73.5101C172.227 80.6169 170.784 87.7236 168.23 94.2751L88.39 132.03C84.9477 130.919 81.5054 129.476 78.2852 127.699C102.381 113.819 146.465 88.3898 172.449 73.5101Z" fill="#EBEBEB"/>
<path d="M109.044 11.8815H107.822V21.5422H109.044V11.8815Z" fill="#C7C7C7"/>
<path d="M79.1887 19.4588L78.1309 20.0696L82.9612 28.4358L84.019 27.825L79.1887 19.4588Z" fill="#C7C7C7"/>
<path d="M57.2143 41.0378L56.6035 42.0956L64.9697 46.9259L65.5804 45.8681L57.2143 41.0378Z" fill="#C7C7C7"/>
<path d="M58.6304 70.623H48.9697V71.8445H58.6304V70.623Z" fill="#C7C7C7"/>
<path d="M65.0058 95.6141L56.6396 100.444L57.2504 101.502L65.6165 96.6719L65.0058 95.6141Z" fill="#C7C7C7"/>
<path d="M83.013 114.047L78.1875 122.416L79.2456 123.026L84.0712 114.657L83.013 114.047Z" fill="#C7C7C7"/>
<path d="M109.044 120.925H107.822V130.586H109.044V120.925Z" fill="#C7C7C7"/>
<path d="M133.765 114.071L132.707 114.682L137.537 123.048L138.595 122.438L133.765 114.071Z" fill="#C7C7C7"/>
<path d="M151.775 95.6412L151.164 96.699L159.53 101.529L160.141 100.472L151.775 95.6412Z" fill="#C7C7C7"/>
<path d="M167.785 70.623H158.124V71.8445H167.785V70.623Z" fill="#C7C7C7"/>
<path d="M159.519 41.0965L151.152 45.9269L151.763 46.9847L160.129 42.1543L159.519 41.0965Z" fill="#C7C7C7"/>
<path d="M137.561 19.5866L132.735 27.9557L133.794 28.5658L138.619 20.1967L137.561 19.5866Z" fill="#C7C7C7"/>
<path d="M167.34 72.0666L105.156 73.8433L105.267 67.736L167.34 70.401V72.0666Z" fill="#FFC727"/>
<path d="M108.822 27.5386L111.487 74.8427L105.49 74.7317L107.156 27.5386H108.822Z" fill="#263238"/>
<path d="M108.376 73.3992C109.542 73.3992 110.486 72.4546 110.486 71.2894C110.486 70.1242 109.542 69.1796 108.376 69.1796C107.211 69.1796 106.267 70.1242 106.267 71.2894C106.267 72.4546 107.211 73.3992 108.376 73.3992Z" fill="#FFC727"/>
<path d="M142.135 160.123H36.9773L18.6553 83.8372H123.813L142.135 160.123Z" fill="#A6A6A6"/>
<path d="M0 160.123H105.046L123.479 83.8372H18.322L0 160.123Z" fill="#DBDBDB"/>
<path d="M108.266 98.1617L105.823 107.933L105.712 108.6L103.269 118.705L103.158 119.26L100.715 129.365L100.604 130.031L98.1612 140.136L98.0501 140.691L95.6072 150.574H18.4326L20.8756 140.691L20.9866 140.136L23.4295 130.031L23.5406 129.365L25.9835 119.26L26.0945 118.705L28.5375 108.6L28.7596 107.933L31.0915 98.1617H108.266Z" fill="white"/>
<path d="M42.3071 98.1617L39.9752 107.933L39.8642 108.6L37.4212 118.705L37.3102 119.26L34.8673 129.365L34.7562 130.031L32.3133 140.136L32.2022 140.691L29.7593 150.574H29.2041L31.536 140.691L31.647 140.136L34.09 130.031L34.312 129.365L36.6439 119.26L36.866 118.705L39.309 108.6L39.42 107.933L41.7519 98.1617H42.3071Z" fill="#EBEBEB"/>
<path d="M53.3003 98.1617L50.9684 107.933L50.8574 108.6L48.4144 118.705L48.3034 119.26L45.8604 129.365L45.7494 130.031L43.3065 140.136L43.1954 140.691L40.7525 150.574H40.1973L42.5292 140.691L42.6402 140.136L45.0831 130.031L45.3052 129.365L47.6371 119.26L47.8592 118.705L50.3021 108.6L50.4132 107.933L52.7451 98.1617H53.3003Z" fill="#EBEBEB"/>
<path d="M64.2934 98.1617L61.9616 107.933L61.8505 108.6L59.4076 118.705L59.2965 119.26L56.8536 129.365L56.7426 130.031L54.2996 140.136L54.1886 140.691L51.7456 150.574H51.1904L53.5223 140.691L53.6334 140.136L56.0763 130.031L56.2984 129.365L58.6303 119.26L58.8524 118.705L61.2953 108.6L61.4063 107.933L63.7382 98.1617H64.2934Z" fill="#EBEBEB"/>
<path d="M75.2866 98.1617L72.9547 107.933L72.8437 108.6L70.4007 118.705L70.2897 119.26L67.8468 129.365L67.7357 130.031L65.2928 140.136L65.1817 140.691L62.7388 150.574H62.1836L64.5155 140.691L64.6265 140.136L67.0695 130.031L67.2916 129.365L69.6234 119.26L69.8455 118.705L72.2885 108.6L72.3995 107.933L74.7314 98.1617H75.2866Z" fill="#EBEBEB"/>
<path d="M86.2808 98.1617L83.9489 107.933L83.8378 108.6L81.3949 118.705L81.2838 119.26L78.8409 129.365L78.7299 130.031L76.2869 140.136L76.1759 140.691L73.7329 150.574H73.1777L75.5096 140.691L75.6207 140.136L78.0636 130.031L78.2857 129.365L80.6176 119.26L80.8397 118.705L83.2826 108.6L83.3937 107.933L85.7255 98.1617H86.2808Z" fill="#EBEBEB"/>
<path d="M97.2729 98.1617L94.941 107.933L94.83 108.6L92.3871 118.705L92.276 119.26L89.8331 129.365L89.722 130.031L87.2791 140.136L87.1681 140.691L84.7251 150.574H84.1699L86.5018 140.691L86.6129 140.136L89.0558 130.031L89.2779 129.365L91.6098 119.26L91.8319 118.705L94.2748 108.6L94.3858 107.933L96.7177 98.1617H97.2729Z" fill="#EBEBEB"/>
<path d="M105.824 107.933L105.713 108.6H28.5381L28.7602 107.933H105.824Z" fill="#EBEBEB"/>
<path d="M103.27 118.705L103.159 119.26H25.9844L26.0954 118.705H103.27Z" fill="#EBEBEB"/>
<path d="M100.715 129.365L100.604 130.031H23.4297L23.5407 129.365H100.715Z" fill="#EBEBEB"/>
<path d="M98.1616 140.136L98.0506 140.691H20.876L20.987 140.136H98.1616Z" fill="#EBEBEB"/>
<path d="M38.3623 119.654L37.2393 120.561L43.9359 128.855L45.059 127.948L38.3623 119.654Z" fill="#C7C7C7"/>
<path d="M45.1957 119.55L35.9229 128.003L36.8954 129.07L46.1682 120.617L45.1957 119.55Z" fill="#C7C7C7"/>
<path d="M62.7745 109.197L61.6514 110.104L68.348 118.398L69.4711 117.491L62.7745 109.197Z" fill="#C7C7C7"/>
<path d="M69.6019 109.093L60.3291 117.546L61.3016 118.613L70.5745 110.16L69.6019 109.093Z" fill="#C7C7C7"/>
<path d="M31.9809 118.483L29.0938 113.486L30.4263 112.819L32.2029 115.929L38.6434 108.045L39.8649 109.044L31.9809 118.483Z" fill="#FFC727"/>
<path d="M45.7494 150.019L42.8623 145.022L44.1948 144.355L45.9715 147.465L52.412 139.581L53.5224 140.58L45.7494 150.019Z" fill="#FFC727"/>
<path d="M84.8372 119.704C83.5047 120.481 82.1722 121.37 81.0618 122.48C79.9513 123.59 79.063 124.923 78.8409 126.367C78.7299 127.033 78.952 127.81 79.3961 128.365C79.9513 128.921 80.5066 129.254 81.2839 129.365C82.7274 129.698 84.282 129.587 85.8366 129.254C87.2802 128.921 88.7237 128.254 89.9452 127.366C90.5004 126.922 91.0556 126.367 91.3887 125.7C91.7219 125.034 91.9439 124.368 91.8329 123.59C91.7219 122.924 91.2777 122.258 90.7225 121.814C90.0562 121.37 89.39 121.036 88.6127 120.925C87.0581 120.592 85.5035 120.592 83.9489 120.925C85.5035 120.37 87.0581 120.259 88.6127 120.481C89.39 120.592 90.1673 120.925 90.9446 121.37C91.7219 121.814 92.166 122.591 92.3881 123.479C92.4992 124.368 92.3881 125.256 91.9439 125.922C91.6108 126.7 91.0556 127.366 90.3893 127.81C87.8354 129.92 84.3931 130.697 81.1728 130.031C80.2845 129.809 79.6182 129.365 78.952 128.698C78.6188 128.365 78.5078 127.921 78.3968 127.477C78.2857 127.033 78.2857 126.589 78.3968 126.144C78.6188 124.479 79.7293 123.146 80.9507 122.036C81.9501 121.259 83.3937 120.37 84.8372 119.704Z" fill="#FFC727"/>
<path d="M39.975 100.938H31.7578L31.9799 99.9385H40.197L39.975 100.938Z" fill="#C7C7C7"/>
<path d="M36.2003 102.603H31.3145L31.5365 101.604H36.4224L36.2003 102.603Z" fill="#C7C7C7"/>
<path d="M73.2879 132.363H68.291L68.5131 131.363H73.51L73.2879 132.363Z" fill="#C7C7C7"/>
<path d="M72.5106 135.916H67.5137L67.7358 134.917H72.7327L72.5106 135.916Z" fill="#C7C7C7"/>
<path d="M75.7307 134.14H67.8467L68.0688 133.14H75.9528L75.7307 134.14Z" fill="#C7C7C7"/>
<path d="M86.1688 124.701H81.1719L81.394 123.702H86.3909L86.1688 124.701Z" fill="#C7C7C7"/>
<path d="M88.6125 126.367H80.7285L81.0616 125.367H88.8346L88.6125 126.367Z" fill="#C7C7C7"/>
<path d="M19.2098 106.157L23.9846 102.603C24.5398 102.159 24.873 101.604 25.095 100.938C25.2061 100.494 25.095 99.9384 24.8729 99.4943C24.5398 99.0501 23.9846 98.717 23.4294 98.828C22.8742 98.828 22.319 99.0501 21.7638 99.3832L21.2085 99.7163C21.0975 99.8274 20.8754 99.8274 20.7644 99.7163C20.6533 99.6053 20.7644 99.3832 20.8754 99.2722L21.4306 98.828C21.9858 98.3838 22.7631 98.1617 23.5404 98.1617C24.3177 98.1617 24.984 98.4949 25.4282 99.0501C25.7613 99.6053 25.8723 100.272 25.7613 100.938C25.5392 101.715 25.095 102.492 24.3177 103.048L20.2092 106.157H24.2067C24.3177 106.157 24.4288 106.268 24.4288 106.379C24.4288 106.379 24.4288 106.379 24.4288 106.49C24.4288 106.601 24.2067 106.823 24.0956 106.823H19.3208C19.2098 106.823 19.2098 106.823 19.0987 106.712C18.9877 106.49 19.0987 106.268 19.2098 106.157Z" fill="#A6A6A6"/>
<path d="M16.7681 117.039C16.9902 115.928 17.5454 114.929 18.2117 114.041C18.7669 113.263 19.6552 112.819 20.6546 112.708C21.4319 112.708 22.2092 113.263 22.4313 114.041C22.7644 115.04 22.8755 116.04 22.5423 117.039C22.3203 118.149 21.765 119.149 20.9877 120.037C20.4325 120.814 19.5442 121.259 18.5448 121.37C17.7675 121.37 16.9902 120.814 16.7681 120.037C16.546 119.149 16.546 118.038 16.7681 117.039ZM17.4344 117.039C17.2123 117.927 17.2123 118.816 17.5454 119.704C17.7675 120.259 18.3227 120.703 18.989 120.703C19.7663 120.592 20.4325 120.259 20.8767 119.704C21.543 118.927 21.9871 118.038 22.2092 117.039C22.4313 116.151 22.4313 115.262 22.0982 114.374C21.8761 113.819 21.3209 113.374 20.6546 113.374C19.8773 113.486 19.211 113.819 18.7669 114.374C18.1006 115.262 17.6565 116.151 17.4344 117.039Z" fill="#A6A6A6"/>
<path d="M12.4363 135.472L17.2112 131.919C17.7664 131.474 18.0995 130.919 18.3216 130.253C18.4326 129.809 18.3216 129.254 18.0995 128.809C17.7664 128.365 17.2112 128.032 16.6559 128.143C16.1007 128.143 15.5455 128.365 14.9903 128.698L14.4351 129.032C14.3241 129.143 14.102 129.143 13.9909 129.032C13.8799 128.92 13.9909 128.698 14.102 128.587L14.6572 128.143C15.2124 127.699 15.9897 127.477 16.767 127.477C17.5443 127.477 18.2105 127.81 18.6547 128.365C18.9878 128.92 19.0989 129.587 18.9878 130.253C18.7658 131.03 18.3216 131.808 17.5443 132.363L13.4357 135.472H17.4332C17.5443 135.472 17.6553 135.583 17.6553 135.694C17.6553 135.694 17.6553 135.694 17.6553 135.805C17.6553 135.916 17.4333 136.138 17.3222 136.138H12.5474C12.4363 136.138 12.4363 136.138 12.3253 136.027C12.2143 135.694 12.3253 135.583 12.4363 135.472Z" fill="#A6A6A6"/>
<path d="M10.1054 146.354C10.3275 145.244 10.8827 144.244 11.66 143.356C12.2152 142.579 13.1036 142.135 14.103 142.024C14.8803 142.024 15.6576 142.579 15.8797 143.356C16.2128 144.355 16.3238 145.355 15.9907 146.354C15.7686 147.465 15.2134 148.464 14.4361 149.352C13.8809 150.13 12.9925 150.574 11.9932 150.685C11.2159 150.685 10.4386 150.13 10.2165 149.352C9.88335 148.353 9.77231 147.354 10.1054 146.354ZM10.6607 146.354C10.4386 147.243 10.4386 148.131 10.7717 149.019C10.9938 149.574 11.549 150.019 12.2152 150.019C12.9925 149.908 13.6588 149.574 14.103 149.019C14.7692 148.242 15.2134 147.354 15.4355 146.354C15.6576 145.466 15.6576 144.578 15.3244 143.689C15.1024 143.134 14.5471 142.69 13.8809 142.69C13.1036 142.801 12.4373 143.134 11.9932 143.689C11.3269 144.466 10.8827 145.355 10.6607 146.354Z" fill="#A6A6A6"/>
<path d="M109.599 96.1628C109.599 96.1628 107.267 106.268 106.268 110.598C105.269 114.929 101.271 117.594 101.271 117.594H79.0625C79.0625 117.594 83.06 112.93 83.8373 109.377L86.8355 96.1628H109.599Z" fill="#FFC727"/>
<path d="M89.944 103.492L88.7226 104.713C88.7226 104.713 88.7226 104.713 88.6115 104.713H88.5005L87.9453 103.492L87.3901 105.713L87.279 105.824C87.279 105.824 87.168 105.824 87.168 105.713L87.7232 103.159V103.048H87.8342L88.5005 104.38L89.833 103.048H89.944L89.3888 105.602L89.2778 105.713C89.2778 105.713 89.1667 105.713 89.1667 105.602L89.944 103.492Z" fill="black"/>
<path d="M91.0545 103.27L91.1656 103.159H92.6091C92.6091 103.159 92.7202 103.159 92.7202 103.27C92.7202 103.381 92.6091 103.381 92.6091 103.381H91.2766L91.0545 104.491H92.1649C92.1649 104.491 92.276 104.491 92.276 104.602L92.1649 104.713H91.0545L90.8324 105.824H92.1649C92.1649 105.824 92.276 105.824 92.276 105.935L92.1649 106.046H90.7214C90.7214 106.046 90.6104 106.046 90.6104 105.935L91.0545 103.27Z" fill="black"/>
<path d="M93.3866 103.27L93.4976 103.159H94.9412C94.9412 103.159 95.0522 103.159 95.0522 103.27L94.9412 103.381H93.6086L93.3866 104.491H94.497C94.497 104.491 94.608 104.491 94.608 104.602C94.608 104.713 94.497 104.713 94.497 104.713H93.3866L93.1645 105.824H94.497C94.497 105.824 94.608 105.824 94.608 105.935L94.497 106.046H93.0534C93.0534 106.046 92.9424 106.046 92.9424 105.935L93.3866 103.27Z" fill="black"/>
<path d="M96.3851 103.27H95.4968C95.4968 103.27 95.3857 103.27 95.3857 103.159L95.4968 103.048H97.3845C97.3845 103.048 97.4956 103.048 97.4956 103.159L97.3845 103.27H96.6072L96.052 105.713L95.941 105.824C95.941 105.824 95.8299 105.824 95.8299 105.713L96.3851 103.27Z" fill="black"/>
<path d="M98.273 103.27L98.384 103.159C98.384 103.159 98.4951 103.159 98.4951 103.27L97.9399 105.824L97.8288 105.935C97.8288 105.935 97.7178 105.935 97.7178 105.824L98.273 103.27Z" fill="black"/>
<path d="M99.6054 103.492L99.0502 105.713L98.9392 105.824C98.9392 105.824 98.8281 105.824 98.8281 105.713L99.3833 103.159C99.3833 103.159 99.3833 103.048 99.4944 103.048H99.6054L100.716 105.38L101.271 103.159L101.382 103.048C101.382 103.048 101.493 103.048 101.493 103.159L100.938 105.713L100.827 105.824C100.827 105.824 100.827 105.824 100.716 105.824L99.6054 103.492Z" fill="black"/>
<path d="M103.269 104.602C103.158 104.602 103.158 104.602 103.269 104.602C103.158 104.602 103.158 104.602 103.269 104.602C103.158 104.491 103.269 104.38 103.269 104.38H104.157C104.157 104.38 104.268 104.38 104.268 104.491L104.046 105.38C104.046 105.38 104.046 105.38 104.046 105.491C103.713 105.713 103.38 105.824 103.047 105.824C102.492 105.824 101.937 105.38 101.937 104.824C101.937 104.713 101.937 104.602 101.937 104.491C102.159 103.714 102.825 103.159 103.713 103.048C104.046 103.048 104.268 103.159 104.491 103.381V103.492H104.379C104.157 103.27 103.935 103.27 103.713 103.27C103.047 103.27 102.381 103.825 102.159 104.491C102.048 104.935 102.27 105.491 102.825 105.713C102.936 105.713 103.047 105.713 103.158 105.713C103.491 105.713 103.713 105.602 103.935 105.491L104.157 104.713L103.269 104.602Z" fill="black"/>
<path d="M86.2798 108.155L85.8357 108.378H85.7246C85.7246 108.378 85.7246 108.266 85.8357 108.266L86.3909 107.933H86.5019C86.5019 107.933 86.5019 107.933 86.5019 108.044L85.9467 110.598L85.8357 110.709C85.8357 110.709 85.7246 110.709 85.7246 110.598L86.2798 108.155Z" fill="black"/>
<path d="M88.8347 108.044L87.9464 108.822C88.0574 108.822 88.2795 108.933 88.3905 109.044C88.5016 109.266 88.6126 109.488 88.5016 109.71C88.3905 110.265 87.9464 110.598 87.3912 110.598C87.1691 110.598 86.947 110.487 86.8359 110.265V110.154H86.947C87.058 110.265 87.2801 110.376 87.3912 110.376C87.6132 110.376 87.8353 110.265 87.9464 110.154C88.1684 110.043 88.2795 109.821 88.2795 109.599C88.2795 109.377 88.2795 109.266 88.1684 109.044C88.0574 108.933 87.8353 108.822 87.7243 108.822C87.7243 108.822 87.7243 108.822 87.6132 108.822V108.711L88.5016 108.044H87.3912C87.3912 108.044 87.2801 108.044 87.2801 107.933C87.2801 107.822 87.3912 107.822 87.3912 107.822H88.7237C88.7237 107.822 88.8347 107.822 88.8347 107.933C88.8347 107.933 88.8347 107.933 88.8347 108.044C88.8347 107.933 88.8347 107.933 88.8347 108.044Z" fill="black"/>
<path d="M90.1669 108.822L90.0559 108.933H89.8338L89.5007 110.376C89.5007 110.487 89.5007 110.487 89.6117 110.487C89.6117 110.487 89.7228 110.487 89.7228 110.598L89.6117 110.709C89.5007 110.709 89.3896 110.598 89.3896 110.487V110.376L89.7228 108.933H89.5007C89.3897 108.933 89.3896 108.933 89.3896 108.822C89.3896 108.822 89.3897 108.711 89.5007 108.711H89.7228L89.9449 108.044L90.0559 107.933C90.0559 107.933 90.1669 107.933 90.1669 108.044L89.9449 108.711L90.1669 108.822C90.1669 108.711 90.1669 108.711 90.1669 108.822Z" fill="black"/>
<path d="M92.276 109.377C92.387 109.155 92.1649 108.933 91.9429 108.822H91.8318C91.4987 108.822 91.1656 109.044 91.0545 109.377L90.8324 110.487C90.8324 110.487 90.8324 110.487 90.7214 110.487C90.7214 110.487 90.7214 110.487 90.6104 110.487L90.8324 109.377L91.1656 107.933L91.2766 107.822C91.2766 107.822 91.3876 107.822 91.3876 107.933L91.1656 108.933C91.3876 108.711 91.6097 108.711 91.8318 108.6C92.1649 108.6 92.4981 108.822 92.4981 109.155C92.4981 109.266 92.4981 109.266 92.4981 109.377L92.276 110.487C92.276 110.598 92.1649 110.598 92.1649 110.598C92.1649 110.598 92.0539 110.598 92.0539 110.487L92.276 109.377Z" fill="black"/>
<path d="M93.165 109.266C93.2761 109.155 93.2761 109.155 93.165 109.266L94.0534 109.155C94.0534 109.155 94.1644 109.155 94.1644 109.266C94.1644 109.266 94.1644 109.377 94.0534 109.377L93.165 109.266C93.2761 109.266 93.165 109.266 93.165 109.266Z" fill="black"/>
<path d="M95.3863 108.155L94.9421 108.378H94.8311C94.8311 108.378 94.8311 108.266 94.9421 108.266L95.4973 107.933H95.6084C95.6084 107.933 95.6084 107.933 95.6084 108.044L95.0532 110.598L94.9421 110.709C94.9421 110.709 94.8311 110.709 94.8311 110.598L95.3863 108.155Z" fill="black"/>
<path d="M96.052 109.266C96.1631 108.933 96.2741 108.6 96.4962 108.267C96.7183 108.044 96.9404 107.933 97.2735 107.822C97.4956 107.822 97.7177 108.044 97.8287 108.267C97.9398 108.6 97.9398 108.933 97.8287 109.266C97.7177 109.599 97.6066 109.932 97.3845 110.265C97.1625 110.487 96.9404 110.71 96.6072 110.71C96.3852 110.71 96.052 110.487 96.052 110.265C95.941 109.932 95.941 109.599 96.052 109.266ZM96.2741 109.266C96.1631 109.599 96.1631 109.821 96.2741 110.154C96.3852 110.376 96.4962 110.487 96.7183 110.487C96.9404 110.487 97.1625 110.376 97.2735 110.154C97.4956 109.932 97.6066 109.599 97.7177 109.266C97.8287 108.933 97.8287 108.711 97.7177 108.378C97.6066 108.156 97.4956 108.044 97.2735 108.044C97.0514 108.044 96.8293 108.156 96.7183 108.378C96.3852 108.6 96.2741 108.933 96.2741 109.266Z" fill="black"/>
<path d="M100.383 109.932H99.1612L98.717 110.598L98.606 110.709C98.606 110.709 98.495 110.598 98.606 110.598L100.161 108.044L100.272 107.933C100.272 107.933 100.383 107.933 100.383 108.044L100.716 110.598C100.716 110.598 100.716 110.709 100.605 110.709C100.605 110.709 100.494 110.709 100.494 110.598L100.383 109.932ZM99.1612 109.71H100.272L100.05 108.266L99.1612 109.71Z" fill="black"/>
<path d="M103.824 108.267L102.714 109.488H102.603H102.492L101.936 108.267L101.381 110.487L101.27 110.598C101.27 110.598 101.159 110.598 101.159 110.487L101.714 107.933C101.714 107.933 101.714 107.933 101.825 107.822H101.936L102.603 109.155L103.935 107.822H104.046L103.491 110.376L103.38 110.487C103.38 110.487 103.269 110.487 103.269 110.376L103.824 108.267Z" fill="black"/>
<path d="M21.6523 89.0562C20.875 89.0562 20.0977 88.7231 19.6535 88.0568C19.0983 87.3906 18.321 85.947 19.0983 83.3931C19.8756 80.9501 21.5413 80.0618 22.8738 80.2839C23.8732 80.5059 25.0946 81.5053 24.8725 83.8372C24.8725 84.1704 24.5394 84.5035 24.2063 84.3924C23.8732 84.3924 23.54 84.0593 23.6511 83.7262C23.7621 82.5047 23.429 81.7274 22.7627 81.5053C21.9854 81.3943 20.986 82.0605 20.4308 83.7262C19.9867 85.1697 20.0977 86.5023 20.6529 87.1685C20.875 87.5016 21.3192 87.7237 21.7634 87.7237C22.0965 87.6127 22.4296 87.8348 22.5406 88.2789C22.6517 88.6121 22.4296 88.9452 21.9854 89.0562H21.8744C21.7633 89.0562 21.7633 89.0562 21.6523 89.0562Z" fill="#A6A6A6"/>
<path d="M29.7597 89.0562C28.9824 89.0562 28.2051 88.7231 27.761 88.0568C27.2057 87.3906 26.4284 85.947 27.2057 83.3931C27.872 80.9501 29.6487 80.0618 30.9812 80.2839C31.9806 80.5059 33.202 81.5053 32.98 83.8372C32.98 84.1704 32.6468 84.5035 32.3137 84.3924C31.9806 84.3924 31.6475 84.0593 31.7585 83.6151C31.8695 82.3937 31.5364 81.6164 30.8701 81.3943C30.0929 81.2832 29.0935 81.9495 28.5382 83.6151C28.0941 85.0587 28.2051 86.3912 28.7603 87.0575C28.9824 87.3906 29.4266 87.6127 29.8708 87.6127C30.2039 87.5016 30.537 87.7237 30.6481 88.1679C30.7591 88.501 30.537 88.8341 30.0929 88.9452H29.9818C29.8708 89.0562 29.8708 89.0562 29.7597 89.0562Z" fill="#A6A6A6"/>
<path d="M37.8652 89.0562C37.0879 89.0562 36.3106 88.7231 35.8664 88.0568C35.3112 87.3906 34.5339 85.947 35.3112 83.3931C35.9775 80.9501 37.7541 80.0618 39.0867 80.2839C40.086 80.5059 41.3075 81.5053 41.0854 83.8372C41.0854 84.1704 40.7523 84.5035 40.4192 84.3924C40.086 84.3924 39.7529 84.0593 39.8639 83.7262C39.975 82.5047 39.6419 81.7274 38.9756 81.5053C38.3094 81.2832 37.1989 82.0605 36.6437 83.7262C36.1995 85.1697 36.3106 86.5023 36.8658 87.1685C37.0879 87.5016 37.5321 87.7237 37.9762 87.7237C38.3094 87.6127 38.6425 87.8348 38.7535 88.2789C38.8646 88.6121 38.6425 88.9452 38.1983 89.0562H38.0873C37.9762 89.0562 37.8652 89.0562 37.8652 89.0562Z" fill="#A6A6A6"/>
<path d="M45.9716 89.0562C45.1943 89.0562 44.417 88.7231 43.9729 88.0568C43.4177 87.3906 42.6404 85.947 43.4177 83.3931C44.0839 80.9501 45.8606 80.0618 47.1931 80.2839C48.1925 80.5059 49.414 81.5053 49.1919 83.8372C49.1919 84.1704 48.8587 84.5035 48.5256 84.3924C48.1925 84.3924 47.8593 84.0593 47.9704 83.7262C48.0814 82.5047 47.7483 81.7274 47.082 81.5053C46.4158 81.2832 45.3054 82.0605 44.7502 83.7262C44.306 85.1697 44.417 86.5023 44.9722 87.1685C45.1943 87.5016 45.6385 87.7237 46.0827 87.7237C46.4158 87.6127 46.7489 87.8348 46.86 88.2789C46.971 88.6121 46.7489 88.9452 46.3048 89.0562H46.1937C46.0827 89.0562 45.9716 89.0562 45.9716 89.0562Z" fill="#A6A6A6"/>
<path d="M53.9668 89.0562C53.1895 89.0562 52.4122 88.6121 51.968 88.0568C51.4128 87.3906 50.6355 85.947 51.4128 83.3931C52.079 80.9501 53.8557 80.0618 55.1882 80.2839C56.1876 80.5059 57.4091 81.5053 57.187 83.8372C57.187 84.1704 56.8538 84.5035 56.5207 84.3924C56.1876 84.3924 55.8545 84.0593 55.9655 83.7262C56.0766 82.5047 55.7434 81.7274 55.0772 81.5053C54.4109 81.3943 53.3005 82.0605 52.7453 83.7262C52.3011 85.1697 52.4121 86.5023 52.9674 87.1685C53.1894 87.5016 53.6336 87.7237 54.0778 87.7237C54.4109 87.6127 54.744 87.8348 54.8551 88.2789C54.9661 88.6121 54.744 88.9452 54.2999 89.0562H54.1888C54.1888 89.0562 54.0778 89.0562 53.9668 89.0562Z" fill="#A6A6A6"/>
<path d="M62.0722 89.0562C61.2949 89.0562 60.5176 88.6121 60.0735 88.0568C59.5182 87.3906 58.7409 85.947 59.5182 83.3931C60.1845 80.9501 61.9612 80.0618 63.2937 80.2839C64.2931 80.5059 65.5145 81.5053 65.2925 83.8372C65.2925 84.1704 64.9593 84.5035 64.6262 84.3924C64.2931 84.3924 63.9599 84.0593 64.071 83.7262C64.182 82.5047 63.8489 81.7274 63.1826 81.5053C62.4053 81.3943 61.406 82.0605 60.8507 83.7262C60.4066 85.1697 60.5176 86.5023 61.0728 87.1685C61.2949 87.5016 61.7391 87.7237 62.1833 87.7237C62.5164 87.7237 62.8495 87.9458 62.8495 88.39C62.8495 88.7231 62.6274 89.0562 62.2943 89.0562C62.2943 89.0562 62.1832 89.0562 62.0722 89.0562Z" fill="#A6A6A6"/>
<path d="M70.1787 89.0562C69.4014 89.0562 68.6241 88.6121 68.1799 88.0568C67.6247 87.3906 66.8474 85.947 67.6247 83.3931C68.402 80.9501 70.0676 80.0618 71.4001 80.2839C72.3995 80.5059 73.621 81.5053 73.3989 83.8372C73.3989 84.1704 73.0658 84.5035 72.7327 84.3924C72.3995 84.3924 72.0664 84.0593 72.1774 83.7262C72.2885 82.5047 71.9554 81.7274 71.2891 81.5053C70.5118 81.3943 69.5124 82.0605 68.9572 83.7262C68.513 85.1697 68.6241 86.5023 69.1793 87.1685C69.4014 87.5016 69.8455 87.7237 70.2897 87.7237C70.6228 87.6127 70.956 87.8348 71.067 88.2789C71.1781 88.6121 70.956 88.9452 70.5118 89.0562H70.4008C70.4008 89.0562 70.2897 89.0562 70.1787 89.0562Z" fill="#A6A6A6"/>
<path d="M78.2841 89.0562C77.5068 89.0562 76.7295 88.6121 76.2854 88.0568C75.7302 87.3906 74.9529 85.947 75.7302 83.3931C76.5075 80.9501 78.1731 80.0618 79.5056 80.2839C80.505 80.5059 81.7265 81.5053 81.5044 83.8372C81.5044 84.1704 81.1712 84.5035 80.8381 84.3924C80.505 84.3924 80.1719 84.0593 80.2829 83.7262C80.394 82.5047 80.0608 81.7274 79.3946 81.5053C78.6173 81.3943 77.6179 82.0605 77.0627 83.7262C76.6185 85.1697 76.7295 86.5023 77.2848 87.1685C77.5068 87.5016 77.951 87.7237 78.3952 87.7237C78.7283 87.7237 79.0614 87.9458 79.0614 88.39C79.0614 88.7231 78.8393 89.0562 78.5062 89.0562C78.5062 89.0562 78.3952 89.0562 78.2841 89.0562Z" fill="#A6A6A6"/>
<path d="M86.3916 89.0562C85.6143 89.0562 84.837 88.6121 84.3928 88.0568C83.8376 87.3906 83.0603 85.947 83.8376 83.3931C84.5038 80.9501 86.2805 80.0618 87.613 80.2839C88.6124 80.5059 89.8339 81.5053 89.6118 83.8372C89.6118 84.1704 89.2787 84.5035 88.9455 84.3924C88.6124 84.3924 88.2793 84.0593 88.3903 83.7262C88.5014 82.5047 88.1682 81.7274 87.502 81.5053C86.8357 81.3943 85.7253 82.0605 85.1701 83.7262C84.7259 85.1697 84.837 86.5023 85.3922 87.1685C85.6143 87.5016 86.0584 87.7237 86.5026 87.7237C86.8357 87.6127 87.1689 87.8348 87.2799 88.2789C87.3909 88.6121 87.1689 88.9452 86.7247 89.0562H86.6136C86.6136 89.0562 86.5026 89.0562 86.3916 89.0562Z" fill="#A6A6A6"/>
<path d="M94.497 89.0562C93.7197 89.0562 92.9424 88.7231 92.4983 88.0568C91.943 87.3906 91.1657 85.947 91.943 83.3931C92.6093 80.9501 94.386 80.0618 95.7185 80.2839C96.7179 80.5059 97.9393 81.5053 97.7173 83.8372C97.7173 84.1704 97.3841 84.5035 97.051 84.3924C96.7179 84.3924 96.3847 84.0593 96.4958 83.7262C96.6068 82.5047 96.2737 81.7274 95.6075 81.5053C94.8302 81.3943 93.8308 82.0605 93.2756 83.7262C92.8314 85.1697 92.9424 86.5023 93.4976 87.1685C93.7197 87.5016 94.1639 87.7237 94.6081 87.7237C94.9412 87.7237 95.2743 87.9458 95.2743 88.39C95.2743 88.7231 95.0522 89.0562 94.7191 89.0562C94.7191 89.0562 94.6081 89.0562 94.497 89.0562Z" fill="#A6A6A6"/>
<path d="M102.603 89.0562C101.826 89.0562 101.049 88.7231 100.605 88.0568C100.049 87.3906 99.2722 85.947 100.049 83.3931C100.716 80.9501 102.492 80.0618 103.825 80.2839C104.824 80.5059 106.046 81.5053 105.824 83.8372C105.824 84.1704 105.491 84.5035 105.157 84.3924C104.824 84.3924 104.491 84.0593 104.602 83.7262C104.713 82.5047 104.38 81.7274 103.714 81.5053C103.048 81.3943 101.937 82.0605 101.382 83.7262C100.938 85.1697 101.049 86.5023 101.604 87.1685C101.826 87.5016 102.27 87.7237 102.715 87.7237C103.048 87.6127 103.381 87.8348 103.492 88.2789C103.603 88.6121 103.381 88.9452 102.937 89.0562H102.826C102.715 89.0562 102.714 89.0562 102.603 89.0562Z" fill="#A6A6A6"/>
<path d="M110.709 89.0562C109.932 89.0562 109.154 88.6121 108.71 88.0568C108.155 87.3906 107.378 85.947 108.155 83.3931C108.821 80.9501 110.598 80.0618 111.93 80.2839C112.93 80.5059 114.151 81.5053 113.929 83.8372C113.929 84.1704 113.596 84.5035 113.263 84.3924C112.93 84.3924 112.597 84.0593 112.708 83.7262C112.819 82.5047 112.486 81.7274 111.819 81.5053C111.042 81.3943 110.043 82.0605 109.487 83.7262C109.043 85.1697 109.154 86.5023 109.71 87.1685C109.932 87.5016 110.376 87.7237 110.82 87.7237C111.153 87.7237 111.486 87.9458 111.486 88.2789C111.486 88.6121 111.264 88.9452 110.931 88.9452C110.82 89.0562 110.82 89.0562 110.709 89.0562Z" fill="#A6A6A6"/>
<path d="M118.815 89.0562C118.038 89.0562 117.261 88.6121 116.817 88.0568C116.261 87.3906 115.484 85.947 116.261 83.3931C116.928 80.9501 118.704 80.0618 120.037 80.2839C121.036 80.5059 122.258 81.5053 122.036 83.8372C122.036 84.1704 121.702 84.5035 121.369 84.3924C121.036 84.3924 120.703 84.0593 120.814 83.7262C120.925 82.5047 120.592 81.7274 119.926 81.5053C119.149 81.3943 118.149 82.0605 117.594 83.7262C117.15 85.1697 117.261 86.5023 117.816 87.1685C118.038 87.5016 118.482 87.7237 118.926 87.7237C119.26 87.7237 119.593 87.9458 119.593 88.39C119.593 88.7231 119.371 89.0562 119.037 89.0562C118.926 89.0562 118.926 89.0562 118.815 89.0562Z" fill="#A6A6A6"/>
</svg>
